<svg xmlns="http://www.w3.org/2000/svg" fill="none" width="174" height="32" viewBox="0 0 174 32"><rect width="174" height="32" fill="#00DC82" rx="6"/><path fill="#020420" d="M21.2202 22.5247h7.4348c.2362 0 .4682-.0603.6727-.1749.2032-.1132.373-.2779.4923-.4776.1177-.1973.1799-.4228.18-.6525-.0003-.2298-.0627-.4552-.1806-.6524l-4.9931-8.3887c-.1193-.1996-.2891-.3643-.4922-.4775-.2055-.1149-.4371-.1751-.6725-.1749-.2361 0-.468.0603-.6725.1748-.2032.1132-.3729.278-.4923.4776l-1.2766 2.1465-2.4962-4.1972c-.1194-.19959-.2893-.36426-.4925-.47748-.2056-.11479-.4371-.17498-.6726-.17483-.2362 0-.4681.06025-.6726.17475-.2033.11321-.3731.27789-.4926.47746l-6.213 10.4396c-.1179.1972-.1804.4225-.1807.6523-.00008.2291.062.4541.18.6525.1193.1996.2891.3644.4923.4776.2045.1146.4365.1749.6727.1749h4.6669c1.8492 0 3.2128-.7879 4.1511-2.3249l2.2781-3.8269 1.2201-2.0478 3.6621 6.1517h-4.8822l-1.2209 2.0479Zm-5.2844-2.0501-3.2569-.0008 4.8822-8.2017 2.436 4.1008-1.631 2.741c-.6232.9973-1.331 1.3607-2.4303 1.3607ZM36.994 21v-9.8h3.164c1.1387 0 2.0767.2007 2.814.602.7467.4013 1.2973.9707 1.652 1.708.364.728.546 1.596.546 2.604 0 .9893-.182 1.8527-.546 2.59-.3547.728-.9053 1.2927-1.652 1.694-.7373.4013-1.6753.602-2.814.602h-3.164Zm1.68-1.428h1.4c.8493 0 1.5167-.1353 2.002-.406.4947-.28.8447-.6767 1.05-1.19.2147-.5227.322-1.1433.322-1.862 0-.728-.1073-1.3487-.322-1.862-.2053-.5227-.5553-.924-1.05-1.204-.4853-.2893-1.1527-.434-2.002-.434h-1.4v6.958Zm11.3844 1.596c-.7 0-1.316-.1493-1.848-.448-.532-.308-.9473-.7373-1.246-1.288-.2987-.5507-.448-1.1853-.448-1.904 0-.7467.1447-1.4.434-1.96.2987-.56.714-.9987 1.246-1.316.5413-.3173 1.1667-.476 1.876-.476.6907 0 1.2927.154 1.806.462.5133.308.91.7233 1.19 1.246.28.5133.42 1.092.42 1.736v.308c0 .112-.0093.2287-.028.35h-5.74V16.8h4.074c-.0187-.5133-.1913-.9147-.518-1.204-.3267-.2987-.7327-.448-1.218-.448-.3453 0-.6627.0793-.952.238s-.518.3967-.686.714c-.168.308-.252.7-.252 1.176v.406c0 .4387.0793.8167.238 1.134.168.3173.392.56.672.728.2893.1587.6113.238.966.238.392 0 .714-.084.966-.252.2613-.168.4527-.392.574-.672h1.708c-.1307.4387-.3453.8353-.644 1.19-.2987.3453-.6673.6207-1.106.826-.4387.196-.9333.294-1.484.294Zm4.9812 2.912V13.944h1.498l.182 1.022c.1493-.2053.3266-.3967.532-.574.2146-.1867.4713-.336.77-.448.308-.112.658-.168 1.05-.168.6626 0 1.246.1633 1.75.49.5133.3267.9146.77 1.204 1.33.2893.5507.434 1.1807.434 1.89 0 .7093-.1494 1.344-.448 1.904-.2894.5507-.6907.9847-1.204 1.302-.504.3173-1.0827.476-1.736.476-.532 0-.9987-.098-1.4-.294-.392-.2053-.7094-.4947-.952-.868v4.074h-1.68Zm3.682-4.368c.392 0 .742-.0933 1.05-.28.308-.1867.546-.448.714-.784.1773-.336.266-.7233.266-1.162 0-.448-.0887-.84-.266-1.176-.168-.336-.406-.5973-.714-.784-.308-.1867-.658-.28-1.05-.28-.4014 0-.756.0933-1.064.28-.2987.1867-.5367.448-.714.784-.168.336-.252.7233-.252 1.162 0 .448.084.84.252 1.176.1773.3267.4153.588.714.784.308.1867.6626.28 1.064.28ZM64.0903 21V10.92h1.68V21h-1.68Zm6.8447.168c-.672 0-1.2786-.154-1.82-.462-.532-.3173-.952-.7513-1.26-1.302-.2986-.56-.448-1.1993-.448-1.918 0-.7373.154-1.3813.462-1.932.308-.56.728-.994 1.26-1.302.5414-.3173 1.148-.476 1.82-.476.672 0 1.274.1587 1.806.476.5414.308.9614.7373 1.26 1.288.308.5507.462 1.1947.462 1.932 0 .7373-.154 1.3813-.462 1.932-.308.5507-.7326.9847-1.274 1.302-.532.308-1.134.462-1.806.462Zm0-1.442c.336 0 .6394-.084.91-.252.28-.168.504-.42.672-.756.168-.336.252-.7513.252-1.246 0-.4947-.084-.9053-.252-1.232-.1586-.336-.378-.588-.658-.756-.2706-.168-.574-.252-.91-.252-.3266 0-.63.084-.91.252-.28.168-.504.42-.672.756-.168.3267-.252.7373-.252 1.232 0 .4947.084.91.252 1.246.168.336.3874.588.658.756.28.168.5834.252.91.252Zm5.4254 4.354 1.722-3.864h-.42l-2.814-6.272h1.834l2.1 4.788 1.988-4.788h1.778l-4.41 10.136h-1.778ZM90.2481 21c-.476 0-.8913-.0747-1.246-.224-.3453-.1493-.616-.3967-.812-.742-.196-.3453-.294-.812-.294-1.4v-3.276h-1.204v-1.414h1.204l.196-1.862h1.484v1.862h1.918v1.414h-1.918v3.276c0 .3547.0747.602.224.742.1587.1307.42.196.784.196h.868V21h-1.204Zm5.9389.168c-.672 0-1.2787-.154-1.82-.462-.532-.3173-.952-.7513-1.26-1.302-.2987-.56-.448-1.1993-.448-1.918 0-.7373.154-1.3813.462-1.932.308-.56.728-.994 1.26-1.302.5413-.3173 1.148-.476 1.82-.476.672 0 1.274.1587 1.806.476.5413.308.9613.7373 1.26 1.288.308.5507.462 1.1947.462 1.932 0 .7373-.154 1.3813-.462 1.932-.308.5507-.7327.9847-1.274 1.302-.532.308-1.134.462-1.806.462Zm0-1.442c.336 0 .6393-.084.91-.252.28-.168.504-.42.672-.756.168-.336.252-.7513.252-1.246 0-.4947-.084-.9053-.252-1.232-.1587-.336-.378-.588-.658-.756-.2707-.168-.574-.252-.91-.252-.3267 0-.63.084-.91.252-.28.168-.504.42-.672.756-.168.3267-.252.7373-.252 1.232 0 .4947.084.91.252 1.246.168.336.3873.588.658.756.28.168.5833.252.91.252ZM104.848 21v-9.8h1.68l4.718 7.084V11.2h1.68V21h-1.68l-4.718-7.07V21h-1.68Zm12.61.168c-.569 0-1.059-.112-1.47-.336-.401-.2333-.709-.5787-.924-1.036-.214-.4667-.322-1.0407-.322-1.722v-4.13h1.68v3.962c0 .6067.126 1.0687.378 1.386.262.308.654.462 1.176.462.336 0 .635-.0793.896-.238.271-.1587.481-.3873.63-.686.159-.308.238-.6813.238-1.12v-3.766h1.68V21h-1.484l-.126-1.176c-.214.4107-.527.7373-.938.98-.401.2427-.872.364-1.414.364Zm5.174-.168 2.492-3.528-2.492-3.528h1.806l1.764 2.562 1.764-2.562h1.806l-2.492 3.528L129.772 21h-1.806l-1.764-2.562L124.438 21h-1.806Zm11.407 0c-.476 0-.891-.0747-1.246-.224-.345-.1493-.616-.3967-.812-.742-.196-.3453-.294-.812-.294-1.4v-3.276h-1.204v-1.414h1.204l.196-1.862h1.484v1.862h1.918v1.414h-1.918v3.276c0 .3547.075.602.224.742.159.1307.42.196.784.196h.868V21h-1.204Zm9.071 0v-9.8h1.68V21h-1.68Zm-6.188 0v-9.8h1.68V21h-1.68Zm1.428-4.312v-1.372h5.082v1.372h-5.082Zm10.991 4.48c-.569 0-1.059-.112-1.47-.336-.401-.2333-.709-.5787-.924-1.036-.215-.4667-.322-1.0407-.322-1.722v-4.13h1.68v3.962c0 .6067.126 1.0687.378 1.386.261.308.653.462 1.176.462.336 0 .635-.0793.896-.238.271-.1587.481-.3873.63-.686.159-.308.238-.6813.238-1.12v-3.766h1.68V21h-1.484l-.126-1.176c-.215.4107-.527.7373-.938.98-.401.2427-.873.364-1.414.364Zm9.863 0c-.373 0-.709-.0513-1.008-.154-.298-.0933-.56-.224-.784-.392-.224-.1773-.41-.378-.56-.602l-.182.98h-1.498V10.92h1.68v4.06c.224-.3453.528-.63.91-.854.383-.2333.859-.35 1.428-.35.663 0 1.246.1633 1.75.49.514.3173.915.756 1.204 1.316.299.5507.448 1.1853.448 1.904 0 .7-.144 1.33-.434 1.89-.289.56-.69.9987-1.204 1.316-.504.3173-1.087.476-1.75.476Zm-.35-1.456c.392 0 .742-.0933 1.05-.28.308-.196.546-.4573.714-.784.178-.336.266-.728.266-1.176 0-.4387-.088-.826-.266-1.162-.168-.336-.406-.5973-.714-.784-.308-.1867-.658-.28-1.05-.28-.401 0-.756.0933-1.064.28-.298.1867-.536.448-.714.784-.168.336-.252.7233-.252 1.162 0 .448.084.84.252 1.176.178.3267.416.588.714.784.308.1867.663.28 1.064.28Z"/></svg>
