<svg xmlns="http://www.w3.org/2000/svg" fill="none" viewBox="0 0 276 156"><rect width="275" height="155" x=".5" y=".5" stroke="#E2E8F0" rx="12.5"/><g clip-path="url(#a)"><path fill="url(#b)" d="M1 1h357v356H1z"/><g clip-path="url(#c)" opacity=".27"><path stroke="url(#d)" stroke-opacity=".28" d="M-195.365 87.8671 234.187 335.869M-181.508 79.8671 248.044 327.869M-167.652 71.8671 261.9 319.869M-153.795 63.8671 275.757 311.869M-139.939 55.8671 289.613 303.869M-126.083 47.8671 303.469 295.869M-112.226 39.8672 317.326 287.869M-98.3699 31.8672 331.182 279.869M-84.5135 23.8672 345.039 271.869M-70.6571 15.8672 358.895 263.869M-56.8007 7.86719 372.751 255.869M-42.9443-.132812 386.608 247.869M-29.0879-8.13281 400.464 239.869M-15.2315-16.1328 414.321 231.869M-1.37507-24.1328 428.177 223.869M12.4813-32.1328 442.033 215.869M26.3377-40.1328 455.89 207.869M40.1942-48.1328 469.746 199.869M54.0506-56.1328 483.603 191.869M67.907-64.1328 497.459 183.869M81.7634-72.1328 511.315 175.869M95.6198-80.1328 525.172 167.869M109.476-88.1328 539.028 159.869M123.333-96.1328 552.885 151.869M137.189-104.133l429.552 248.002M151.045-112.133l429.553 248.002M164.902-120.133l429.552 248.002M178.758-128.133 608.31 119.869M192.615-136.133l429.552 248.002M206.471-144.133l429.552 248.002M220.327-152.133 649.88 95.8692M234.184-160.133 663.736 87.8692M234.386-159.75-195.166 88.2523M248.231-151.741-181.321 96.261m443.395-239.994-429.552 248.002m443.394-239.996-429.552 248.002m443.397-239.994-429.552 248.003m443.395-239.996L-125.948 128.29m443.395-239.995-429.552 248.002m443.397-239.993L-98.2605 144.306M345.134-95.6897-84.4185 152.312M358.979-87.6812-70.5735 160.321M372.821-79.675-56.731 168.327M386.664-71.6672-42.8881 176.335M400.509-63.6587-29.0432 184.343M414.351-55.6526-15.2007 192.349M428.196-47.6438-1.35613 200.358M442.038-39.6377 12.4863 208.364M455.882-31.6301 26.3296 216.372M469.726-23.6213 40.1742 224.381M483.569-15.6152 54.0166 232.387M497.414-7.60669 67.8616 240.395M511.256.399658 81.7037 248.402M525.099 8.40723 95.547 256.409M538.944 16.416 109.392 264.418M552.786 24.4221 123.234 272.424M566.631 32.4307 137.079 280.433M580.474 40.4382 150.922 288.44M594.316 48.4446 164.764 296.447M608.161 56.4534 178.609 304.455M622.003 64.4595 192.451 312.461M635.848 72.468 206.296 320.47M649.692 80.4756 220.14 328.478M663.534 88.4819 233.982 336.484"/><path fill="url(#e)" fill-rule="evenodd" d="m116.263-4.70379 14.348 8.33088-.478.70189-14.352-8.30897.482-.7238Z" clip-rule="evenodd"/><path fill="url(#f)" fill-rule="evenodd" d="m115.445 4.44691 15.031-8.74077.563.72295-15.112 8.68029-.482-.66247Z" clip-rule="evenodd"/><path fill="url(#g)" fill-rule="evenodd" d="m46.9324 35.2239 14.3474 8.3309-.478.7019-14.3516-8.309.4822-.7238Z" clip-rule="evenodd" opacity=".58"/><path fill="url(#h)" fill-rule="evenodd" d="m46.1128 44.4518 15.0609-8.695.5372.7127-15.1854 8.7196-.4127-.7373Z" clip-rule="evenodd" opacity=".58"/><path fill="url(#i)" fill-rule="evenodd" d="M186.482 51.7762 200.5 60l-.478.7019L186 52.5001l.482-.7239Z" clip-rule="evenodd" opacity=".58"/><path fill="url(#j)" fill-rule="evenodd" d="M185.087 60.263 200 51.5003l.537.7128-15.037 8.7871-.413-.7372Z" clip-rule="evenodd" opacity=".58"/></g><path fill="url(#k)" d="M129.505 64.9176c3.664-2.13 5.496-3.195 7.874-3.4106 2.378-.2155 4.687.4741 9.306 1.8533l.794.2371c1.504.4492 2.256.6738 2.895.9877.64.314 1.144.7065 2.154 1.4915l17.576 13.6708c1.436 1.1164 2.153 1.6747 2.525 2.3232.371.6486.371 1.3438.371 2.7343v1.6544c0 1.7465 0 2.6198-.567 3.4038-.566.7841-1.641 1.3984-3.791 2.627l-20.303 11.6019c-4.878 2.787-7.317 4.181-10.339 4.181-3.022 0-5.461-1.394-10.339-4.181l-20.303-11.6019c-2.15-1.2286-3.225-1.8429-3.791-2.6269-.567-.7841-.567-1.6574-.567-3.4039v-3.1947c0-.1343 0-.2015.007-.2925.007-.0909.014-.1393.028-.2362.061-.4059.204-1.1932.465-1.7362.303-.6294 2.203-2.0599 3.07-2.691.182-.1326.273-.1989.409-.2873.136-.0884.259-.1602.507-.3039l22.019-12.7999Z"/><path fill="url(#l)" d="M129.505 64.9176c3.664-2.13 5.496-3.195 7.874-3.4106 2.378-.2155 4.687.4741 9.306 1.8533l.794.2371c1.504.4492 2.256.6738 2.895.9877.64.314 1.144.7065 2.154 1.4915l17.576 13.6708c1.436 1.1164 2.153 1.6747 2.525 2.3232.371.6486.371 1.3438.371 2.7343v1.6544c0 1.7465 0 2.6198-.567 3.4038-.566.7841-1.641 1.3984-3.791 2.627l-20.303 11.6019c-4.878 2.787-7.317 4.181-10.339 4.181-3.022 0-5.461-1.394-10.339-4.181l-20.303-11.6019c-2.15-1.2286-3.225-1.8429-3.791-2.6269-.567-.7841-.567-1.6574-.567-3.4039v-3.1947c0-.1343 0-.2015.007-.2925.007-.0909.014-.1393.028-.2362.061-.4059.204-1.1932.465-1.7362.303-.6294 2.203-2.0599 3.07-2.691.182-.1326.273-.1989.409-.2873.136-.0884.259-.1602.507-.3039l22.019-12.7999Z"/><path fill="url(#m)" d="M129.505 64.9176c3.664-2.13 5.496-3.195 7.874-3.4106 2.378-.2155 4.687.4741 9.306 1.8533l.794.2371c1.504.4492 2.256.6738 2.895.9877.64.314 1.144.7065 2.154 1.4915l17.576 13.6708c1.436 1.1164 2.153 1.6747 2.525 2.3232.371.6486.371 1.3438.371 2.7343v1.6544c0 1.7465 0 2.6198-.567 3.4038-.566.7841-1.641 1.3984-3.791 2.627l-20.303 11.6019c-4.878 2.787-7.317 4.181-10.339 4.181-3.022 0-5.461-1.394-10.339-4.181l-20.303-11.6019c-2.15-1.2286-3.225-1.8429-3.791-2.6269-.567-.7841-.567-1.6574-.567-3.4039v-3.1947c0-.1343 0-.2015.007-.2925.007-.0909.014-.1393.028-.2362.061-.4059.204-1.1932.465-1.7362.303-.6294 2.203-2.0599 3.07-2.691.182-.1326.273-.1989.409-.2873.136-.0884.259-.1602.507-.3039l22.019-12.7999Z"/><g clip-path="url(#n)"><rect width="44" height="44" fill="url(#o)" fill-opacity=".21" rx="6" transform="matrix(.866025 .5 -.866025 .5 138.105 60)"/><rect width="43" height="43" x="-3e-8" y=".5" stroke="#E2E8F0" stroke-opacity=".2" rx="5.5" transform="matrix(.866025 .5 -.866025 .5 138.538 60.25)"/></g><g clip-path="url(#p)"><rect width="44" height="44" fill="url(#q)" fill-opacity=".21" rx="6" transform="matrix(.866025 .5 -.866025 .5 138.105 60)"/><rect width="44" height="44" fill="#94A3B8" fill-opacity=".4" rx="6" transform="matrix(.866025 .5 -.866025 .5 138.105 60)"/><rect width="44" height="44" fill="url(#r)" rx="6" transform="matrix(.866025 .5 -.866025 .5 138.105 60)"/><rect width="43" height="43" x="-3e-8" y=".5" stroke="#94A3B8" stroke-opacity=".17" rx="5.5" transform="matrix(.866025 .5 -.866025 .5 138.538 60.25)"/></g><rect width="43" height="43" x="-3e-8" y=".5" fill="#fff" rx="5.5" transform="matrix(.866025 .5 -.866025 .5 138.538 52.25)"/><rect width="43" height="43" x="-3e-8" y=".5" fill="url(#s)" fill-opacity=".21" rx="5.5" transform="matrix(.866025 .5 -.866025 .5 138.538 52.25)"/><rect width="43" height="43" x="-3e-8" y=".5" fill="url(#t)" rx="5.5" transform="matrix(.866025 .5 -.866025 .5 138.538 52.25)"/><rect width="43" height="43" x="-3e-8" y=".5" stroke="#E2E8F0" rx="5.5" transform="matrix(.866025 .5 -.866025 .5 138.538 52.25)"/><g clip-path="url(#u)"><path fill="#1E293B" d="m132.272 76.6475 7.727 4.4609c.245.1417.549.2447.88.2987.329.054.677.057 1.008.0088.328-.0478.627-.1457.866-.2835.238-.138.408-.3107.49-.4998l3.529-8.0291c.083-.1913.078-.392-.016-.5818-.094-.1922-.272-.3673-.517-.5085-.245-.1416-.549-.2446-.88-.2986-.329-.0539-.677-.0569-1.008-.0088l-3.558.5219 1.768-4.016c.083-.1914.078-.3921-.015-.582-.095-.1922-.273-.3672-.518-.5084-.245-.1417-.549-.2447-.88-.2988-.329-.054-.677-.0571-1.008-.009l-17.306 2.5359c-.328.0476-.627.1453-.866.283-.238.1374-.408.3097-.491.4995-.083.1914-.078.3921.015.582.094.1914.272.3668.518.5085l4.85 2.8001c1.921 1.1095 4.157 1.455 6.73 1.0957l6.344-.9292 3.396-.4966-2.587 5.8882-5.074-2.9293-3.397.4962Zm-3.361-4.4007-3.384-1.9546 13.597-1.9917-1.73 3.9221-4.543.666c-1.684.2244-2.798.0178-3.94-.6418Z"/></g></g><defs><linearGradient id="b" x1="179.5" x2="179.5" y1="1" y2="357" gradientUnits="userSpaceOnUse"><stop stop-color="#fff"/><stop offset=".72" stop-color="#E2E8F0"/></linearGradient><linearGradient id="d" x1="146.504" x2="33.2841" y1="108.998" y2="-73.7171" gradientUnits="userSpaceOnUse"><stop offset=".0001" stop-color="#64748B" stop-opacity="0"/><stop offset=".985" stop-color="#64748B"/></linearGradient><linearGradient id="e" x1="116.025" x2="129.987" y1="-4.88115" y2="4.42679" gradientUnits="userSpaceOnUse"><stop offset=".005" stop-color="#94A3B8" stop-opacity="0"/><stop offset=".52" stop-color="#94A3B8"/><stop offset="1" stop-color="#94A3B8" stop-opacity="0"/></linearGradient><linearGradient id="f" x1="115.482" x2="130.342" y1="4.24527" y2="-3.54792" gradientUnits="userSpaceOnUse"><stop offset=".005" stop-color="#94A3B8" stop-opacity="0"/><stop offset=".52" stop-color="#94A3B8"/><stop offset="1" stop-color="#94A3B8" stop-opacity="0"/></linearGradient><linearGradient id="g" x1="46.6943" x2="60.6562" y1="35.0466" y2="44.3545" gradientUnits="userSpaceOnUse"><stop offset=".005" stop-color="#94A3B8" stop-opacity="0"/><stop offset=".52" stop-color="#94A3B8"/><stop offset="1" stop-color="#94A3B8" stop-opacity="0"/></linearGradient><linearGradient id="h" x1="46.1505" x2="61.0112" y1="44.173" y2="36.3798" gradientUnits="userSpaceOnUse"><stop offset=".005" stop-color="#94A3B8" stop-opacity="0"/><stop offset=".52" stop-color="#94A3B8"/><stop offset="1" stop-color="#94A3B8" stop-opacity="0"/></linearGradient><linearGradient id="i" x1="185.909" x2="199.871" y1="51.677" y2="60.9849" gradientUnits="userSpaceOnUse"><stop offset=".005" stop-color="#94A3B8" stop-opacity="0"/><stop offset=".52" stop-color="#94A3B8"/><stop offset="1" stop-color="#94A3B8" stop-opacity="0"/></linearGradient><linearGradient id="j" x1="185.365" x2="200.226" y1="60.4838" y2="52.6906" gradientUnits="userSpaceOnUse"><stop offset=".005" stop-color="#94A3B8" stop-opacity="0"/><stop offset=".52" stop-color="#94A3B8"/><stop offset="1" stop-color="#94A3B8" stop-opacity="0"/></linearGradient><linearGradient id="k" x1="162.639" x2="138.722" y1="71.5078" y2="112.933" gradientUnits="userSpaceOnUse"><stop stop-color="#94A3B8"/><stop offset="1" stop-color="#E2E8F0"/></linearGradient><linearGradient id="l" x1="139" x2="144.154" y1="94.4998" y2="106.024" gradientUnits="userSpaceOnUse"><stop offset=".386757" stop-color="#CBD5E1" stop-opacity="0"/><stop offset="1" stop-color="#CBD5E1"/></linearGradient><linearGradient id="m" x1="116.5" x2="106.031" y1="80.9998" y2="94.044" gradientUnits="userSpaceOnUse"><stop offset=".386757" stop-color="#CBD5E1" stop-opacity=".882353"/><stop offset="1" stop-color="#CBD5E1"/></linearGradient><linearGradient id="o" x1="16.4444" x2="6.93791" y1=".00000211" y2="31.6727" gradientUnits="userSpaceOnUse"><stop stop-color="#E2E8F0"/><stop offset="1" stop-color="#E2E8F0" stop-opacity="0"/></linearGradient><linearGradient id="q" x1="16.4444" x2="6.93791" y1=".00000211" y2="31.6727" gradientUnits="userSpaceOnUse"><stop stop-color="#CBD5E1"/><stop offset="1" stop-color="#CBD5E1" stop-opacity="0"/></linearGradient><linearGradient id="r" x1="7.53761" x2="5.28087" y1="30.0377" y2="44.6081" gradientUnits="userSpaceOnUse"><stop offset=".386757" stop-color="#CBD5E1" stop-opacity="0"/><stop offset="1" stop-color="#CBD5E1"/></linearGradient><linearGradient id="s" x1="16.4444" x2="6.93791" y1=".00000211" y2="31.6727" gradientUnits="userSpaceOnUse"><stop stop-color="#E2E8F0"/><stop offset="1" stop-color="#E2E8F0" stop-opacity="0"/></linearGradient><linearGradient id="t" x1="16.4444" x2="6.93791" y1=".00000211" y2="31.6727" gradientUnits="userSpaceOnUse"><stop stop-color="#E2E8F0"/><stop offset="1" stop-color="#E2E8F0" stop-opacity="0"/></linearGradient><clipPath id="a"><path fill="#fff" d="M1 13C1 6.37259 6.37258 1 13 1h250c6.627 0 12 5.37258 12 12v130c0 6.627-5.373 12-12 12H13c-6.62741 0-12-5.373-12-12V13Z"/></clipPath><clipPath id="c"><path fill="#fff" d="m-196 88.2344 429.95283368-248.2335 429.5518641 248.002L233.5518641 336.2364z"/></clipPath><clipPath id="n"><path fill="#fff" d="m138.105 60 38.1051 22-38.1051 22-38.1051-22z"/></clipPath><clipPath id="p"><path fill="#fff" d="m138.105 60 38.1051 22-38.1051 22-38.1051-22z"/></clipPath><clipPath id="u"><path fill="#fff" d="m137.785 60 20.7846 12-20.7846 12-20.7846-12z"/></clipPath></defs></svg>
