<svg xmlns="http://www.w3.org/2000/svg" fill="none" viewBox="0 0 276 156"><rect width="275" height="155" x=".5" y=".5" stroke="#1E293B" rx="12.5"/><g clip-path="url(#a)"><path fill="url(#b)" d="M1 1h357v356H1z"/><path fill="url(#c)" d="M1 1h357v356H1z"/><g clip-path="url(#d)"><path stroke="url(#e)" stroke-opacity=".28" d="M-195.365 87.8669 234.187 335.869M-181.508 79.8669 248.044 327.869M-167.652 71.8669 261.9 319.869M-153.796 63.8669 275.757 311.869M-139.939 55.8669 289.613 303.869M-126.083 47.8669 303.469 295.869M-112.226 39.8669 317.326 287.869M-98.37 31.8669 331.182 279.869M-84.5136 23.8669 345.038 271.869M-70.6572 15.8669 358.895 263.869M-56.8008 7.86694 372.751 255.869M-42.9444-.133057 386.608 247.869M-29.088-8.13306 400.464 239.869M-15.2316-16.1331 414.321 231.869M-1.37517-24.1331 428.177 223.869M12.4812-32.1331 442.033 215.869M26.3376-40.1331 455.89 207.869M40.194-48.1331 469.746 199.869M54.0505-56.1331 483.603 191.869M67.9069-64.1331 497.459 183.869M81.7633-72.1331 511.315 175.869M95.6197-80.1331 525.172 167.869M109.476-88.1331 539.028 159.869M123.332-96.1331 552.885 151.869M137.189-104.133l429.552 248.002M151.045-112.133l429.552 248.002M164.902-120.133l429.552 248.002M178.758-128.133 608.31 119.869M192.615-136.133l429.552 248.002M206.471-144.133l429.552 248.002M220.327-152.133 649.879 95.869M234.184-160.133 663.736 87.869M234.386-159.75-195.166 88.252m443.397-239.993L-181.321 96.2608M262.074-143.734l-429.552 248.002m443.394-239.995-429.552 248.002m443.397-239.994-429.552 248.002m443.395-239.996-429.552 248.002m443.394-239.994-429.552 248.002m443.397-239.993L-98.2606 144.306M345.134-95.6899-84.4186 152.312M358.979-87.6814-70.5736 160.321M372.821-79.6753-56.7311 168.327M386.664-71.6675-42.8882 176.335M400.509-63.6589-29.0433 184.343M414.351-55.6528-15.2008 192.349M428.196-47.644-1.35624 200.358M442.038-39.6379 12.4862 208.364M455.882-31.6304 26.3295 216.372M469.726-23.6216 40.1741 224.38M483.569-15.6155 54.0165 232.387M497.414-7.60693 67.8615 240.395M511.256.399414 81.7036 248.401M525.099 8.40698 95.5469 256.409M538.943 16.4158 109.391 264.418M552.786 24.4219 123.234 272.424M566.631 32.4304 137.079 280.432M580.474 40.438 150.922 288.44M594.316 48.4443 164.764 296.446M608.161 56.4531 178.609 304.455M622.003 64.4592 192.451 312.461M635.848 72.4678 206.296 320.47M649.692 80.4753 220.139 328.477M663.534 88.4817 233.982 336.484"/><path fill="url(#f)" fill-rule="evenodd" d="m116.263-4.70502 14.348 8.33089-.478.70189-14.352-8.30897.482-.72381Z" clip-rule="evenodd"/><path fill="url(#g)" fill-rule="evenodd" d="m115.445 4.44569 15.031-8.74077.563.72295-15.111 8.68029-.483-.66247Z" clip-rule="evenodd"/><path fill="url(#h)" fill-rule="evenodd" d="m46.9324 35.2235 14.3474 8.3308-.4779.7019-14.3517-8.3089.4822-.7238Z" clip-rule="evenodd" opacity=".58"/><path fill="url(#i)" fill-rule="evenodd" d="m46.1127 44.4516 15.0609-8.6951.5372.7128-15.1853 8.7195-.4128-.7372Z" clip-rule="evenodd" opacity=".58"/><path fill="url(#j)" fill-rule="evenodd" d="M186.482 51.7762 200.5 60l-.478.7019L186 52.5001l.482-.7239Z" clip-rule="evenodd" opacity=".58"/><path fill="url(#k)" fill-rule="evenodd" d="M185.087 60.2628 200 51.5001l.537.7127L185.5 61l-.413-.7372Z" clip-rule="evenodd" opacity=".58"/></g><path fill="url(#l)" d="M129.505 64.9178c3.664-2.13 5.496-3.195 7.874-3.4105 2.378-.2156 4.687.474 9.306 1.8532l.794.2372c1.504.4491 2.256.6737 2.895.9877.64.3139 1.144.7064 2.154 1.4915l17.576 13.6707c1.436 1.1165 2.153 1.6747 2.525 2.3233.371.6486.371 1.3438.371 2.7342v1.6544c0 1.7465 0 2.6198-.567 3.4039-.566.7841-1.641 1.3984-3.791 2.627l-20.303 11.6016c-4.878 2.788-7.317 4.181-10.339 4.181-3.022 0-5.461-1.393-10.339-4.181l-20.303-11.6016c-2.15-1.2286-3.225-1.8429-3.791-2.627-.567-.7841-.567-1.6573-.567-3.4039v-3.1947c0-.1343 0-.2014.007-.2924s.014-.1394.028-.2363c.061-.4058.204-1.1932.465-1.7362.303-.6294 2.203-2.0599 3.07-2.691.182-.1326.273-.1989.409-.2873.136-.0884.259-.1602.507-.3038l22.019-12.8Z"/><path fill="url(#m)" d="M129.505 64.9178c3.664-2.13 5.496-3.195 7.874-3.4105 2.378-.2156 4.687.474 9.306 1.8532l.794.2372c1.504.4491 2.256.6737 2.895.9877.64.3139 1.144.7064 2.154 1.4915l17.576 13.6707c1.436 1.1165 2.153 1.6747 2.525 2.3233.371.6486.371 1.3438.371 2.7342v1.6544c0 1.7465 0 2.6198-.567 3.4039-.566.7841-1.641 1.3984-3.791 2.627l-20.303 11.6016c-4.878 2.788-7.317 4.181-10.339 4.181-3.022 0-5.461-1.393-10.339-4.181l-20.303-11.6016c-2.15-1.2286-3.225-1.8429-3.791-2.627-.567-.7841-.567-1.6573-.567-3.4039v-3.1947c0-.1343 0-.2014.007-.2924s.014-.1394.028-.2363c.061-.4058.204-1.1932.465-1.7362.303-.6294 2.203-2.0599 3.07-2.691.182-.1326.273-.1989.409-.2873.136-.0884.259-.1602.507-.3038l22.019-12.8Z"/><path fill="url(#n)" d="M129.505 64.9178c3.664-2.13 5.496-3.195 7.874-3.4105 2.378-.2156 4.687.474 9.306 1.8532l.794.2372c1.504.4491 2.256.6737 2.895.9877.64.3139 1.144.7064 2.154 1.4915l17.576 13.6707c1.436 1.1165 2.153 1.6747 2.525 2.3233.371.6486.371 1.3438.371 2.7342v1.6544c0 1.7465 0 2.6198-.567 3.4039-.566.7841-1.641 1.3984-3.791 2.627l-20.303 11.6016c-4.878 2.788-7.317 4.181-10.339 4.181-3.022 0-5.461-1.393-10.339-4.181l-20.303-11.6016c-2.15-1.2286-3.225-1.8429-3.791-2.627-.567-.7841-.567-1.6573-.567-3.4039v-3.1947c0-.1343 0-.2014.007-.2924s.014-.1394.028-.2363c.061-.4058.204-1.1932.465-1.7362.303-.6294 2.203-2.0599 3.07-2.691.182-.1326.273-.1989.409-.2873.136-.0884.259-.1602.507-.3038l22.019-12.8Z"/><g clip-path="url(#o)"><rect width="44" height="44" fill="url(#p)" fill-opacity=".21" rx="6" transform="matrix(.866025 .5 -.866025 .5 138.105 60)"/><rect width="43" height="43" x="-3e-8" y=".5" stroke="#E2E8F0" stroke-opacity=".2" rx="5.5" transform="matrix(.866025 .5 -.866025 .5 138.538 60.25)"/></g><g clip-path="url(#q)"><rect width="43" height="43" x="-3e-8" y=".5" fill="#1E293B" rx="5.5" transform="matrix(.866025 .5 -.866025 .5 138.538 60.25)"/><rect width="43" height="43" x="-3e-8" y=".5" fill="url(#r)" rx="5.5" transform="matrix(.866025 .5 -.866025 .5 138.538 60.25)"/><rect width="43" height="43" x="-3e-8" y=".5" stroke="#1E293B" rx="5.5" transform="matrix(.866025 .5 -.866025 .5 138.538 60.25)"/></g><rect width="44" height="44" fill="url(#s)" fill-opacity=".21" rx="6" transform="matrix(.866025 .5 -.866025 .5 138.105 52)"/><rect width="44" height="44" fill="url(#t)" rx="6" transform="matrix(.866025 .5 -.866025 .5 138.105 52)"/><rect width="43" height="43" x="-3e-8" y=".5" stroke="#E2E8F0" stroke-opacity=".2" rx="5.5" transform="matrix(.866025 .5 -.866025 .5 138.538 52.25)"/><g clip-path="url(#u)"><path fill="#E2E8F0" d="m132.272 76.6468 7.727 4.4609c.245.1417.549.2447.88.2987.329.0539.677.057 1.008.0088.328-.0478.627-.1457.866-.2835.238-.1381.408-.3107.49-.4998l3.529-8.0291c.083-.1914.078-.392-.016-.5818-.094-.1923-.272-.3673-.517-.5085-.245-.1416-.549-.2446-.88-.2986-.329-.0539-.677-.057-1.008-.0088l-3.558.5219 1.768-4.016c.083-.1914.078-.3921-.015-.582-.095-.1922-.273-.3673-.518-.5084-.245-.1417-.549-.2447-.88-.2988-.329-.054-.677-.0571-1.008-.009l-17.306 2.5359c-.328.0476-.627.1453-.866.283-.238.1374-.408.3097-.491.4995-.084.1914-.078.3921.015.582.094.1914.272.3668.518.5085l4.85 2.8001c1.921 1.1095 4.157 1.455 6.73 1.0957l6.344-.9292 3.396-.4966-2.587 5.8882-5.074-2.9293-3.397.4962Zm-3.361-4.4007-3.384-1.9546 13.597-1.9917-1.73 3.9221-4.543.666c-1.684.2244-2.798.0178-3.94-.6418Z"/></g></g><defs><linearGradient id="b" x1="179.5" x2="179.5" y1="1" y2="357" gradientUnits="userSpaceOnUse"><stop stop-color="#0F172A"/><stop offset=".72" stop-color="#020420"/></linearGradient><linearGradient id="c" x1="179.5" x2="179.5" y1="1" y2="357" gradientUnits="userSpaceOnUse"><stop stop-color="#0F172A"/><stop offset=".72" stop-color="#020420"/></linearGradient><linearGradient id="e" x1="146.504" x2="33.284" y1="108.997" y2="-73.7173" gradientUnits="userSpaceOnUse"><stop offset=".0001" stop-color="#64748B" stop-opacity="0"/><stop offset=".985" stop-color="#64748B"/></linearGradient><linearGradient id="f" x1="116.025" x2="129.987" y1="-4.88237" y2="4.42557" gradientUnits="userSpaceOnUse"><stop offset=".005" stop-color="#94A3B8" stop-opacity="0"/><stop offset=".52" stop-color="#94A3B8"/><stop offset="1" stop-color="#94A3B8" stop-opacity="0"/></linearGradient><linearGradient id="g" x1="115.482" x2="130.342" y1="4.24405" y2="-3.54914" gradientUnits="userSpaceOnUse"><stop offset=".005" stop-color="#94A3B8" stop-opacity="0"/><stop offset=".52" stop-color="#94A3B8"/><stop offset="1" stop-color="#94A3B8" stop-opacity="0"/></linearGradient><linearGradient id="h" x1="46.6943" x2="60.6562" y1="35.0461" y2="44.354" gradientUnits="userSpaceOnUse"><stop offset=".005" stop-color="#94A3B8" stop-opacity="0"/><stop offset=".52" stop-color="#94A3B8"/><stop offset="1" stop-color="#94A3B8" stop-opacity="0"/></linearGradient><linearGradient id="i" x1="46.1505" x2="61.0111" y1="44.1728" y2="36.3796" gradientUnits="userSpaceOnUse"><stop offset=".005" stop-color="#94A3B8" stop-opacity="0"/><stop offset=".52" stop-color="#94A3B8"/><stop offset="1" stop-color="#94A3B8" stop-opacity="0"/></linearGradient><linearGradient id="j" x1="185.909" x2="199.871" y1="51.677" y2="60.9849" gradientUnits="userSpaceOnUse"><stop offset=".005" stop-color="#94A3B8" stop-opacity="0"/><stop offset=".52" stop-color="#94A3B8"/><stop offset="1" stop-color="#94A3B8" stop-opacity="0"/></linearGradient><linearGradient id="k" x1="185.365" x2="200.226" y1="60.4836" y2="52.6904" gradientUnits="userSpaceOnUse"><stop offset=".005" stop-color="#94A3B8" stop-opacity="0"/><stop offset=".52" stop-color="#94A3B8"/><stop offset="1" stop-color="#94A3B8" stop-opacity="0"/></linearGradient><linearGradient id="l" x1="162.639" x2="138.722" y1="71.5081" y2="112.933" gradientUnits="userSpaceOnUse"><stop stop-color="#1E293B"/><stop offset="1" stop-color="#475569"/></linearGradient><linearGradient id="m" x1="139" x2="144.154" y1="94.5" y2="106.025" gradientUnits="userSpaceOnUse"><stop offset=".386757" stop-color="#0F172A" stop-opacity="0"/><stop offset="1" stop-color="#0F172A"/></linearGradient><linearGradient id="n" x1="116.5" x2="106.031" y1="81" y2="94.0442" gradientUnits="userSpaceOnUse"><stop offset=".386757" stop-color="#0F172A" stop-opacity="0"/><stop offset="1" stop-color="#0F172A"/></linearGradient><linearGradient id="p" x1="16.4444" x2="6.93791" y1=".00000211" y2="31.6727" gradientUnits="userSpaceOnUse"><stop stop-color="#E2E8F0"/><stop offset="1" stop-color="#E2E8F0" stop-opacity="0"/></linearGradient><linearGradient id="r" x1="7.53761" x2="5.28087" y1="30.0377" y2="44.6081" gradientUnits="userSpaceOnUse"><stop offset=".386757" stop-color="#0F172A" stop-opacity="0"/><stop offset="1" stop-color="#0F172A"/></linearGradient><linearGradient id="s" x1="16.4444" x2="6.93791" y1=".00000211" y2="31.6727" gradientUnits="userSpaceOnUse"><stop stop-color="#E2E8F0"/><stop offset="1" stop-color="#E2E8F0" stop-opacity="0"/></linearGradient><linearGradient id="t" x1="22" x2="22" y1="0" y2="44" gradientUnits="userSpaceOnUse"><stop stop-color="#0F172A"/><stop offset=".72" stop-color="#020420"/></linearGradient><clipPath id="a"><path fill="#fff" d="M1 13C1 6.37259 6.37258 1 13 1h250c6.627 0 12 5.37258 12 12v130c0 6.627-5.373 12-12 12H13c-6.62741 0-12-5.373-12-12V13Z"/></clipPath><clipPath id="d"><path fill="#fff" d="m-196 88.2336 429.95283368-248.2335 429.5518641 248.002L233.5518641 336.2356z"/></clipPath><clipPath id="o"><path fill="#fff" d="m138.105 60 38.1051 22-38.1051 22-38.1051-22z"/></clipPath><clipPath id="q"><path fill="#fff" d="m138.105 60 38.1051 22-38.1051 22-38.1051-22z"/></clipPath><clipPath id="u"><path fill="#fff" d="m137.785 60 20.7846 12-20.7846 12-20.7846-12z"/></clipPath></defs></svg>
