<svg xmlns="http://www.w3.org/2000/svg" fill="none" viewBox="0 0 276 156"><rect width="275" height="155" x=".5" y=".5" stroke="#1E293B" rx="12.5"/><g clip-path="url(#a)"><path fill="url(#b)" d="M1 1h357v356H1z"/><rect width="161" height="34" x="57.5" y="60.5" fill="url(#c)" rx="5.86529"/><rect width="161" height="34" x="57.5" y="60.5" fill="url(#d)" fill-opacity=".08" rx="5.86529"/><rect width="161" height="34" x="57.5" y="60.5" stroke="#E2E8F0" stroke-opacity=".4" rx="5.86529"/><rect width="161" height="34" x="57.5" y="60.5" stroke="url(#e)" rx="5.86529"/><rect width="161" height="34" x="57.5" y="60.5" stroke="url(#f)" rx="5.86529"/><path fill="#94A3B8" d="m76.3319 78.375-4.5 4c-.0493.0436-.1066.0771-.1688.0986-.0622.0214-.128.0304-.1937.0265-.0657-.004-.1299-.0209-.189-.0497-.0592-.0288-.1121-.069-.1557-.1182-.0436-.0493-.0771-.1066-.0986-.1688-.0214-.0622-.0304-.128-.0265-.1937.004-.0656.0209-.1299.0497-.189.0288-.0592.069-.1121.1182-.1557L75.25 78l-4.0819-3.625c-.0492-.0436-.0894-.0965-.1182-.1557-.0288-.0591-.0457-.1234-.0496-.189-.004-.0657.005-.1315.0264-.1937.0215-.0622.055-.1195.0986-.1688.0436-.0492.0965-.0894.1557-.1182.0591-.0288.1234-.0457.189-.0497.0657-.0039.1315.0051.1937.0265.0622.0215.1196.055.1688.0986l4.5 4c.0532.0469.0958.1046.125.1693.0292.0646.0443.1348.0443.2057 0 .0709-.0151.1411-.0443.2057-.0292.0647-.0718.1224-.125.1693h-.0006ZM82.5 81.5h-6c-.1326 0-.2598.0527-.3535.1464-.0938.0938-.1465.221-.1465.3536 0 .1326.0527.2598.1465.3535.0937.0938.2209.1465.3535.1465h6c.1326 0 .2598-.0527.3536-.1465.0937-.0937.1464-.2209.1464-.3535 0-.1326-.0527-.2598-.1464-.3536-.0938-.0937-.221-.1464-.3536-.1464Z"/><path fill="#E2E8F0" d="M96.9261 78.0625V82h-1.0056v-6.5455h.9715v1.0228h.0853c.1534-.3324.3863-.5995.6988-.8012.3125-.2045.7159-.3068 1.2103-.3068.4431 0 .8309.0909 1.1636.2727.332.179.591.4518.775.8182.185.3637.277.8239.277 1.3807V82h-1.005v-4.0909c0-.5142-.1339-.9148-.401-1.2017-.267-.2898-.6335-.4347-1.0994-.4347-.321 0-.608.0696-.8608.2088-.25.1392-.4474.3424-.5923.6094-.1449.2671-.2174.5909-.2174.9716Zm6.0139 6.392v-9h.972v1.0398h.119c.074-.1136.176-.2585.307-.4346.133-.179.324-.3381.571-.4773.25-.1421.588-.2131 1.014-.2131.551 0 1.037.1378 1.457.4134.421.2755.749.6662.985 1.1718.235.5057.353 1.1023.353 1.7898 0 .6932-.118 1.2941-.353 1.8026-.236.5057-.563.8977-.98 1.1761-.418.2756-.9.4134-1.445.4134-.42 0-.757-.0696-1.01-.2088-.253-.1421-.447-.3026-.584-.4816-.136-.1818-.241-.3324-.315-.4517h-.085v3.4602h-1.006Zm.989-5.7272c0 .4943.072.9304.217 1.3082.145.375.356.669.635.8821.278.2102.619.3154 1.023.3154.42 0 .771-.1108 1.052-.3324.284-.2245.497-.5256.639-.9034.145-.3807.218-.804.218-1.2699 0-.4603-.071-.875-.213-1.2443-.14-.3722-.351-.6662-.635-.8821-.282-.2188-.635-.3282-1.061-.3282-.409 0-.753.1037-1.032.3111-.278.2046-.488.4915-.63.8608-.142.3665-.213.794-.213 1.2827Zm6.804-3.2728 1.568 2.6762 1.568-2.6762h1.159l-2.113 3.2728L115.028 82h-1.159l-1.568-2.5398L110.733 82h-1.159l2.079-3.2727-2.079-3.2728h1.159Zm10.111 2.608V82h-1.006v-6.5455h.972v1.0228h.085c.154-.3324.387-.5995.699-.8012.313-.2045.716-.3068 1.21-.3068.444 0 .831.0909 1.164.2727.332.179.591.4518.775.8182.185.3637.277.8239.277 1.3807V82h-1.005v-4.0909c0-.5142-.134-.9148-.401-1.2017-.267-.2898-.634-.4347-1.099-.4347-.321 0-.608.0696-.861.2088-.25.1392-.448.3424-.593.6094-.144.2671-.217.5909-.217.9716Zm10.139 1.2614v-3.8694h1.006V82h-1.006v-1.108h-.068c-.154.3324-.392.6151-.716.8481-.324.2301-.733.3451-1.227.3451-.41 0-.773-.0895-1.091-.2684-.318-.1819-.568-.4546-.75-.8182-.182-.3665-.273-.8281-.273-1.385v-4.1591h1.006v4.091c0 .4772.133.8579.4 1.142.27.2841.614.4261 1.031.4261.25 0 .505-.0639.763-.1917.262-.1279.48-.3239.656-.5881.179-.2642.269-.6008.269-1.0099Zm3.598-3.8694 1.568 2.6762 1.568-2.6762h1.159l-2.114 3.2728L138.876 82h-1.159l-1.568-2.5398L134.581 82h-1.159l2.079-3.2727-2.079-3.2728h1.159Zm8.577 0v.8523h-3.392v-.8523h3.392Zm-2.404-1.5681h1.006v6.2386c0 .2841.041.4972.124.6392.085.1392.193.233.323.2813.134.0454.275.0681.422.0681.111 0 .202-.0056.273-.017.071-.0142.128-.0256.17-.0341l.205.9034c-.068.0256-.163.0511-.286.0767-.122.0284-.277.0426-.464.0426-.284 0-.563-.0611-.835-.1832-.27-.1222-.495-.3082-.674-.5582-.176-.25-.264-.5654-.264-.9461v-6.5113Zm5.063 4.1761V82h-1.006v-8.7273h1.006v3.2046h.085c.153-.3381.384-.6066.69-.8054.31-.2017.722-.3026 1.236-.3026.446 0 .837.0895 1.172.2685.335.1761.595.4474.78.8139.187.3636.281.8267.281 1.3892V82h-1.006v-4.0909c0-.5199-.135-.9219-.404-1.206-.267-.2869-.638-.4304-1.113-.4304-.329 0-.625.0696-.886.2088-.259.1392-.463.3424-.614.6094-.147.2671-.221.5909-.221.9716Zm10.209 1.2614v-3.8694h1.006V82h-1.006v-1.108h-.068c-.154.3324-.392.6151-.716.8481-.324.2301-.733.3451-1.227.3451-.41 0-.773-.0895-1.091-.2684-.319-.1819-.569-.4546-.75-.8182-.182-.3665-.273-.8281-.273-1.385v-4.1591h1.006v4.091c0 .4772.133.8579.4 1.142.27.2841.614.4261 1.031.4261.25 0 .505-.0639.763-.1917.262-.1279.48-.3239.656-.5881.179-.2642.269-.6008.269-1.0099ZM159.01 82v-8.7273h1.006v3.2216h.085c.074-.1136.176-.2585.307-.4346.133-.179.324-.3381.571-.4773.25-.1421.588-.2131 1.014-.2131.551 0 1.037.1378 1.457.4134.421.2755.749.6662.985 1.1718.235.5057.353 1.1023.353 1.7898 0 .6932-.118 1.2941-.353 1.8026-.236.5057-.563.8977-.98 1.1761-.418.2756-.9.4134-1.445.4134-.421 0-.757-.0696-1.01-.2088-.253-.1421-.447-.3026-.584-.4816-.136-.1818-.241-.3324-.315-.4517h-.119V82h-.972Zm.989-3.2727c0 .4943.072.9304.217 1.3082.145.375.356.669.635.8821.278.2102.619.3154 1.023.3154.42 0 .771-.1108 1.052-.3324.284-.2245.497-.5256.639-.9034.145-.3807.218-.804.218-1.2699 0-.4603-.071-.875-.213-1.2443-.14-.3722-.351-.6662-.635-.8821-.282-.2188-.635-.3282-1.061-.3282-.41 0-.753.1037-1.032.3111-.278.2046-.488.4915-.63.8608-.142.3665-.213.794-.213 1.2827Zm12.174 3.4091c-.545 0-1.027-.1378-1.444-.4134-.418-.2784-.745-.6704-.98-1.1761-.236-.5085-.354-1.1094-.354-1.8026 0-.6875.118-1.2841.354-1.7898.235-.5056.564-.8963.984-1.1718.42-.2756.906-.4134 1.457-.4134.426 0 .763.071 1.01.2131.25.1392.441.2983.571.4773.134.1761.238.321.311.4346h.086v-3.2216h1.005V82h-.971v-1.0057h-.12c-.073.1193-.179.2699-.315.4517-.136.179-.331.3395-.584.4816-.253.1392-.589.2088-1.01.2088Zm.137-.9034c.403 0 .744-.1052 1.022-.3154.279-.2131.49-.5071.635-.8821.145-.3778.218-.8139.218-1.3082 0-.4887-.071-.9162-.213-1.2827-.142-.3693-.353-.6562-.631-.8608-.278-.2074-.622-.3111-1.031-.3111-.426 0-.782.1094-1.066.3282-.281.2159-.493.5099-.635.8821-.139.3693-.208.784-.208 1.2443 0 .4659.071.8892.213 1.2699.145.3778.358.6789.639.9034.284.2216.636.3324 1.057.3324Zm7.589.9034c-.631 0-1.175-.1392-1.632-.4176-.455-.2813-.805-.6733-1.053-1.1762-.244-.5057-.366-1.0937-.366-1.7642 0-.6704.122-1.2614.366-1.7727.248-.5142.591-.9148 1.032-1.2017.443-.2898.96-.4347 1.551-.4347.341 0 .677.0568 1.01.1705.332.1136.635.2983.907.554.273.2528.491.588.652 1.0056.162.4176.243.9318.243 1.5426v.4262h-5.045v-.8693h4.023c0-.3694-.074-.6989-.222-.9887-.145-.2897-.352-.5184-.622-.6861-.267-.1676-.582-.2514-.946-.2514-.401 0-.747.0995-1.04.2983-.29.196-.513.4517-.669.7671-.156.3153-.234.6534-.234 1.0142v.5795c0 .4943.085.9134.255 1.2571.174.3409.414.6009.721.7799.306.1761.663.2642 1.069.2642.264 0 .503-.037.716-.1108.216-.0767.402-.1904.558-.341.157-.1534.277-.3437.363-.571l.971.2728c-.102.3295-.274.6193-.516.8693-.241.2471-.539.4403-.894.5795-.356.1364-.755.2046-1.198.2046Zm4.24 2.3181v-9h.972v1.0398h.119c.074-.1136.176-.2585.307-.4346.133-.179.324-.3381.571-.4773.25-.1421.588-.2131 1.014-.2131.551 0 1.037.1378 1.458.4134.42.2755.748.6662.984 1.1718.236.5057.354 1.1023.354 1.7898 0 .6932-.118 1.2941-.354 1.8026-.236.5057-.563.8977-.98 1.1761-.418.2756-.899.4134-1.445.4134-.42 0-.757-.0696-1.01-.2088-.253-.1421-.447-.3026-.584-.4816-.136-.1818-.241-.3324-.315-.4517h-.085v3.4602h-1.006Zm.989-5.7272c0 .4943.072.9304.217 1.3082.145.375.357.669.635.8821.279.2102.619.3154 1.023.3154.42 0 .771-.1108 1.052-.3324.284-.2245.498-.5256.64-.9034.144-.3807.217-.804.217-1.2699 0-.4603-.071-.875-.213-1.2443-.139-.3722-.351-.6662-.635-.8821-.281-.2188-.635-.3282-1.061-.3282-.409 0-.753.1037-1.031.3111-.279.2046-.489.4915-.631.8608-.142.3665-.213.794-.213 1.2827Zm7.329-5.4546V82h-1.005v-8.7273h1.005Zm4.501 8.8637c-.59 0-1.109-.1407-1.555-.4219-.443-.2813-.79-.6747-1.04-1.1804-.247-.5057-.37-1.0966-.37-1.7727 0-.6819.123-1.277.37-1.7855.25-.5086.597-.9035 1.04-1.1847.446-.2813.965-.4219 1.555-.4219.591 0 1.108.1406 1.552.4219.446.2812.792.6761 1.039 1.1847.25.5085.375 1.1036.375 1.7855 0 .6761-.125 1.267-.375 1.7727-.247.5057-.593.8991-1.039 1.1804-.444.2812-.961.4219-1.552.4219Zm0-.9034c.449 0 .819-.1151 1.108-.3452.29-.2301.505-.5327.644-.9077s.209-.7812.209-1.2187c0-.4375-.07-.8452-.209-1.223-.139-.3779-.354-.6833-.644-.9162-.289-.233-.659-.3495-1.108-.3495-.448 0-.818.1165-1.108.3495-.289.2329-.504.5383-.643.9162-.139.3778-.209.7855-.209 1.223 0 .4375.07.8437.209 1.2187.139.375.354.6776.643.9077.29.2301.66.3452 1.108.3452Zm4.915 3.2215c-.171 0-.323-.0142-.456-.0426-.134-.0255-.226-.0511-.277-.0767l.256-.8863c.244.0625.46.0852.647.0681.188-.017.354-.1008.499-.2514.148-.1477.283-.3878.405-.7201l.187-.5114-2.42-6.5796h1.091l1.807 5.216h.068l1.807-5.216h1.09l-2.778 7.5c-.125.3381-.28.6179-.464.8395-.185.2245-.4.3907-.644.4986-.241.108-.514.1619-.818.1619Z"/><circle cx="1.89" cy="44.5763" r=".89" fill="url(#g)"/><circle cx="39.9292" cy="72.0272" r=".89" fill="url(#h)"/><circle cx="96.89" cy="111.89" r=".89" fill="url(#i)"/><circle cx="152.086" cy="130.655" r=".89" fill="url(#j)"/><circle cx="137.38" cy="136.733" r=".89" fill="url(#k)"/><circle cx="197.89" cy="115.89" r=".89" fill="url(#l)"/><circle cx="215.419" cy="104.576" r=".89" fill="url(#m)"/><circle cx="251.106" cy="41.4391" r=".89" fill="url(#n)"/><circle cx="80.89" cy="39.89" r=".89" fill="url(#o)"/><circle cx="55.89" cy="132.89" r=".89" fill="url(#p)"/><circle cx="207.89" cy="19.89" r=".89" fill="url(#q)"/><circle cx="115.89" cy="19.89" r=".89" fill="url(#r)"/><circle cx="239.89" cy="85.89" r=".89" fill="url(#s)"/><circle cx="181.89" cy="41.89" r=".89" fill="url(#t)"/><path fill="url(#u)" d="m33.5 29 .4278 5.0722L39 34.5l-5.0722.4278L33.5 40l-.4278-5.0722L28 34.5l5.0722-.4278L33.5 29Z"/><path fill="url(#v)" d="m60 105 .3111 3.689L64 109l-3.6889.311L60 113l-.3111-3.689L56 109l3.6889-.311L60 105Z"/><path fill="url(#w)" d="m231 15 .311 3.6889L235 19l-3.689.3111L231 23l-.311-3.6889L227 19l3.689-.3111L231 15Z"/><path fill="url(#x)" d="m246.5 121.5.389 4.611 4.611.389-4.611.389-.389 4.611-.389-4.611-4.611-.389 4.611-.389.389-4.611Z"/></g><defs><radialGradient id="g" cx="0" cy="0" r="1" gradientTransform="matrix(0 .89 -.89 0 1.89 44.5763)" gradientUnits="userSpaceOnUse"><stop stop-color="#94A3B8"/><stop offset="1" stop-color="#94A3B8" stop-opacity="0"/></radialGradient><radialGradient id="h" cx="0" cy="0" r="1" gradientTransform="matrix(0 .89 -.89 0 39.9292 72.0272)" gradientUnits="userSpaceOnUse"><stop stop-color="#94A3B8"/><stop offset="1" stop-color="#94A3B8" stop-opacity="0"/></radialGradient><radialGradient id="i" cx="0" cy="0" r="1" gradientTransform="rotate(90 -7.5 104.39) scale(.89)" gradientUnits="userSpaceOnUse"><stop stop-color="#94A3B8"/><stop offset="1" stop-color="#94A3B8" stop-opacity="0"/></radialGradient><radialGradient id="j" cx="0" cy="0" r="1" gradientTransform="matrix(0 .89 -.89 0 152.086 130.655)" gradientUnits="userSpaceOnUse"><stop stop-color="#94A3B8"/><stop offset="1" stop-color="#94A3B8" stop-opacity="0"/></radialGradient><radialGradient id="k" cx="0" cy="0" r="1" gradientTransform="matrix(0 .89 -.89 0 137.38 136.733)" gradientUnits="userSpaceOnUse"><stop stop-color="#94A3B8"/><stop offset="1" stop-color="#94A3B8" stop-opacity="0"/></radialGradient><radialGradient id="l" cx="0" cy="0" r="1" gradientTransform="rotate(90 41 156.89) scale(.89)" gradientUnits="userSpaceOnUse"><stop stop-color="#94A3B8"/><stop offset="1" stop-color="#94A3B8" stop-opacity="0"/></radialGradient><radialGradient id="m" cx="0" cy="0" r="1" gradientTransform="matrix(0 .89 -.89 0 215.419 104.576)" gradientUnits="userSpaceOnUse"><stop stop-color="#94A3B8"/><stop offset="1" stop-color="#94A3B8" stop-opacity="0"/></radialGradient><radialGradient id="n" cx="0" cy="0" r="1" gradientTransform="matrix(0 .89 -.89 0 251.106 41.4391)" gradientUnits="userSpaceOnUse"><stop stop-color="#94A3B8"/><stop offset="1" stop-color="#94A3B8" stop-opacity="0"/></radialGradient><radialGradient id="o" cx="0" cy="0" r="1" gradientTransform="rotate(90 20.5 60.39) scale(.89)" gradientUnits="userSpaceOnUse"><stop stop-color="#94A3B8"/><stop offset="1" stop-color="#94A3B8" stop-opacity="0"/></radialGradient><radialGradient id="p" cx="0" cy="0" r="1" gradientTransform="rotate(90 -38.5 94.39) scale(.89)" gradientUnits="userSpaceOnUse"><stop stop-color="#94A3B8"/><stop offset="1" stop-color="#94A3B8" stop-opacity="0"/></radialGradient><radialGradient id="q" cx="0" cy="0" r="1" gradientTransform="rotate(90 94 113.89) scale(.89)" gradientUnits="userSpaceOnUse"><stop stop-color="#94A3B8"/><stop offset="1" stop-color="#94A3B8" stop-opacity="0"/></radialGradient><radialGradient id="r" cx="0" cy="0" r="1" gradientTransform="rotate(90 48 67.89) scale(.89)" gradientUnits="userSpaceOnUse"><stop stop-color="#94A3B8"/><stop offset="1" stop-color="#94A3B8" stop-opacity="0"/></radialGradient><radialGradient id="s" cx="0" cy="0" r="1" gradientTransform="rotate(90 77 162.89) scale(.89)" gradientUnits="userSpaceOnUse"><stop stop-color="#94A3B8"/><stop offset="1" stop-color="#94A3B8" stop-opacity="0"/></radialGradient><radialGradient id="t" cx="0" cy="0" r="1" gradientTransform="rotate(90 70 111.89) scale(.89)" gradientUnits="userSpaceOnUse"><stop stop-color="#94A3B8"/><stop offset="1" stop-color="#94A3B8" stop-opacity="0"/></radialGradient><radialGradient id="u" cx="0" cy="0" r="1" gradientTransform="rotate(90 -.5 34) scale(5.5)" gradientUnits="userSpaceOnUse"><stop stop-color="#94A3B8"/><stop offset="1" stop-color="#94A3B8" stop-opacity="0"/></radialGradient><radialGradient id="v" cx="0" cy="0" r="1" gradientTransform="matrix(0 4 -4 0 60 109)" gradientUnits="userSpaceOnUse"><stop stop-color="#94A3B8"/><stop offset="1" stop-color="#94A3B8" stop-opacity="0"/></radialGradient><radialGradient id="w" cx="0" cy="0" r="1" gradientTransform="matrix(0 4 -4 0 231 19)" gradientUnits="userSpaceOnUse"><stop stop-color="#94A3B8"/><stop offset="1" stop-color="#94A3B8" stop-opacity="0"/></radialGradient><radialGradient id="x" cx="0" cy="0" r="1" gradientTransform="rotate(90 60 186.5) scale(5)" gradientUnits="userSpaceOnUse"><stop stop-color="#94A3B8"/><stop offset="1" stop-color="#94A3B8" stop-opacity="0"/></radialGradient><linearGradient id="b" x1="179.5" x2="179.5" y1="1" y2="357" gradientUnits="userSpaceOnUse"><stop stop-color="#0F172A"/><stop offset=".72" stop-color="#020420"/></linearGradient><linearGradient id="c" x1="138" x2="138" y1="60" y2="95" gradientUnits="userSpaceOnUse"><stop stop-color="#0F172A"/><stop offset=".72" stop-color="#020420"/></linearGradient><linearGradient id="d" x1="117.545" x2="115.772" y1="60" y2="87.3489" gradientUnits="userSpaceOnUse"><stop stop-color="#E2E8F0"/><stop offset="1" stop-color="#E2E8F0" stop-opacity="0"/></linearGradient><linearGradient id="e" x1="207" x2="224" y1="78" y2="56" gradientUnits="userSpaceOnUse"><stop stop-color="#fff" stop-opacity="0"/><stop offset="1" stop-color="#fff"/></linearGradient><linearGradient id="f" x1="77" x2="57" y1="78" y2="49.5" gradientUnits="userSpaceOnUse"><stop stop-color="#fff" stop-opacity="0"/><stop offset="1" stop-color="#fff"/></linearGradient><clipPath id="a"><path fill="#fff" d="M1 13C1 6.37259 6.37258 1 13 1h250c6.627 0 12 5.37258 12 12v130c0 6.627-5.373 12-12 12H13c-6.62741 0-12-5.373-12-12V13Z"/></clipPath></defs></svg>
