<svg xmlns="http://www.w3.org/2000/svg" fill="none" viewBox="0 0 276 156"><rect width="275" height="155" x=".5" y=".5" stroke="#1E293B" rx="12.5"/><g clip-path="url(#a)"><path fill="url(#b)" d="M1 1h357v356H1z"/><path stroke="url(#c)" d="M96 77.5V0" opacity=".2"/><path stroke="url(#d)" d="M138 56V0" opacity=".2"/><path stroke="url(#e)" d="M67 77.5V23c0-3.3137-2.6863-6-6-6H2" opacity=".2"/><path stroke="url(#f)" d="M116 78H0" opacity=".2"/><path stroke="url(#g)" d="M160 66h87c3.314 0 6-2.6863 6-6V-1" opacity=".2"/><path stroke="url(#h)" d="M188 158.5v-69" opacity=".2"/><path stroke="url(#i)" d="M70.5 155.5v-26.689c0-3.314-2.6863-6-6-6h-19c-3.3137 0-6-2.687-6-6v-11.19c0-3.313-2.6863-5.9997-6-5.9997h-38" opacity=".2"/><path stroke="url(#j)" d="M160 89h89.5c3.314 0 6 2.6863 6 6.0001V107.69c0 3.313 2.686 5.999 6 5.999H323" opacity=".2"/><path stroke="url(#k)" d="M98.0456 155v-25.879c0-3.313 2.7324-6 6.0454-6h16.169c3.314 0 6-2.686 6-6V100" opacity=".2"/><path stroke="url(#l)" d="M205 65.5v-30c0-3.3138 2.686-6 6-6h9c3.314 0 6-2.6863 6-6V5.99995" opacity=".2"/><path stroke="url(#m)" d="M145 155v-55" opacity=".2"/><g clip-path="url(#n)"><rect width="44" height="44" x="116" y="56" fill="url(#o)" fill-opacity=".21" rx="6"/><rect width="43" height="43" x="116.5" y="56.5" stroke="#E2E8F0" stroke-opacity=".2" rx="5.5"/><path fill="#E2E8F0" d="M142.509 82.8447c.147-.5068.091-.9707-.155-1.3154-.225-.3164-.605-.499-1.062-.5205l-8.659-.1123c-.027.0004-.053-.0059-.076-.0184-.023-.0124-.043-.0306-.058-.0529-.028-.042-.035-.0986-.021-.1553.028-.084.113-.1484.204-.1562l8.736-.1123c1.035-.0489 2.16-.8868 2.554-1.9136l.499-1.3013c.021-.0561.029-.1128.014-.168-.562-2.5463-2.835-4.4453-5.549-4.4453-2.504 0-4.629 1.6177-5.388 3.8614-.493-.3658-1.119-.5625-1.794-.499-1.203.119-2.167 1.083-2.286 2.2856-.029.31-.007.6128.063.894-1.963.0558-3.531 1.6602-3.531 3.6368 0 .1748.014.3515.035.5273.014.083.085.1475.169.1475h15.981c.091 0 .176-.0645.204-.1553l.12-.4268Zm2.757-5.5634c-.078 0-.162 0-.239.0112-.056 0-.105.0415-.127.0976l-.338 1.1744c-.147.5068-.091.9707.155 1.3164.225.3164.605.498 1.062.5195l1.844.1133c.056 0 .106.0263.133.0703.028.043.035.1074.021.1562-.028.084-.113.1485-.204.1553l-1.921.1123c-1.041.0488-2.158.8867-2.552 1.914l-.141.3585c-.028.0713.021.1416.099.1416h6.597c.077 0 .148-.0489.169-.126.113-.4082.176-.837.176-1.2803 0-2.6025-2.125-4.727-4.734-4.727"/></g><circle cx="205" cy="66" r="2.5" fill="#334155"/><circle cx="188" cy="89" r="2.5" fill="#334155"/><circle cx="96" cy="78" r="2.5" fill="#334155"/><circle cx="67" cy="78" r="2.5" fill="#334155"/></g><defs><linearGradient id="b" x1="179.5" x2="179.5" y1="1" y2="357" gradientUnits="userSpaceOnUse"><stop stop-color="#0F172A"/><stop offset=".72" stop-color="#020420"/></linearGradient><linearGradient id="c" x1="99.5" x2="111.845" y1="61.3105" y2="8.18197" gradientUnits="userSpaceOnUse"><stop stop-color="#CBD5E1"/><stop offset="1" stop-color="#CBD5E1" stop-opacity="0"/></linearGradient><linearGradient id="d" x1="141.5" x2="118.735" y1="71.3105" y2="13.5211" gradientUnits="userSpaceOnUse"><stop stop-color="#CBD5E1"/><stop offset="1" stop-color="#CBD5E1" stop-opacity="0"/></linearGradient><linearGradient id="e" x1="96.7276" x2="76.3035" y1="59.4521" y2="-4.56789" gradientUnits="userSpaceOnUse"><stop stop-color="#CBD5E1"/><stop offset="1" stop-color="#CBD5E1" stop-opacity="0"/></linearGradient><linearGradient id="f" x1="51" x2="50.8523" y1="77.5681" y2="80.2943" gradientUnits="userSpaceOnUse"><stop stop-color="#CBD5E1"/><stop offset="1" stop-color="#CBD5E1" stop-opacity="0"/></linearGradient><linearGradient id="g" x1="251" x2="274.472" y1="68.1794" y2="55.9333" gradientUnits="userSpaceOnUse"><stop stop-color="#CBD5E1"/><stop offset="1" stop-color="#CBD5E1" stop-opacity="0"/></linearGradient><linearGradient id="h" x1="174" x2="192.566" y1="128.75" y2="154.791" gradientUnits="userSpaceOnUse"><stop stop-color="#CBD5E1"/><stop offset="1" stop-color="#CBD5E1" stop-opacity="0"/></linearGradient><linearGradient id="i" x1="53.5" x2="20.5" y1="96.6213" y2="123.621" gradientUnits="userSpaceOnUse"><stop stop-color="#CBD5E1"/><stop offset="1" stop-color="#CBD5E1" stop-opacity="0"/></linearGradient><linearGradient id="j" x1="227.5" x2="277.5" y1="89" y2="114" gradientUnits="userSpaceOnUse"><stop stop-color="#CBD5E1"/><stop offset="1" stop-color="#CBD5E1" stop-opacity="0"/></linearGradient><linearGradient id="k" x1="104.5" x2="71.4997" y1="101.121" y2="147.621" gradientUnits="userSpaceOnUse"><stop stop-color="#CBD5E1"/><stop offset="1" stop-color="#CBD5E1" stop-opacity="0"/></linearGradient><linearGradient id="l" x1="186.5" x2="209.265" y1="61.5" y2="3.71057" gradientUnits="userSpaceOnUse"><stop stop-color="#CBD5E1"/><stop offset="1" stop-color="#CBD5E1" stop-opacity="0"/></linearGradient><linearGradient id="m" x1="144.5" x2="144.5" y1="84.6213" y2="137.621" gradientUnits="userSpaceOnUse"><stop stop-color="#CBD5E1"/><stop offset="1" stop-color="#CBD5E1" stop-opacity="0"/></linearGradient><linearGradient id="o" x1="132.444" x2="122.938" y1="56" y2="87.6727" gradientUnits="userSpaceOnUse"><stop stop-color="#E2E8F0"/><stop offset="1" stop-color="#E2E8F0" stop-opacity="0"/></linearGradient><clipPath id="a"><path fill="#fff" d="M1 13C1 6.37259 6.37258 1 13 1h250c6.627 0 12 5.37258 12 12v130c0 6.627-5.373 12-12 12H13c-6.62741 0-12-5.373-12-12V13Z"/></clipPath><clipPath id="n"><path fill="#fff" d="M116 56h44v44h-44z"/></clipPath></defs></svg>
