<svg xmlns="http://www.w3.org/2000/svg" fill="none" viewBox="0 0 276 156"><rect width="275" height="155" x=".5" y=".5" stroke="#E2E8F0" rx="12.5"/><g clip-path="url(#a)"><path fill="url(#b)" d="M1 1h357v356H1z"/><rect width="241" height="150" x="17.5" y="17.5" fill="#0F172A" fill-opacity=".05" rx="5.86529"/><rect width="241" height="150" x="17.5" y="17.5" fill="url(#c)" fill-opacity=".25" rx="5.86529"/><rect width="241" height="150" x="17.5" y="17.5" stroke="url(#d)" rx="5.86529"/><rect width="12.7306" height="3.18265" x="227.498" y="40.877" fill="#94A3B8" rx="1.59132"/><rect width="12.7306" height="3.18265" x="208.402" y="40.877" fill="#94A3B8" rx="1.59132"/><rect width="12.7306" height="3.18265" x="188.775" y="40.877" fill="#94A3B8" rx="1.59132"/><g opacity=".42"><path fill="url(#e)" d="M35 122.923c0-2.719 2.4978-4.923 5.579-4.923h48.7881c3.0812 0 5.579 2.204 5.579 4.923v22.154c0 2.719-2.4978 4.923-5.579 4.923H40.579c-3.0812 0-5.579-2.204-5.579-4.923v-22.154Z"/><path fill="url(#f)" d="M107.527 122.923c0-2.719 2.498-4.923 5.579-4.923h48.788c3.081 0 5.579 2.204 5.579 4.923v22.154c0 2.719-2.498 4.923-5.579 4.923h-48.788c-3.081 0-5.579-2.204-5.579-4.923v-22.154Z"/><path fill="url(#g)" d="M180.054 122.923c0-2.719 2.498-4.923 5.579-4.923h48.788c3.081 0 5.579 2.204 5.579 4.923v22.154c0 2.719-2.498 4.923-5.579 4.923h-48.788c-3.081 0-5.579-2.204-5.579-4.923v-22.154Z"/></g><rect width="70.0182" height="41.3744" x="170.688" y="58.584" fill="#94A3B8" rx="4.24353"/><rect width="83" height="3" x="35" y="62" fill="#94A3B8" rx="1.5"/><rect width="62" height="4" x="107" y="23" fill="#94A3B8" opacity=".32" rx="1"/><rect width="31" height="3" x="35" y="71" fill="#94A3B8" rx="1.5"/><rect width="63" height="3" x="35" y="81" fill="#94A3B8" rx="1.5"/><rect width="75" height="3" x="35" y="91" fill="#94A3B8" rx="1.5"/><circle cx="25" cy="25" r="2" fill="#94A3B8" opacity=".51"/><circle cx="31" cy="25" r="2" fill="#94A3B8" opacity=".51"/><circle cx="37" cy="25" r="2" fill="#94A3B8" opacity=".51"/><path stroke="#E2E8F0" d="M17.9988 32H258"/><path fill="#94A3B8" d="M41.7321 47h4.4609c.1417 0 .2809-.0369.4036-.1072.1219-.0694.2238-.1704.2954-.2928.0706-.121.1079-.2592.108-.4001-.0002-.1408-.0376-.279-.1083-.3999l-2.9959-5.1429c-.0716-.1223-.1735-.2233-.2954-.2927-.1233-.0704-.2622-.1073-.4035-.1072-.1416 0-.2807.0369-.4035.1071-.1218.0695-.2237.1704-.2953.2928l-.766 1.316-1.4977-2.5732c-.0717-.1223-.1736-.2233-.2955-.2927-.1233-.0704-.2623-.1073-.4036-.1072-.1416 0-.2808.0369-.4035.1071-.122.0694-.2239.1704-.2955.2928l-3.7279 6.4002c-.0707.1208-.1082.259-.1084.3998 0 .1405.0372.2785.108.4001.0716.1224.1735.2234.2954.2928.1227.0703.2619.1072.4036.1072h2.8002c1.1095 0 1.9276-.483 2.4906-1.4253l1.3669-2.3462.732-1.2554 2.1973 3.7714h-2.9293L41.7321 47Zm-3.1706-1.2568-1.9542-.0005 2.9294-5.0282 1.4616 2.514-.9787 1.6805c-.3738.6114-.7985.8342-1.4581.8342Z"/></g><defs><linearGradient id="b" x1="179.5" x2="179.5" y1="1" y2="357" gradientUnits="userSpaceOnUse"><stop stop-color="#fff"/><stop offset=".72" stop-color="#E2E8F0"/></linearGradient><linearGradient id="c" x1="107.444" x2="86.0055" y1="17" y2="131.472" gradientUnits="userSpaceOnUse"><stop stop-color="#E2E8F0"/><stop offset="1" stop-color="#E2E8F0" stop-opacity="0"/></linearGradient><linearGradient id="e" x1="136.817" x2="136.817" y1="118" y2="150" gradientUnits="userSpaceOnUse"><stop stop-color="#64748B"/><stop offset="1" stop-color="#64748B" stop-opacity="0"/></linearGradient><linearGradient id="f" x1="136.817" x2="136.817" y1="118" y2="150" gradientUnits="userSpaceOnUse"><stop stop-color="#64748B"/><stop offset="1" stop-color="#64748B" stop-opacity="0"/></linearGradient><linearGradient id="g" x1="136.817" x2="136.817" y1="118" y2="150" gradientUnits="userSpaceOnUse"><stop stop-color="#64748B"/><stop offset="1" stop-color="#64748B" stop-opacity="0"/></linearGradient><radialGradient id="d" cx="0" cy="0" r="1" gradientTransform="matrix(53.81803654 132.21533929 -242.5684528 98.73709002 84.2724 12.4604)" gradientUnits="userSpaceOnUse"><stop stop-color="#E2E8F0" stop-opacity=".56"/><stop offset=".9999" stop-color="#A1A1AA" stop-opacity=".01"/><stop offset="1" stop-color="#E2E8F0" stop-opacity="0"/></radialGradient><clipPath id="a"><path fill="#fff" d="M1 13C1 6.37259 6.37258 1 13 1h250c6.627 0 12 5.37258 12 12v130c0 6.627-5.373 12-12 12H13c-6.62741 0-12-5.373-12-12V13Z"/></clipPath></defs></svg>
