<svg xmlns="http://www.w3.org/2000/svg" width="96" height="33" fill="none">
  <g clip-path="url(#a)">
    <path fill="#fff"
      d="M95.0123 26.3059a.8081.8081 0 0 1-.8133-.8134c0-.44.36-.8133.8133-.8133.44 0 .8133.36.8133.8133 0 .44-.3733.8134-.8133.8134Zm0-1.4667c-.36 0-.6533.2933-.6533.6533s.2933.6534.6533.6534.6533-.2934.6533-.6534-.2933-.6533-.6533-.6533Zm.4133 1.08h-.1866l-.16-.3067h-.2134v.3067h-.1733v-.8933h.4267c.1866 0 .3066.12.3066.2933 0 .1333-.08.2267-.1866.2667l.1866.3333Zm-.32-.4667c.0667 0 .1334-.04.1334-.1333 0-.1067-.0534-.1333-.1334-.1333h-.2666v.2666h.2666ZM10.2792 24.5991h2.08v5.6667h3.6133v1.8133h-5.6933v-7.48ZM18.121 28.3595v-.0267c0-2.1467 1.7333-3.8933 4.04-3.8933 2.3066 0 4.0133 1.72 4.0133 3.8666v.0267c0 2.1467-1.7333 3.8933-4.04 3.8933s-4.0133-1.72-4.0133-3.8666Zm5.9466 0v-.0267c0-1.08-.7733-2.0133-1.92-2.0133-1.1333 0-1.8933.92-1.8933 2v.0266c0 1.08.7733 2.0134 1.9067 2.0134 1.1466 0 1.9066-.92 1.9066-2ZM28.7206 28.7991v-4.2h2.1067v4.16c0 1.08.5466 1.5867 1.3733 1.5867.8266 0 1.3733-.4933 1.3733-1.5333v-4.2134h2.1067v4.1467c0 2.4133-1.3734 3.4667-3.5067 3.4667-2.12 0-3.4533-1.0667-3.4533-3.4134ZM38.8534 24.5991h2.88c2.6667 0 4.2267 1.5334 4.2267 3.6934v.0266c0 2.16-1.5734 3.76-4.2667 3.76h-2.84v-7.48Zm2.92 5.64c1.24 0 2.0667-.68 2.0667-1.8933v-.0267c0-1.2-.8267-1.8933-2.0667-1.8933h-.84v3.8h.84v.0133ZM48.9724 24.5991h5.9867v1.8134h-3.92v1.28h3.5466v1.72h-3.5466v2.6666h-2.0667v-7.48ZM57.8396 24.5991h2.0667v5.6667h3.6266v1.8133h-5.6933v-7.48ZM68.9466 24.5459h2l3.1867 7.5333h-2.2267l-.5466-1.3333h-2.88l-.5334 1.3333h-2.1733l3.1733-7.5333Zm1.8267 4.5867-.8267-2.12-.84 2.12h1.6667ZM76.8007 24.5991h3.5333c1.1467 0 1.9333.2934 2.44.8134.44.4266.6667 1 .6667 1.7466v.0267c0 1.1467-.6134 1.9067-1.5334 2.2933l1.7867 2.6134h-2.4l-1.5067-2.2667h-.9066v2.2667h-2.08v-7.4934Zm3.44 3.5867c.7066 0 1.1066-.3467 1.1066-.88v-.0267c0-.5866-.4266-.88-1.12-.88h-1.36v1.7867h1.3734ZM86.4255 24.5991h6.0134v1.76h-3.96v1.1334h3.5866v1.64h-3.5866v1.1866h4.0133v1.76h-6.0667v-7.48ZM5.7465 29.2393c-.2933.6533-.9066 1.12-1.7066 1.12-1.1334 0-1.9067-.9467-1.9067-2.0133v-.0267c0-1.08.76-2 1.8933-2 .8534 0 1.5067.52 1.7734 1.24h2.1866c-.3466-1.7867-1.92-3.1067-3.9466-3.1067-2.3067 0-4.04 1.7467-4.04 3.8934v.0266c0 2.1467 1.7066 3.8667 4.0133 3.8667 1.9733 0 3.52-1.28 3.92-2.9867l-2.1867-.0133ZM89.9864 12.6661l-5.72-3.28-.9867-.4266-23.4.16v11.88h30.1067v-8.3334Z" />
    <path fill="#F38020"
      d="M79.5734 19.9061c.28-.96.1734-1.84-.2933-2.4933-.4267-.6-1.1467-.9467-2.0133-.9867l-16.4134-.2133a.3034.3034 0 0 1-.2533-.1333c-.0533-.08-.0667-.1867-.04-.2934.0533-.16.2133-.28.3867-.2933l16.56-.2133c1.96-.0934 4.0933-1.68 4.84-3.6267l.9466-2.4667c.04-.1067.0534-.2133.0267-.32-1.0667-4.8266-5.3733-8.4266-10.52-8.4266-4.7467 0-8.7733 3.0666-10.2133 7.32-.9334-.6934-2.12-1.0667-3.4-.9467-2.28.2267-4.1067 2.0533-4.3334 4.3333-.0533.5867-.0133 1.16.12 1.6934-3.72.1066-6.6933 3.1466-6.6933 6.8933 0 .3333.0267.6667.0667 1 .0266.16.16.28.32.28h30.2933c.1733 0 .3333-.12.3867-.2933l.2266-.8134Z" />
    <path fill="#FAAE40"
      d="M84.7994 9.3594c-.1466 0-.3066 0-.4533.0133-.1067 0-.2.08-.24.1867l-.64 2.2266c-.28.96-.1733 1.84.2933 2.4934.4267.6 1.1467.9466 2.0134.9866l3.4933.2134c.1067 0 .2.0533.2533.1333.0534.08.0667.2.04.2933-.0533.16-.2133.28-.3866.2934l-3.64.2133c-1.9734.0933-4.0934 1.68-4.84 3.6267l-.2667.68c-.0533.1333.04.2666.1867.2666h12.5066c.1467 0 .28-.0933.32-.24.2134-.7733.3334-1.5866.3334-2.4266 0-4.9334-4.0267-8.96-8.9734-8.96Z" />
  </g>
  <defs>
    <clipPath id="a">
      <path fill="#fff" d="M0 .3193h95.8667v32H0z" />
    </clipPath>
  </defs>
</svg>
