<svg xmlns="http://www.w3.org/2000/svg" width="1439" height="708" fill="none">
  <g clip-path="url(#a)">
    <g filter="url(#b)" opacity=".68">
      <path fill="#00DC82" d="M1390 175.371v78H92v-78z" />
    </g>
    <path fill="url(#c)" fill-opacity=".7" d="M-9 102.371h1499v500H-9z" />
    <g opacity=".17">
      <circle cx="144" cy="408.371" r="2" fill="url(#d)" />
      <circle cx="72" cy="311.371" r="2" fill="url(#e)" />
      <circle cx="112" cy="225.371" r="2" fill="url(#f)" />
      <circle cx="449" cy="192.371" r="2" fill="url(#g)" />
      <circle cx="134" cy="527.371" r="2" fill="url(#h)" />
      <circle cx="328" cy="667.371" r="2" fill="url(#i)" />
      <circle cx="1405" cy="511.371" r="2" fill="url(#j)" />
      <circle cx="933" cy="532.371" r="2" fill="url(#k)" />
      <circle cx="918" cy="555.371" r="2" fill="url(#l)" />
      <circle cx="1284" cy="575.371" r="2" fill="url(#m)" />
      <circle cx="1134" cy="661.371" r="2" fill="url(#n)" />
      <circle cx="1008" cy="688.371" r="2" fill="url(#o)" />
      <circle cx="1183" cy="595.371" r="2" fill="url(#p)" />
      <circle cx="1278" cy="628.371" r="2" fill="url(#q)" />
      <circle cx="1436" cy="649.371" r="2" fill="url(#r)" />
      <circle cx="1032" cy="579.371" r="2" fill="url(#s)" />
      <circle cx="1253" cy="423.371" r="2" fill="url(#t)" />
      <circle cx="928" cy="611.371" r="2" fill="url(#u)" />
      <circle cx="625" cy="561.371" r="2" fill="url(#v)" />
      <circle cx="717" cy="527.371" r="2" fill="url(#w)" />
      <circle cx="771" cy="495.371" r="2" fill="url(#x)" />
      <circle cx="858" cy="647.371" r="2" fill="url(#y)" />
      <circle cx="870" cy="685.371" r="2" fill="url(#z)" />
      <circle cx="272" cy="589.371" r="2" fill="url(#A)" />
      <circle cx="1353" cy="706.371" r="2" fill="url(#B)" />
      <circle cx="1226" cy="613.371" r="2" fill="url(#C)" />
      <circle cx="1386" cy="591.371" r="2" fill="url(#D)" />
      <circle cx="1330" cy="642.371" r="2" fill="url(#E)" />
      <circle cx="1320" cy="476.371" r="2" fill="url(#F)" />
      <circle cx="1390" cy="269.371" r="2" fill="url(#G)" />
      <circle cx="1286" cy="408.371" r="2" fill="url(#H)" />
      <circle cx="729" cy="253.371" r="2" fill="url(#I)" />
      <circle cx="836" cy="282.371" r="2" fill="url(#J)" />
      <circle cx="32" cy="320.371" r="2" fill="url(#K)" />
      <circle cx="1276" cy="471.371" r="2" fill="url(#L)" />
      <circle cx="406" cy="558.371" r="2" fill="url(#M)" />
      <circle cx="701" cy="162.371" r="2" fill="url(#N)" />
      <circle cx="81" cy="145.371" r="2" fill="url(#O)" />
      <circle cx="340" cy="571.371" r="2" fill="url(#P)" />
      <circle cx="635" cy="175.371" r="2" fill="url(#Q)" />
      <circle cx="1208" cy="418.371" r="2" fill="url(#R)" />
      <circle cx="362" cy="620.371" r="2" fill="url(#S)" />
      <circle cx="227" cy="147.371" r="2" fill="url(#T)" />
      <circle cx="584" cy="231.371" r="2" fill="url(#U)" />
      <circle cx="1157" cy="454.371" r="2" fill="url(#V)" />
      <circle cx="284" cy="459.371" r="2" fill="url(#W)" />
      <circle cx="1072" cy="349.371" r="2" fill="url(#X)" />
      <circle cx="82" cy="687.371" r="2" fill="url(#Y)" />
      <circle cx="119" cy="654.371" r="2" fill="url(#Z)" />
      <circle cx="148" cy="348.371" r="2" fill="url(#aa)" />
      <circle cx="303" cy="363.371" r="2" fill="url(#ab)" />
      <circle cx="222" cy="365.371" r="2" fill="url(#ac)" />
      <circle cx="197" cy="470.371" r="2" fill="url(#ad)" />
      <circle cx="388" cy="512.371" r="2" fill="url(#ae)" />
      <circle cx="511" cy="175.371" r="2" fill="url(#af)" />
      <circle cx="543" cy="334.371" r="2" fill="url(#ag)" />
      <circle cx="605" cy="391.371" r="2" fill="url(#ah)" />
      <circle cx="705" cy="475.371" r="2" fill="url(#ai)" />
      <circle cx="870" cy="465.371" r="2" fill="url(#aj)" />
      <circle cx="848" cy="488.371" r="2" fill="url(#ak)" />
      <circle cx="900" cy="318.371" r="2" fill="url(#al)" />
      <circle cx="786" cy="389.371" r="2" fill="url(#am)" />
      <circle cx="1009" cy="402.371" r="2" fill="url(#an)" />
      <circle cx="1119" cy="161.371" r="2" fill="url(#ao)" />
      <circle cx="1064" cy="300.371" r="2" fill="url(#ap)" />
      <circle cx="1064" cy="273.371" r="2" fill="url(#aq)" />
      <circle cx="1164" cy="339.371" r="2" fill="url(#ar)" />
      <circle cx="1337" cy="261.371" r="2" fill="url(#as)" />
      <circle cx="1290" cy="182.371" r="2" fill="url(#at)" />
      <circle cx="402" cy="352.371" r="2" fill="url(#au)" />
      <circle cx="1358" cy="138.371" r="2" fill="url(#av)" />
      <circle cx="482" cy="266.371" r="2" fill="url(#aw)" />
      <circle cx="449" cy="229.371" r="2" fill="url(#ax)" />
      <circle cx="589" cy="277.371" r="2" fill="url(#ay)" />
      <circle cx="518" cy="269.371" r="2" fill="url(#az)" />
      <circle cx="355" cy="230.371" r="2" fill="url(#aA)" />
      <circle cx="307" cy="205.371" r="2" fill="url(#aB)" />
      <circle cx="231" cy="313.371" r="2" fill="url(#aC)" />
      <circle cx="304" cy="305.371" r="2" fill="url(#aD)" />
      <circle cx="187" cy="661.371" r="2" fill="url(#aE)" />
      <circle cx="227" cy="689.371" r="2" fill="url(#aF)" />
      <circle cx="562" cy="571.371" r="2" fill="url(#aG)" />
      <circle cx="483" cy="605.371" r="2" fill="url(#aH)" />
      <circle cx="521" cy="692.371" r="2" fill="url(#aI)" />
      <circle cx="717" cy="141.371" r="2" fill="url(#aJ)" />
      <circle cx="657" cy="210.371" r="2" fill="url(#aK)" />
      <circle cx="727" cy="205.371" r="2" fill="url(#aL)" />
      <circle cx="1038" cy="224.371" r="2" fill="url(#aM)" />
      <circle cx="863" cy="245.371" r="2" fill="url(#aN)" />
      <circle cx="616" cy="291.371" r="2" fill="url(#aO)" />
      <circle cx="447" cy="669.371" r="2" fill="url(#aP)" />
      <circle cx="639" cy="457.371" r="2" fill="url(#aQ)" />
      <circle cx="606" cy="505.371" r="2" fill="url(#aR)" />
      <circle cx="563" cy="482.371" r="2" fill="url(#aS)" />
      <circle cx="576" cy="311.371" r="2" fill="url(#aT)" />
      <circle cx="615" cy="359.371" r="2" fill="url(#aU)" />
      <circle cx="739" cy="311.371" r="2" fill="url(#aV)" />
      <circle cx="893" cy="371.371" r="2" fill="url(#aW)" />
      <circle cx="821" cy="389.371" r="2" fill="url(#aX)" />
      <circle cx="712" cy="431.371" r="2" fill="url(#aY)" />
      <circle cx="747" cy="406.371" r="2" fill="url(#aZ)" />
    </g>
    <g filter="url(#ba)" opacity=".3">
      <ellipse cx="740.5" cy="102.371" fill="#00DC82" rx="567.5" ry="64" />
    </g>
    <g clip-path="url(#bb)" opacity=".34">
      <path fill="url(#bc)" fill-rule="evenodd"
        d="M65 1h68v68H65V1Zm-1 68V0h1312v623h-70V70H134v553H64V69Zm1311 416v68h-68v-68h68Zm-68 137v-68h68v68h-68Zm0-138h68v-68h-68v68Zm68-137v68h-68v-68h68Zm0-139v68h-68v-68h68Zm-68 137v-68h68v68h-68Zm33.42-171.876L1307 206.299v-66.592l33.42 33.417ZM1307.71 139h67.08l-33.66 33.42-33.42-33.42Zm33.41 34.831L1307.71 207h66.58l-33.17-33.169Zm33.88 32.462-33.17-33.166 33.17-32.926v66.092ZM1375 70v68h-68V70h68Zm-68-1h68V1h-68v68Zm-1 0h-68V1h68v68ZM133 485v68H65v-68h68ZM65 622v-68h68v68H65Zm0-138h68v-68H65v68Zm68-137v68H65v-68h68Zm0-138.788V276H66.1947L133 208.212Zm-1.195-.212L65 275.788V208h66.805ZM65 345v-68h68v68H65Zm0-138h68v-68H65v68Zm68-137v68H65V70h68Zm1-1h68V1h-68v68ZM410 1h68v68h-68V1Zm69 0h68v68h-68V1Zm69 68V1h68v68h-68Zm-345-1.1948V1h67.788L203 67.8052Zm68-65.6105V69h-67.788L271 2.1947ZM272 1v68h68V1h-68Zm69 0v68h68V1h-68Zm483 0h68v68h-68V1ZM685 69h-68V1h68v68Zm69 0h-68V1h68v68Zm277-68h68v68h-68V1.6995l.35-.3421L1031 1Zm-1 0v.2789l-68 66.5324V1h68Zm0 1.678L962.215 69H1030V2.678ZM1100 1h68v68h-68V1Zm69 68V1h68v68h-68ZM961 1h-68v68h68V1ZM823 69h-68V1h68v68Z"
        clip-rule="evenodd" />
    </g>
    <path stroke="url(#bd)" d="m257.999 70.4414 912.661-1.9418" />
    <path fill="url(#be)" fill-opacity=".15"
      d="M724.393 206.432h26.765c.85 0 1.685-.214 2.422-.623.736-.408 1.347-.996 1.772-1.703.425-.708.648-1.51.648-2.327 0-.816-.225-1.619-.65-2.326l-17.975-29.911c-.425-.707-1.036-1.294-1.772-1.702-.736-.409-1.571-.624-2.421-.624-.85 0-1.685.215-2.421.624-.736.408-1.347.995-1.772 1.702l-4.596 7.654-8.987-14.966c-.425-.707-1.036-1.294-1.772-1.703-.737-.408-1.572-.623-2.422-.623-.85 0-1.685.215-2.421.623-.737.409-1.348.996-1.773 1.703l-22.368 37.223c-.425.707-.65 1.51-.65 2.326 0 .817.223 1.619.648 2.327.425.707 1.036 1.295 1.772 1.703.737.409 1.572.623 2.422.623h16.801c6.657 0 11.566-2.809 14.944-8.289l8.201-13.645 4.393-7.302 13.183 21.934h-17.576l-4.395 7.302Zm-19.024-7.309-11.725-.003 17.576-29.244 8.77 14.622-5.872 9.773c-2.243 3.556-4.792 4.852-8.749 4.852Z" />
    <path fill="url(#bf)" fill-opacity=".15"
      d="M724.393 206.432h26.765c.85 0 1.685-.214 2.422-.623.736-.408 1.347-.996 1.772-1.703.425-.708.648-1.51.648-2.327 0-.816-.225-1.619-.65-2.326l-17.975-29.911c-.425-.707-1.036-1.294-1.772-1.702-.736-.409-1.571-.624-2.421-.624-.85 0-1.685.215-2.421.624-.736.408-1.347.995-1.772 1.702l-4.596 7.654-8.987-14.966c-.425-.707-1.036-1.294-1.772-1.703-.737-.408-1.572-.623-2.422-.623-.85 0-1.685.215-2.421.623-.737.409-1.348.996-1.773 1.703l-22.368 37.223c-.425.707-.65 1.51-.65 2.326 0 .817.223 1.619.648 2.327.425.707 1.036 1.295 1.772 1.703.737.409 1.572.623 2.422.623h16.801c6.657 0 11.566-2.809 14.944-8.289l8.201-13.645 4.393-7.302 13.183 21.934h-17.576l-4.395 7.302Zm-19.024-7.309-11.725-.003 17.576-29.244 8.77 14.622-5.872 9.773c-2.243 3.556-4.792 4.852-8.749 4.852Z" />
    <path stroke="url(#bg)" stroke-width="2.2086"
      d="M724.393 206.432h26.765c.85 0 1.685-.214 2.422-.623.736-.408 1.347-.996 1.772-1.703.425-.708.648-1.51.648-2.327 0-.816-.225-1.619-.65-2.326l-17.975-29.911c-.425-.707-1.036-1.294-1.772-1.702-.736-.409-1.571-.624-2.421-.624-.85 0-1.685.215-2.421.624-.736.408-1.347.995-1.772 1.702l-4.596 7.654-8.987-14.966c-.425-.707-1.036-1.294-1.772-1.703-.737-.408-1.572-.623-2.422-.623-.85 0-1.685.215-2.421.623-.737.409-1.348.996-1.773 1.703l-22.368 37.223c-.425.707-.65 1.51-.65 2.326 0 .817.223 1.619.648 2.327.425.707 1.036 1.295 1.772 1.703.737.409 1.572.623 2.422.623h16.801c6.657 0 11.566-2.809 14.944-8.289l8.201-13.645 4.393-7.302 13.183 21.934h-17.576l-4.395 7.302Zm-19.024-7.309-11.725-.003 17.576-29.244 8.77 14.622-5.872 9.773c-2.243 3.556-4.792 4.852-8.749 4.852Z" />
    <path stroke="url(#bh)" stroke-width="1.7669" d="m732.811 177.131 9.717.552 3.203 5.853 3.202 5.3-2.319 9.939" />
    <path stroke="url(#bi)" stroke-width="1.7669"
      d="m684.221 204.189 9.387-4.969m0 0-1.436-12.589 4.086-6.736 4.969-8.283 9.718-2.981m-17.337 30.589 4.969 7.178 6.405.22s2.976.104 4.749-.441c1.864-.573 4.306-1.546 4.306-1.546l.663-10.049h7.619l-1.877-9.829 4.196-7.73-4.858-7.288-2.54-4.859-6.295 3.755m0 0-4.196-6.736" />
    <path stroke="#00DC82" stroke-width="1.7669"
      d="m720.332 184.422 2.65-4.528 3.645-6.626 6.625 3.644.773-9.386m21.092 31.914h-8.503l-8.613 6.405-8.503-6.626" />
    <path stroke="url(#bj)" stroke-width="1.7669"
      d="m720.332 184.422 2.65-4.528 3.645-6.626 6.625 3.644.773-9.386m21.092 31.914h-8.503l-8.613 6.405-8.503-6.626" />
    <g filter="url(#bk)">
      <path fill="#75EDAE" d="M721.767 197.121c-5.08 9.939-12.552 10.012-16.123 9.939l8.614-3.092 7.509-6.847Z" />
    </g>
    <g filter="url(#bl)">
      <path fill="#75EDAE" d="M721.767 197.121c-5.08 9.939-12.552 10.012-16.123 9.939l8.614-3.092 7.509-6.847Z" />
    </g>
    <g filter="url(#bm)">
      <path fill="#75EDAE" d="M725.963 174.041c2.871-9.055 11.706-8.172 12.92-2.871l-6.294-3.644-6.626 6.515Z" />
    </g>
    <g filter="url(#bn)">
      <path fill="#75EDAE" d="M725.963 173.155c2.871-9.055 12.258-7.84 13.473-1.325l-6.737-4.528-6.736 5.853Z" />
    </g>
  </g>
  <defs>
    <radialGradient id="c" cx="0" cy="0" r="1"
      gradientTransform="matrix(-407.727598 80.503012 -34.899767 -176.75858 740.5 373.371)"
      gradientUnits="userSpaceOnUse">
      <stop stop-color="#020420" />
      <stop offset=".4089" stop-color="#020722" stop-opacity=".7681" />
      <stop offset="1" stop-color="#031327" stop-opacity="0" />
    </radialGradient>
    <radialGradient id="d" cx="0" cy="0" r="1" gradientTransform="matrix(0 2 -2 0 144 408.371)"
      gradientUnits="userSpaceOnUse">
      <stop stop-color="#75EDAE" />
      <stop offset="1" stop-color="#75EDAE" stop-opacity="0" />
    </radialGradient>
    <radialGradient id="e" cx="0" cy="0" r="1" gradientTransform="matrix(0 2 -2 0 72 311.371)"
      gradientUnits="userSpaceOnUse">
      <stop stop-color="#75EDAE" />
      <stop offset="1" stop-color="#75EDAE" stop-opacity="0" />
    </radialGradient>
    <radialGradient id="f" cx="0" cy="0" r="1" gradientTransform="matrix(0 2 -2 0 112 225.371)"
      gradientUnits="userSpaceOnUse">
      <stop stop-color="#75EDAE" />
      <stop offset="1" stop-color="#75EDAE" stop-opacity="0" />
    </radialGradient>
    <radialGradient id="g" cx="0" cy="0" r="1" gradientTransform="matrix(0 2 -2 0 449 192.371)"
      gradientUnits="userSpaceOnUse">
      <stop stop-color="#75EDAE" />
      <stop offset="1" stop-color="#75EDAE" stop-opacity="0" />
    </radialGradient>
    <radialGradient id="h" cx="0" cy="0" r="1" gradientTransform="matrix(0 2 -2 0 134 527.371)"
      gradientUnits="userSpaceOnUse">
      <stop stop-color="#75EDAE" />
      <stop offset="1" stop-color="#75EDAE" stop-opacity="0" />
    </radialGradient>
    <radialGradient id="i" cx="0" cy="0" r="1" gradientTransform="matrix(0 2 -2 0 328 667.371)"
      gradientUnits="userSpaceOnUse">
      <stop stop-color="#75EDAE" />
      <stop offset="1" stop-color="#75EDAE" stop-opacity="0" />
    </radialGradient>
    <radialGradient id="j" cx="0" cy="0" r="1" gradientTransform="matrix(0 2 -2 0 1405 511.371)"
      gradientUnits="userSpaceOnUse">
      <stop stop-color="#75EDAE" />
      <stop offset="1" stop-color="#75EDAE" stop-opacity="0" />
    </radialGradient>
    <radialGradient id="k" cx="0" cy="0" r="1" gradientTransform="matrix(0 2 -2 0 933 532.371)"
      gradientUnits="userSpaceOnUse">
      <stop stop-color="#75EDAE" />
      <stop offset="1" stop-color="#75EDAE" stop-opacity="0" />
    </radialGradient>
    <radialGradient id="l" cx="0" cy="0" r="1" gradientTransform="matrix(0 2 -2 0 918 555.371)"
      gradientUnits="userSpaceOnUse">
      <stop stop-color="#75EDAE" />
      <stop offset="1" stop-color="#75EDAE" stop-opacity="0" />
    </radialGradient>
    <radialGradient id="m" cx="0" cy="0" r="1" gradientTransform="matrix(0 2 -2 0 1284 575.371)"
      gradientUnits="userSpaceOnUse">
      <stop stop-color="#75EDAE" />
      <stop offset="1" stop-color="#75EDAE" stop-opacity="0" />
    </radialGradient>
    <radialGradient id="n" cx="0" cy="0" r="1" gradientTransform="matrix(0 2 -2 0 1134 661.371)"
      gradientUnits="userSpaceOnUse">
      <stop stop-color="#75EDAE" />
      <stop offset="1" stop-color="#75EDAE" stop-opacity="0" />
    </radialGradient>
    <radialGradient id="o" cx="0" cy="0" r="1" gradientTransform="matrix(0 2 -2 0 1008 688.371)"
      gradientUnits="userSpaceOnUse">
      <stop stop-color="#75EDAE" />
      <stop offset="1" stop-color="#75EDAE" stop-opacity="0" />
    </radialGradient>
    <radialGradient id="p" cx="0" cy="0" r="1" gradientTransform="matrix(0 2 -2 0 1183 595.371)"
      gradientUnits="userSpaceOnUse">
      <stop stop-color="#75EDAE" />
      <stop offset="1" stop-color="#75EDAE" stop-opacity="0" />
    </radialGradient>
    <radialGradient id="q" cx="0" cy="0" r="1" gradientTransform="matrix(0 2 -2 0 1278 628.371)"
      gradientUnits="userSpaceOnUse">
      <stop stop-color="#75EDAE" />
      <stop offset="1" stop-color="#75EDAE" stop-opacity="0" />
    </radialGradient>
    <radialGradient id="r" cx="0" cy="0" r="1" gradientTransform="matrix(0 2 -2 0 1436 649.371)"
      gradientUnits="userSpaceOnUse">
      <stop stop-color="#75EDAE" />
      <stop offset="1" stop-color="#75EDAE" stop-opacity="0" />
    </radialGradient>
    <radialGradient id="s" cx="0" cy="0" r="1" gradientTransform="matrix(0 2 -2 0 1032 579.371)"
      gradientUnits="userSpaceOnUse">
      <stop stop-color="#75EDAE" />
      <stop offset="1" stop-color="#75EDAE" stop-opacity="0" />
    </radialGradient>
    <radialGradient id="t" cx="0" cy="0" r="1" gradientTransform="matrix(0 2 -2 0 1253 423.371)"
      gradientUnits="userSpaceOnUse">
      <stop stop-color="#75EDAE" />
      <stop offset="1" stop-color="#75EDAE" stop-opacity="0" />
    </radialGradient>
    <radialGradient id="u" cx="0" cy="0" r="1" gradientTransform="matrix(0 2 -2 0 928 611.371)"
      gradientUnits="userSpaceOnUse">
      <stop stop-color="#75EDAE" />
      <stop offset="1" stop-color="#75EDAE" stop-opacity="0" />
    </radialGradient>
    <radialGradient id="v" cx="0" cy="0" r="1" gradientTransform="matrix(0 2 -2 0 625 561.371)"
      gradientUnits="userSpaceOnUse">
      <stop offset=".0156" stop-color="#00DC82" />
      <stop offset="1" stop-color="#00DC82" stop-opacity="0" />
    </radialGradient>
    <radialGradient id="w" cx="0" cy="0" r="1" gradientTransform="matrix(0 2 -2 0 717 527.371)"
      gradientUnits="userSpaceOnUse">
      <stop offset=".0156" stop-color="#00DC82" />
      <stop offset="1" stop-color="#00DC82" stop-opacity="0" />
    </radialGradient>
    <radialGradient id="x" cx="0" cy="0" r="1" gradientTransform="matrix(0 2 -2 0 771 495.371)"
      gradientUnits="userSpaceOnUse">
      <stop offset=".0156" stop-color="#00DC82" />
      <stop offset="1" stop-color="#00DC82" stop-opacity="0" />
    </radialGradient>
    <radialGradient id="y" cx="0" cy="0" r="1" gradientTransform="matrix(0 2 -2 0 858 647.371)"
      gradientUnits="userSpaceOnUse">
      <stop offset=".0156" stop-color="#00DC82" />
      <stop offset="1" stop-color="#00DC82" stop-opacity="0" />
    </radialGradient>
    <radialGradient id="z" cx="0" cy="0" r="1" gradientTransform="matrix(0 2 -2 0 870 685.371)"
      gradientUnits="userSpaceOnUse">
      <stop offset=".0156" stop-color="#00DC82" />
      <stop offset="1" stop-color="#00DC82" stop-opacity="0" />
    </radialGradient>
    <radialGradient id="A" cx="0" cy="0" r="1" gradientTransform="matrix(0 2 -2 0 272 589.371)"
      gradientUnits="userSpaceOnUse">
      <stop offset=".0156" stop-color="#00DC82" />
      <stop offset="1" stop-color="#00DC82" stop-opacity="0" />
    </radialGradient>
    <radialGradient id="B" cx="0" cy="0" r="1" gradientTransform="matrix(0 2 -2 0 1353 706.371)"
      gradientUnits="userSpaceOnUse">
      <stop offset=".0156" stop-color="#00DC82" />
      <stop offset="1" stop-color="#00DC82" stop-opacity="0" />
    </radialGradient>
    <radialGradient id="C" cx="0" cy="0" r="1" gradientTransform="matrix(0 2 -2 0 1226 613.371)"
      gradientUnits="userSpaceOnUse">
      <stop offset=".0156" stop-color="#00DC82" />
      <stop offset="1" stop-color="#00DC82" stop-opacity="0" />
    </radialGradient>
    <radialGradient id="D" cx="0" cy="0" r="1" gradientTransform="matrix(0 2 -2 0 1386 591.371)"
      gradientUnits="userSpaceOnUse">
      <stop offset=".0156" stop-color="#00DC82" />
      <stop offset="1" stop-color="#00DC82" stop-opacity="0" />
    </radialGradient>
    <radialGradient id="E" cx="0" cy="0" r="1" gradientTransform="matrix(0 2 -2 0 1330 642.371)"
      gradientUnits="userSpaceOnUse">
      <stop offset=".0156" stop-color="#00DC82" />
      <stop offset="1" stop-color="#00DC82" stop-opacity="0" />
    </radialGradient>
    <radialGradient id="F" cx="0" cy="0" r="1" gradientTransform="matrix(0 2 -2 0 1320 476.371)"
      gradientUnits="userSpaceOnUse">
      <stop offset=".0156" stop-color="#00DC82" />
      <stop offset="1" stop-color="#00DC82" stop-opacity="0" />
    </radialGradient>
    <radialGradient id="G" cx="0" cy="0" r="1" gradientTransform="matrix(0 2 -2 0 1390 269.371)"
      gradientUnits="userSpaceOnUse">
      <stop offset=".0156" stop-color="#00DC82" />
      <stop offset="1" stop-color="#00DC82" stop-opacity="0" />
    </radialGradient>
    <radialGradient id="H" cx="0" cy="0" r="1" gradientTransform="matrix(0 2 -2 0 1286 408.371)"
      gradientUnits="userSpaceOnUse">
      <stop offset=".0156" stop-color="#00DC82" />
      <stop offset="1" stop-color="#00DC82" stop-opacity="0" />
    </radialGradient>
    <radialGradient id="I" cx="0" cy="0" r="1" gradientTransform="matrix(0 2 -2 0 729 253.371)"
      gradientUnits="userSpaceOnUse">
      <stop offset=".0156" stop-color="#00DC82" />
      <stop offset="1" stop-color="#00DC82" stop-opacity="0" />
    </radialGradient>
    <radialGradient id="J" cx="0" cy="0" r="1" gradientTransform="matrix(0 2 -2 0 836 282.371)"
      gradientUnits="userSpaceOnUse">
      <stop offset=".0156" stop-color="#00DC82" />
      <stop offset="1" stop-color="#00DC82" stop-opacity="0" />
    </radialGradient>
    <radialGradient id="K" cx="0" cy="0" r="1" gradientTransform="matrix(0 2 -2 0 32 320.371)"
      gradientUnits="userSpaceOnUse">
      <stop offset=".0156" stop-color="#00DC82" />
      <stop offset="1" stop-color="#00DC82" stop-opacity="0" />
    </radialGradient>
    <radialGradient id="L" cx="0" cy="0" r="1" gradientTransform="matrix(0 2 -2 0 1276 471.371)"
      gradientUnits="userSpaceOnUse">
      <stop offset=".0156" stop-color="#00DC82" />
      <stop offset="1" stop-color="#00DC82" stop-opacity="0" />
    </radialGradient>
    <radialGradient id="M" cx="0" cy="0" r="1" gradientTransform="matrix(0 2 -2 0 406 558.371)"
      gradientUnits="userSpaceOnUse">
      <stop offset=".0156" stop-color="#00DC82" />
      <stop offset="1" stop-color="#00DC82" stop-opacity="0" />
    </radialGradient>
    <radialGradient id="N" cx="0" cy="0" r="1" gradientTransform="matrix(0 2 -2 0 701 162.371)"
      gradientUnits="userSpaceOnUse">
      <stop offset=".0156" stop-color="#00DC82" />
      <stop offset="1" stop-color="#00DC82" stop-opacity="0" />
    </radialGradient>
    <radialGradient id="O" cx="0" cy="0" r="1" gradientTransform="matrix(0 2 -2 0 81 145.371)"
      gradientUnits="userSpaceOnUse">
      <stop offset=".0156" stop-color="#00DC82" />
      <stop offset="1" stop-color="#00DC82" stop-opacity="0" />
    </radialGradient>
    <radialGradient id="P" cx="0" cy="0" r="1" gradientTransform="matrix(0 2 -2 0 340 571.371)"
      gradientUnits="userSpaceOnUse">
      <stop offset=".0156" stop-color="#00DC82" />
      <stop offset="1" stop-color="#00DC82" stop-opacity="0" />
    </radialGradient>
    <radialGradient id="Q" cx="0" cy="0" r="1" gradientTransform="matrix(0 2 -2 0 635 175.371)"
      gradientUnits="userSpaceOnUse">
      <stop offset=".0156" stop-color="#00DC82" />
      <stop offset="1" stop-color="#00DC82" stop-opacity="0" />
    </radialGradient>
    <radialGradient id="R" cx="0" cy="0" r="1" gradientTransform="matrix(0 2 -2 0 1208 418.371)"
      gradientUnits="userSpaceOnUse">
      <stop offset=".0156" stop-color="#00DC82" />
      <stop offset="1" stop-color="#00DC82" stop-opacity="0" />
    </radialGradient>
    <radialGradient id="S" cx="0" cy="0" r="1" gradientTransform="matrix(0 2 -2 0 362 620.371)"
      gradientUnits="userSpaceOnUse">
      <stop offset=".0156" stop-color="#00DC82" />
      <stop offset="1" stop-color="#00DC82" stop-opacity="0" />
    </radialGradient>
    <radialGradient id="T" cx="0" cy="0" r="1" gradientTransform="matrix(0 2 -2 0 227 147.371)"
      gradientUnits="userSpaceOnUse">
      <stop offset=".0156" stop-color="#00DC82" />
      <stop offset="1" stop-color="#00DC82" stop-opacity="0" />
    </radialGradient>
    <radialGradient id="U" cx="0" cy="0" r="1" gradientTransform="matrix(0 2 -2 0 584 231.371)"
      gradientUnits="userSpaceOnUse">
      <stop offset=".0156" stop-color="#00DC82" />
      <stop offset="1" stop-color="#00DC82" stop-opacity="0" />
    </radialGradient>
    <radialGradient id="V" cx="0" cy="0" r="1" gradientTransform="matrix(0 2 -2 0 1157 454.371)"
      gradientUnits="userSpaceOnUse">
      <stop offset=".0156" stop-color="#00DC82" />
      <stop offset="1" stop-color="#00DC82" stop-opacity="0" />
    </radialGradient>
    <radialGradient id="W" cx="0" cy="0" r="1" gradientTransform="matrix(0 2 -2 0 284 459.371)"
      gradientUnits="userSpaceOnUse">
      <stop offset=".0156" stop-color="#00DC82" />
      <stop offset="1" stop-color="#00DC82" stop-opacity="0" />
    </radialGradient>
    <radialGradient id="X" cx="0" cy="0" r="1" gradientTransform="matrix(0 2 -2 0 1072 349.371)"
      gradientUnits="userSpaceOnUse">
      <stop offset=".0156" stop-color="#00DC82" />
      <stop offset="1" stop-color="#00DC82" stop-opacity="0" />
    </radialGradient>
    <radialGradient id="Y" cx="0" cy="0" r="1" gradientTransform="matrix(0 2 -2 0 82 687.371)"
      gradientUnits="userSpaceOnUse">
      <stop offset=".0156" stop-color="#00DC82" />
      <stop offset="1" stop-color="#00DC82" stop-opacity="0" />
    </radialGradient>
    <radialGradient id="Z" cx="0" cy="0" r="1" gradientTransform="matrix(0 2 -2 0 119 654.371)"
      gradientUnits="userSpaceOnUse">
      <stop offset=".0156" stop-color="#00DC82" />
      <stop offset="1" stop-color="#00DC82" stop-opacity="0" />
    </radialGradient>
    <radialGradient id="aa" cx="0" cy="0" r="1" gradientTransform="matrix(0 2 -2 0 148 348.371)"
      gradientUnits="userSpaceOnUse">
      <stop offset=".0156" stop-color="#00DC82" />
      <stop offset="1" stop-color="#00DC82" stop-opacity="0" />
    </radialGradient>
    <radialGradient id="ab" cx="0" cy="0" r="1" gradientTransform="matrix(0 2 -2 0 303 363.371)"
      gradientUnits="userSpaceOnUse">
      <stop offset=".0156" stop-color="#00DC82" />
      <stop offset="1" stop-color="#00DC82" stop-opacity="0" />
    </radialGradient>
    <radialGradient id="ac" cx="0" cy="0" r="1" gradientTransform="matrix(0 2 -2 0 222 365.371)"
      gradientUnits="userSpaceOnUse">
      <stop offset=".0156" stop-color="#00DC82" />
      <stop offset="1" stop-color="#00DC82" stop-opacity="0" />
    </radialGradient>
    <radialGradient id="ad" cx="0" cy="0" r="1" gradientTransform="matrix(0 2 -2 0 197 470.371)"
      gradientUnits="userSpaceOnUse">
      <stop offset=".0156" stop-color="#00DC82" />
      <stop offset="1" stop-color="#00DC82" stop-opacity="0" />
    </radialGradient>
    <radialGradient id="ae" cx="0" cy="0" r="1" gradientTransform="matrix(0 2 -2 0 388 512.371)"
      gradientUnits="userSpaceOnUse">
      <stop offset=".0156" stop-color="#00DC82" />
      <stop offset="1" stop-color="#00DC82" stop-opacity="0" />
    </radialGradient>
    <radialGradient id="af" cx="0" cy="0" r="1" gradientTransform="matrix(0 2 -2 0 511 175.371)"
      gradientUnits="userSpaceOnUse">
      <stop offset=".0156" stop-color="#00DC82" />
      <stop offset="1" stop-color="#00DC82" stop-opacity="0" />
    </radialGradient>
    <radialGradient id="ag" cx="0" cy="0" r="1" gradientTransform="matrix(0 2 -2 0 543 334.371)"
      gradientUnits="userSpaceOnUse">
      <stop offset=".0156" stop-color="#00DC82" />
      <stop offset="1" stop-color="#00DC82" stop-opacity="0" />
    </radialGradient>
    <radialGradient id="ah" cx="0" cy="0" r="1" gradientTransform="matrix(0 2 -2 0 605 391.371)"
      gradientUnits="userSpaceOnUse">
      <stop offset=".0156" stop-color="#00DC82" />
      <stop offset="1" stop-color="#00DC82" stop-opacity="0" />
    </radialGradient>
    <radialGradient id="ai" cx="0" cy="0" r="1" gradientTransform="matrix(0 2 -2 0 705 475.371)"
      gradientUnits="userSpaceOnUse">
      <stop offset=".0156" stop-color="#00DC82" />
      <stop offset="1" stop-color="#00DC82" stop-opacity="0" />
    </radialGradient>
    <radialGradient id="aj" cx="0" cy="0" r="1" gradientTransform="matrix(0 2 -2 0 870 465.371)"
      gradientUnits="userSpaceOnUse">
      <stop offset=".0156" stop-color="#00DC82" />
      <stop offset="1" stop-color="#00DC82" stop-opacity="0" />
    </radialGradient>
    <radialGradient id="ak" cx="0" cy="0" r="1" gradientTransform="matrix(0 2 -2 0 848 488.371)"
      gradientUnits="userSpaceOnUse">
      <stop offset=".0156" stop-color="#00DC82" />
      <stop offset="1" stop-color="#00DC82" stop-opacity="0" />
    </radialGradient>
    <radialGradient id="al" cx="0" cy="0" r="1" gradientTransform="matrix(0 2 -2 0 900 318.371)"
      gradientUnits="userSpaceOnUse">
      <stop offset=".0156" stop-color="#00DC82" />
      <stop offset="1" stop-color="#00DC82" stop-opacity="0" />
    </radialGradient>
    <radialGradient id="am" cx="0" cy="0" r="1" gradientTransform="matrix(0 2 -2 0 786 389.371)"
      gradientUnits="userSpaceOnUse">
      <stop offset=".0156" stop-color="#00DC82" />
      <stop offset="1" stop-color="#00DC82" stop-opacity="0" />
    </radialGradient>
    <radialGradient id="an" cx="0" cy="0" r="1" gradientTransform="matrix(0 2 -2 0 1009 402.371)"
      gradientUnits="userSpaceOnUse">
      <stop offset=".0156" stop-color="#00DC82" />
      <stop offset="1" stop-color="#00DC82" stop-opacity="0" />
    </radialGradient>
    <radialGradient id="ao" cx="0" cy="0" r="1" gradientTransform="matrix(0 2 -2 0 1119 161.371)"
      gradientUnits="userSpaceOnUse">
      <stop offset=".0156" stop-color="#00DC82" />
      <stop offset="1" stop-color="#00DC82" stop-opacity="0" />
    </radialGradient>
    <radialGradient id="ap" cx="0" cy="0" r="1" gradientTransform="matrix(0 2 -2 0 1064 300.371)"
      gradientUnits="userSpaceOnUse">
      <stop offset=".0156" stop-color="#00DC82" />
      <stop offset="1" stop-color="#00DC82" stop-opacity="0" />
    </radialGradient>
    <radialGradient id="aq" cx="0" cy="0" r="1" gradientTransform="matrix(0 2 -2 0 1064 273.371)"
      gradientUnits="userSpaceOnUse">
      <stop offset=".0156" stop-color="#00DC82" />
      <stop offset="1" stop-color="#00DC82" stop-opacity="0" />
    </radialGradient>
    <radialGradient id="ar" cx="0" cy="0" r="1" gradientTransform="matrix(0 2 -2 0 1164 339.371)"
      gradientUnits="userSpaceOnUse">
      <stop offset=".0156" stop-color="#00DC82" />
      <stop offset="1" stop-color="#00DC82" stop-opacity="0" />
    </radialGradient>
    <radialGradient id="as" cx="0" cy="0" r="1" gradientTransform="matrix(0 2 -2 0 1337 261.371)"
      gradientUnits="userSpaceOnUse">
      <stop offset=".0156" stop-color="#00DC82" />
      <stop offset="1" stop-color="#00DC82" stop-opacity="0" />
    </radialGradient>
    <radialGradient id="at" cx="0" cy="0" r="1" gradientTransform="matrix(0 2 -2 0 1290 182.371)"
      gradientUnits="userSpaceOnUse">
      <stop offset=".0156" stop-color="#00DC82" />
      <stop offset="1" stop-color="#00DC82" stop-opacity="0" />
    </radialGradient>
    <radialGradient id="au" cx="0" cy="0" r="1" gradientTransform="matrix(0 2 -2 0 402 352.371)"
      gradientUnits="userSpaceOnUse">
      <stop offset=".0156" stop-color="#00DC82" />
      <stop offset="1" stop-color="#00DC82" stop-opacity="0" />
    </radialGradient>
    <radialGradient id="av" cx="0" cy="0" r="1" gradientTransform="matrix(0 2 -2 0 1358 138.371)"
      gradientUnits="userSpaceOnUse">
      <stop offset=".0156" stop-color="#00DC82" />
      <stop offset="1" stop-color="#00DC82" stop-opacity="0" />
    </radialGradient>
    <radialGradient id="aw" cx="0" cy="0" r="1" gradientTransform="matrix(0 2 -2 0 482 266.371)"
      gradientUnits="userSpaceOnUse">
      <stop offset=".0156" stop-color="#00DC82" />
      <stop offset="1" stop-color="#00DC82" stop-opacity="0" />
    </radialGradient>
    <radialGradient id="ax" cx="0" cy="0" r="1" gradientTransform="matrix(0 2 -2 0 449 229.371)"
      gradientUnits="userSpaceOnUse">
      <stop offset=".0156" stop-color="#00DC82" />
      <stop offset="1" stop-color="#00DC82" stop-opacity="0" />
    </radialGradient>
    <radialGradient id="ay" cx="0" cy="0" r="1" gradientTransform="matrix(0 2 -2 0 589 277.371)"
      gradientUnits="userSpaceOnUse">
      <stop offset=".0156" stop-color="#00DC82" />
      <stop offset="1" stop-color="#00DC82" stop-opacity="0" />
    </radialGradient>
    <radialGradient id="az" cx="0" cy="0" r="1" gradientTransform="matrix(0 2 -2 0 518 269.371)"
      gradientUnits="userSpaceOnUse">
      <stop offset=".0156" stop-color="#00DC82" />
      <stop offset="1" stop-color="#00DC82" stop-opacity="0" />
    </radialGradient>
    <radialGradient id="aA" cx="0" cy="0" r="1" gradientTransform="matrix(0 2 -2 0 355 230.371)"
      gradientUnits="userSpaceOnUse">
      <stop offset=".0156" stop-color="#00DC82" />
      <stop offset="1" stop-color="#00DC82" stop-opacity="0" />
    </radialGradient>
    <radialGradient id="aB" cx="0" cy="0" r="1" gradientTransform="matrix(0 2 -2 0 307 205.371)"
      gradientUnits="userSpaceOnUse">
      <stop offset=".0156" stop-color="#00DC82" />
      <stop offset="1" stop-color="#00DC82" stop-opacity="0" />
    </radialGradient>
    <radialGradient id="aC" cx="0" cy="0" r="1" gradientTransform="matrix(0 2 -2 0 231 313.371)"
      gradientUnits="userSpaceOnUse">
      <stop offset=".0156" stop-color="#00DC82" />
      <stop offset="1" stop-color="#00DC82" stop-opacity="0" />
    </radialGradient>
    <radialGradient id="aD" cx="0" cy="0" r="1" gradientTransform="matrix(0 2 -2 0 304 305.371)"
      gradientUnits="userSpaceOnUse">
      <stop offset=".0156" stop-color="#00DC82" />
      <stop offset="1" stop-color="#00DC82" stop-opacity="0" />
    </radialGradient>
    <radialGradient id="aE" cx="0" cy="0" r="1" gradientTransform="matrix(0 2 -2 0 187 661.371)"
      gradientUnits="userSpaceOnUse">
      <stop offset=".0156" stop-color="#00DC82" />
      <stop offset="1" stop-color="#00DC82" stop-opacity="0" />
    </radialGradient>
    <radialGradient id="aF" cx="0" cy="0" r="1" gradientTransform="matrix(0 2 -2 0 227 689.371)"
      gradientUnits="userSpaceOnUse">
      <stop offset=".0156" stop-color="#00DC82" />
      <stop offset="1" stop-color="#00DC82" stop-opacity="0" />
    </radialGradient>
    <radialGradient id="aG" cx="0" cy="0" r="1" gradientTransform="matrix(0 2 -2 0 562 571.371)"
      gradientUnits="userSpaceOnUse">
      <stop offset=".0156" stop-color="#00DC82" />
      <stop offset="1" stop-color="#00DC82" stop-opacity="0" />
    </radialGradient>
    <radialGradient id="aH" cx="0" cy="0" r="1" gradientTransform="matrix(0 2 -2 0 483 605.371)"
      gradientUnits="userSpaceOnUse">
      <stop offset=".0156" stop-color="#00DC82" />
      <stop offset="1" stop-color="#00DC82" stop-opacity="0" />
    </radialGradient>
    <radialGradient id="aI" cx="0" cy="0" r="1" gradientTransform="matrix(0 2 -2 0 521 692.371)"
      gradientUnits="userSpaceOnUse">
      <stop offset=".0156" stop-color="#00DC82" />
      <stop offset="1" stop-color="#00DC82" stop-opacity="0" />
    </radialGradient>
    <radialGradient id="aJ" cx="0" cy="0" r="1" gradientTransform="matrix(0 2 -2 0 717 141.371)"
      gradientUnits="userSpaceOnUse">
      <stop offset=".0156" stop-color="#00DC82" />
      <stop offset="1" stop-color="#00DC82" stop-opacity="0" />
    </radialGradient>
    <radialGradient id="aK" cx="0" cy="0" r="1" gradientTransform="matrix(0 2 -2 0 657 210.371)"
      gradientUnits="userSpaceOnUse">
      <stop offset=".0156" stop-color="#00DC82" />
      <stop offset="1" stop-color="#00DC82" stop-opacity="0" />
    </radialGradient>
    <radialGradient id="aL" cx="0" cy="0" r="1" gradientTransform="matrix(0 2 -2 0 727 205.371)"
      gradientUnits="userSpaceOnUse">
      <stop offset=".0156" stop-color="#00DC82" />
      <stop offset="1" stop-color="#00DC82" stop-opacity="0" />
    </radialGradient>
    <radialGradient id="aM" cx="0" cy="0" r="1" gradientTransform="matrix(0 2 -2 0 1038 224.371)"
      gradientUnits="userSpaceOnUse">
      <stop stop-color="#75EDAE" />
      <stop offset="1" stop-color="#75EDAE" stop-opacity="0" />
    </radialGradient>
    <radialGradient id="aN" cx="0" cy="0" r="1" gradientTransform="matrix(0 2 -2 0 863 245.371)"
      gradientUnits="userSpaceOnUse">
      <stop stop-color="#75EDAE" />
      <stop offset="1" stop-color="#75EDAE" stop-opacity="0" />
    </radialGradient>
    <radialGradient id="aO" cx="0" cy="0" r="1" gradientTransform="matrix(0 2 -2 0 616 291.371)"
      gradientUnits="userSpaceOnUse">
      <stop stop-color="#75EDAE" />
      <stop offset="1" stop-color="#75EDAE" stop-opacity="0" />
    </radialGradient>
    <radialGradient id="aP" cx="0" cy="0" r="1" gradientTransform="matrix(0 2 -2 0 447 669.371)"
      gradientUnits="userSpaceOnUse">
      <stop stop-color="#75EDAE" />
      <stop offset="1" stop-color="#75EDAE" stop-opacity="0" />
    </radialGradient>
    <radialGradient id="aQ" cx="0" cy="0" r="1" gradientTransform="matrix(0 2 -2 0 639 457.371)"
      gradientUnits="userSpaceOnUse">
      <stop stop-color="#75EDAE" />
      <stop offset="1" stop-color="#75EDAE" stop-opacity="0" />
    </radialGradient>
    <radialGradient id="aR" cx="0" cy="0" r="1" gradientTransform="matrix(0 2 -2 0 606 505.371)"
      gradientUnits="userSpaceOnUse">
      <stop stop-color="#75EDAE" />
      <stop offset="1" stop-color="#75EDAE" stop-opacity="0" />
    </radialGradient>
    <radialGradient id="aS" cx="0" cy="0" r="1" gradientTransform="matrix(0 2 -2 0 563 482.371)"
      gradientUnits="userSpaceOnUse">
      <stop stop-color="#75EDAE" />
      <stop offset="1" stop-color="#75EDAE" stop-opacity="0" />
    </radialGradient>
    <radialGradient id="aT" cx="0" cy="0" r="1" gradientTransform="matrix(0 2 -2 0 576 311.371)"
      gradientUnits="userSpaceOnUse">
      <stop stop-color="#75EDAE" />
      <stop offset="1" stop-color="#75EDAE" stop-opacity="0" />
    </radialGradient>
    <radialGradient id="aU" cx="0" cy="0" r="1" gradientTransform="matrix(0 2 -2 0 615 359.371)"
      gradientUnits="userSpaceOnUse">
      <stop stop-color="#75EDAE" />
      <stop offset="1" stop-color="#75EDAE" stop-opacity="0" />
    </radialGradient>
    <radialGradient id="aV" cx="0" cy="0" r="1" gradientTransform="matrix(0 2 -2 0 739 311.371)"
      gradientUnits="userSpaceOnUse">
      <stop stop-color="#75EDAE" />
      <stop offset="1" stop-color="#75EDAE" stop-opacity="0" />
    </radialGradient>
    <radialGradient id="aW" cx="0" cy="0" r="1" gradientTransform="matrix(0 2 -2 0 893 371.371)"
      gradientUnits="userSpaceOnUse">
      <stop stop-color="#75EDAE" />
      <stop offset="1" stop-color="#75EDAE" stop-opacity="0" />
    </radialGradient>
    <radialGradient id="aX" cx="0" cy="0" r="1" gradientTransform="matrix(0 2 -2 0 821 389.371)"
      gradientUnits="userSpaceOnUse">
      <stop stop-color="#75EDAE" />
      <stop offset="1" stop-color="#75EDAE" stop-opacity="0" />
    </radialGradient>
    <radialGradient id="aY" cx="0" cy="0" r="1" gradientTransform="matrix(0 2 -2 0 712 431.371)"
      gradientUnits="userSpaceOnUse">
      <stop stop-color="#75EDAE" />
      <stop offset="1" stop-color="#75EDAE" stop-opacity="0" />
    </radialGradient>
    <radialGradient id="aZ" cx="0" cy="0" r="1" gradientTransform="matrix(0 2 -2 0 747 406.371)"
      gradientUnits="userSpaceOnUse">
      <stop stop-color="#75EDAE" />
      <stop offset="1" stop-color="#75EDAE" stop-opacity="0" />
    </radialGradient>
    <linearGradient id="bc" x1="720" x2="720" y1="0" y2="623" gradientUnits="userSpaceOnUse">
      <stop stop-color="#00DC82" />
      <stop offset=".9021" stop-color="#00DC82" stop-opacity="0" />
    </linearGradient>
    <linearGradient id="bd" x1="258.001" x2="1170.66" y1="71.4414" y2="69.4996" gradientUnits="userSpaceOnUse">
      <stop stop-color="#00DC82" stop-opacity="0" />
      <stop offset=".485" stop-color="#00DC82" />
      <stop offset="1" stop-color="#00DC82" stop-opacity="0" />
    </linearGradient>
    <linearGradient id="be" x1="720" x2="720" y1="159.904" y2="206.432" gradientUnits="userSpaceOnUse">
      <stop stop-color="#00DC82" />
      <stop offset=".5781" stop-color="#00DC82" stop-opacity="0" />
    </linearGradient>
    <linearGradient id="bf" x1="715.031" x2="715.141" y1="206.506" y2="181.88" gradientUnits="userSpaceOnUse">
      <stop stop-color="#75EDAE" />
      <stop offset="1" stop-color="#75EDAE" stop-opacity="0" />
    </linearGradient>
    <linearGradient id="bg" x1="720" x2="720" y1="159.904" y2="206.432" gradientUnits="userSpaceOnUse">
      <stop stop-color="#75EDAE" />
      <stop offset="1" stop-color="#00DC82" />
    </linearGradient>
    <linearGradient id="bh" x1="740.872" x2="740.872" y1="177.131" y2="198.775" gradientUnits="userSpaceOnUse">
      <stop stop-color="#75EDAE" />
      <stop offset="1" stop-color="#00DC82" />
    </linearGradient>
    <linearGradient id="bi" x1="704.43" x2="704.43" y1="161.895" y2="206.626" gradientUnits="userSpaceOnUse">
      <stop stop-color="#75EDAE" />
      <stop offset="1" stop-color="#00DC82" />
    </linearGradient>
    <linearGradient id="bj" x1="737.725" x2="737.725" y1="167.526" y2="205.845" gradientUnits="userSpaceOnUse">
      <stop stop-color="#75EDAE" />
      <stop offset="1" stop-color="#00DC82" />
    </linearGradient>
    <filter id="b" width="2050" height="830" x="-284" y="-200.629" color-interpolation-filters="sRGB"
      filterUnits="userSpaceOnUse">
      <feFlood flood-opacity="0" result="BackgroundImageFix" />
      <feBlend in="SourceGraphic" in2="BackgroundImageFix" result="shape" />
      <feGaussianBlur result="effect1_foregroundBlur_316_159699" stdDeviation="188" />
    </filter>
    <filter id="ba" width="1447" height="440" x="17" y="-117.629" color-interpolation-filters="sRGB"
      filterUnits="userSpaceOnUse">
      <feFlood flood-opacity="0" result="BackgroundImageFix" />
      <feBlend in="SourceGraphic" in2="BackgroundImageFix" result="shape" />
      <feGaussianBlur result="effect1_foregroundBlur_316_159699" stdDeviation="78" />
    </filter>
    <filter id="bk" width="19.6564" height="13.4825" x="703.877" y="195.354" color-interpolation-filters="sRGB"
      filterUnits="userSpaceOnUse">
      <feFlood flood-opacity="0" result="BackgroundImageFix" />
      <feBlend in="SourceGraphic" in2="BackgroundImageFix" result="shape" />
      <feGaussianBlur result="effect1_foregroundBlur_316_159699" stdDeviation=".8834" />
    </filter>
    <filter id="bl" width="19.6564" height="13.4825" x="703.877" y="195.354" color-interpolation-filters="sRGB"
      filterUnits="userSpaceOnUse">
      <feFlood flood-opacity="0" result="BackgroundImageFix" />
      <feBlend in="SourceGraphic" in2="BackgroundImageFix" result="shape" />
      <feGaussianBlur result="effect1_foregroundBlur_316_159699" stdDeviation=".8834" />
    </filter>
    <filter id="bm" width="16.454" height="10.379" x="724.196" y="165.429" color-interpolation-filters="sRGB"
      filterUnits="userSpaceOnUse">
      <feFlood flood-opacity="0" result="BackgroundImageFix" />
      <feBlend in="SourceGraphic" in2="BackgroundImageFix" result="shape" />
      <feGaussianBlur result="effect1_foregroundBlur_316_159699" stdDeviation=".8834" />
    </filter>
    <filter id="bn" width="17.0064" height="10.0352" x="724.196" y="164.887" color-interpolation-filters="sRGB"
      filterUnits="userSpaceOnUse">
      <feFlood flood-opacity="0" result="BackgroundImageFix" />
      <feBlend in="SourceGraphic" in2="BackgroundImageFix" result="shape" />
      <feGaussianBlur result="effect1_foregroundBlur_316_159699" stdDeviation=".8834" />
    </filter>
    <clipPath id="a">
      <path fill="#fff" d="M0 0h1439v708H0z" />
    </clipPath>
    <clipPath id="bb">
      <path fill="#fff" d="M64 0h1312v623H64z" />
    </clipPath>
  </defs>
</svg>
