<svg width="32" height="33" viewBox="0 0 32 33" fill="none" xmlns="http://www.w3.org/2000/svg">
<rect x="0.5" y="0.552734" width="31" height="31" rx="5.5" fill="url(#paint0_linear_726_4210)" fill-opacity="0.2"/>
<rect x="0.5" y="0.552734" width="31" height="31" rx="5.5" stroke="url(#paint1_linear_726_4210)"/>
<path d="M22.25 11.9824H19.75V10.1074C19.75 9.11286 19.3549 8.15903 18.6517 7.45577C17.9484 6.75251 16.9946 6.35742 16 6.35742C15.0054 6.35742 14.0516 6.75251 13.3483 7.45577C12.6451 8.15903 12.25 9.11286 12.25 10.1074V11.9824H9.75C9.41848 11.9824 9.10054 12.1141 8.86612 12.3485C8.6317 12.583 8.5 12.9009 8.5 13.2324V21.9824C8.5 22.3139 8.6317 22.6319 8.86612 22.8663C9.10054 23.1007 9.41848 23.2324 9.75 23.2324H22.25C22.5815 23.2324 22.8995 23.1007 23.1339 22.8663C23.3683 22.6319 23.5 22.3139 23.5 21.9824V13.2324C23.5 12.9009 23.3683 12.583 23.1339 12.3485C22.8995 12.1141 22.5815 11.9824 22.25 11.9824ZM13.5 10.1074C13.5 9.44438 13.7634 8.8085 14.2322 8.33965C14.7011 7.87081 15.337 7.60742 16 7.60742C16.663 7.60742 17.2989 7.87081 17.7678 8.33965C18.2366 8.8085 18.5 9.44438 18.5 10.1074V11.9824H13.5V10.1074ZM22.25 21.9824H9.75V13.2324H22.25V21.9824ZM16.9375 17.6074C16.9375 17.7928 16.8825 17.9741 16.7795 18.1283C16.6765 18.2824 16.5301 18.4026 16.3588 18.4736C16.1875 18.5445 15.999 18.5631 15.8171 18.5269C15.6352 18.4907 15.4682 18.4014 15.3371 18.2703C15.206 18.1392 15.1167 17.9722 15.0805 17.7903C15.0443 17.6085 15.0629 17.42 15.1339 17.2487C15.2048 17.0774 15.325 16.9309 15.4792 16.8279C15.6333 16.7249 15.8146 16.6699 16 16.6699C16.2486 16.6699 16.4871 16.7687 16.6629 16.9445C16.8387 17.1203 16.9375 17.3588 16.9375 17.6074Z" fill="#00DC82"/>
<defs>
<linearGradient id="paint0_linear_726_4210" x1="16" y1="0.0527344" x2="16" y2="32.0527" gradientUnits="userSpaceOnUse">
<stop stop-color="#00DC82"/>
<stop offset="1" stop-color="#00DC82" stop-opacity="0.1"/>
</linearGradient>
<linearGradient id="paint1_linear_726_4210" x1="16" y1="0.0527344" x2="16" y2="32.0527" gradientUnits="userSpaceOnUse">
<stop stop-color="#00DC82"/>
<stop offset="1" stop-color="#00DC82" stop-opacity="0.1"/>
</linearGradient>
</defs>
</svg>
