<svg xmlns="http://www.w3.org/2000/svg" width="32" height="32" fill="none"><rect width="31" height="31" x=".5" y=".5" fill="url(#a)" fill-opacity=".06" rx="5.5"/><rect width="31" height="31" x=".5" y=".5" stroke="url(#b)" rx="5.5"/><path fill="#00C16A" d="M16.625 15.0547v7.5a.6249.6249 0 1 1-1.25 0v-7.5a.6249.6249 0 1 1 1.25 0Zm5 5.625a.6248.6248 0 0 0-.625.625v1.25a.6249.6249 0 1 0 1.25 0v-1.25a.6249.6249 0 0 0-.625-.625Zm1.875-2.5h-1.25v-9.375a.6247.6247 0 0 0-.625-.625.6248.6248 0 0 0-.625.625v9.375h-1.25a.6248.6248 0 0 0-.4419 1.0669.6249.6249 0 0 0 .4419.1831h3.75a.6249.6249 0 0 0 0-1.25Zm-13.125 0a.625.625 0 0 0-.625.625v3.75a.625.625 0 0 0 1.25 0v-3.75a.6249.6249 0 0 0-.625-.625Zm1.875-2.5H11v-6.875a.6247.6247 0 0 0-.625-.625.625.625 0 0 0-.625.625v6.875H8.5a.625.625 0 1 0 0 1.25h3.75a.6249.6249 0 0 0 0-1.25Zm5.625-3.75h-1.25v-3.125a.6247.6247 0 0 0-.625-.625.6248.6248 0 0 0-.625.625v3.125h-1.25a.6248.6248 0 0 0-.4419 1.0669.6249.6249 0 0 0 .4419.1831h3.75a.6249.6249 0 0 0 0-1.25Z"/><defs><linearGradient id="a" x1="16" x2="16" y1="0" y2="32" gradientUnits="userSpaceOnUse"><stop stop-color="#00DC82"/><stop offset="1" stop-color="#00DC82" stop-opacity=".1"/></linearGradient><linearGradient id="b" x1="16" x2="16" y1="0" y2="32" gradientUnits="userSpaceOnUse"><stop stop-color="#00C16A"/><stop offset="1" stop-color="#00C16A" stop-opacity=".1"/></linearGradient></defs></svg>
