<svg xmlns="http://www.w3.org/2000/svg" width="32" height="32" fill="none"><rect width="31" height="31" x=".5" y=".5" fill="url(#a)" fill-opacity=".06" rx="5.5"/><rect width="31" height="31" x=".5" y=".5" stroke="url(#b)" rx="5.5"/><path fill="#00C16A" d="M16 7.5547a8.1248 8.1248 0 0 0-7.9689 9.7101 8.1247 8.1247 0 0 0 6.3838 6.3838 8.1247 8.1247 0 0 0 8.3408-3.4549 8.125 8.125 0 0 0 1.3693-4.514A8.1335 8.1335 0 0 0 16 7.5547Zm-2.0602 11.25h4.1204c-.4196 1.4328-1.1227 2.7242-2.0602 3.7414-.9375-1.0172-1.6406-2.3086-2.0602-3.7414Zm-.2835-1.25a11.3838 11.3838 0 0 1 0-3.75h4.6875a11.3892 11.3892 0 0 1 0 3.75h-4.6875Zm-4.5313-1.875a6.8448 6.8448 0 0 1 .2602-1.875h3.0046a12.6437 12.6437 0 0 0 0 3.75H9.3852a6.8448 6.8448 0 0 1-.2602-1.875Zm8.9352-3.125h-4.1204c.4196-1.4328 1.1227-2.7242 2.0602-3.7414.9375 1.0172 1.6406 2.3086 2.0602 3.7414Zm1.55 1.25h3.0046a6.8864 6.8864 0 0 1 0 3.75h-3.0046a12.6437 12.6437 0 0 0 0-3.75Zm2.5125-1.25h-2.768a11.1254 11.1254 0 0 0-1.5828-3.5156 6.9044 6.9044 0 0 1 4.3508 3.5156Zm-7.8946-3.5156a11.1254 11.1254 0 0 0-1.5828 3.5156h-2.768a6.904 6.904 0 0 1 4.3508-3.5156Zm-4.3507 9.7656h2.7679a11.1248 11.1248 0 0 0 1.5828 3.5156 6.904 6.904 0 0 1-4.3507-3.5156Zm7.8945 3.5156a11.1248 11.1248 0 0 0 1.5828-3.5156h2.768a6.9047 6.9047 0 0 1-4.3508 3.5156Z"/><defs><linearGradient id="a" x1="16" x2="16" y1="0" y2="32" gradientUnits="userSpaceOnUse"><stop stop-color="#00DC82"/><stop offset="1" stop-color="#00DC82" stop-opacity=".1"/></linearGradient><linearGradient id="b" x1="16" x2="16" y1="0" y2="32" gradientUnits="userSpaceOnUse"><stop stop-color="#00C16A"/><stop offset="1" stop-color="#00C16A" stop-opacity=".1"/></linearGradient></defs></svg>
