<svg width="32" height="32" viewBox="0 0 32 32" fill="none" xmlns="http://www.w3.org/2000/svg">
<rect x="0.5" y="0.5" width="31" height="31" rx="5.5" fill="url(#paint0_linear_299_41553)" fill-opacity="0.2"/>
<rect x="0.5" y="0.5" width="31" height="31" rx="5.5" stroke="url(#paint1_linear_299_41553)"/>
<path d="M14.107 20.2069C14.0766 20.3279 13.3148 23.1803 9.12499 23.1803C8.95923 23.1803 8.80026 23.1144 8.68305 22.9972C8.56584 22.88 8.49999 22.7211 8.49999 22.5553C8.49999 18.3654 11.3523 17.6037 11.4734 17.5733C11.6343 17.5331 11.8046 17.5584 11.9468 17.6438C12.089 17.7291 12.1914 17.8674 12.2316 18.0283C12.2718 18.1892 12.2465 18.3595 12.1611 18.5017C12.0758 18.6439 11.9374 18.7463 11.7766 18.7865C11.7062 18.8061 10.025 19.2975 9.77968 21.9006C12.3828 21.6553 12.875 19.9772 12.8953 19.899C12.9367 19.7384 13.0403 19.6007 13.1832 19.5164C13.3262 19.4321 13.4967 19.408 13.6574 19.4494C13.8181 19.4909 13.9557 19.5944 14.0401 19.7374C14.1244 19.8803 14.1485 20.0509 14.107 20.2115V20.2069ZM21.3726 14.9412L21 15.3139V19.8709C21.0009 20.0357 20.9691 20.199 20.9063 20.3514C20.8435 20.5037 20.7511 20.6421 20.6344 20.7584L17.9531 23.4381C17.8375 23.5546 17.7 23.647 17.5484 23.71C17.3969 23.773 17.2344 23.8054 17.0703 23.8053C16.9349 23.8053 16.8003 23.7834 16.6719 23.7404C16.4513 23.6675 16.2556 23.5343 16.1067 23.3559C15.9579 23.1776 15.8619 22.9611 15.8297 22.7311L15.4101 19.724L11.9562 16.2701L8.95077 15.8506C8.72042 15.8183 8.50364 15.7224 8.32484 15.5736C8.14604 15.4248 8.0123 15.229 7.93867 15.0084C7.86504 14.7877 7.85443 14.5509 7.90805 14.3246C7.96167 14.0982 8.07739 13.8913 8.24218 13.7272L10.9219 11.0459C11.0382 10.9292 11.1765 10.8367 11.3289 10.774C11.4813 10.7112 11.6446 10.6794 11.8094 10.6803H16.3664L16.7391 10.3076C18.8234 8.22404 21.3351 8.1342 22.318 8.19279C22.6227 8.21131 22.9101 8.34072 23.126 8.55661C23.3419 8.77249 23.4713 9.05992 23.4898 9.36467C23.5469 10.3451 23.457 12.8569 21.3734 14.9412H21.3726ZM9.12499 14.6131L12.0273 15.0178L15.1164 11.9303H11.8094L9.12499 14.6131ZM13.1344 15.6803L16 18.5459L20.4883 14.0576C21.0931 13.4569 21.5624 12.7336 21.8645 11.9364C22.1666 11.1392 22.2946 10.2865 22.2398 9.43576C21.3895 9.38303 20.5377 9.51235 19.7414 9.81507C18.945 10.1178 18.2224 10.587 17.6219 11.1912L13.1344 15.6803ZM19.75 16.5639L16.6617 19.6522L17.068 22.5553L19.75 19.8709V16.5639Z" fill="#00DC82"/>
<defs>
<linearGradient id="paint0_linear_299_41553" x1="16" y1="0" x2="16" y2="32" gradientUnits="userSpaceOnUse">
<stop stop-color="#00DC82"/>
<stop offset="1" stop-color="#00DC82" stop-opacity="0.1"/>
</linearGradient>
<linearGradient id="paint1_linear_299_41553" x1="16" y1="0" x2="16" y2="32" gradientUnits="userSpaceOnUse">
<stop stop-color="#00DC82"/>
<stop offset="1" stop-color="#00DC82" stop-opacity="0.1"/>
</linearGradient>
</defs>
</svg>
