<svg width="32" height="32" viewBox="0 0 32 32" fill="none" xmlns="http://www.w3.org/2000/svg">
<rect x="0.5" y="0.5" width="31" height="31" rx="5.5" fill="url(#paint0_linear_299_41535)" fill-opacity="0.2"/>
<rect x="0.5" y="0.5" width="31" height="31" rx="5.5" stroke="url(#paint1_linear_299_41535)"/>
<path d="M14.125 8.80469C14.125 8.63893 14.1908 8.47996 14.3081 8.36275C14.4253 8.24554 14.5842 8.17969 14.75 8.17969H17.25C17.4158 8.17969 17.5747 8.24554 17.6919 8.36275C17.8092 8.47996 17.875 8.63893 17.875 8.80469C17.875 8.97045 17.8092 9.12942 17.6919 9.24663C17.5747 9.36384 17.4158 9.42969 17.25 9.42969H14.75C14.5842 9.42969 14.4253 9.36384 14.3081 9.24663C14.1908 9.12942 14.125 8.97045 14.125 8.80469ZM17.25 21.9297H14.75C14.5842 21.9297 14.4253 21.9955 14.3081 22.1127C14.1908 22.23 14.125 22.3889 14.125 22.5547C14.125 22.7204 14.1908 22.8794 14.3081 22.9966C14.4253 23.1138 14.5842 23.1797 14.75 23.1797H17.25C17.4158 23.1797 17.5747 23.1138 17.6919 22.9966C17.8092 22.8794 17.875 22.7204 17.875 22.5547C17.875 22.3889 17.8092 22.23 17.6919 22.1127C17.5747 21.9955 17.4158 21.9297 17.25 21.9297ZM22.25 8.17969H20.375C20.2092 8.17969 20.0503 8.24554 19.9331 8.36275C19.8158 8.47996 19.75 8.63893 19.75 8.80469C19.75 8.97045 19.8158 9.12942 19.9331 9.24663C20.0503 9.36384 20.2092 9.42969 20.375 9.42969H22.25V11.3047C22.25 11.4704 22.3158 11.6294 22.4331 11.7466C22.5503 11.8638 22.7092 11.9297 22.875 11.9297C23.0408 11.9297 23.1997 11.8638 23.3169 11.7466C23.4342 11.6294 23.5 11.4704 23.5 11.3047V9.42969C23.5 9.09817 23.3683 8.78022 23.1339 8.5458C22.8995 8.31138 22.5815 8.17969 22.25 8.17969ZM22.875 13.8047C22.7092 13.8047 22.5503 13.8705 22.4331 13.9877C22.3158 14.105 22.25 14.2639 22.25 14.4297V16.9297C22.25 17.0954 22.3158 17.2544 22.4331 17.3716C22.5503 17.4888 22.7092 17.5547 22.875 17.5547C23.0408 17.5547 23.1997 17.4888 23.3169 17.3716C23.4342 17.2544 23.5 17.0954 23.5 16.9297V14.4297C23.5 14.2639 23.4342 14.105 23.3169 13.9877C23.1997 13.8705 23.0408 13.8047 22.875 13.8047ZM22.875 19.4297C22.7092 19.4297 22.5503 19.4955 22.4331 19.6127C22.3158 19.73 22.25 19.8889 22.25 20.0547V21.9297H20.375C20.2092 21.9297 20.0503 21.9955 19.9331 22.1127C19.8158 22.23 19.75 22.3889 19.75 22.5547C19.75 22.7204 19.8158 22.8794 19.9331 22.9966C20.0503 23.1138 20.2092 23.1797 20.375 23.1797H22.25C22.5815 23.1797 22.8995 23.048 23.1339 22.8136C23.3683 22.5792 23.5 22.2612 23.5 21.9297V20.0547C23.5 19.8889 23.4342 19.73 23.3169 19.6127C23.1997 19.4955 23.0408 19.4297 22.875 19.4297ZM9.125 17.5547C9.29076 17.5547 9.44973 17.4888 9.56694 17.3716C9.68415 17.2544 9.75 17.0954 9.75 16.9297V14.4297C9.75 14.2639 9.68415 14.105 9.56694 13.9877C9.44973 13.8705 9.29076 13.8047 9.125 13.8047C8.95924 13.8047 8.80027 13.8705 8.68306 13.9877C8.56585 14.105 8.5 14.2639 8.5 14.4297V16.9297C8.5 17.0954 8.56585 17.2544 8.68306 17.3716C8.80027 17.4888 8.95924 17.5547 9.125 17.5547ZM11.625 21.9297H9.75V20.0547C9.75 19.8889 9.68415 19.73 9.56694 19.6127C9.44973 19.4955 9.29076 19.4297 9.125 19.4297C8.95924 19.4297 8.80027 19.4955 8.68306 19.6127C8.56585 19.73 8.5 19.8889 8.5 20.0547V21.9297C8.5 22.2612 8.6317 22.5792 8.86612 22.8136C9.10054 23.048 9.41848 23.1797 9.75 23.1797H11.625C11.7908 23.1797 11.9497 23.1138 12.0669 22.9966C12.1842 22.8794 12.25 22.7204 12.25 22.5547C12.25 22.3889 12.1842 22.23 12.0669 22.1127C11.9497 21.9955 11.7908 21.9297 11.625 21.9297ZM9.125 11.9297C9.29076 11.9297 9.44973 11.8638 9.56694 11.7466C9.68415 11.6294 9.75 11.4704 9.75 11.3047V9.42969H11.625C11.7908 9.42969 11.9497 9.36384 12.0669 9.24663C12.1842 9.12942 12.25 8.97045 12.25 8.80469C12.25 8.63893 12.1842 8.47996 12.0669 8.36275C11.9497 8.24554 11.7908 8.17969 11.625 8.17969H9.75C9.41848 8.17969 9.10054 8.31138 8.86612 8.5458C8.6317 8.78022 8.5 9.09817 8.5 9.42969V11.3047C8.5 11.4704 8.56585 11.6294 8.68306 11.7466C8.80027 11.8638 8.95924 11.9297 9.125 11.9297ZM19.75 20.0547H12.25C12.0842 20.0547 11.9253 19.9888 11.8081 19.8716C11.6908 19.7544 11.625 19.5954 11.625 19.4297V11.9297C11.625 11.7639 11.6908 11.605 11.8081 11.4877C11.9253 11.3705 12.0842 11.3047 12.25 11.3047H19.75C19.9158 11.3047 20.0747 11.3705 20.1919 11.4877C20.3092 11.605 20.375 11.7639 20.375 11.9297V19.4297C20.375 19.5954 20.3092 19.7544 20.1919 19.8716C20.0747 19.9888 19.9158 20.0547 19.75 20.0547ZM19.125 12.5547H12.875V18.8047H19.125V12.5547Z" fill="#00DC82"/>
<defs>
<linearGradient id="paint0_linear_299_41535" x1="16" y1="0" x2="16" y2="32" gradientUnits="userSpaceOnUse">
<stop stop-color="#00DC82"/>
<stop offset="1" stop-color="#00DC82" stop-opacity="0.1"/>
</linearGradient>
<linearGradient id="paint1_linear_299_41535" x1="16" y1="0" x2="16" y2="32" gradientUnits="userSpaceOnUse">
<stop stop-color="#00DC82"/>
<stop offset="1" stop-color="#00DC82" stop-opacity="0.1"/>
</linearGradient>
</defs>
</svg>
