<svg xmlns="http://www.w3.org/2000/svg" width="32" height="32" fill="none"><rect width="31" height="31" x=".5" y=".5" fill="url(#a)" fill-opacity=".2" rx="5.5"/><rect width="31" height="31" x=".5" y=".5" stroke="url(#b)" rx="5.5"/><path fill="#00DC82" d="M20.375 12.6773v-.4351c0-1.9594-2.9555-3.4375-6.875-3.4375s-6.875 1.4781-6.875 3.4375v3.125c0 1.632 2.0508 2.9289 5 3.3172v.4328c0 1.9594 2.9555 3.4375 6.875 3.4375s6.875-1.4781 6.875-3.4375v-3.125c0-1.6172-1.9859-2.9156-5-3.3149Zm3.75 3.3149c0 1.0328-2.4055 2.1875-5.625 2.1875-.2914 0-.5805-.0102-.8656-.0289 1.6851-.6141 2.7406-1.6117 2.7406-2.7836v-1.4266c2.3336.3477 3.75 1.2914 3.75 2.0516Zm-12.5 1.4258v-1.8586a14.353 14.353 0 0 0 1.875.1203 14.353 14.353 0 0 0 1.875-.1203v1.8586a12.734 12.734 0 0 1-1.875.1367 12.734 12.734 0 0 1-1.875-.1367Zm7.5-3.15v1.0992c0 .6555-.9695 1.3594-2.5 1.7867v-1.8258c1.0086-.2445 1.8625-.6086 2.5-1.0601ZM13.5 10.0547c3.2195 0 5.625 1.1547 5.625 2.1875s-2.4055 2.1875-5.625 2.1875-5.625-1.1547-5.625-2.1875 2.4055-2.1875 5.625-2.1875Zm-5.625 5.3125V14.268c.6375.4515 1.4914.8156 2.5 1.0601v1.8258c-1.5305-.4273-2.5-1.1312-2.5-1.7867Zm5 3.75v-.3258c.2055.0078.4133.0133.625.0133.3031 0 .5992-.0102.8898-.0274.3229.1156.6518.2137.9852.2938v1.8328c-1.5305-.4273-2.5-1.1312-2.5-1.7867Zm3.75 2.0508v-1.8633a14.0308 14.0308 0 0 0 1.875.125 14.353 14.353 0 0 0 1.875-.1203v1.8586a12.925 12.925 0 0 1-3.75 0Zm5-.2641v-1.8258c1.0086-.2445 1.8625-.6086 2.5-1.0601v1.0992c0 .6555-.9695 1.3594-2.5 1.7867Z"/><defs><linearGradient id="a" x1="16" x2="16" y1="0" y2="32" gradientUnits="userSpaceOnUse"><stop stop-color="#00DC82"/><stop offset="1" stop-color="#00DC82" stop-opacity=".1"/></linearGradient><linearGradient id="b" x1="16" x2="16" y1="0" y2="32" gradientUnits="userSpaceOnUse"><stop stop-color="#00DC82"/><stop offset="1" stop-color="#00DC82" stop-opacity=".1"/></linearGradient></defs></svg>
