<svg width="32" height="32" viewBox="0 0 32 32" fill="none" xmlns="http://www.w3.org/2000/svg">
<rect x="0.5" y="0.5" width="31" height="31" rx="5.5" fill="url(#paint0_linear_358_153415)" fill-opacity="0.06"/>
<rect x="0.5" y="0.5" width="31" height="31" rx="5.5" stroke="url(#paint1_linear_358_153415)"/>
<path d="M14.1071 20.206C14.0767 20.3271 13.315 23.1794 9.12511 23.1794C8.95935 23.1794 8.80038 23.1136 8.68317 22.9964C8.56596 22.8792 8.50011 22.7202 8.50011 22.5544C8.50011 18.3646 11.3525 17.6029 11.4736 17.5724C11.6344 17.5322 11.8047 17.5576 11.9469 17.6429C12.0891 17.7283 12.1916 17.8666 12.2318 18.0275C12.272 18.1884 12.2466 18.3586 12.1612 18.5008C12.0759 18.643 11.9376 18.7455 11.7767 18.7857C11.7064 18.8052 10.0251 19.2966 9.7798 21.8998C12.3829 21.6544 12.8751 19.9763 12.8954 19.8982C12.9369 19.7375 13.0404 19.5999 13.1834 19.5155C13.3263 19.4312 13.4969 19.4071 13.6575 19.4486C13.8182 19.49 13.9559 19.5936 14.0402 19.7365C14.1245 19.8794 14.1486 20.05 14.1071 20.2107V20.206ZM21.3728 14.9404L21.0001 15.313V19.8701C21.001 20.0348 20.9692 20.1982 20.9064 20.3505C20.8437 20.5029 20.7512 20.6413 20.6345 20.7576L17.9532 23.4373C17.8376 23.5537 17.7001 23.6461 17.5486 23.7091C17.397 23.7721 17.2345 23.8045 17.0704 23.8044C16.935 23.8044 16.8004 23.7825 16.672 23.7396C16.4514 23.6666 16.2557 23.5335 16.1069 23.3551C15.958 23.1767 15.8621 22.9603 15.8298 22.7302L15.4103 19.7232L11.9564 16.2693L8.9509 15.8498C8.72054 15.8174 8.50377 15.7215 8.32496 15.5727C8.14616 15.4239 8.01242 15.2282 7.93879 15.0075C7.86516 14.7869 7.85456 14.5501 7.90817 14.3237C7.96179 14.0974 8.07751 13.8905 8.2423 13.7263L10.922 11.0451C11.0383 10.9283 11.1767 10.8359 11.329 10.7731C11.4814 10.7104 11.6447 10.6785 11.8095 10.6794H16.3665L16.7392 10.3068C18.8236 8.22319 21.3353 8.13335 22.3181 8.19194C22.6228 8.21046 22.9103 8.33987 23.1261 8.55575C23.342 8.77164 23.4714 9.05907 23.49 9.36381C23.547 10.3443 23.4571 12.856 21.3736 14.9404H21.3728ZM9.12511 14.6123L12.0275 15.0169L15.1165 11.9294H11.8095L9.12511 14.6123ZM13.1345 15.6794L16.0001 18.5451L20.4884 14.0568C21.0933 13.456 21.5625 12.7327 21.8646 11.9355C22.1667 11.1383 22.2947 10.2857 22.24 9.43491C21.3896 9.38218 20.5379 9.51149 19.7415 9.81422C18.9451 10.1169 18.2226 10.5861 17.622 11.1904L13.1345 15.6794ZM19.7501 16.563L16.6618 19.6513L17.0681 22.5544L19.7501 19.8701V16.563Z" fill="#00C16A"/>
<defs>
<linearGradient id="paint0_linear_358_153415" x1="16" y1="0" x2="16" y2="32" gradientUnits="userSpaceOnUse">
<stop stop-color="#00DC82"/>
<stop offset="1" stop-color="#00DC82" stop-opacity="0.1"/>
</linearGradient>
<linearGradient id="paint1_linear_358_153415" x1="16" y1="0" x2="16" y2="32" gradientUnits="userSpaceOnUse">
<stop stop-color="#00C16A"/>
<stop offset="1" stop-color="#00C16A" stop-opacity="0.1"/>
</linearGradient>
</defs>
</svg>
