<svg xmlns="http://www.w3.org/2000/svg" width="32" height="32" fill="none"><rect width="31" height="31" x=".5" y=".5" fill="url(#a)" fill-opacity=".06" rx="5.5"/><rect width="31" height="31" x=".5" y=".5" stroke="url(#b)" rx="5.5"/><path fill="#00C16A" d="M14.125 8.8047a.6247.6247 0 0 1 .625-.625h2.5a.6248.6248 0 0 1 .625.625.6247.6247 0 0 1-.625.625h-2.5a.6248.6248 0 0 1-.625-.625Zm3.125 13.125h-2.5a.6248.6248 0 0 0-.4419 1.0669.6249.6249 0 0 0 .4419.1831h2.5a.6249.6249 0 0 0 0-1.25Zm5-13.75h-1.875a.6248.6248 0 0 0-.625.625.6247.6247 0 0 0 .625.625h1.875v1.875a.6249.6249 0 1 0 1.25 0v-1.875a1.25 1.25 0 0 0-1.25-1.25Zm.625 5.625a.6248.6248 0 0 0-.625.625v2.5a.6249.6249 0 1 0 1.25 0v-2.5a.6249.6249 0 0 0-.625-.625Zm0 5.625a.6248.6248 0 0 0-.625.625v1.875h-1.875a.6248.6248 0 0 0-.4419 1.0669.6249.6249 0 0 0 .4419.1831h1.875a1.2501 1.2501 0 0 0 1.25-1.25v-1.875a.6249.6249 0 0 0-.625-.625Zm-13.75-1.875a.625.625 0 0 0 .625-.625v-2.5a.6252.6252 0 0 0-.625-.625.625.625 0 0 0-.625.625v2.5a.625.625 0 0 0 .625.625Zm2.5 4.375H9.75v-1.875a.6252.6252 0 0 0-.625-.625.625.625 0 0 0-.625.625v1.875a1.25 1.25 0 0 0 1.25 1.25h1.875a.6249.6249 0 0 0 0-1.25Zm-2.5-10a.625.625 0 0 0 .625-.625v-1.875h1.875a.6248.6248 0 0 0 .625-.625.6247.6247 0 0 0-.625-.625H9.75a1.25 1.25 0 0 0-1.25 1.25v1.875a.625.625 0 0 0 .625.625Zm10.625 8.125h-7.5a.6249.6249 0 0 1-.625-.625v-7.5a.6249.6249 0 0 1 .625-.625h7.5a.6248.6248 0 0 1 .625.625v7.5a.6249.6249 0 0 1-.625.625Zm-.625-7.5h-6.25v6.25h6.25v-6.25Z"/><defs><linearGradient id="a" x1="16" x2="16" y1="0" y2="32" gradientUnits="userSpaceOnUse"><stop stop-color="#00DC82"/><stop offset="1" stop-color="#00DC82" stop-opacity=".1"/></linearGradient><linearGradient id="b" x1="16" x2="16" y1="0" y2="32" gradientUnits="userSpaceOnUse"><stop stop-color="#00C16A"/><stop offset="1" stop-color="#00C16A" stop-opacity=".1"/></linearGradient></defs></svg>
