<svg xmlns="http://www.w3.org/2000/svg" width="32" height="32" fill="none"><rect width="31" height="31" x=".5" y=".5" fill="url(#a)" fill-opacity=".06" rx="5.5"/><rect width="31" height="31" x=".5" y=".5" stroke="url(#b)" rx="5.5"/><path fill="#00C16A" d="m11.4001 13.0352-3.1735 2.6445 3.1735 2.6445a.6267.6267 0 0 1 .2312.4252.6246.6246 0 0 1-.334.6176.6263.6263 0 0 1-.4825.0391.6264.6264 0 0 1-.2147-.1217l-3.75-3.125a.6259.6259 0 0 1-.2249-.4801.6246.6246 0 0 1 .2249-.4801l3.75-3.125a.6254.6254 0 0 1 .8804.0805.625.625 0 0 1-.0804.8805Zm13.75 2.164-3.75-3.125a.6263.6263 0 0 0-.4569-.1421.6259.6259 0 0 0-.4236.2226.625.625 0 0 0 .0805.8805l3.1734 2.6445-3.1734 2.6445a.6256.6256 0 0 0-.2313.4252.6238.6238 0 0 0 .1417.4628.6256.6256 0 0 0 .1923.1548.6263.6263 0 0 0 .4825.0391.6268.6268 0 0 0 .2148-.1217l3.75-3.125a.6261.6261 0 0 0 .1658-.7451.6267.6267 0 0 0-.1658-.2151Zm-6.4368-6.982a.6247.6247 0 0 0-.8007.3742l-5 13.75a.6236.6236 0 0 0 .0209.4784.6243.6243 0 0 0 .3533.3232.6374.6374 0 0 0 .2133.0367.625.625 0 0 0 .5875-.4117l5-13.75a.6261.6261 0 0 0-.0213-.478.6239.6239 0 0 0-.353-.3228Z"/><defs><linearGradient id="a" x1="16" x2="16" y1="0" y2="32" gradientUnits="userSpaceOnUse"><stop stop-color="#00DC82"/><stop offset="1" stop-color="#00DC82" stop-opacity=".1"/></linearGradient><linearGradient id="b" x1="16" x2="16" y1="0" y2="32" gradientUnits="userSpaceOnUse"><stop stop-color="#00C16A"/><stop offset="1" stop-color="#00C16A" stop-opacity=".1"/></linearGradient></defs></svg>
