<svg xmlns="http://www.w3.org/2000/svg" width="32" height="32" fill="none"><rect width="31" height="31" x=".5" y=".5" fill="url(#a)" fill-opacity=".2" rx="5.5"/><rect width="31" height="31" x=".5" y=".5" stroke="url(#b)" rx="5.5"/><path fill="#00DC82" d="M16 15.6797a.6253.6253 0 0 1-.2344.4883l-3.125 2.5a.6256.6256 0 0 1-.8789-.0977.6256.6256 0 0 1 .0977-.8789l2.5148-2.0117-2.5148-2.0117a.626.626 0 0 1-.21-.6623.6256.6256 0 0 1 .5315-.4475.6237.6237 0 0 1 .2431.0209.6239.6239 0 0 1 .2166.1123l3.125 2.5a.6255.6255 0 0 1 .2344.4883Zm3.75 1.875h-3.125a.6248.6248 0 0 0-.4419 1.0669.6249.6249 0 0 0 .4419.1831h3.125a.6249.6249 0 0 0 0-1.25Zm4.375-7.5v11.25a1.2501 1.2501 0 0 1-1.25 1.25H9.125a1.25 1.25 0 0 1-1.25-1.25v-11.25a1.25 1.25 0 0 1 1.25-1.25h13.75a1.25 1.25 0 0 1 1.25 1.25Zm-1.25 11.25v-11.25H9.125v11.25h13.75Z"/><defs><linearGradient id="a" x1="16" x2="16" y1="0" y2="32" gradientUnits="userSpaceOnUse"><stop stop-color="#00DC82"/><stop offset="1" stop-color="#00DC82" stop-opacity=".1"/></linearGradient><linearGradient id="b" x1="16" x2="16" y1="0" y2="32" gradientUnits="userSpaceOnUse"><stop stop-color="#00DC82"/><stop offset="1" stop-color="#00DC82" stop-opacity=".1"/></linearGradient></defs></svg>
