<svg xmlns="http://www.w3.org/2000/svg" width="33" height="32" fill="none"><rect width="31" height="31" x=".8333" y=".5" fill="url(#a)" fill-opacity=".2" rx="5.5"/><rect width="31" height="31" x=".8333" y=".5" stroke="url(#b)" rx="5.5"/><path fill="#00DC82" d="m11.7333 13.0352-3.1734 2.6445 3.1734 2.6445a.6256.6256 0 0 1 .2313.4252.6246.6246 0 0 1-.1417.4628.6248.6248 0 0 1-.8896.0722l-3.75-3.125a.6259.6259 0 0 1-.2248-.4801.6246.6246 0 0 1 .2248-.4801l3.75-3.125a.6255.6255 0 0 1 .8805.0805.625.625 0 0 1-.0805.8805Zm13.75 2.164-3.75-3.125a.6258.6258 0 0 0-.4569-.1421.6254.6254 0 0 0-.3431 1.1031l3.1734 2.6445-3.1734 2.6445a.6253.6253 0 0 0 .1028 1.0428.6258.6258 0 0 0 .6972-.0826l3.75-3.125a.6248.6248 0 0 0 0-.9602Zm-6.4367-6.982a.6255.6255 0 0 0-.6745.1656.6247.6247 0 0 0-.1263.2086l-5 13.75a.6255.6255 0 0 0 .1654.6752.6259.6259 0 0 0 .2088.1264.6378.6378 0 0 0 .2133.0367.6246.6246 0 0 0 .5875-.4117l5-13.75a.6242.6242 0 0 0-.0212-.478.6258.6258 0 0 0-.353-.3229Z"/><defs><linearGradient id="a" x1="16.3333" x2="16.3333" y1="0" y2="32" gradientUnits="userSpaceOnUse"><stop stop-color="#00DC82"/><stop offset="1" stop-color="#00DC82" stop-opacity=".1"/></linearGradient><linearGradient id="b" x1="16.3333" x2="16.3333" y1="0" y2="32" gradientUnits="userSpaceOnUse"><stop stop-color="#00DC82"/><stop offset="1" stop-color="#00DC82" stop-opacity=".1"/></linearGradient></defs></svg>
