<svg width="32" height="32" viewBox="0 0 32 32" fill="none" xmlns="http://www.w3.org/2000/svg">
<rect x="0.5" y="0.5" width="31" height="31" rx="5.5" fill="url(#paint0_linear_358_153402)" fill-opacity="0.2"/>
<rect x="0.5" y="0.5" width="31" height="31" rx="5.5" stroke="url(#paint1_linear_358_153402)"/>
<path d="M22.875 8.80469H9.125C8.79348 8.80469 8.47554 8.93638 8.24112 9.1708C8.0067 9.40522 7.875 9.72317 7.875 10.0547V21.3047C7.875 21.6362 8.0067 21.9542 8.24112 22.1886C8.47554 22.423 8.79348 22.5547 9.125 22.5547H22.875C23.2065 22.5547 23.5245 22.423 23.7589 22.1886C23.9933 21.9542 24.125 21.6362 24.125 21.3047V10.0547C24.125 9.72317 23.9933 9.40522 23.7589 9.1708C23.5245 8.93638 23.2065 8.80469 22.875 8.80469ZM22.875 21.3047H9.125V10.0547H22.875V21.3047ZM12.25 12.2422C12.25 12.4276 12.195 12.6089 12.092 12.763C11.989 12.9172 11.8426 13.0374 11.6713 13.1083C11.5 13.1793 11.3115 13.1978 11.1296 13.1617C10.9477 13.1255 10.7807 13.0362 10.6496 12.9051C10.5185 12.774 10.4292 12.6069 10.393 12.4251C10.3568 12.2432 10.3754 12.0547 10.4464 11.8834C10.5173 11.7121 10.6375 11.5657 10.7917 11.4627C10.9458 11.3597 11.1271 11.3047 11.3125 11.3047C11.5611 11.3047 11.7996 11.4035 11.9754 11.5793C12.1512 11.7551 12.25 11.9935 12.25 12.2422ZM15.375 12.2422C15.375 12.4276 15.32 12.6089 15.217 12.763C15.114 12.9172 14.9676 13.0374 14.7963 13.1083C14.625 13.1793 14.4365 13.1978 14.2546 13.1617C14.0727 13.1255 13.9057 13.0362 13.7746 12.9051C13.6435 12.774 13.5542 12.6069 13.518 12.4251C13.4818 12.2432 13.5004 12.0547 13.5714 11.8834C13.6423 11.7121 13.7625 11.5657 13.9167 11.4627C14.0708 11.3597 14.2521 11.3047 14.4375 11.3047C14.6861 11.3047 14.9246 11.4035 15.1004 11.5793C15.2762 11.7551 15.375 11.9935 15.375 12.2422Z" fill="#00DC82"/>
<defs>
<linearGradient id="paint0_linear_358_153402" x1="16" y1="0" x2="16" y2="32" gradientUnits="userSpaceOnUse">
<stop stop-color="#00DC82"/>
<stop offset="1" stop-color="#00DC82" stop-opacity="0.1"/>
</linearGradient>
<linearGradient id="paint1_linear_358_153402" x1="16" y1="0" x2="16" y2="32" gradientUnits="userSpaceOnUse">
<stop stop-color="#00DC82"/>
<stop offset="1" stop-color="#00DC82" stop-opacity="0.1"/>
</linearGradient>
</defs>
</svg>
