<svg width="248" height="163" viewBox="0 0 248 163" fill="none" xmlns="http://www.w3.org/2000/svg">
  <path id="myPath" d="M94.8415 36.7107L35.9527 134.695L75.2381 134.704C88.4964 134.704 97.0352 130.363 104.551 118.449L124.225 85.703L94.8415 36.7107ZM94.8415 36.7107L61.8895 42.5L44.7094 70.2709L30.9429 94L35.8294 135.021M94.8415 36.7107L79.8594 9.96094M94.8415 36.7107L114 20L123.519 36.2309L139.799 60.6509L125.739 86.5509L131.5 119.481H106.499L103.5 152.5M167.181 61.0195L198.645 62.5L210.471 82.4795L221.201 100.24L213.431 133.54M4.37939 151.671L35.8294 135.021M35.8294 135.021L52.4794 159.071M125.37 85.4401L134.25 70.2701L146.5 49L168.66 60.2801L171.25 28.8301M241.92 135.76H213.43L184.57 157.22L156.08 135.02M138.977 159.196H228.657C231.505 159.196 234.303 158.476 236.77 157.107C239.237 155.739 241.285 153.771 242.708 151.401C244.132 149.03 244.881 146.342 244.88 143.605C244.878 140.869 244.127 138.181 242.701 135.812L182.475 35.594C181.052 33.2244 179.004 31.2566 176.538 29.8885C174.072 28.5203 171.274 27.8 168.426 27.8C165.578 27.8 162.781 28.5203 160.314 29.8885C157.848 31.2566 155.801 33.2244 154.377 35.594L138.977 61.2363L108.869 11.0937C107.444 8.72424 105.395 6.75673 102.929 5.38882C100.462 4.02091 97.6636 3.30078 94.8153 3.30078C91.967 3.30078 89.1688 4.02091 86.702 5.38882C84.2351 6.75673 82.1864 8.72424 80.7617 11.0937L5.81791 135.812C4.39216 138.181 3.64089 140.869 3.63965 143.605C3.63841 146.342 4.38725 149.03 5.81085 151.401C7.23445 153.771 9.28261 155.739 11.7493 157.107C14.216 158.476 17.0143 159.196 19.8628 159.196L79.5 158.331C101.804 158.331 114.908 149.783 126.226 131.421L168.422 61.2363L212.593 134.729H153.704L138.977 159.196Z" fill="none" stroke="url(#paint0_linear_336_153302)" stroke-width="5.92" stroke-dasharray="1500" stroke-dashoffset="1500">
    <animate attributeName="stroke-dashoffset" dur="3s" values="1500;0" repeatCount="indefinite"/>
  </path>
  <defs>
    <linearGradient id="paint0_linear_336_153302" x1="183.645" y1="28.8301" x2="183.645" y2="157.22" gradientUnits="userSpaceOnUse">
      <stop stop-color="#75EDAE"/>
      <stop offset="1" stop-color="#00DC82"/>
    </linearGradient>
  </defs>
</svg>
