<svg xmlns="http://www.w3.org/2000/svg" fill="none" viewBox="0 0 581 293"><g clip-path="url(#a)"><rect width="579.916" height="292.064" x=".304199" fill="url(#b)" rx="7.02078"/><rect width="579.916" height="292.064" x=".304199" fill="url(#c)" fill-opacity=".52" rx="7.02078"/><rect width="579.916" height="292.064" x=".304199" fill="url(#d)" fill-opacity=".08" rx="7.02078"/><rect width="578.777" height="290.925" x=".873819" y=".56962" stroke="url(#e)" stroke-opacity=".4" stroke-width="1.13924" rx="6.45116"/><path fill="#94A3B8" d="M149.061 56.2578c-.14 0-.257-.0468-.351-.1404-.093-.0937-.14-.206-.14-.337 0-.1358.047-.2481.14-.337.094-.0936.211-.1405.351-.1405.136 0 .251.0469.344.1405.099.0889.148.2012.148.337 0 .131-.049.2433-.148.337-.093.0936-.208.1404-.344.1404Zm-1.362 4.1001v-.5055h1.11v-2.2958c0-.117-.059-.1755-.176-.1755h-.814v-.5055h.954c.417 0 .625.2083.625.6249v2.3519h1.11v.5055h-2.809Zm5.495.0843c-.295 0-.56-.0702-.794-.2107-.229-.1404-.409-.3463-.54-.6178-.131-.2761-.197-.6108-.197-1.004 0-.3884.066-.7184.197-.9899.131-.2715.311-.4774.54-.6178.234-.1404.499-.2106.794-.2106.276 0 .503.0538.681.1614.182.1077.318.2481.407.4213v-2.0712h.59v5.055h-.485l-.063-.5406h-.042c-.094.1919-.232.344-.414.4564-.183.1123-.407.1685-.674.1685Zm.077-.5617c.295 0 .538-.103.73-.3089.192-.2106.288-.5289.288-.9548 0-.426-.096-.7419-.288-.9478-.192-.2107-.435-.316-.73-.316s-.538.1053-.73.316c-.187.2059-.281.5218-.281.9478 0 .4259.094.7442.281.9548.192.2059.435.3089.73.3089ZM147.489 72.9954v-.5336h1.27v-3.6859l-1.2.2317v-.4494l1.397-.4774h.393v4.381h1.341v.5336h-3.201ZM147.517 87.0369v-.4634c.505-.4025.945-.7723 1.32-1.1093.379-.337.671-.6623.877-.9759.206-.3136.309-.6342.309-.9618 0-.2949-.084-.5266-.253-.6951-.163-.1732-.386-.2598-.667-.2598-.215 0-.397.0469-.547.1405-.15.0936-.262.2176-.337.3721-.075.1544-.113.3206-.113.4984h-.582c.004-.3229.075-.5991.21-.8284.141-.234.328-.4119.562-.5336.239-.1217.508-.1825.807-.1825.483 0 .857.1334 1.124.4002.267.2667.4.6248.4 1.0741 0 .2949-.063.5781-.19.8495-.126.2668-.294.5243-.505.7723-.211.2481-.447.4868-.709.7162-.262.2293-.527.4493-.794.6599h2.331v.5266h-3.243ZM149.167 101.163c-.323 0-.614-.059-.871-.176-.253-.121-.456-.297-.611-.526-.154-.23-.238-.5105-.253-.8428h.604c.01.2808.113.5198.309.7158.197.192.471.288.822.288.341 0 .606-.086.793-.26.187-.177.281-.4185.281-.7228 0-.2106-.054-.3838-.162-.5195-.107-.1404-.252-.2434-.435-.3089-.178-.0702-.377-.1053-.597-.1053h-.428v-.5336h.372c.318 0 .571-.0679.758-.2036.192-.1357.288-.3347.288-.5968 0-.22-.077-.4002-.231-.5406-.15-.1404-.366-.2106-.646-.2106-.272 0-.492.0772-.66.2317-.169.1498-.265.3463-.288.5897h-.59c.009-.2668.08-.5008.211-.7021.131-.2059.309-.3674.533-.4844.23-.117.494-.1755.794-.1755.323 0 .592.0562.807.1685.22.1123.386.2644.498.4563.113.1873.169.3955.169.6249 0 .2434-.075.4587-.225.6459-.149.1825-.327.3113-.533.3861v.0422c.276.0842.505.227.688.4282.182.2013.274.4704.274.8074 0 .2855-.068.5428-.204.7728-.131.229-.323.411-.576.547-.248.136-.545.204-.891.204ZM149.707 115.12v-1.137h-2.352v-.457l2.24-3.321h.702v3.244h.702v.534h-.702v1.137h-.59Zm-1.692-1.671h1.72v-2.556l-1.72 2.556ZM149.103 129.246c-.337 0-.627-.063-.87-.19-.244-.126-.435-.297-.576-.512-.14-.216-.225-.461-.253-.737h.604c.042.266.162.484.358.653.197.163.445.245.744.245.351 0 .628-.112.829-.337.201-.229.302-.517.302-.863 0-.365-.103-.651-.309-.857-.206-.21-.473-.316-.8-.316-.263 0-.487.061-.674.183-.183.117-.33.267-.443.449h-.561l.421-2.717h2.626v.541h-2.163l-.26 1.46h.035c.108-.117.253-.22.436-.309.187-.089.402-.133.646-.133.323 0 .603.07.842.21.244.136.433.333.569.59.136.253.203.55.203.892 0 .318-.067.611-.203.877-.131.262-.325.473-.583.632-.253.159-.559.239-.92.239ZM149.202 143.287c-.431 0-.782-.103-1.053-.309-.267-.21-.466-.491-.597-.842-.127-.356-.19-.756-.19-1.201 0-.538.075-1.011.225-1.418.15-.412.365-.732.646-.962.285-.234.627-.351 1.025-.351.313 0 .58.061.8.183.225.117.4.278.527.484.131.202.208.429.231.681h-.554c-.047-.248-.159-.444-.337-.589-.178-.15-.4-.225-.667-.225-.234 0-.449.075-.646.225-.192.145-.351.372-.477.681-.122.304-.192.692-.211 1.165h.035c.108-.201.274-.377.499-.527.224-.149.496-.224.814-.224.295 0 .559.068.793.203.234.136.419.323.555.562.14.239.211.51.211.814 0 .3-.068.576-.204.829-.131.248-.321.447-.569.597-.243.149-.529.224-.856.224Zm-.042-.533c.323 0 .582-.103.779-.309.196-.206.295-.463.295-.772 0-.314-.099-.571-.295-.773-.197-.206-.456-.309-.779-.309-.216 0-.405.047-.569.141-.159.093-.286.222-.379.386-.089.164-.134.349-.134.555 0 .206.045.39.134.554.093.164.22.293.379.386.164.094.353.141.569.141ZM363.122 60.4422c-.313 0-.594-.0726-.842-.2177-.244-.1451-.438-.3534-.583-.6248-.145-.2762-.218-.6038-.218-.9829 0-.3792.073-.7045.218-.9759.145-.2762.342-.4868.59-.6319.253-.1451.531-.2176.835-.2176.431 0 .775.1076 1.032.3229.258.2153.422.5032.492.8636h-.604c-.056-.1919-.164-.3441-.323-.4564-.159-.117-.36-.1755-.604-.1755-.178 0-.346.0468-.505.1404-.159.0936-.288.234-.386.4213-.099.1872-.148.4235-.148.7091 0 .2855.049.5242.148.7161.098.1872.227.3276.386.4212.159.0936.327.1404.505.1404.258 0 .461-.0585.611-.1755.154-.117.26-.2715.316-.4634h.604c-.089.3698-.265.66-.527.8706-.257.2106-.59.316-.997.316Zm4.154 0c-.328 0-.618-.0749-.871-.2247-.253-.1498-.451-.3604-.597-.6319-.145-.2761-.217-.5991-.217-.9688 0-.3698.072-.6904.217-.9619.146-.2761.344-.4891.597-.6389.253-.1498.543-.2246.871-.2246.327 0 .618.0748.87.2246.253.1498.452.3628.597.6389.145.2715.218.5921.218.9619 0 .3697-.073.6927-.218.9688-.145.2715-.344.4821-.597.6319-.252.1498-.543.2247-.87.2247Zm0-.5617c.201 0 .384-.0445.547-.1334.164-.0889.293-.227.387-.4142.098-.1872.147-.426.147-.7161 0-.2902-.049-.5289-.147-.7162-.094-.1872-.223-.3253-.387-.4142-.163-.0889-.346-.1334-.547-.1334-.197 0-.377.0445-.541.1334-.164.0889-.295.227-.393.4142-.098.1873-.147.426-.147.7162 0 .4352.105.7559.316.9618.21.2013.465.3019.765.3019Zm2.363.4774v-3.4823h.484l.064.4072h.035c.061-.1404.152-.2574.274-.351.126-.0936.278-.1404.456-.1404s.328.0444.449.1333c.127.0843.218.2037.274.3581h.028c.061-.1404.159-.2574.295-.351.136-.0936.3-.1404.491-.1404.267 0 .466.0912.597.2738.136.1778.204.4165.204.7161v2.5766h-.576v-2.4853c0-.1685-.035-.3019-.105-.4002-.066-.0983-.173-.1475-.323-.1475-.155 0-.281.0585-.379.1756-.099.117-.148.2831-.148.4984v2.359h-.582v-2.4853c0-.1685-.033-.3019-.099-.4002-.065-.0983-.173-.1475-.323-.1475-.154 0-.283.0585-.386.1756-.098.117-.147.2831-.147.4984v2.359h-.583Zm4.498 1.5446v-5.0269h.477l.07.5757h.042c.089-.1872.232-.344.429-.4704.196-.1264.428-.1895.695-.1895.281 0 .533.0702.758.2106.229.1404.409.3487.541.6248.131.2715.196.6038.196.997 0 .3885-.068.7184-.203.9899-.132.2715-.314.4774-.548.6178-.229.1405-.494.2107-.793.2107-.267 0-.494-.0562-.681-.1685-.183-.1171-.314-.2528-.394-.4072v2.036h-.589Zm1.593-2.022c.295 0 .539-.103.731-.3089.191-.2106.287-.5289.287-.9548 0-.426-.096-.7419-.287-.9478-.192-.2107-.436-.316-.731-.316s-.538.1053-.73.316c-.192.2059-.288.5218-.288.9478 0 .4259.096.7442.288.9548.192.2059.435.3089.73.3089Zm2.595.4774v-.5055h1.187V55.984c0-.117-.059-.1756-.176-.1756h-.884v-.5055h1.025c.201 0 .355.0539.463.1615.108.1077.162.2621.162.4634v3.9246h1.186v.5055h-2.963Zm5.825.0843c-.328 0-.618-.0749-.871-.2247-.248-.1545-.444-.3674-.59-.6389-.145-.2761-.217-.5968-.217-.9618 0-.3651.07-.6834.21-.9549.146-.2761.344-.4891.597-.6389.253-.1544.548-.2316.885-.2316.337 0 .625.0772.863.2316.239.1498.422.3487.548.5968.126.2481.19.5149.19.8004 0 .0515-.003.1029-.007.1544v.1756h-2.703c.014.2574.072.4727.175.6459.108.1685.241.2948.4.3791.164.0842.337.1264.52.1264.257 0 .458-.0539.604-.1615.145-.1077.255-.2574.33-.4493h.582c-.079.3229-.245.5967-.498.8214-.253.22-.592.33-1.018.33Zm0-3.1243c-.272 0-.51.0819-.716.2457-.202.1639-.326.3932-.372.6881h2.12c-.019-.2902-.124-.5172-.316-.681-.187-.1685-.426-.2528-.716-.2528Zm4.54 3.04c-.319 0-.569-.0772-.752-.2317-.182-.1544-.274-.4329-.274-.8354v-1.9097h-.884v-.5055h.526c.239 0 .377-.117.415-.351l.098-.5406h.435v.8916h1.39v.5055h-1.39v1.9097c0 .1965.045.3346.134.4142.093.0795.252.1193.477.1193h.779v.5336h-.954Zm3.879.0843c-.327 0-.618-.0749-.87-.2247-.248-.1545-.445-.3674-.59-.6389-.145-.2761-.218-.5968-.218-.9618 0-.3651.07-.6834.211-.9549.145-.2761.344-.4891.597-.6389.252-.1544.547-.2316.884-.2316.337 0 .625.0772.864.2316.239.1498.421.3487.547.5968.127.2481.19.5149.19.8004 0 .0515-.002.1029-.007.1544v.1756h-2.703c.014.2574.073.4727.176.6459.107.1685.241.2948.4.3791.164.0842.337.1264.519.1264.258 0 .459-.0539.604-.1615.145-.1077.255-.2574.33-.4493h.583c-.08.3229-.246.5967-.499.8214-.252.22-.592.33-1.018.33Zm0-3.1243c-.271 0-.51.0819-.716.2457-.201.1639-.325.3932-.372.6881h2.12c-.018-.2902-.124-.5172-.316-.681-.187-.1685-.426-.2528-.716-.2528Zm4.056 3.1243c-.295 0-.56-.0702-.794-.2107-.229-.1404-.409-.3463-.54-.6178-.131-.2761-.197-.6108-.197-1.004 0-.3884.066-.7184.197-.9899.131-.2715.311-.4774.54-.6178.234-.1404.499-.2106.794-.2106.276 0 .503.0538.681.1614.182.1077.318.2481.407.4213v-2.0712h.589v5.055h-.484l-.063-.5406h-.042c-.094.1919-.232.344-.414.4564-.183.1123-.408.1685-.674.1685Zm.077-.5617c.295 0 .538-.103.73-.3089.192-.2106.288-.5289.288-.9548 0-.426-.096-.7419-.288-.9478-.192-.2107-.435-.316-.73-.316s-.539.1053-.73.316c-.188.2059-.281.5218-.281.9478 0 .4259.093.7442.281.9548.191.2059.435.3089.73.3089ZM361.451 72.9954v-.5336h1.271v-3.6859l-1.2.2317v-.4494l1.397-.4774h.393v4.381h1.341v.5336h-3.202ZM361.451 87.0369v-.5336h1.271v-3.6859l-1.2.2317v-.4494l1.397-.4774h.393v4.381h1.341v.5336h-3.202ZM361.451 101.078v-.533h1.271v-3.686l-1.2.2317v-.4493l1.397-.4775h.393v4.3811h1.341v.533h-3.202ZM363.066 115.204c-.37 0-.697-.103-.983-.309-.281-.206-.501-.498-.66-.877-.154-.379-.231-.831-.231-1.355s.077-.976.231-1.355c.159-.379.379-.672.66-.878.286-.206.613-.309.983-.309.375 0 .702.103.983.309.281.206.498.499.653.878.159.379.239.831.239 1.355s-.08.976-.239 1.355c-.155.379-.372.671-.653.877-.281.206-.608.309-.983.309Zm-1.271-2.541c0 .318.033.606.099.863.07.253.166.466.287.639l1.362-3.377c-.145-.079-.304-.119-.477-.119-.248 0-.468.082-.66.246-.192.159-.342.388-.449.688-.108.294-.162.648-.162 1.06Zm1.271 2.001c.248 0 .468-.08.66-.239.192-.164.342-.396.449-.695.108-.3.162-.655.162-1.067 0-.319-.035-.604-.105-.857-.066-.257-.16-.473-.281-.646l-1.369 3.384c.149.08.311.12.484.12ZM361.451 129.162v-.534h1.271v-3.686l-1.2.232v-.45l1.397-.477h.393v4.381h1.341v.534h-3.202ZM363.066 143.287c-.37 0-.697-.103-.983-.309-.281-.205-.501-.498-.66-.877-.154-.379-.231-.831-.231-1.355s.077-.976.231-1.355c.159-.379.379-.672.66-.878.286-.206.613-.309.983-.309.375 0 .702.103.983.309.281.206.498.499.653.878.159.379.239.831.239 1.355s-.08.976-.239 1.355c-.155.379-.372.672-.653.877-.281.206-.608.309-.983.309Zm-1.271-2.541c0 .318.033.606.099.863.07.253.166.466.287.639l1.362-3.377c-.145-.079-.304-.119-.477-.119-.248 0-.468.082-.66.246-.192.159-.342.388-.449.688-.108.295-.162.648-.162 1.06Zm1.271 2.001c.248 0 .468-.08.66-.239.192-.164.342-.395.449-.695.108-.3.162-.655.162-1.067 0-.318-.035-.604-.105-.857-.066-.257-.16-.472-.281-.646l-1.369 3.384c.149.08.311.12.484.12ZM440.06 60.4422c-.314 0-.595-.0726-.843-.2177-.243-.1451-.437-.3534-.582-.6248-.145-.2762-.218-.6038-.218-.9829 0-.3792.073-.7045.218-.9759.145-.2762.341-.4868.589-.6319.253-.1451.532-.2176.836-.2176.43 0 .774.1076 1.032.3229.257.2153.421.5032.491.8636h-.603c-.057-.1919-.164-.3441-.323-.4564-.16-.117-.361-.1755-.604-.1755-.178 0-.347.0468-.506.1404-.159.0936-.288.234-.386.4213-.098.1872-.147.4235-.147.7091 0 .2855.049.5242.147.7161.098.1872.227.3276.386.4212.159.0936.328.1404.506.1404.257 0 .461-.0585.611-.1755.154-.117.259-.2715.316-.4634h.603c-.089.3698-.264.66-.526.8706-.258.2106-.59.316-.997.316Zm2.637-.0843v-.5055h.892v-2.2958c0-.117-.057-.1755-.169-.1755h-.632v-.5055h.85c.154 0 .278.0421.372.1264.093.0842.14.2083.14.3721v.1474h.028c.056-.234.162-.4142.316-.5406.159-.1264.379-.1895.66-.1895h.639v.6248h-.723c-.286 0-.506.096-.66.2879-.154.1872-.232.4282-.232.7231v1.4252h1.096v.5055h-2.577Zm5.761.0843c-.327 0-.618-.0749-.87-.2247-.248-.1545-.445-.3674-.59-.6389-.145-.2761-.218-.5968-.218-.9618 0-.3651.07-.6834.211-.9549.145-.2761.344-.4891.597-.6389.252-.1544.547-.2316.884-.2316.337 0 .625.0772.864.2316.239.1498.421.3487.547.5968.127.2481.19.5149.19.8004 0 .0515-.002.1029-.007.1544v.1756h-2.703c.014.2574.073.4727.176.6459.107.1685.241.2948.4.3791.164.0842.337.1264.519.1264.258 0 .459-.0539.604-.1615.145-.1077.255-.2574.33-.4493h.583c-.08.3229-.246.5967-.499.8214-.252.22-.592.33-1.018.33Zm0-3.1243c-.271 0-.51.0819-.716.2457-.201.1639-.325.3932-.372.6881h2.12c-.018-.2902-.124-.5172-.316-.681-.187-.1685-.426-.2528-.716-.2528Zm3.88 3.1243c-.276 0-.505-.0492-.688-.1475-.183-.0983-.318-.227-.407-.3861-.089-.1638-.134-.3417-.134-.5336 0-.3557.129-.6248.387-.8074.262-.1872.61-.2808 1.046-.2808h.954v-.0702c0-.6085-.278-.9127-.835-.9127-.225 0-.414.0491-.569.1474-.15.0983-.245.2528-.288.4634h-.603c.023-.234.1-.4353.231-.6038.136-.1685.309-.2972.52-.3862.21-.0889.447-.1333.709-.1333.496 0 .856.131 1.081.3931.23.2574.344.6015.344 1.0321v2.1413h-.505l-.049-.5406h-.05c-.103.1685-.241.3159-.414.4423-.168.1217-.412.1826-.73.1826Zm.105-.5196c.225 0 .415-.0538.569-.1615.159-.1076.278-.2504.358-.4282.084-.1779.126-.3721.126-.5827h-.905c-.319 0-.543.0538-.674.1614-.127.1077-.19.2504-.19.4283 0 .1825.061.3253.183.4283.121.1029.299.1544.533.1544Zm4.765.4353c-.319 0-.569-.0772-.752-.2317-.182-.1544-.273-.4329-.273-.8354v-1.9097h-.885v-.5055h.527c.238 0 .376-.117.414-.351l.098-.5406h.435v.8916h1.391v.5055h-1.391v1.9097c0 .1965.045.3346.134.4142.093.0795.253.1193.477.1193h.78v.5336h-.955Zm3.879.0843c-.327 0-.617-.0749-.87-.2247-.248-.1545-.445-.3674-.59-.6389-.145-.2761-.218-.5968-.218-.9618 0-.3651.071-.6834.211-.9549.145-.2761.344-.4891.597-.6389.253-.1544.547-.2316.884-.2316.337 0 .625.0772.864.2316.239.1498.421.3487.548.5968.126.2481.189.5149.189.8004 0 .0515-.002.1029-.007.1544v.1756h-2.703c.014.2574.073.4727.176.6459.107.1685.241.2948.4.3791.164.0842.337.1264.519.1264.258 0 .459-.0539.604-.1615.145-.1077.255-.2574.33-.4493h.583c-.08.3229-.246.5967-.499.8214-.252.22-.592.33-1.018.33Zm0-3.1243c-.271 0-.51.0819-.716.2457-.201.1639-.325.3932-.372.6881h2.12c-.018-.2902-.124-.5172-.315-.681-.188-.1685-.426-.2528-.717-.2528Zm4.056 3.1243c-.295 0-.56-.0702-.794-.2107-.229-.1404-.409-.3463-.54-.6178-.131-.2761-.197-.6108-.197-1.004 0-.3884.066-.7184.197-.9899.131-.2715.311-.4774.54-.6178.234-.1404.499-.2106.794-.2106.276 0 .503.0538.681.1614.182.1077.318.2481.407.4213v-2.0712h.59v5.055h-.485l-.063-.5406h-.042c-.094.1919-.232.344-.414.4564-.183.1123-.408.1685-.674.1685Zm.077-.5617c.295 0 .538-.103.73-.3089.192-.2106.288-.5289.288-.9548 0-.426-.096-.7419-.288-.9478-.192-.2107-.435-.316-.73-.316s-.538.1053-.73.316c-.187.2059-.281.5218-.281.9478 0 .4259.094.7442.281.9548.192.2059.435.3089.73.3089Zm2.672 1.018v-.5406h3.159v.5406h-3.159Zm5.495-.4563c-.277 0-.506-.0492-.688-.1475-.183-.0983-.319-.227-.408-.3861-.089-.1638-.133-.3417-.133-.5336 0-.3557.129-.6248.386-.8074.262-.1872.611-.2808 1.046-.2808h.955v-.0702c0-.6085-.278-.9127-.835-.9127-.225 0-.415.0491-.569.1474-.15.0983-.246.2528-.288.4634h-.604c.024-.234.101-.4353.232-.6038.136-.1685.309-.2972.519-.3862.211-.0889.447-.1333.71-.1333.496 0 .856.131 1.081.3931.229.2574.344.6015.344 1.0321v2.1413h-.506l-.049-.5406h-.049c-.103.1685-.241.3159-.414.4423-.169.1217-.412.1826-.73.1826Zm.105-.5196c.225 0 .414-.0538.569-.1615.159-.1076.278-.2504.358-.4282.084-.1779.126-.3721.126-.5827h-.906c-.318 0-.543.0538-.674.1614-.126.1077-.189.2504-.189.4283 0 .1825.061.3253.182.4283.122.1029.3.1544.534.1544Zm4.764.4353c-.318 0-.568-.0772-.751-.2317-.182-.1544-.274-.4329-.274-.8354v-1.9097h-.884v-.5055h.526c.239 0 .377-.117.414-.351l.099-.5406h.435v.8916h1.39v.5055h-1.39v1.9097c0 .1965.044.3346.133.4142.094.0795.253.1193.478.1193h.779v.5336h-.955Z"/><path fill="#475569" d="M478.181 40.784c-.337 0-.627-.0632-.871-.1896-.243-.1264-.435-.2972-.576-.5125-.14-.2153-.224-.4611-.252-.7372h.603c.043.2668.162.4844.359.6529.196.1638.444.2458.744.2458.351 0 .627-.1124.828-.337.201-.2294.302-.5172.302-.8636 0-.3651-.103-.6506-.309-.8565-.206-.2107-.473-.316-.8-.316-.262 0-.487.0609-.674.1826-.183.117-.33.2668-.443.4493h-.561l.421-2.717h2.626v.5406h-2.163l-.259 1.4603h.035c.107-.117.253-.22.435-.3089.187-.089.403-.1334.646-.1334.323 0 .604.0702.842.2106.244.1357.433.3323.569.5897.136.2528.204.55.204.8917 0 .3183-.068.6108-.204.8776-.131.2621-.325.4727-.583.6318-.252.1592-.559.2388-.919.2388Zm4.209 0c-.369 0-.697-.103-.982-.309-.281-.2059-.501-.4984-.66-.8776-.155-.3791-.232-.8307-.232-1.355 0-.5242.077-.9759.232-1.355.159-.3791.379-.6716.66-.8776.285-.2059.613-.3089.982-.3089.375 0 .703.103.983.3089.281.206.499.4985.653.8776.159.3791.239.8308.239 1.355 0 .5243-.08.9759-.239 1.355-.154.3792-.372.6717-.653.8776-.28.206-.608.309-.983.309Zm-1.27-2.5416c0 .3183.032.6062.098.8636.07.2527.166.4657.288.6389l1.362-3.377c-.145-.0796-.304-.1194-.478-.1194-.248 0-.468.0819-.66.2458-.191.1591-.341.3884-.449.688-.108.2949-.161.6482-.161 1.0601Zm1.27 2.001c.248 0 .468-.0796.66-.2388.192-.1638.342-.3955.45-.695.107-.2996.161-.6553.161-1.0672 0-.3182-.035-.6038-.105-.8565-.066-.2574-.159-.4727-.281-.6459l-1.369 3.384c.15.0796.311.1194.484.1194ZM495.031 40.784c-.37 0-.698-.103-.983-.309-.281-.2059-.501-.4984-.66-.8776-.155-.3791-.232-.8307-.232-1.355 0-.5242.077-.9759.232-1.355.159-.3791.379-.6716.66-.8776.285-.2059.613-.3089.983-.3089.374 0 .702.103.982.3089.281.206.499.4985.653.8776.16.3791.239.8308.239 1.355 0 .5243-.079.9759-.239 1.355-.154.3792-.372.6717-.653.8776-.28.206-.608.309-.982.309Zm-1.271-2.5416c0 .3183.033.6062.098.8636.07.2527.166.4657.288.6389l1.362-3.377c-.145-.0796-.304-.1194-.477-.1194-.249 0-.469.0819-.66.2458-.192.1591-.342.3884-.45.688-.107.2949-.161.6482-.161 1.0601Zm1.271 2.001c.248 0 .468-.0796.66-.2388.191-.1638.341-.3955.449-.695.107-.2996.161-.6553.161-1.0672 0-.3182-.035-.6038-.105-.8565-.066-.2574-.159-.4727-.281-.6459l-1.369 3.384c.15.0796.311.1194.485.1194Z"/><path fill="#94A3B8" d="M438.389 72.9954v-.5336h1.271v-3.6859l-1.201.2317v-.4494l1.397-.4774h.393v4.381h1.341v.5336h-3.201Zm4.926 0 1.916-4.381h-2.682v-.5336h3.293v.4704l-1.902 4.4442h-.625Zm3.493 0v-.5336h1.271v-3.6859l-1.2.2317v-.4494l1.397-.4774h.393v4.381h1.341v.5336h-3.202Zm5.825.0842c-.337 0-.627-.0632-.871-.1896-.243-.1263-.435-.2972-.575-.5125-.141-.2153-.225-.461-.253-.7371h.604c.042.2667.161.4844.358.6529.196.1638.444.2457.744.2457.351 0 .627-.1123.828-.337.202-.2293.302-.5172.302-.8635 0-.3651-.103-.6506-.309-.8566-.206-.2106-.472-.3159-.8-.3159-.262 0-.487.0608-.674.1825-.183.117-.33.2668-.442.4494h-.562l.421-2.7171h2.626v.5406h-2.162l-.26 1.4603h.035c.108-.117.253-.2199.435-.3089.187-.0889.403-.1334.646-.1334.323 0 .604.0702.843.2107.243.1357.433.3323.568.5897.136.2527.204.55.204.8916 0 .3183-.068.6108-.204.8776-.131.2621-.325.4728-.582.6319-.253.1591-.56.2387-.92.2387Zm4.21 0c-.328 0-.616-.0608-.864-.1825-.243-.1264-.435-.2972-.576-.5125-.14-.2154-.21-.4611-.21-.7372 0-.3089.082-.5711.245-.7864.164-.2153.354-.365.569-.4493v-.0351c-.206-.0983-.372-.2387-.498-.4212-.122-.1873-.183-.4049-.183-.653 0-.2387.061-.4563.183-.6529.126-.2013.304-.3604.533-.4774.23-.117.496-.1755.801-.1755.299 0 .561.0585.786.1755.229.117.407.2761.534.4774.131.1966.196.4142.196.6529 0 .2481-.063.4657-.189.653-.122.1825-.286.3229-.492.4212v.0351c.215.0843.405.234.569.4493.164.2153.245.4775.245.7864 0 .2761-.07.5218-.21.7372-.141.2153-.335.3861-.583.5125-.243.1217-.529.1825-.856.1825Zm0-2.9206c.29 0 .517-.0749.681-.2247.168-.1545.252-.3534.252-.5968 0-.2387-.084-.4329-.252-.5827-.164-.1544-.391-.2317-.681-.2317-.291 0-.52.0773-.688.2317-.164.1498-.246.344-.246.5827 0 .2434.082.4423.246.5968.168.1498.397.2247.688.2247Zm0 2.387c.313 0 .566-.0795.758-.2387.196-.1638.295-.4002.295-.7091 0-.3042-.099-.5359-.295-.695-.192-.1638-.445-.2458-.758-.2458-.314 0-.569.082-.766.2458-.192.1591-.288.3908-.288.695 0 .3089.096.5453.288.7091.197.1592.452.2387.766.2387Zm4.813.4494V71.858h-2.352v-.4564l2.24-3.3208h.702v3.2436h.702v.5336h-.702v1.1374h-.59Zm-1.692-1.671h1.72v-2.5555l-1.72 2.5555Zm4.399 1.671 1.917-4.381h-2.682v-.5336h3.293v.4704l-1.903 4.4442h-.625Zm3.494 0v-.5336h1.271v-3.6859l-1.201.2317v-.4494l1.397-.4774h.394v4.381h1.34v.5336h-3.201Zm6.428 0V71.858h-2.352v-.4564l2.24-3.3208h.702v3.2436h.702v.5336h-.702v1.1374h-.59Zm-1.692-1.671h1.72v-2.5555l-1.72 2.5555Zm5.298 1.7552c-.337 0-.627-.0632-.87-.1896-.244-.1263-.436-.2972-.576-.5125-.14-.2153-.225-.461-.253-.7371h.604c.042.2667.161.4844.358.6529.197.1638.445.2457.744.2457.351 0 .627-.1123.829-.337.201-.2293.302-.5172.302-.8635 0-.3651-.103-.6506-.309-.8566-.206-.2106-.473-.3159-.801-.3159-.262 0-.486.0608-.674.1825-.182.117-.33.2668-.442.4494h-.562l.422-2.7171h2.625v.5406h-2.162l-.26 1.4603h.035c.108-.117.253-.2199.436-.3089.187-.0889.402-.1334.645-.1334.323 0 .604.0702.843.2107.243.1357.433.3323.569.5897.135.2527.203.55.203.8916 0 .3183-.068.6108-.203.8776-.131.2621-.326.4728-.583.6319-.253.1591-.559.2387-.92.2387ZM438.389 87.0369v-.5336h1.271v-3.6859l-1.201.2317v-.4494l1.397-.4774h.393v4.381h1.341v.5336h-3.201Zm4.926 0 1.916-4.381h-2.682v-.5336h3.293v.4704l-1.902 4.4442h-.625Zm3.493 0v-.5336h1.271v-3.6859l-1.2.2317v-.4494l1.397-.4774h.393v4.381h1.341v.5336h-3.202Zm5.825.0842c-.337 0-.627-.0632-.871-.1895-.243-.1264-.435-.2973-.575-.5126-.141-.2153-.225-.461-.253-.7371h.604c.042.2667.161.4844.358.6529.196.1638.444.2457.744.2457.351 0 .627-.1123.828-.337.202-.2293.302-.5172.302-.8635 0-.3651-.103-.6506-.309-.8566-.206-.2106-.472-.3159-.8-.3159-.262 0-.487.0608-.674.1825-.183.117-.33.2668-.442.4494h-.562l.421-2.7171h2.626v.5406h-2.162l-.26 1.4603h.035c.108-.117.253-.2199.435-.3089.187-.0889.403-.1334.646-.1334.323 0 .604.0702.843.2107.243.1357.433.3323.568.5897.136.2527.204.55.204.8916 0 .3183-.068.6108-.204.8776-.131.2621-.325.4728-.582.6319-.253.1591-.56.2387-.92.2387Zm4.21 0c-.328 0-.616-.0608-.864-.1825-.243-.1264-.435-.2972-.576-.5125-.14-.2153-.21-.4611-.21-.7372 0-.3089.082-.571.245-.7864.164-.2153.354-.365.569-.4493v-.0351c-.206-.0983-.372-.2387-.498-.4212-.122-.1873-.183-.4049-.183-.653 0-.2387.061-.4563.183-.6529.126-.2013.304-.3604.533-.4774.23-.117.496-.1755.801-.1755.299 0 .561.0585.786.1755.229.117.407.2761.534.4774.131.1966.196.4142.196.6529 0 .2481-.063.4657-.189.653-.122.1825-.286.3229-.492.4212v.0351c.215.0843.405.234.569.4493.164.2154.245.4775.245.7864 0 .2761-.07.5219-.21.7372-.141.2153-.335.3861-.583.5125-.243.1217-.529.1825-.856.1825Zm0-2.9206c.29 0 .517-.0749.681-.2247.168-.1545.252-.3534.252-.5968 0-.2387-.084-.4329-.252-.5827-.164-.1544-.391-.2317-.681-.2317-.291 0-.52.0773-.688.2317-.164.1498-.246.344-.246.5827 0 .2434.082.4423.246.5968.168.1498.397.2247.688.2247Zm0 2.387c.313 0 .566-.0795.758-.2387.196-.1638.295-.4002.295-.7091 0-.3042-.099-.5359-.295-.695-.192-.1638-.445-.2458-.758-.2458-.314 0-.569.082-.766.2458-.192.1591-.288.3908-.288.695 0 .3089.096.5453.288.7091.197.1592.452.2387.766.2387Zm4.813.4494v-1.1374h-2.352v-.4564l2.24-3.3208h.702v3.2436h.702v.5336h-.702v1.1374h-.59Zm-1.692-1.671h1.72v-2.5555l-1.72 2.5555Zm4.399 1.671 1.917-4.381h-2.682v-.5336h3.293v.4704l-1.903 4.4442h-.625Zm3.494 0v-.5336h1.271v-3.6859l-1.201.2317v-.4494l1.397-.4774h.394v4.381h1.34v.5336h-3.201Zm6.428 0v-1.1374h-2.352v-.4564l2.24-3.3208h.702v3.2436h.702v.5336h-.702v1.1374h-.59Zm-1.692-1.671h1.72v-2.5555l-1.72 2.5555Zm5.298 1.7552c-.337 0-.627-.0632-.87-.1895-.244-.1264-.436-.2973-.576-.5126-.14-.2153-.225-.461-.253-.7371h.604c.042.2667.161.4844.358.6529.197.1638.445.2457.744.2457.351 0 .627-.1123.829-.337.201-.2293.302-.5172.302-.8635 0-.3651-.103-.6506-.309-.8566-.206-.2106-.473-.3159-.801-.3159-.262 0-.486.0608-.674.1825-.182.117-.33.2668-.442.4494h-.562l.422-2.7171h2.625v.5406h-2.162l-.26 1.4603h.035c.108-.117.253-.2199.436-.3089.187-.0889.402-.1334.645-.1334.323 0 .604.0702.843.2107.243.1357.433.3323.569.5897.135.2527.203.55.203.8916 0 .3183-.068.6108-.203.8776-.131.2621-.326.4728-.583.6319-.253.1591-.559.2387-.92.2387ZM438.389 101.078v-.533h1.271v-3.686l-1.201.2317v-.4493l1.397-.4775h.393v4.3811h1.341v.533h-3.201Zm4.926 0 1.916-4.3805h-2.682v-.5336h3.293v.4704l-1.902 4.4437h-.625Zm3.493 0v-.533h1.271v-3.686l-1.2.2317v-.4493l1.397-.4775h.393v4.3811h1.341v.533h-3.202Zm5.825.085c-.337 0-.627-.063-.871-.19-.243-.126-.435-.297-.575-.512-.141-.216-.225-.4614-.253-.7375h.604c.042.2668.161.4845.358.6525.196.164.444.246.744.246.351 0 .627-.112.828-.337.202-.229.302-.5171.302-.8634 0-.3651-.103-.6506-.309-.8565-.206-.2107-.472-.316-.8-.316-.262 0-.487.0609-.674.1826-.183.117-.33.2667-.442.4493h-.562l.421-2.7171h2.626v.5406h-2.162l-.26 1.4604h.035c.108-.117.253-.22.435-.3089.187-.089.403-.1334.646-.1334.323 0 .604.0702.843.2106.243.1357.433.3323.568.5897.136.2528.204.55.204.8917 0 .3182-.068.6104-.204.8774-.131.262-.325.473-.582.632-.253.159-.56.239-.92.239Zm4.21 0c-.328 0-.616-.061-.864-.183-.243-.126-.435-.297-.576-.512-.14-.216-.21-.461-.21-.7375 0-.3089.082-.571.245-.7863.164-.2153.354-.3651.569-.4494v-.0351c-.206-.0983-.372-.2387-.498-.4212-.122-.1872-.183-.4049-.183-.6529 0-.2387.061-.4564.183-.653.126-.2012.304-.3604.533-.4774.23-.117.496-.1755.801-.1755.299 0 .561.0585.786.1755.229.117.407.2762.534.4774.131.1966.196.4143.196.653 0 .248-.063.4657-.189.6529-.122.1825-.286.3229-.492.4212v.0351c.215.0843.405.2341.569.4494.164.2153.245.4774.245.7863 0 .2765-.07.5215-.21.7375-.141.215-.335.386-.583.512-.243.122-.529.183-.856.183Zm0-2.9209c.29 0 .517-.0749.681-.2247.168-.1544.252-.3533.252-.5967 0-.2387-.084-.433-.252-.5828-.164-.1544-.391-.2316-.681-.2316-.291 0-.52.0772-.688.2316-.164.1498-.246.3441-.246.5828 0 .2434.082.4423.246.5967.168.1498.397.2247.688.2247Zm0 2.3869c.313 0 .566-.079.758-.239.196-.163.295-.3997.295-.7086 0-.3043-.099-.536-.295-.6951-.192-.1638-.445-.2457-.758-.2457-.314 0-.569.0819-.766.2457-.192.1591-.288.3908-.288.6951 0 .3089.096.5456.288.7086.197.16.452.239.766.239Zm4.813.449v-1.1369h-2.352v-.4563l2.24-3.3209h.702v3.2436h.702v.5336h-.702v1.1369h-.59Zm-1.692-1.6705h1.72V96.852l-1.72 2.5555Zm4.399 1.6705 1.917-4.3805h-2.682v-.5336h3.293v.4704l-1.903 4.4437h-.625Zm3.494 0v-.533h1.271v-3.686l-1.201.2317v-.4493l1.397-.4775h.394v4.3811h1.34v.533h-3.201Zm6.428 0v-1.1369h-2.352v-.4563l2.24-3.3209h.702v3.2436h.702v.5336h-.702v1.1369h-.59Zm-1.692-1.6705h1.72V96.852l-1.72 2.5555Zm5.298 1.7555c-.337 0-.627-.063-.87-.19-.244-.126-.436-.297-.576-.512-.14-.216-.225-.4614-.253-.7375h.604c.042.2668.161.4845.358.6525.197.164.445.246.744.246.351 0 .627-.112.829-.337.201-.229.302-.5171.302-.8634 0-.3651-.103-.6506-.309-.8565-.206-.2107-.473-.316-.801-.316-.262 0-.486.0609-.674.1826-.182.117-.33.2667-.442.4493h-.562l.422-2.7171h2.625v.5406h-2.162l-.26 1.4604h.035c.108-.117.253-.22.436-.3089.187-.089.402-.1334.645-.1334.323 0 .604.0702.843.2106.243.1357.433.3323.569.5897.135.2528.203.55.203.8917 0 .3182-.068.6104-.203.8774-.131.262-.326.473-.583.632-.253.159-.559.239-.92.239ZM438.389 115.12v-.534h1.271v-3.685l-1.201.231v-.449l1.397-.478h.393v4.381h1.341v.534h-3.201Zm4.926 0 1.916-4.381h-2.682v-.534h3.293v.471l-1.902 4.444h-.625Zm3.493 0v-.534h1.271v-3.685l-1.2.231v-.449l1.397-.478h.393v4.381h1.341v.534h-3.202Zm5.825.084c-.337 0-.627-.063-.871-.189-.243-.127-.435-.298-.575-.513-.141-.215-.225-.461-.253-.737h.604c.042.267.161.484.358.653.196.164.444.246.744.246.351 0 .627-.113.828-.337.202-.23.302-.518.302-.864 0-.365-.103-.651-.309-.856-.206-.211-.472-.316-.8-.316-.262 0-.487.06-.674.182-.183.117-.33.267-.442.449h-.562l.421-2.717h2.626v.541h-2.162l-.26 1.46h.035c.108-.117.253-.22.435-.309.187-.088.403-.133.646-.133.323 0 .604.07.843.211.243.135.433.332.568.589.136.253.204.55.204.892 0 .318-.068.611-.204.878-.131.262-.325.472-.582.632-.253.159-.56.238-.92.238Zm4.21 0c-.328 0-.616-.061-.864-.182-.243-.127-.435-.298-.576-.513-.14-.215-.21-.461-.21-.737 0-.309.082-.571.245-.786.164-.216.354-.365.569-.45v-.035c-.206-.098-.372-.238-.498-.421-.122-.187-.183-.405-.183-.653 0-.239.061-.456.183-.653.126-.201.304-.36.533-.477.23-.117.496-.176.801-.176.299 0 .561.059.786.176.229.117.407.276.534.477.131.197.196.414.196.653 0 .248-.063.466-.189.653-.122.183-.286.323-.492.421v.035c.215.085.405.234.569.45.164.215.245.477.245.786 0 .276-.07.522-.21.737-.141.215-.335.386-.583.513-.243.121-.529.182-.856.182Zm0-2.92c.29 0 .517-.075.681-.225.168-.155.252-.353.252-.597 0-.239-.084-.433-.252-.583-.164-.154-.391-.231-.681-.231-.291 0-.52.077-.688.231-.164.15-.246.344-.246.583 0 .244.082.442.246.597.168.15.397.225.688.225Zm0 2.387c.313 0 .566-.08.758-.239.196-.164.295-.4.295-.709 0-.304-.099-.536-.295-.695-.192-.164-.445-.246-.758-.246-.314 0-.569.082-.766.246-.192.159-.288.391-.288.695 0 .309.096.545.288.709.197.159.452.239.766.239Zm4.813.449v-1.137h-2.352v-.457l2.24-3.321h.702v3.244h.702v.534h-.702v1.137h-.59Zm-1.692-1.671h1.72v-2.556l-1.72 2.556Zm4.399 1.671 1.917-4.381h-2.682v-.534h3.293v.471l-1.903 4.444h-.625Zm3.494 0v-.534h1.271v-3.685l-1.201.231v-.449l1.397-.478h.394v4.381h1.34v.534h-3.201Zm6.428 0v-1.137h-2.352v-.457l2.24-3.321h.702v3.244h.702v.534h-.702v1.137h-.59Zm-1.692-1.671h1.72v-2.556l-1.72 2.556Zm5.298 1.755c-.337 0-.627-.063-.87-.189-.244-.127-.436-.298-.576-.513-.14-.215-.225-.461-.253-.737h.604c.042.267.161.484.358.653.197.164.445.246.744.246.351 0 .627-.113.829-.337.201-.23.302-.518.302-.864 0-.365-.103-.651-.309-.856-.206-.211-.473-.316-.801-.316-.262 0-.486.06-.674.182-.182.117-.33.267-.442.449h-.562l.422-2.717h2.625v.541h-2.162l-.26 1.46h.035c.108-.117.253-.22.436-.309.187-.088.402-.133.645-.133.323 0 .604.07.843.211.243.135.433.332.569.589.135.253.203.55.203.892 0 .318-.068.611-.203.878-.131.262-.326.472-.583.632-.253.159-.559.238-.92.238ZM438.389 129.162v-.534h1.271v-3.686l-1.201.232v-.45l1.397-.477h.393v4.381h1.341v.534h-3.201Zm4.926 0 1.916-4.381h-2.682v-.534h3.293v.47l-1.902 4.445h-.625Zm3.493 0v-.534h1.271v-3.686l-1.2.232v-.45l1.397-.477h.393v4.381h1.341v.534h-3.202Zm5.825.084c-.337 0-.627-.063-.871-.19-.243-.126-.435-.297-.575-.512-.141-.216-.225-.461-.253-.737h.604c.042.266.161.484.358.653.196.163.444.245.744.245.351 0 .627-.112.828-.337.202-.229.302-.517.302-.863 0-.365-.103-.651-.309-.857-.206-.21-.472-.316-.8-.316-.262 0-.487.061-.674.183-.183.117-.33.267-.442.449h-.562l.421-2.717h2.626v.541h-2.162l-.26 1.46h.035c.108-.117.253-.22.435-.309.187-.089.403-.133.646-.133.323 0 .604.07.843.21.243.136.433.333.568.59.136.253.204.55.204.892 0 .318-.068.611-.204.877-.131.262-.325.473-.582.632-.253.159-.56.239-.92.239Zm4.21 0c-.328 0-.616-.061-.864-.183-.243-.126-.435-.297-.576-.512-.14-.215-.21-.461-.21-.737 0-.309.082-.571.245-.787.164-.215.354-.365.569-.449v-.035c-.206-.098-.372-.239-.498-.421-.122-.188-.183-.405-.183-.653 0-.239.061-.457.183-.653.126-.202.304-.361.533-.478.23-.117.496-.175.801-.175.299 0 .561.058.786.175.229.117.407.276.534.478.131.196.196.414.196.653 0 .248-.063.465-.189.653-.122.182-.286.323-.492.421v.035c.215.084.405.234.569.449.164.216.245.478.245.787 0 .276-.07.522-.21.737-.141.215-.335.386-.583.512-.243.122-.529.183-.856.183Zm0-2.921c.29 0 .517-.075.681-.224.168-.155.252-.354.252-.597 0-.239-.084-.433-.252-.583-.164-.154-.391-.232-.681-.232-.291 0-.52.078-.688.232-.164.15-.246.344-.246.583 0 .243.082.442.246.597.168.149.397.224.688.224Zm0 2.387c.313 0 .566-.079.758-.238.196-.164.295-.401.295-.71 0-.304-.099-.535-.295-.695-.192-.163-.445-.245-.758-.245-.314 0-.569.082-.766.245-.192.16-.288.391-.288.695 0 .309.096.546.288.71.197.159.452.238.766.238Zm4.813.45v-1.138h-2.352v-.456l2.24-3.321h.702v3.244h.702v.533h-.702v1.138h-.59Zm-1.692-1.671h1.72v-2.556l-1.72 2.556Zm4.399 1.671 1.917-4.381h-2.682v-.534h3.293v.47l-1.903 4.445h-.625Zm3.494 0v-.534h1.271v-3.686l-1.201.232v-.45l1.397-.477h.394v4.381h1.34v.534h-3.201Zm6.428 0v-1.138h-2.352v-.456l2.24-3.321h.702v3.244h.702v.533h-.702v1.138h-.59Zm-1.692-1.671h1.72v-2.556l-1.72 2.556Zm5.298 1.755c-.337 0-.627-.063-.87-.19-.244-.126-.436-.297-.576-.512-.14-.216-.225-.461-.253-.737h.604c.042.266.161.484.358.653.197.163.445.245.744.245.351 0 .627-.112.829-.337.201-.229.302-.517.302-.863 0-.365-.103-.651-.309-.857-.206-.21-.473-.316-.801-.316-.262 0-.486.061-.674.183-.182.117-.33.267-.442.449h-.562l.422-2.717h2.625v.541h-2.162l-.26 1.46h.035c.108-.117.253-.22.436-.309.187-.089.402-.133.645-.133.323 0 .604.07.843.21.243.136.433.333.569.59.135.253.203.55.203.892 0 .318-.068.611-.203.877-.131.262-.326.473-.583.632-.253.159-.559.239-.92.239ZM438.389 143.203v-.533h1.271v-3.686l-1.201.231v-.449l1.397-.477h.393v4.381h1.341v.533h-3.201Zm4.926 0 1.916-4.381h-2.682v-.533h3.293v.47l-1.902 4.444h-.625Zm3.493 0v-.533h1.271v-3.686l-1.2.231v-.449l1.397-.477h.393v4.381h1.341v.533h-3.202Zm5.825.084c-.337 0-.627-.063-.871-.189-.243-.127-.435-.297-.575-.513-.141-.215-.225-.461-.253-.737h.604c.042.267.161.485.358.653.196.164.444.246.744.246.351 0 .627-.113.828-.337.202-.23.302-.517.302-.864 0-.365-.103-.65-.309-.856-.206-.211-.472-.316-.8-.316-.262 0-.487.061-.674.182-.183.117-.33.267-.442.45h-.562l.421-2.717h2.626v.54h-2.162l-.26 1.461h.035c.108-.118.253-.22.435-.309.187-.089.403-.134.646-.134.323 0 .604.07.843.211.243.136.433.332.568.59.136.252.204.55.204.891 0 .318-.068.611-.204.878-.131.262-.325.473-.582.632-.253.159-.56.238-.92.238Zm4.21 0c-.328 0-.616-.06-.864-.182-.243-.127-.435-.297-.576-.513-.14-.215-.21-.461-.21-.737 0-.309.082-.571.245-.786.164-.215.354-.365.569-.45v-.035c-.206-.098-.372-.238-.498-.421-.122-.187-.183-.405-.183-.653 0-.239.061-.456.183-.653.126-.201.304-.36.533-.477.23-.117.496-.176.801-.176.299 0 .561.059.786.176.229.117.407.276.534.477.131.197.196.414.196.653 0 .248-.063.466-.189.653-.122.183-.286.323-.492.421v.035c.215.085.405.235.569.45.164.215.245.477.245.786 0 .276-.07.522-.21.737-.141.216-.335.386-.583.513-.243.122-.529.182-.856.182Zm0-2.92c.29 0 .517-.075.681-.225.168-.154.252-.353.252-.597 0-.238-.084-.433-.252-.582-.164-.155-.391-.232-.681-.232-.291 0-.52.077-.688.232-.164.149-.246.344-.246.582 0 .244.082.443.246.597.168.15.397.225.688.225Zm0 2.387c.313 0 .566-.08.758-.239.196-.164.295-.4.295-.709 0-.304-.099-.536-.295-.695-.192-.164-.445-.246-.758-.246-.314 0-.569.082-.766.246-.192.159-.288.391-.288.695 0 .309.096.545.288.709.197.159.452.239.766.239Zm4.813.449v-1.137h-2.352v-.457l2.24-3.32h.702v3.243h.702v.534h-.702v1.137h-.59Zm-1.692-1.671h1.72v-2.555l-1.72 2.555Zm4.399 1.671 1.917-4.381h-2.682v-.533h3.293v.47l-1.903 4.444h-.625Zm3.494 0v-.533h1.271v-3.686l-1.201.231v-.449l1.397-.477h.394v4.381h1.34v.533h-3.201Zm6.428 0v-1.137h-2.352v-.457l2.24-3.32h.702v3.243h.702v.534h-.702v1.137h-.59Zm-1.692-1.671h1.72v-2.555l-1.72 2.555Zm5.298 1.755c-.337 0-.627-.063-.87-.189-.244-.127-.436-.297-.576-.513-.14-.215-.225-.461-.253-.737h.604c.042.267.161.485.358.653.197.164.445.246.744.246.351 0 .627-.113.829-.337.201-.23.302-.517.302-.864 0-.365-.103-.65-.309-.856-.206-.211-.473-.316-.801-.316-.262 0-.486.061-.674.182-.182.117-.33.267-.442.45h-.562l.422-2.717h2.625v.54h-2.162l-.26 1.461h.035c.108-.118.253-.22.436-.309.187-.089.402-.134.645-.134.323 0 .604.07.843.211.243.136.433.332.569.59.135.252.203.55.203.891 0 .318-.068.611-.203.878-.131.262-.326.473-.583.632-.253.159-.559.238-.92.238ZM223.331 60.4422c-.421 0-.739-.1264-.954-.3792-.216-.2527-.323-.6178-.323-1.0952v-2.0922h.589v2.022c0 .3089.068.5523.204.7301.14.1732.351.2598.632.2598s.517-.0936.709-.2808c.192-.1919.288-.4657.288-.8214v-1.9097h.589v3.4823h-.491l-.063-.5265h-.035c-.094.1685-.241.3135-.443.4352-.201.1171-.435.1756-.702.1756Zm4.491 0c-.445 0-.805-.103-1.081-.309-.272-.2106-.424-.4984-.457-.8635h.611c.028.1919.122.3487.281.4704.164.1217.384.1825.66.1825.262 0 .456-.0561.583-.1685.131-.1123.196-.241.196-.3861 0-.1966-.077-.33-.231-.4002-.155-.0749-.387-.1311-.696-.1685-.369-.0421-.676-.1428-.919-.3019-.244-.1591-.365-.3978-.365-.7161 0-.2855.119-.5219.358-.7091.238-.1872.564-.2808.976-.2808.407 0 .727.0936.961.2808.235.1825.368.4446.401.7863h-.583c-.014-.1685-.096-.3019-.246-.4002-.145-.1029-.327-.1544-.547-.1544-.23 0-.408.0444-.534.1334-.126.0842-.19.1965-.19.337 0 .1404.071.2574.211.351.145.0889.372.1474.681.1755.243.0281.466.0749.667.1404.201.0656.36.1685.477.309.122.1404.183.3369.183.5897.005.2106-.054.4002-.175.5687-.118.1638-.281.2949-.492.3931-.211.0937-.454.1405-.73.1405Zm4.21 0c-.328 0-.618-.0749-.871-.2247-.248-.1545-.445-.3674-.59-.6389-.145-.2761-.217-.5968-.217-.9618 0-.3651.07-.6834.21-.9549.145-.2761.344-.4891.597-.6389.253-.1544.548-.2316.885-.2316.337 0 .625.0772.863.2316.239.1498.421.3487.548.5968.126.2481.189.5149.189.8004 0 .0515-.002.1029-.007.1544v.1756h-2.703c.014.2574.073.4727.176.6459.108.1685.241.2948.4.3791.164.0842.337.1264.52.1264.257 0 .458-.0539.603-.1615.145-.1077.255-.2574.33-.4493h.583c-.079.3229-.246.5967-.498.8214-.253.22-.592.33-1.018.33Zm0-3.1243c-.272 0-.511.0819-.717.2457-.201.1639-.325.3932-.372.6881h2.121c-.019-.2902-.124-.5172-.316-.681-.187-.1685-.426-.2528-.716-.2528Zm2.658 3.04v-.5055h.891v-2.2958c0-.117-.056-.1755-.168-.1755h-.632v-.5055h.85c.154 0 .278.0421.372.1264.093.0842.14.2083.14.3721v.1474h.028c.056-.234.162-.4142.316-.5406.159-.1264.379-.1895.66-.1895h.639v.6248h-.723c-.286 0-.506.096-.66.2879-.155.1872-.232.4282-.232.7231v1.4252h1.095v.5055h-2.576Zm4.146.5406v-.5406h3.16v.5406h-3.16Zm5.748-4.6407c-.141 0-.258-.0468-.351-.1404-.094-.0937-.141-.206-.141-.337 0-.1358.047-.2481.141-.337.093-.0936.21-.1405.351-.1405.135 0 .25.0469.344.1405.098.0889.147.2012.147.337 0 .131-.049.2433-.147.337-.094.0936-.209.1404-.344.1404Zm-1.362 4.1001v-.5055h1.109v-2.2958c0-.117-.059-.1755-.176-.1755h-.814v-.5055h.955c.416 0 .625.2083.625.6249v2.3519h1.109v.5055h-2.808Zm5.494.0843c-.295 0-.559-.0702-.793-.2107-.23-.1404-.41-.3463-.541-.6178-.131-.2761-.196-.6108-.196-1.004 0-.3884.065-.7184.196-.9899.131-.2715.311-.4774.541-.6178.234-.1404.498-.2106.793-.2106.276 0 .503.0538.681.1614.183.1077.318.2481.407.4213v-2.0712h.59v5.055h-.484l-.064-.5406h-.042c-.093.1919-.231.344-.414.4564-.182.1123-.407.1685-.674.1685Zm.077-.5617c.295 0 .539-.103.73-.3089.192-.2106.288-.5289.288-.9548 0-.426-.096-.7419-.288-.9478-.191-.2107-.435-.316-.73-.316s-.538.1053-.73.316c-.187.2059-.281.5218-.281.9478 0 .4259.094.7442.281.9548.192.2059.435.3089.73.3089ZM223.493 73.0796c-.3 0-.567-.0585-.801-.1755-.229-.1217-.414-.2832-.554-.4844-.136-.206-.216-.4353-.239-.6881h.569c.042.2481.152.447.33.5968.182.1451.414.2176.695.2176.37 0 .671-.1661.905-.4984.235-.337.368-.8613.401-1.5727h-.042c-.127.22-.288.4002-.485.5406-.196.1404-.473.2106-.828.2106-.295 0-.56-.0678-.794-.2036-.234-.1357-.421-.3229-.561-.5616-.136-.2387-.204-.5102-.204-.8145 0-.2995.066-.5733.197-.8214.135-.2527.325-.454.568-.6038.248-.1497.536-.2246.864-.2246.618 0 1.079.2106 1.383.6318.304.4213.456.9946.456 1.7201 0 .5383-.072 1.0134-.217 1.4252-.145.4073-.356.7279-.632.9619-.276.2293-.613.344-1.011.344Zm.063-2.3871c.328 0 .59-.1029.786-.3089.197-.2059.295-.4633.295-.7723 0-.3089-.098-.5663-.295-.7722-.196-.206-.458-.309-.786-.309s-.59.103-.786.309c-.192.2059-.288.4633-.288.7722 0 .3136.096.5734.288.7794.196.2012.458.3018.786.3018Zm4.231 2.3871c-.37 0-.698-.103-.983-.3089-.281-.2059-.501-.4985-.66-.8776-.155-.3791-.232-.8308-.232-1.355s.077-.9759.232-1.355c.159-.3791.379-.6717.66-.8776.285-.206.613-.3089.983-.3089.374 0 .702.1029.983.3089.281.2059.498.4985.653.8776.159.3791.238.8308.238 1.355s-.079.9759-.238 1.355c-.155.3791-.372.6717-.653.8776-.281.2059-.609.3089-.983.3089Zm-1.271-2.5415c0 .3183.033.6061.098.8635.071.2528.166.4658.288.6389l1.362-3.377c-.145-.0795-.304-.1193-.477-.1193-.248 0-.468.0819-.66.2457-.192.1592-.342.3885-.449.6881-.108.2948-.162.6482-.162 1.0601Zm1.271 2.0009c.248 0 .468-.0796.66-.2387.192-.1638.341-.3955.449-.6951.108-.2995.162-.6552.162-1.0671 0-.3183-.036-.6038-.106-.8565-.065-.2575-.159-.4728-.281-.646l-1.369 3.3841c.15.0795.312.1193.485.1193Zm4.813.4564V71.858h-2.352v-.4564l2.24-3.3208h.702v3.2436h.702v.5336h-.702v1.1374h-.59Zm-1.692-1.671h1.72v-2.5555l-1.72 2.5555Zm4.4 1.671 1.916-4.381h-2.682v-.5336h3.293v.4704l-1.903 4.4442h-.624Zm3.521 0v-.4634c.506-.4025.946-.7723 1.32-1.1093.379-.337.672-.6623.878-.9759.206-.3136.309-.6342.309-.9618 0-.2949-.085-.5266-.253-.6951-.164-.1732-.386-.2598-.667-.2598-.215 0-.398.0469-.548.1405-.149.0936-.262.2176-.337.3721-.075.1544-.112.3206-.112.4984h-.583c.005-.3229.075-.5991.211-.8284.14-.234.328-.4119.562-.5336.238-.1217.507-.1825.807-.1825.482 0 .856.1334 1.123.4002.267.2667.4.6248.4 1.0741 0 .2949-.063.5781-.189.8495-.126.2668-.295.5243-.506.7723-.21.2481-.447.4868-.709.7161-.262.2294-.526.4494-.793.66h2.331v.5266h-3.244Zm6.4 0V71.858h-2.351v-.4564l2.239-3.3208h.702v3.2436h.702v.5336h-.702v1.1374h-.59Zm-1.692-1.671h1.721v-2.5555l-1.721 2.5555ZM223.493 87.1211c-.3 0-.567-.0585-.801-.1755-.229-.1217-.414-.2832-.554-.4844-.136-.206-.216-.4353-.239-.6881h.569c.042.2481.152.447.33.5968.182.1451.414.2176.695.2176.37 0 .671-.1661.905-.4984.235-.337.368-.8613.401-1.5727h-.042c-.127.22-.288.4002-.485.5406-.196.1404-.473.2106-.828.2106-.295 0-.56-.0678-.794-.2036-.234-.1357-.421-.3229-.561-.5616-.136-.2387-.204-.5102-.204-.8144 0-.2996.066-.5734.197-.8215.135-.2527.325-.454.568-.6038.248-.1497.536-.2246.864-.2246.618 0 1.079.2106 1.383.6318.304.4213.456.9947.456 1.7201 0 .5383-.072 1.0134-.217 1.4252-.145.4073-.356.7279-.632.9619-.276.2293-.613.344-1.011.344Zm.063-2.3871c.328 0 .59-.1029.786-.3089.197-.2059.295-.4633.295-.7723 0-.3089-.098-.5663-.295-.7722-.196-.206-.458-.309-.786-.309s-.59.103-.786.309c-.192.2059-.288.4633-.288.7722 0 .3136.096.5734.288.7794.196.2012.458.3018.786.3018Zm4.231 2.3871c-.37 0-.698-.103-.983-.3089-.281-.2059-.501-.4985-.66-.8776-.155-.3791-.232-.8308-.232-1.355s.077-.9759.232-1.355c.159-.3791.379-.6717.66-.8776.285-.206.613-.3089.983-.3089.374 0 .702.1029.983.3089.281.2059.498.4985.653.8776.159.3791.238.8308.238 1.355s-.079.9759-.238 1.355c-.155.3791-.372.6717-.653.8776-.281.2059-.609.3089-.983.3089Zm-1.271-2.5415c0 .3183.033.6061.098.8635.071.2528.166.4658.288.6389l1.362-3.377c-.145-.0795-.304-.1193-.477-.1193-.248 0-.468.0819-.66.2457-.192.1592-.342.3885-.449.6881-.108.2948-.162.6482-.162 1.0601Zm1.271 2.0009c.248 0 .468-.0796.66-.2387.192-.1638.341-.3955.449-.695.108-.2996.162-.6553.162-1.0672 0-.3183-.036-.6038-.106-.8565-.065-.2575-.159-.4728-.281-.646l-1.369 3.3841c.15.0795.312.1193.485.1193Zm4.813.4564v-1.1374h-2.352v-.4564l2.24-3.3208h.702v3.2436h.702v.5336h-.702v1.1374h-.59Zm-1.692-1.671h1.72v-2.5555l-1.72 2.5555Zm4.4 1.671 1.916-4.381h-2.682v-.5336h3.293v.4704l-1.903 4.4442h-.624Zm3.521 0v-.4634c.506-.4025.946-.7723 1.32-1.1093.379-.337.672-.6623.878-.9759.206-.3136.309-.6342.309-.9618 0-.2949-.085-.5266-.253-.6951-.164-.1732-.386-.2598-.667-.2598-.215 0-.398.0469-.548.1405-.149.0936-.262.2176-.337.3721-.075.1544-.112.3206-.112.4984h-.583c.005-.3229.075-.5991.211-.8284.14-.234.328-.4119.562-.5336.238-.1217.507-.1825.807-.1825.482 0 .856.1334 1.123.4002.267.2667.4.6248.4 1.0741 0 .2949-.063.5781-.189.8495-.126.2668-.295.5243-.506.7723-.21.2481-.447.4868-.709.7162-.262.2293-.526.4493-.793.6599h2.331v.5266h-3.244Zm6.4 0v-1.1374h-2.351v-.4564l2.239-3.3208h.702v3.2436h.702v.5336h-.702v1.1374h-.59Zm-1.692-1.671h1.721v-2.5555l-1.721 2.5555ZM223.493 101.163c-.3 0-.567-.059-.801-.176-.229-.121-.414-.283-.554-.484-.136-.206-.216-.436-.239-.6882h.569c.042.2482.152.4472.33.5972.182.145.414.217.695.217.37 0 .671-.166.905-.498.235-.3373.368-.8615.401-1.573h-.042c-.127.22-.288.4002-.485.5406-.196.1404-.473.2107-.828.2107-.295 0-.56-.0679-.794-.2036-.234-.1358-.421-.323-.561-.5617-.136-.2387-.204-.5102-.204-.8144 0-.2996.066-.5734.197-.8215.135-.2527.325-.454.568-.6037.248-.1498.536-.2247.864-.2247.618 0 1.079.2106 1.383.6319.304.4212.456.9946.456 1.7201 0 .5382-.072 1.0133-.217 1.4252-.145.4071-.356.7281-.632.9621-.276.229-.613.344-1.011.344Zm.063-2.3873c.328 0 .59-.103.786-.3089.197-.206.295-.4634.295-.7723s-.098-.5664-.295-.7723c-.196-.206-.458-.3089-.786-.3089s-.59.1029-.786.3089c-.192.2059-.288.4634-.288.7723 0 .3136.096.5733.288.7793.196.2012.458.3019.786.3019Zm4.231 2.3873c-.37 0-.698-.103-.983-.309-.281-.206-.501-.499-.66-.8778-.155-.3791-.232-.8308-.232-1.355s.077-.9759.232-1.355c.159-.3791.379-.6716.66-.8776.285-.2059.613-.3089.983-.3089.374 0 .702.103.983.3089.281.206.498.4985.653.8776.159.3791.238.8308.238 1.355s-.079.9759-.238 1.355c-.155.3788-.372.6718-.653.8778-.281.206-.609.309-.983.309Zm-1.271-2.5418c0 .3183.033.6061.098.8636.071.2527.166.4657.288.6392l1.362-3.3773c-.145-.0796-.304-.1194-.477-.1194-.248 0-.468.0819-.66.2457-.192.1592-.342.3885-.449.6881-.108.2949-.162.6482-.162 1.0601Zm1.271 2.0008c.248 0 .468-.079.66-.239.192-.163.341-.3951.449-.6946.108-.2996.162-.6553.162-1.0672 0-.3183-.036-.6038-.106-.8565-.065-.2574-.159-.4727-.281-.6459l-1.369 3.3842c.15.079.312.119.485.119Zm4.813.456v-1.1369h-2.352v-.4563l2.24-3.3209h.702v3.2436h.702v.5336h-.702v1.1369h-.59Zm-1.692-1.6705h1.72V96.852l-1.72 2.5555Zm4.4 1.6705 1.916-4.3805h-2.682v-.5336h3.293v.4704l-1.903 4.4437h-.624Zm3.521 0v-.463c.506-.402.946-.7722 1.32-1.1092.379-.337.672-.6623.878-.9759.206-.3135.309-.6342.309-.9618 0-.2949-.085-.5266-.253-.6951-.164-.1731-.386-.2597-.667-.2597-.215 0-.398.0468-.548.1404-.149.0936-.262.2176-.337.3721-.075.1544-.112.3206-.112.4985h-.583c.005-.323.075-.5991.211-.8285.14-.234.328-.4119.562-.5336.238-.1217.507-.1825.807-.1825.482 0 .856.1334 1.123.4002.267.2668.4.6248.4 1.0742 0 .2948-.063.578-.189.8495-.126.2668-.295.5242-.506.7723-.21.248-.447.4867-.709.7161-.262.229-.526.449-.793.66h2.331v.526h-3.244Zm6.4 0v-1.1369h-2.351v-.4563l2.239-3.3209h.702v3.2436h.702v.5336h-.702v1.1369h-.59Zm-1.692-1.6705h1.721V96.852l-1.721 2.5555ZM223.493 115.204c-.3 0-.567-.058-.801-.175-.229-.122-.414-.283-.554-.485-.136-.206-.216-.435-.239-.688h.569c.042.248.152.447.33.597.182.145.414.218.695.218.37 0 .671-.166.905-.499.235-.337.368-.861.401-1.572h-.042c-.127.22-.288.4-.485.54-.196.141-.473.211-.828.211-.295 0-.56-.068-.794-.204-.234-.136-.421-.323-.561-.562-.136-.238-.204-.51-.204-.814 0-.299.066-.573.197-.821.135-.253.325-.454.568-.604.248-.15.536-.225.864-.225.618 0 1.079.211 1.383.632.304.421.456.995.456 1.72 0 .538-.072 1.013-.217 1.425-.145.408-.356.728-.632.962-.276.23-.613.344-1.011.344Zm.063-2.387c.328 0 .59-.103.786-.309.197-.206.295-.463.295-.772s-.098-.566-.295-.772c-.196-.206-.458-.309-.786-.309s-.59.103-.786.309c-.192.206-.288.463-.288.772 0 .314.096.573.288.779.196.202.458.302.786.302Zm4.231 2.387c-.37 0-.698-.103-.983-.309-.281-.206-.501-.498-.66-.877-.155-.379-.232-.831-.232-1.355s.077-.976.232-1.355c.159-.379.379-.672.66-.878.285-.206.613-.309.983-.309.374 0 .702.103.983.309.281.206.498.499.653.878.159.379.238.831.238 1.355s-.079.976-.238 1.355c-.155.379-.372.671-.653.877-.281.206-.609.309-.983.309Zm-1.271-2.541c0 .318.033.606.098.863.071.253.166.466.288.639l1.362-3.377c-.145-.079-.304-.119-.477-.119-.248 0-.468.082-.66.246-.192.159-.342.388-.449.688-.108.294-.162.648-.162 1.06Zm1.271 2.001c.248 0 .468-.08.66-.239.192-.164.341-.396.449-.695.108-.3.162-.655.162-1.067 0-.319-.036-.604-.106-.857-.065-.257-.159-.473-.281-.646l-1.369 3.384c.15.08.312.12.485.12Zm4.813.456v-1.137h-2.352v-.457l2.24-3.321h.702v3.244h.702v.534h-.702v1.137h-.59Zm-1.692-1.671h1.72v-2.556l-1.72 2.556Zm4.4 1.671 1.916-4.381h-2.682v-.534h3.293v.471l-1.903 4.444h-.624Zm3.521 0v-.463c.506-.403.946-.773 1.32-1.11.379-.337.672-.662.878-.976.206-.313.309-.634.309-.961 0-.295-.085-.527-.253-.695-.164-.174-.386-.26-.667-.26-.215 0-.398.047-.548.14-.149.094-.262.218-.337.372-.075.155-.112.321-.112.499h-.583c.005-.323.075-.599.211-.829.14-.234.328-.412.562-.533.238-.122.507-.183.807-.183.482 0 .856.134 1.123.4.267.267.4.625.4 1.075 0 .294-.063.578-.189.849-.126.267-.295.524-.506.772-.21.248-.447.487-.709.716-.262.23-.526.45-.793.66h2.331v.527h-3.244Zm6.4 0v-1.137h-2.351v-.457l2.239-3.321h.702v3.244h.702v.534h-.702v1.137h-.59Zm-1.692-1.671h1.721v-2.556l-1.721 2.556ZM223.493 129.246c-.3 0-.567-.059-.801-.176-.229-.121-.414-.283-.554-.484-.136-.206-.216-.435-.239-.688h.569c.042.248.152.447.33.597.182.145.414.217.695.217.37 0 .671-.166.905-.498.235-.337.368-.861.401-1.573h-.042c-.127.22-.288.4-.485.541-.196.14-.473.21-.828.21-.295 0-.56-.067-.794-.203-.234-.136-.421-.323-.561-.562-.136-.239-.204-.51-.204-.814 0-.3.066-.574.197-.822.135-.252.325-.454.568-.604.248-.149.536-.224.864-.224.618 0 1.079.21 1.383.632.304.421.456.994.456 1.72 0 .538-.072 1.013-.217 1.425-.145.407-.356.728-.632.962-.276.229-.613.344-1.011.344Zm.063-2.387c.328 0 .59-.103.786-.309.197-.206.295-.463.295-.772s-.098-.567-.295-.773c-.196-.206-.458-.309-.786-.309s-.59.103-.786.309c-.192.206-.288.464-.288.773 0 .313.096.573.288.779.196.201.458.302.786.302Zm4.231 2.387c-.37 0-.698-.103-.983-.309-.281-.206-.501-.499-.66-.878-.155-.379-.232-.83-.232-1.355 0-.524.077-.976.232-1.355.159-.379.379-.671.66-.877.285-.206.613-.309.983-.309.374 0 .702.103.983.309.281.206.498.498.653.877.159.379.238.831.238 1.355 0 .525-.079.976-.238 1.355-.155.379-.372.672-.653.878-.281.206-.609.309-.983.309Zm-1.271-2.542c0 .319.033.606.098.864.071.253.166.466.288.639l1.362-3.377c-.145-.08-.304-.12-.477-.12-.248 0-.468.082-.66.246-.192.159-.342.389-.449.688-.108.295-.162.648-.162 1.06Zm1.271 2.001c.248 0 .468-.079.66-.238.192-.164.341-.396.449-.695.108-.3.162-.656.162-1.068 0-.318-.036-.603-.106-.856-.065-.258-.159-.473-.281-.646l-1.369 3.384c.15.079.312.119.485.119Zm4.813.457v-1.138h-2.352v-.456l2.24-3.321h.702v3.244h.702v.533h-.702v1.138h-.59Zm-1.692-1.671h1.72v-2.556l-1.72 2.556Zm4.4 1.671 1.916-4.381h-2.682v-.534h3.293v.47l-1.903 4.445h-.624Zm3.521 0v-.464c.506-.402.946-.772 1.32-1.109.379-.337.672-.662.878-.976.206-.314.309-.634.309-.962 0-.295-.085-.526-.253-.695-.164-.173-.386-.26-.667-.26-.215 0-.398.047-.548.141-.149.093-.262.217-.337.372-.075.154-.112.321-.112.498h-.583c.005-.323.075-.599.211-.828.14-.234.328-.412.562-.534.238-.121.507-.182.807-.182.482 0 .856.133 1.123.4s.4.625.4 1.074c0 .295-.063.578-.189.85-.126.266-.295.524-.506.772-.21.248-.447.487-.709.716-.262.229-.526.449-.793.66h2.331v.527h-3.244Zm6.4 0v-1.138h-2.351v-.456l2.239-3.321h.702v3.244h.702v.533h-.702v1.138h-.59Zm-1.692-1.671h1.721v-2.556l-1.721 2.556ZM223.493 143.287c-.3 0-.567-.058-.801-.175-.229-.122-.414-.283-.554-.485-.136-.206-.216-.435-.239-.688h.569c.042.248.152.447.33.597.182.145.414.218.695.218.37 0 .671-.166.905-.499.235-.337.368-.861.401-1.572h-.042c-.127.22-.288.4-.485.54-.196.141-.473.211-.828.211-.295 0-.56-.068-.794-.204-.234-.135-.421-.323-.561-.561-.136-.239-.204-.511-.204-.815 0-.299.066-.573.197-.821.135-.253.325-.454.568-.604.248-.15.536-.225.864-.225.618 0 1.079.211 1.383.632.304.421.456.995.456 1.72 0 .539-.072 1.014-.217 1.426-.145.407-.356.727-.632.961-.276.23-.613.344-1.011.344Zm.063-2.387c.328 0 .59-.103.786-.309.197-.206.295-.463.295-.772s-.098-.566-.295-.772c-.196-.206-.458-.309-.786-.309s-.59.103-.786.309c-.192.206-.288.463-.288.772 0 .314.096.573.288.779.196.202.458.302.786.302Zm4.231 2.387c-.37 0-.698-.103-.983-.309-.281-.205-.501-.498-.66-.877-.155-.379-.232-.831-.232-1.355s.077-.976.232-1.355c.159-.379.379-.672.66-.878.285-.206.613-.309.983-.309.374 0 .702.103.983.309.281.206.498.499.653.878.159.379.238.831.238 1.355s-.079.976-.238 1.355c-.155.379-.372.672-.653.877-.281.206-.609.309-.983.309Zm-1.271-2.541c0 .318.033.606.098.863.071.253.166.466.288.639l1.362-3.377c-.145-.079-.304-.119-.477-.119-.248 0-.468.082-.66.246-.192.159-.342.388-.449.688-.108.295-.162.648-.162 1.06Zm1.271 2.001c.248 0 .468-.08.66-.239.192-.164.341-.395.449-.695.108-.3.162-.655.162-1.067 0-.318-.036-.604-.106-.857-.065-.257-.159-.472-.281-.646l-1.369 3.384c.15.08.312.12.485.12Zm4.813.456v-1.137h-2.352v-.457l2.24-3.32h.702v3.243h.702v.534h-.702v1.137h-.59Zm-1.692-1.671h1.72v-2.555l-1.72 2.555Zm4.4 1.671 1.916-4.381h-2.682v-.533h3.293v.47l-1.903 4.444h-.624Zm3.521 0v-.463c.506-.403.946-.773 1.32-1.11.379-.337.672-.662.878-.975.206-.314.309-.635.309-.962 0-.295-.085-.527-.253-.695-.164-.174-.386-.26-.667-.26-.215 0-.398.047-.548.14-.149.094-.262.218-.337.372-.075.155-.112.321-.112.499h-.583c.005-.323.075-.599.211-.829.14-.234.328-.411.562-.533.238-.122.507-.183.807-.183.482 0 .856.134 1.123.401.267.266.4.624.4 1.074 0 .295-.063.578-.189.849-.126.267-.295.524-.506.772-.21.249-.447.487-.709.717-.262.229-.526.449-.793.66h2.331v.526h-3.244Zm6.4 0v-1.137h-2.351v-.457l2.239-3.32h.702v3.243h.702v.534h-.702v1.137h-.59Zm-1.692-1.671h1.721v-2.555l-1.721 2.555ZM293.249 60.3579c-.318 0-.568-.0772-.751-.2317-.182-.1544-.274-.4329-.274-.8354v-1.9097h-.884v-.5055h.526c.239 0 .377-.117.415-.351l.098-.5406h.435v.8916h1.39v.5055h-1.39v1.9097c0 .1965.045.3346.133.4142.094.0795.253.1193.478.1193h.779v.5336h-.955Zm3.803-4.1001c-.141 0-.258-.0468-.351-.1404-.094-.0937-.141-.206-.141-.337 0-.1358.047-.2481.141-.337.093-.0936.21-.1405.351-.1405.136 0 .25.0469.344.1405.098.0889.147.2012.147.337 0 .131-.049.2433-.147.337-.094.0936-.208.1404-.344.1404Zm-1.362 4.1001v-.5055h1.109v-2.2958c0-.117-.058-.1755-.175-.1755h-.815v-.5055h.955c.417 0 .625.2083.625.6249v2.3519h1.109v.5055h-2.808Zm5.979 0c-.318 0-.569-.0772-.751-.2317-.183-.1544-.274-.4329-.274-.8354v-1.9097h-.885v-.5055h.527c.238 0 .377-.117.414-.351l.098-.5406h.436v.8916h1.39v.5055h-1.39v1.9097c0 .1965.044.3346.133.4142.094.0795.253.1193.477.1193h.78v.5336h-.955Zm2.265 0v-.5055h1.186V55.984c0-.117-.058-.1756-.175-.1756h-.885v-.5055h1.025c.201 0 .356.0539.464.1615.107.1077.161.2621.161.4634v3.9246h1.187v.5055h-2.963Zm5.824.0843c-.327 0-.618-.0749-.87-.2247-.248-.1545-.445-.3674-.59-.6389-.145-.2761-.218-.5968-.218-.9618 0-.3651.071-.6834.211-.9549.145-.2761.344-.4891.597-.6389.252-.1544.547-.2316.884-.2316.337 0 .625.0772.864.2316.239.1498.421.3487.548.5968.126.2481.189.5149.189.8004 0 .0515-.002.1029-.007.1544v.1756h-2.703c.014.2574.073.4727.176.6459.107.1685.241.2948.4.3791.164.0842.337.1264.519.1264.258 0 .459-.0539.604-.1615.145-.1077.255-.2574.33-.4493h.583c-.08.3229-.246.5967-.499.8214-.252.22-.592.33-1.018.33Zm0-3.1243c-.271 0-.51.0819-.716.2457-.201.1639-.325.3932-.372.6881h2.12c-.018-.2902-.124-.5172-.316-.681-.187-.1685-.425-.2528-.716-.2528ZM292.94 73.0796c-.313 0-.594-.0725-.842-.2176-.243-.1451-.438-.3534-.583-.6249-.145-.2761-.217-.6038-.217-.9829s.072-.7044.217-.9759c.145-.2761.342-.4868.59-.6319.253-.145.531-.2176.835-.2176.431 0 .775.1077 1.033.323.257.2153.421.5031.491.8635h-.604c-.056-.1919-.164-.344-.323-.4563-.159-.117-.36-.1756-.604-.1756-.177 0-.346.0469-.505.1405-.159.0936-.288.234-.386.4212-.098.1872-.148.4236-.148.7091s.05.5242.148.7161c.098.1872.227.3277.386.4213.159.0936.328.1404.505.1404.258 0 .461-.0585.611-.1755.155-.117.26-.2715.316-.4634h.604c-.089.3698-.264.66-.527.8706-.257.2106-.589.3159-.997.3159Zm4.154 0c-.328 0-.618-.0749-.871-.2247-.252-.1497-.451-.3604-.596-.6318-.145-.2762-.218-.5991-.218-.9689s.073-.6904.218-.9618c.145-.2762.344-.4892.596-.6389.253-.1498.543-.2247.871-.2247.328 0 .618.0749.871.2247.252.1497.451.3627.596.6389.145.2714.218.592.218.9618s-.073.6927-.218.9689c-.145.2714-.344.4821-.596.6318-.253.1498-.543.2247-.871.2247Zm0-.5617c.201 0 .384-.0444.548-.1333.163-.089.292-.2271.386-.4143.098-.1872.147-.4259.147-.7161 0-.2902-.049-.5289-.147-.7161-.094-.1872-.223-.3253-.386-.4142-.164-.089-.347-.1334-.548-.1334-.197 0-.377.0444-.541.1334-.163.0889-.294.227-.393.4142-.098.1872-.147.4259-.147.7161 0 .4353.105.7559.316.9619.21.2012.465.3018.765.3018Zm3.964.5617c-.421 0-.739-.1264-.955-.3791-.215-.2528-.323-.6178-.323-1.0953v-2.0921h.59v2.0219c0 .309.068.5523.204.7302.14.1732.351.2598.631.2598.281 0 .518-.0936.71-.2809.191-.1919.287-.4657.287-.8214v-1.9096h.59v3.4823h-.491l-.063-.5266h-.036c-.093.1685-.241.3136-.442.4353-.201.117-.435.1755-.702.1755Zm4.512 0c-.314 0-.595-.0725-.843-.2176-.243-.1451-.437-.3534-.583-.6249-.145-.2761-.217-.6038-.217-.9829s.072-.7044.217-.9759c.146-.2761.342-.4868.59-.6319.253-.145.531-.2176.836-.2176.43 0 .774.1077 1.032.323.257.2153.421.5031.491.8635h-.604c-.056-.1919-.163-.344-.323-.4563-.159-.117-.36-.1756-.603-.1756-.178 0-.347.0469-.506.1405-.159.0936-.288.234-.386.4212-.098.1872-.147.4236-.147.7091s.049.5242.147.7161c.098.1872.227.3277.386.4213.159.0936.328.1404.506.1404.257 0 .461-.0585.61-.1755.155-.117.26-.2715.316-.4634h.604c-.089.3698-.264.66-.526.8706-.258.2106-.59.3159-.997.3159Zm4.153 0c-.327 0-.618-.0749-.87-.2247-.253-.1497-.452-.3604-.597-.6318-.145-.2762-.218-.5991-.218-.9689s.073-.6904.218-.9618c.145-.2762.344-.4892.597-.6389.252-.1498.543-.2247.87-.2247.328 0 .618.0749.871.2247.253.1497.451.3627.597.6389.145.2714.217.592.217.9618s-.072.6927-.217.9689c-.146.2714-.344.4821-.597.6318-.253.1498-.543.2247-.871.2247Zm0-.5617c.201 0 .384-.0444.548-.1333.164-.089.292-.2271.386-.4143.098-.1872.147-.4259.147-.7161 0-.2902-.049-.5289-.147-.7161-.094-.1872-.222-.3253-.386-.4142-.164-.089-.347-.1334-.548-.1334-.196 0-.377.0444-.54.1334-.164.0889-.295.227-.394.4142-.098.1872-.147.4259-.147.7161 0 .4353.105.7559.316.9619.211.2012.466.3018.765.3018Zm3.964.5617c-.421 0-.739-.1264-.955-.3791-.215-.2528-.323-.6178-.323-1.0953v-2.0921h.59v2.0219c0 .309.068.5523.204.7302.14.1732.351.2598.632.2598.28 0 .517-.0936.709-.2809.192-.1919.288-.4657.288-.8214v-1.9096h.589v3.4823h-.491l-.063-.5266h-.035c-.094.1685-.241.3136-.443.4353-.201.117-.435.1755-.702.1755ZM291.389 87.0369v-4.9146h.59v4.381h2.492v.5336h-3.082Zm5.74.0842c-.327 0-.618-.0749-.87-.2247-.249-.1544-.445-.3674-.59-.6388-.145-.2762-.218-.5968-.218-.9619s.07-.6833.211-.9548c.145-.2762.344-.4891.597-.6389.252-.1545.547-.2317.884-.2317.337 0 .625.0772.864.2317.238.1498.421.3487.547.5968.127.248.19.5148.19.8003 0 .0515-.002.103-.007.1545v.1755h-2.703c.014.2574.072.4727.175.6459.108.1685.241.2949.401.3791.163.0843.337.1264.519.1264.258 0 .459-.0538.604-.1615.145-.1076.255-.2574.33-.4493h.583c-.08.323-.246.5968-.499.8214-.253.22-.592.33-1.018.33Zm0-3.1242c-.271 0-.51.0819-.716.2457-.201.1638-.325.3932-.372.688h2.12c-.019-.2902-.124-.5172-.316-.681-.187-.1685-.426-.2527-.716-.2527Zm3.88 3.1242c-.276 0-.506-.0491-.688-.1474-.183-.0983-.318-.227-.407-.3862-.089-.1638-.134-.3416-.134-.5335 0-.3558.129-.6249.386-.8074.263-.1873.611-.2809 1.046-.2809h.955v-.0702c0-.6084-.278-.9127-.835-.9127-.225 0-.414.0492-.569.1475-.15.0983-.246.2527-.288.4633h-.603c.023-.234.1-.4353.231-.6038.136-.1685.309-.2972.52-.3861.21-.0889.447-.1334.709-.1334.496 0 .856.1311 1.081.3932.229.2574.344.6014.344 1.032v2.1414h-.505l-.05-.5406h-.049c-.103.1685-.241.3159-.414.4423-.168.1217-.412.1825-.73.1825Zm.105-.5195c.225 0 .414-.0538.569-.1615.159-.1077.278-.2504.358-.4283.084-.1778.126-.3721.126-.5827h-.905c-.319 0-.543.0538-.674.1615-.127.1076-.19.2504-.19.4283 0 .1825.061.3252.183.4282.121.103.299.1545.533.1545Zm2.883.4353v-.5055h.892v-2.2958c0-.117-.057-.1755-.169-.1755h-.632v-.5055h.85c.154 0 .278.0421.372.1263.093.0843.14.2083.14.3721v.1475h.028c.057-.2341.162-.4143.316-.5406.159-.1264.379-.1896.66-.1896h.639v.6249h-.723c-.285 0-.505.0959-.66.2878-.154.1872-.232.4283-.232.7232v1.4252h1.096v.5055h-2.577Zm4.238 0v-3.4823h.491l.063.5265h.036c.093-.1685.241-.3112.442-.4283.201-.1216.433-.1825.695-.1825.426 0 .744.1264.955.3791.215.2528.323.6179.323 1.0953v2.0922h-.59v-2.022c0-.3089-.068-.55-.204-.7232-.135-.1778-.346-.2667-.632-.2667-.276 0-.51.0959-.702.2878-.191.1872-.287.4587-.287.8144v1.9097h-.59Zm8.202 0v-4.9146h.603l2.233 3.8825v-3.8825h.583v4.9146h-.611l-2.233-3.8825v3.8825h-.575Zm5.67.0842c-.422 0-.74-.1264-.955-.3791-.215-.2528-.323-.6178-.323-1.0952v-2.0922h.59v2.0219c0 .309.067.5523.203.7302.141.1732.351.2598.632.2598s.517-.0936.709-.2809c.192-.1919.288-.4657.288-.8214v-1.9096h.59v3.4823h-.492l-.063-.5266h-.035c-.094.1685-.241.3136-.442.4353-.202.117-.436.1755-.702.1755Zm2.861-.0842 1.187-1.7412-1.215-1.7411h.653l.969 1.4041.969-1.4041h.653l-1.215 1.7411 1.187 1.7412h-.653l-.941-1.4112-.948 1.4112h-.646Zm6.169 0c-.318 0-.569-.0773-.751-.2317-.183-.1545-.274-.433-.274-.8355v-1.9096h-.885v-.5055h.527c.239 0 .377-.1171.414-.3511l.098-.5406h.436v.8917h1.39v.5055h-1.39v1.9096c0 .1966.044.3347.133.4142.094.0796.253.1194.477.1194h.78v.5336h-.955ZM291.241 101.078v-4.9141h1.636c.51 0 .894.1171 1.152.3511.257.234.386.5336.386.8986 0 .2856-.077.5219-.232.7091-.154.1826-.327.3113-.519.3862v.0491c.229.0749.43.2107.603.4072.174.1966.26.4494.26.7583 0 .2527-.063.4825-.189.6885-.122.201-.302.362-.541.484-.234.122-.522.182-.864.182h-1.692Zm.59-2.7938h1.004c.314 0 .552-.0678.716-.2036.169-.1404.253-.3417.253-.6038 0-.248-.082-.4399-.246-.5757-.164-.1357-.412-.2036-.744-.2036h-.983v1.5867Zm0 2.2538h1.039c.337 0 .597-.075.78-.225.182-.154.273-.3695.273-.6457 0-.2761-.096-.4891-.287-.6389-.192-.1544-.452-.2317-.78-.2317h-1.025v1.7413Zm5.017.625c-.421 0-.739-.127-.955-.379-.215-.253-.322-.618-.322-1.0956v-2.0922h.589v2.022c0 .3089.068.5518.204.7298.14.174.351.26.632.26s.517-.094.709-.281c.192-.192.288-.4654.288-.8212v-1.9096h.589v3.4818h-.491l-.063-.526h-.035c-.094.168-.241.314-.443.435-.201.117-.435.176-.702.176Zm4.414-4.1846c-.141 0-.258-.0468-.351-.1405-.094-.0936-.141-.2059-.141-.337 0-.1357.047-.248.141-.337.093-.0936.21-.1404.351-.1404.135 0 .25.0468.344.1404.098.089.147.2013.147.337 0 .1311-.049.2434-.147.337-.094.0937-.209.1405-.344.1405Zm-1.362 4.0996v-.505h1.109v-2.2958c0-.117-.059-.1755-.176-.1755h-.814v-.5055h.955c.416 0 .625.2083.625.6248v2.352h1.109v.505H299.9Zm4.034 0v-.505h1.186v-3.8685c0-.117-.058-.1755-.175-.1755h-.885v-.5055h1.025c.201 0 .356.0539.464.1615.107.1077.161.2621.161.4634v3.9246h1.187v.505h-2.963Zm5.67.085c-.295 0-.559-.07-.793-.211-.23-.14-.41-.346-.541-.618-.131-.276-.197-.6105-.197-1.0037 0-.3885.066-.7184.197-.9899.131-.2715.311-.4774.541-.6178.234-.1405.498-.2107.793-.2107.276 0 .503.0539.681.1615.182.1077.318.2481.407.4213v-2.0712h.59v5.0545h-.485l-.063-.54h-.042c-.094.192-.232.344-.414.456-.183.113-.407.169-.674.169Zm.077-.562c.295 0 .538-.103.73-.309.192-.21.288-.5287.288-.9547 0-.4259-.096-.7418-.288-.9478-.192-.2106-.435-.3159-.73-.3159s-.538.1053-.73.3159c-.187.206-.281.5219-.281.9478 0 .426.094.7447.281.9547.192.206.435.309.73.309ZM291.298 115.12v-4.915h1.635c.375 0 .681.068.92.204.239.136.414.316.527.541.112.224.168.472.168.744 0 .271-.056.519-.168.744-.113.225-.288.405-.527.541-.239.135-.545.203-.92.203h-1.046v1.938h-.589Zm.589-2.478h1.032c.347 0 .604-.087.773-.26.168-.178.252-.407.252-.688 0-.281-.084-.51-.252-.688-.169-.178-.426-.267-.773-.267h-1.032v1.903Zm3.691 2.478v-.506h.891v-2.295c0-.117-.056-.176-.168-.176h-.632v-.505h.849c.155 0 .279.042.372.126.094.084.141.208.141.372v.148h.028c.056-.234.161-.415.316-.541.159-.126.379-.19.66-.19h.639v.625h-.723c-.286 0-.506.096-.66.288-.155.187-.232.428-.232.723v1.425h1.095v.506h-2.576Zm5.726.084c-.328 0-.618-.075-.871-.224-.253-.15-.451-.361-.597-.632-.145-.276-.217-.599-.217-.969s.072-.691.217-.962c.146-.276.344-.489.597-.639.253-.15.543-.225.871-.225.327 0 .618.075.87.225.253.15.452.363.597.639.145.271.218.592.218.962s-.073.693-.218.969c-.145.271-.344.482-.597.632-.252.149-.543.224-.87.224Zm0-.561c.201 0 .384-.045.547-.134.164-.089.293-.227.387-.414.098-.187.147-.426.147-.716s-.049-.529-.147-.716c-.094-.187-.223-.326-.387-.415-.163-.088-.346-.133-.547-.133-.197 0-.377.045-.541.133-.164.089-.295.228-.393.415-.098.187-.147.426-.147.716 0 .435.105.756.315.962.211.201.466.302.766.302Zm2.749 2.022v-.541h.428c.178 0 .305-.035.38-.105.074-.071.112-.195.112-.372v-3.504h-.864v-.505h.864v-.555c0-.36.086-.62.26-.779.173-.159.435-.239.786-.239h.835v.534h-.8c-.173 0-.299.037-.379.112-.075.07-.112.194-.112.372v.555h1.291v.505h-1.291v3.504c0 .36-.087.62-.26.779-.173.159-.433.239-.779.239h-.471Zm5.628-5.645c-.14 0-.257-.047-.351-.141-.094-.093-.14-.205-.14-.337 0-.135.046-.248.14-.337.094-.093.211-.14.351-.14.136 0 .25.047.344.14.098.089.148.202.148.337 0 .132-.05.244-.148.337-.094.094-.208.141-.344.141Zm-1.362 4.1v-.506h1.109v-2.295c0-.117-.058-.176-.175-.176h-.815v-.505h.955c.417 0 .625.208.625.625v2.351h1.109v.506h-2.808Zm5.979 0c-.318 0-.569-.077-.751-.232-.183-.154-.274-.433-.274-.835v-1.91h-.885v-.505h.527c.239 0 .377-.117.414-.351l.098-.541h.436v.892h1.39v.505h-1.39v1.91c0 .196.044.334.133.414.094.08.253.119.478.119h.779v.534h-.955ZM291.389 129.162v-4.915h.59v4.381h2.492v.534h-3.082Zm5.74.084c-.327 0-.618-.075-.87-.225-.249-.154-.445-.367-.59-.639-.145-.276-.218-.596-.218-.962 0-.365.07-.683.211-.954.145-.277.344-.489.597-.639.252-.155.547-.232.884-.232.337 0 .625.077.864.232.238.15.421.348.547.597.127.248.19.514.19.8 0 .051-.002.103-.007.154v.176h-2.703c.014.257.072.473.175.646.108.168.241.295.401.379.163.084.337.126.519.126.258 0 .459-.054.604-.161.145-.108.255-.258.33-.45h.583c-.08.323-.246.597-.499.822-.253.22-.592.33-1.018.33Zm0-3.124c-.271 0-.51.082-.716.245-.201.164-.325.394-.372.688h2.12c-.019-.29-.124-.517-.316-.681-.187-.168-.426-.252-.716-.252Zm3.88 3.124c-.276 0-.506-.049-.688-.148-.183-.098-.318-.227-.407-.386-.089-.164-.134-.341-.134-.533 0-.356.129-.625.386-.808.263-.187.611-.281 1.046-.281h.955v-.07c0-.608-.278-.912-.835-.912-.225 0-.414.049-.569.147-.15.098-.246.253-.288.463h-.603c.023-.234.1-.435.231-.603.136-.169.309-.298.52-.387.21-.088.447-.133.709-.133.496 0 .856.131 1.081.393.229.258.344.602.344 1.032v2.142h-.505l-.05-.541h-.049c-.103.169-.241.316-.414.442-.168.122-.412.183-.73.183Zm.105-.52c.225 0 .414-.053.569-.161.159-.108.278-.251.358-.428.084-.178.126-.373.126-.583h-.905c-.319 0-.543.054-.674.161-.127.108-.19.251-.19.429 0 .182.061.325.183.428.121.103.299.154.533.154Zm2.883.436v-.506h.892v-2.296c0-.117-.057-.175-.169-.175h-.632v-.506h.85c.154 0 .278.042.372.127.093.084.14.208.14.372v.147h.028c.057-.234.162-.414.316-.54.159-.127.379-.19.66-.19h.639v.625h-.723c-.285 0-.505.096-.66.288-.154.187-.232.428-.232.723v1.425h1.096v.506h-2.577Zm4.238 0v-3.483h.491l.063.527h.036c.093-.169.241-.311.442-.428.201-.122.433-.183.695-.183.426 0 .744.126.955.379.215.253.323.618.323 1.095v2.093h-.59v-2.022c0-.309-.068-.55-.204-.724-.135-.177-.346-.266-.632-.266-.276 0-.51.096-.702.288-.191.187-.287.458-.287.814v1.91h-.59ZM291.241 143.203v-4.914h1.636c.51 0 .894.117 1.152.351.257.234.386.533.386.898 0 .286-.077.522-.232.709-.154.183-.327.312-.519.387v.049c.229.075.43.21.603.407.174.196.26.449.26.758 0 .253-.063.482-.189.688-.122.201-.302.363-.541.485-.234.121-.522.182-.864.182h-1.692Zm.59-2.794h1.004c.314 0 .552-.068.716-.204.169-.14.253-.341.253-.604 0-.248-.082-.44-.246-.575-.164-.136-.412-.204-.744-.204h-.983v1.587Zm0 2.254h1.039c.337 0 .597-.075.78-.225.182-.155.273-.37.273-.646s-.096-.489-.287-.639c-.192-.154-.452-.232-.78-.232h-1.025v1.742Zm5.017.624c-.421 0-.739-.126-.955-.379-.215-.252-.322-.618-.322-1.095v-2.092h.589v2.022c0 .309.068.552.204.73.14.173.351.26.632.26s.517-.094.709-.281c.192-.192.288-.466.288-.822v-1.909h.589v3.482h-.491l-.063-.526h-.035c-.094.168-.241.313-.443.435-.201.117-.435.175-.702.175Zm4.414-4.184c-.141 0-.258-.047-.351-.14-.094-.094-.141-.206-.141-.337 0-.136.047-.248.141-.337.093-.094.21-.141.351-.141.135 0 .25.047.344.141.098.089.147.201.147.337 0 .131-.049.243-.147.337-.094.093-.209.14-.344.14Zm-1.362 4.1v-.505h1.109v-2.296c0-.117-.059-.176-.176-.176h-.814v-.505h.955c.416 0 .625.208.625.625v2.352h1.109v.505H299.9Zm4.034 0v-.505h1.186v-3.869c0-.117-.058-.175-.175-.175h-.885v-.506h1.025c.201 0 .356.054.464.162.107.107.161.262.161.463v3.925h1.187v.505h-2.963Zm5.67.084c-.295 0-.559-.07-.793-.21-.23-.141-.41-.347-.541-.618-.131-.276-.197-.611-.197-1.004 0-.389.066-.719.197-.99s.311-.477.541-.618c.234-.14.498-.21.793-.21.276 0 .503.053.681.161.182.108.318.248.407.421v-2.071h.59v5.055h-.485l-.063-.54h-.042c-.094.191-.232.344-.414.456-.183.112-.407.168-.674.168Zm.077-.561c.295 0 .538-.103.73-.309.192-.211.288-.529.288-.955 0-.426-.096-.742-.288-.948-.192-.21-.435-.316-.73-.316s-.538.106-.73.316c-.187.206-.281.522-.281.948 0 .426.094.744.281.955.192.206.435.309.73.309Z"/><rect width="8.42494" height="8.42494" x="15.7216" y="35.1039" fill="#475569" rx="1.40416"/><rect width="8.42494" height="8.42494" x="137.168" y="33.6997" fill="#475569" rx="1.40416"/><rect width="30.8914" height="2.80831" x="29.7632" y="37.9122" fill="#475569" rx="1.40416"/><rect width="18.254" height="2.80831" x="254.535" y="36.5081" fill="#475569" rx="1.40416"/><rect width="5.61662" height="5.61662" x="15.7216" y="81.441" fill="#475569" rx="1.40416"/><rect width="58.9746" height="2.80831" x="25.5508" y="82.8452" fill="#475569" rx="1.40416"/><rect width="37.9122" height="2.80831" x="17.1259" y="63.8891" fill="#475569" rx="1.40416"/><path stroke="url(#f)" stroke-opacity=".08" stroke-width=".702078" d="M129.094 25.9769V292.064"/><path stroke="#E2E8F0" stroke-opacity=".08" stroke-width=".702078" d="M129.445 50.5496H579.1"/><path fill="#E2E8F0" fill-opacity=".08" fill-rule="evenodd" d="M143.358 64.2401V50.5496h.702v13.6905h71.581V50.5496h.702v13.6905h68.162V50.5496h.703v13.6905h68.162V50.5496h.703v13.6905h77.468V50.5496h.703v13.6905h84.913V50.5496h.702v98.6374h-.351v.005H129.445v-.703h13.913V135.15h-13.913v-.702h13.913v-13.34h-13.913v-.702h13.913v-13.339h-13.912v-.702h13.912V93.0253h-13.913v-.7021h13.913V78.9837h-13.913v-.7021h13.913V64.9422h-13.913v-.7021h13.913Zm.702 84.2489h71.581V135.15H144.06v13.339Zm72.283 0h68.162V135.15h-68.162v13.339Zm68.865 0h68.162V135.15h-68.162v13.339Zm68.865 0h77.468V135.15h-77.468v13.339Zm78.171 0h84.913V135.15h-84.913v13.339Zm84.913-27.381v13.34h-84.913v-13.34h84.913Zm-85.616 0v13.34h-77.468v-13.34h77.468Zm-78.171 0v13.34h-68.162v-13.34h68.162Zm-68.865 0v13.34h-68.162v-13.34h68.162Zm-68.864 0v13.34H144.06v-13.34h71.581Zm-71.581-.702h71.581v-13.339H144.06v13.339Zm72.283 0h68.162v-13.339h-68.162v13.339Zm68.865 0h68.162v-13.339h-68.162v13.339Zm68.865 0h77.468v-13.339h-77.468v13.339Zm78.171 0h84.913v-13.339h-84.913v13.339Zm84.913-27.3807v13.3397h-84.913V93.0253h84.913Zm-85.616 0v13.3397h-77.468V93.0253h77.468Zm-78.171 0v13.3397h-68.162V93.0253h68.162Zm-68.865 0v13.3397h-68.162V93.0253h68.162Zm-68.864 0v13.3397H144.06V93.0253h71.581Zm-71.581-.7021h71.581V78.9837H144.06v13.3395Zm72.283 0h68.162V78.9837h-68.162v13.3395Zm68.865 0h68.162V78.9837h-68.162v13.3395Zm68.865 0h77.468V78.9837h-77.468v13.3395Zm78.171 0h84.913V78.9837h-84.913v13.3395Zm84.913-27.381v13.3394h-84.913V64.9422h84.913Zm-85.616 0v13.3394h-77.468V64.9422h77.468Zm-78.171 0v13.3394h-68.162V64.9422h68.162Zm-68.865 0v13.3394h-68.162V64.9422h68.162Zm-68.864 0v13.3394H144.06V64.9422h71.581Z" clip-rule="evenodd"/><path stroke="#E2E8F0" stroke-opacity=".08" stroke-width=".702078" d="M133.307 55.1131h4.91455v4.91455H133.307z"/><rect width="104.61" height="16.1478" x="10.4561" y="31.2425" stroke="#E2E8F0" stroke-opacity=".08" stroke-width=".702078" rx="2.45727"/><rect width="13.3395" height="13.3395" x="134.711" y="31.2425" stroke="#E2E8F0" stroke-opacity=".08" stroke-width=".702078" rx="2.45727"/><rect width="8.42494" height="8.42494" x="184.909" y="33.6997" fill="#475569" rx="1.40416"/><rect width="13.3395" height="13.3395" x="182.452" y="31.2425" stroke="#E2E8F0" stroke-opacity=".08" stroke-width=".702078" rx="2.45727"/><rect width="8.42494" height="8.42494" x="542.573" y="33.6997" fill="#475569" rx="1.40416"/><rect width="13.3395" height="13.3395" x="540.116" y="31.2425" stroke="#E2E8F0" stroke-opacity=".08" stroke-width=".702078" rx="2.45727"/><rect width="8.42494" height="8.42494" x="559.423" y="33.6997" fill="#475569" rx="1.40416"/><rect width="8.42494" height="8.42494" x="543.713" y="9.8291" fill="#475569" rx="1.40416"/><rect width="8.42494" height="8.42494" x="560.562" y="9.8291" fill="#475569" rx="1.40416"/><rect width="13.3395" height="13.3395" x="556.966" y="31.2425" stroke="#E2E8F0" stroke-opacity=".08" stroke-width=".702078" rx="2.45727"/><rect width="8.42494" height="8.42494" x="243.302" y="33.6997" fill="#475569" rx="1.40416"/><rect width="38.6143" height="13.3395" x="239.44" y="31.2425" stroke="#E2E8F0" stroke-opacity=".08" stroke-width=".702078" rx="2.45727"/><rect width="26.679" height="2.80831" x="308.052" y="36.5081" fill="#475569" rx="1.40416"/><rect width="8.42494" height="8.42494" x="296.819" y="33.6997" fill="#475569" rx="1.40416"/><rect width="47.0392" height="13.3395" x="292.958" y="31.2425" stroke="#E2E8F0" stroke-opacity=".08" stroke-width=".702078" rx="2.45727"/><rect width="42.1247" height="14.0416" x="354.548" y="30.8914" fill="#334155" fill-opacity=".28" rx="2.80831"/><rect width="8.42494" height="8.42494" x="155.422" y="33.6997" fill="#475569" rx="1.40416"/><rect width="8.42494" height="8.42494" x="168.761" y="33.6997" fill="#475569" rx="1.40416"/><path fill="#E2E8F0" fill-opacity=".08" fill-rule="evenodd" d="M179.995 42.1247v-8.425c0-1.551-1.257-2.8083-2.808-2.8083h-21.765c-1.551 0-2.808 1.2574-2.808 2.8084v8.4249c0 1.551 1.257 2.8083 2.808 2.8083h21.765c1.551 0 2.808-1.2573 2.808-2.8083Zm-13.34 2.1062V31.5935h10.532c1.163 0 2.106.943 2.106 2.1062v8.425c0 1.1632-.943 2.1062-2.106 2.1062h-10.532Zm-11.233-12.6374h10.531v12.6374h-10.531c-1.163 0-2.106-.943-2.106-2.1062v-8.4249c0-1.1633.943-2.1063 2.106-2.1063Z" clip-rule="evenodd"/><rect width="8.42494" height="8.42494" x="460.629" y="33.6997" fill="#475569" rx="1.40416"/><rect width="8.42494" height="8.42494" x="506.264" y="33.6997" fill="#475569" rx="1.40416"/><path fill="#E2E8F0" fill-opacity=".08" fill-rule="evenodd" d="M471.862 31.5935h15.445v12.6374h-15.445V31.5935Zm-.702-.7021H514.689c1.551 0 2.808 1.2573 2.808 2.8083v8.425c0 1.551-1.257 2.8083-2.808 2.8083H460.629c-1.551 0-2.809-1.2573-2.809-2.8083v-8.4249c0-1.551 1.258-2.8084 2.809-2.8084h10.531Zm0 .7021h-10.531c-1.164 0-2.107.943-2.107 2.1063v8.4249c0 1.1632.943 2.1062 2.107 2.1062h10.531V31.5935Zm32.295 0H488.01v12.6374h15.445V31.5935Zm11.234 0h-10.532v12.6374h10.532c1.163 0 2.106-.943 2.106-2.1062v-8.425c0-1.1632-.943-2.1062-2.106-2.1062Z" clip-rule="evenodd"/><rect width="104.61" height="14.7436" x="10.4561" y="57.9214" stroke="#E2E8F0" stroke-opacity=".08" stroke-width=".702078" rx="2.45727"/><rect width="105.312" height="12.6374" x="10.1051" y="92.6743" fill="#1E293B" rx="2.80831"/><rect width="105.312" height="12.6374" x="10.1051" y="92.6743" fill="url(#g)" fill-opacity=".52" rx="2.80831"/><path stroke="#E2E8F0" stroke-opacity=".08" stroke-width=".702078" d="M133.307 69.1547h4.91455v4.91455H133.307zM133.307 83.1963h4.91455v4.91455H133.307zM133.307 97.2378h4.91455v4.91455H133.307zM133.307 111.279h4.91455v4.91455H133.307zM133.307 125.321h4.91455v4.91455H133.307zM133.307 139.363h4.91455v4.91455H133.307z"/><path stroke="#CBD5E1" stroke-linecap="round" stroke-linejoin="round" stroke-width=".526559" d="M17.7402 98.2031v3.4229M15.3707 98.2031h6.3187M21.4262 96.3602H15.634c-.1454 0-.2633.1178-.2633.2632v4.7386c0 .146.1179.264.2633.264h5.7922c.1454 0 .2632-.118.2632-.264v-4.7386c0-.1454-.1178-.2632-.2632-.2632Z"/><path fill="#CBD5E1" d="M27.4885 101.078c-.2246 0-.4189-.035-.5827-.105-.1638-.07-.2902-.187-.3791-.351-.089-.164-.1334-.386-.1334-.6668v-1.8184h-.6108V97.54h.6108l.0842-.8846h.6179v.8846h1.0039v.5968h-1.0039v1.8254c0 .2008.0421.3398.1263.4138.0843.071.2294.106.4353.106h.4072v.596h-.5757Zm2.9038.085c-.3323 0-.6318-.077-.8986-.232-.2621-.154-.4704-.37-.6249-.646-.1498-.281-.2247-.6036-.2247-.9687 0-.3745.0773-.6998.2317-.9759.1545-.2808.3651-.4985.6319-.6529.2668-.1545.5663-.2317.8987-.2317.337 0 .6365.0772.8986.2317.2621.1544.4681.3697.6179.6459.1544.2761.2316.6014.2316.9759 0 .3744-.0772.6997-.2316.9757-.1498.276-.3581.492-.6249.646-.2668.155-.5687.232-.9057.232Zm0-.604c.1919 0 .3651-.047.5196-.14.1591-.094.2855-.232.3791-.415.0983-.1869.1474-.4186.1474-.6947 0-.2762-.0468-.5055-.1404-.6881-.0936-.1872-.22-.3276-.3791-.4212-.1545-.0936-.3253-.1404-.5125-.1404-.1873 0-.3604.0468-.5196.1404-.1591.0936-.2878.234-.3861.4212-.0936.1826-.1404.4119-.1404.6881 0 .2761.0468.5078.1404.6947.0983.183.2246.321.3791.415.1591.093.33.14.5125.14Zm4.1608.604c-.337 0-.6342-.08-.8917-.239-.2574-.164-.4587-.384-.6038-.66-.1404-.2808-.2106-.599-.2106-.9547 0-.3604.0702-.6787.2106-.9549.1451-.2761.3464-.4938.6038-.6529.2621-.1638.5617-.2457.8987-.2457.2761 0 .5195.0561.7301.1685.2107.1076.3745.2621.4915.4633v-2.0641h.7021v5.0545h-.6319l-.0702-.547c-.0702.108-.1615.21-.2738.309-.1123.093-.2481.171-.4072.231-.1591.061-.3417.092-.5476.092Zm.1123-.611c.22 0 .4142-.052.5827-.155.1685-.102.2972-.248.3862-.4348.0936-.1872.1404-.4049.1404-.6529 0-.2481-.0468-.4634-.1404-.646-.089-.1872-.2177-.3323-.3862-.4352-.1685-.1077-.3627-.1615-.5827-.1615-.2106 0-.4002.0538-.5687.1615-.1685.1029-.2995.248-.3931.4352-.0937.1826-.1405.3979-.1405.646 0 .248.0468.4657.1405.6529.0936.1868.2246.3328.3931.4348.1685.103.3581.155.5687.155Zm4.3932.611c-.3323 0-.6319-.077-.8987-.232-.2621-.154-.4704-.37-.6248-.646-.1498-.281-.2247-.6036-.2247-.9687 0-.3745.0773-.6998.2317-.9759.1545-.2808.3651-.4985.6319-.6529.2668-.1545.5663-.2317.8986-.2317.337 0 .6366.0772.8987.2317.2621.1544.4681.3697.6178.6459.1545.2761.2317.6014.2317.9759 0 .3744-.0772.6997-.2317.9757-.1497.276-.358.492-.6248.646-.2668.155-.5687.232-.9057.232Zm0-.604c.1919 0 .3651-.047.5195-.14.1592-.094.2855-.232.3792-.415.0982-.1869.1474-.4186.1474-.6947 0-.2762-.0468-.5055-.1404-.6881-.0936-.1872-.22-.3276-.3791-.4212-.1545-.0936-.3253-.1404-.5126-.1404-.1872 0-.3604.0468-.5195.1404-.1591.0936-.2879.234-.3861.4212-.0937.1826-.1405.4119-.1405.6881 0 .2761.0468.5078.1405.6947.0982.183.2246.321.3791.415.1591.093.33.14.5125.14Zm3.9571.604c-.2995 0-.5616-.049-.7863-.148-.2247-.098-.4025-.236-.5336-.414-.131-.178-.2106-.386-.2387-.6248h.7161c.0234.1128.0679.2158.1334.3088.0702.094.1639.169.2809.225.1217.056.2644.084.4282.084.1545 0 .2809-.021.3792-.063.1029-.047.1778-.108.2246-.183.0468-.079.0702-.163.0702-.252 0-.1315-.0327-.2298-.0983-.2953-.0608-.0702-.1544-.124-.2808-.1615-.1217-.0421-.2691-.0795-.4423-.1123-.1638-.0281-.323-.0655-.4774-.1123-.1498-.0515-.2855-.1147-.4072-.1896-.117-.0749-.2106-.1685-.2808-.2808-.0703-.117-.1054-.2598-.1054-.4283 0-.2013.0539-.3815.1615-.5406.1077-.1638.2598-.2902.4564-.3791.2012-.0936.4376-.1404.7091-.1404.3931 0 .7091.0936.9478.2808.2387.1872.3791.4517.4212.7933h-.681c-.0187-.1591-.0889-.2808-.2106-.365-.1217-.089-.2832-.1334-.4845-.1334-.2012 0-.3557.0398-.4633.1193-.1077.0796-.1615.1849-.1615.316 0 .0842.0304.1591.0913.2246.0608.0656.1497.1217.2668.1685.1217.0421.2691.0819.4423.1194.248.0468.4704.1053.6669.1755.1966.0702.3534.1732.4704.3089.117.1357.1756.33.1756.5823.0046.22-.0515.415-.1685.583-.1124.169-.2739.3-.4845.393-.2059.094-.4516.141-.7372.141Z"/><path fill="#fff" d="M12.0218 16.8291v-4.9145h1.5095c.571 0 1.0437.1006 1.4182.3018.3744.2013.6506.4868.8284.8566.1826.3651.2738.8004.2738 1.3058 0 .5055-.0912.9408-.2738 1.3059-.1778.3651-.454.6483-.8284.8495-.3698.1966-.8425.2949-1.4182.2949h-1.5095Zm.7021-.5897h.7793c.454 0 .8144-.0749 1.0812-.2247.2668-.1498.4563-.3627.5687-.6389.117-.2808.1755-.6131.1755-.997 0-.3884-.0585-.7231-.1755-1.0039-.1124-.2809-.3019-.4962-.5687-.6459-.2668-.1498-.6272-.2247-1.0812-.2247h-.7793v3.7351Zm5.31.674c-.2902 0-.5312-.0492-.7231-.1475-.1919-.0983-.3347-.2293-.4283-.3931-.0936-.1685-.1404-.3487-.1404-.5406 0-.2341.0609-.433.1826-.5968.1217-.1685.2948-.2972.5195-.3862.2247-.0889.4938-.1334.8074-.1334h.9197c0-.2059-.0304-.3767-.0913-.5125-.0608-.1357-.1521-.2363-.2738-.3019-.117-.0702-.2668-.1053-.4493-.1053-.2106 0-.3908.0515-.5406.1545-.1498.0983-.2434.2457-.2808.4423h-.7021c.0281-.2481.1123-.4587.2527-.6319.1451-.1778.33-.3136.5547-.4072.2246-.0983.4633-.1474.7161-.1474.3323 0 .6108.0585.8355.1755.2246.117.3931.2832.5055.4985.117.2106.1755.4633.1755.7582v2.1905h-.6108l-.0562-.5968c-.0515.0936-.1123.1826-.1825.2668-.0702.0843-.1545.1568-.2528.2177-.0936.0608-.2036.1076-.33.1404-.1216.0374-.2574.0562-.4072.0562Zm.1334-.5687c.1498 0 .2855-.0305.4072-.0913.1217-.0608.2247-.1428.309-.2457.0889-.1077.1544-.227.1965-.3581.0468-.1357.0726-.2738.0773-.4142v-.0211h-.8355c-.2013 0-.3651.0258-.4915.0773-.1217.0468-.2106.1123-.2668.1965-.0561.0843-.0842.1826-.0842.2949 0 .117.0257.2176.0772.3019.0562.0796.1358.1428.2387.1896.103.0468.227.0702.3721.0702Zm3.9871.4844c-.2246 0-.4189-.0351-.5827-.1053-.1638-.0702-.2902-.1872-.3791-.351-.089-.1639-.1334-.3862-.1334-.667v-1.8184h-.6108v-.5968h.6108l.0842-.8846h.6179v.8846h1.0039v.5968h-1.0039v1.8254c0 .2013.0421.3393.1263.4142.0843.0702.2294.1053.4353.1053h.4072v.5968h-.5757Zm2.5575.0843c-.2902 0-.5312-.0492-.7231-.1475-.1919-.0983-.3347-.2293-.4283-.3931-.0936-.1685-.1404-.3487-.1404-.5406 0-.2341.0608-.433.1825-.5968.1217-.1685.2949-.2972.5196-.3862.2246-.0889.4938-.1334.8074-.1334h.9197c0-.2059-.0304-.3767-.0913-.5125-.0608-.1357-.1521-.2363-.2738-.3019-.117-.0702-.2668-.1053-.4493-.1053-.2107 0-.3909.0515-.5406.1545-.1498.0983-.2434.2457-.2809.4423h-.702c.028-.2481.1123-.4587.2527-.6319.1451-.1778.33-.3136.5546-.4072.2247-.0983.4634-.1474.7162-.1474.3323 0 .6108.0585.8354.1755.2247.117.3932.2832.5055.4985.117.2106.1756.4633.1756.7582v2.1905h-.6109l-.0561-.5968c-.0515.0936-.1124.1826-.1826.2668-.0702.0843-.1544.1568-.2527.2177-.0936.0608-.2036.1076-.33.1404-.1217.0374-.2574.0562-.4072.0562Zm.1334-.5687c.1498 0 .2855-.0305.4072-.0913.1217-.0608.2247-.1428.3089-.2457.089-.1077.1545-.227.1966-.3581.0468-.1357.0726-.2738.0772-.4142v-.0211h-.8354c-.2013 0-.3651.0258-.4915.0773-.1217.0468-.2106.1123-.2668.1965-.0562.0843-.0842.1826-.0842.2949 0 .117.0257.2176.0772.3019.0562.0796.1357.1428.2387.1896.103.0468.227.0702.3721.0702Zm4.5329.5687c-.1919 0-.3674-.0281-.5266-.0843-.1544-.0515-.2901-.124-.4072-.2176-.117-.0937-.2153-.2013-.2948-.323l-.0702.5406h-.6319v-5.055h.7021v2.0712c.1123-.1779.2691-.3277.4704-.4494.2059-.1263.4587-.1895.7582-.1895.337 0 .6342.0819.8916.2457.2575.1591.4564.3791.5968.66.1451.2761.2177.5944.2177.9548 0 .351-.0726.667-.2177.9478-.1404.2808-.3393.5008-.5968.6599-.2574.1592-.5546.2388-.8916.2388Zm-.1123-.6109c.2153 0 .4048-.0514.5687-.1544.1685-.103.2995-.2481.3931-.4353.0983-.1872.1475-.4049.1475-.6529 0-.2481-.0492-.4634-.1475-.6459-.0936-.1873-.2246-.3324-.3931-.4353-.1639-.1077-.3534-.1615-.5687-.1615-.22 0-.4143.0538-.5828.1615-.1638.1029-.2925.248-.3861.4353-.0936.1825-.1404.3978-.1404.6459 0 .248.0468.4657.1404.6529.0936.1872.2223.3323.3861.4353.1685.103.3628.1544.5828.1544Zm3.8106.6109c-.2902 0-.5312-.0492-.7231-.1475-.1919-.0983-.3347-.2293-.4283-.3931-.0936-.1685-.1404-.3487-.1404-.5406 0-.2341.0608-.433.1825-.5968.1217-.1685.2949-.2972.5196-.3862.2246-.0889.4938-.1334.8074-.1334h.9197c0-.2059-.0304-.3767-.0913-.5125-.0608-.1357-.1521-.2363-.2738-.3019-.117-.0702-.2668-.1053-.4493-.1053-.2107 0-.3909.0515-.5406.1545-.1498.0983-.2434.2457-.2809.4423h-.702c.028-.2481.1123-.4587.2527-.6319.1451-.1778.33-.3136.5546-.4072.2247-.0983.4634-.1474.7162-.1474.3323 0 .6108.0585.8354.1755.2247.117.3932.2832.5055.4985.117.2106.1756.4633.1756.7582v2.1905h-.6109l-.0561-.5968c-.0515.0936-.1124.1826-.1826.2668-.0702.0843-.1544.1568-.2527.2177-.0936.0608-.2036.1076-.33.1404-.1217.0374-.2574.0562-.4072.0562Zm.1334-.5687c.1498 0 .2855-.0305.4072-.0913.1217-.0608.2247-.1428.3089-.2457.089-.1077.1545-.227.1966-.3581.0468-.1357.0726-.2738.0772-.4142v-.0211h-.8354c-.2013 0-.3651.0258-.4915.0773-.1217.0468-.2106.1123-.2668.1965-.0561.0843-.0842.1826-.0842.2949 0 .117.0257.2176.0772.3019.0562.0796.1357.1428.2387.1896.103.0468.227.0702.3721.0702Zm3.9712.5687c-.2995 0-.5616-.0492-.7863-.1475-.2246-.0983-.4025-.2364-.5336-.4142-.131-.1779-.2106-.3862-.2387-.6249h.7162c.0234.1124.0678.2153.1333.309.0703.0936.1639.1685.2809.2246.1217.0562.2644.0843.4282.0843.1545 0 .2809-.0211.3792-.0632.1029-.0468.1778-.1077.2246-.1826.0468-.0795.0702-.1638.0702-.2527 0-.1311-.0327-.2294-.0983-.2949-.0608-.0702-.1544-.124-.2808-.1615-.1217-.0421-.2691-.0795-.4423-.1123-.1638-.0281-.3229-.0655-.4774-.1123-.1498-.0515-.2855-.1147-.4072-.1896-.117-.0749-.2106-.1685-.2808-.2808-.0702-.117-.1054-.2598-.1054-.4283 0-.2012.0539-.3814.1615-.5406.1077-.1638.2598-.2902.4564-.3791.2012-.0936.4376-.1404.7091-.1404.3931 0 .7091.0936.9478.2808.2387.1872.3791.4517.4212.7934h-.681c-.0187-.1592-.0889-.2809-.2106-.3651-.1217-.089-.2832-.1334-.4844-.1334-.2013 0-.3558.0398-.4634.1193-.1077.0796-.1615.1849-.1615.316 0 .0842.0304.1591.0913.2246.0608.0656.1498.1217.2668.1685.1217.0422.2691.0819.4423.1194.248.0468.4704.1053.6669.1755.1966.0702.3534.1732.4704.3089.1171.1358.1756.33.1756.5827.0046.22-.0515.4143-.1685.5828-.1124.1685-.2739.2995-.4845.3931-.2059.0936-.4516.1405-.7372.1405Zm3.8175 0c-.337 0-.6365-.0773-.8986-.2317-.2621-.1545-.4681-.3698-.6179-.6459-.145-.2762-.2176-.5968-.2176-.9619 0-.3744.0726-.6997.2176-.9759.1498-.2808.3558-.4985.6179-.6529.2621-.1592.5663-.2387.9127-.2387.3463 0 .6436.0772.8916.2317.2481.1544.44.3604.5757.6178.1358.2527.2036.5336.2036.8425 0 .0468-.0023.0983-.007.1544 0 .0515-.0023.11-.007.1756H39.777v-.4985h2.2045c-.014-.2949-.1123-.5242-.2948-.688-.1826-.1685-.4096-.2528-.681-.2528-.1919 0-.3675.0445-.5266.1334-.1591.0842-.2879.2106-.3861.3791-.0937.1638-.1405.3721-.1405.6249v.1966c0 .2621.0468.4844.1405.6669.0982.1779.227.3136.3861.4072.1591.089.3323.1334.5195.1334.2247 0 .4096-.0491.5547-.1474.1451-.0983.2527-.2317.3229-.4002h.7021c-.0608.2153-.1638.4096-.3089.5827-.1451.1685-.3253.3019-.5406.4002-.2106.0983-.454.1475-.7302.1475Z"/><rect width="30.8914" height="2.80831" x="360.165" y="36.5081" fill="#475569" rx="1.40416"/><rect width="15.4457" height="2.80831" x="405.972" y="36.5081" fill="#475569" rx="1.40416"/><rect width="15.4457" height="2.80831" x="427.035" y="36.5081" fill="#475569" rx="1.40416"/><circle cx="424.227" cy="37.9122" r=".702078" fill="#475569"/><path stroke="#E2E8F0" stroke-linecap="round" stroke-linejoin="round" stroke-width=".438799" d="M52.6246 13.866h1.3164v-1.3164"/><path stroke="#E2E8F0" stroke-linecap="round" stroke-linejoin="round" stroke-width=".438799" d="m53.941 13.866-.7755-.7756c-.4492-.4491-1.0573-.7031-1.6925-.7068-.6352-.0036-1.2462.2432-1.7005.6871M50.4307 15.6212h-1.3164v1.3164"/><path stroke="#E2E8F0" stroke-linecap="round" stroke-linejoin="round" stroke-width=".438799" d="m49.1142 15.6212.7756.7756c.4492.4491 1.0573.7031 1.6925.7068.6352.0037 1.2462-.2432 1.7005-.6871"/></g><defs><linearGradient id="b" x1="290.262" x2="290.262" y1="0" y2="292.064" gradientUnits="userSpaceOnUse"><stop stop-color="#020420"/><stop offset="1" stop-color="#020420" stop-opacity="0"/></linearGradient><linearGradient id="c" x1="290.262" x2="290.262" y1="0" y2="292.064" gradientUnits="userSpaceOnUse"><stop stop-color="#0F172A"/><stop offset="1" stop-color="#0F172A" stop-opacity="0"/></linearGradient><linearGradient id="d" x1="217.04" x2="183.17" y1=".00001402" y2="224.058" gradientUnits="userSpaceOnUse"><stop stop-color="#E2E8F0"/><stop offset="1" stop-color="#E2E8F0" stop-opacity="0"/></linearGradient><linearGradient id="f" x1="128.594" x2="128.594" y1="25.9769" y2="292.064" gradientUnits="userSpaceOnUse"><stop stop-color="#E2E8F0"/><stop offset="1" stop-color="#E2E8F0" stop-opacity="0"/></linearGradient><linearGradient id="g" x1="10.1051" x2="115.417" y1="98.993" y2="98.993" gradientUnits="userSpaceOnUse"><stop stop-color="#0F172A"/><stop offset="1" stop-color="#0F172A" stop-opacity="0"/></linearGradient><radialGradient id="e" cx="0" cy="0" r="1" gradientTransform="rotate(63.2379 87.88696382 126.77952711) scale(286.41 605.008)" gradientUnits="userSpaceOnUse"><stop stop-color="#E2E8F0" stop-opacity=".56"/><stop offset=".9999" stop-color="#A1A1AA" stop-opacity=".01"/><stop offset="1" stop-color="#E2E8F0" stop-opacity="0"/></radialGradient><clipPath id="a"><rect width="581" height="293" fill="#fff" rx="8"/></clipPath></defs></svg>
