<svg xmlns="http://www.w3.org/2000/svg" fill="none" viewBox="0 0 580 326"><g clip-path="url(#a)"><path fill="url(#b)" fill-opacity=".04" d="M201 99c0-11.3137 0-16.9706 3.515-20.4853C208.029 75 213.686 75 225 75h129c11.314 0 16.971 0 20.485 3.5147C378 82.0294 378 87.6863 378 99v129c0 11.314 0 16.971-3.515 20.485C370.971 252 365.314 252 354 252H225c-11.314 0-16.971 0-20.485-3.515C201 244.971 201 239.314 201 228V99Z"/><path fill="url(#c)" fill-opacity=".08" d="M201 99c0-11.3137 0-16.9706 3.515-20.4853C208.029 75 213.686 75 225 75h129c11.314 0 16.971 0 20.485 3.5147C378 82.0294 378 87.6863 378 99v129c0 11.314 0 16.971-3.515 20.485C370.971 252 365.314 252 354 252H225c-11.314 0-16.971 0-20.485-3.515C201 244.971 201 239.314 201 228V99Z"/><path stroke="#E2E8F0" stroke-opacity=".79" d="M225 75.5h129c5.671 0 9.874.0011 13.101.4349 3.212.4319 5.382 1.2844 7.031 2.9334 1.649 1.6489 2.501 3.8187 2.933 7.0311.434 3.2267.435 7.4296.435 13.1006v129c0 5.671-.001 9.874-.435 13.101-.432 3.212-1.284 5.382-2.933 7.031-1.649 1.649-3.819 2.501-7.031 2.933-3.227.434-7.43.435-13.101.435H225c-5.671 0-9.874-.001-13.101-.435-3.212-.432-5.382-1.284-7.031-2.933-1.649-1.649-2.501-3.819-2.933-7.031-.434-3.227-.435-7.43-.435-13.101V99c0-5.671.001-9.8739.435-13.1006.432-3.2124 1.284-5.3822 2.933-7.0311 1.649-1.649 3.819-2.5015 7.031-2.9334 3.227-.4338 7.43-.4349 13.101-.4349Z"/><circle cx="214.929" cy="149.027" r=".89" fill="url(#d)"/><circle cx="271.89" cy="188.89" r=".89" fill="url(#e)"/><circle cx="327.085" cy="207.655" r=".89" fill="url(#f)"/><circle cx="312.38" cy="213.733" r=".89" fill="url(#g)"/><circle cx="372.89" cy="192.89" r=".89" fill="url(#h)"/><circle cx="255.89" cy="116.89" r=".89" fill="url(#i)"/><circle cx="230.89" cy="209.89" r=".89" fill="url(#j)"/><circle cx="290.89" cy="96.89" r=".89" fill="url(#k)"/><circle cx="356.89" cy="118.89" r=".89" fill="url(#l)"/><path fill="url(#m)" d="m208.5 106 .428 5.072 5.072.428-5.072.428L208.5 117l-.428-5.072L203 111.5l5.072-.428.428-5.072Z"/><path fill="url(#n)" d="m362 88 .311 3.6889L366 92l-3.689.3111L362 96l-.311-3.6889L358 92l3.689-.3111L362 88Z"/><path fill="url(#o)" d="m337.5 231.5.389 4.611 4.611.389-4.611.389-.389 4.611-.389-4.611-4.611-.389 4.611-.389.389-4.611Z"/><g clip-path="url(#p)"><path fill="url(#q)" fill-opacity=".04" d="M289.748 214.527c-28.376 0-51.379-23.003-51.379-51.379 0-28.376 23.003-51.379 51.379-51.379 28.376 0 51.379 23.003 51.379 51.379 0 28.376-23.003 51.379-51.379 51.379Z"/><path fill="url(#r)" fill-opacity=".08" d="M289.748 214.527c-28.376 0-51.379-23.003-51.379-51.379 0-28.376 23.003-51.379 51.379-51.379 28.376 0 51.379 23.003 51.379 51.379 0 28.376-23.003 51.379-51.379 51.379Z"/><path stroke="#CBD5E1" stroke-width="1.97611" d="M289.748 214.527c-28.376 0-51.379-23.003-51.379-51.379 0-28.376 23.003-51.379 51.379-51.379 28.376 0 51.379 23.003 51.379 51.379 0 28.376-23.003 51.379-51.379 51.379Z"/><g filter="url(#s)"><path fill="#94A3B8" d="M271.153 148.674c0-.468.186-.916.516-1.246.331-.331.779-.517 1.246-.517h3.524v-3.524c0-.467.186-.915.517-1.246.33-.33.778-.516 1.246-.516.467 0 .915.186 1.246.516.33.331.516.779.516 1.246v3.524h3.524c.467 0 .916.186 1.246.517.33.33.516.778.516 1.246 0 .467-.186.915-.516 1.246-.33.33-.779.516-1.246.516h-3.524v3.524c0 .467-.186.916-.516 1.246-.331.331-.779.516-1.246.516-.468 0-.916-.185-1.246-.516-.331-.33-.517-.779-.517-1.246v-3.524h-3.524c-.467 0-.915-.186-1.246-.516-.33-.331-.516-.779-.516-1.246Zm29.957 28.194h-1.763v-1.762c0-.467-.185-.916-.516-1.246-.33-.331-.778-.516-1.246-.516-.467 0-.915.185-1.246.516-.33.33-.516.779-.516 1.246v1.762h-1.762c-.467 0-.916.186-1.246.516-.331.331-.516.779-.516 1.246 0 .468.185.916.516 1.246.33.331.779.516 1.246.516h1.762v1.763c0 .467.186.915.516 1.246.331.33.779.516 1.246.516.468 0 .916-.186 1.246-.516.331-.331.516-.779.516-1.246v-1.763h1.763c.467 0 .915-.185 1.246-.516.33-.33.516-.778.516-1.246 0-.467-.186-.915-.516-1.246-.331-.33-.779-.516-1.246-.516Zm12.335-10.573h-3.525v-3.524c0-.468-.185-.916-.516-1.246-.33-.331-.779-.516-1.246-.516-.467 0-.915.185-1.246.516-.33.33-.516.778-.516 1.246v3.524h-3.524c-.468 0-.916.186-1.246.516-.331.331-.516.779-.516 1.246 0 .468.185.916.516 1.246.33.331.778.516 1.246.516h3.524v3.525c0 .467.186.915.516 1.246.331.33.779.516 1.246.516.467 0 .916-.186 1.246-.516.331-.331.516-.779.516-1.246v-3.525h3.525c.467 0 .915-.185 1.246-.516.33-.33.516-.778.516-1.246 0-.467-.186-.915-.516-1.246-.331-.33-.779-.516-1.246-.516Zm-4.558-14.097-30.685 30.686c-.661.66-1.557 1.031-2.492 1.031-.934 0-1.83-.371-2.491-1.031l-4.56-4.556c-.327-.327-.587-.715-.764-1.143-.177-.428-.268-.886-.268-1.349 0-.463.091-.921.268-1.349.177-.427.437-.816.764-1.143l30.688-30.686c.328-.327.716-.587 1.144-.764.427-.177.886-.268 1.349-.268.463 0 .921.091 1.349.268.427.177.816.437 1.143.764l4.555 4.555c.328.327.587.716.764 1.144.178.427.269.886.269 1.349 0 .462-.091.921-.269 1.348-.177.428-.436.817-.764 1.144Zm-12.033 7.049-4.555-4.558-21.146 21.146 4.555 4.557 21.146-21.145Zm9.542-9.54-4.557-4.558-7.049 7.049 4.557 4.557 7.049-7.048Z"/></g><path fill="url(#t)" d="m261 183 .311 3.689L265 187l-3.689.311L261 191l-.311-3.689L257 187l3.689-.311L261 183Z"/></g><path stroke="#E2E8F0" stroke-opacity=".73" stroke-width="2" d="M289.5 227c-35.07 0-63.5-28.43-63.5-63.5s28.43-63.5 63.5-63.5 63.5 28.43 63.5 63.5-28.43 63.5-63.5 63.5Z"/><path stroke="#E2E8F0" stroke-opacity=".04" stroke-width="2" d="M289.5 239c-41.698 0-75.5-33.802-75.5-75.5S247.802 88 289.5 88s75.5 33.802 75.5 75.5-33.802 75.5-75.5 75.5Z"/><g filter="url(#u)" opacity=".4"><path fill="url(#v)" d="m304.5 63 13.295 169.222L420.467 97.0511 340.164 246.597l159.452-58.204-148.406 82.391 165.607 37.243-169.391-10.924 119.182 120.865-136.595-100.769 34.919 166.112L304.5 324.69l-60.432 158.621 34.919-166.112-136.595 100.769 119.182-120.865-169.3907 10.924L257.79 270.784l-148.406-82.391 159.452 58.204-80.303-149.5459L291.205 232.222 304.5 63Z"/></g></g><path stroke="url(#w)" stroke-width="2" d="M201 128.5h-82" opacity=".2"/><path stroke="url(#x)" stroke-width="2" d="M200.672 152h-82" opacity=".2"/><path stroke="url(#y)" stroke-width="2" d="M200.672 176h-82" opacity=".2"/><path stroke="url(#z)" stroke-width="2" d="M200.672 200h-82" opacity=".2"/><path stroke="url(#A)" stroke-width="2" d="M377.672 128.5h82" opacity=".2"/><path stroke="url(#B)" stroke-width="2" d="M378 152h82" opacity=".2"/><path stroke="url(#C)" stroke-width="2" d="M378 176h82" opacity=".2"/><path stroke="url(#D)" stroke-width="2" d="M378 200h82" opacity=".2"/><defs><radialGradient id="d" cx="0" cy="0" r="1" gradientTransform="rotate(90 32.951 181.978) scale(.89)" gradientUnits="userSpaceOnUse"><stop stop-color="#94A3B8"/><stop offset="1" stop-color="#94A3B8" stop-opacity="0"/></radialGradient><radialGradient id="e" cx="0" cy="0" r="1" gradientTransform="rotate(90 41.5 230.39) scale(.89)" gradientUnits="userSpaceOnUse"><stop stop-color="#94A3B8"/><stop offset="1" stop-color="#94A3B8" stop-opacity="0"/></radialGradient><radialGradient id="f" cx="0" cy="0" r="1" gradientTransform="rotate(90 59.715 267.37) scale(.89)" gradientUnits="userSpaceOnUse"><stop stop-color="#94A3B8"/><stop offset="1" stop-color="#94A3B8" stop-opacity="0"/></radialGradient><radialGradient id="g" cx="0" cy="0" r="1" gradientTransform="matrix(0 .89 -.89 0 312.38 213.733)" gradientUnits="userSpaceOnUse"><stop stop-color="#94A3B8"/><stop offset="1" stop-color="#94A3B8" stop-opacity="0"/></radialGradient><radialGradient id="h" cx="0" cy="0" r="1" gradientTransform="rotate(90 90 282.89) scale(.89)" gradientUnits="userSpaceOnUse"><stop stop-color="#94A3B8"/><stop offset="1" stop-color="#94A3B8" stop-opacity="0"/></radialGradient><radialGradient id="i" cx="0" cy="0" r="1" gradientTransform="rotate(90 69.5 186.39) scale(.89)" gradientUnits="userSpaceOnUse"><stop stop-color="#94A3B8"/><stop offset="1" stop-color="#94A3B8" stop-opacity="0"/></radialGradient><radialGradient id="j" cx="0" cy="0" r="1" gradientTransform="rotate(90 10.5 220.39) scale(.89)" gradientUnits="userSpaceOnUse"><stop stop-color="#94A3B8"/><stop offset="1" stop-color="#94A3B8" stop-opacity="0"/></radialGradient><radialGradient id="k" cx="0" cy="0" r="1" gradientTransform="rotate(90 97 193.89) scale(.89)" gradientUnits="userSpaceOnUse"><stop stop-color="#94A3B8"/><stop offset="1" stop-color="#94A3B8" stop-opacity="0"/></radialGradient><radialGradient id="l" cx="0" cy="0" r="1" gradientTransform="rotate(90 119 237.89) scale(.89)" gradientUnits="userSpaceOnUse"><stop stop-color="#94A3B8"/><stop offset="1" stop-color="#94A3B8" stop-opacity="0"/></radialGradient><radialGradient id="m" cx="0" cy="0" r="1" gradientTransform="rotate(90 48.5 160) scale(5.5)" gradientUnits="userSpaceOnUse"><stop stop-color="#94A3B8"/><stop offset="1" stop-color="#94A3B8" stop-opacity="0"/></radialGradient><radialGradient id="n" cx="0" cy="0" r="1" gradientTransform="matrix(0 4 -4 0 362 92)" gradientUnits="userSpaceOnUse"><stop stop-color="#94A3B8"/><stop offset="1" stop-color="#94A3B8" stop-opacity="0"/></radialGradient><radialGradient id="o" cx="0" cy="0" r="1" gradientTransform="rotate(90 50.5 287) scale(5)" gradientUnits="userSpaceOnUse"><stop stop-color="#94A3B8"/><stop offset="1" stop-color="#94A3B8" stop-opacity="0"/></radialGradient><radialGradient id="t" cx="0" cy="0" r="1" gradientTransform="matrix(0 4 -4 0 261 187)" gradientUnits="userSpaceOnUse"><stop stop-color="#94A3B8"/><stop offset="1" stop-color="#94A3B8" stop-opacity="0"/></radialGradient><radialGradient id="v" cx="0" cy="0" r="1" gradientTransform="rotate(90 13.5 291) scale(214.5)" gradientUnits="userSpaceOnUse"><stop stop-color="#CBD5E1"/><stop offset="1" stop-color="#CBD5E1" stop-opacity="0"/></radialGradient><linearGradient id="b" x1="289.5" x2="289.5" y1="75" y2="252" gradientUnits="userSpaceOnUse"><stop stop-color="#0F172A"/><stop offset=".72" stop-color="#020420"/></linearGradient><linearGradient id="c" x1="267.151" x2="228.909" y1="75" y2="202.411" gradientUnits="userSpaceOnUse"><stop stop-color="#E2E8F0"/><stop offset="1" stop-color="#E2E8F0" stop-opacity="0"/></linearGradient><linearGradient id="q" x1="289.748" x2="289.748" y1="110.781" y2="215.515" gradientUnits="userSpaceOnUse"><stop stop-color="#0F172A"/><stop offset=".72" stop-color="#020420"/></linearGradient><linearGradient id="r" x1="276.524" x2="253.895" y1="110.781" y2="186.172" gradientUnits="userSpaceOnUse"><stop stop-color="#E2E8F0"/><stop offset="1" stop-color="#E2E8F0" stop-opacity="0"/></linearGradient><linearGradient id="w" x1="204.968" x2="136.481" y1="128" y2="165.511" gradientUnits="userSpaceOnUse"><stop stop-color="#CBD5E1"/><stop offset="1" stop-color="#CBD5E1" stop-opacity="0"/></linearGradient><linearGradient id="x" x1="204.639" x2="136.153" y1="151.5" y2="189.011" gradientUnits="userSpaceOnUse"><stop stop-color="#CBD5E1"/><stop offset="1" stop-color="#CBD5E1" stop-opacity="0"/></linearGradient><linearGradient id="y" x1="204.639" x2="136.153" y1="175.5" y2="213.011" gradientUnits="userSpaceOnUse"><stop stop-color="#CBD5E1"/><stop offset="1" stop-color="#CBD5E1" stop-opacity="0"/></linearGradient><linearGradient id="z" x1="204.639" x2="136.153" y1="199.5" y2="237.011" gradientUnits="userSpaceOnUse"><stop stop-color="#CBD5E1"/><stop offset="1" stop-color="#CBD5E1" stop-opacity="0"/></linearGradient><linearGradient id="A" x1="373.704" x2="442.19" y1="128" y2="165.511" gradientUnits="userSpaceOnUse"><stop stop-color="#CBD5E1"/><stop offset="1" stop-color="#CBD5E1" stop-opacity="0"/></linearGradient><linearGradient id="B" x1="374.032" x2="442.519" y1="151.5" y2="189.011" gradientUnits="userSpaceOnUse"><stop stop-color="#CBD5E1"/><stop offset="1" stop-color="#CBD5E1" stop-opacity="0"/></linearGradient><linearGradient id="C" x1="374.032" x2="442.519" y1="175.5" y2="213.011" gradientUnits="userSpaceOnUse"><stop stop-color="#CBD5E1"/><stop offset="1" stop-color="#CBD5E1" stop-opacity="0"/></linearGradient><linearGradient id="D" x1="374.032" x2="442.519" y1="199.5" y2="237.011" gradientUnits="userSpaceOnUse"><stop stop-color="#CBD5E1"/><stop offset="1" stop-color="#CBD5E1" stop-opacity="0"/></linearGradient><clipPath id="a"><rect width="177" height="177" x="201" y="75" fill="#fff" rx="12"/></clipPath><clipPath id="p"><path fill="#fff" d="M237 111h105v105H237z"/></clipPath><filter id="s" width="47.5801" height="46.2916" x="267.627" y="141.625" color-interpolation-filters="sRGB" filterUnits="userSpaceOnUse"><feFlood flood-opacity="0" result="BackgroundImageFix"/><feBlend in="SourceGraphic" in2="BackgroundImageFix" result="shape"/><feColorMatrix in="SourceAlpha" result="hardAlpha" values="0 0 0 0 0 0 0 0 0 0 0 0 0 0 0 0 0 0 127 0"/><feMorphology in="SourceAlpha" operator="dilate" radius="3" result="effect1_innerShadow_1251_5060"/><feOffset/><feGaussianBlur stdDeviation="4.05"/><feComposite in2="hardAlpha" k2="-1" k3="1" operator="arithmetic"/><feColorMatrix values="0 0 0 0 0.00640197 0 0 0 0 0.0128415 0 0 0 0 0.102995 0 0 0 0.72 0"/><feBlend in2="shape" result="effect1_innerShadow_1251_5060"/><feColorMatrix in="SourceAlpha" result="hardAlpha" values="0 0 0 0 0 0 0 0 0 0 0 0 0 0 0 0 0 0 127 0"/><feOffset dy="4"/><feGaussianBlur stdDeviation="2"/><feComposite in2="hardAlpha" k2="-1" k3="1" operator="arithmetic"/><feColorMatrix values="0 0 0 0 0.00640197 0 0 0 0 0.0128415 0 0 0 0 0.102995 0 0 0 0.15 0"/><feBlend in2="effect1_innerShadow_1251_5060" result="effect2_innerShadow_1251_5060"/></filter><filter id="u" width="486.633" height="482.311" x="61.1836" y="32" color-interpolation-filters="sRGB" filterUnits="userSpaceOnUse"><feFlood flood-opacity="0" result="BackgroundImageFix"/><feBlend in="SourceGraphic" in2="BackgroundImageFix" result="shape"/><feGaussianBlur result="effect1_foregroundBlur_1251_5060" stdDeviation="15.5"/></filter></defs></svg>
