<svg xmlns="http://www.w3.org/2000/svg" fill="none" viewBox="0 0 580 326"><g opacity=".45"><rect width="465" height="252" x="57" y="32" fill="#020420" rx="8"/><rect width="465" height="252" x="57" y="32" fill="url(#a)" rx="8"/><rect width="465" height="252" x="57" y="32" fill="url(#b)" fill-opacity=".08" rx="8"/><rect width="464" height="251" x="57.5" y="32.5" stroke="url(#c)" stroke-opacity=".4" rx="7.5"/><rect width="18.274" height="4.56849" x="455.49" y="77.5947" fill="#94A3B8" opacity=".48" rx="2.28425"/><rect width="18.274" height="4.56849" x="428.078" y="77.5947" fill="#94A3B8" opacity=".48" rx="2.28425"/><rect width="18.274" height="4.56849" x="399.906" y="77.5947" fill="#94A3B8" opacity=".48" rx="2.28425"/><g opacity=".42"><path fill="url(#d)" d="M105.111 211.705c0-7.281 4.501-13.183 10.054-13.183h87.918c5.553 0 10.054 5.902 10.054 13.183v59.321c0 7.28-4.501 13.182-10.054 13.182h-87.918c-5.553 0-10.054-5.902-10.054-13.182v-59.321Z"/><path fill="url(#e)" d="M235.808 211.705c0-7.281 4.501-13.183 10.054-13.183h87.918c5.553 0 10.054 5.902 10.054 13.183v59.321c0 7.28-4.501 13.182-10.054 13.182h-87.918c-5.553 0-10.054-5.902-10.054-13.182v-59.321Z"/><path fill="url(#f)" d="M366.505 211.705c0-7.281 4.501-13.183 10.054-13.183h87.918c5.553 0 10.054 5.902 10.054 13.183v59.321c0 7.28-4.501 13.182-10.054 13.182h-87.918c-5.553 0-10.054-5.902-10.054-13.182v-59.321Z"/></g><rect width="162.48" height="76.794" x="312.051" y="103.135" fill="#94A3B8" opacity=".28" rx="6.09133"/><rect width="119.141" height="4.30632" x="105.168" y="107.913" fill="#94A3B8" opacity=".48" rx="2.15316"/><rect width="88.9972" height="5.74176" x="244.391" y="40.6124" fill="#94A3B8" opacity=".15" rx="1.43544"/><rect width="44.4986" height="4.30632" x="105.168" y="120.831" fill="#94A3B8" opacity=".48" rx="2.15316"/><rect width="90.4327" height="4.30632" x="105.168" y="135.189" fill="#94A3B8" opacity=".48" rx="2.15316"/><rect width="107.658" height="4.30632" x="105.168" y="149.537" fill="#94A3B8" opacity=".48" rx="2.15316"/><circle cx="70.49" cy="43.4833" r="2.87088" fill="#94A3B8" opacity=".3"/><circle cx="82.2517" cy="43.4833" r="2.87088" fill="#94A3B8" opacity=".3"/><circle cx="94.0154" cy="43.4833" r="2.87088" fill="#94A3B8" opacity=".3"/><path stroke="#E2E8F0" stroke-opacity=".09" d="M58 53.5301h463"/><g clip-path="url(#g)"><path fill="#94A3B8" d="M116.427 85.9914h7.461c.237 0 .47-.0605.675-.1755.204-.1136.374-.2789.494-.4793.118-.198.18-.4242.181-.6548-.001-.2305-.063-.4567-.182-.6546l-5.01-8.4179c-.12-.2003-.29-.3656-.494-.4792-.206-.1152-.439-.1756-.675-.1755-.237 0-.47.0605-.675.1754-.204.1137-.374.279-.494.4793l-1.281 2.154-2.505-4.2118c-.12-.2003-.29-.3656-.494-.4792-.206-.1152-.439-.1756-.675-.1754-.237 0-.47.0604-.675.1753-.204.1137-.374.2789-.494.4792l-6.235 10.4759c-.118.1978-.181.424-.181.6545 0 .2299.062.4558.181.6548.119.2004.29.3657.494.4793.205.115.438.1755.675.1755h4.683c1.855 0 3.224-.7906 4.165-2.333l2.286-3.8402 1.225-2.0549 3.674 6.173h-4.899l-1.225 2.0551Zm-5.303-2.0573-3.268-.0007 4.899-8.2303 2.445 4.1151-1.637 2.7505c-.625 1.0008-1.335 1.3654-2.439 1.3654Z" opacity=".48"/></g></g><path fill="url(#h)" d="M166 56h248v215H166z"/><path stroke="url(#i)" stroke-width="2" d="M516 310h24c4.418 0 8-3.582 8-8v-24"/><path stroke="url(#j)" stroke-width="2" d="M64 310H40c-4.4183 0-8-3.582-8-8v-24"/><path stroke="url(#k)" stroke-width="2" d="M508 16h32c4.418 0 8 3.5817 8 8v32"/><path stroke="url(#l)" stroke-width="2" d="M72 16H40c-4.4183 0-8 3.5817-8 8v32"/><g clip-path="url(#m)"><path fill="url(#n)" d="M239 163.013C239 134.839 261.839 112 290.013 112s51.013 22.839 51.013 51.013-22.839 51.013-51.013 51.013S239 191.187 239 163.013Z"/><path fill="url(#o)" fill-opacity=".08" d="M239 163.013C239 134.839 261.839 112 290.013 112s51.013 22.839 51.013 51.013-22.839 51.013-51.013 51.013S239 191.187 239 163.013Z"/><path stroke="#E2E8F0" stroke-opacity=".2" d="M239.5 163.013c0-27.897 22.616-50.513 50.513-50.513 27.898 0 50.513 22.616 50.513 50.513 0 27.898-22.615 50.513-50.513 50.513-27.897 0-50.513-22.615-50.513-50.513Z"/><path fill="#fff" d="M305.625 148.938h-5.414l-2.662-3.993c-.143-.213-.336-.389-.562-.51-.227-.121-.48-.185-.737-.185h-12.5c-.257 0-.51.064-.737.185-.226.121-.419.297-.562.51l-2.664 3.993h-5.412c-1.243 0-2.435.493-3.315 1.372-.879.88-1.372 2.072-1.372 3.315V175.5c0 1.243.493 2.435 1.372 3.315.88.879 2.072 1.373 3.315 1.373h31.25c1.243 0 2.435-.494 3.315-1.373.879-.88 1.372-2.072 1.372-3.315v-21.875c0-1.243-.493-2.435-1.372-3.315-.88-.879-2.072-1.372-3.315-1.372Zm1.563 26.562c0 .414-.165.812-.458 1.105-.293.293-.691.457-1.105.457h-31.25c-.414 0-.812-.164-1.105-.457-.293-.293-.458-.691-.458-1.105v-21.875c0-.414.165-.812.458-1.105.293-.293.691-.458 1.105-.458h6.25c.257.001.511-.063.738-.184.227-.121.42-.297.563-.511l2.66-3.992h10.826l2.662 3.992c.143.214.336.39.563.511.227.121.481.185.738.184h6.25c.414 0 .812.165 1.105.458.293.293.458.691.458 1.105V175.5ZM290 155.188c-1.7 0-3.361.504-4.774 1.448-1.414.944-2.515 2.286-3.166 3.857-.65 1.57-.82 3.298-.489 4.965.332 1.667 1.15 3.198 2.352 4.4 1.202 1.202 2.733 2.02 4.4 2.352 1.667.331 3.395.161 4.966-.489 1.57-.651 2.912-1.752 3.856-3.165.945-1.414 1.449-3.075 1.449-4.775-.003-2.278-.909-4.463-2.52-6.074-1.611-1.611-3.796-2.517-6.074-2.519Zm0 14.062c-1.082 0-2.139-.321-3.038-.922-.9-.601-1.601-1.455-2.014-2.454-.414-.999-.523-2.099-.312-3.16.211-1.06.732-2.035 1.497-2.8.765-.765 1.739-1.285 2.8-1.496 1.061-.211 2.161-.103 3.16.311.999.414 1.853 1.115 2.454 2.014.601.899.922 1.957.922 3.038 0 1.451-.576 2.842-1.602 3.867-1.026 1.026-2.417 1.602-3.867 1.602Z"/></g><path stroke="#E2E8F0" stroke-opacity=".12" d="M227.5 163.013c0-34.525 27.988-62.513 62.513-62.513s62.513 27.988 62.513 62.513-27.988 62.513-62.513 62.513-62.513-27.988-62.513-62.513Z"/><defs><linearGradient id="a" x1="289.5" x2="289.144" y1="32" y2="207.708" gradientUnits="userSpaceOnUse"><stop stop-color="#0F172A"/><stop offset="1" stop-color="#0F172A" stop-opacity="0"/></linearGradient><linearGradient id="b" x1="230.787" x2="187.166" y1="32" y2="170.654" gradientUnits="userSpaceOnUse"><stop stop-color="#E2E8F0"/><stop offset="1" stop-color="#E2E8F0" stop-opacity="0"/></linearGradient><linearGradient id="d" x1="288.59" x2="290" y1="198.522" y2="284" gradientUnits="userSpaceOnUse"><stop stop-color="#64748B"/><stop offset="1" stop-color="#64748B" stop-opacity="0"/></linearGradient><linearGradient id="e" x1="288.59" x2="290" y1="198.522" y2="284" gradientUnits="userSpaceOnUse"><stop stop-color="#64748B"/><stop offset="1" stop-color="#64748B" stop-opacity="0"/></linearGradient><linearGradient id="f" x1="288.59" x2="290" y1="198.522" y2="284" gradientUnits="userSpaceOnUse"><stop stop-color="#64748B"/><stop offset="1" stop-color="#64748B" stop-opacity="0"/></linearGradient><linearGradient id="i" x1="548" x2="534.5" y1="305" y2="291" gradientUnits="userSpaceOnUse"><stop stop-color="#334155"/><stop offset="1" stop-color="#334155" stop-opacity="0"/></linearGradient><linearGradient id="j" x1="32" x2="45.5" y1="305" y2="291" gradientUnits="userSpaceOnUse"><stop stop-color="#334155"/><stop offset="1" stop-color="#334155" stop-opacity="0"/></linearGradient><linearGradient id="k" x1="548" x2="531.125" y1="22.25" y2="39.75" gradientUnits="userSpaceOnUse"><stop stop-color="#334155"/><stop offset="1" stop-color="#334155" stop-opacity="0"/></linearGradient><linearGradient id="l" x1="32" x2="48.875" y1="22.25" y2="39.75" gradientUnits="userSpaceOnUse"><stop stop-color="#334155"/><stop offset="1" stop-color="#334155" stop-opacity="0"/></linearGradient><linearGradient id="n" x1="290.013" x2="290.013" y1="112" y2="214.026" gradientUnits="userSpaceOnUse"><stop stop-color="#0F172A"/><stop offset=".72" stop-color="#020420"/></linearGradient><linearGradient id="o" x1="277.131" x2="255.087" y1="112" y2="185.442" gradientUnits="userSpaceOnUse"><stop stop-color="#E2E8F0"/><stop offset="1" stop-color="#E2E8F0" stop-opacity="0"/></linearGradient><radialGradient id="c" cx="0" cy="0" r="1" gradientTransform="matrix(103.41054789 220.65060242 -445.47188976 208.77573723 186.263 24.424)" gradientUnits="userSpaceOnUse"><stop stop-color="#E2E8F0" stop-opacity=".56"/><stop offset=".9999" stop-color="#A1A1AA" stop-opacity=".01"/><stop offset="1" stop-color="#E2E8F0" stop-opacity="0"/></radialGradient><radialGradient id="h" cx="0" cy="0" r="1" gradientTransform="matrix(0 107.5 -124 0 290 163.5)" gradientUnits="userSpaceOnUse"><stop stop-color="#020420"/><stop offset="1" stop-color="#020420" stop-opacity="0"/></radialGradient><clipPath id="g"><path fill="#fff" d="M105.168 69.4093h20.0696v20.0696H105.168z"/></clipPath><clipPath id="m"><path fill="#fff" d="M239 163.013C239 134.839 261.839 112 290.013 112s51.013 22.839 51.013 51.013-22.839 51.013-51.013 51.013S239 191.187 239 163.013Z"/></clipPath></defs></svg>
