<svg xmlns="http://www.w3.org/2000/svg" fill="none" viewBox="0 0 580 177"><g clip-path="url(#a)"><path fill="url(#b)" d="M201 24c0-11.3137 0-16.97056 3.515-20.48528C208.029 0 213.686 0 225 0h129c11.314 0 16.971 0 20.485 3.51472C378 7.02944 378 12.6863 378 24v129c0 11.314 0 16.971-3.515 20.485C370.971 177 365.314 177 354 177H225c-11.314 0-16.971 0-20.485-3.515C201 169.971 201 164.314 201 153V24Z"/><path fill="url(#c)" fill-opacity=".08" d="M201 24c0-11.3137 0-16.97056 3.515-20.48528C208.029 0 213.686 0 225 0h129c11.314 0 16.971 0 20.485 3.51472C378 7.02944 378 12.6863 378 24v129c0 11.314 0 16.971-3.515 20.485C370.971 177 365.314 177 354 177H225c-11.314 0-16.971 0-20.485-3.515C201 169.971 201 164.314 201 153V24Z"/><path stroke="#E2E8F0" stroke-opacity=".2" d="M201.5 24c0-5.671.001-9.8739.435-13.1006.432-3.21236 1.284-5.38215 2.933-7.03113 1.649-1.64897 3.819-2.5015 7.031-2.933389C215.126.501062 219.329.5 225 .5h129c5.671 0 9.874.001062 13.101.434881 3.212.431889 5.382 1.284419 7.031 2.933389l.353-.35355-.353.35355c1.649 1.64898 2.501 3.81877 2.933 7.03113.434 3.2267.435 7.4296.435 13.1006v129c0 5.671-.001 9.874-.435 13.101-.432 3.212-1.284 5.382-2.933 7.031-1.649 1.649-3.819 2.501-7.031 2.933-3.227.434-7.43.435-13.101.435H225c-5.671 0-9.874-.001-13.101-.435-3.212-.432-5.382-1.284-7.031-2.933l-.353.353.353-.353c-1.649-1.649-2.501-3.819-2.933-7.031-.434-3.227-.435-7.43-.435-13.101V24Z"/><circle cx="214.929" cy="74.0272" r=".89" fill="url(#d)"/><circle cx="271.89" cy="113.89" r=".89" fill="url(#e)"/><circle cx="327.085" cy="132.655" r=".89" fill="url(#f)"/><circle cx="312.38" cy="138.733" r=".89" fill="url(#g)"/><circle cx="372.89" cy="117.89" r=".89" fill="url(#h)"/><circle cx="255.89" cy="41.89" r=".89" fill="url(#i)"/><circle cx="230.89" cy="134.89" r=".89" fill="url(#j)"/><circle cx="290.89" cy="21.89" r=".89" fill="url(#k)"/><circle cx="356.89" cy="43.89" r=".89" fill="url(#l)"/><path fill="url(#m)" d="m208.5 31 .428 5.0722L214 36.5l-5.072.4278L208.5 42l-.428-5.0722L203 36.5l5.072-.4278L208.5 31Z"/><path fill="url(#n)" d="m362 13 .311 3.6889L366 17l-3.689.3111L362 21l-.311-3.6889L358 17l3.689-.3111L362 13Z"/><path fill="url(#o)" d="m337.5 156.5.389 4.611 4.611.389-4.611.389-.389 4.611-.389-4.611-4.611-.389 4.611-.389.389-4.611Z"/><g clip-path="url(#p)"><g filter="url(#q)"><path fill="#0F172A" d="M237.381 88.1478c0-28.9215 23.445-52.367 52.367-52.367 28.921 0 52.367 23.4455 52.367 52.367 0 28.9212-23.446 52.3672-52.367 52.3672-28.922 0-52.367-23.446-52.367-52.3672Z"/><path fill="url(#r)" d="M237.381 88.1478c0-28.9215 23.445-52.367 52.367-52.367 28.921 0 52.367 23.4455 52.367 52.367 0 28.9212-23.446 52.3672-52.367 52.3672-28.922 0-52.367-23.446-52.367-52.3672Z"/><path fill="#0F172A" fill-opacity=".2" d="M237.381 88.1478c0-28.9215 23.445-52.367 52.367-52.367 28.921 0 52.367 23.4455 52.367 52.367 0 28.9212-23.446 52.3672-52.367 52.3672-28.922 0-52.367-23.446-52.367-52.3672Z"/><path fill="url(#s)" fill-opacity=".21" d="M237.381 88.1478c0-28.9215 23.445-52.367 52.367-52.367 28.921 0 52.367 23.4455 52.367 52.367 0 28.9212-23.446 52.3672-52.367 52.3672-28.922 0-52.367-23.446-52.367-52.3672Z"/></g><path stroke="#E2E8F0" stroke-opacity=".2" stroke-width="1.97611" d="M238.369 88.1478c0-28.3758 23.003-51.3789 51.379-51.3789 28.376 0 51.379 23.0031 51.379 51.3789 0 28.3762-23.003 51.3792-51.379 51.3792-28.376 0-51.379-23.003-51.379-51.3792Z"/><g filter="url(#t)"><path fill="#fff" d="M271.153 73.6736c0-.4674.186-.9156.516-1.246.331-.3305.779-.5162 1.246-.5162h3.524v-3.5243c0-.4673.186-.9155.517-1.246.33-.3305.778-.5161 1.246-.5161.467 0 .915.1856 1.246.5161.33.3305.516.7787.516 1.246v3.5243h3.524c.467 0 .916.1857 1.246.5162.33.3304.516.7786.516 1.246 0 .4673-.186.9155-.516 1.246s-.779.5161-1.246.5161h-3.524V78.96c0 .4674-.186.9156-.516 1.2461-.331.3304-.779.5161-1.246.5161-.468 0-.916-.1857-1.246-.5161-.331-.3305-.517-.7787-.517-1.2461v-3.5243h-3.524c-.467 0-.915-.1856-1.246-.5161-.33-.3305-.516-.7787-.516-1.246Zm29.957 28.1944h-1.763v-1.762c0-.4675-.185-.9157-.516-1.2462-.33-.3304-.778-.5161-1.246-.5161-.467 0-.915.1857-1.246.5161-.33.3305-.516.7787-.516 1.2462v1.762h-1.762c-.467 0-.916.186-1.246.516-.331.331-.516.779-.516 1.246 0 .468.185.916.516 1.246.33.331.779.516 1.246.516h1.762v1.762c0 .468.186.916.516 1.247.331.33.779.516 1.246.516.468 0 .916-.186 1.246-.516.331-.331.516-.779.516-1.247v-1.762h1.763c.467 0 .915-.185 1.246-.516.33-.33.516-.778.516-1.246 0-.467-.186-.915-.516-1.246-.331-.33-.779-.516-1.246-.516Zm12.335-10.5729h-3.525v-3.5243c0-.4674-.185-.9156-.516-1.246-.33-.3305-.779-.5162-1.246-.5162-.467 0-.915.1857-1.246.5162-.33.3304-.516.7786-.516 1.246v3.5243h-3.524c-.468 0-.916.1857-1.246.5161-.331.3305-.516.7787-.516 1.2461 0 .4673.185.9155.516 1.246.33.3305.778.5161 1.246.5161h3.524v3.5243c0 .4674.186.9156.516 1.246.331.3305.779.5163 1.246.5163.467 0 .916-.1858 1.246-.5163.331-.3304.516-.7786.516-1.246v-3.5243h3.525c.467 0 .915-.1856 1.246-.5161.33-.3305.516-.7787.516-1.246 0-.4674-.186-.9156-.516-1.2461-.331-.3304-.779-.5161-1.246-.5161Zm-4.558-14.0972-30.685 30.6861c-.661.66-1.557 1.031-2.492 1.031-.934 0-1.83-.371-2.491-1.031l-4.56-4.556c-.327-.327-.587-.715-.764-1.143-.177-.428-.268-.886-.268-1.349 0-.463.091-.9212.268-1.3488.177-.4277.437-.8162.764-1.1435l30.688-30.6857c.328-.3273.716-.587 1.144-.7641.427-.1772.886-.2684 1.349-.2684.463 0 .921.0912 1.349.2684.427.1771.816.4368 1.143.7641l4.555 4.5552c.328.3273.587.7158.764 1.1435.178.4276.269.886.269 1.3488 0 .4629-.091.9213-.269 1.3489-.177.4277-.436.8162-.764 1.1435Zm-12.033 7.0486-4.555-4.5574-21.146 21.1459 4.555 4.557 21.146-21.1455Zm9.542-9.5399-4.557-4.5573-7.049 7.0486 4.557 4.5574 7.049-7.0487Z"/></g><path fill="url(#u)" d="m261 108 .311 3.689L265 112l-3.689.311L261 116l-.311-3.689L257 112l3.689-.311L261 108Z"/></g><path stroke="#E2E8F0" stroke-opacity=".2" stroke-width="2" d="M226 88.5c0-35.0701 28.43-63.5 63.5-63.5S353 53.4299 353 88.5c0 35.07-28.43 63.5-63.5 63.5S226 123.57 226 88.5Z"/><path stroke="#E2E8F0" stroke-opacity=".04" stroke-width="2" d="M214 88.5c0-41.6975 33.802-75.5 75.5-75.5S365 46.8025 365 88.5c0 41.698-33.802 75.5-75.5 75.5S214 130.198 214 88.5Z"/><g filter="url(#v)" opacity=".4"><path fill="url(#w)" d="m304.5-12 13.295 169.222L420.467 22.0511 340.164 171.597l159.452-58.204-148.406 82.391 165.607 37.243-169.391-10.924 119.182 120.865-136.595-100.769 34.919 166.112L304.5 249.69l-60.432 158.621 34.919-166.112-136.595 100.769 119.182-120.865-169.3907 10.924L257.79 195.784l-148.406-82.391 159.452 58.204-80.303-149.5459L291.205 157.222 304.5-12Z"/></g></g><path stroke="url(#x)" stroke-width="2" d="M201 53.5h-82" opacity=".2"/><path stroke="url(#y)" stroke-width="2" d="M200.672 77h-82" opacity=".2"/><path stroke="url(#z)" stroke-width="2" d="M200.672 101h-82" opacity=".2"/><path stroke="url(#A)" stroke-width="2" d="M200.672 125h-82" opacity=".2"/><path stroke="url(#B)" stroke-width="2" d="M377.672 53.5h82" opacity=".2"/><path stroke="url(#C)" stroke-width="2" d="M378 77h82" opacity=".2"/><path stroke="url(#D)" stroke-width="2" d="M378 101h82" opacity=".2"/><path stroke="url(#E)" stroke-width="2" d="M378 125h82" opacity=".2"/><defs><radialGradient id="d" cx="0" cy="0" r="1" gradientTransform="matrix(0 .89 -.89 0 214.929 74.0272)" gradientUnits="userSpaceOnUse"><stop stop-color="#94A3B8"/><stop offset="1" stop-color="#94A3B8" stop-opacity="0"/></radialGradient><radialGradient id="e" cx="0" cy="0" r="1" gradientTransform="rotate(90 79 192.89) scale(.89)" gradientUnits="userSpaceOnUse"><stop stop-color="#94A3B8"/><stop offset="1" stop-color="#94A3B8" stop-opacity="0"/></radialGradient><radialGradient id="f" cx="0" cy="0" r="1" gradientTransform="rotate(90 97.215 229.87) scale(.89)" gradientUnits="userSpaceOnUse"><stop stop-color="#94A3B8"/><stop offset="1" stop-color="#94A3B8" stop-opacity="0"/></radialGradient><radialGradient id="g" cx="0" cy="0" r="1" gradientTransform="matrix(0 .89 -.89 0 312.38 138.733)" gradientUnits="userSpaceOnUse"><stop stop-color="#94A3B8"/><stop offset="1" stop-color="#94A3B8" stop-opacity="0"/></radialGradient><radialGradient id="h" cx="0" cy="0" r="1" gradientTransform="rotate(90 127.5 245.39) scale(.89)" gradientUnits="userSpaceOnUse"><stop stop-color="#94A3B8"/><stop offset="1" stop-color="#94A3B8" stop-opacity="0"/></radialGradient><radialGradient id="i" cx="0" cy="0" r="1" gradientTransform="rotate(90 107 148.89) scale(.89)" gradientUnits="userSpaceOnUse"><stop stop-color="#94A3B8"/><stop offset="1" stop-color="#94A3B8" stop-opacity="0"/></radialGradient><radialGradient id="j" cx="0" cy="0" r="1" gradientTransform="rotate(90 48 182.89) scale(.89)" gradientUnits="userSpaceOnUse"><stop stop-color="#94A3B8"/><stop offset="1" stop-color="#94A3B8" stop-opacity="0"/></radialGradient><radialGradient id="k" cx="0" cy="0" r="1" gradientTransform="matrix(0 .89 -.89 0 290.89 21.89)" gradientUnits="userSpaceOnUse"><stop stop-color="#94A3B8"/><stop offset="1" stop-color="#94A3B8" stop-opacity="0"/></radialGradient><radialGradient id="l" cx="0" cy="0" r="1" gradientTransform="matrix(0 .89 -.89 0 356.89 43.89)" gradientUnits="userSpaceOnUse"><stop stop-color="#94A3B8"/><stop offset="1" stop-color="#94A3B8" stop-opacity="0"/></radialGradient><radialGradient id="m" cx="0" cy="0" r="1" gradientTransform="rotate(90 86 122.5) scale(5.5)" gradientUnits="userSpaceOnUse"><stop stop-color="#94A3B8"/><stop offset="1" stop-color="#94A3B8" stop-opacity="0"/></radialGradient><radialGradient id="n" cx="0" cy="0" r="1" gradientTransform="matrix(0 4 -4 0 362 17)" gradientUnits="userSpaceOnUse"><stop stop-color="#94A3B8"/><stop offset="1" stop-color="#94A3B8" stop-opacity="0"/></radialGradient><radialGradient id="o" cx="0" cy="0" r="1" gradientTransform="rotate(90 88 249.5) scale(5)" gradientUnits="userSpaceOnUse"><stop stop-color="#94A3B8"/><stop offset="1" stop-color="#94A3B8" stop-opacity="0"/></radialGradient><radialGradient id="u" cx="0" cy="0" r="1" gradientTransform="matrix(0 4 -4 0 261 112)" gradientUnits="userSpaceOnUse"><stop stop-color="#94A3B8"/><stop offset="1" stop-color="#94A3B8" stop-opacity="0"/></radialGradient><radialGradient id="w" cx="0" cy="0" r="1" gradientTransform="rotate(90 51 253.5) scale(214.5)" gradientUnits="userSpaceOnUse"><stop stop-color="#fff"/><stop offset="1" stop-color="#fff" stop-opacity="0"/></radialGradient><linearGradient id="b" x1="289.5" x2="289.5" y1="0" y2="177" gradientUnits="userSpaceOnUse"><stop stop-color="#0F172A"/><stop offset=".72" stop-color="#020420"/></linearGradient><linearGradient id="c" x1="267.151" x2="228.909" y1=".0000085" y2="127.411" gradientUnits="userSpaceOnUse"><stop stop-color="#E2E8F0"/><stop offset="1" stop-color="#E2E8F0" stop-opacity="0"/></linearGradient><linearGradient id="r" x1="289.748" x2="289.748" y1="35.7808" y2="71.3101" gradientUnits="userSpaceOnUse"><stop stop-color="#334155" stop-opacity=".5"/><stop offset="1" stop-color="#020420" stop-opacity=".5"/></linearGradient><linearGradient id="s" x1="276.524" x2="253.895" y1="35.7808" y2="111.172" gradientUnits="userSpaceOnUse"><stop stop-color="#E2E8F0"/><stop offset="1" stop-color="#E2E8F0" stop-opacity="0"/></linearGradient><linearGradient id="x" x1="204.968" x2="136.481" y1="53" y2="90.5115" gradientUnits="userSpaceOnUse"><stop stop-color="#CBD5E1"/><stop offset="1" stop-color="#CBD5E1" stop-opacity="0"/></linearGradient><linearGradient id="y" x1="204.639" x2="136.153" y1="76.5" y2="114.011" gradientUnits="userSpaceOnUse"><stop stop-color="#CBD5E1"/><stop offset="1" stop-color="#CBD5E1" stop-opacity="0"/></linearGradient><linearGradient id="z" x1="204.639" x2="136.153" y1="100.5" y2="138.011" gradientUnits="userSpaceOnUse"><stop stop-color="#CBD5E1"/><stop offset="1" stop-color="#CBD5E1" stop-opacity="0"/></linearGradient><linearGradient id="A" x1="204.639" x2="136.153" y1="124.5" y2="162.011" gradientUnits="userSpaceOnUse"><stop stop-color="#CBD5E1"/><stop offset="1" stop-color="#CBD5E1" stop-opacity="0"/></linearGradient><linearGradient id="B" x1="373.704" x2="442.19" y1="53" y2="90.5115" gradientUnits="userSpaceOnUse"><stop stop-color="#CBD5E1"/><stop offset="1" stop-color="#CBD5E1" stop-opacity="0"/></linearGradient><linearGradient id="C" x1="374.032" x2="442.519" y1="76.5" y2="114.011" gradientUnits="userSpaceOnUse"><stop stop-color="#CBD5E1"/><stop offset="1" stop-color="#CBD5E1" stop-opacity="0"/></linearGradient><linearGradient id="D" x1="374.032" x2="442.519" y1="100.5" y2="138.011" gradientUnits="userSpaceOnUse"><stop stop-color="#CBD5E1"/><stop offset="1" stop-color="#CBD5E1" stop-opacity="0"/></linearGradient><linearGradient id="E" x1="374.032" x2="442.519" y1="124.5" y2="162.011" gradientUnits="userSpaceOnUse"><stop stop-color="#CBD5E1"/><stop offset="1" stop-color="#CBD5E1" stop-opacity="0"/></linearGradient><filter id="q" width="104.734" height="108.734" x="237.381" y="35.7808" color-interpolation-filters="sRGB" filterUnits="userSpaceOnUse"><feFlood flood-opacity="0" result="BackgroundImageFix"/><feBlend in="SourceGraphic" in2="BackgroundImageFix" result="shape"/><feColorMatrix in="SourceAlpha" result="hardAlpha" values="0 0 0 0 0 0 0 0 0 0 0 0 0 0 0 0 0 0 127 0"/><feMorphology in="SourceAlpha" operator="dilate" radius="3" result="effect1_innerShadow_941_173374"/><feOffset/><feGaussianBlur stdDeviation="5.5"/><feComposite in2="hardAlpha" k2="-1" k3="1" operator="arithmetic"/><feColorMatrix values="0 0 0 0 0.00640197 0 0 0 0 0.0128415 0 0 0 0 0.102995 0 0 0 1 0"/><feBlend in2="shape" result="effect1_innerShadow_941_173374"/><feColorMatrix in="SourceAlpha" result="hardAlpha" values="0 0 0 0 0 0 0 0 0 0 0 0 0 0 0 0 0 0 127 0"/><feOffset dy="4"/><feGaussianBlur stdDeviation="2"/><feComposite in2="hardAlpha" k2="-1" k3="1" operator="arithmetic"/><feColorMatrix values="0 0 0 0 0.00640197 0 0 0 0 0.0128415 0 0 0 0 0.102995 0 0 0 0.32 0"/><feBlend in2="effect1_innerShadow_941_173374" result="effect2_innerShadow_941_173374"/></filter><filter id="t" width="47.5801" height="46.2917" x="267.627" y="66.625" color-interpolation-filters="sRGB" filterUnits="userSpaceOnUse"><feFlood flood-opacity="0" result="BackgroundImageFix"/><feBlend in="SourceGraphic" in2="BackgroundImageFix" result="shape"/><feColorMatrix in="SourceAlpha" result="hardAlpha" values="0 0 0 0 0 0 0 0 0 0 0 0 0 0 0 0 0 0 127 0"/><feMorphology in="SourceAlpha" operator="dilate" radius="3" result="effect1_innerShadow_941_173374"/><feOffset/><feGaussianBlur stdDeviation="4.05"/><feComposite in2="hardAlpha" k2="-1" k3="1" operator="arithmetic"/><feColorMatrix values="0 0 0 0 0.00640197 0 0 0 0 0.0128415 0 0 0 0 0.102995 0 0 0 0.72 0"/><feBlend in2="shape" result="effect1_innerShadow_941_173374"/><feColorMatrix in="SourceAlpha" result="hardAlpha" values="0 0 0 0 0 0 0 0 0 0 0 0 0 0 0 0 0 0 127 0"/><feOffset dy="4"/><feGaussianBlur stdDeviation="2"/><feComposite in2="hardAlpha" k2="-1" k3="1" operator="arithmetic"/><feColorMatrix values="0 0 0 0 0.00640197 0 0 0 0 0.0128415 0 0 0 0 0.102995 0 0 0 0.15 0"/><feBlend in2="effect1_innerShadow_941_173374" result="effect2_innerShadow_941_173374"/></filter><filter id="v" width="486.633" height="482.311" x="61.1836" y="-43" color-interpolation-filters="sRGB" filterUnits="userSpaceOnUse"><feFlood flood-opacity="0" result="BackgroundImageFix"/><feBlend in="SourceGraphic" in2="BackgroundImageFix" result="shape"/><feGaussianBlur result="effect1_foregroundBlur_941_173374" stdDeviation="15.5"/></filter><clipPath id="a"><rect width="177" height="177" x="201" fill="#fff" rx="12"/></clipPath><clipPath id="p"><path fill="#fff" d="M237 36h105v105H237z"/></clipPath></defs></svg>
