<svg xmlns="http://www.w3.org/2000/svg" fill="none" viewBox="0 0 581 310"><g clip-path="url(#a)"><rect width="579.916" height="292.064" x=".304688" fill="url(#b)" rx="7.02078"/><rect width="579.916" height="292.064" x=".304688" fill="url(#c)" fill-opacity=".52" rx="7.02078"/><rect width="579.916" height="292.064" x=".304688" fill="url(#d)" fill-opacity=".08" rx="7.02078"/><rect width="578.777" height="290.925" x=".874308" y=".56962" stroke="url(#e)" stroke-opacity=".4" stroke-width="1.13924" rx="6.45116"/><path fill="#CBD5E1" d="M18.5125 88.4355V83.521h.7021v2.1343l1.9658-2.1343h.8776l-1.8254 1.9518 1.8605 2.9627h-.8565l-1.5025-2.4151-.5195.5546v1.8605h-.7021Zm5.5697.0843c-.337 0-.6366-.0772-.8987-.2317-.2621-.1544-.468-.3698-.6178-.6459-.1451-.2762-.2176-.5968-.2176-.9618 0-.3745.0725-.6998.2176-.9759.1498-.2809.3557-.4985.6178-.653.2621-.1591.5664-.2387.9127-.2387.3464 0 .6436.0773.8917.2317.248.1545.4399.3604.5757.6178.1357.2528.2036.5336.2036.8425 0 .0468-.0024.0983-.007.1545 0 .0515-.0024.11-.0071.1755h-2.8925v-.4985h2.2045c-.014-.2948-.1123-.5242-.2949-.688-.1825-.1685-.4095-.2528-.681-.2528-.1919 0-.3674.0445-.5265.1334-.1592.0843-.2879.2107-.3862.3792-.0936.1638-.1404.3721-.1404.6248v.1966c0 .2621.0468.4844.1404.667.0983.1778.227.3136.3862.4072.1591.0889.3323.1334.5195.1334.2247 0 .4095-.0492.5546-.1475s.2528-.2317.323-.4001h.7021c-.0609.2153-.1639.4095-.3089.5827-.1451.1685-.3253.3019-.5406.4002-.2107.0983-.4541.1474-.7302.1474Zm2.7214 1.4603.8635-1.9377h-.2036l-1.3971-3.1453h.7582l1.1093 2.5696 1.1163-2.5696h.7372l-2.2467 5.083h-.7371ZM189.668 88.5198c-.482 0-.899-.1053-1.25-.3159-.346-.2153-.615-.5126-.807-.8917-.187-.3838-.281-.8284-.281-1.3339 0-.5008.094-.9432.281-1.327.192-.3838.461-.681.807-.8916.351-.2153.768-.3229 1.25-.3229.576 0 1.041.138 1.397.4142.36.2761.59.6646.688 1.1654h-.772c-.07-.2902-.216-.5219-.436-.695-.215-.1732-.507-.2598-.877-.2598-.332 0-.62.0772-.864.2317-.243.1544-.43.3744-.561.6599-.131.2856-.197.6272-.197 1.0251 0 .3978.066.7418.197 1.032.131.2855.318.5055.561.66.244.1498.532.2246.864.2246.37 0 .662-.0819.877-.2457.22-.1685.366-.3955.436-.681h.772c-.098.4868-.328.8682-.688 1.1444-.356.2715-.821.4072-1.397.4072Zm2.89-.0843v-3.5384h.632l.063.6669c.08-.1591.182-.2925.309-.4001.126-.1124.274-.199.442-.2598.173-.0609.37-.0913.59-.0913v.7442h-.253c-.145 0-.283.0187-.414.0562-.131.0328-.248.0913-.351.1755-.098.0843-.176.1989-.232.344-.056.1451-.084.3253-.084.5406v1.7622h-.702Zm4.179.0843c-.337 0-.637-.0772-.899-.2317-.262-.1544-.468-.3698-.618-.6459-.145-.2762-.218-.5968-.218-.9618 0-.3745.073-.6998.218-.9759.15-.2809.356-.4985.618-.653.262-.1591.566-.2387.913-.2387.346 0 .643.0773.891.2317.248.1545.44.3604.576.6178.136.2528.204.5336.204.8425 0 .0468-.003.0983-.007.1545 0 .0515-.003.11-.007.1755h-2.893v-.4985h2.204c-.014-.2948-.112-.5242-.294-.688-.183-.1685-.41-.2528-.681-.2528-.192 0-.368.0445-.527.1334-.159.0843-.288.2107-.386.3792-.094.1638-.141.3721-.141.6248v.1966c0 .2621.047.4844.141.667.098.1778.227.3136.386.4072.159.0889.332.1334.52.1334.224 0 .409-.0492.554-.1475.145-.0983.253-.2317.323-.4001h.702c-.061.2153-.164.4095-.309.5827-.145.1685-.325.3019-.54.4002-.211.0983-.454.1474-.73.1474Zm3.637 0c-.29 0-.531-.0491-.723-.1474-.192-.0983-.335-.2294-.428-.3932-.094-.1685-.141-.3487-.141-.5406 0-.234.061-.433.183-.5968.121-.1685.295-.2972.519-.3861.225-.0889.494-.1334.808-.1334h.919c0-.206-.03-.3768-.091-.5125-.061-.1358-.152-.2364-.274-.3019-.117-.0702-.266-.1053-.449-.1053-.211 0-.391.0515-.541.1544-.149.0983-.243.2458-.28.4423h-.703c.029-.248.113-.4587.253-.6318.145-.1779.33-.3136.555-.4072.225-.0983.463-.1475.716-.1475.332 0 .611.0585.835.1755.225.1171.394.2832.506.4985.117.2106.175.4634.175.7583v2.1904h-.61l-.056-.5967c-.052.0936-.113.1825-.183.2668-.07.0842-.154.1568-.253.2176-.093.0609-.203.1077-.33.1404-.121.0375-.257.0562-.407.0562Zm.133-.5687c.15 0 .286-.0304.408-.0913.121-.0608.224-.1427.309-.2457.088-.1076.154-.227.196-.358.047-.1358.073-.2739.077-.4143v-.021h-.835c-.201 0-.365.0257-.492.0772-.121.0468-.21.1123-.266.1966-.057.0842-.085.1825-.085.2949 0 .117.026.2176.078.3018.056.0796.135.1428.238.1896.103.0468.227.0702.372.0702Zm3.988.4844c-.225 0-.419-.0351-.583-.1053-.164-.0702-.29-.1872-.379-.351-.089-.1638-.134-.3861-.134-.667v-1.8184h-.611v-.5967h.611l.085-.8846h.617v.8846h1.004v.5967h-1.004v1.8254c0 .2013.042.3394.127.4143.084.0702.229.1053.435.1053h.407v.5967h-.575Zm2.889.0843c-.337 0-.636-.0772-.898-.2317-.262-.1544-.468-.3698-.618-.6459-.145-.2762-.218-.5968-.218-.9618 0-.3745.073-.6998.218-.9759.15-.2809.356-.4985.618-.653.262-.1591.566-.2387.912-.2387.347 0 .644.0773.892.2317.248.1545.44.3604.576.6178.135.2528.203.5336.203.8425 0 .0468-.002.0983-.007.1545 0 .0515-.002.11-.007.1755h-2.892v-.4985h2.204c-.014-.2948-.112-.5242-.295-.688-.182-.1685-.409-.2528-.681-.2528-.192 0-.367.0445-.526.1334-.159.0843-.288.2107-.386.3792-.094.1638-.141.3721-.141.6248v.1966c0 .2621.047.4844.141.667.098.1778.227.3136.386.4072.159.0889.332.1334.519.1334.225 0 .41-.0492.555-.1475.145-.0983.253-.2317.323-.4001h.702c-.061.2153-.164.4095-.309.5827-.145.1685-.325.3019-.541.4002-.21.0983-.454.1474-.73.1474Zm4.038 0c-.337 0-.634-.0796-.892-.2387-.257-.1638-.458-.3838-.603-.66-.141-.2808-.211-.5991-.211-.9548 0-.3604.07-.6787.211-.9548.145-.2762.346-.4938.603-.6529.262-.1639.562-.2458.899-.2458.276 0 .52.0562.73.1685.211.1077.375.2621.492.4634v-2.0641h.702v5.0549h-.632l-.07-.5476c-.071.1077-.162.2106-.274.3089-.113.0937-.248.1709-.407.2317-.16.0609-.342.0913-.548.0913Zm.112-.6108c.22 0 .415-.0515.583-.1545.169-.1029.297-.248.386-.4353.094-.1872.141-.4048.141-.6529 0-.2481-.047-.4634-.141-.6459-.089-.1872-.217-.3323-.386-.4353-.168-.1076-.363-.1615-.583-.1615-.21 0-.4.0539-.568.1615-.169.103-.3.2481-.394.4353-.093.1825-.14.3978-.14.6459 0 .2481.047.4657.14.6529.094.1873.225.3324.394.4353.168.103.358.1545.568.1545ZM281.513 88.4355V83.521h3.103v.5757h-2.401v1.5727h2.19v.5616h-2.19v1.6288h2.401v.5757h-3.103Zm3.638 0 1.222-1.7692-1.222-1.7692h.759l.926 1.376.934-1.376h.751l-1.221 1.7692 1.221 1.7692h-.751l-.934-1.383-.926 1.383h-.759Zm3.985 1.5446v-5.083h.632l.07.5476c.075-.1077.168-.2083.281-.3019.112-.0983.245-.1779.4-.2387.159-.0609.344-.0913.555-.0913.337 0 .631.0819.884.2458.258.1638.457.3861.597.6669.145.2762.218.5921.218.9478 0 .3558-.073.674-.218.9549-.145.2761-.346.4938-.604.6529-.253.1591-.547.2387-.884.2387-.277 0-.52-.0538-.731-.1615-.21-.1123-.376-.2668-.498-.4634v2.0852h-.702Zm1.818-2.0711c.216 0 .405-.0515.569-.1545.168-.1029.299-.248.393-.4353.098-.1872.147-.4048.147-.6529 0-.2481-.049-.4634-.147-.6459-.094-.1872-.225-.3323-.393-.4353-.164-.1076-.353-.1615-.569-.1615-.22 0-.414.0539-.583.1615-.163.103-.292.2481-.386.4353-.093.1825-.14.3978-.14.6459 0 .2481.047.4657.14.6529.094.1873.223.3324.386.4353.169.103.363.1545.583.1545Zm2.688.5265v-3.5384h.702v3.5384h-.702Zm.358-4.2054c-.136 0-.248-.0421-.337-.1264-.085-.0842-.127-.1919-.127-.3229 0-.1264.042-.2294.127-.3089.089-.0843.201-.1264.337-.1264.131 0 .241.0421.33.1264.088.0795.133.1825.133.3089 0 .131-.045.2387-.133.3229-.089.0843-.199.1264-.33.1264Zm1.348 4.2054v-3.5384h.631l.064.6669c.079-.1591.182-.2925.309-.4001.126-.1124.273-.199.442-.2598.173-.0609.37-.0913.59-.0913v.7442h-.253c-.145 0-.283.0187-.414.0562-.131.0328-.248.0913-.351.1755-.099.0843-.176.1989-.232.344-.056.1451-.084.3253-.084.5406v1.7622h-.702Zm4.178.0843c-.337 0-.636-.0772-.898-.2317-.263-.1544-.468-.3698-.618-.6459-.145-.2762-.218-.5968-.218-.9618 0-.3745.073-.6998.218-.9759.15-.2809.355-.4985.618-.653.262-.1591.566-.2387.912-.2387.347 0 .644.0773.892.2317.248.1545.44.3604.576.6178.135.2528.203.5336.203.8425 0 .0468-.002.0983-.007.1545 0 .0515-.002.11-.007.1755h-2.892v-.4985h2.204c-.014-.2948-.112-.5242-.295-.688-.182-.1685-.409-.2528-.681-.2528-.192 0-.367.0445-.526.1334-.159.0843-.288.2107-.386.3792-.094.1638-.141.3721-.141.6248v.1966c0 .2621.047.4844.141.667.098.1778.227.3136.386.4072.159.0889.332.1334.519.1334.225 0 .41-.0492.555-.1475.145-.0983.253-.2317.323-.4001h.702c-.061.2153-.164.4095-.309.5827-.145.1685-.325.3019-.541.4002-.21.0983-.454.1474-.73.1474Zm3.834 0c-.299 0-.561-.0491-.786-.1474-.225-.0983-.403-.2364-.534-.4143-.131-.1778-.21-.3861-.238-.6248h.716c.023.1123.068.2153.133.3089.07.0936.164.1685.281.2247.122.0561.264.0842.428.0842.155 0 .281-.021.379-.0632.103-.0468.178-.1076.225-.1825.047-.0796.07-.1638.07-.2528 0-.131-.032-.2293-.098-.2948-.061-.0702-.154-.1241-.281-.1615-.122-.0421-.269-.0796-.442-.1123-.164-.0281-.323-.0656-.478-.1124-.149-.0515-.285-.1147-.407-.1895-.117-.0749-.21-.1685-.281-.2809-.07-.117-.105-.2597-.105-.4282 0-.2013.054-.3815.162-.5406.107-.1639.259-.2902.456-.3792.201-.0936.438-.1404.709-.1404.393 0 .709.0936.948.2809.239.1872.379.4516.421.7933h-.681c-.019-.1591-.089-.2808-.211-.3651-.121-.0889-.283-.1334-.484-.1334s-.356.0398-.463.1194c-.108.0796-.162.1849-.162.3159 0 .0843.031.1592.091.2247.061.0655.15.1217.267.1685.122.0421.269.0819.443.1193.248.0468.47.1053.667.1756.196.0702.353.1731.47.3089.117.1357.175.3299.175.5827.005.22-.051.4142-.168.5827-.112.1685-.274.2996-.485.3932-.205.0936-.451.1404-.737.1404ZM370.513 88.4355V83.521h1.509c.571 0 1.044.1006 1.418.3019.375.2013.651.4868.829.8565.182.3651.273.8004.273 1.3059 0 .5055-.091.9408-.273 1.3059-.178.365-.454.6482-.829.8495-.37.1966-.842.2948-1.418.2948h-1.509Zm.702-.5897h.779c.454 0 .814-.0749 1.081-.2247.267-.1497.456-.3627.569-.6389.117-.2808.175-.6131.175-.9969 0-.3885-.058-.7231-.175-1.004-.113-.2808-.302-.4961-.569-.6459-.267-.1498-.627-.2247-1.081-.2247h-.779v3.7351Zm5.436.674c-.276 0-.517-.0562-.723-.1685-.201-.1123-.358-.2808-.47-.5055-.108-.2247-.162-.5078-.162-.8495v-2.0992h.702v2.022c0 .3323.073.5827.218.7512.145.1685.353.2527.625.2527.182 0 .346-.0444.491-.1334.15-.0889.267-.2176.351-.3861.084-.1685.126-.3744.126-.6178v-1.8886h.703v3.5384h-.625l-.049-.6037c-.108.2153-.265.3838-.471.5055-.206.1216-.444.1825-.716.1825Zm2.822-.0843v-3.5384h.632l.063.6669c.079-.1591.182-.2925.309-.4001.126-.1124.274-.199.442-.2598.173-.0609.37-.0913.59-.0913v.7442h-.253c-.145 0-.283.0187-.414.0562-.131.0328-.248.0913-.351.1755-.098.0843-.176.1989-.232.344-.056.1451-.084.3253-.084.5406v1.7622h-.702Zm3.853.0843c-.29 0-.531-.0491-.723-.1474-.192-.0983-.335-.2294-.428-.3932-.094-.1685-.141-.3487-.141-.5406 0-.234.061-.433.183-.5968.121-.1685.295-.2972.519-.3861.225-.0889.494-.1334.808-.1334h.919c0-.206-.03-.3768-.091-.5125-.061-.1358-.152-.2364-.274-.3019-.117-.0702-.266-.1053-.449-.1053-.211 0-.391.0515-.541.1544-.149.0983-.243.2458-.28.4423h-.703c.029-.248.113-.4587.253-.6318.145-.1779.33-.3136.555-.4072.225-.0983.463-.1475.716-.1475.332 0 .611.0585.835.1755.225.1171.394.2832.506.4985.117.2106.175.4634.175.7583v2.1904h-.61l-.056-.5967c-.052.0936-.113.1825-.183.2668-.07.0842-.154.1568-.253.2176-.093.0609-.203.1077-.33.1404-.121.0375-.257.0562-.407.0562Zm.133-.5687c.15 0 .286-.0304.408-.0913.121-.0608.224-.1427.309-.2457.088-.1076.154-.227.196-.358.047-.1358.073-.2739.077-.4143v-.021h-.835c-.201 0-.365.0257-.492.0772-.121.0468-.21.1123-.266.1966-.057.0842-.085.1825-.085.2949 0 .117.026.2176.078.3018.056.0796.135.1428.238.1896.103.0468.227.0702.372.0702Zm3.988.4844c-.225 0-.419-.0351-.583-.1053-.164-.0702-.29-.1872-.379-.351-.089-.1638-.134-.3861-.134-.667v-1.8184h-.611v-.5967h.611l.085-.8846h.617v.8846h1.004v.5967h-1.004v1.8254c0 .2013.042.3394.127.4143.084.0702.229.1053.435.1053h.407v.5967h-.575Zm1.434 0v-3.5384h.702v3.5384h-.702Zm.358-4.2054c-.136 0-.248-.0421-.337-.1264-.084-.0842-.127-.1919-.127-.3229 0-.1264.043-.2294.127-.3089.089-.0843.201-.1264.337-.1264.131 0 .241.0421.33.1264.089.0795.133.1825.133.3089 0 .131-.044.2387-.133.3229-.089.0843-.199.1264-.33.1264Zm2.963 4.2897c-.333 0-.632-.0772-.899-.2317-.262-.1544-.471-.3698-.625-.6459-.15-.2808-.225-.6038-.225-.9689 0-.3744.078-.6997.232-.9759.154-.2808.365-.4984.632-.6529.267-.1544.566-.2317.899-.2317.337 0 .636.0773.898.2317.262.1545.468.3698.618.6459.155.2762.232.6015.232.9759 0 .3745-.077.6997-.232.9759-.15.2761-.358.4915-.625.6459-.267.1545-.568.2317-.905.2317Zm0-.6038c.191 0 .365-.0468.519-.1404.159-.0936.286-.2317.379-.4142.098-.1873.148-.4189.148-.6951 0-.2761-.047-.5055-.141-.688-.093-.1872-.22-.3277-.379-.4213-.154-.0936-.325-.1404-.512-.1404-.188 0-.361.0468-.52.1404-.159.0936-.288.2341-.386.4213-.094.1825-.141.4119-.141.688 0 .2762.047.5078.141.6951.098.1825.225.3206.379.4142.159.0936.33.1404.513.1404Zm2.588.5195v-3.5384h.631l.043.6038c.112-.2107.271-.3768.477-.4985.206-.1264.442-.1896.709-.1896.281 0 .522.0562.723.1685.202.1124.358.2832.471.5125.112.2247.168.5079.168.8496v2.0921h-.702v-2.0219c0-.3277-.072-.5757-.218-.7442-.145-.1685-.355-.2528-.631-.2528-.183 0-.347.0445-.492.1334-.145.0843-.262.2106-.351.3791-.084.1685-.126.3745-.126.6179v1.8885h-.702ZM452.12 88.5198c-.36 0-.676-.0632-.948-.1896-.271-.131-.482-.3136-.631-.5476-.15-.234-.225-.5078-.225-.8214h.737c.005.1778.047.3417.126.4914.085.1451.204.2621.359.3511.159.0842.353.1264.582.1264.197 0 .365-.0328.506-.0983.145-.0656.255-.1545.33-.2668.075-.117.112-.2504.112-.4002 0-.1732-.04-.3159-.119-.4283-.08-.1123-.187-.2036-.323-.2738-.131-.0749-.286-.1404-.464-.1966-.173-.0561-.355-.117-.547-.1825-.389-.1264-.679-.2902-.871-.4915-.187-.2012-.281-.4633-.281-.7863 0-.2761.066-.5149.197-.7161.131-.206.314-.3651.548-.4774.238-.117.519-.1755.842-.1755.318 0 .597.0585.836.1755.238.117.425.2785.561.4844.136.2059.204.447.204.7231h-.744c0-.1263-.033-.2504-.099-.3721-.065-.1216-.164-.2199-.295-.2948-.131-.0796-.292-.1194-.484-.1194-.159-.0047-.302.0211-.428.0772-.127.0562-.225.1381-.295.2458-.07.1076-.105.2363-.105.3861s.03.2715.091.3651c.065.0889.159.1662.281.2317.121.0655.262.1264.421.1825.164.0515.344.11.541.1755.243.0796.458.1779.645.2949.192.1123.342.2598.45.4423.112.1779.168.4072.168.6881 0 .2433-.063.4704-.189.681-.127.2106-.314.3838-.562.5195-.248.1311-.557.1966-.927.1966Zm2.527-.0843v-3.5384h.702v3.5384h-.702Zm.358-4.2054c-.136 0-.248-.0421-.337-.1264-.084-.0842-.126-.1919-.126-.3229 0-.1264.042-.2294.126-.3089.089-.0843.201-.1264.337-.1264.131 0 .241.0421.33.1264.089.0795.134.1825.134.3089 0 .131-.045.2387-.134.3229-.089.0843-.199.1264-.33.1264Zm1.117 4.2054v-.5686l1.902-2.3801h-1.874v-.5897h2.675v.5757l-1.91 2.38h1.945v.5827h-2.738Zm5.116.0843c-.337 0-.636-.0772-.899-.2317-.262-.1544-.468-.3698-.617-.6459-.146-.2762-.218-.5968-.218-.9618 0-.3745.072-.6998.218-.9759.149-.2809.355-.4985.617-.653.263-.1591.567-.2387.913-.2387.346 0 .644.0773.892.2317.248.1545.44.3604.575.6178.136.2528.204.5336.204.8425 0 .0468-.002.0983-.007.1545 0 .0515-.002.11-.007.1755h-2.893v-.4985h2.205c-.014-.2948-.112-.5242-.295-.688-.182-.1685-.409-.2528-.681-.2528-.192 0-.367.0445-.526.1334-.16.0843-.288.2107-.387.3792-.093.1638-.14.3721-.14.6248v.1966c0 .2621.047.4844.14.667.099.1778.227.3136.387.4072.159.0889.332.1334.519.1334.225 0 .41-.0492.555-.1475.145-.0983.252-.2317.323-.4001h.702c-.061.2153-.164.4095-.309.5827-.145.1685-.325.3019-.541.4002-.21.0983-.454.1474-.73.1474Z"/><rect width="44" height="3" x="527" y="61.4355" fill="#475569" rx="1.40416"/><rect width="65" height="3" x="511" y="39.4355" fill="#475569" rx="1.40416"/><rect width="8.42494" height="8.42494" x="514" y="58.4355" fill="#475569" rx="1.40416"/><rect width="65.2979" height="15.2979" x="510.351" y="54.7866" stroke="#E2E8F0" stroke-opacity=".08" stroke-width=".702078" rx="2.45727"/><rect width="15" height="3" x="11" y="40.4355" fill="#475569" rx="1.40416"/><rect width="47" height="3" x="19" y="112.436" fill="#475569" rx="1.40416"/><rect width="46" height="3" x="187" y="112.436" fill="#475569" rx="1.40416"/><rect width="25" height="3" x="281" y="112.436" fill="#475569" rx="1.40416"/><rect width="34" height="3" x="370" y="112.436" fill="#475569" rx="1.40416"/><rect width="19" height="3" x="450" y="112.436" fill="#475569" rx="1.40416"/><rect width="19" height="3" x="450" y="144.436" fill="#475569" rx="1.40416"/><rect width="19" height="3" x="450" y="175.436" fill="#475569" rx="1.40416"/><rect width="19" height="3" x="450" y="207.436" fill="#475569" rx="1.40416"/><rect width="19" height="3" x="450" y="239.436" fill="#475569" rx="1.40416"/><rect width="19" height="3" x="450" y="270.436" fill="#475569" rx="1.40416"/><rect width="19" height="3" x="450" y="302.436" fill="#475569" opacity=".25" rx="1.40416"/><rect width="34" height="3" x="370" y="144.436" fill="#475569" rx="1.40416"/><rect width="34" height="3" x="370" y="175.436" fill="#475569" rx="1.40416"/><rect width="34" height="3" x="370" y="207.436" fill="#475569" rx="1.40416"/><rect width="34" height="3" x="370" y="239.436" fill="#475569" rx="1.40416"/><rect width="34" height="3" x="370" y="270.436" fill="#475569" rx="1.40416"/><rect width="34" height="3" x="370" y="302.436" fill="#475569" opacity=".25" rx="1.40416"/><rect width="25" height="3" x="281" y="144.436" fill="#475569" rx="1.40416"/><rect width="25" height="3" x="281" y="175.436" fill="#475569" rx="1.40416"/><rect width="25" height="3" x="281" y="207.436" fill="#475569" rx="1.40416"/><rect width="25" height="3" x="281" y="239.436" fill="#475569" rx="1.40416"/><rect width="25" height="3" x="281" y="270.436" fill="#475569" rx="1.40416"/><rect width="25" height="3" x="281" y="302.436" fill="#475569" opacity=".25" rx="1.40416"/><rect width="46" height="3" x="187" y="144.436" fill="#475569" rx="1.40416"/><rect width="46" height="3" x="187" y="175.436" fill="#475569" rx="1.40416"/><rect width="46" height="3" x="187" y="207.436" fill="#475569" rx="1.40416"/><rect width="46" height="3" x="187" y="239.436" fill="#475569" rx="1.40416"/><rect width="46" height="3" x="187" y="270.436" fill="#475569" rx="1.40416"/><rect width="46" height="3" x="187" y="302.436" fill="#475569" opacity=".25" rx="1.40416"/><rect width="32" height="3" x="18" y="144.436" fill="#475569" rx="1.40416"/><rect width="75" height="3" x="19" y="175.436" fill="#475569" rx="1.40416"/><rect width="37" height="3" x="19" y="207.436" fill="#475569" rx="1.40416"/><rect width="80" height="3" x="18" y="239.436" fill="#475569" rx="1.40416"/><rect width="38" height="3" x="18" y="270.436" fill="#475569" rx="1.40416"/><rect width="41" height="3" x="19" y="302.436" fill="#475569" opacity=".25" rx="1.40416"/><rect width="32" height="3" x="40" y="40.4355" fill="#475569" rx="1.40416"/><rect width="37" height="3" x="16" y="61.4355" fill="#475569" rx="1.40416"/><rect width="43" height="3" x="86" y="40.4355" fill="#00DC82" opacity=".65" rx="1.40416"/><path fill="#fff" d="M14.1777 16.9134c-.4821 0-.8987-.1054-1.2497-.316-.3464-.2153-.6155-.5125-.8074-.8916-.1872-.3838-.2809-.8285-.2809-1.334 0-.5008.0937-.9431.2809-1.3269.1919-.3838.461-.681.8074-.8916.351-.2153.7676-.323 1.2497-.323.5757 0 1.0414.1381 1.3971.4142.3604.2762.5897.6647.688 1.1655h-.7723c-.0702-.2902-.2153-.5219-.4352-.6951-.2153-.1732-.5079-.2597-.8776-.2597-.3324 0-.6202.0772-.8636.2316-.2434.1545-.4306.3745-.5617.66-.131.2855-.1965.6272-.1965 1.025 0 .3979.0655.7419.1965 1.0321.1311.2855.3183.5055.5617.6599.2434.1498.5312.2247.8636.2247.3697 0 .6623-.0819.8776-.2457.2199-.1685.365-.3955.4352-.681h.7723c-.0983.4867-.3276.8682-.688 1.1443-.3557.2715-.8214.4073-1.3971.4073Zm4.0624 0c-.2902 0-.5312-.0492-.7231-.1475-.1919-.0983-.3347-.2293-.4283-.3931-.0936-.1685-.1404-.3487-.1404-.5406 0-.2341.0608-.433.1825-.5968.1217-.1685.2949-.2972.5196-.3862.2246-.0889.4938-.1334.8074-.1334h.9197c0-.2059-.0304-.3767-.0913-.5125-.0608-.1357-.1521-.2363-.2738-.3019-.117-.0702-.2668-.1053-.4493-.1053-.2107 0-.3909.0515-.5406.1545-.1498.0983-.2434.2457-.2809.4423h-.702c.028-.2481.1123-.4587.2527-.6319.1451-.1778.33-.3136.5547-.4072.2246-.0983.4633-.1474.7161-.1474.3323 0 .6108.0585.8354.1755.2247.117.3932.2832.5055.4985.1171.2106.1756.4633.1756.7582v2.1905h-.6108l-.0562-.5968c-.0515.0936-.1123.1826-.1826.2668-.0702.0843-.1544.1568-.2527.2177-.0936.0608-.2036.1076-.33.1404-.1217.0374-.2574.0562-.4072.0562Zm.1334-.5687c.1498 0 .2855-.0305.4072-.0913.1217-.0608.2247-.1428.3089-.2457.089-.1077.1545-.227.1966-.3581.0468-.1357.0726-.2738.0772-.4142v-.0211h-.8354c-.2013 0-.3651.0258-.4915.0773-.1217.0468-.2106.1123-.2668.1965-.0561.0843-.0842.1826-.0842.2949 0 .117.0257.2176.0772.3019.0562.0796.1357.1428.2387.1896.103.0468.227.0702.3721.0702Zm4.238.5687c-.3416 0-.6459-.0773-.9127-.2317-.2668-.1592-.4774-.3768-.6318-.653-.1498-.2761-.2247-.5967-.2247-.9618 0-.3698.0749-.6927.2247-.9689.1544-.2808.365-.4985.6318-.6529.2668-.1592.5711-.2387.9127-.2387.4306 0 .791.1123 1.0812.337.2902.2246.4751.5289.5547.9127h-.7302c-.0468-.206-.1544-.3651-.3229-.4774-.1639-.1124-.3604-.1685-.5898-.1685-.1872 0-.3604.0491-.5195.1474-.1592.0936-.2879.234-.3862.4212-.0936.1826-.1404.4096-.1404.6811 0 .2012.0281.3814.0843.5406.0561.1544.131.2855.2246.3931.0983.1077.2107.1896.337.2458.1264.0514.2598.0772.4002.0772.1545 0 .2925-.0234.4142-.0702.1264-.0515.2317-.1264.316-.2247.0889-.0983.1498-.2153.1825-.351h.7302c-.0796.3744-.2645.6763-.5547.9057-.2902.2246-.6506.337-1.0812.337Zm2.4574-.0843v-5.055h.702v2.0922c.1171-.2059.2785-.3674.4845-.4844.2106-.117.4423-.1755.695-.1755.2809 0 .5219.0585.7232.1755.2012.1123.3557.2832.4633.5125.1077.2247.1615.5079.1615.8495v2.0852h-.695v-2.015c0-.3276-.0702-.5757-.2107-.7442-.1404-.1731-.3487-.2597-.6248-.2597-.1872 0-.3557.0444-.5055.1334-.1498.0889-.2691.2199-.3581.3931-.0889.1685-.1334.3745-.1334.6179v1.8745h-.702Zm5.7282.0843c-.337 0-.6366-.0773-.8987-.2317-.2621-.1545-.4681-.3698-.6178-.6459-.1451-.2762-.2177-.5968-.2177-.9619 0-.3744.0726-.6997.2177-.9759.1497-.2808.3557-.4985.6178-.6529.2621-.1592.5663-.2387.9127-.2387.3464 0 .6436.0772.8916.2317.2481.1544.44.3604.5757.6178.1358.2527.2036.5336.2036.8425 0 .0468-.0023.0983-.007.1544 0 .0515-.0023.11-.007.1756h-2.8926v-.4985H31.78c-.0141-.2949-.1124-.5242-.2949-.688-.1825-.1685-.4096-.2528-.681-.2528-.1919 0-.3674.0445-.5266.1334-.1591.0842-.2878.2106-.3861.3791-.0936.1638-.1404.3721-.1404.6249v.1966c0 .2621.0468.4844.1404.6669.0983.1779.227.3136.3861.4072.1592.089.3323.1334.5196.1334.2246 0 .4095-.0491.5546-.1474s.2527-.2317.323-.4002h.702c-.0608.2153-.1638.4096-.3089.5827-.1451.1685-.3253.3019-.5406.4002-.2106.0983-.454.1475-.7301.1475Z"/><path stroke="#E2E8F0" stroke-linecap="round" stroke-linejoin="round" stroke-width=".438799" d="M44.625 13.866h1.3164v-1.3164"/><path stroke="#E2E8F0" stroke-linecap="round" stroke-linejoin="round" stroke-width=".438799" d="m45.9414 13.866-.7756-.7756c-.4491-.4492-1.0572-.7031-1.6924-.7068-.6352-.0037-1.2462.2432-1.7006.687M42.4307 15.6212h-1.3164v1.3164"/><path stroke="#E2E8F0" stroke-linecap="round" stroke-linejoin="round" stroke-width=".438799" d="m41.1146 15.6212.7756.7755c.4491.4492 1.0573.7031 1.6924.7068.6352.0037 1.2463-.2431 1.7006-.687"/><path stroke="#E2E8F0" stroke-linecap="round" stroke-linejoin="round" stroke-width=".625" d="m220.625 87.3105 1.25 1.25 1.25-1.25M221.875 82.3105v6.25M219.375 83.5605l-1.25-1.25-1.25 1.25M218.125 88.5605v-6.25"/><path fill="#E2E8F0" fill-rule="evenodd" d="M308.688 83.0605c0-.1725.139-.3125.312-.3125h5.938c.172 0 .312.14.312.3125 0 .1726-.14.3125-.312.3125H309c-.173 0-.312-.1399-.312-.3125Zm0 1.875c0-.1725.139-.3125.312-.3125h4.062c.173 0 .313.14.313.3125 0 .1726-.14.3125-.313.3125H309c-.173 0-.312-.1399-.312-.3125Zm6.25-.3125c.172 0 .312.14.312.3125v4.2456l1.029-1.029c.122-.1221.32-.1221.442 0 .122.122.122.3199 0 .4419l-1.563 1.5625c-.122.1221-.319.1221-.441 0l-1.563-1.5625c-.122-.122-.122-.3199 0-.4419.122-.1221.32-.1221.442 0l1.029 1.029v-4.2456c0-.1725.14-.3125.313-.3125Zm-6.25 2.1875c0-.1725.139-.3125.312-.3125h4.062c.173 0 .313.14.313.3125 0 .1726-.14.3125-.313.3125H309c-.173 0-.312-.1399-.312-.3125Z" clip-rule="evenodd"/><path stroke="#CBD5E1" stroke-linecap="round" stroke-linejoin="round" stroke-width=".625" d="M537.848 113.57c-.029-.086-.029-.18 0-.266.578-1.739 2.219-2.993 4.152-2.993 1.932 0 3.572 1.252 4.151 2.99.029.087.029.18.001.266-.579 1.739-2.219 2.994-4.153 2.994-1.932 0-3.572-1.253-4.151-2.991Z"/><path stroke="#CBD5E1" stroke-linecap="round" stroke-linejoin="round" stroke-width=".625" d="M543.25 113.436c0 .69-.56 1.25-1.25 1.25-.691 0-1.25-.56-1.25-1.25 0-.691.559-1.25 1.25-1.25.69 0 1.25.559 1.25 1.25ZM537.848 146.57c-.029-.086-.029-.18 0-.266.578-1.739 2.219-2.993 4.152-2.993 1.932 0 3.572 1.252 4.151 2.99.029.087.029.18.001.266-.579 1.739-2.219 2.994-4.153 2.994-1.932 0-3.572-1.253-4.151-2.991Z"/><path stroke="#CBD5E1" stroke-linecap="round" stroke-linejoin="round" stroke-width=".625" d="M543.25 146.436c0 .69-.56 1.25-1.25 1.25-.691 0-1.25-.56-1.25-1.25 0-.691.559-1.25 1.25-1.25.69 0 1.25.559 1.25 1.25ZM537.848 177.57c-.029-.086-.029-.18 0-.266.578-1.739 2.219-2.993 4.152-2.993 1.932 0 3.572 1.252 4.151 2.99.029.087.029.18.001.266-.579 1.739-2.219 2.994-4.153 2.994-1.932 0-3.572-1.253-4.151-2.991Z"/><path stroke="#CBD5E1" stroke-linecap="round" stroke-linejoin="round" stroke-width=".625" d="M543.25 177.436c0 .69-.56 1.25-1.25 1.25-.691 0-1.25-.56-1.25-1.25 0-.691.559-1.25 1.25-1.25.69 0 1.25.559 1.25 1.25ZM537.848 208.57c-.029-.086-.029-.18 0-.266.578-1.739 2.219-2.993 4.152-2.993 1.932 0 3.572 1.252 4.151 2.99.029.087.029.18.001.266-.579 1.739-2.219 2.994-4.153 2.994-1.932 0-3.572-1.253-4.151-2.991Z"/><path stroke="#CBD5E1" stroke-linecap="round" stroke-linejoin="round" stroke-width=".625" d="M543.25 208.436c0 .69-.56 1.25-1.25 1.25-.691 0-1.25-.56-1.25-1.25 0-.691.559-1.25 1.25-1.25.69 0 1.25.559 1.25 1.25ZM537.848 239.57c-.029-.086-.029-.18 0-.266.578-1.739 2.219-2.993 4.152-2.993 1.932 0 3.572 1.252 4.151 2.99.029.087.029.18.001.266-.579 1.739-2.219 2.994-4.153 2.994-1.932 0-3.572-1.253-4.151-2.991Z"/><path stroke="#CBD5E1" stroke-linecap="round" stroke-linejoin="round" stroke-width=".625" d="M543.25 239.436c0 .69-.56 1.25-1.25 1.25-.691 0-1.25-.56-1.25-1.25 0-.691.559-1.25 1.25-1.25.69 0 1.25.559 1.25 1.25ZM537.848 272.57c-.029-.086-.029-.18 0-.266.578-1.739 2.219-2.993 4.152-2.993 1.932 0 3.572 1.252 4.151 2.99.029.087.029.18.001.266-.579 1.739-2.219 2.994-4.153 2.994-1.932 0-3.572-1.253-4.151-2.991Z"/><path stroke="#CBD5E1" stroke-linecap="round" stroke-linejoin="round" stroke-width=".625" d="M543.25 272.436c0 .69-.56 1.25-1.25 1.25-.691 0-1.25-.56-1.25-1.25 0-.691.559-1.25 1.25-1.25.69 0 1.25.559 1.25 1.25Z"/><g stroke="#CBD5E1" stroke-linecap="round" stroke-linejoin="round" stroke-width=".625" opacity=".25"><path d="M537.848 304.57c-.029-.086-.029-.18 0-.266.578-1.739 2.219-2.993 4.152-2.993 1.932 0 3.572 1.252 4.151 2.99.029.087.029.18.001.266-.579 1.739-2.219 2.994-4.153 2.994-1.932 0-3.572-1.253-4.151-2.991Z"/><path d="M543.25 304.436c0 .69-.56 1.25-1.25 1.25-.691 0-1.25-.56-1.25-1.25 0-.691.559-1.25 1.25-1.25.69 0 1.25.559 1.25 1.25Z"/></g><path stroke="#F87171" stroke-linecap="round" stroke-linejoin="round" stroke-width=".625" d="m562.142 303.186-.144 3.75m-1.996 0-.144-3.75m4.154-1.338c.142.022.284.045.426.069m-.426-.069-.445 5.784c-.038.489-.445.866-.935.866h-3.264c-.49 0-.897-.377-.935-.866l-.445-5.784m6.024 0c-.478-.072-.961-.127-1.449-.165m-5.001.234c.142-.024.284-.047.426-.069m0 0c.478-.072.961-.127 1.45-.165m3.125 0v-.382c0-.491-.38-.901-.871-.917-.23-.007-.46-.011-.692-.011-.232 0-.462.004-.692.011-.491.016-.87.426-.87.917v.382m3.125 0c-.516-.04-1.037-.06-1.563-.06s-1.047.02-1.562.06" opacity=".25"/><path stroke="#F87171" stroke-linecap="round" stroke-linejoin="round" stroke-width=".625" d="m562.142 271.186-.144 3.75m-1.996 0-.144-3.75m4.154-1.338c.142.022.284.045.426.069m-.426-.069-.445 5.784c-.038.489-.445.866-.935.866h-3.264c-.49 0-.897-.377-.935-.866l-.445-5.784m6.024 0c-.478-.072-.961-.127-1.449-.165m-5.001.234c.142-.024.284-.047.426-.069m0 0c.478-.072.961-.127 1.45-.165m3.125 0v-.382c0-.491-.38-.901-.871-.917-.23-.007-.46-.011-.692-.011-.232 0-.462.004-.692.011-.491.016-.87.426-.87.917v.382m3.125 0c-.516-.04-1.037-.06-1.563-.06s-1.047.02-1.562.06M562.142 238.186l-.144 3.75m-1.996 0-.144-3.75m4.154-1.338c.142.022.284.045.426.069m-.426-.069-.445 5.784c-.038.489-.445.866-.935.866h-3.264c-.49 0-.897-.377-.935-.866l-.445-5.784m6.024 0c-.478-.072-.961-.127-1.449-.165m-5.001.234c.142-.024.284-.047.426-.069m0 0c.478-.072.961-.127 1.45-.165m3.125 0v-.382c0-.491-.38-.901-.871-.917-.23-.007-.46-.011-.692-.011-.232 0-.462.004-.692.011-.491.016-.87.426-.87.917v.382m3.125 0c-.516-.04-1.037-.06-1.563-.06s-1.047.02-1.562.06M562.142 207.186l-.144 3.75m-1.996 0-.144-3.75m4.154-1.338c.142.022.284.045.426.069m-.426-.069-.445 5.784c-.038.489-.445.866-.935.866h-3.264c-.49 0-.897-.377-.935-.866l-.445-5.784m6.024 0c-.478-.072-.961-.127-1.449-.165m-5.001.234c.142-.024.284-.047.426-.069m0 0c.478-.072.961-.127 1.45-.165m3.125 0v-.382c0-.491-.38-.901-.871-.917-.23-.007-.46-.011-.692-.011-.232 0-.462.004-.692.011-.491.016-.87.426-.87.917v.382m3.125 0c-.516-.04-1.037-.06-1.563-.06s-1.047.02-1.562.06M562.142 176.186l-.144 3.75m-1.996 0-.144-3.75m4.154-1.338c.142.022.284.045.426.069m-.426-.069-.445 5.784c-.038.489-.445.866-.935.866h-3.264c-.49 0-.897-.377-.935-.866l-.445-5.784m6.024 0c-.478-.072-.961-.127-1.449-.165m-5.001.234c.142-.024.284-.047.426-.069m0 0c.478-.072.961-.127 1.45-.165m3.125 0v-.382c0-.491-.38-.901-.871-.917-.23-.007-.46-.011-.692-.011-.232 0-.462.004-.692.011-.491.016-.87.426-.87.917v.382m3.125 0c-.516-.04-1.037-.06-1.563-.06s-1.047.02-1.562.06M562.142 145.186l-.144 3.75m-1.996 0-.144-3.75m4.154-1.338c.142.022.284.045.426.069m-.426-.069-.445 5.784c-.038.489-.445.866-.935.866h-3.264c-.49 0-.897-.377-.935-.866l-.445-5.784m6.024 0c-.478-.072-.961-.127-1.449-.165m-5.001.234c.142-.024.284-.047.426-.069m0 0c.478-.072.961-.127 1.45-.165m3.125 0v-.382c0-.491-.38-.901-.871-.917-.23-.007-.46-.011-.692-.011-.232 0-.462.004-.692.011-.491.016-.87.426-.87.917v.382m3.125 0c-.516-.04-1.037-.06-1.563-.06s-1.047.02-1.562.06M562.142 112.186l-.144 3.75m-1.996 0-.144-3.75m4.154-1.338c.142.022.284.045.426.069m-.426-.069-.445 5.784c-.038.489-.445.866-.935.866h-3.264c-.49 0-.897-.377-.935-.866l-.445-5.784m6.024 0c-.478-.072-.961-.127-1.449-.165m-5.001.234c.142-.024.284-.047.426-.069m0 0c.478-.072.961-.127 1.45-.165m3.125 0v-.382c0-.491-.38-.901-.871-.917-.23-.007-.46-.011-.692-.011-.232 0-.462.004-.692.011-.491.016-.87.426-.87.917v.382m3.125 0c-.516-.04-1.037-.06-1.563-.06s-1.047.02-1.562.06" opacity=".82"/><path stroke="#E2E8F0" stroke-linecap="round" stroke-linejoin="round" stroke-width=".625" d="m405.625 87.3105 1.25 1.25 1.25-1.25M406.875 82.3105v6.25M404.375 83.5605l-1.25-1.25-1.25 1.25M403.125 88.5605v-6.25M470.625 87.3105l1.25 1.25 1.25-1.25M471.875 82.3105v6.25M469.375 83.5605l-1.25-1.25-1.25 1.25M468.125 88.5605v-6.25"/><path stroke="#475569" stroke-linecap="round" stroke-linejoin="round" stroke-width=".438799" d="m32.6328 38.752 2.194 2.1939-2.194 2.194M78.6328 38.752l2.194 2.1939-2.194 2.194"/><rect width="8.42494" height="8.42494" x="546" y="10.4355" fill="#475569" rx="1.40416"/><rect width="8.42494" height="8.42494" x="562.851" y="10.4355" fill="#475569" rx="1.40416"/><rect width="493.298" height="15.2979" x="11.351" y="54.7866" stroke="#E2E8F0" stroke-opacity=".08" stroke-width=".702078" rx="2.45727"/><path stroke="#E2E8F0" stroke-opacity=".08" d="M11 98h565.5M11 129.436h565.5M11 161.436h565.5M11 192.436h565.5M11 224.436h565.5M11 256.436h565.5M11 287.436h565.5"/></g><defs><linearGradient id="b" x1="290.263" x2="290.263" y1="0" y2="292.064" gradientUnits="userSpaceOnUse"><stop stop-color="#020420"/><stop offset="1" stop-color="#020420" stop-opacity="0"/></linearGradient><linearGradient id="c" x1="290.263" x2="290.263" y1="0" y2="292.064" gradientUnits="userSpaceOnUse"><stop stop-color="#0F172A"/><stop offset="1" stop-color="#0F172A" stop-opacity="0"/></linearGradient><linearGradient id="d" x1="217.04" x2="183.171" y1=".00001402" y2="224.058" gradientUnits="userSpaceOnUse"><stop stop-color="#E2E8F0"/><stop offset="1" stop-color="#E2E8F0" stop-opacity="0"/></linearGradient><radialGradient id="e" cx="0" cy="0" r="1" gradientTransform="rotate(63.2379 87.88746382 126.78033925) scale(286.41 605.008)" gradientUnits="userSpaceOnUse"><stop stop-color="#E2E8F0" stop-opacity=".56"/><stop offset=".9999" stop-color="#A1A1AA" stop-opacity=".01"/><stop offset="1" stop-color="#E2E8F0" stop-opacity="0"/></radialGradient><clipPath id="a"><rect width="581" height="310" fill="#fff" rx="8"/></clipPath></defs></svg>
