<svg xmlns="http://www.w3.org/2000/svg" fill="none" viewBox="0 0 581 317"><g clip-path="url(#a)"><rect width="579.916" height="292.064" x=".304688" fill="url(#b)" fill-opacity=".03" rx="7.02078"/><rect width="579.916" height="292.064" x=".304688" fill="url(#c)" fill-opacity=".08" rx="7.02078"/><rect width="578.777" height="290.925" x=".874308" y=".56962" stroke="url(#d)" stroke-opacity=".82" stroke-width="1.13924" rx="6.45116"/><path stroke="#E2E8F0" d="M445 206.796h90.006M422 221.796h117M442 236.296h43.5"/><rect width="7.39522" height="7.39522" x="329.465" y="40.7609" fill="#CBD5E1" rx="1.23254"/><rect width="7.39522" height="7.39522" x="357.465" y="40.7609" fill="#CBD5E1" rx="1.23254"/><rect width="7.39522" height="7.39522" x="341.174" y="40.7609" fill="#CBD5E1" rx="1.23254"/><rect width="7.39522" height="7.39522" x="554" y="16.2958" fill="#CBD5E1" rx="1.23254"/><rect width="7.39522" height="7.39522" x="369.174" y="40.7609" fill="#CBD5E1" rx="1.23254"/><path fill="#E2E8F0" fill-rule="evenodd" d="M351.035 48.1561v-7.3953c0-1.3614-1.104-2.465-2.466-2.465h-19.104c-1.361 0-2.465 1.1036-2.465 2.4651v7.3952c0 1.3614 1.104 2.4651 2.465 2.4651h9.86v-.0001h9.244c1.362 0 2.466-1.1036 2.466-2.465Zm-11.71 1.8488V38.912h9.244c1.022 0 1.849.8278 1.849 1.8489v7.3952c0 1.021-.827 1.8488-1.849 1.8488h-9.244Zm-9.86-11.0928h9.244v11.0928h-9.244c-1.021 0-1.849-.8277-1.849-1.8488v-7.3952c0-1.0211.828-1.8488 1.849-1.8488ZM379.035 48.1561v-7.3953c0-1.3614-1.104-2.465-2.466-2.465h-19.104c-1.361 0-2.465 1.1036-2.465 2.4651v7.3952c0 1.3614 1.104 2.4651 2.465 2.4651h9.86v-.0001h9.244c1.362 0 2.466-1.1036 2.466-2.465Zm-11.71 1.8488V38.912h9.244c1.022 0 1.849.8278 1.849 1.8489v7.3952c0 1.021-.827 1.8488-1.849 1.8488h-9.244Zm-9.86-11.0928h9.244v11.0928h-9.244c-1.021 0-1.849-.8277-1.849-1.8488v-7.3952c0-1.0211.828-1.8488 1.849-1.8488Z" clip-rule="evenodd"/><path stroke="url(#e)" stroke-opacity=".08" stroke-width=".616269" d="M393 8v273.296"/><path fill="#334155" d="M14.1018 21.6204v-5.012h1.8544c.3485 0 .6396.0572.8735.1718.2339.1098.4082.2625.5227.4582.1194.191.179.4082.179.6516 0 .253-.0549.4654-.1647.6372-.1097.1719-.2553.3055-.4367.401-.1766.0907-.3676.1432-.5728.1575l.1002-.0716c.2196.0048.4201.0645.6015.179.1813.1098.3245.2578.4296.4439.105.1862.1575.3915.1575.6158 0 .2578-.0621.4917-.1862.7017-.1241.2052-.3079.3675-.5513.4869-.2434.1193-.5418.179-.895.179h-1.9117Zm.716-.5943h1.1026c.3151 0 .5585-.0716.7303-.2148.1767-.148.265-.3556.265-.6229 0-.2626-.0907-.4726-.2721-.6301-.1766-.1575-.4225-.2363-.7375-.2363h-1.0883v1.7041Zm0-2.2554h1.0597c.3007 0 .5298-.0692.6873-.2077.1575-.1432.2363-.3389.2363-.5871 0-.2386-.0788-.4272-.2363-.5656-.1575-.1432-.3938-.2148-.7088-.2148h-1.0382v1.5752Zm3.6463 2.8497v-5.1552h.716v5.1552h-.716Zm3.3459.0859c-.3389 0-.6444-.0788-.9165-.2363-.2673-.1575-.4797-.3771-.6373-.6587-.1527-.2864-.2291-.6158-.2291-.9881 0-.3819.0788-.7136.2363-.9952.1575-.2864.3723-.5084.6444-.6659.2721-.1575.5776-.2363.9165-.2363.3437 0 .6492.0788.9165.2363.2673.1575.4773.3771.63.6587.1576.2816.2363.6134.2363.9952 0 .3819-.0787.7137-.2363.9953-.1527.2816-.3651.5012-.6372.6587-.2721.1575-.58.2363-.9236.2363Zm0-.6158c.1957 0 .3723-.0477.5298-.1432.1623-.0954.2912-.2363.3866-.4224.1003-.191.1504-.4272.1504-.7089 0-.2816-.0477-.5155-.1432-.7016-.0955-.191-.2243-.3342-.3866-.4296-.1576-.0955-.3318-.1432-.5227-.1432-.1909 0-.3676.0477-.5299.1432-.1622.0954-.2935.2386-.3938.4296-.0954.1861-.1432.42-.1432.7016 0 .2817.0478.5179.1432.7089.1003.1861.2292.327.3867.4224.1623.0955.3365.1432.5227.1432Zm4.6084.6158c-.1957 0-.3747-.0287-.537-.0859-.1575-.0525-.296-.1265-.4153-.222-.1193-.0955-.2196-.2053-.3007-.3294l-.0716.5514h-.6444v-5.1552h.716v2.1122c.1145-.1814.2744-.3342.4797-.4583.21-.1289.4678-.1933.7733-.1933.3437 0 .6468.0835.9093.2506.2625.1623.4654.3866.6086.673.148.2817.222.6063.222.9738 0 .358-.074.6802-.222.9666-.1432.2864-.3461.5107-.6086.673s-.5656.2435-.9093.2435Zm-.1146-.6229c.2196 0 .4129-.0525.58-.1576.1718-.105.3055-.2529.4009-.4439.1003-.1909.1504-.4129.1504-.6659 0-.2529-.0501-.4725-.1504-.6587-.0954-.1909-.2291-.3389-.4009-.4439-.1671-.1098-.3604-.1647-.58-.1647-.2243 0-.4224.0549-.5943.1647-.167.105-.2983.253-.3938.4439-.0954.1862-.1432.4058-.1432.6587 0 .253.0478.475.1432.6659.0955.191.2268.3389.3938.4439.1719.1051.37.1576.5943.1576Z"/><path fill="#00C16A" d="M14.4497 46.2958v-4.312h1.4599c.3409 0 .6201.0575.8378.1725.2176.1149.3778.2689.4804.462.1068.1889.1602.4045.1602.6468 0 .2299-.0534.4435-.1602.6406-.1026.193-.2648.3491-.4866.4682-.2218.1149-.5051.1724-.8501.1724h-.8254v1.7495h-.616Zm2.2669 0-.9302-1.9158h.6776l.9671 1.9158h-.7145Zm-1.6509-2.2176h.8008c.3039 0 .5277-.0739.6714-.2218.1438-.1519.2156-.3449.2156-.579 0-.2382-.0698-.4271-.2094-.5667-.1396-.1397-.3655-.2095-.6776-.2095h-.8008v1.577Zm4.3192 2.2915c-.2916 0-.5544-.0678-.7885-.2033-.23-.1355-.4127-.3244-.5482-.5667-.1314-.2464-.1971-.5298-.1971-.8501 0-.3285.0677-.6139.2032-.8562.1356-.2464.3204-.4374.5544-.5729.2341-.1355.4969-.2033.7885-.2033.2957 0 .5585.0678.7885.2033.23.1355.4107.3244.5421.5667.1355.2423.2033.5277.2033.8563 0 .3285-.0678.6139-.2033.8562-.1314.2423-.3142.4312-.5483.5667-.234.1355-.4989.2033-.7946.2033Zm0-.5298c.1684 0 .3203-.041.4558-.1232.1397-.0821.2505-.2032.3327-.3634.0862-.1643.1293-.3676.1293-.6098 0-.2423-.041-.4436-.1232-.6037-.0821-.1643-.193-.2875-.3326-.3696-.1355-.0822-.2854-.1232-.4497-.1232-.1642 0-.3162.041-.4558.1232-.1396.0821-.2526.2053-.3388.3696-.0822.1601-.1232.3614-.1232.6037 0 .2422.041.4455.1232.6098.0862.1602.1971.2813.3326.3634.1396.0822.2895.1232.4497.1232Zm3.6876.5298c-.2916 0-.5544-.0678-.7885-.2033-.23-.1355-.4127-.3244-.5482-.5667-.1315-.2464-.1972-.5298-.1972-.8501 0-.3285.0678-.6139.2033-.8562.1355-.2464.3203-.4374.5544-.5729.2341-.1355.4969-.2033.7885-.2033.2957 0 .5585.0678.7885.2033.2299.1355.4106.3244.5421.5667.1355.2423.2032.5277.2032.8563 0 .3285-.0677.6139-.2032.8562-.1315.2423-.3142.4312-.5483.5667-.2341.1355-.4989.2033-.7946.2033Zm0-.5298c.1683 0 .3203-.041.4558-.1232.1396-.0821.2505-.2032.3327-.3634.0862-.1643.1293-.3676.1293-.6098 0-.2423-.0411-.4436-.1232-.6037-.0821-.1643-.193-.2875-.3326-.3696-.1355-.0822-.2854-.1232-.4497-.1232s-.3162.041-.4558.1232c-.1397.0821-.2526.2053-.3388.3696-.0822.1601-.1232.3614-.1232.6037 0 .2422.041.4455.1232.6098.0862.1602.1971.2813.3326.3634.1396.0822.2895.1232.4497.1232Zm3.4317.4559c-.1971 0-.3675-.0308-.5113-.0924-.1437-.0616-.2546-.1643-.3326-.308-.078-.1438-.117-.3388-.117-.5852v-1.5955h-.536v-.5236h.536l.0739-.7761h.5421v.7761h.8808v.5236h-.8808v1.6016c0 .1766.0369.2978.1108.3635.074.0616.2013.0924.382.0924h.3572v.5236h-.5051Z"/><path fill="#94A3B8" d="M409.961 208.358c-.355 0-.661-.078-.919-.233-.254-.158-.452-.376-.593-.655-.138-.282-.206-.609-.206-.98 0-.368.068-.693.206-.975.141-.283.339-.501.593-.656.258-.158.564-.237.919-.237.423 0 .765.101 1.027.304.265.203.433.489.505.857h-.567c-.052-.213-.159-.384-.32-.511-.158-.127-.373-.191-.645-.191-.244 0-.456.057-.635.17-.179.114-.316.276-.413.485-.096.21-.144.461-.144.754 0 .292.048.545.144.758.097.21.234.372.413.485.179.11.391.165.635.165.272 0 .487-.06.645-.18.161-.124.268-.291.32-.501h.567c-.072.358-.24.638-.505.841-.262.2-.604.3-1.027.3Zm3.311 0c-.245 0-.465-.057-.661-.171-.192-.113-.346-.271-.459-.474-.11-.207-.165-.444-.165-.712 0-.276.057-.515.17-.718.114-.206.268-.366.464-.48.197-.113.417-.17.661-.17.248 0 .468.057.66.17.193.114.344.272.455.475.113.203.17.442.17.717 0 .276-.057.515-.17.718-.111.203-.264.361-.46.474-.196.114-.418.171-.665.171Zm0-.444c.141 0 .268-.034.381-.103.117-.069.21-.171.279-.305.072-.137.108-.308.108-.511s-.034-.371-.103-.505c-.069-.138-.161-.241-.278-.31-.114-.069-.239-.103-.377-.103s-.265.034-.382.103c-.117.069-.211.172-.284.31-.068.134-.103.302-.103.505s.035.374.103.511c.073.134.165.236.279.305.117.069.242.103.377.103Zm1.902.382v-2.601h.464l.031.444c.083-.155.2-.277.351-.366.151-.093.325-.14.521-.14.207 0 .384.041.532.124.148.083.263.208.345.377.083.165.124.373.124.624v1.538h-.516v-1.486c0-.241-.053-.423-.16-.547-.106-.124-.261-.186-.464-.186-.134 0-.255.033-.361.098-.107.062-.193.155-.258.279-.062.123-.093.275-.093.454v1.388h-.516Zm4.102 0c-.166 0-.308-.026-.429-.078-.12-.051-.213-.137-.278-.258-.066-.12-.098-.283-.098-.49v-1.336h-.449v-.439h.449l.061-.65h.455v.65h.737v.439h-.737v1.341c0 .148.031.25.092.305.062.051.169.077.32.077h.3v.439h-.423Zm2.123.062c-.247 0-.467-.057-.66-.171-.193-.113-.344-.271-.454-.474-.107-.203-.16-.439-.16-.707 0-.275.053-.515.16-.717.11-.207.261-.367.454-.48.193-.117.416-.176.671-.176.254 0 .473.057.655.17.182.114.323.265.423.455.1.185.15.392.15.619 0 .034-.002.072-.005.113 0 .038-.002.081-.006.129h-2.125v-.366h1.62c-.011-.217-.083-.385-.217-.506-.134-.124-.301-.186-.5-.186-.141 0-.27.033-.387.099-.117.061-.212.154-.284.278-.069.121-.103.274-.103.459v.145c0 .193.034.356.103.49.072.131.167.231.284.299.117.066.244.098.381.098.166 0 .301-.036.408-.108.107-.072.186-.17.237-.294h.516c-.044.158-.12.301-.227.428-.106.124-.239.222-.397.294-.155.073-.334.109-.537.109Zm1.812-.062v-2.601h.464l.031.444c.083-.155.2-.277.351-.366.152-.093.325-.14.521-.14.207 0 .384.041.532.124.148.083.263.208.346.377.082.165.124.373.124.624v1.538h-.516v-1.486c0-.241-.054-.423-.16-.547-.107-.124-.262-.186-.465-.186-.134 0-.254.033-.361.098-.107.062-.193.155-.258.279-.062.123-.093.275-.093.454v1.388h-.516Zm4.102 0c-.165 0-.308-.026-.428-.078-.121-.051-.214-.137-.279-.258-.065-.12-.098-.283-.098-.49v-1.336h-.449v-.439h.449l.062-.65h.454v.65h.738v.439h-.738v1.341c0 .148.031.25.093.305.062.051.168.077.32.077h.299v.439h-.423Zm3.411 0c-.165 0-.308-.026-.428-.078-.12-.051-.213-.137-.279-.258-.065-.12-.098-.283-.098-.49v-1.336h-.449v-.439h.449l.062-.65h.454v.65h.738v.439h-.738v1.341c0 .148.031.25.093.305.062.051.169.077.32.077h.299v.439h-.423Zm1.317 1.135.635-1.424h-.149l-1.027-2.312h.557l.815 1.889.821-1.889h.541l-1.651 3.736h-.542Zm2.649 0v-3.736h.464l.052.403c.055-.08.124-.153.206-.222.083-.073.181-.131.295-.176.117-.044.252-.067.407-.067.248 0 .465.06.65.181.19.12.336.284.439.49.107.203.16.435.16.697 0 .261-.053.495-.16.701-.107.203-.255.363-.444.48-.186.117-.402.176-.65.176-.203 0-.382-.04-.537-.119-.154-.083-.277-.196-.366-.341v1.533h-.516Zm1.336-1.522c.159 0 .298-.038.418-.114.124-.075.221-.182.289-.32.073-.137.109-.297.109-.48 0-.182-.036-.34-.109-.474-.068-.138-.165-.245-.289-.32-.12-.079-.259-.119-.418-.119-.161 0-.304.04-.428.119-.12.075-.215.182-.284.32-.068.134-.103.292-.103.474 0 .183.035.343.103.48.069.138.164.245.284.32.124.076.267.114.428.114Zm3.116.449c-.248 0-.468-.057-.661-.171-.192-.113-.344-.271-.454-.474-.106-.203-.16-.439-.16-.707 0-.275.054-.515.16-.717.11-.207.262-.367.454-.48.193-.117.417-.176.671-.176.255 0 .473.057.656.17.182.114.323.265.423.455.099.185.149.392.149.619 0 .034-.001.072-.005.113 0 .038-.002.081-.005.129h-2.126v-.366h1.62c-.01-.217-.082-.385-.216-.506-.135-.124-.301-.186-.501-.186-.141 0-.27.033-.387.099-.117.061-.211.154-.284.278-.069.121-.103.274-.103.459v.145c0 .193.034.356.103.49.073.131.167.231.284.299.117.066.244.098.382.098.165 0 .301-.036.408-.108.106-.072.185-.17.237-.294h.516c-.045.158-.12.301-.227.428-.107.124-.239.222-.397.294-.155.073-.334.109-.537.109ZM537.387 208.296v-2.601h.516v2.601h-.516Zm.263-3.091c-.1 0-.182-.031-.248-.093-.061-.062-.092-.141-.092-.237 0-.093.031-.169.092-.227.066-.062.148-.093.248-.093.096 0 .177.031.243.093.065.058.098.134.098.227 0 .096-.033.175-.098.237-.066.062-.147.093-.243.093Zm.991 3.091v-2.601h.464l.036.366c.083-.134.193-.239.331-.314.137-.076.292-.114.464-.114.131 0 .249.019.356.057.107.034.201.088.284.16.082.072.15.162.201.268.093-.151.217-.27.372-.356.158-.086.325-.129.5-.129.21 0 .391.043.542.129.151.083.267.208.346.377.079.165.118.371.118.619v1.538h-.51v-1.486c0-.241-.05-.423-.15-.547-.096-.124-.239-.186-.428-.186-.128 0-.241.033-.341.098-.1.065-.179.16-.237.284-.055.124-.083.275-.083.454v1.383h-.516v-1.486c0-.241-.05-.423-.15-.547-.096-.124-.239-.186-.428-.186-.12 0-.23.033-.33.098s-.179.16-.237.284c-.059.124-.088.275-.088.454v1.383h-.516Zm5.543.062c-.213 0-.391-.036-.532-.109-.141-.072-.246-.168-.314-.289-.069-.123-.104-.256-.104-.397 0-.172.045-.318.135-.439.089-.123.216-.218.381-.283.166-.066.363-.098.594-.098h.676c0-.152-.023-.277-.067-.377-.045-.1-.112-.174-.202-.222-.086-.052-.196-.077-.33-.077-.155 0-.287.037-.397.113-.11.072-.179.181-.206.325h-.516c.02-.182.082-.337.185-.464.107-.131.243-.231.408-.299.165-.073.34-.109.526-.109.244 0 .449.043.614.129.165.086.289.208.372.367.086.154.129.34.129.557v1.61h-.449l-.041-.439c-.038.069-.083.134-.135.196-.051.062-.113.115-.185.16-.069.045-.15.079-.243.103-.089.028-.189.042-.299.042Zm.098-.418c.11 0 .21-.023.299-.067.09-.045.165-.105.227-.181.066-.079.114-.167.145-.263.034-.1.053-.201.056-.305v-.015h-.614c-.147 0-.268.019-.361.057-.089.034-.155.082-.196.144-.041.062-.062.134-.062.217 0 .086.019.16.057.222.041.058.1.105.175.139.076.035.167.052.274.052Zm2.97 1.553c-.237 0-.447-.031-.629-.093-.183-.058-.324-.15-.423-.273-.1-.124-.15-.276-.15-.455 0-.092.021-.187.062-.283.041-.093.108-.183.201-.269.093-.086.219-.163.377-.232l.289.232c-.176.066-.294.143-.356.233-.059.092-.088.182-.088.268 0 .103.031.189.093.258s.146.12.253.155c.11.034.234.051.371.051.134 0 .251-.019.351-.057.1-.037.177-.091.232-.159.055-.069.083-.15.083-.243 0-.11-.041-.203-.124-.279-.083-.072-.241-.115-.475-.129-.196-.013-.363-.032-.5-.056-.134-.024-.25-.054-.346-.088-.093-.035-.172-.072-.237-.114-.062-.041-.116-.084-.16-.129v-.118l.516-.532.418.145-.563.521.109-.232c.037.024.074.048.108.072.034.021.081.039.139.057.059.017.138.032.238.046.099.014.23.028.392.041.234.018.421.059.562.124.145.066.25.153.315.263.065.11.098.241.098.393 0 .147-.041.288-.124.423-.079.134-.204.244-.376.33-.169.086-.387.129-.656.129Zm0-1.997c-.22 0-.407-.041-.562-.124-.152-.082-.269-.194-.351-.335-.079-.141-.119-.298-.119-.47 0-.175.04-.332.119-.469.082-.141.201-.253.356-.336.155-.086.341-.129.557-.129.217 0 .401.043.552.129.155.083.272.195.351.336.083.137.124.294.124.469 0 .172-.041.329-.124.47-.079.141-.196.253-.351.335-.151.083-.335.124-.552.124Zm0-.413c.169 0 .303-.043.403-.129.099-.089.149-.218.149-.387 0-.168-.05-.296-.149-.382-.1-.089-.234-.134-.403-.134-.168 0-.304.045-.407.134-.104.086-.155.214-.155.382 0 .169.051.298.155.387.103.086.239.129.407.129Zm.423-.98-.123-.408h1.068v.356l-.945.052Zm2.538 2.255c-.248 0-.468-.057-.661-.171-.192-.113-.344-.271-.454-.474-.106-.203-.16-.439-.16-.707 0-.275.054-.515.16-.717.11-.207.262-.367.454-.48.193-.117.417-.176.671-.176.255 0 .473.057.656.17.182.114.323.265.423.455.099.185.149.392.149.619 0 .034-.001.072-.005.113 0 .038-.002.081-.005.129h-2.126v-.366h1.62c-.01-.217-.082-.385-.216-.506-.135-.124-.301-.186-.501-.186-.141 0-.27.033-.387.099-.117.061-.211.154-.284.278-.068.121-.103.274-.103.459v.145c0 .193.035.356.103.49.073.131.167.231.284.299.117.066.244.098.382.098.165 0 .301-.036.408-.108.106-.072.185-.17.237-.294h.516c-.045.158-.12.301-.227.428-.107.124-.239.222-.397.294-.155.073-.334.109-.537.109Zm1.6.459 1.29-4.489h.506l-1.29 4.489h-.506Zm1.797.614v-.439h.207c.124 0 .211-.025.263-.077.052-.052.077-.138.077-.258v-2.962h.516v2.972c0 .179-.031.325-.093.439-.058.113-.146.196-.263.248-.117.051-.258.077-.423.077h-.284Zm.811-4.226c-.1 0-.183-.031-.248-.093-.062-.062-.093-.141-.093-.237 0-.093.031-.169.093-.227.065-.062.148-.093.248-.093.096 0 .175.031.237.093.065.058.098.134.098.227 0 .096-.033.175-.098.237-.062.062-.141.093-.237.093Zm.985 4.226v-3.736h.464l.052.403c.055-.08.124-.153.206-.222.083-.073.181-.131.294-.176.117-.044.253-.067.408-.067.248 0 .464.06.65.181.189.12.336.284.439.49.106.203.16.435.16.697 0 .261-.054.495-.16.701-.107.203-.255.363-.444.48-.186.117-.402.176-.65.176-.203 0-.382-.04-.537-.119-.155-.083-.277-.196-.366-.341v1.533h-.516Zm1.336-1.522c.159 0 .298-.038.418-.114.124-.075.22-.182.289-.32.072-.137.109-.297.109-.48 0-.182-.037-.34-.109-.474-.069-.138-.165-.245-.289-.32-.12-.079-.259-.119-.418-.119-.161 0-.304.04-.428.119-.12.075-.215.182-.284.32-.069.134-.103.292-.103.474 0 .183.034.343.103.48.069.138.164.245.284.32.124.076.267.114.428.114Zm2.866 1.584c-.237 0-.447-.031-.63-.093-.182-.058-.323-.15-.423-.273-.099-.124-.149-.276-.149-.455 0-.092.02-.187.062-.283.041-.093.108-.183.201-.269.093-.086.218-.163.377-.232l.289.232c-.176.066-.295.143-.357.233-.058.092-.087.182-.087.268 0 .103.031.189.093.258s.146.12.252.155c.111.034.234.051.372.051.134 0 .251-.019.351-.057.1-.037.177-.091.232-.159.055-.069.083-.15.083-.243 0-.11-.042-.203-.124-.279-.083-.072-.241-.115-.475-.129-.196-.013-.363-.032-.5-.056-.135-.024-.25-.054-.346-.088-.093-.035-.172-.072-.238-.114-.061-.041-.115-.084-.159-.129v-.118l.516-.532.417.145-.562.521.108-.232c.038.024.074.048.109.072.034.021.081.039.139.057.059.017.138.032.237.046.1.014.231.028.393.041.234.018.421.059.562.124.145.066.249.153.315.263.065.11.098.241.098.393 0 .147-.041.288-.124.423-.079.134-.205.244-.377.33-.168.086-.387.129-.655.129Zm0-1.997c-.22 0-.408-.041-.562-.124-.152-.082-.269-.194-.351-.335-.079-.141-.119-.298-.119-.47 0-.175.04-.332.119-.469.082-.141.201-.253.356-.336.155-.086.34-.129.557-.129.217 0 .401.043.552.129.155.083.272.195.351.336.083.137.124.294.124.469 0 .172-.041.329-.124.47-.079.141-.196.253-.351.335-.151.083-.335.124-.552.124Zm0-.413c.169 0 .303-.043.402-.129.1-.089.15-.218.15-.387 0-.168-.05-.296-.15-.382-.099-.089-.233-.134-.402-.134s-.304.045-.408.134c-.103.086-.154.214-.154.382 0 .169.051.298.154.387.104.086.239.129.408.129Zm.423-.98-.124-.408h1.068v.356l-.944.052ZM543.304 223.296v-.372c.241-.186.47-.373.687-.562.216-.189.409-.377.578-.563.172-.189.306-.373.402-.552.096-.182.145-.356.145-.521 0-.117-.021-.225-.062-.325-.042-.1-.107-.181-.196-.243-.09-.065-.212-.098-.367-.098-.148 0-.272.033-.371.098-.097.066-.171.154-.222.264-.048.106-.072.225-.072.356h-.501c.004-.248.057-.458.16-.63.103-.172.243-.303.418-.392.179-.089.378-.134.599-.134.23 0 .43.043.598.129.169.082.299.205.392.366.093.158.14.353.14.583 0 .165-.033.331-.098.496-.066.161-.155.32-.269.474-.11.155-.234.305-.371.449-.138.141-.281.275-.429.403-.144.127-.283.242-.418.345h1.698v.429h-2.441Zm3.231.026c-.099 0-.182-.031-.247-.093-.062-.066-.093-.143-.093-.233 0-.092.031-.17.093-.232.065-.065.148-.098.247-.098.1 0 .181.033.243.098.062.062.093.14.093.232 0 .09-.031.167-.093.233-.062.062-.143.093-.243.093Zm2.172.036c-.255 0-.473-.045-.655-.134-.183-.093-.327-.217-.434-.372-.106-.158-.172-.335-.196-.531h.506c.034.175.12.319.258.433.137.11.311.165.521.165.158 0 .294-.038.408-.113.113-.076.201-.178.263-.305s.093-.268.093-.423c0-.165-.033-.308-.098-.428-.062-.124-.15-.22-.264-.289-.11-.069-.239-.103-.387-.103-.178 0-.333.041-.464.123-.127.08-.22.181-.279.305h-.5l.299-2.002h1.945v.449h-1.548l-.19 1.011c.082-.093.192-.169.33-.227.141-.058.301-.088.48-.088.182 0 .345.033.49.098.144.062.266.15.366.263.103.114.181.246.232.398.055.151.083.311.083.48 0 .182-.029.351-.088.505-.058.155-.143.293-.253.413-.106.117-.239.208-.397.274-.155.065-.328.098-.521.098Zm2.977 0c-.234 0-.434-.045-.599-.134-.165-.093-.296-.215-.392-.367-.096-.155-.155-.321-.175-.5h.48c.034.179.111.318.232.418.12.096.273.144.459.144.172 0 .323-.052.454-.155.131-.103.236-.259.315-.469.079-.21.124-.475.134-.795.003-.01.005-.021.005-.031v-.031c-.055.103-.131.198-.227.284-.096.086-.21.155-.34.206-.128.049-.271.073-.429.073-.203 0-.394-.047-.573-.14-.175-.096-.319-.232-.433-.407-.11-.176-.165-.38-.165-.614 0-.21.05-.408.15-.594.103-.186.247-.335.433-.449.189-.117.411-.175.666-.175.265 0 .486.05.665.149.183.097.327.229.434.398.11.165.189.351.237.557.052.203.077.413.077.63 0 .395-.055.744-.165 1.047-.11.299-.27.533-.48.702-.209.168-.464.253-.763.253Zm.031-1.796c.148 0 .28-.033.397-.098.117-.069.21-.16.279-.274.069-.113.103-.239.103-.376 0-.145-.034-.272-.103-.382-.069-.114-.164-.201-.284-.263-.117-.066-.249-.098-.397-.098-.145 0-.276.032-.393.098-.117.062-.209.149-.278.263-.066.11-.098.239-.098.387 0 .148.032.279.098.392.069.11.161.196.278.258.117.062.25.093.398.093Zm2.027 1.734v-3.612h.609l1.223 2.44 1.218-2.44h.614v3.612h-.516v-2.709l-1.12 2.203h-.397l-1.115-2.198v2.704h-.516Zm4.414 0v-3.612h1.337c.251 0 .461.041.629.124.169.079.294.189.377.33.086.137.129.294.129.469 0 .183-.04.336-.119.46-.079.123-.184.22-.315.289-.127.065-.264.103-.412.113l.072-.051c.158.003.303.046.433.129.131.079.234.185.31.319.076.135.113.283.113.444 0 .186-.044.355-.134.506-.089.148-.222.265-.397.351-.175.086-.39.129-.645.129h-1.378Zm.516-.429h.795c.227 0 .402-.051.526-.154.127-.107.191-.257.191-.449 0-.189-.065-.341-.196-.454-.127-.114-.304-.171-.531-.171h-.785v1.228Zm0-1.625h.764c.217 0 .382-.05.495-.15.114-.103.171-.244.171-.423 0-.172-.057-.308-.171-.407-.113-.104-.284-.155-.511-.155h-.748v1.135ZM493.144 238.296l1.327-3.612h.562l1.326 3.612h-.552l-1.058-2.993-1.063 2.993h-.542Zm.599-.893.145-.413h1.697l.145.413h-1.987Zm4.009.955c-.203 0-.38-.042-.531-.124-.148-.083-.263-.207-.346-.372-.079-.165-.119-.373-.119-.624v-1.543h.516v1.486c0 .244.054.428.16.552.107.124.26.186.46.186.134 0 .254-.033.361-.098.11-.065.196-.16.258-.284.062-.124.093-.275.093-.454v-1.388h.516v2.601h-.46l-.036-.444c-.079.158-.194.282-.345.372-.152.089-.327.134-.527.134Zm3.132 1.135c-.237 0-.447-.031-.63-.093-.182-.058-.323-.15-.423-.273-.1-.124-.149-.276-.149-.455 0-.092.02-.187.062-.283.041-.093.108-.183.201-.269.093-.086.218-.163.376-.232l.289.232c-.175.066-.294.143-.356.233-.058.092-.087.182-.087.268 0 .103.031.189.093.258.061.069.146.12.252.155.11.034.234.051.372.051.134 0 .251-.019.351-.057.1-.037.177-.091.232-.159.055-.069.083-.15.083-.243 0-.11-.042-.203-.124-.279-.083-.072-.241-.115-.475-.129-.196-.013-.363-.032-.501-.056-.134-.024-.249-.054-.345-.088-.093-.035-.172-.072-.238-.114-.062-.041-.115-.084-.16-.129v-.118l.516-.532.418.145-.562.521.108-.232c.038.024.074.048.109.072.034.021.08.039.139.057.058.017.138.032.237.046.1.014.231.028.392.041.234.018.422.059.563.124.144.066.249.153.315.263.065.11.098.241.098.393 0 .147-.042.288-.124.423-.079.134-.205.244-.377.33-.168.086-.387.129-.655.129Zm0-1.997c-.22 0-.408-.041-.563-.124-.151-.082-.268-.194-.35-.335-.08-.141-.119-.298-.119-.47 0-.175.039-.332.119-.469.082-.141.201-.253.356-.336.154-.086.34-.129.557-.129.217 0 .401.043.552.129.155.083.272.195.351.336.082.137.124.294.124.469 0 .172-.042.329-.124.47-.079.141-.196.253-.351.335-.151.083-.335.124-.552.124Zm0-.413c.168 0 .303-.043.402-.129.1-.089.15-.218.15-.387 0-.168-.05-.296-.15-.382-.099-.089-.234-.134-.402-.134-.169 0-.305.045-.408.134-.103.086-.155.214-.155.382 0 .169.052.298.155.387.103.086.239.129.408.129Zm.423-.98-.124-.408h1.068v.356l-.944.052Zm2.416 2.255c-.202 0-.38-.042-.531-.124-.148-.083-.263-.207-.346-.372-.079-.165-.118-.373-.118-.624v-1.543h.516v1.486c0 .244.053.428.16.552.106.124.259.186.459.186.134 0 .254-.033.361-.098.11-.065.196-.16.258-.284.062-.124.093-.275.093-.454v-1.388h.516v2.601h-.459l-.036-.444c-.08.158-.195.282-.346.372-.152.089-.327.134-.527.134Zm3.081 0c-.221 0-.413-.036-.578-.109-.165-.072-.296-.173-.393-.304-.096-.131-.154-.284-.175-.459h.526c.018.082.05.158.098.227.052.068.121.124.207.165.089.041.194.062.315.062.113 0 .206-.016.278-.047.076-.034.131-.079.165-.134.035-.058.052-.12.052-.186 0-.096-.024-.168-.072-.216-.045-.052-.114-.092-.207-.119-.089-.031-.198-.059-.325-.083-.12-.02-.237-.048-.351-.082-.11-.038-.21-.084-.299-.139-.086-.056-.155-.124-.206-.207-.052-.086-.078-.191-.078-.315 0-.148.04-.28.119-.397.079-.12.191-.213.335-.279.148-.068.322-.103.521-.103.289 0 .522.069.697.207.176.137.279.332.31.583h-.501c-.014-.117-.065-.207-.155-.269-.089-.065-.208-.098-.356-.098s-.261.03-.34.088c-.079.059-.119.136-.119.232 0 .062.022.117.067.165.045.049.11.09.196.124.09.031.198.06.325.088.183.034.346.077.491.129.144.052.259.127.345.227.086.1.129.242.129.428.004.162-.038.305-.124.429-.082.123-.201.22-.356.288-.151.069-.332.104-.541.104Zm2.596-.062c-.165 0-.308-.026-.428-.078-.12-.051-.213-.137-.279-.258-.065-.12-.098-.283-.098-.49v-1.336h-.449v-.439h.449l.062-.65h.454v.65h.738v.439h-.738v1.341c0 .148.031.25.093.305.062.051.169.077.32.077h.299v.439h-.423Zm3.51.062c-.231 0-.442-.042-.635-.124-.189-.086-.341-.213-.454-.382-.11-.172-.169-.387-.175-.645h.516c.003.131.034.249.092.356.059.107.143.193.253.258.114.062.248.093.403.093.155 0 .284-.029.387-.088.106-.058.185-.137.237-.237.055-.1.083-.212.083-.336 0-.154-.038-.28-.114-.376-.072-.097-.172-.169-.299-.217-.124-.048-.263-.072-.418-.072h-.268v-.434h.268c.217 0 .389-.05.516-.149.131-.1.196-.241.196-.423 0-.152-.05-.276-.15-.372-.099-.096-.246-.144-.438-.144-.193 0-.346.055-.46.165-.11.11-.172.249-.185.418h-.511c.01-.203.064-.382.16-.537.1-.158.234-.279.402-.361.172-.086.37-.129.594-.129.241 0 .442.043.603.129.166.082.289.194.372.335.086.141.129.296.129.465 0 .127-.024.246-.072.356-.048.106-.117.199-.207.278-.089.079-.197.136-.325.171.138.027.262.08.372.16.11.079.196.182.258.309.062.124.093.268.093.434 0 .196-.047.378-.14.547-.093.165-.23.299-.412.402-.179.1-.403.15-.671.15Zm3.327 0c-.32 0-.595-.078-.826-.233-.23-.158-.408-.376-.531-.655-.124-.282-.186-.609-.186-.98 0-.372.062-.697.186-.975.123-.283.301-.501.531-.656.231-.158.506-.237.826-.237.32 0 .593.079.82.237.231.155.406.373.526.656.124.278.186.603.186.975 0 .371-.062.698-.186.98-.12.279-.295.497-.526.655-.227.155-.5.233-.82.233Zm0-.46c.192 0 .364-.056.516-.17.154-.113.275-.275.361-.485.086-.21.129-.461.129-.753 0-.293-.043-.544-.129-.754-.086-.209-.207-.369-.361-.479-.152-.114-.324-.171-.516-.171-.196 0-.372.057-.527.171-.154.11-.275.27-.361.479-.086.21-.129.461-.129.754 0 .292.043.543.129.753.086.21.207.372.361.485.155.114.331.17.527.17Zm1.672 1.032.294-1.192h.522l-.47 1.192h-.346Zm2.616-.634v-.372c.241-.186.47-.373.687-.562.216-.189.409-.377.578-.563.172-.189.306-.373.402-.552.096-.182.145-.356.145-.521 0-.117-.021-.225-.062-.325-.042-.1-.107-.181-.196-.243-.09-.065-.212-.098-.367-.098-.148 0-.272.033-.371.098-.097.066-.171.154-.222.264-.048.106-.072.225-.072.356h-.501c.004-.248.057-.458.16-.63.103-.172.243-.303.418-.392.179-.089.378-.134.599-.134.23 0 .43.043.598.129.169.082.299.205.392.366.093.158.14.353.14.583 0 .165-.033.331-.098.496-.066.161-.155.32-.269.474-.11.155-.234.305-.371.449-.138.141-.281.275-.429.403-.144.127-.283.242-.418.345h1.698v.429h-2.441Zm4.419.062c-.32 0-.595-.078-.825-.233-.231-.158-.408-.376-.532-.655-.124-.282-.186-.609-.186-.98 0-.372.062-.697.186-.975.124-.283.301-.501.532-.656.23-.158.505-.237.825-.237.32 0 .594.079.821.237.23.155.406.373.526.656.124.278.186.603.186.975 0 .371-.062.698-.186.98-.12.279-.296.497-.526.655-.227.155-.501.233-.821.233Zm0-.46c.193 0 .365-.056.516-.17.155-.113.275-.275.361-.485.086-.21.129-.461.129-.753 0-.293-.043-.544-.129-.754-.086-.209-.206-.369-.361-.479-.151-.114-.323-.171-.516-.171-.196 0-.371.057-.526.171-.155.11-.275.27-.361.479-.086.21-.129.461-.129.754 0 .292.043.543.129.753.086.21.206.372.361.485.155.114.33.17.526.17Zm2.042.398v-.372c.24-.186.469-.373.686-.562.217-.189.409-.377.578-.563.172-.189.306-.373.402-.552.097-.182.145-.356.145-.521 0-.117-.021-.225-.062-.325-.042-.1-.107-.181-.196-.243-.09-.065-.212-.098-.367-.098-.148 0-.271.033-.371.098-.097.066-.17.154-.222.264-.048.106-.072.225-.072.356h-.501c.004-.248.057-.458.16-.63.103-.172.243-.303.418-.392.179-.089.378-.134.599-.134.23 0 .43.043.598.129.169.082.299.205.392.366.093.158.14.353.14.583 0 .165-.033.331-.098.496-.066.161-.155.32-.269.474-.11.155-.234.305-.371.449-.138.141-.281.275-.428.403-.145.127-.284.242-.418.345h1.697v.429h-2.44Zm4.62 0v-.738h-1.811v-.403l1.729-2.471h.593v2.425h.516v.449h-.516v.738h-.511Zm-1.249-1.187h1.28v-1.858l-1.28 1.858Zm4.969 1.249c-.213 0-.39-.036-.531-.109-.141-.072-.246-.168-.315-.289-.069-.123-.103-.256-.103-.397 0-.172.045-.318.134-.439.089-.123.217-.218.382-.283.165-.066.363-.098.593-.098h.676c0-.152-.022-.277-.067-.377-.045-.1-.112-.174-.201-.222-.086-.052-.196-.077-.33-.077-.155 0-.288.037-.398.113-.11.072-.179.181-.206.325h-.516c.021-.182.083-.337.186-.464.106-.131.242-.231.407-.299.165-.073.341-.109.527-.109.244 0 .449.043.614.129.165.086.289.208.371.367.086.154.129.34.129.557v1.61h-.449l-.041-.439c-.038.069-.083.134-.134.196-.052.062-.114.115-.186.16-.069.045-.15.079-.242.103-.09.028-.19.042-.3.042Zm.098-.418c.11 0 .21-.023.3-.067.089-.045.165-.105.227-.181.065-.079.113-.167.144-.263.035-.1.053-.201.057-.305v-.015h-.614c-.148 0-.268.019-.361.057-.09.034-.155.082-.196.144-.042.062-.062.134-.062.217 0 .086.019.16.056.222.042.058.1.105.176.139.076.035.167.052.273.052Zm2.931.356c-.165 0-.308-.026-.429-.078-.12-.051-.213-.137-.278-.258-.066-.12-.098-.283-.098-.49v-1.336h-.449v-.439h.449l.062-.65h.454v.65h.738v.439h-.738v1.341c0 .148.031.25.093.305.062.051.168.077.32.077h.299v.439h-.423Zm3.772.062c-.32 0-.595-.078-.825-.233-.231-.158-.408-.376-.532-.655-.124-.282-.185-.609-.185-.98 0-.372.061-.697.185-.975.124-.283.301-.501.532-.656.23-.158.505-.237.825-.237.32 0 .594.079.821.237.23.155.406.373.526.656.124.278.186.603.186.975 0 .371-.062.698-.186.98-.12.279-.296.497-.526.655-.227.155-.501.233-.821.233Zm0-.46c.193 0 .365-.056.516-.17.155-.113.276-.275.362-.485.086-.21.129-.461.129-.753 0-.293-.043-.544-.129-.754-.086-.209-.207-.369-.362-.479-.151-.114-.323-.171-.516-.171-.196 0-.371.057-.526.171-.155.11-.275.27-.361.479-.086.21-.129.461-.129.754 0 .292.043.543.129.753.086.21.206.372.361.485.155.114.33.17.526.17Zm3.47.46c-.265 0-.488-.048-.671-.145-.179-.1-.323-.232-.433-.397-.11-.169-.191-.354-.243-.557-.048-.207-.072-.418-.072-.635 0-.399.055-.748.165-1.048.114-.299.275-.533.485-.701.21-.169.463-.253.759-.253.237 0 .438.046.603.139.169.09.3.21.393.361.096.152.154.319.175.501h-.48c-.031-.179-.108-.317-.232-.413-.12-.1-.275-.15-.464-.15-.169 0-.32.054-.454.16-.135.104-.241.262-.32.475-.076.213-.119.483-.129.81V236.541c.051-.103.125-.197.221-.283.097-.086.21-.154.341-.202.134-.051.279-.077.433-.077.203 0 .393.048.568.144.179.093.323.227.434.403.11.175.165.38.165.614 0 .21-.052.408-.155.593-.1.186-.243.337-.428.454-.186.114-.406.171-.661.171Zm-.036-.449c.148 0 .279-.031.392-.093.117-.065.208-.155.274-.268.068-.114.103-.243.103-.387 0-.148-.035-.277-.103-.387-.066-.114-.157-.202-.274-.264-.113-.062-.244-.092-.392-.092-.148 0-.28.034-.397.103-.117.065-.21.155-.279.268-.069.11-.103.236-.103.377 0 .144.034.273.103.387.069.11.162.198.279.263.12.062.252.093.397.093Zm2.151.413c-.1 0-.182-.031-.248-.093-.062-.066-.092-.143-.092-.233 0-.092.03-.17.092-.232.066-.065.148-.098.248-.098s.181.033.243.098c.062.062.092.14.092.232 0 .09-.03.167-.092.233-.062.062-.143.093-.243.093Zm0-2.033c-.1 0-.182-.031-.248-.093-.062-.066-.092-.143-.092-.233 0-.092.03-.17.092-.232.066-.065.148-.098.248-.098s.181.033.243.098c.062.062.092.14.092.232 0 .09-.03.167-.092.233-.062.062-.143.093-.243.093Zm1.356 2.007v-3.029l-.63.16v-.387l.821-.356h.335v3.612h-.526Zm2.524.062c-.255 0-.473-.045-.655-.134-.183-.093-.327-.217-.434-.372-.107-.158-.172-.335-.196-.531h.506c.034.175.12.319.258.433.137.11.311.165.521.165.158 0 .294-.038.408-.113.113-.076.201-.178.263-.305s.093-.268.093-.423c0-.165-.033-.308-.098-.428-.062-.124-.15-.22-.264-.289-.11-.069-.239-.103-.387-.103-.179 0-.333.041-.464.123-.127.08-.22.181-.279.305h-.5l.299-2.002h1.945v.449h-1.548l-.191 1.011c.083-.093.193-.169.331-.227.141-.058.301-.088.48-.088.182 0 .345.033.49.098.144.062.266.15.366.263.103.114.181.246.232.398.055.151.083.311.083.48 0 .182-.029.351-.088.505-.058.155-.143.293-.253.413-.106.117-.239.208-.397.274-.155.065-.328.098-.521.098Zm1.926-.062v-3.612h1.233c.289 0 .526.048.712.144.186.097.324.226.413.387.089.162.134.346.134.552 0 .196-.045.377-.134.542-.086.162-.222.293-.408.392-.185.097-.424.145-.717.145h-.717v1.45h-.516Zm.516-1.878h.696c.272 0 .465-.059.578-.176.117-.12.176-.279.176-.475 0-.209-.059-.371-.176-.485-.113-.113-.306-.17-.578-.17h-.696v1.306Zm2.533 1.878v-3.612h.608l1.223 2.44 1.218-2.44h.614v3.612h-.516v-2.709l-1.12 2.203h-.397l-1.114-2.198v2.704h-.516ZM409.558 223.358c-.265 0-.497-.047-.696-.14-.2-.096-.355-.23-.465-.402-.11-.172-.165-.373-.165-.604h.542c.003.131.034.251.093.361.062.107.15.193.263.258.117.062.26.093.428.093.145 0 .269-.024.372-.072.106-.048.187-.114.242-.196.055-.086.083-.184.083-.294 0-.127-.029-.232-.088-.315-.058-.083-.137-.15-.237-.201-.096-.055-.21-.103-.341-.145-.127-.041-.261-.086-.402-.134-.286-.093-.499-.213-.64-.361-.138-.148-.206-.341-.206-.578 0-.203.048-.378.144-.526.096-.152.231-.269.403-.351.175-.086.381-.129.619-.129.234 0 .438.043.614.129.175.086.313.205.413.356.099.151.149.328.149.531h-.547c0-.093-.024-.184-.072-.273-.048-.09-.12-.162-.217-.217-.096-.058-.215-.088-.356-.088-.117-.003-.222.016-.315.057-.092.041-.165.102-.216.181-.052.079-.078.174-.078.284 0 .11.023.199.067.268.049.065.117.122.207.17.089.048.192.093.309.134.121.038.253.081.398.129.179.059.337.131.474.217.142.083.252.191.331.325.082.131.124.299.124.506 0 .179-.047.346-.14.5-.093.155-.23.282-.413.382-.182.097-.409.145-.681.145Zm1.857-.062v-2.601h.516v2.601h-.516Zm.264-3.091c-.1 0-.183-.031-.248-.093-.062-.062-.093-.141-.093-.237 0-.093.031-.169.093-.227.065-.062.148-.093.248-.093.096 0 .177.031.242.093.066.058.098.134.098.227 0 .096-.032.175-.098.237-.065.062-.146.093-.242.093Zm.82 3.091v-.418l1.398-1.749h-1.377v-.434h1.966v.423l-1.404 1.749h1.429v.429h-2.012Zm3.761.062c-.248 0-.468-.057-.661-.171-.193-.113-.344-.271-.454-.474-.107-.203-.16-.439-.16-.707 0-.275.053-.515.16-.717.11-.207.261-.367.454-.48.193-.117.416-.176.671-.176.254 0 .473.057.655.17.183.114.324.265.423.455.1.185.15.392.15.619 0 .034-.002.072-.005.113 0 .038-.002.081-.005.129h-2.126v-.366h1.62c-.01-.217-.083-.385-.217-.506-.134-.124-.301-.186-.5-.186-.141 0-.27.033-.387.099-.117.061-.212.154-.284.278-.069.121-.103.274-.103.459v.145c0 .193.034.356.103.49.072.131.167.231.284.299.117.066.244.098.382.098.165 0 .301-.036.407-.108.107-.072.186-.17.238-.294h.516c-.045.158-.121.301-.227.428-.107.124-.24.222-.398.294-.155.073-.333.109-.536.109ZM409.708 238.358c-.255 0-.485-.05-.691-.15-.207-.103-.372-.258-.496-.464-.12-.21-.18-.477-.18-.8v-2.26h.516v2.265c0 .217.036.396.108.537.072.137.172.24.299.309.131.066.282.098.454.098.176 0 .327-.032.454-.098.128-.069.226-.172.294-.309.073-.141.109-.32.109-.537v-2.265h.516v2.26c0 .323-.062.59-.186.8-.124.206-.291.361-.5.464-.21.1-.442.15-.697.15Zm2.074 1.073v-3.736h.465l.051.403c.056-.08.124-.153.207-.222.082-.073.18-.131.294-.176.117-.044.253-.067.408-.067.247 0 .464.06.65.181.189.12.335.284.438.49.107.203.16.435.16.697 0 .261-.053.495-.16.701-.106.203-.254.363-.443.48-.186.117-.403.176-.651.176-.202 0-.381-.04-.536-.119-.155-.083-.277-.196-.367-.341v1.533h-.516Zm1.337-1.522c.158 0 .297-.038.418-.114.124-.075.22-.182.289-.32.072-.137.108-.297.108-.48 0-.182-.036-.34-.108-.474-.069-.138-.165-.245-.289-.32-.121-.079-.26-.119-.418-.119-.162 0-.305.04-.428.119-.121.075-.215.182-.284.32-.069.134-.103.292-.103.474 0 .183.034.343.103.48.069.138.163.245.284.32.123.076.266.114.428.114Zm1.939.387v-3.715h.516v3.715h-.516Zm2.411.062c-.244 0-.464-.057-.66-.171-.193-.113-.346-.271-.46-.474-.11-.207-.165-.444-.165-.712 0-.276.057-.515.171-.718.113-.206.268-.366.464-.48.196-.113.416-.17.66-.17.248 0 .468.057.661.17.193.114.344.272.454.475.114.203.17.442.17.717 0 .276-.056.515-.17.718-.11.203-.263.361-.459.474-.196.114-.418.171-.666.171Zm0-.444c.141 0 .268-.034.382-.103.117-.069.21-.171.279-.305.072-.137.108-.308.108-.511s-.034-.371-.103-.505c-.069-.138-.162-.241-.279-.31-.113-.069-.239-.103-.377-.103-.137 0-.264.034-.381.103-.117.069-.212.172-.284.31-.069.134-.103.302-.103.505s.034.374.103.511c.072.134.165.236.278.305.117.069.243.103.377.103Zm2.764.444c-.213 0-.39-.036-.531-.109-.141-.072-.246-.168-.315-.289-.069-.123-.103-.256-.103-.397 0-.172.044-.318.134-.439.089-.123.216-.218.382-.283.165-.066.363-.098.593-.098h.676c0-.152-.022-.277-.067-.377-.045-.1-.112-.174-.201-.222-.086-.052-.196-.077-.331-.077-.154 0-.287.037-.397.113-.11.072-.179.181-.206.325h-.516c.02-.182.082-.337.185-.464.107-.131.243-.231.408-.299.165-.073.341-.109.526-.109.245 0 .449.043.614.129.166.086.289.208.372.367.086.154.129.34.129.557v1.61h-.449l-.041-.439c-.038.069-.083.134-.134.196-.052.062-.114.115-.186.16-.069.045-.15.079-.243.103-.089.028-.189.042-.299.042Zm.098-.418c.11 0 .21-.023.299-.067.09-.045.165-.105.227-.181.066-.079.114-.167.145-.263.034-.1.053-.201.057-.305v-.015h-.614c-.148 0-.269.019-.362.057-.089.034-.154.082-.196.144-.041.062-.062.134-.062.217 0 .086.019.16.057.222.041.058.1.105.176.139.075.035.166.052.273.052Zm3.068.418c-.247 0-.466-.059-.655-.176-.189-.12-.337-.282-.444-.485-.103-.206-.154-.44-.154-.702 0-.264.051-.498.154-.701.107-.203.255-.363.444-.48.193-.121.413-.181.661-.181.203 0 .381.041.536.124.155.079.275.193.361.341v-1.517h.516v3.715h-.464l-.052-.403c-.051.079-.118.155-.201.227-.082.069-.182.126-.299.171-.117.044-.251.067-.403.067Zm.083-.449c.162 0 .304-.038.428-.114.124-.075.219-.182.284-.32.069-.137.103-.297.103-.48 0-.182-.034-.34-.103-.474-.065-.138-.16-.245-.284-.32-.124-.079-.266-.119-.428-.119-.155 0-.294.04-.418.119-.124.075-.22.182-.289.32-.069.134-.103.292-.103.474 0 .183.034.343.103.48.069.138.165.245.289.32.124.076.263.114.418.114Zm3.218.449c-.247 0-.467-.057-.66-.171-.193-.113-.344-.271-.454-.474-.107-.203-.16-.439-.16-.707 0-.275.053-.515.16-.717.11-.207.261-.367.454-.48.193-.117.416-.176.671-.176.254 0 .473.057.655.17.182.114.323.265.423.455.1.185.15.392.15.619 0 .034-.002.072-.005.113 0 .038-.002.081-.005.129h-2.126v-.366h1.62c-.01-.217-.083-.385-.217-.506-.134-.124-.301-.186-.5-.186-.141 0-.27.033-.387.099-.117.061-.212.154-.284.278-.069.121-.103.274-.103.459v.145c0 .193.034.356.103.49.072.131.167.231.284.299.117.066.244.098.381.098.166 0 .301-.036.408-.108.107-.072.186-.17.237-.294h.516c-.044.158-.12.301-.227.428-.106.124-.239.222-.397.294-.155.073-.334.109-.537.109Zm2.968 0c-.248 0-.466-.059-.655-.176-.19-.12-.337-.282-.444-.485-.103-.206-.155-.44-.155-.702 0-.264.052-.498.155-.701.107-.203.254-.363.444-.48.192-.121.412-.181.66-.181.203 0 .382.041.537.124.155.079.275.193.361.341v-1.517h.516v3.715h-.464l-.052-.403c-.052.079-.119.155-.201.227-.083.069-.183.126-.3.171-.116.044-.251.067-.402.067Zm.083-.449c.161 0 .304-.038.428-.114.124-.075.218-.182.284-.32.068-.137.103-.297.103-.48 0-.182-.035-.34-.103-.474-.066-.138-.16-.245-.284-.32-.124-.079-.267-.119-.428-.119-.155 0-.295.04-.418.119-.124.075-.221.182-.289.32-.069.134-.104.292-.104.474 0 .183.035.343.104.48.068.138.165.245.289.32.123.076.263.114.418.114Zm4.224.449c-.214 0-.391-.036-.532-.109-.141-.072-.246-.168-.315-.289-.068-.123-.103-.256-.103-.397 0-.172.045-.318.134-.439.09-.123.217-.218.382-.283.165-.066.363-.098.594-.098h.675c0-.152-.022-.277-.067-.377-.044-.1-.111-.174-.201-.222-.086-.052-.196-.077-.33-.077-.155 0-.287.037-.397.113-.11.072-.179.181-.207.325h-.516c.021-.182.083-.337.186-.464.107-.131.242-.231.408-.299.165-.073.34-.109.526-.109.244 0 .449.043.614.129.165.086.289.208.371.367.086.154.129.34.129.557v1.61h-.448l-.042-.439c-.038.069-.082.134-.134.196-.051.062-.113.115-.186.16-.068.045-.149.079-.242.103-.09.028-.189.042-.299.042Zm.098-.418c.11 0 .209-.023.299-.067.089-.045.165-.105.227-.181.065-.079.113-.167.144-.263.035-.1.054-.201.057-.305v-.015h-.614c-.148 0-.268.019-.361.057-.09.034-.155.082-.196.144-.041.062-.062.134-.062.217 0 .086.019.16.057.222.041.058.099.105.175.139.076.035.167.052.274.052Zm2.93.356c-.165 0-.308-.026-.428-.078-.121-.051-.214-.137-.279-.258-.065-.12-.098-.283-.098-.49v-1.336h-.449v-.439h.449l.062-.65h.454v.65h.738v.439h-.738v1.341c0 .148.031.25.093.305.062.051.168.077.32.077h.299v.439h-.423Z"/><rect width="7.39522" height="7.39522" x="317" y="16.2958" fill="#CBD5E1" rx="1.23254"/><rect width="7.39522" height="7.39522" x="368" y="16.2958" fill="#CBD5E1" rx="1.23254"/><rect width="34" height="12" x="329" y="14.2958" fill="#64748B" rx="2.46507"/><rect width="7.39522" height="7.39522" x="332" y="16.2958" fill="#CBD5E1" rx="1.23254"/><rect width="18" height="2" x="342" y="19.2958" fill="#CBD5E1" rx="1"/><g opacity=".5"><rect width="150" height="162" x="411" y="32" fill="#F1F5F9" rx="2"/><rect width="150" height="162" x="411" y="32" fill="url(#f)" rx="2"/></g><rect width="35" height="2" x="411" y="19.2958" fill="#94A3B8" rx="1"/><g opacity=".5"><rect width="57" height="59" x="13.5" y="62.5" fill="#F1F5F9" rx="3.5"/><rect width="57" height="59" x="13.5" y="62.5" fill="url(#g)" rx="3.5"/><rect width="57" height="59" x="13.5" y="62.5" stroke="#00C16A" rx="3.5"/></g><g opacity=".5"><rect width="58" height="60" x="90" y="62" fill="#F1F5F9" rx="4"/><rect width="58" height="60" x="90" y="62" fill="url(#h)" rx="4"/></g><g opacity=".5"><rect width="58" height="60" x="90" y="140" fill="#F1F5F9" rx="4"/><rect width="58" height="60" x="90" y="140" fill="url(#i)" rx="4"/></g><g opacity=".5"><rect width="58" height="60" x="90" y="218" fill="#F1F5F9" rx="4"/><rect width="58" height="60" x="90" y="218" fill="url(#j)" rx="4"/></g><g opacity=".5"><rect width="58" height="60" x="13" y="140" fill="#F1F5F9" rx="4"/><rect width="58" height="60" x="13" y="140" fill="url(#k)" rx="4"/></g><g opacity=".5"><rect width="58" height="60" x="13" y="218" fill="#F1F5F9" rx="4"/><rect width="58" height="60" x="13" y="218" fill="url(#l)" rx="4"/></g><rect width="35" height="2" x="17" y="114" fill="#CBD5E1" rx="1"/><rect width="17" height="2" x="94" y="114" fill="#CBD5E1" rx="1"/><rect width="23" height="2" x="94" y="192" fill="#CBD5E1" rx="1"/><rect width="30" height="2" x="94" y="270" fill="#CBD5E1" rx="1"/><rect width="44" height="2" x="17" y="192" fill="#CBD5E1" rx="1"/><rect width="44" height="2" x="17" y="270" fill="#CBD5E1" rx="1"/><g opacity=".5"><rect width="58" height="60" x="167" y="62" fill="#F1F5F9" rx="4"/><rect width="58" height="60" x="167" y="62" fill="url(#m)" rx="4"/></g><g opacity=".5"><rect width="58" height="60" x="167" y="140" fill="#F1F5F9" rx="4"/><rect width="58" height="60" x="167" y="140" fill="url(#n)" rx="4"/></g><g opacity=".5"><rect width="58" height="60" x="167" y="218" fill="#F1F5F9" rx="4"/><rect width="58" height="60" x="167" y="218" fill="url(#o)" rx="4"/></g><rect width="45" height="2" x="171" y="114" fill="#CBD5E1" rx="1"/><rect width="28" height="2" x="171" y="192" fill="#CBD5E1" rx="1"/><rect width="22" height="2" x="171" y="270" fill="#CBD5E1" rx="1"/><g opacity=".5"><rect width="58" height="60" x="244" y="62" fill="#F1F5F9" rx="4"/><rect width="58" height="60" x="244" y="62" fill="url(#p)" rx="4"/></g><g opacity=".5"><rect width="58" height="60" x="321" y="62" fill="#F1F5F9" rx="4"/><rect width="58" height="60" x="321" y="62" fill="url(#q)" rx="4"/></g><g opacity=".5"><rect width="58" height="60" x="244" y="140" fill="#F1F5F9" rx="4"/><rect width="58" height="60" x="244" y="140" fill="url(#r)" rx="4"/></g><path fill="#94A3B8" d="m203.238 165.414-5.043-5.042c-.066-.067-.146-.12-.233-.156-.088-.036-.182-.055-.276-.055h-8.644c-.382 0-.749.152-1.019.422-.27.27-.422.637-.422 1.019v6.483c0 .191.076.374.211.509s.318.211.51.211c.191 0 .374-.076.509-.211s.211-.318.211-.509v-6.483h7.924v4.322c0 .191.075.374.21.509.136.135.319.211.51.211h4.322v10.805h-.721c-.191 0-.374.076-.509.211s-.211.318-.211.509.076.375.211.51.318.211.509.211h.721c.382 0 .748-.152 1.019-.422.27-.27.421-.637.421-1.019v-11.525c.001-.095-.018-.189-.054-.276-.036-.088-.089-.167-.156-.234Zm-4.832-2.794 2.583 2.583h-2.583v-2.583Zm-.371 8.436c-.112-.062-.239-.093-.368-.09-.129.004-.254.042-.363.11l-1.796 1.122c-.05-.342-.222-.655-.483-.881-.261-.226-.595-.351-.941-.351h-5.762c-.383 0-.749.152-1.019.422-.27.27-.422.637-.422 1.019v4.322c0 .382.152.748.422 1.018.27.271.636.422 1.019.422h5.762c.346 0 .68-.125.941-.351.261-.226.433-.539.483-.88l1.796 1.121c.109.069.234.106.363.11.128.003.255-.028.368-.09.112-.063.206-.154.271-.265.066-.11.1-.236.1-.365v-5.763c0-.128-.034-.255-.099-.365-.066-.111-.159-.203-.272-.265Zm-3.951 5.673h-5.762v-4.322h5.762v4.322Zm2.882-.579-1.441-.901v-1.363l1.441-.9v3.164ZM279.169 171.686c0 .191-.076.375-.211.51s-.318.211-.509.211h-2.161v1.44h1.441c.191 0 .374.076.509.211s.211.319.211.51-.076.374-.211.509-.318.211-.509.211h-1.441v1.441c0 .191-.076.374-.211.509s-.318.211-.509.211c-.192 0-.375-.076-.51-.211s-.211-.318-.211-.509v-5.043c0-.191.076-.374.211-.509s.318-.211.51-.211h2.881c.191 0 .374.076.509.211s.211.318.211.509Zm-11.885 1.801c0 .669-.266 1.31-.739 1.783-.473.473-1.114.738-1.782.738h-.721v.721c0 .191-.076.374-.211.509s-.318.211-.509.211-.374-.076-.509-.211c-.136-.135-.211-.318-.211-.509v-5.043c0-.191.075-.374.211-.509.135-.135.318-.211.509-.211h1.441c.668 0 1.309.266 1.782.738.473.473.739 1.114.739 1.783Zm-1.441 0c0-.286-.114-.561-.316-.764-.203-.203-.478-.316-.764-.316h-.721v2.161h.721c.286 0 .561-.114.764-.317.202-.202.316-.477.316-.764Zm7.924.72c0 .86-.342 1.685-.95 2.293-.608.607-1.432.949-2.292.949h-1.44c-.191 0-.375-.076-.51-.211s-.211-.318-.211-.509v-5.043c0-.191.076-.374.211-.509s.319-.211.51-.211h1.44c.86 0 1.684.342 2.292.949.608.608.95 1.433.95 2.292Zm-1.441 0c0-.477-.19-.935-.527-1.273-.338-.338-.796-.527-1.274-.527h-.72v3.601h.72c.478 0 .936-.189 1.274-.527.337-.338.527-.796.527-1.274Zm-9.724-6.122v-6.483c0-.382.151-.749.422-1.019.27-.27.636-.422 1.018-.422h8.644c.095 0 .189.019.276.055.087.036.167.089.234.156l5.042 5.042c.067.067.12.146.156.234.036.087.055.181.055.276v2.161c0 .191-.076.374-.211.509s-.318.211-.509.211c-.192 0-.375-.076-.51-.211s-.211-.318-.211-.509v-1.441h-4.322c-.191 0-.374-.076-.509-.211s-.211-.318-.211-.509v-4.322h-7.924v6.483c0 .191-.076.374-.211.509s-.318.211-.509.211-.374-.076-.509-.211c-.136-.135-.211-.318-.211-.509Zm10.805-2.882h2.583l-2.583-2.583v2.583ZM127.169 171.686c0 .191-.076.375-.211.51s-.318.211-.509.211h-2.161v1.44h1.441c.191 0 .374.076.509.211s.211.319.211.51-.076.374-.211.509-.318.211-.509.211h-1.441v1.441c0 .191-.076.374-.211.509s-.318.211-.509.211c-.192 0-.375-.076-.51-.211s-.211-.318-.211-.509v-5.043c0-.191.076-.374.211-.509s.318-.211.51-.211h2.881c.191 0 .374.076.509.211s.211.318.211.509Zm-11.885 1.801c0 .669-.266 1.31-.739 1.783-.473.473-1.114.738-1.782.738h-.721v.721c0 .191-.076.374-.211.509s-.318.211-.509.211-.374-.076-.509-.211c-.136-.135-.211-.318-.211-.509v-5.043c0-.191.075-.374.211-.509.135-.135.318-.211.509-.211h1.441c.668 0 1.309.266 1.782.738.473.473.739 1.114.739 1.783Zm-1.441 0c0-.286-.114-.561-.316-.764-.203-.203-.478-.316-.764-.316h-.721v2.161h.721c.286 0 .561-.114.764-.317.202-.202.316-.477.316-.764Zm7.924.72c0 .86-.342 1.685-.95 2.293-.608.607-1.432.949-2.292.949h-1.44c-.191 0-.375-.076-.51-.211s-.211-.318-.211-.509v-5.043c0-.191.076-.374.211-.509s.319-.211.51-.211h1.44c.86 0 1.684.342 2.292.949.608.608.95 1.433.95 2.292Zm-1.441 0c0-.477-.19-.935-.527-1.273-.338-.338-.796-.527-1.274-.527h-.72v3.601h.72c.478 0 .936-.189 1.274-.527.337-.338.527-.796.527-1.274Zm-9.724-6.122v-6.483c0-.382.151-.749.422-1.019.27-.27.636-.422 1.018-.422h8.644c.095 0 .189.019.276.055.087.036.167.089.234.156l5.042 5.042c.067.067.12.146.156.234.036.087.055.181.055.276v2.161c0 .191-.076.374-.211.509s-.318.211-.509.211c-.192 0-.375-.076-.51-.211s-.211-.318-.211-.509v-1.441h-4.322c-.191 0-.374-.076-.509-.211s-.211-.318-.211-.509v-4.322h-7.924v6.483c0 .191-.076.374-.211.509s-.318.211-.509.211-.374-.076-.509-.211c-.136-.135-.211-.318-.211-.509Zm10.805-2.882h2.583l-2.583-2.583v2.583Z"/><g opacity=".5"><rect width="58" height="60" x="244" y="218" fill="#F1F5F9" rx="4"/><rect width="58" height="60" x="244" y="218" fill="url(#s)" rx="4"/></g><g opacity=".5"><rect width="58" height="60" x="321" y="140" fill="#F1F5F9" rx="4"/><rect width="58" height="60" x="321" y="140" fill="url(#t)" rx="4"/></g><g opacity=".5"><rect width="58" height="60" x="321" y="218" fill="#F1F5F9" rx="4"/><rect width="58" height="60" x="321" y="218" fill="url(#u)" rx="4"/></g><path fill="#94A3B8" d="m49.2378 243.414-5.0423-5.042c-.067-.067-.1464-.12-.2339-.156-.0874-.036-.1811-.055-.2758-.055h-8.6439c-.3821 0-.7486.152-1.0187.422-.2702.27-.422.637-.422 1.019v6.483c0 .191.0759.374.211.509s.3183.211.5093.211c.1911 0 .3743-.076.5094-.211.1351-.135.211-.318.211-.509v-6.483h7.9236v4.322c0 .191.0759.374.211.509s.3183.211.5093.211h4.322v10.805h-.7203c-.191 0-.3743.076-.5094.211-.135.135-.2109.318-.2109.509s.0759.375.2109.51c.1351.135.3184.211.5094.211h.7203c.3821 0 .7486-.152 1.0187-.422.2702-.27.422-.637.422-1.019v-11.525c.0001-.095-.0185-.189-.0547-.276-.0361-.088-.0891-.167-.156-.234Zm-4.8316-2.794 2.5833 2.583h-2.5833v-2.583Zm-.371 8.436c-.1125-.062-.2397-.093-.3683-.09-.1285.004-.2538.042-.3628.11l-1.7964 1.122c-.0501-.342-.2214-.655-.4827-.881-.2614-.226-.5953-.351-.9408-.351h-5.7627c-.3821 0-.7485.152-1.0187.422-.2702.27-.4219.637-.4219 1.019v4.322c0 .382.1517.748.4219 1.018.2702.271.6366.422 1.0187.422h5.7627c.3455 0 .6794-.125.9408-.351.2613-.226.4326-.539.4827-.88l1.7964 1.121c.109.069.2342.106.3627.11.1285.003.2556-.028.3681-.09.1124-.063.2062-.154.2715-.265.0652-.11.0997-.236.0998-.365v-5.763c0-.128-.0343-.255-.0996-.365-.0652-.111-.1589-.203-.2714-.265Zm-3.951 5.673h-5.7627v-4.322h5.7627v4.322Zm2.8813-.579-1.4407-.901v-1.363l1.4407-.9v3.164ZM358.169 249.686c0 .191-.076.375-.211.51s-.318.211-.509.211h-2.161v1.44h1.441c.191 0 .374.076.509.211s.211.319.211.51-.076.374-.211.509-.318.211-.509.211h-1.441v1.441c0 .191-.076.374-.211.509s-.318.211-.509.211c-.192 0-.375-.076-.51-.211s-.211-.318-.211-.509v-5.043c0-.191.076-.374.211-.509s.318-.211.51-.211h2.881c.191 0 .374.076.509.211s.211.318.211.509Zm-11.885 1.801c0 .669-.266 1.31-.739 1.783-.473.473-1.114.738-1.782.738h-.721v.721c0 .191-.076.374-.211.509s-.318.211-.509.211-.374-.076-.509-.211c-.136-.135-.211-.318-.211-.509v-5.043c0-.191.075-.374.211-.509.135-.135.318-.211.509-.211h1.441c.668 0 1.309.266 1.782.738.473.473.739 1.114.739 1.783Zm-1.441 0c0-.286-.114-.561-.316-.764-.203-.203-.478-.316-.764-.316h-.721v2.161h.721c.286 0 .561-.114.764-.317.202-.202.316-.477.316-.764Zm7.924.72c0 .86-.342 1.685-.95 2.293-.608.607-1.432.949-2.292.949h-1.44c-.191 0-.375-.076-.51-.211s-.211-.318-.211-.509v-5.043c0-.191.076-.374.211-.509s.319-.211.51-.211h1.44c.86 0 1.684.342 2.292.949.608.608.95 1.433.95 2.292Zm-1.441 0c0-.477-.19-.935-.527-1.273-.338-.338-.796-.527-1.274-.527h-.72v3.601h.72c.478 0 .936-.189 1.274-.527.337-.338.527-.796.527-1.274Zm-9.724-6.122v-6.483c0-.382.151-.749.422-1.019.27-.27.636-.422 1.018-.422h8.644c.095 0 .189.019.276.055.087.036.167.089.234.156l5.042 5.042c.067.067.12.146.156.234.036.087.055.181.055.276v2.161c0 .191-.076.374-.211.509s-.318.211-.509.211c-.192 0-.375-.076-.51-.211s-.211-.318-.211-.509v-1.441h-4.322c-.191 0-.374-.076-.509-.211s-.211-.318-.211-.509v-4.322h-7.924v6.483c0 .191-.076.374-.211.509s-.318.211-.509.211-.374-.076-.509-.211c-.136-.135-.211-.318-.211-.509Zm10.805-2.882h2.583l-2.583-2.583v2.583Z"/><rect width="35" height="2" x="248" y="114" fill="#CBD5E1" rx="1"/><rect width="35" height="2" x="325" y="114" fill="#CBD5E1" rx="1"/><rect width="21" height="2" x="248" y="192" fill="#CBD5E1" rx="1"/><rect width="44" height="2" x="248" y="270" fill="#CBD5E1" rx="1"/><rect width="32" height="2" x="325" y="192" fill="#CBD5E1" rx="1"/><rect width="44" height="2" x="325" y="270" fill="#CBD5E1" rx="1"/><path fill="#94A3B8" d="m203.238 87.414-5.043-5.0423c-.066-.0669-.146-.1199-.233-.156-.088-.0362-.182-.0548-.276-.0547h-8.644c-.382 0-.749.1518-1.019.422-.27.2701-.422.6366-.422 1.0187v6.483c0 .191.076.3742.211.5093s.318.211.51.211c.191 0 .374-.0759.509-.211s.211-.3183.211-.5093v-6.483h7.924v4.322c0 .191.075.3742.21.5093.136.1351.319.211.51.211h4.322v10.805h-.721c-.191 0-.374.0759-.509.211-.135.135-.211.3183-.211.509 0 .191.076.375.211.51s.318.211.509.211h.721c.382 0 .748-.152 1.019-.422.27-.27.421-.6369.421-1.019V87.9237c.001-.0947-.018-.1884-.054-.2758-.036-.0875-.089-.1669-.156-.2339Zm-4.832-2.794 2.583 2.5833h-2.583V84.62Zm-.371 8.436c-.112-.0622-.239-.0932-.368-.0898-.129.0035-.254.0414-.363.1096l-1.796 1.122c-.05-.342-.222-.6545-.483-.8806-.261-.2261-.595-.3508-.941-.3512h-5.762c-.383 0-.749.1518-1.019.422-.27.2701-.422.6366-.422 1.0187v4.3219c0 .3821.152.7486.422 1.0188.27.2706.636.4216 1.019.4216h5.762c.346 0 .68-.125.941-.3509.261-.2261.433-.5386.483-.8806l1.796 1.1215c.109.069.234.106.363.11.128.003.255-.028.368-.09.112-.063.206-.1538.271-.2645.066-.1108.1-.237.1-.3655v-5.7627c0-.1286-.034-.2549-.099-.3657-.066-.1108-.159-.2022-.272-.2646Zm-3.951 5.6726h-5.762v-4.3219h5.762v4.3219Zm2.882-.5789-1.441-.9004V95.886l1.441-.9004v3.1641Z"/><rect width="37" height="2" x="460" y="253.296" fill="#CBD5E1" opacity=".65" rx="1"/><rect width="7.39522" height="7.39522" x="502.697" y="250.761" fill="#CBD5E1" opacity=".65" rx="1.23254"/><rect width="152.384" height="11.3837" x="408.308" y="248.604" stroke="#E2E8F0" stroke-width=".616269" rx="2.15694"/><rect width="152.384" height="11.3837" x="408.308" y="263.604" stroke="url(#v)" stroke-width=".616269" rx="2.15694"/></g><defs><linearGradient id="b" x1="290.263" x2="290.263" y1="0" y2="292.064" gradientUnits="userSpaceOnUse"><stop stop-color="#0F172A"/><stop offset="1" stop-color="#0F172A" stop-opacity="0"/></linearGradient><linearGradient id="c" x1="217.04" x2="183.171" y1=".00001402" y2="224.058" gradientUnits="userSpaceOnUse"><stop stop-color="#E2E8F0"/><stop offset="1" stop-color="#E2E8F0" stop-opacity="0"/></linearGradient><linearGradient id="e" x1="392.5" x2="392.5" y1="8.29578" y2="241.862" gradientUnits="userSpaceOnUse"><stop stop-color="#E2E8F0"/><stop offset="1" stop-color="#E2E8F0" stop-opacity="0"/></linearGradient><linearGradient id="f" x1="486" x2="486" y1="32" y2="194" gradientUnits="userSpaceOnUse"><stop stop-color="#CBD5E1"/><stop offset="1" stop-color="#CBD5E1" stop-opacity="0"/></linearGradient><linearGradient id="g" x1="42" x2="42" y1="62" y2="122" gradientUnits="userSpaceOnUse"><stop stop-color="#CBD5E1"/><stop offset="1" stop-color="#CBD5E1" stop-opacity="0"/></linearGradient><linearGradient id="h" x1="119" x2="119" y1="62" y2="122" gradientUnits="userSpaceOnUse"><stop stop-color="#CBD5E1"/><stop offset="1" stop-color="#CBD5E1" stop-opacity="0"/></linearGradient><linearGradient id="i" x1="119" x2="119" y1="140" y2="200" gradientUnits="userSpaceOnUse"><stop stop-color="#CBD5E1"/><stop offset="1" stop-color="#CBD5E1" stop-opacity="0"/></linearGradient><linearGradient id="j" x1="119" x2="119" y1="218" y2="278" gradientUnits="userSpaceOnUse"><stop stop-color="#CBD5E1"/><stop offset="1" stop-color="#CBD5E1" stop-opacity="0"/></linearGradient><linearGradient id="k" x1="42" x2="42" y1="140" y2="200" gradientUnits="userSpaceOnUse"><stop stop-color="#CBD5E1"/><stop offset="1" stop-color="#CBD5E1" stop-opacity="0"/></linearGradient><linearGradient id="l" x1="42" x2="42" y1="218" y2="278" gradientUnits="userSpaceOnUse"><stop stop-color="#CBD5E1"/><stop offset="1" stop-color="#CBD5E1" stop-opacity="0"/></linearGradient><linearGradient id="m" x1="196" x2="196" y1="62" y2="122" gradientUnits="userSpaceOnUse"><stop stop-color="#CBD5E1"/><stop offset="1" stop-color="#CBD5E1" stop-opacity="0"/></linearGradient><linearGradient id="n" x1="196" x2="196" y1="140" y2="200" gradientUnits="userSpaceOnUse"><stop stop-color="#CBD5E1"/><stop offset="1" stop-color="#CBD5E1" stop-opacity="0"/></linearGradient><linearGradient id="o" x1="196" x2="196" y1="218" y2="278" gradientUnits="userSpaceOnUse"><stop stop-color="#CBD5E1"/><stop offset="1" stop-color="#CBD5E1" stop-opacity="0"/></linearGradient><linearGradient id="p" x1="273" x2="273" y1="62" y2="122" gradientUnits="userSpaceOnUse"><stop stop-color="#CBD5E1"/><stop offset="1" stop-color="#CBD5E1" stop-opacity="0"/></linearGradient><linearGradient id="q" x1="350" x2="350" y1="62" y2="122" gradientUnits="userSpaceOnUse"><stop stop-color="#CBD5E1"/><stop offset="1" stop-color="#CBD5E1" stop-opacity="0"/></linearGradient><linearGradient id="r" x1="273" x2="273" y1="140" y2="200" gradientUnits="userSpaceOnUse"><stop stop-color="#CBD5E1"/><stop offset="1" stop-color="#CBD5E1" stop-opacity="0"/></linearGradient><linearGradient id="s" x1="273" x2="273" y1="218" y2="278" gradientUnits="userSpaceOnUse"><stop stop-color="#CBD5E1"/><stop offset="1" stop-color="#CBD5E1" stop-opacity="0"/></linearGradient><linearGradient id="t" x1="350" x2="350" y1="140" y2="200" gradientUnits="userSpaceOnUse"><stop stop-color="#CBD5E1"/><stop offset="1" stop-color="#CBD5E1" stop-opacity="0"/></linearGradient><linearGradient id="u" x1="350" x2="350" y1="218" y2="278" gradientUnits="userSpaceOnUse"><stop stop-color="#CBD5E1"/><stop offset="1" stop-color="#CBD5E1" stop-opacity="0"/></linearGradient><linearGradient id="v" x1="484.5" x2="484.5" y1="263.296" y2="275.296" gradientUnits="userSpaceOnUse"><stop stop-color="#E2E8F0"/><stop offset="1" stop-color="#E2E8F0" stop-opacity="0"/></linearGradient><radialGradient id="d" cx="0" cy="0" r="1" gradientTransform="rotate(63.2379 87.88746382 126.78033925) scale(286.41 605.008)" gradientUnits="userSpaceOnUse"><stop stop-color="#E2E8F0" stop-opacity=".56"/><stop offset=".9999" stop-color="#A1A1AA" stop-opacity=".01"/><stop offset="1" stop-color="#E2E8F0" stop-opacity="0"/></radialGradient><clipPath id="a"><rect width="581" height="317" fill="#fff" rx="8"/></clipPath></defs></svg>
