<svg xmlns="http://www.w3.org/2000/svg" fill="none" viewBox="0 0 766 378"><rect width="766" height="377.053" fill="#F8FAFC" rx="8"/><g clip-path="url(#a)"><path fill="url(#b)" fill-opacity=".49" fill-rule="evenodd" d="M234.023 134.109c0-6.405-5.192-11.597-11.597-11.597h-67.798v1.784h67.798c5.42 0 9.813 4.394 9.813 9.813v50.551c0 4.132 2.161 7.759 5.414 9.813h-84.809v1.785h84.809c-3.253 2.054-5.414 5.681-5.414 9.812v50.552c0 5.419-4.393 9.813-9.813 9.813h-67.798v1.784h67.798c6.405 0 11.597-5.192 11.597-11.597V206.07c0-5.415 4.387-9.806 9.801-9.812h20.232c.493 0 .893-.4.893-.893v-.005c-.004-.49-.402-.887-.893-.887h-20.229c-5.415-.005-9.804-4.396-9.804-9.813v-50.551Z" clip-rule="evenodd" opacity=".6"/><path fill="url(#c)" fill-opacity=".49" fill-rule="evenodd" d="M479.939 134.109c0-6.405 5.192-11.597 11.597-11.597h67.798v1.784h-67.798c-5.42 0-9.813 4.394-9.813 9.813v50.551c0 4.132-2.161 7.759-5.414 9.813h84.809v1.785h-84.809c3.253 2.054 5.414 5.681 5.414 9.812v50.552c0 5.419 4.393 9.813 9.813 9.813h67.798v1.784h-67.798c-6.405 0-11.597-5.192-11.597-11.597V206.07c0-5.415-4.387-9.806-9.801-9.812h-20.233c-.492 0-.892-.4-.892-.893v-.005c.003-.49.402-.887.892-.887h20.23c5.415-.005 9.804-4.396 9.804-9.813v-50.551Z" clip-rule="evenodd" opacity=".6"/><path fill="url(#d)" d="M109.279 132.325v-21.261c0-.867.345-1.699.958-2.313.614-.613 1.446-.958 2.313-.958h29.439c.867 0 1.699.345 2.313.958.613.614.958 1.446.958 2.313v21.261"/><path stroke="#CBD5E1" stroke-linecap="round" stroke-linejoin="round" stroke-width="1.53157" d="M109.279 132.325v-21.261c0-.867.345-1.699.958-2.313.614-.613 1.446-.958 2.313-.958h29.439c.867 0 1.699.345 2.313.958.613.614.958 1.446.958 2.313v21.261M106.008 132.325h42.522v3.271c0 .868-.344 1.7-.958 2.313-.613.614-1.445.958-2.313.958h-35.98c-.868 0-1.7-.344-2.313-.958-.614-.613-.958-1.445-.958-2.313v-3.271Z"/><path stroke="#CBD5E1" stroke-linecap="round" stroke-linejoin="round" stroke-width="1.13215" d="M130.54 114.335h-6.542"/><path fill="#fff" d="M47.2599 114.73h32.4196c3.4658 0 6.2754 2.81 6.2754 6.276v8.714c0 3.465-2.8096 6.275-6.2754 6.275H47.2599c-3.4658 0-6.2754-2.81-6.2754-6.275v-8.714c0-3.466 2.8096-6.276 6.2754-6.276Z"/><path stroke="#CBD5E1" stroke-width="1.08821" d="M47.2599 114.73h32.4196c3.4658 0 6.2754 2.81 6.2754 6.276v8.714c0 3.465-2.8096 6.275-6.2754 6.275H47.2599c-3.4658 0-6.2754-2.81-6.2754-6.275v-8.714c0-3.466 2.8096-6.276 6.2754-6.276Z"/><path fill="#0F172A" d="m47.3354 129.363 3.356-9.141h1.4234l3.356 9.141h-1.3972l-2.677-7.574-2.6901 7.574h-1.3711Zm1.5148-2.259.3656-1.045h4.2963l.3656 1.045h-5.0275Zm7.8577 2.259v-9.402h1.3059v3.891c.2176-.383.518-.683.901-.901.3918-.218.8227-.326 1.2928-.326.5224 0 .9707.108 1.3451.326.3743.209.6616.527.8618.953.2002.418.3004.945.3004 1.58v3.879h-1.2928v-3.748c0-.609-.1306-1.071-.3918-1.384-.2612-.322-.6486-.483-1.1622-.483-.3482 0-.6616.082-.9402.248-.2786.165-.5006.409-.666.731-.1654.313-.2481.696-.2481 1.149v3.487h-1.3059Zm9.8578.156c-.5397 0-.9881-.091-1.345-.274-.357-.183-.6225-.426-.7966-.731-.1741-.313-.2612-.649-.2612-1.006 0-.435.1132-.805.3396-1.109.2263-.314.5484-.553.9663-.719.4179-.165.9184-.248 1.5017-.248h1.7107c0-.383-.0566-.701-.1698-.953-.1131-.253-.2829-.44-.5093-.562-.2176-.13-.4962-.195-.8357-.195-.3918 0-.7269.095-1.0055.287-.2786.183-.4527.457-.5224.822h-1.3058c.0522-.461.2089-.853.4701-1.175.2699-.331.6138-.583 1.0316-.757.4179-.183.8619-.274 1.332-.274.6181 0 1.1361.108 1.554.326.4178.218.7312.527.9402.927.2176.392.3264.862.3264 1.411v4.074h-1.1361l-.1044-1.11c-.0958.174-.209.339-.3395.496-.1306.157-.2873.292-.4701.405-.1742.113-.3787.2-.6138.261-.2263.07-.4788.104-.7574.104Zm.2481-1.057c.2786 0 .5311-.057.7574-.17.2264-.113.4179-.266.5746-.457.1654-.2.2873-.422.3656-.666.0871-.253.135-.509.1437-.77v-.04h-1.554c-.3743 0-.679.048-.9141.144-.2263.087-.3917.209-.4962.366-.1045.156-.1567.339-.1567.548 0 .218.0479.405.1436.562.1045.148.2525.265.444.352.1915.087.4222.131.6921.131Zm7.7652 1.057c-.6269 0-1.1797-.148-1.6585-.443-.4788-.305-.8531-.714-1.123-1.228-.2612-.522-.3918-1.114-.3918-1.776 0-.67.1306-1.262.3918-1.776.2699-.514.6442-.918 1.123-1.214.4875-.305 1.0447-.457 1.6715-.457.5137 0 .9663.104 1.3581.313.3918.2.6965.488.9141.862v-3.839h1.3059v9.402h-1.1753l-.1306-1.019c-.1306.2-.3003.392-.5093.575-.2089.174-.4614.318-.7574.431-.296.113-.6355.169-1.0185.169Zm.2089-1.136c.4092 0 .7704-.095 1.0839-.287.3134-.191.5528-.461.7182-.81.1741-.348.2611-.753.2611-1.214 0-.461-.087-.862-.2611-1.201-.1654-.349-.4048-.618-.7182-.81-.3135-.2-.6747-.3-1.0839-.3-.3918 0-.7443.1-1.0577.3-.3135.192-.5572.461-.7313.81-.1741.339-.2612.74-.2612 1.201 0 .461.0871.866.2612 1.214.1741.349.4178.619.7313.81.3134.192.6659.287 1.0577.287Z"/><path fill="url(#e)" d="M109.279 203.692v-21.261c0-.868.345-1.7.958-2.313.614-.614 1.446-.958 2.313-.958h29.439c.867 0 1.699.344 2.313.958.613.613.958 1.445.958 2.313v21.261"/><path stroke="#CBD5E1" stroke-linecap="round" stroke-linejoin="round" stroke-width="1.53157" d="M109.279 203.692v-21.261c0-.868.345-1.7.958-2.313.614-.614 1.446-.958 2.313-.958h29.439c.867 0 1.699.344 2.313.958.613.613.958 1.445.958 2.313v21.261M106.008 203.692h42.522v3.271c0 .867-.344 1.699-.958 2.313-.613.613-1.445.958-2.313.958h-35.98c-.868 0-1.7-.345-2.313-.958-.614-.614-.958-1.446-.958-2.313v-3.271Z"/><path stroke="#CBD5E1" stroke-linecap="round" stroke-linejoin="round" stroke-width="1.13215" d="M130.54 185.701h-6.542"/><path fill="#fff" d="M44.881 186.097h34.4196c3.4658 0 6.2754 2.809 6.2754 6.275v8.714c0 3.466-2.8096 6.275-6.2754 6.275H44.881c-3.4658 0-6.2754-2.809-6.2754-6.275v-8.714c0-3.466 2.8096-6.275 6.2754-6.275Z"/><path stroke="#CBD5E1" stroke-width="1.08821" d="M44.881 186.097h34.4196c3.4658 0 6.2754 2.809 6.2754 6.275v8.714c0 3.466-2.8096 6.275-6.2754 6.275H44.881c-3.4658 0-6.2754-2.809-6.2754-6.275v-8.714c0-3.466 2.8096-6.275 6.2754-6.275Z"/><path fill="#0F172A" d="M48.5345 200.886c-.6703 0-1.258-.118-1.7629-.353-.5049-.243-.8967-.583-1.1753-1.018-.2786-.435-.4178-.945-.4178-1.528h1.3711c.0087.331.0871.635.2351.914.1567.27.3787.488.6659.653.296.157.6573.235 1.0839.235.3656 0 .679-.061.9402-.183.2699-.122.4745-.287.6138-.496.1393-.218.2089-.466.2089-.744 0-.322-.074-.588-.222-.797-.148-.209-.3482-.379-.6007-.509-.2437-.139-.531-.261-.8618-.366-.3222-.104-.6617-.217-1.0186-.339-.7226-.235-1.2623-.54-1.6193-.914-.3482-.375-.5223-.862-.5223-1.463 0-.514.1219-.958.3656-1.332.2438-.383.5833-.679 1.0186-.888.444-.218.9663-.326 1.567-.326.592 0 1.11.108 1.554.326.444.218.7922.518 1.0447.901.2524.383.3787.831.3787 1.345h-1.3842c0-.235-.061-.466-.1829-.692-.1218-.226-.3047-.409-.5484-.548-.2438-.148-.5441-.222-.9011-.222-.296-.009-.5615.039-.7965.143-.2351.105-.4179.257-.5485.457s-.1959.44-.1959.718c0 .279.0566.505.1698.679.1219.166.296.31.5223.431.2264.122.4876.235.7835.34.3047.096.6399.205 1.0056.326.4527.148.8531.331 1.2013.549.357.209.6356.483.8358.823.2089.33.3134.757.3134 1.279 0 .453-.1175.875-.3526 1.267-.235.392-.5833.714-1.0447.966-.4614.244-1.0359.366-1.7237.366Zm6.7893 0c-.5397 0-.9881-.091-1.345-.274-.3569-.183-.6225-.427-.7966-.732-.1741-.313-.2612-.648-.2612-1.005 0-.435.1132-.805.3396-1.11.2263-.313.5484-.553.9663-.718.4179-.166.9185-.248 1.5017-.248h1.7107c0-.383-.0566-.701-.1698-.954-.1131-.252-.2829-.439-.5092-.561-.2177-.131-.4963-.196-.8358-.196-.3917 0-.7269.096-1.0055.287-.2786.183-.4527.457-.5223.823h-1.3059c.0522-.461.2089-.853.4701-1.175.2699-.331.6138-.584 1.0316-.758.4179-.183.8619-.274 1.332-.274.6181 0 1.1361.109 1.554.327.4179.217.7313.526.9402.927.2176.391.3265.862.3265 1.41v4.074h-1.1361l-.1045-1.11c-.0958.174-.2089.34-.3395.496-.1306.157-.2873.292-.4701.405-.1741.113-.3787.201-.6138.261-.2263.07-.4788.105-.7574.105Zm.2481-1.058c.2786 0 .5311-.056.7574-.17.2264-.113.4179-.265.5746-.457.1654-.2.2873-.422.3656-.666.0871-.252.135-.509.1437-.77v-.039h-1.554c-.3743 0-.679.048-.9141.143-.2263.087-.3917.209-.4962.366-.1045.157-.1567.34-.1567.549 0 .217.0479.404.1436.561.1045.148.2525.266.444.353.1916.087.4223.13.6921.13Zm4.8401.901v-6.581h1.1752l.1176 1.24c.148-.296.3395-.544.5745-.744.2351-.209.5093-.37.8227-.483.3221-.113.6878-.17 1.0969-.17v1.384h-.4701c-.2698 0-.5267.035-.7704.105-.2438.061-.4614.169-.653.326-.1828.157-.3264.37-.4309.64-.1045.27-.1567.605-.1567 1.006v3.277H60.412Zm7.167.157c-.5398 0-.9881-.091-1.3451-.274-.3569-.183-.6224-.427-.7965-.732-.1742-.313-.2612-.648-.2612-1.005 0-.435.1132-.805.3395-1.11.2264-.313.5485-.553.9663-.718.4179-.166.9185-.248 1.5018-.248h1.7106c0-.383-.0565-.701-.1697-.954-.1132-.252-.283-.439-.5093-.561-.2176-.131-.4962-.196-.8357-.196-.3918 0-.727.096-1.0056.287-.2785.183-.4527.457-.5223.823h-1.3059c.0523-.461.209-.853.4702-1.175.2698-.331.6137-.584 1.0316-.758.4179-.183.8618-.274 1.332-.274.6181 0 1.136.109 1.5539.327.4179.217.7313.526.9402.927.2177.391.3265.862.3265 1.41v4.074h-1.1361l-.1045-1.11c-.0957.174-.2089.34-.3395.496-.1306.157-.2873.292-.4701.405-.1741.113-.3787.201-.6137.261-.2264.07-.4789.105-.7574.105Zm.2481-1.058c.2786 0 .531-.056.7574-.17.2263-.113.4178-.265.5745-.457.1655-.2.2873-.422.3657-.666.087-.252.1349-.509.1436-.77v-.039h-1.5539c-.3744 0-.6791.048-.9141.143-.2264.087-.3918.209-.4963.366-.1044.157-.1567.34-.1567.549 0 .217.0479.404.1437.561.1044.148.2524.266.444.353.1915.087.4222.13.6921.13Zm4.84.901v-9.402h1.3059v3.892c.2176-.384.5179-.684.901-.901.3917-.218.8227-.327 1.2928-.327.5223 0 .9707.109 1.345.327.3744.208.6617.526.8619.953.2002.418.3003.944.3003 1.58v3.878h-1.2928v-3.748c0-.609-.1306-1.07-.3917-1.384-.2612-.322-.6486-.483-1.1622-.483-.3483 0-.6617.083-.9402.248-.2786.166-.5006.409-.666.731-.1654.314-.2481.697-.2481 1.15v3.486h-1.3059Z"/><path fill="url(#f)" d="M109.279 276.248v-21.261c0-.868.345-1.7.958-2.313.614-.614 1.446-.958 2.313-.958h29.439c.867 0 1.699.344 2.313.958.613.613.958 1.445.958 2.313v21.261"/><path stroke="#CBD5E1" stroke-linecap="round" stroke-linejoin="round" stroke-width="1.53157" d="M109.279 276.248v-21.261c0-.868.345-1.7.958-2.313.614-.614 1.446-.958 2.313-.958h29.439c.867 0 1.699.344 2.313.958.613.613.958 1.445.958 2.313v21.261M106.008 276.248h42.522v3.271c0 .867-.344 1.699-.958 2.312-.613.614-1.445.958-2.313.958h-35.98c-.868 0-1.7-.344-2.313-.958-.614-.613-.958-1.445-.958-2.312v-3.271Z"/><path stroke="#CBD5E1" stroke-linecap="round" stroke-linejoin="round" stroke-width="1.13215" d="M130.54 258.257h-6.542"/><path fill="#fff" d="M44.881 258.653h38.4196c3.4658 0 6.2754 2.809 6.2754 6.275v8.714c0 3.466-2.8096 6.275-6.2754 6.275H44.881c-3.4658 0-6.2754-2.809-6.2754-6.275v-8.714c0-3.466 2.8096-6.275 6.2754-6.275Z"/><path stroke="#CBD5E1" stroke-width="1.08821" d="M44.881 258.653h38.4196c3.4658 0 6.2754 2.809 6.2754 6.275v8.714c0 3.466-2.8096 6.275-6.2754 6.275H44.881c-3.4658 0-6.2754-2.809-6.2754-6.275v-8.714c0-3.466 2.8096-6.275 6.2754-6.275Z"/><path fill="#0F172A" d="m44.9565 273.285 3.356-9.141h1.4234l3.356 9.141h-1.3972l-2.677-7.574-2.6901 7.574h-1.3711Zm1.5148-2.259.3656-1.045h4.2963l.3656 1.045h-5.0275Zm9.9873 2.259c-.4179 0-.7792-.065-1.0839-.196-.3047-.13-.5397-.348-.7051-.653-.1654-.304-.2481-.718-.2481-1.24v-3.382h-1.1361v-1.11h1.1361l.1567-1.646h1.1491v1.646h1.8674v1.11h-1.8674v3.395c0 .374.0784.631.2351.77.1567.131.4265.196.8096.196h.7574v1.11h-1.0708Zm2.6675 0v-6.581h1.3059v6.581h-1.3059Zm.666-7.822c-.2525 0-.4614-.078-.6268-.235-.1567-.157-.2351-.357-.2351-.601 0-.235.0784-.426.2351-.574.1654-.157.3743-.235.6268-.235.2437 0 .4483.078.6137.235.1654.148.2482.339.2482.574 0 .244-.0828.444-.2482.601-.1654.157-.37.235-.6137.235Zm2.5072 7.822v-6.581h1.1753l.0783 1.123c.209-.392.505-.701.888-.927.3831-.236.8227-.353 1.3189-.353.5224 0 .9707.104 1.3451.313.3743.209.666.527.8749.954.2089.417.3134.944.3134 1.58v3.891h-1.3059v-3.761c0-.609-.1349-1.071-.4048-1.384-.2698-.313-.6616-.47-1.1752-.47-.3396 0-.6443.083-.9141.248-.2699.157-.4876.392-.653.705-.1567.314-.235.697-.235 1.149v3.513h-1.3059Zm10.0801.157c-.5136 0-.962-.105-1.345-.314-.3744-.208-.666-.522-.875-.94-.2002-.418-.3003-.944-.3003-1.58v-3.904h1.3059v3.761c0 .618.1349 1.083.4048 1.397.2698.313.6573.47 1.1622.47.3395 0 .6442-.083.9141-.248.2786-.166.4962-.405.6529-.718.1567-.314.2351-.697.2351-1.15v-3.512h1.3058v6.581h-1.1622l-.0914-1.123c-.2002.401-.4919.714-.8749.94-.3831.227-.8271.34-1.332.34Zm4.6216-.157 2.2722-3.291-2.2722-3.29h1.4103l1.7238 2.559 1.7367-2.559h1.3973l-2.2722 3.29 2.2722 3.291h-1.3973l-1.7367-2.572-1.7238 2.572H77.001Z"/><rect width="225.994" height="266.435" x="501.35" y="57.6877" stroke="#E2E8F0" stroke-dasharray="2.38 2.38" stroke-width="1.18944" rx="6.54193"/><path fill="#fff" d="M586.077 257.463h27.42c3.466 0 6.275 2.81 6.275 6.276v8.714c0 3.465-2.809 6.275-6.275 6.275h-27.42c-3.466 0-6.275-2.81-6.275-6.275v-8.714c0-3.466 2.809-6.276 6.275-6.276Z"/><path stroke="#CBD5E1" stroke-width="1.08821" d="M586.077 257.463h27.42c3.466 0 6.275 2.81 6.275 6.276v8.714c0 3.465-2.809 6.275-6.275 6.275h-27.42c-3.466 0-6.275-2.81-6.275-6.275v-8.714c0-3.466 2.809-6.276 6.275-6.276Z"/><path fill="#0F172A" d="M586.74 272.096v-9.141h3.383c.635 0 1.166.104 1.593.313.426.2.744.479.953.836.218.348.326.744.326 1.188 0 .462-.1.849-.3 1.162-.2.314-.466.558-.796.732-.323.165-.671.261-1.045.287l.183-.131c.4.009.766.118 1.097.327.33.2.592.47.783.809.192.34.287.714.287 1.124 0 .47-.113.896-.339 1.279-.227.375-.562.671-1.006.888-.444.218-.988.327-1.632.327h-3.487Zm1.306-1.084h2.011c.575 0 1.019-.131 1.332-.392.322-.27.483-.648.483-1.136 0-.479-.165-.862-.496-1.149-.322-.287-.77-.431-1.345-.431h-1.985v3.108Zm0-4.114h1.933c.548 0 .966-.126 1.254-.378.287-.261.43-.618.43-1.071 0-.435-.143-.779-.43-1.032-.288-.261-.719-.391-1.293-.391h-1.894v2.872Zm6.65 5.198v-9.402h1.306v9.402h-1.306Zm6.103.156c-.618 0-1.176-.143-1.672-.431-.487-.287-.875-.687-1.162-1.201-.279-.522-.418-1.123-.418-1.802 0-.696.144-1.301.431-1.815.287-.522.679-.927 1.175-1.215.497-.287 1.054-.431 1.672-.431.627 0 1.184.144 1.671.431.488.288.871.688 1.149 1.202.288.513.431 1.118.431 1.815 0 .696-.143 1.301-.431 1.815-.278.514-.666.914-1.162 1.201-.496.288-1.057.431-1.684.431Zm0-1.123c.357 0 .679-.087.966-.261.296-.174.531-.431.705-.77.183-.348.274-.779.274-1.293 0-.514-.087-.94-.261-1.28-.174-.348-.409-.609-.705-.783-.287-.174-.605-.261-.953-.261s-.67.087-.966.261c-.296.174-.536.435-.719.783-.174.34-.261.766-.261 1.28s.087.945.261 1.293c.183.339.418.596.705.77.296.174.614.261.954.261Zm8.405 1.123c-.357 0-.684-.052-.98-.156-.287-.096-.54-.231-.757-.405-.218-.174-.401-.374-.549-.601l-.13 1.006h-1.175v-9.402h1.305v3.852c.209-.331.501-.61.875-.836.383-.235.853-.353 1.411-.353.626 0 1.179.153 1.658.458.479.296.849.705 1.11 1.227.27.514.405 1.106.405 1.776 0 .653-.135 1.241-.405 1.763-.261.522-.631.931-1.11 1.227-.479.296-1.032.444-1.658.444Zm-.209-1.136c.4 0 .753-.095 1.057-.287.314-.192.558-.461.732-.81.183-.348.274-.753.274-1.214 0-.461-.091-.862-.274-1.201-.174-.349-.418-.619-.732-.81-.304-.2-.657-.3-1.057-.3-.409 0-.771.1-1.084.3-.305.191-.544.461-.718.81-.175.339-.262.74-.262 1.201 0 .461.087.866.262 1.214.174.349.413.618.718.81.313.192.675.287 1.084.287Z"/><path fill="#fff" d="M586.077 184.907h16.42c3.466 0 6.275 2.81 6.275 6.276v8.714c0 3.465-2.809 6.275-6.275 6.275h-16.42c-3.466 0-6.275-2.81-6.275-6.275v-8.714c0-3.466 2.809-6.276 6.275-6.276Z"/><path stroke="#CBD5E1" stroke-width="1.08821" d="M586.077 184.907h16.42c3.466 0 6.275 2.81 6.275 6.276v8.714c0 3.465-2.809 6.275-6.275 6.275h-16.42c-3.466 0-6.275-2.81-6.275-6.275v-8.714c0-3.466 2.809-6.276 6.275-6.276Z"/><path fill="#0F172A" d="M586.74 199.54v-9.141h1.306v3.97l3.657-3.97h1.632l-3.395 3.63 3.46 5.511h-1.593l-2.794-4.492-.967 1.031v3.461h-1.306Zm10.623 0-3.395-9.141h1.41l2.768 7.783 2.795-7.783h1.384l-3.395 9.141h-1.567Z"/><g clip-path="url(#g)"><path fill="url(#h)" stroke="#E2E8F0" stroke-width=".783386" d="M546.41 147.583c-12.425 0-22.498-10.073-22.498-22.498s10.073-22.497 22.498-22.497 22.497 10.072 22.497 22.497-10.072 22.498-22.497 22.498Z"/><path fill="#0F172A" d="M545.984 114.907c-5.183 0-9.243 2.369-9.243 5.392v9.243c0 3.023 4.06 5.391 9.243 5.391 5.183 0 9.243-2.368 9.243-5.391v-9.243c0-3.023-4.06-5.392-9.243-5.392Zm7.702 10.013c0 .927-.758 1.871-2.08 2.592-1.489.812-3.486 1.26-5.622 1.26-2.136 0-4.133-.448-5.622-1.26-1.322-.721-2.08-1.665-2.08-2.592v-1.602c1.642 1.445 4.451 2.373 7.702 2.373 3.251 0 6.06-.932 7.702-2.373v1.602Zm-13.324-7.213c1.489-.811 3.486-1.259 5.622-1.259 2.136 0 4.133.448 5.622 1.259 1.322.721 2.08 1.666 2.08 2.592 0 .926-.758 1.871-2.08 2.592-1.489.811-3.486 1.259-5.622 1.259-2.136 0-4.133-.448-5.622-1.259-1.322-.721-2.08-1.666-2.08-2.592 0-.926.758-1.871 2.08-2.592Zm11.244 14.427c-1.489.811-3.486 1.259-5.622 1.259-2.136 0-4.133-.448-5.622-1.259-1.322-.722-2.08-1.666-2.08-2.592v-1.602c1.642 1.444 4.451 2.372 7.702 2.372 3.251 0 6.06-.932 7.702-2.372v1.602c0 .926-.758 1.87-2.08 2.592Z"/></g><g clip-path="url(#i)"><path fill="url(#j)" stroke="#E2E8F0" stroke-width=".783386" d="M546.41 217.76c-12.425 0-22.498-10.073-22.498-22.498s10.073-22.497 22.498-22.497 22.497 10.072 22.497 22.497-10.072 22.498-22.497 22.498Z"/><path fill="#0F172A" d="M553.645 188.92c-1.996-.997-4.645-1.525-7.662-1.525-3.016 0-5.666.528-7.661 1.525-1.996.998-3.122 2.401-3.122 3.867v4.621c0 1.466 1.138 2.874 3.122 3.867 1.983.992 4.645 1.525 7.661 1.525 3.017 0 5.666-.528 7.662-1.525 1.996-.998 3.122-2.401 3.122-3.867v-4.621c0-1.466-1.138-2.874-3.122-3.867Zm-7.662.016c6.031 0 9.243 2.236 9.243 3.851 0 1.614-3.212 3.851-9.243 3.851-6.031 0-9.242-2.237-9.242-3.851 0-1.615 3.211-3.851 9.242-3.851Zm-.77 9.229v3.081c-1.829-.06-3.37-.329-4.621-.721v-3.016c1.509.402 3.06.622 4.621.656Zm1.541 0c1.561-.034 3.112-.254 4.621-.656v3.015c-1.252.392-2.792.661-4.621.721v-3.08Zm-10.013-.757v-1.778c.484.402 1.015.746 1.581 1.023.233.117.481.227.729.331v2.927c-1.524-.754-2.31-1.705-2.31-2.503Zm16.174 2.503v-2.927c.252-.104.496-.214.73-.331.566-.277 1.096-.621 1.581-1.023v1.778c0 .798-.787 1.749-2.311 2.503Z"/></g><g clip-path="url(#k)"><path fill="url(#l)" stroke="#E2E8F0" stroke-width=".783386" d="M546.41 290.316c-12.425 0-22.498-10.073-22.498-22.498s10.073-22.497 22.498-22.497 22.497 10.072 22.497 22.497-10.072 22.498-22.497 22.498Z"/><path fill="#0F172A" d="M540.552 261.248c-.051-.153-.149-.287-.28-.381-.131-.095-.289-.146-.45-.146-.162 0-.32.051-.451.146-.131.094-.229.228-.28.381l-3.851 11.553c-.039.116-.049.239-.031.36.018.121.065.235.137.334.071.099.165.18.273.236.109.055.229.084.351.084h7.703c.122 0 .242-.029.351-.084.108-.056.202-.137.274-.236.071-.099.118-.213.136-.334.019-.121.008-.244-.031-.36l-3.851-11.553Zm-3.513 11.027 2.783-8.348 2.782 8.348h-5.565Zm16.647-9.628c0-.99-.294-1.958-.844-2.782-.55-.823-1.332-1.465-2.247-1.844-.915-.378-1.921-.478-2.893-.284-.971.193-1.863.67-2.563 1.37-.7.7-1.177 1.592-1.37 2.563-.193.971-.094 1.978.285 2.893.379.915 1.02 1.696 1.844 2.247.823.55 1.791.843 2.781.843 1.328-.001 2.6-.529 3.539-1.468.938-.938 1.466-2.211 1.468-3.538Zm-8.473 0c0-.686.203-1.356.584-1.926.381-.57.922-1.014 1.556-1.276.633-.263 1.33-.331 2.002-.198.673.134 1.29.464 1.775.949.485.485.815 1.102.949 1.775.133.672.065 1.369-.198 2.002-.262.634-.706 1.175-1.276 1.556-.57.381-1.24.584-1.926.584-.919 0-1.801-.365-2.451-1.015-.65-.65-1.015-1.532-1.015-2.451Zm10.013 6.547h-8.472c-.205 0-.401.081-.545.225-.144.145-.226.341-.226.545v5.392c0 .204.082.4.226.544.144.145.34.226.545.226h8.472c.204 0 .4-.081.545-.226.144-.144.225-.34.225-.544v-5.392c0-.204-.081-.4-.225-.545-.145-.144-.341-.225-.545-.225Zm-.77 5.391h-6.932v-3.851h6.932v3.851Z"/></g><path fill="#fff" d="M562.012 309.626h104.894c8.006 0 14.496 6.491 14.496 14.497s-6.49 14.496-14.496 14.496H562.012c-8.007 0-14.497-6.49-14.497-14.496s6.49-14.497 14.497-14.497Z"/><path stroke="#E2E8F0" stroke-width=".743401" d="M562.012 309.626h104.894c8.006 0 14.496 6.491 14.496 14.497s-6.49 14.496-14.496 14.496H562.012c-8.007 0-14.497-6.49-14.497-14.496s6.49-14.497 14.497-14.497Z"/><g filter="url(#m)"><path fill="#F1F5F9" d="M550.117 324.123c0-6.569 5.325-11.895 11.895-11.895h49.052c6.569 0 11.895 5.326 11.895 11.895s-5.326 11.894-11.895 11.894h-49.052c-6.569 0-11.895-5.325-11.895-11.894Z"/><path fill="#0F172A" d="M559.798 327.623v-7.286h2.487c.583 0 1.062.097 1.437.292.374.194.652.454.832.78.181.326.271.698.271 1.114 0 .395-.09.76-.271 1.093-.173.326-.447.589-.822.791-.375.194-.857.291-1.447.291h-1.446v2.925h-1.041Zm1.041-3.789h1.405c.548 0 .936-.118 1.165-.354.236-.243.354-.562.354-.957 0-.423-.118-.75-.354-.978-.229-.229-.617-.344-1.165-.344h-1.405v2.633Zm5.056 3.789v-5.246h.937l.093.989c.118-.236.271-.434.458-.593.187-.167.406-.295.656-.385.257-.091.548-.136.874-.136v1.103h-.375c-.215 0-.419.028-.614.084-.194.048-.367.135-.52.26-.146.125-.26.295-.344.51-.083.215-.124.482-.124.801v2.613h-1.041Zm6.215.124c-.493 0-.937-.114-1.332-.343-.389-.229-.697-.548-.926-.958-.222-.416-.333-.895-.333-1.436 0-.555.114-1.037.343-1.446.229-.417.541-.739.937-.968.395-.229.839-.344 1.332-.344.5 0 .944.115 1.332.344.389.229.694.548.916.957.229.41.343.892.343 1.447s-.114 1.037-.343 1.446c-.222.41-.531.729-.926.958-.396.229-.843.343-1.343.343Zm0-.895c.285 0 .541-.069.77-.208.236-.139.424-.343.562-.614.146-.277.219-.621.219-1.03 0-.41-.07-.75-.208-1.02-.139-.278-.326-.486-.562-.625-.229-.138-.483-.208-.76-.208-.278 0-.534.07-.77.208-.236.139-.427.347-.573.625-.138.27-.208.61-.208 1.02 0 .409.07.753.208 1.03.146.271.333.475.562.614.236.139.49.208.76.208Zm6.168.895c-.5 0-.94-.118-1.322-.353-.381-.243-.68-.569-.895-.979-.208-.416-.312-.888-.312-1.415 0-.534.104-1.006.312-1.416.215-.409.514-.732.895-.968.389-.242.833-.364 1.332-.364.41 0 .771.083 1.083.25.312.16.555.389.728.687v-3.06h1.041v7.494h-.937l-.104-.812c-.104.159-.239.312-.406.458-.166.138-.367.253-.603.343-.236.09-.507.135-.812.135Zm.167-.905c.326 0 .614-.076.863-.229.25-.153.441-.368.573-.645.139-.278.208-.6.208-.968s-.069-.687-.208-.958c-.132-.277-.323-.492-.573-.645-.249-.16-.537-.239-.863-.239-.313 0-.594.079-.843.239-.25.153-.445.368-.583.645-.139.271-.208.59-.208.958s.069.69.208.968c.138.277.333.492.583.645.249.153.53.229.843.229Zm6.044.905c-.41 0-.767-.083-1.072-.249-.299-.167-.531-.417-.698-.75-.159-.333-.239-.752-.239-1.259v-3.112h1.041v2.998c0 .492.107.863.322 1.113.215.25.524.375.927.375.27 0 .513-.066.728-.198.222-.132.396-.323.521-.572.124-.25.187-.555.187-.916v-2.8h1.041v5.246h-.927l-.072-.895c-.16.319-.392.568-.698.749-.305.18-.659.27-1.061.27Zm6.608 0c-.507 0-.958-.114-1.353-.343-.396-.236-.708-.559-.937-.968-.222-.409-.333-.885-.333-1.426 0-.548.111-1.027.333-1.436.229-.416.541-.739.937-.968.395-.236.846-.354 1.353-.354.638 0 1.172.167 1.602.5.431.333.705.784.823 1.353h-1.083c-.069-.306-.229-.541-.479-.708-.242-.166-.534-.25-.874-.25-.277 0-.534.073-.77.219-.236.139-.427.347-.572.624-.139.271-.209.607-.209 1.01 0 .298.042.565.125.801.084.229.195.423.333.583.146.16.313.281.5.364.187.077.385.115.593.115.229 0 .434-.035.614-.104.188-.077.344-.188.469-.333.131-.146.222-.319.27-.521h1.083c-.118.555-.392 1.003-.823 1.343-.43.333-.964.499-1.602.499Zm5.695-.124c-.333 0-.621-.052-.863-.157-.243-.104-.431-.277-.563-.52-.131-.243-.197-.572-.197-.989v-2.695h-.906v-.885h.906l.125-1.311h.916v1.311h1.488v.885h-1.488v2.706c0 .298.062.503.187.614.125.104.34.156.645.156h.604v.885h-.854Zm2.126 0v-5.246h1.041v5.246h-1.041Zm.531-6.235c-.201 0-.368-.062-.499-.187-.125-.125-.188-.284-.188-.479 0-.187.063-.34.188-.458.131-.125.298-.187.499-.187.194 0 .357.062.489.187.132.118.198.271.198.458 0 .195-.066.354-.198.479s-.295.187-.489.187Zm4.392 6.359c-.492 0-.937-.114-1.332-.343-.389-.229-.697-.548-.926-.958-.222-.416-.333-.895-.333-1.436 0-.555.114-1.037.343-1.446.229-.417.541-.739.937-.968.395-.229.839-.344 1.332-.344.5 0 .944.115 1.332.344.389.229.694.548.916.957.229.41.343.892.343 1.447s-.114 1.037-.343 1.446c-.222.41-.531.729-.926.958-.396.229-.843.343-1.343.343Zm0-.895c.285 0 .541-.069.77-.208.236-.139.424-.343.562-.614.146-.277.219-.621.219-1.03 0-.41-.07-.75-.208-1.02-.139-.278-.326-.486-.562-.625-.229-.138-.483-.208-.76-.208-.278 0-.534.07-.77.208-.236.139-.427.347-.573.625-.138.27-.208.61-.208 1.02 0 .409.07.753.208 1.03.146.271.333.475.562.614.236.139.49.208.76.208Zm3.837.771v-5.246h.936l.063.895c.166-.312.402-.558.708-.739.305-.187.655-.281 1.051-.281.416 0 .773.083 1.072.25.298.167.531.42.697.76.167.333.25.753.25 1.259v3.102h-1.041v-2.998c0-.486-.107-.853-.323-1.103-.215-.25-.527-.375-.936-.375-.271 0-.514.066-.729.198-.215.125-.388.312-.52.562-.125.25-.188.555-.188.916v2.8h-1.04Z"/></g><path fill="#64748B" d="M632.64 327.623v-7.286h2.487c.583 0 1.062.097 1.436.292.375.194.653.454.833.78.18.326.271.698.271 1.114 0 .395-.091.76-.271 1.093-.174.326-.448.589-.822.791-.375.194-.857.291-1.447.291h-1.447v2.925h-1.04Zm1.04-3.789h1.405c.549 0 .937-.118 1.166-.354.236-.243.354-.562.354-.957 0-.423-.118-.75-.354-.978-.229-.229-.617-.344-1.166-.344h-1.405v2.633Zm5.057 3.789v-5.246h.936l.094.989c.118-.236.271-.434.458-.593.187-.167.406-.295.656-.385.256-.091.548-.136.874-.136v1.103h-.375c-.215 0-.42.028-.614.084-.194.048-.368.135-.52.26-.146.125-.26.295-.344.51-.083.215-.125.482-.125.801v2.613h-1.04Zm6.194.124c-.499 0-.944-.114-1.332-.343-.389-.229-.694-.548-.916-.958-.215-.409-.323-.884-.323-1.425 0-.555.108-1.038.323-1.447.222-.416.527-.739.916-.968.388-.236.839-.354 1.353-.354.513 0 .954.115 1.322.344.367.229.652.534.853.916.201.374.302.791.302 1.248 0 .07-.004.146-.01.229 0 .077-.004.163-.011.261h-4.288v-.739h3.268c-.021-.437-.166-.777-.437-1.02-.271-.25-.607-.375-1.009-.375-.285 0-.545.066-.781.198-.236.125-.427.312-.572.562-.139.243-.209.551-.209.926v.292c0 .388.07.718.209.988.145.264.336.465.572.604.236.132.493.198.77.198.333 0 .607-.073.822-.219.215-.146.375-.343.479-.593h1.041c-.09.319-.243.607-.458.864-.215.249-.482.447-.802.593-.312.146-.673.218-1.082.218Zm4.939-.124-1.967-5.246h1.093l1.488 4.246 1.499-4.246h1.072l-1.957 5.246h-1.228Zm4.195 0v-5.246h1.041v5.246h-1.041Zm.531-6.235c-.201 0-.368-.062-.5-.187-.125-.125-.187-.284-.187-.479 0-.187.062-.34.187-.458.132-.125.299-.187.5-.187.194 0 .357.062.489.187.132.118.198.271.198.458 0 .195-.066.354-.198.479s-.295.187-.489.187Zm4.371 6.359c-.499 0-.943-.114-1.332-.343-.389-.229-.694-.548-.916-.958-.215-.409-.323-.884-.323-1.425 0-.555.108-1.038.323-1.447.222-.416.527-.739.916-.968.389-.236.84-.354 1.353-.354s.954.115 1.322.344c.367.229.652.534.853.916.201.374.302.791.302 1.248 0 .07-.003.146-.01.229 0 .077-.004.163-.011.261h-4.288v-.739h3.268c-.021-.437-.166-.777-.437-1.02-.271-.25-.607-.375-1.009-.375-.285 0-.545.066-.781.198-.236.125-.427.312-.572.562-.139.243-.209.551-.209.926v.292c0 .388.07.718.209.988.145.264.336.465.572.604.236.132.493.198.77.198.333 0 .607-.073.822-.219.215-.146.375-.343.479-.593h1.041c-.09.319-.243.607-.458.864-.215.249-.482.447-.801.593-.313.146-.673.218-1.083.218Zm4.513-.124-1.541-5.246h1.031l1.144 4.371-.197-.01 1.269-4.361h1.166l1.27 4.361-.198.01 1.134-4.371h1.052l-1.541 5.246h-1.072l-1.332-4.549h.208l-1.332 4.549h-1.061Z"/><path fill="#fff" d="M528.112 46.3882H701.77v19.0311H528.112z"/><path fill="#334155" d="M570.251 62.9098c-.947 0-1.76-.2165-2.441-.6494-.675-.4377-1.196-1.0562-1.562-1.8555-.362-.8041-.543-1.758-.543-2.8618 0-1.0991.181-2.0387.543-2.819.361-.7803.88-1.3774 1.555-1.7913.681-.4187 1.497-.628 2.448-.628.757 0 1.428.1546 2.013.4638.585.3045 1.056.7185 1.413 1.2418.361.5234.575 1.1062.642 1.7485h-1.834c-.071-.3806-.205-.7208-.4-1.0205-.19-.2998-.442-.5377-.756-.7137-.314-.176-.69-.2641-1.128-.2641-.547 0-1.013.1309-1.399.3926-.38.2569-.673.666-.877 1.2275-.2.5614-.3 1.2893-.3 2.1838 0 1.3559.224 2.3432.671 2.9617.447.6185 1.082.9277 1.905.9277.438 0 .814-.0951 1.128-.2854.314-.1951.566-.452.756-.7708.195-.3235.329-.6756.4-1.0562h1.834c-.057.4663-.176.9135-.357 1.3417-.176.4282-.426.8112-.749 1.149-.324.333-.73.5971-1.22.7922-.486.1903-1.066.2854-1.742.2854Zm7.895-.0357c-.476 0-.857-.0594-1.142-.1784-.286-.1189-.5-.2783-.642-.4781-.143-.1999-.236-.4235-.279-.6709-.043-.2521-.064-.5091-.064-.7707v-8.614h1.699v8.4141c0 .3188.064.5662.192.7423.134.176.348.2783.643.3068l.371.0143v1.0919c-.129.0381-.26.0714-.393.0999-.133.0286-.261.0428-.385.0428Zm5.11.0357c-.704 0-1.318-.1498-1.841-.4496-.523-.3045-.93-.7398-1.22-1.306-.286-.5662-.429-1.2465-.429-2.0411 0-.7707.141-1.4463.421-2.0268.281-.5804.681-1.0324 1.199-1.3559.524-.3236 1.149-.4853 1.877-.4853.704 0 1.316.1546 1.834.4638.519.3093.919.7518 1.199 1.3275.286.5757.429 1.2679.429 2.0767 0 .747-.136 1.4059-.407 1.9769-.267.5662-.659 1.011-1.178 1.3345-.514.3236-1.142.4853-1.884.4853Zm.007-1.3203c.4 0 .728-.1094.985-.3282.262-.2189.457-.5186.585-.8993.129-.3806.193-.8135.193-1.2988 0-.452-.057-.8683-.171-1.2489-.114-.3807-.302-.6852-.564-.9135-.257-.2332-.599-.3497-1.028-.3497-.404 0-.739.107-1.006.3211-.262.2094-.457.5043-.585.885-.129.3758-.193.8112-.193 1.306 0 .4472.057.8635.171 1.2489.115.3806.303.6899.564.9277.262.2332.612.3497 1.049.3497Zm7.72 1.3203c-.361 0-.711-.0523-1.049-.157-.333-.1094-.633-.2664-.899-.471-.267-.2093-.478-.4663-.635-.7708-.157-.3045-.236-.6589-.236-1.0633v-5.0599h1.742v4.8601c0 .3996.126.7279.378.9848.257.2569.642.3854 1.156.3854.466 0 .84-.1213 1.12-.364.281-.2474.421-.6018.421-1.0633v-4.803h1.728v7.3793h-1.335l-.193-1.4416c-.09.4044-.25.7232-.478.9563-.224.2284-.488.3901-.792.4853-.3.0951-.609.1427-.928.1427Zm8.434 0c-.976 0-1.742-.3354-2.298-1.0062-.557-.6709-.835-1.6248-.835-2.8618 0-.7708.112-1.4393.335-2.0054.229-.571.564-1.0111 1.006-1.3203.443-.314.988-.471 1.635-.471.304 0 .58.038.828.1142.252.0713.475.1665.67.2854.196.119.36.2498.493.3925.138.1428.245.2855.321.4282V52.162h1.749v10.6051h-1.285l-.193-1.513c-.062.1761-.15.3616-.264.5567-.109.1903-.259.3687-.449.5352-.186.1665-.419.3021-.7.4068-.281.1047-.618.157-1.013.157Zm.357-1.2774c.623 0 1.077-.2022 1.363-.6067.29-.4091.435-1.0847.435-2.0268-.005-.5376-.071-.9896-.2-1.3559-.123-.3664-.314-.6423-.571-.8279-.257-.1855-.592-.2783-1.006-.2783-.523 0-.954.1927-1.292.5781-.333.3853-.499 1.0134-.499 1.884 0 .866.154 1.5225.464 1.9698.309.4424.744.6637 1.306.6637Zm6.402 1.1347v-6.1518h-1.456v-1.2275h1.456v-1.099c0-.59.162-1.0444.485-1.3631.328-.3188.802-.4782 1.42-.4782h1.556l.007 1.1847h-1.028c-.28 0-.473.0737-.578.2212-.104.1428-.157.3687-.157.678v.8564h1.692v1.2275h-1.663v6.1518h-1.734Zm6.887.107c-.476 0-.857-.0594-1.142-.1784-.286-.1189-.5-.2783-.643-.4781-.142-.1999-.235-.4235-.278-.6709-.043-.2521-.064-.5091-.064-.7707v-8.614h1.698v8.4141c0 .3188.065.5662.193.7423.133.176.347.2783.642.3068l.372.0143v1.0919c-.129.0381-.26.0714-.393.0999-.133.0286-.262.0428-.385.0428Zm4.467.0357c-.471 0-.895-.0856-1.27-.2569-.371-.176-.664-.4258-.878-.7493-.21-.3283-.314-.7256-.314-1.1919 0-.8135.292-1.4273.878-1.8412.59-.4139 1.527-.6304 2.811-.6495l1.107-.0285v-.4996c0-.3901-.117-.6946-.35-.9135-.228-.2236-.585-.333-1.071-.3282-.361.0047-.689.0904-.984.2569-.295.1617-.49.4353-.586.8207h-1.477c.029-.5043.174-.9254.435-1.2632.267-.3426.631-.5971 1.092-.7636.462-.1713.995-.2569 1.599-.2569.704 0 1.277.0927 1.72.2783.442.1855.768.4544.978.8064.209.3474.314.7684.314 1.2632v5.1741h-1.463l-.143-1.3274c-.262.5566-.597.942-1.006 1.1561-.405.2094-.869.314-1.392.314Zm.564-1.1775c.214 0 .426-.0381.635-.1142.209-.0809.397-.1879.564-.3212.171-.1379.307-.2902.406-.4567.105-.1665.16-.3402.165-.521v-1.1633l-.907.0143c-.447.0048-.839.0524-1.177.1428-.333.0904-.593.2355-.778.4353-.186.1951-.279.4567-.279.785 0 .3759.131.6709.393.885.262.2093.588.314.978.314Zm5.289 1.0348v-7.3793h1.663v1.5986c.119-.3663.288-.678.507-.9349.223-.2617.485-.4615.785-.5995.299-.1379.625-.2069.977-.2069.086 0 .169.0047.25.0142.081.0096.14.0262.178.05v1.6628c-.052-.0238-.121-.0404-.206-.0499-.081-.0095-.153-.0143-.215-.0143-.356-.0285-.673-.0143-.949.0428-.271.0571-.502.1547-.692.2926-.186.1332-.326.3045-.421.5139-.095.2045-.143.4448-.143.7208v4.2891h-1.734Zm8.948.1427c-.708 0-1.334-.1498-1.876-.4496-.538-.3045-.959-.7374-1.264-1.2989-.299-.5614-.449-1.2298-.449-2.0054 0-.7564.135-1.4273.407-2.0125.275-.59.673-1.0538 1.191-1.3916.524-.3378 1.154-.5067 1.892-.5067.727 0 1.339.1546 1.834.4638.494.3093.87.7423 1.127 1.2989.257.5519.386 1.199.386 1.9412v.5281h-5.103c-.005.4187.062.7898.2 1.1133s.342.5781.614.7636c.271.1808.606.2712 1.006.2712.409 0 .763-.0904 1.063-.2712.305-.1855.507-.4662.607-.8421h1.584c-.086.5138-.29.9492-.614 1.306-.318.3568-.709.628-1.17.8136-.457.1855-.935.2783-1.435.2783Zm-1.862-4.5103h3.468c0-.3569-.064-.678-.192-.9635-.124-.2902-.312-.5186-.564-.6851-.252-.1713-.571-.2569-.957-.2569-.38 0-.701.0928-.963.2783-.262.1856-.459.4258-.592.7208-.134.2902-.2.5923-.2.9064Zm12.165 4.5103c-.471 0-.895-.0856-1.271-.2569-.371-.176-.663-.4258-.877-.7493-.21-.3283-.314-.7256-.314-1.1919 0-.8135.292-1.4273.877-1.8412.59-.4139 1.528-.6304 2.812-.6495l1.106-.0285v-.4996c0-.3901-.116-.6946-.349-.9135-.229-.2236-.586-.333-1.071-.3282-.361.0047-.69.0904-.985.2569-.295.1617-.49.4353-.585.8207H640.5c.028-.5043.173-.9254.435-1.2632.267-.3426.631-.5971 1.092-.7636.462-.1713.994-.2569 1.599-.2569.704 0 1.277.0927 1.72.2783.442.1855.768.4544.977.8064.21.3474.314.7684.314 1.2632v5.1741h-1.463l-.142-1.3274c-.262.5566-.598.942-1.007 1.1561-.404.2094-.868.314-1.391.314Zm.563-1.1775c.215 0 .426-.0381.636-.1142.209-.0809.397-.1879.563-.3212.172-.1379.307-.2902.407-.4567.105-.1665.16-.3402.164-.521v-1.1633l-.906.0143c-.447.0048-.84.0524-1.178.1428-.333.0904-.592.2355-.777.4353-.186.1951-.279.4567-.279.785 0 .3759.131.6709.393.885.261.2093.587.314.977.314Zm8.387 1.1775c-.676 0-1.277-.1475-1.806-.4424-.523-.2998-.934-.7327-1.234-1.2989-.3-.571-.45-1.2584-.45-2.0625 0-.766.141-1.4369.421-2.0125.286-.5805.688-1.0325 1.206-1.356.524-.3283 1.145-.4924 1.863-.4924.576 0 1.082.1142 1.52.3425.438.2284.788.5448 1.049.9492.267.4044.426.8635.478 1.3774h-1.477c-.038-.2236-.121-.4354-.25-.6352-.128-.2046-.302-.3687-.521-.4924-.214-.1285-.475-.1927-.785-.1927-.556 0-1.006.2046-1.349.6137-.342.4092-.513 1.0372-.513 1.8841 0 .7803.161 1.4012.485 1.8627.328.4615.797.6922 1.406.6922.304 0 .566-.0666.785-.1998.219-.138.39-.3069.514-.5067.128-.2046.209-.4092.242-.6137h1.442c-.043.4995-.198.9444-.464 1.3345s-.618.697-1.056.9206c-.438.2189-.94.3283-1.506.3283Zm7.764 0c-.676 0-1.278-.1475-1.806-.4424-.523-.2998-.935-.7327-1.234-1.2989-.3-.571-.45-1.2584-.45-2.0625 0-.766.14-1.4369.421-2.0125.286-.5805.688-1.0325 1.206-1.356.524-.3283 1.144-.4924 1.863-.4924.576 0 1.082.1142 1.52.3425.438.2284.787.5448 1.049.9492.267.4044.426.8635.478 1.3774h-1.477c-.038-.2236-.121-.4354-.25-.6352-.128-.2046-.302-.3687-.521-.4924-.214-.1285-.476-.1927-.785-.1927-.556 0-1.006.2046-1.349.6137-.342.4092-.513 1.0372-.513 1.8841 0 .7803.161 1.4012.485 1.8627.328.4615.797.6922 1.406.6922.304 0 .566-.0666.785-.1998.219-.138.39-.3069.514-.5067.128-.2046.209-.4092.242-.6137h1.442c-.043.4995-.198.9444-.464 1.3345s-.619.697-1.056.9206c-.438.2189-.94.3283-1.506.3283Zm7.764 0c-.704 0-1.318-.1498-1.841-.4496-.524-.3045-.931-.7398-1.221-1.306-.285-.5662-.428-1.2465-.428-2.0411 0-.7707.14-1.4463.421-2.0268.281-.5804.68-1.0324 1.199-1.3559.523-.3236 1.149-.4853 1.877-.4853.704 0 1.315.1546 1.834.4638.519.3093.918.7518 1.199 1.3275.285.5757.428 1.2679.428 2.0767 0 .747-.135 1.4059-.407 1.9769-.266.5662-.659 1.011-1.177 1.3345-.514.3236-1.142.4853-1.884.4853Zm.007-1.3203c.4 0 .728-.1094.985-.3282.261-.2189.457-.5186.585-.8993.128-.3806.193-.8135.193-1.2988 0-.452-.057-.8683-.172-1.2489-.114-.3807-.302-.6852-.563-.9135-.257-.2332-.6-.3497-1.028-.3497-.404 0-.74.107-1.006.3211-.262.2094-.457.5043-.586.885-.128.3758-.192.8112-.192 1.306 0 .4472.057.8635.171 1.2489.114.3806.302.6899.564.9277.262.2332.611.3497 1.049.3497Zm7.72 1.3203c-.362 0-.712-.0523-1.049-.157-.333-.1094-.633-.2664-.9-.471-.266-.2093-.478-.4663-.635-.7708-.157-.3045-.235-.6589-.235-1.0633v-5.0599h1.741v4.8601c0 .3996.126.7279.378.9848.257.2569.643.3854 1.157.3854.466 0 .839-.1213 1.12-.364.281-.2474.421-.6018.421-1.0633v-4.803h1.727v7.3793h-1.334l-.193-1.4416c-.091.4044-.25.7232-.478.9563-.224.2284-.488.3901-.792.4853-.3.0951-.609.1427-.928.1427Zm5.763-.1427v-7.3793h1.698v1.0562c.114-.1903.269-.3735.464-.5495.2-.176.445-.3188.735-.4282.29-.1094.63-.1641 1.021-.1641.456 0 .88.0904 1.27.2712.395.1807.711.4638.949.8492.243.3854.364.8826.364 1.4916v4.8529h-1.741v-4.646c0-.4853-.133-.8445-.4-1.0776-.266-.2379-.602-.3568-1.006-.3568-.276 0-.538.0475-.785.1427-.248.0904-.45.2308-.607.4211-.152.1855-.228.4186-.228.6994v4.8172h-1.734Zm11.032.0571c-.585 0-1.04-.0761-1.363-.2284-.319-.157-.54-.3782-.664-.6637s-.186-.6256-.186-1.0205v-4.2963h-1.198v-1.2275h1.248l.436-2.191h1.249v2.1839h1.648v1.2346h-1.648l.007 4.232c0 .2189.024.3807.071.4853.053.0999.133.1665.243.1999.114.0285.264.0428.449.0428h.914v1.099c-.1.0381-.247.0714-.443.0999-.19.0333-.444.05-.763.05Z"/><g clip-path="url(#n)"><path fill="#334155" d="M551.613 61.8952c.146-.5023.09-.9621-.154-1.3038-.223-.3136-.6-.4946-1.053-.5159l-8.583-.1113c-.026.0004-.052-.0059-.075-.0183-.023-.0123-.042-.0304-.057-.0524-.028-.0416-.034-.0977-.02-.1539.027-.0833.111-.1471.201-.1549l8.659-.1113c1.026-.0484 2.141-.879 2.532-1.8967l.494-1.2899c.022-.0556.029-.1118.015-.1665-.558-2.5239-2.81-4.4062-5.501-4.4062-2.482 0-4.588 1.6035-5.34 3.8274-.489-.3625-1.109-.5575-1.779-.4946-1.192.118-2.147 1.0735-2.266 2.2655-.028.3073-.007.6074.063.8861-1.945.0554-3.5 1.6456-3.5 3.6048 0 .1733.014.3485.035.5227.014.0823.084.1462.167.1462h15.841c.09 0 .174-.0639.202-.1539l.119-.4231Zm2.732-5.5144c-.076 0-.16 0-.236.0111-.056 0-.105.0411-.126.0967l-.335 1.1641c-.146.5023-.091.9622.153 1.3048.224.3136.6.4936 1.053.5149l1.828.1123c.055 0 .104.0261.131.0697.029.0426.035.1065.022.1548-.028.0833-.113.1472-.203.154l-1.904.1113c-1.031.0484-2.139.8789-2.53 1.8972l-.139.3553c-.028.0707.021.1404.098.1404h6.539c.077 0 .146-.0485.168-.1249.111-.4046.174-.8297.174-1.2691 0-2.5796-2.106-4.6854-4.693-4.6854"/></g><path fill="#fff" d="M586.077 114.73h58.42c3.466 0 6.275 2.81 6.275 6.276v8.714c0 3.465-2.809 6.275-6.275 6.275h-58.42c-3.466 0-6.275-2.81-6.275-6.275v-8.714c0-3.466 2.809-6.276 6.275-6.276Z"/><path stroke="#CBD5E1" stroke-width="1.08821" d="M586.077 114.73h58.42c3.466 0 6.275 2.81 6.275 6.276v8.714c0 3.465-2.809 6.275-6.275 6.275h-58.42c-3.466 0-6.275-2.81-6.275-6.275v-8.714c0-3.466 2.809-6.276 6.275-6.276Z"/><path fill="#0F172A" d="M586.74 129.363v-9.141h2.808c1.062 0 1.941.187 2.638.561.696.375 1.21.906 1.541 1.593.339.68.509 1.489.509 2.429 0 .941-.17 1.75-.509 2.429-.331.679-.845 1.206-1.541 1.58-.688.366-1.567.549-2.638.549h-2.808Zm1.306-1.097h1.45c.844 0 1.515-.139 2.011-.418.496-.279.849-.675 1.057-1.188.218-.523.327-1.141.327-1.855 0-.722-.109-1.345-.327-1.867-.208-.522-.561-.923-1.057-1.201-.496-.279-1.167-.418-2.011-.418h-1.45v6.947Zm9.877 1.253c-.54 0-.988-.091-1.345-.274-.357-.183-.623-.426-.797-.731-.174-.313-.261-.649-.261-1.006 0-.435.113-.805.34-1.109.226-.314.548-.553.966-.719.418-.165.918-.248 1.502-.248h1.71c0-.383-.056-.701-.169-.953-.114-.253-.283-.44-.51-.562-.217-.13-.496-.195-.835-.195-.392 0-.727.095-1.006.287-.279.183-.453.457-.522.822h-1.306c.052-.461.209-.853.47-1.175.27-.331.614-.583 1.032-.757.417-.183.861-.274 1.332-.274.618 0 1.136.108 1.554.326.417.218.731.527.94.927.217.392.326.862.326 1.411v4.074h-1.136l-.104-1.11c-.096.174-.209.339-.34.496-.13.157-.287.292-.47.405-.174.113-.379.2-.614.261-.226.07-.479.104-.757.104Zm.248-1.057c.279 0 .531-.057.757-.17.227-.113.418-.266.575-.457.165-.2.287-.422.366-.666.087-.253.135-.509.143-.77v-.04h-1.554c-.374 0-.679.048-.914.144-.226.087-.392.209-.496.366-.105.156-.157.339-.157.548 0 .218.048.405.144.562.104.148.252.265.444.352.191.087.422.131.692.131Zm7.416.901c-.418 0-.779-.065-1.084-.196-.305-.131-.54-.348-.705-.653-.166-.305-.248-.718-.248-1.241v-3.382h-1.136v-1.11h1.136l.156-1.645h1.15v1.645h1.867v1.11h-1.867v3.395c0 .375.078.632.235.771.156.131.426.196.809.196h.758v1.11h-1.071Zm4.757.156c-.54 0-.988-.091-1.345-.274-.357-.183-.623-.426-.797-.731-.174-.313-.261-.649-.261-1.006 0-.435.113-.805.34-1.109.226-.314.548-.553.966-.719.418-.165.918-.248 1.502-.248h1.71c0-.383-.056-.701-.169-.953-.114-.253-.283-.44-.51-.562-.217-.13-.496-.195-.836-.195-.391 0-.726.095-1.005.287-.279.183-.453.457-.522.822h-1.306c.052-.461.209-.853.47-1.175.27-.331.614-.583 1.032-.757.417-.183.861-.274 1.331-.274.619 0 1.137.108 1.554.326.418.218.732.527.941.927.217.392.326.862.326 1.411v4.074h-1.136l-.104-1.11c-.096.174-.209.339-.34.496-.131.157-.287.292-.47.405-.174.113-.379.2-.614.261-.226.07-.479.104-.757.104Zm.248-1.057c.278 0 .531-.057.757-.17.227-.113.418-.266.575-.457.165-.2.287-.422.366-.666.087-.253.134-.509.143-.77v-.04h-1.554c-.374 0-.679.048-.914.144-.226.087-.392.209-.496.366-.105.156-.157.339-.157.548 0 .218.048.405.144.562.104.148.252.265.444.352.191.087.422.131.692.131Zm8.431 1.057c-.357 0-.683-.052-.979-.156-.288-.096-.54-.231-.758-.405-.217-.174-.4-.374-.548-.601l-.131 1.006h-1.175v-9.402h1.306v3.852c.209-.331.5-.609.875-.836.383-.235.853-.352 1.41-.352.627 0 1.18.152 1.658.457.479.296.849.705 1.11 1.227.27.514.405 1.106.405 1.776 0 .653-.135 1.241-.405 1.763-.261.522-.631.932-1.11 1.228-.478.295-1.031.443-1.658.443Zm-.209-1.136c.401 0 .753-.095 1.058-.287.313-.191.557-.461.731-.81.183-.348.274-.753.274-1.214 0-.461-.091-.862-.274-1.201-.174-.349-.418-.618-.731-.81-.305-.2-.657-.3-1.058-.3-.409 0-.77.1-1.084.3-.304.192-.544.461-.718.81-.174.339-.261.74-.261 1.201 0 .461.087.866.261 1.214.174.349.414.619.718.81.314.192.675.287 1.084.287Zm7.088 1.136c-.54 0-.988-.091-1.345-.274-.357-.183-.623-.426-.797-.731-.174-.313-.261-.649-.261-1.006 0-.435.113-.805.34-1.109.226-.314.548-.553.966-.719.418-.165.918-.248 1.502-.248h1.71c0-.383-.056-.701-.169-.953-.114-.253-.283-.44-.51-.562-.217-.13-.496-.195-.835-.195-.392 0-.727.095-1.006.287-.279.183-.453.457-.522.822h-1.306c.052-.461.209-.853.47-1.175.27-.331.614-.583 1.032-.757.417-.183.861-.274 1.332-.274.618 0 1.136.108 1.553.326.418.218.732.527.941.927.217.392.326.862.326 1.411v4.074h-1.136l-.104-1.11c-.096.174-.209.339-.34.496-.13.157-.287.292-.47.405-.174.113-.379.2-.614.261-.226.07-.479.104-.757.104Zm.248-1.057c.279 0 .531-.057.757-.17.227-.113.418-.266.575-.457.165-.2.287-.422.366-.666.087-.253.134-.509.143-.77v-.04h-1.554c-.374 0-.679.048-.914.144-.226.087-.392.209-.496.366-.105.156-.157.339-.157.548 0 .218.048.405.144.562.104.148.252.265.444.352.191.087.422.131.692.131Zm7.386 1.057c-.557 0-1.044-.091-1.462-.274-.418-.183-.749-.439-.993-.77-.243-.331-.391-.718-.444-1.162h1.332c.044.209.127.4.248.574.131.174.305.314.523.418.226.105.492.157.796.157.288 0 .523-.039.706-.118.191-.087.33-.2.417-.339.087-.148.131-.305.131-.47 0-.244-.061-.427-.183-.549-.113-.13-.287-.231-.522-.3-.226-.079-.501-.148-.823-.209-.305-.052-.601-.122-.888-.209-.278-.096-.531-.213-.757-.353-.218-.139-.392-.313-.523-.522-.13-.218-.195-.483-.195-.797 0-.374.1-.709.3-1.005.2-.305.483-.54.849-.705.374-.174.814-.261 1.319-.261.731 0 1.319.174 1.763.522.444.348.705.84.783 1.476h-1.267c-.034-.296-.165-.523-.391-.68-.227-.165-.527-.248-.901-.248-.375 0-.662.074-.862.222-.201.148-.301.344-.301.588 0 .157.057.296.17.418.113.122.279.226.496.313.227.079.501.153.823.222.461.087.875.196 1.241.327.365.13.657.322.875.574.217.253.326.614.326 1.084.009.409-.096.771-.313 1.084-.209.313-.51.557-.901.731-.384.174-.841.261-1.372.261Zm7.101 0c-.627 0-1.184-.143-1.672-.43-.487-.288-.87-.688-1.149-1.202-.27-.513-.405-1.11-.405-1.789 0-.696.135-1.301.405-1.815.279-.522.662-.927 1.149-1.214.488-.296 1.054-.444 1.698-.444.644 0 1.197.143 1.658.431.462.287.819.67 1.071 1.149.253.47.379.992.379 1.567 0 .087-.004.183-.013.287 0 .096-.004.205-.013.326h-5.38v-.927h4.1c-.026-.548-.209-.975-.548-1.279-.34-.314-.762-.471-1.267-.471-.357 0-.683.083-.979.249-.296.156-.536.391-.719.705-.174.304-.261.692-.261 1.162v.366c0 .487.087.901.261 1.24.183.331.423.583.719.758.296.165.618.248.966.248.418 0 .762-.092 1.031-.275.27-.182.471-.431.601-.744h1.306c-.113.401-.305.762-.575 1.084-.269.313-.605.561-1.005.744-.392.183-.844.274-1.358.274Z"/><g clip-path="url(#o)"><rect width="191.5" height="40.441" x="261.082" y="175.443" fill="#F8FAFC" rx="6.97642"/><rect width="191.5" height="40.441" x="261.082" y="175.443" fill="url(#p)" fill-opacity=".08" rx="6.97642"/><rect width="191.5" height="40.441" x="261.082" y="175.443" stroke="#E2E8F0" stroke-width="1.18944" rx="6.97642"/><rect width="191.5" height="40.441" x="261.082" y="175.443" stroke="url(#q)" stroke-opacity=".32" stroke-width="1.18944" rx="6.97642"/><rect width="191.5" height="40.441" x="261.082" y="175.443" stroke="url(#r)" stroke-opacity=".32" stroke-width="1.18944" rx="6.97642"/><path fill="#64748B" d="m283.481 196.704-5.352 4.757c-.059.052-.127.092-.201.118-.074.025-.152.036-.23.031-.079-.004-.155-.025-.225-.059-.071-.034-.134-.082-.185-.14-.052-.059-.092-.127-.118-.201-.025-.074-.036-.152-.031-.231.005-.078.025-.154.059-.224.034-.071.082-.134.14-.186l4.856-4.311-4.855-4.312c-.058-.052-.106-.115-.14-.185-.035-.071-.055-.147-.059-.225-.005-.078.006-.156.031-.23.026-.074.065-.143.117-.201.052-.059.115-.107.185-.141.071-.034.147-.054.225-.059.078-.005.157.006.231.032.074.025.142.065.2.117l5.353 4.758c.063.055.114.124.149.201.034.077.052.16.052.245 0 .084-.018.167-.052.244-.035.077-.086.146-.149.202h-.001Zm7.337 3.717h-7.137c-.158 0-.309.062-.42.174-.112.111-.175.263-.175.42 0 .158.063.309.175.421.111.112.262.174.42.174h7.137c.158 0 .309-.062.42-.174.112-.112.175-.263.175-.421 0-.157-.063-.309-.175-.42-.111-.112-.262-.174-.42-.174Z"/><path fill="#334155" d="M306.778 200.984v-7.379h1.278v1.071c.119-.205.283-.398.492-.578.214-.181.471-.326.771-.436.305-.109.654-.164 1.049-.164.466 0 .895.093 1.285.278.395.186.709.476.942.871.238.39.357.894.357 1.513v4.824h-1.321v-4.696c0-.575-.152-1.001-.456-1.277-.3-.281-.69-.421-1.171-.421-.333 0-.644.055-.935.164-.29.105-.525.267-.706.485-.181.214-.271.486-.271.814v4.931h-1.314Zm10.95.143c-.385-.005-.749-.059-1.092-.164-.338-.109-.637-.269-.899-.478-.262-.21-.469-.469-.621-.778-.147-.314-.221-.678-.221-1.092v-5.01h1.32v4.874c0 .481.148.871.443 1.171.299.3.749.449 1.348.449.543 0 .978-.14 1.306-.421.334-.285.5-.709.5-1.27v-4.803h1.313v7.379h-1.049l-.135-1.413c-.091.371-.246.671-.464.9-.214.228-.474.397-.778.506-.3.105-.624.155-.971.15Zm4.926-.143 2.84-3.832-2.612-3.547h1.434l1.92 2.591 1.92-2.591h1.442l-2.627 3.547 2.841 3.832h-1.435l-2.148-2.89-2.134 2.89h-1.441Zm11.069.036c-.509 0-.904-.069-1.185-.207-.281-.138-.478-.342-.592-.614-.11-.271-.164-.604-.164-.999v-4.631h-1.199v-.964h1.234l.321-2.148h.971v2.141h1.663v.971h-1.663v4.588c0 .262.026.455.078.578.058.119.15.196.279.229.128.033.309.05.542.05h.807v.885c-.091.033-.229.062-.414.085-.181.024-.407.036-.678.036Zm8.823.107c-.961 0-1.723-.328-2.284-.985-.557-.656-.835-1.615-.835-2.876 0-.766.112-1.434.335-2.005.224-.571.559-1.014 1.007-1.328.447-.314 1.003-.471 1.67-.471.356 0 .67.046.942.136.271.09.506.205.706.343.2.137.362.28.485.428.129.147.224.283.286.406v-4.396h1.334v10.605h-1.013l-.143-1.513c-.047.143-.123.31-.228.5-.105.186-.252.369-.443.549-.185.177-.428.322-.727.436-.3.114-.664.171-1.092.171Zm.235-1.013c.742 0 1.273-.226 1.592-.678.323-.457.485-1.202.485-2.234-.005-.576-.076-1.066-.214-1.47-.138-.405-.357-.711-.657-.921-.295-.214-.69-.321-1.184-.321-.605 0-1.097.217-1.478.649-.38.433-.571 1.121-.571 2.063 0 .923.172 1.639.514 2.148.343.509.847.764 1.513.764Zm8.709 1.013c-.685 0-1.289-.15-1.812-.45-.524-.299-.933-.73-1.228-1.291-.295-.562-.442-1.235-.442-2.02 0-.775.133-1.456.399-2.041.267-.585.652-1.042 1.157-1.37.509-.329 1.12-.493 1.834-.493.694 0 1.282.15 1.762.45.481.3.845.723 1.092 1.27.252.543.379 1.187.379 1.934v.486h-5.289c0 .466.076.889.229 1.27.157.376.392.676.706.899.314.224.711.336 1.192.336.471 0 .875-.11 1.213-.329.343-.219.562-.535.657-.949h1.242c-.086.5-.286.921-.6 1.263-.309.343-.683.602-1.12.778-.433.171-.89.257-1.371.257Zm-2.141-4.417h4.011c0-.424-.071-.805-.214-1.142-.143-.343-.361-.612-.656-.807-.291-.2-.657-.3-1.1-.3-.461 0-.844.112-1.149.336-.304.219-.53.502-.677.849-.148.343-.219.697-.215 1.064Zm8.88 4.274-2.669-7.379h1.242l1.963 5.724h.121l1.97-5.724h1.234l-2.654 7.379h-1.207Zm10.384-3.161v-1.035l3.618-.014v1.042l-3.618.007Zm5.394 0v-1.035l3.618-.014v1.042l-3.618.007Zm5.601 3.161v-7.379h1.257v1.42c.123-.352.297-.642.52-.87.224-.234.479-.407.764-.521.29-.115.59-.172.899-.172.11 0 .217.007.321.022.105.014.186.038.243.071v1.278c-.071-.034-.164-.055-.278-.065-.11-.014-.202-.021-.279-.021-.295-.019-.57 0-.827.057-.257.052-.483.145-.678.278-.195.134-.35.31-.464.528-.11.215-.164.476-.164.786v4.588h-1.314Zm8.583.143c-.685 0-1.289-.15-1.813-.45-.523-.299-.932-.73-1.227-1.291-.295-.562-.443-1.235-.443-2.02 0-.775.134-1.456.4-2.041.267-.585.652-1.042 1.156-1.37.509-.329 1.121-.493 1.834-.493.695 0 1.283.15 1.763.45.481.3.845.723 1.092 1.27.252.543.378 1.187.378 1.934v.486h-5.288c0 .466.076.889.228 1.27.157.376.393.676.707.899.314.224.711.336 1.192.336.471 0 .875-.11 1.213-.329.343-.219.561-.535.657-.949h1.241c-.085.5-.285.921-.599 1.263-.309.343-.683.602-1.121.778-.433.171-.889.257-1.37.257Zm-2.141-4.417h4.011c0-.424-.071-.805-.214-1.142-.143-.343-.362-.612-.657-.807-.29-.2-.656-.3-1.099-.3-.461 0-.844.112-1.149.336-.304.219-.53.502-.678.849-.147.343-.219.697-.214 1.064Zm7.107 4.274v-7.379h1.27v1.071c.205-.324.486-.607.842-.85.357-.242.821-.364 1.392-.364.266 0 .538.046.814.136.28.09.537.226.77.407.233.181.414.402.543.663.228-.361.537-.651.928-.87.39-.224.83-.336 1.32-.336.257 0 .526.041.806.122.281.076.54.214.778.414.243.195.44.468.592.82.153.348.229.795.229 1.342v4.824h-1.328v-4.696c0-.447-.071-.792-.214-1.034-.142-.248-.33-.421-.563-.521-.229-.1-.474-.15-.736-.15-.228 0-.471.045-.727.135-.257.091-.476.243-.657.457-.181.214-.271.507-.271.878v4.931h-1.313v-5.081c0-.29-.079-.533-.236-.728-.152-.195-.345-.342-.578-.442-.228-.1-.457-.15-.685-.15-.252 0-.507.05-.764.15-.252.1-.466.259-.642.478-.171.214-.257.495-.257.842v4.931h-1.313Zm15.304.143c-.68 0-1.275-.145-1.784-.435-.504-.295-.897-.726-1.177-1.292-.281-.566-.422-1.258-.422-2.077 0-.77.131-1.446.393-2.027.262-.58.645-1.03 1.149-1.348.504-.324 1.12-.486 1.848-.486.681 0 1.271.15 1.77.45.5.295.888.73 1.164 1.306.28.576.421 1.277.421 2.105 0 .752-.129 1.413-.386 1.984s-.635 1.018-1.134 1.342c-.495.319-1.109.478-1.842.478Zm.007-1.042c.438 0 .809-.112 1.114-.335.304-.224.535-.545.692-.964.162-.418.243-.916.243-1.491 0-.528-.072-1.002-.214-1.42-.138-.424-.357-.759-.657-1.007-.3-.247-.692-.371-1.178-.371-.447 0-.825.112-1.134.336-.31.218-.545.537-.707.956-.157.419-.235.921-.235 1.506 0 .518.069.989.207 1.413.142.423.366.759.67 1.006.31.247.709.371 1.199.371Zm7.479.935c-.509 0-.903-.069-1.184-.207-.281-.138-.478-.342-.593-.614-.109-.271-.164-.604-.164-.999v-4.631h-1.199v-.964h1.235l.321-2.148h.971v2.141h1.663v.971h-1.663v4.588c0 .262.026.455.078.578.057.119.15.196.279.229.128.033.309.05.542.05h.806v.885c-.09.033-.228.062-.414.085-.18.024-.406.036-.678.036Zm5.767.107c-.685 0-1.289-.15-1.813-.45-.523-.299-.932-.73-1.227-1.291-.295-.562-.443-1.235-.443-2.02 0-.775.133-1.456.4-2.041.266-.585.652-1.042 1.156-1.37.509-.329 1.12-.493 1.834-.493.695 0 1.282.15 1.763.45.48.3.844.723 1.092 1.27.252.543.378 1.187.378 1.934v.486h-5.288c0 .466.076.889.228 1.27.157.376.393.676.707.899.314.224.711.336 1.191.336.471 0 .876-.11 1.214-.329.342-.219.561-.535.656-.949h1.242c-.086.5-.285.921-.599 1.263-.31.343-.683.602-1.121.778-.433.171-.89.257-1.37.257Zm-2.141-4.417h4.011c0-.424-.072-.805-.214-1.142-.143-.343-.362-.612-.657-.807-.29-.2-.657-.3-1.099-.3-.462 0-.845.112-1.149.336-.305.219-.531.502-.678.849-.147.343-.219.697-.214 1.064Z"/></g></g><defs><linearGradient id="b" x1="152.844" x2="264.949" y1="195.365" y2="195.365" gradientUnits="userSpaceOnUse"><stop stop-color="#94A3B8" stop-opacity="0"/><stop offset="1" stop-color="#94A3B8"/></linearGradient><linearGradient id="c" x1="561.118" x2="449.013" y1="195.365" y2="195.365" gradientUnits="userSpaceOnUse"><stop stop-color="#94A3B8" stop-opacity="0"/><stop offset="1" stop-color="#94A3B8"/></linearGradient><linearGradient id="d" x1="127.27" x2="127.27" y1="107.793" y2="132.325" gradientUnits="userSpaceOnUse"><stop stop-color="#fff"/><stop offset="1" stop-color="#F1F5F9"/></linearGradient><linearGradient id="e" x1="127.27" x2="127.27" y1="179.16" y2="203.692" gradientUnits="userSpaceOnUse"><stop stop-color="#fff"/><stop offset="1" stop-color="#F1F5F9"/></linearGradient><linearGradient id="f" x1="127.27" x2="127.27" y1="251.716" y2="276.248" gradientUnits="userSpaceOnUse"><stop stop-color="#fff"/><stop offset="1" stop-color="#F1F5F9"/></linearGradient><linearGradient id="h" x1="546.41" x2="546.41" y1="102.196" y2="147.975" gradientUnits="userSpaceOnUse"><stop stop-color="#fff"/><stop offset="1" stop-color="#F1F5F9"/></linearGradient><linearGradient id="j" x1="546.41" x2="546.41" y1="172.373" y2="218.152" gradientUnits="userSpaceOnUse"><stop stop-color="#fff"/><stop offset="1" stop-color="#F1F5F9"/></linearGradient><linearGradient id="l" x1="546.41" x2="546.41" y1="244.929" y2="290.708" gradientUnits="userSpaceOnUse"><stop stop-color="#fff"/><stop offset="1" stop-color="#F1F5F9"/></linearGradient><linearGradient id="p" x1="332.502" x2="330.393" y1="174.848" y2="207.378" gradientUnits="userSpaceOnUse"><stop stop-color="#E2E8F0"/><stop offset="1" stop-color="#E2E8F0" stop-opacity="0"/></linearGradient><linearGradient id="q" x1="438.903" x2="459.124" y1="196.258" y2="170.09" gradientUnits="userSpaceOnUse"><stop stop-color="#475569" stop-opacity="0"/><stop offset="1" stop-color="#475569"/></linearGradient><linearGradient id="r" x1="284.276" x2="260.487" y1="196.258" y2="162.359" gradientUnits="userSpaceOnUse"><stop stop-color="#475569" stop-opacity="0"/><stop offset="1" stop-color="#475569"/></linearGradient><clipPath id="a"><path fill="#fff" d="M38.0625 38.062h689.876v300.929H38.0625z"/></clipPath><clipPath id="g"><path fill="#fff" d="M523.354 102.292h45.8948v45.8948H523.354z"/></clipPath><clipPath id="i"><path fill="#fff" d="M523.354 172.469h45.8948v45.8948H523.354z"/></clipPath><clipPath id="k"><path fill="#fff" d="M523.354 245.025h45.8948v45.8948H523.354z"/></clipPath><clipPath id="n"><path fill="#fff" d="M535.249 45.1987h23.7888v23.7888H535.249z"/></clipPath><clipPath id="o"><path fill="#fff" d="M260.487 174.848h192.689v41.6304H260.487z"/></clipPath><filter id="m" width="75.8154" height="26.7624" x="548.63" y="311.485" color-interpolation-filters="sRGB" filterUnits="userSpaceOnUse"><feFlood flood-opacity="0" result="BackgroundImageFix"/><feColorMatrix in="SourceAlpha" result="hardAlpha" values="0 0 0 0 0 0 0 0 0 0 0 0 0 0 0 0 0 0 127 0"/><feOffset dy=".743401"/><feGaussianBlur stdDeviation=".743401"/><feColorMatrix values="0 0 0 0 0 0 0 0 0 0 0 0 0 0 0 0 0 0 0.05 0"/><feBlend in2="BackgroundImageFix" result="effect1_dropShadow_1227_3617"/><feBlend in="SourceGraphic" in2="effect1_dropShadow_1227_3617" result="shape"/></filter></defs></svg>
