<svg xmlns="http://www.w3.org/2000/svg" fill="none" viewBox="0 0 582 310"><g clip-path="url(#a)"><rect width="579.916" height="292.064" x=".804688" fill="url(#b)" rx="7.02078"/><rect width="579.916" height="292.064" x=".804688" fill="url(#c)" fill-opacity=".52" rx="7.02078"/><rect width="579.916" height="292.064" x=".804688" fill="url(#d)" fill-opacity=".08" rx="7.02078"/><rect width="578.777" height="290.925" x="1.37431" y=".56962" stroke="url(#e)" stroke-opacity=".4" stroke-width="1.13924" rx="6.45116"/><path fill="url(#f)" d="M358.796 31.1334V36h-.59v-4.2487h-.028l-1.188.7889v-.5988l1.216-.808h.59ZM356.144 46v-.4277l1.606-1.7585c.189-.2059.344-.3849.466-.537.122-.1537.212-.2978.271-.4325.06-.1362.09-.2788.09-.4277 0-.1711-.041-.3192-.124-.4444-.08-.1251-.191-.2217-.332-.2899-.141-.0681-.3-.1021-.476-.1021-.186 0-.35.0388-.489.1164-.138.076-.245.183-.321.3208-.074.1378-.112.2994-.112.4847h-.56c0-.2851.065-.5354.197-.7508.131-.2155.31-.3834.537-.5038.228-.1204.484-.1806.767-.1806.286 0 .538.0602.758.1806.221.1204.393.2828.519.4871.125.2044.187.4317.187.682 0 .179-.032.3541-.097.5252-.064.1695-.174.3588-.333.5679-.157.2075-.375.461-.653.7604l-1.093 1.1691v.038h2.262V46h-3.07Zm1.435 9.0665c-.314 0-.593-.0538-.839-.1616-.244-.1077-.438-.2574-.582-.4491-.143-.1932-.22-.4174-.233-.6724h.599c.013.1568.066.2922.161.4063.095.1125.22.1996.374.2614.153.0618.323.0927.51.0927.21 0 .395-.0365.556-.1093.162-.0729.289-.1743.381-.3042.092-.1299.137-.2804.137-.4515 0-.179-.044-.3366-.133-.4729-.088-.1378-.218-.2455-.389-.3231-.171-.0777-.381-.1165-.628-.1165h-.389v-.5228h.389c.194 0 .363-.0348.509-.1045.147-.0697.262-.1679.344-.2947.084-.1267.126-.2756.126-.4467 0-.1648-.036-.3081-.109-.4301-.073-.122-.176-.217-.309-.2852-.131-.0681-.287-.1021-.466-.1021-.168 0-.326.0309-.475.0926-.147.0602-.268.1482-.361.2638-.093.1141-.144.2519-.152.4135h-.57c.009-.2551.086-.4785.23-.6701.144-.1933.333-.3438.566-.4515.234-.1077.492-.1616.772-.1616.301 0 .559.061.775.183.215.1204.381.2796.496.4776.116.198.174.4119.174.6416 0 .274-.072.5077-.217.701-.142.1932-.336.3271-.582.4016v.038c.308.0507.548.1814.72.3921.173.2091.259.4681.259.777 0 .2646-.072.5022-.216.7129-.143.2091-.337.3738-.585.4942-.247.1204-.528.1806-.843.1806Zm-1.791 7.9355v-.4848l2.138-3.3838h.352v.7509h-.237l-1.616 2.5569v.038h2.88v.5228h-3.517Zm2.291.998v-4.8666h.56V64h-.56Zm-.434 9.0665c-.279 0-.53-.0554-.753-.1663-.224-.1109-.403-.263-.537-.4562-.135-.1933-.209-.4135-.221-.6606h.57c.022.2202.122.4023.299.5465.179.1426.393.2139.642.2139.199 0 .377-.0468.532-.1402.157-.0935.28-.2218.368-.385.091-.1647.136-.3509.136-.5584 0-.2123-.047-.4016-.14-.5679-.092-.168-.219-.3002-.38-.3969-.162-.0966-.347-.1457-.554-.1473-.149-.0016-.302.0214-.459.0689-.157.0459-.286.1054-.387.1782l-.551-.0665.294-2.3953h2.529v.5228h-2.034l-.172 1.4353h.029c.1-.0792.225-.145.375-.1973.151-.0522.308-.0784.471-.0784.298 0 .563.0713.796.2139.234.141.418.3342.551.5798.135.2455.202.5259.202.8412 0 .3105-.069.5877-.209.8317-.138.2423-.328.434-.57.575-.243.1394-.518.2091-.827.2091Zm-.01 9c-.199-.0031-.399-.0412-.598-.114-.2-.0729-.382-.1957-.547-.3683-.165-.1743-.297-.4096-.397-.7058-.1-.2978-.15-.6717-.15-1.1216 0-.4309.041-.8127.122-1.1453.08-.3343.198-.6155.351-.8436.154-.2297.339-.404.556-.5228.219-.1188.465-.1782.739-.1782.273 0 .515.0546.728.164.213.1077.388.2582.522.4514.135.1933.222.4159.262.6678h-.58c-.054-.2186-.159-.4-.314-.5442s-.361-.2162-.618-.2162c-.377 0-.674.1639-.891.4919-.215.3279-.324.7881-.325 1.3806h.038c.088-.1347.194-.2496.316-.3446.123-.0966.26-.1711.409-.2234.148-.0522.306-.0784.472-.0784.279 0 .534.0697.766.2091.231.1378.416.3287.556.5727.139.2424.209.5204.209.8341 0 .301-.068.5766-.202.8269-.135.2487-.324.4467-.568.5941-.243.1457-.528.217-.856.2138Zm0-.5227c.2 0 .379-.0499.537-.1497.16-.0998.286-.2337.378-.4016.094-.168.14-.3549.14-.5608 0-.2012-.045-.3842-.135-.5489-.089-.1664-.212-.2987-.368-.3969-.156-.0982-.333-.1473-.533-.1473-.15 0-.29.0301-.42.0903-.13.0586-.244.1394-.342.2424-.097.1029-.173.221-.229.354-.055.1315-.083.2701-.083.4159 0 .1932.045.3738.136.5418.092.1679.217.3033.375.4063.16.103.342.1545.544.1545ZM356.524 91l2.177-4.3058v-.038h-2.509v-.5228h3.117v.5513L357.142 91h-.618Zm1.107 9.067c-.327 0-.615-.058-.865-.1739-.249-.1173-.443-.2781-.583-.4824-.139-.206-.208-.4404-.206-.7034-.002-.2059.039-.396.121-.5703.082-.1758.195-.3224.337-.4396.144-.1188.305-.1941.483-.2257v-.0286c-.233-.0602-.419-.1908-.556-.392-.138-.2028-.206-.4333-.205-.6915-.001-.2472.061-.4681.188-.663.127-.1949.301-.3485.523-.461.223-.1125.477-.1687.763-.1687.282 0 .533.0562.755.1687.222.1125.396.2661.523.461.128.1949.193.4158.195.663-.002.2582-.072.4887-.212.6915-.137.2012-.32.3318-.549.392v.0286c.176.0316.335.1069.476.2257.141.1172.253.2638.337.4396.084.1743.127.3644.128.5703-.001.263-.072.4974-.213.7034-.14.2043-.334.3651-.583.4824-.247.1159-.533.1739-.857.1739Zm0-.5232c.22 0 .41-.0357.57-.107.16-.0713.283-.1719.371-.3018.087-.1299.131-.2819.133-.4562-.002-.1838-.049-.3461-.143-.4871-.093-.141-.221-.2519-.382-.3327-.16-.0808-.343-.1212-.549-.1212-.208 0-.393.0404-.556.1212-.162.0808-.29.1917-.383.3327-.092.141-.137.3033-.135.4871-.002.1743.04.3263.125.4562.088.1299.212.2305.374.3018.161.0713.353.107.575.107Zm0-2.3098c.174 0 .328-.0348.463-.1045.136-.0697.243-.1671.321-.2923.077-.1251.117-.2717.119-.4396-.002-.1648-.041-.3081-.117-.4301-.076-.1236-.181-.2186-.316-.2852-.135-.0681-.291-.1021-.47-.1021-.183 0-.342.034-.478.1021-.136.0666-.242.1616-.316.2852-.075.122-.111.2653-.109.4301-.002.1679.035.3145.111.4396.078.1252.185.2226.321.2923.136.0697.293.1045.471.1045Zm-.062 6.833c.199.001.399.039.599.114.199.074.381.198.546.371.165.171.297.404.397.701.1.296.15.667.15 1.114 0 .433-.041.817-.124 1.153-.081.334-.198.616-.352.846-.152.229-.337.404-.556.522-.217.119-.462.179-.736.179-.273 0-.516-.054-.73-.162-.212-.109-.386-.261-.523-.454-.134-.195-.221-.421-.259-.677h.58c.053.223.156.408.312.554.156.144.363.216.62.216.375 0 .671-.164.888-.492.219-.328.328-.791.328-1.39h-.038c-.088.133-.194.248-.316.344-.122.097-.257.171-.406.224-.149.052-.307.078-.475.078-.279 0-.535-.069-.768-.207-.231-.139-.416-.33-.556-.572-.138-.244-.207-.523-.207-.837 0-.298.067-.57.2-.817.135-.249.323-.447.566-.594.244-.148.53-.219.86-.214Zm0 .523c-.2 0-.38.05-.54.149-.158.099-.284.232-.377.4-.092.166-.138.35-.138.553 0 .203.044.388.133.554.09.165.213.296.368.394.157.097.335.145.535.145.15 0 .29-.029.42-.088.13-.06.244-.141.34-.244.098-.105.175-.223.231-.354.055-.133.083-.272.083-.416 0-.19-.046-.369-.138-.535-.09-.166-.215-.301-.375-.404-.159-.103-.339-.154-.542-.154Zm-2.956 8.543V118h-.589v-4.249h-.028l-1.189.789v-.599l1.217-.808h.589Zm2.987 4.934c-.358 0-.663-.098-.915-.293-.251-.196-.444-.481-.577-.853-.133-.374-.2-.825-.2-1.354 0-.526.067-.975.2-1.348.135-.373.328-.659.58-.855.253-.198.557-.297.912-.297s.659.099.91.297c.254.196.447.482.58.855.135.373.202.822.202 1.348 0 .529-.066.98-.199 1.354-.133.372-.326.657-.578.853-.252.195-.557.293-.915.293Zm0-.523c.355 0 .631-.171.827-.514.197-.342.295-.83.295-1.463 0-.422-.045-.78-.136-1.077-.088-.296-.217-.522-.385-.677-.166-.155-.366-.233-.601-.233-.351 0-.626.174-.824.521-.198.345-.297.834-.297 1.466 0 .421.044.779.133 1.074.088.294.216.519.382.672.168.154.37.231.606.231Zm-1.915 5.589V128h-.589v-4.249h-.029l-1.188.789v-.599l1.217-.808h.589Zm3.111 0V128h-.59v-4.249h-.028l-1.188.789v-.599l1.216-.808h.59Zm-4.052 9V137h-.589v-4.249h-.029l-1.188.789v-.599l1.217-.808h.589Zm1.4 4.867v-.428l1.606-1.758c.189-.206.344-.385.466-.537.122-.154.212-.298.271-.433.06-.136.09-.278.09-.427 0-.171-.041-.32-.124-.445-.08-.125-.191-.222-.332-.29-.141-.068-.3-.102-.476-.102-.186 0-.35.039-.489.117-.138.076-.245.183-.321.32-.074.138-.112.3-.112.485h-.56c0-.285.065-.535.197-.751.131-.215.31-.383.537-.504.228-.12.484-.18.767-.18.286 0 .538.06.758.18.221.121.393.283.519.488.125.204.187.431.187.682 0 .179-.032.354-.097.525-.064.169-.174.359-.333.568-.157.207-.375.461-.653.76l-1.093 1.169v.038h2.262V137h-3.07Zm-1.609 4.133V146h-.589v-4.249h-.029l-1.188.789v-.599l1.217-.808h.589Zm3.044 4.934c-.314 0-.593-.054-.839-.162-.244-.108-.438-.257-.582-.449-.143-.193-.22-.418-.233-.673h.599c.013.157.066.293.161.407.095.112.22.199.374.261.153.062.323.093.51.093.21 0 .395-.037.556-.11.162-.072.289-.174.381-.304.092-.13.137-.28.137-.451 0-.179-.044-.337-.133-.473-.088-.138-.218-.246-.389-.323-.171-.078-.381-.117-.628-.117h-.389v-.522h.389c.194 0 .363-.035.509-.105.147-.07.262-.168.344-.295.084-.126.126-.275.126-.446 0-.165-.036-.309-.109-.431-.073-.121-.176-.217-.309-.285-.131-.068-.287-.102-.466-.102-.168 0-.326.031-.475.093-.147.06-.268.148-.361.264-.093.114-.144.251-.152.413h-.57c.009-.255.086-.478.23-.67.144-.193.333-.344.566-.452.234-.107.492-.161.772-.161.301 0 .559.061.775.183.215.12.381.279.496.477.116.199.174.412.174.642 0 .274-.072.508-.217.701-.142.193-.336.327-.582.402v.038c.308.05.548.181.72.392.173.209.259.468.259.777 0 .264-.072.502-.216.713-.143.209-.337.374-.585.494-.247.12-.528.181-.843.181Zm-3.077 4.066V155h-.589v-4.249h-.029l-1.188.789v-.599l1.217-.808h.589Zm1.286 3.869v-.485l2.138-3.384h.352v.751h-.237l-1.616 2.557v.038h2.88v.523h-3.517Zm2.291.998v-4.867h.56V155h-.56Zm-3.355 4.133V164h-.589v-4.249h-.028l-1.189.789v-.599l1.217-.808h.589Zm2.921 4.934c-.279 0-.53-.056-.753-.167-.224-.111-.403-.263-.537-.456-.135-.193-.209-.414-.221-.661h.57c.022.221.122.403.299.547.179.142.393.214.642.214.199 0 .377-.047.532-.14.157-.094.28-.222.368-.385.091-.165.136-.351.136-.559 0-.212-.047-.401-.14-.568-.092-.168-.219-.3-.38-.397-.162-.096-.347-.145-.554-.147-.149-.001-.302.021-.459.069-.157.046-.286.105-.387.178l-.551-.066.294-2.396h2.529v.523h-2.034l-.172 1.435h.029c.1-.079.225-.144.375-.197.151-.052.308-.078.471-.078.298 0 .563.071.796.214.234.141.418.334.551.579.135.246.202.526.202.842 0 .31-.069.587-.209.831-.138.243-.328.434-.57.575-.243.14-.518.21-.827.21Zm-3.025 4.066V173h-.589v-4.249h-.029l-1.188.789v-.599l1.217-.808h.589Zm3.015 4.934c-.199-.004-.399-.042-.598-.115-.2-.072-.382-.195-.547-.368-.165-.174-.297-.409-.397-.706-.1-.297-.15-.671-.15-1.121 0-.431.041-.813.122-1.146.08-.334.198-.615.351-.843.154-.23.339-.404.556-.523.219-.119.465-.178.739-.178.273 0 .515.055.728.164.213.108.388.258.522.451.135.194.222.416.262.668h-.58c-.054-.219-.159-.4-.314-.544-.155-.144-.361-.216-.618-.216-.377 0-.674.164-.891.492-.215.327-.324.788-.325 1.38h.038c.088-.134.194-.249.316-.344.123-.097.26-.171.409-.224.148-.052.306-.078.472-.078.279 0 .534.07.766.209.231.138.416.329.556.573.139.242.209.52.209.834 0 .301-.068.576-.202.827-.135.248-.324.446-.568.594-.243.145-.528.217-.856.214Zm0-.523c.2 0 .379-.05.537-.15.16-.1.286-.234.378-.402.094-.167.14-.354.14-.56 0-.202-.045-.384-.135-.549-.089-.167-.212-.299-.368-.397-.156-.098-.333-.147-.533-.147-.15 0-.29.03-.42.09-.13.059-.244.139-.342.242-.097.103-.173.221-.229.354-.055.132-.083.27-.083.416 0 .193.045.374.136.542.092.168.217.303.375.406.16.103.342.155.544.155Zm-2.662 4.589V182h-.59v-4.249h-.028l-1.188.789v-.599l1.216-.808h.59Zm1.551 4.867 2.177-4.306v-.038h-2.509v-.523h3.117v.552L357.142 182h-.618Zm-1.852 4.133V191h-.589v-4.249h-.029l-1.188.789v-.599l1.217-.808h.589Zm2.959 4.934c-.327 0-.615-.058-.865-.174-.249-.117-.443-.278-.583-.482-.139-.206-.208-.441-.206-.704-.002-.206.039-.396.121-.57.082-.176.195-.322.337-.44.144-.118.305-.194.483-.225v-.029c-.233-.06-.419-.191-.556-.392-.138-.203-.206-.433-.205-.691-.001-.248.061-.469.188-.663.127-.195.301-.349.523-.461.223-.113.477-.169.763-.169.282 0 .533.056.755.169.222.112.396.266.523.461.128.194.193.415.195.663-.002.258-.072.488-.212.691-.137.201-.32.332-.549.392v.029c.176.031.335.107.476.225.141.118.253.264.337.44.084.174.127.364.128.57-.001.263-.072.498-.213.704-.14.204-.334.365-.583.482-.247.116-.533.174-.857.174Zm0-.523c.22 0 .41-.036.57-.107.16-.071.283-.172.371-.302.087-.13.131-.282.133-.456-.002-.184-.049-.346-.143-.487-.093-.141-.221-.252-.382-.333-.16-.081-.343-.121-.549-.121-.208 0-.393.04-.556.121-.162.081-.29.192-.383.333-.092.141-.137.303-.135.487-.002.174.04.326.125.456.088.13.212.231.374.302.161.071.353.107.575.107Zm0-2.31c.174 0 .328-.035.463-.105.136-.069.243-.167.321-.292.077-.125.117-.271.119-.439-.002-.165-.041-.309-.117-.431-.076-.123-.181-.218-.316-.285-.135-.068-.291-.102-.47-.102-.183 0-.342.034-.478.102-.136.067-.242.162-.316.285-.075.122-.111.266-.109.431-.002.168.035.314.111.439.078.125.185.223.321.292.136.07.293.105.471.105Zm-3.011 7.899V201h-.589v-4.249h-.029l-1.188.789v-.599l1.217-.808h.589Zm2.949-.066c.199.001.399.039.599.114.199.074.381.198.546.371.165.171.297.404.397.701.1.296.15.667.15 1.114 0 .433-.041.817-.124 1.153-.081.334-.198.616-.352.846-.152.229-.337.404-.556.522-.217.119-.462.179-.736.179-.273 0-.516-.054-.73-.162-.212-.109-.386-.261-.523-.454-.134-.195-.221-.421-.259-.677h.58c.053.223.156.408.312.554.156.144.363.216.62.216.375 0 .671-.164.888-.492.219-.328.328-.791.328-1.39h-.038c-.088.133-.194.248-.316.344-.122.097-.257.171-.406.224-.149.052-.307.078-.475.078-.279 0-.535-.069-.768-.207-.231-.139-.416-.33-.556-.572-.138-.244-.207-.523-.207-.837 0-.298.067-.57.2-.817.135-.249.323-.447.566-.594.244-.148.53-.219.86-.214Zm0 .523c-.2 0-.38.05-.54.149-.158.099-.284.232-.377.4-.092.166-.138.35-.138.553 0 .203.044.388.133.554.09.165.213.296.368.394.157.097.335.145.535.145.15 0 .291-.029.42-.088.13-.06.244-.141.34-.244.098-.105.175-.223.231-.354.055-.133.083-.272.083-.416 0-.19-.046-.369-.138-.535-.09-.166-.215-.301-.375-.404-.159-.103-.339-.154-.542-.154ZM351.961 209v-.428l1.607-1.758c.188-.206.344-.385.466-.537.122-.154.212-.298.27-.433.061-.136.091-.278.091-.427 0-.171-.041-.32-.124-.445-.081-.125-.192-.222-.333-.29-.141-.068-.299-.102-.475-.102-.187 0-.35.039-.489.117-.138.076-.245.183-.321.32-.075.138-.112.3-.112.485h-.561c0-.285.066-.535.198-.751.131-.215.31-.383.537-.504.228-.12.484-.18.767-.18.285 0 .538.06.758.18.22.121.393.283.518.488.125.204.188.431.188.682 0 .179-.032.354-.097.525-.064.169-.175.359-.333.568-.157.207-.375.461-.654.76l-1.093 1.169v.038h2.263V209h-3.071Zm5.639.067c-.358 0-.663-.098-.915-.293-.251-.196-.444-.481-.577-.853-.133-.374-.2-.825-.2-1.354 0-.526.067-.975.2-1.348.135-.373.328-.659.58-.855.253-.198.557-.297.912-.297s.659.099.91.297c.254.196.447.482.58.855.135.373.202.822.202 1.348 0 .529-.066.98-.199 1.354-.133.372-.326.657-.578.853-.252.195-.557.293-.915.293Zm0-.523c.355 0 .631-.171.827-.514.197-.342.295-.83.295-1.463 0-.422-.045-.78-.136-1.077-.088-.296-.217-.522-.385-.677-.166-.155-.366-.233-.601-.233-.351 0-.626.174-.824.521-.198.345-.297.834-.297 1.466 0 .421.044.779.133 1.074.088.294.216.519.382.672.168.154.37.231.606.231ZM353.033 217v-.428l1.606-1.758c.189-.206.344-.385.466-.537.122-.154.213-.298.271-.433.06-.136.09-.278.09-.427 0-.171-.041-.32-.123-.445-.081-.125-.192-.222-.333-.29-.141-.068-.299-.102-.475-.102-.187 0-.35.039-.49.117-.137.076-.244.183-.32.32-.075.138-.112.3-.112.485h-.561c0-.285.066-.535.197-.751.132-.215.311-.383.537-.504.229-.12.484-.18.768-.18.285 0 .538.06.758.18.22.121.393.283.518.488.125.204.188.431.188.682 0 .179-.033.354-.098.525-.063.169-.174.359-.332.568-.157.207-.375.461-.654.76l-1.093 1.169v.038h2.262V217h-3.07Zm5.763-4.867V217h-.59v-4.249h-.028l-1.188.789v-.599l1.216-.808h.59ZM352.092 226v-.428l1.606-1.758c.189-.206.344-.385.466-.537.122-.154.213-.298.271-.433.06-.136.09-.278.09-.427 0-.171-.041-.32-.123-.445-.081-.125-.192-.222-.333-.29-.141-.068-.299-.102-.475-.102-.187 0-.35.039-.49.117-.137.076-.244.183-.32.32-.075.138-.112.3-.112.485h-.561c0-.285.066-.535.197-.751.132-.215.311-.383.537-.504.229-.12.484-.18.768-.18.285 0 .538.06.758.18.22.121.393.283.518.488.125.204.188.431.188.682 0 .179-.033.354-.098.525-.063.169-.174.359-.332.568-.157.207-.375.461-.654.76l-1.093 1.169v.038h2.262V226h-3.07Zm4.052 0v-.428l1.606-1.758c.189-.206.344-.385.466-.537.122-.154.212-.298.271-.433.06-.136.09-.278.09-.427 0-.171-.041-.32-.124-.445-.08-.125-.191-.222-.332-.29-.141-.068-.3-.102-.476-.102-.186 0-.35.039-.489.117-.138.076-.245.183-.321.32-.074.138-.112.3-.112.485h-.56c0-.285.065-.535.197-.751.131-.215.31-.383.537-.504.228-.12.484-.18.767-.18.286 0 .538.06.758.18.221.121.393.283.519.488.125.204.187.431.187.682 0 .179-.032.354-.097.525-.064.169-.174.359-.333.568-.157.207-.375.461-.653.76l-1.093 1.169v.038h2.262V226h-3.07Zm-4.261 8v-.428l1.606-1.758c.189-.206.344-.385.466-.537.122-.154.212-.298.271-.433.06-.136.09-.278.09-.427 0-.171-.041-.32-.123-.445-.081-.125-.192-.222-.333-.29-.141-.068-.299-.102-.475-.102-.187 0-.35.039-.49.117-.138.076-.244.183-.32.32-.075.138-.112.3-.112.485h-.561c0-.285.066-.535.197-.751.132-.215.311-.383.537-.504.228-.12.484-.18.768-.18.285 0 .538.06.758.18.22.121.393.283.518.488.125.204.188.431.188.682 0 .179-.033.354-.098.525-.063.169-.174.359-.332.568-.157.207-.375.461-.654.76l-1.093 1.169v.038h2.262V234h-3.07Zm5.696.067c-.314 0-.593-.054-.839-.162-.244-.108-.438-.257-.582-.449-.143-.193-.22-.418-.233-.673h.599c.013.157.066.293.161.407.095.112.22.199.374.261.153.062.323.093.51.093.21 0 .395-.037.556-.11.162-.072.289-.174.381-.304.092-.13.137-.28.137-.451 0-.179-.044-.337-.133-.473-.088-.138-.218-.246-.389-.323-.171-.078-.381-.117-.628-.117h-.389v-.522h.389c.194 0 .363-.035.509-.105.147-.07.262-.168.344-.295.084-.126.126-.275.126-.446 0-.165-.036-.309-.109-.431-.073-.121-.176-.217-.309-.285-.131-.068-.287-.102-.466-.102-.168 0-.326.031-.475.093-.147.06-.268.148-.361.264-.093.114-.144.251-.152.413h-.57c.009-.255.086-.478.23-.67.144-.193.333-.344.566-.452.234-.107.492-.161.772-.161.301 0 .559.061.775.183.215.12.381.279.496.477.116.199.174.412.174.642 0 .274-.072.508-.217.701-.142.193-.336.327-.582.402v.038c.308.05.548.181.72.392.173.209.259.468.259.777 0 .264-.072.502-.216.713-.143.209-.337.374-.585.494-.247.12-.528.181-.843.181ZM351.955 242v-.428l1.606-1.758c.189-.206.344-.385.466-.537.122-.154.212-.298.271-.433.06-.136.09-.278.09-.427 0-.171-.041-.32-.123-.445-.081-.125-.192-.222-.333-.29-.141-.068-.299-.102-.475-.102-.187 0-.35.039-.49.117-.138.076-.245.183-.321.32-.074.138-.111.3-.111.485h-.561c0-.285.066-.535.197-.751.132-.215.311-.383.537-.504.228-.12.484-.18.768-.18.285 0 .538.06.758.18.22.121.393.283.518.488.125.204.187.431.187.682 0 .179-.032.354-.097.525-.063.169-.174.359-.333.568-.156.207-.374.461-.653.76l-1.093 1.169v.038h2.262V242h-3.07Zm3.833-.998v-.485l2.138-3.384h.352v.751h-.237l-1.616 2.557v.038h2.88v.523h-3.517Zm2.291.998v-4.867h.56V242h-.56Zm-6.006 8v-.428l1.606-1.758c.188-.206.344-.385.466-.537.122-.154.212-.298.271-.433.06-.136.09-.278.09-.427 0-.171-.041-.32-.124-.445-.081-.125-.191-.222-.332-.29-.141-.068-.3-.102-.476-.102-.187 0-.35.039-.489.117-.138.076-.245.183-.321.32-.074.138-.112.3-.112.485h-.56c0-.285.065-.535.197-.751.131-.215.31-.383.537-.504.228-.12.484-.18.767-.18.285 0 .538.06.758.18.221.121.393.283.518.488.126.204.188.431.188.682 0 .179-.032.354-.097.525-.064.169-.175.359-.333.568-.157.207-.375.461-.653.76l-1.094 1.169v.038h2.263V250h-3.07Zm5.572.067c-.279 0-.53-.056-.753-.167-.224-.111-.403-.263-.537-.456-.135-.193-.209-.414-.221-.661h.57c.022.221.122.403.299.547.179.142.393.214.642.214.199 0 .377-.047.532-.14.157-.094.28-.222.368-.385.091-.165.136-.351.136-.559 0-.212-.047-.401-.14-.568-.092-.168-.219-.3-.38-.397-.162-.096-.347-.145-.554-.147-.149-.001-.302.021-.459.069-.157.046-.286.105-.387.178l-.551-.066.294-2.396h2.529v.523h-2.034l-.172 1.435h.029c.1-.079.225-.144.375-.197.151-.052.308-.078.471-.078.298 0 .563.071.796.214.234.141.418.334.551.579.135.246.202.526.202.842 0 .31-.069.587-.209.831-.138.243-.328.434-.57.575-.243.14-.518.21-.827.21ZM351.968 258v-.428l1.606-1.758c.189-.206.344-.385.466-.537.122-.154.212-.298.271-.433.06-.136.09-.278.09-.427 0-.171-.041-.32-.123-.445-.081-.125-.192-.222-.333-.29-.141-.068-.299-.102-.475-.102-.187 0-.35.039-.49.117-.138.076-.244.183-.321.32-.074.138-.111.3-.111.485h-.561c0-.285.066-.535.197-.751.132-.215.311-.383.537-.504.228-.12.484-.18.768-.18.285 0 .538.06.758.18.22.121.393.283.518.488.125.204.188.431.188.682 0 .179-.033.354-.098.525-.063.169-.174.359-.333.568-.156.207-.374.461-.653.76l-1.093 1.169v.038h2.262V258h-3.07Zm5.667.067c-.199-.004-.399-.042-.598-.115-.2-.072-.382-.195-.547-.368-.165-.174-.297-.409-.397-.706-.1-.297-.15-.671-.15-1.121 0-.431.041-.813.122-1.146.08-.334.198-.615.351-.843.154-.23.339-.404.556-.523.219-.119.465-.178.739-.178.273 0 .515.055.728.164.213.108.388.258.522.451.135.194.222.416.262.668h-.58c-.054-.219-.159-.4-.314-.544-.155-.144-.361-.216-.618-.216-.377 0-.674.164-.891.492-.215.327-.324.788-.325 1.38h.038c.088-.134.194-.249.316-.344.123-.097.26-.171.409-.224.148-.052.306-.078.472-.078.279 0 .534.07.766.209.231.138.416.329.556.573.139.242.209.52.209.834 0 .301-.068.576-.202.827-.135.248-.324.446-.568.594-.243.145-.528.217-.856.214Zm0-.523c.2 0 .379-.05.537-.15.16-.1.286-.234.378-.402.094-.167.14-.354.14-.56 0-.202-.045-.384-.135-.549-.089-.167-.212-.299-.368-.397-.156-.098-.333-.147-.533-.147-.15 0-.29.03-.42.09-.13.059-.244.139-.342.242-.097.103-.173.221-.229.354-.055.132-.083.27-.083.416 0 .193.045.374.136.542.092.168.217.303.375.406.16.103.342.155.544.155ZM352.321 266v-.428l1.606-1.758c.189-.206.344-.385.466-.537.122-.154.212-.298.271-.433.06-.136.09-.278.09-.427 0-.171-.041-.32-.123-.445-.081-.125-.192-.222-.333-.29-.141-.068-.3-.102-.475-.102-.187 0-.35.039-.49.117-.138.076-.245.183-.321.32-.074.138-.111.3-.111.485h-.561c0-.285.066-.535.197-.751.132-.215.311-.383.537-.504.228-.12.484-.18.768-.18.285 0 .537.06.758.18.22.121.393.283.518.488.125.204.187.431.187.682 0 .179-.032.354-.097.525-.063.169-.174.359-.333.568-.157.207-.374.461-.653.76l-1.093 1.169v.038h2.262V266h-3.07Zm4.203 0 2.177-4.306v-.038h-2.509v-.523h3.117v.552L357.142 266h-.618Zm-4.504 8v-.428l1.607-1.758c.188-.206.343-.385.465-.537.122-.154.213-.298.271-.433.06-.136.091-.278.091-.427 0-.171-.042-.32-.124-.445-.081-.125-.192-.222-.333-.29-.141-.068-.299-.102-.475-.102-.187 0-.35.039-.489.117-.138.076-.245.183-.321.32-.075.138-.112.3-.112.485h-.561c0-.285.066-.535.197-.751.132-.215.311-.383.538-.504.228-.12.483-.18.767-.18.285 0 .538.06.758.18.22.121.393.283.518.488.125.204.188.431.188.682 0 .179-.033.354-.098.525-.063.169-.174.359-.332.568-.157.207-.375.461-.654.76l-1.093 1.169v.038h2.262V274h-3.07Zm5.611.067c-.327 0-.615-.058-.865-.174-.249-.117-.443-.278-.583-.482-.139-.206-.208-.441-.206-.704-.002-.206.039-.396.121-.57.082-.176.195-.322.337-.44.144-.118.305-.194.483-.225v-.029c-.233-.06-.419-.191-.556-.392-.138-.203-.206-.433-.205-.691-.001-.248.061-.469.188-.663.127-.195.301-.349.523-.461.223-.113.477-.169.763-.169.282 0 .533.056.755.169.222.112.396.266.523.461.128.194.193.415.195.663-.002.258-.072.488-.212.691-.137.201-.32.332-.549.392v.029c.176.031.335.107.476.225.141.118.253.264.337.44.084.174.127.364.128.57-.001.263-.072.498-.213.704-.14.204-.334.365-.583.482-.247.116-.533.174-.857.174Zm0-.523c.22 0 .41-.036.57-.107.16-.071.283-.172.371-.302.087-.13.131-.282.133-.456-.002-.184-.049-.346-.143-.487-.093-.141-.221-.252-.382-.333-.16-.081-.343-.121-.549-.121-.208 0-.393.04-.556.121-.162.081-.29.192-.383.333-.092.141-.137.303-.135.487-.002.174.04.326.125.456.088.13.212.231.374.302.161.071.353.107.575.107Zm0-2.31c.174 0 .328-.035.463-.105.136-.069.243-.167.321-.292.077-.125.117-.271.119-.439-.002-.165-.041-.309-.117-.431-.076-.123-.181-.218-.316-.285-.135-.068-.291-.102-.47-.102-.183 0-.342.034-.478.102-.136.067-.242.162-.316.285-.075.122-.111.266-.109.431-.002.168.035.314.111.439.078.125.185.223.321.292.136.07.293.105.471.105ZM351.968 282v-.428l1.606-1.758c.189-.206.344-.385.466-.537.122-.154.212-.298.271-.433.06-.136.09-.278.09-.427 0-.171-.041-.32-.123-.445-.081-.125-.192-.222-.333-.29-.141-.068-.299-.102-.475-.102-.187 0-.35.039-.49.117-.138.076-.244.183-.321.32-.074.138-.111.3-.111.485h-.561c0-.285.066-.535.197-.751.132-.215.311-.383.537-.504.228-.12.484-.18.768-.18.285 0 .538.06.758.18.22.121.393.283.518.488.125.204.188.431.188.682 0 .179-.033.354-.098.525-.063.169-.174.359-.333.568-.156.207-.374.461-.653.76l-1.093 1.169v.038h2.262V282h-3.07Zm5.601-4.933c.199.001.399.039.599.114.199.074.381.198.546.371.165.171.297.404.397.701.1.296.15.667.15 1.114 0 .433-.041.817-.124 1.153-.081.334-.198.616-.352.846-.152.229-.337.404-.556.522-.217.119-.462.179-.736.179-.273 0-.516-.054-.73-.162-.212-.109-.386-.261-.523-.454-.134-.195-.221-.421-.259-.677h.58c.053.223.156.408.312.554.156.144.363.216.62.216.375 0 .671-.164.888-.492.219-.328.328-.791.328-1.39h-.038c-.088.133-.194.248-.316.344-.122.097-.257.171-.406.224-.149.052-.307.078-.475.078-.279 0-.535-.069-.768-.207-.231-.139-.416-.33-.556-.572-.138-.244-.207-.523-.207-.837 0-.298.067-.57.2-.817.135-.249.323-.447.566-.594.244-.148.53-.219.86-.214Zm0 .523c-.2 0-.38.05-.54.149-.158.099-.284.232-.377.4-.092.166-.138.35-.138.553 0 .203.044.388.133.554.09.165.213.296.368.394.157.097.335.145.535.145.15 0 .29-.029.42-.088.13-.06.244-.141.34-.244.098-.105.175-.223.231-.354.055-.133.083-.272.083-.416 0-.19-.046-.369-.138-.535-.09-.166-.215-.301-.375-.404-.159-.103-.339-.154-.542-.154Zm-4.172 12.477c-.314 0-.594-.054-.839-.162-.244-.108-.438-.257-.582-.449-.143-.193-.221-.418-.233-.673h.599c.012.157.066.293.161.407.095.112.22.199.373.261.154.062.324.093.511.093.209 0 .395-.037.556-.11.162-.072.289-.174.38-.304.092-.13.138-.28.138-.451 0-.179-.044-.337-.133-.473-.089-.138-.218-.246-.39-.323-.171-.078-.38-.117-.627-.117h-.39v-.522h.39c.193 0 .363-.035.509-.105.147-.07.262-.168.344-.295.084-.126.126-.275.126-.446 0-.165-.036-.309-.109-.431-.073-.121-.176-.217-.309-.285-.132-.068-.287-.102-.466-.102-.168 0-.326.031-.475.093-.147.06-.268.148-.361.264-.094.114-.144.251-.152.413h-.571c.01-.255.087-.478.231-.67.144-.193.333-.344.565-.452.235-.107.492-.161.773-.161.301 0 .559.061.774.183.216.12.381.279.497.477.116.199.173.412.173.642 0 .274-.072.508-.216.701-.142.193-.336.327-.582.402v.038c.307.05.547.181.72.392.173.209.259.468.259.777 0 .264-.072.502-.216.713-.143.209-.338.374-.585.494-.247.12-.528.181-.843.181Zm4.203 0c-.358 0-.663-.098-.915-.293-.251-.196-.444-.481-.577-.853-.133-.374-.2-.825-.2-1.354 0-.526.067-.975.2-1.348.135-.373.328-.659.58-.855.253-.198.557-.297.912-.297s.659.099.91.297c.254.196.447.482.58.855.135.373.202.822.202 1.348 0 .529-.066.98-.199 1.354-.133.372-.326.657-.578.853-.252.195-.557.293-.915.293Zm0-.523c.355 0 .631-.171.827-.514.197-.342.295-.83.295-1.463 0-.422-.045-.78-.136-1.077-.088-.296-.217-.522-.385-.677-.166-.155-.366-.233-.601-.233-.351 0-.626.174-.824.521-.198.345-.297.834-.297 1.466 0 .421.044.779.133 1.074.088.294.216.519.382.672.168.154.37.231.606.231Zm-3.132 8.523c-.313 0-.593-.054-.838-.162-.244-.108-.438-.257-.583-.449-.142-.193-.22-.418-.232-.673h.598c.013.157.067.293.162.407.095.112.219.199.373.261s.324.093.511.093c.209 0 .394-.037.556-.11.162-.072.288-.174.38-.304.092-.13.138-.28.138-.451 0-.179-.044-.337-.133-.473-.089-.138-.219-.246-.39-.323-.171-.078-.38-.117-.627-.117h-.39v-.522h.39c.193 0 .363-.035.508-.105.148-.07.263-.168.345-.295.084-.126.126-.275.126-.446 0-.165-.037-.309-.109-.431-.073-.121-.176-.217-.309-.285-.132-.068-.287-.102-.466-.102-.168 0-.326.031-.475.093-.148.06-.268.148-.362.264-.093.114-.144.251-.152.413h-.57c.01-.255.086-.478.231-.67.144-.193.332-.344.565-.452.235-.107.492-.161.772-.161.301 0 .56.061.775.183.216.12.381.279.497.477.115.199.173.412.173.642 0 .274-.072.508-.216.701-.143.193-.337.327-.582.402v.038c.307.05.547.181.72.392.172.209.259.468.259.777 0 .264-.072.502-.216.713-.143.209-.338.374-.585.494-.247.12-.528.181-.844.181Zm4.328-4.934V298h-.59v-4.249h-.028l-1.188.789v-.599l1.216-.808h.59Z"/><path fill="url(#g)" d="M375.314 38.2379c-.321 0-.577-.0803-.769-.2409-.187-.1561-.281-.4081-.281-.7561 0-.1695.011-.3212.033-.455.027-.1383.052-.2855.074-.4417.027-.1561.04-.3435.04-.5621 0-.1918-.051-.3435-.154-.455-.098-.116-.261-.174-.488-.174h-.315v-.4951h.315c.227 0 .39-.0558.488-.1673.103-.116.154-.2699.154-.4617 0-.2231-.013-.4105-.04-.5621-.022-.1562-.047-.3012-.074-.435-.022-.1383-.033-.2922-.033-.4617 0-.348.094-.6.281-.7561.192-.1606.448-.2409.769-.2409h.643v.4951h-.582c-.183 0-.324.0446-.422.1339-.098.0847-.147.2275-.147.4282 0 .1785.011.3346.033.4684.027.1294.052.2632.074.4015.027.1339.04.2967.04.4885 0 .2364-.051.4327-.154.5889-.102.1516-.236.2565-.401.3145v.0267c.165.058.299.1651.401.3212.103.1517.154.3458.154.5822 0 .1918-.013.3569-.04.4952-.022.1338-.047.2676-.074.4015-.022.1293-.033.2832-.033.4617 0 .2007.049.3435.147.4282.098.0893.239.1339.422.1339h.582v.4951h-.643Zm48.148 27c-.321 0-.577-.0803-.769-.2409-.188-.1561-.281-.4081-.281-.7561 0-.1695.011-.3212.033-.455.027-.1383.051-.2855.074-.4417.026-.1561.04-.3435.04-.5621 0-.1918-.051-.3435-.154-.455-.098-.116-.261-.174-.489-.174h-.314v-.4951h.314c.228 0 .391-.0558.489-.1673.103-.116.154-.2699.154-.4617 0-.2231-.014-.4105-.04-.5621-.023-.1562-.047-.3012-.074-.435-.022-.1383-.033-.2922-.033-.4617 0-.348.093-.6.281-.7561.192-.1606.448-.2409.769-.2409h.643v.4951h-.583c-.182 0-.323.0446-.421.1339-.098.0847-.147.2275-.147.4282 0 .1785.011.3346.033.4684.027.1294.051.2632.074.4015.026.1339.04.2967.04.4885 0 .2364-.051.4327-.154.5889-.103.1516-.236.2565-.402.3145v.0267c.166.058.299.1651.402.3212.103.1517.154.3458.154.5822 0 .1918-.014.3569-.04.4952-.023.1338-.047.2676-.074.4015-.022.1293-.033.2832-.033.4617 0 .2007.049.3435.147.4282.098.0893.239.1339.421.1339h.583v.4951h-.643Zm0 9c-.321 0-.577-.0803-.769-.2409-.188-.1561-.281-.4081-.281-.7561 0-.1695.011-.3212.033-.455.027-.1383.051-.2855.074-.4417.026-.1561.04-.3435.04-.5621 0-.1918-.051-.3435-.154-.455-.098-.116-.261-.174-.489-.174h-.314v-.4951h.314c.228 0 .391-.0558.489-.1673.103-.116.154-.2699.154-.4617 0-.2231-.014-.4105-.04-.5621-.023-.1562-.047-.3012-.074-.435-.022-.1383-.033-.2922-.033-.4617 0-.348.093-.6.281-.7561.192-.1606.448-.2409.769-.2409h.643v.4951h-.583c-.182 0-.323.0446-.421.1339-.098.0847-.147.2275-.147.4282 0 .1785.011.3346.033.4684.027.1294.051.2632.074.4015.026.1339.04.2967.04.4885 0 .2364-.051.4327-.154.5889-.103.1516-.236.2565-.402.3145v.0267c.166.058.299.1651.402.3212.103.1517.154.3458.154.5822 0 .1918-.014.3569-.04.4952-.023.1338-.047.2676-.074.4015-.022.1293-.033.2832-.033.4617 0 .2007.049.3435.147.4282.098.0893.239.1339.421.1339h.583v.4951h-.643ZM389.49 101.238v-.495h.582c.183 0 .324-.045.422-.134.098-.085.147-.228.147-.428 0-.179-.013-.3327-.04-.462-.022-.1339-.047-.2677-.074-.4015-.022-.1383-.033-.3034-.033-.4952 0-.2364.051-.4305.154-.5822.102-.1561.236-.2632.401-.3212v-.0267c-.165-.058-.299-.1629-.401-.3145-.103-.1562-.154-.3525-.154-.5889 0-.1918.011-.3546.033-.4885.027-.1383.052-.2721.074-.4015.027-.1338.04-.2899.04-.4684 0-.2007-.049-.3435-.147-.4282-.098-.0893-.239-.1339-.422-.1339h-.582v-.4951h.642c.322 0 .576.0803.763.2409.192.1561.288.4081.288.7561 0 .1695-.013.3234-.04.4617-.022.1338-.047.2788-.074.435-.022.1516-.033.339-.033.5621 0 .1918.049.3457.147.4617.103.1115.268.1673.495.1673h.315v.4951h-.315c-.227 0-.392.058-.495.174-.098.1115-.147.2632-.147.455 0 .2186.011.406.033.5621.027.1562.052.3034.074.4417.027.1338.04.2851.04.4551 0 .348-.096.6-.288.756-.187.161-.441.241-.763.241h-.642Zm33.972 9c-.321 0-.577-.08-.769-.241-.188-.156-.281-.408-.281-.756 0-.17.011-.321.033-.455.027-.138.051-.286.074-.442.026-.156.04-.343.04-.562 0-.192-.051-.343-.154-.455-.098-.116-.261-.174-.489-.174h-.314v-.495h.314c.228 0 .391-.056.489-.167.103-.116.154-.27.154-.462 0-.223-.014-.41-.04-.562-.023-.156-.047-.301-.074-.435-.022-.138-.033-.292-.033-.462 0-.348.093-.6.281-.756.192-.161.448-.241.769-.241h.643v.495h-.583c-.182 0-.323.045-.421.134-.098.085-.147.228-.147.428 0 .179.011.335.033.469.027.129.051.263.074.401.026.134.04.297.04.489 0 .236-.051.433-.154.589-.103.151-.236.256-.402.314v.027c.166.058.299.165.402.321.103.152.154.346.154.582 0 .192-.014.357-.04.495-.023.134-.047.268-.074.402-.022.129-.033.283-.033.462 0 .2.049.343.147.428.098.089.239.134.421.134h.583v.495h-.643Zm23.231 18c-.205 0-.364-.056-.475-.167-.107-.112-.161-.27-.161-.475v-5.38c0-.206.054-.364.161-.476.111-.111.27-.167.475-.167h1.064v.495h-1.011c-.107 0-.16.056-.16.168v5.333c0 .111.053.167.16.167h1.011v.502h-1.064Zm-39.28 9c-.321 0-.578-.08-.77-.241-.187-.156-.281-.408-.281-.756 0-.17.012-.321.034-.455.027-.138.051-.286.073-.442.027-.156.041-.343.041-.562 0-.192-.052-.343-.154-.455-.098-.116-.261-.174-.489-.174h-.314v-.495h.314c.228 0 .391-.056.489-.167.102-.116.154-.27.154-.462 0-.223-.014-.41-.041-.562-.022-.156-.046-.301-.073-.435-.022-.138-.034-.292-.034-.462 0-.348.094-.6.281-.756.192-.161.449-.241.77-.241h.642v.495h-.582c-.183 0-.323.045-.421.134-.099.085-.148.228-.148.428 0 .179.012.335.034.469.027.129.051.263.073.401.027.134.041.297.041.489 0 .236-.052.433-.154.589-.103.151-.237.256-.402.314v.027c.165.058.299.165.402.321.102.152.154.346.154.582 0 .192-.014.357-.041.495-.022.134-.046.268-.073.402-.022.129-.034.283-.034.462 0 .2.049.343.148.428.098.089.238.134.421.134h.582v.495h-.642Zm55.329 27c-.205 0-.363-.056-.475-.167-.107-.112-.16-.27-.16-.475v-5.38c0-.206.053-.364.16-.476.112-.111.27-.167.475-.167h1.064v.495h-1.01c-.107 0-.161.056-.161.168v5.333c0 .111.054.167.161.167h1.01v.502h-1.064Zm-39.28 9c-.321 0-.577-.08-.769-.241-.188-.156-.281-.408-.281-.756 0-.17.011-.321.033-.455.027-.138.051-.286.074-.442.026-.156.04-.343.04-.562 0-.192-.051-.343-.154-.455-.098-.116-.261-.174-.489-.174h-.314v-.495h.314c.228 0 .391-.056.489-.167.103-.116.154-.27.154-.462 0-.223-.014-.41-.04-.562-.023-.156-.047-.301-.074-.435-.022-.138-.033-.292-.033-.462 0-.348.093-.6.281-.756.192-.161.448-.241.769-.241h.643v.495h-.583c-.182 0-.323.045-.421.134-.098.085-.147.228-.147.428 0 .179.011.335.033.469.027.129.051.263.074.401.026.134.04.297.04.489 0 .236-.051.433-.154.589-.103.151-.236.256-.402.314v.027c.166.058.299.165.402.321.103.152.154.346.154.582 0 .192-.014.357-.04.495-.023.134-.047.268-.074.402-.022.129-.033.283-.033.462 0 .2.049.343.147.428.098.089.239.134.421.134h.583v.495h-.643Zm-1.873 27v-.495h.582c.183 0 .323-.045.421-.134.098-.085.148-.228.148-.428 0-.179-.014-.333-.041-.462-.022-.134-.046-.268-.073-.402-.023-.138-.034-.303-.034-.495 0-.236.052-.43.154-.582.103-.156.237-.263.402-.321v-.027c-.165-.058-.299-.163-.402-.314-.102-.156-.154-.353-.154-.589 0-.192.011-.355.034-.489.027-.138.051-.272.073-.401.027-.134.041-.29.041-.469 0-.2-.05-.343-.148-.428-.098-.089-.238-.134-.421-.134h-.582v-.495h.642c.321 0 .575.08.763.241.192.156.288.408.288.756 0 .17-.014.324-.041.462-.022.134-.046.279-.073.435-.023.152-.034.339-.034.562 0 .192.049.346.148.462.102.111.267.167.495.167h.314v.495h-.314c-.228 0-.393.058-.495.174-.099.112-.148.263-.148.455 0 .219.011.406.034.562.027.156.051.304.073.442.027.134.041.285.041.455 0 .348-.096.6-.288.756-.188.161-.442.241-.763.241h-.642Zm-7.603 9v-.502h1.01c.107 0 .161-.056.161-.167v-5.333c0-.112-.054-.168-.161-.168h-1.01v-.495h1.063c.206 0 .362.056.469.167.111.112.167.27.167.476v5.38c0 .205-.056.363-.167.475-.107.111-.263.167-.469.167h-1.063Zm-8.447 9v-.495h.583c.182 0 .323-.045.421-.134.098-.085.147-.228.147-.428 0-.179-.013-.333-.04-.462-.022-.134-.047-.268-.073-.402-.023-.138-.034-.303-.034-.495 0-.236.051-.43.154-.582.103-.156.236-.263.401-.321v-.027c-.165-.058-.298-.163-.401-.314-.103-.156-.154-.353-.154-.589 0-.192.011-.355.034-.489.026-.138.051-.272.073-.401.027-.134.04-.29.04-.469 0-.2-.049-.343-.147-.428-.098-.089-.239-.134-.421-.134h-.583v-.495h.643c.321 0 .575.08.763.241.191.156.287.408.287.756 0 .17-.013.324-.04.462-.022.134-.047.279-.073.435-.023.152-.034.339-.034.562 0 .192.049.346.147.462.103.111.268.167.495.167h.315v.495h-.315c-.227 0-.392.058-.495.174-.098.112-.147.263-.147.455 0 .219.011.406.034.562.026.156.051.304.073.442.027.134.04.285.04.455 0 .348-.096.6-.287.756-.188.161-.442.241-.763.241h-.643Zm-7.603 9v-.502h1.011c.107 0 .16-.056.16-.167v-5.333c0-.112-.053-.168-.16-.168h-1.011v-.495H399c.205 0 .362.056.469.167.111.112.167.27.167.476v5.38c0 .205-.056.363-.167.475-.107.111-.264.167-.469.167h-1.064Zm-8.446 9v-.495h.582c.183 0 .324-.045.422-.134.098-.085.147-.228.147-.428 0-.179-.013-.333-.04-.462-.022-.134-.047-.268-.074-.402-.022-.138-.033-.303-.033-.495 0-.236.051-.43.154-.582.102-.156.236-.263.401-.321v-.027c-.165-.058-.299-.163-.401-.314-.103-.156-.154-.353-.154-.589 0-.192.011-.355.033-.489.027-.138.052-.272.074-.401.027-.134.04-.29.04-.469 0-.2-.049-.343-.147-.428-.098-.089-.239-.134-.422-.134h-.582v-.495h.642c.322 0 .576.08.763.241.192.156.288.408.288.756 0 .17-.013.324-.04.462-.022.134-.047.279-.074.435-.022.152-.033.339-.033.562 0 .192.049.346.147.462.103.111.268.167.495.167h.315v.495h-.315c-.227 0-.392.058-.495.174-.098.112-.147.263-.147.455 0 .219.011.406.033.562.027.156.052.304.074.442.027.134.04.285.04.455 0 .348-.096.6-.288.756-.187.161-.441.241-.763.241h-.642Zm29.96 9c-.321 0-.578-.08-.77-.241-.187-.156-.281-.408-.281-.756 0-.17.011-.321.034-.455.027-.138.051-.286.073-.442.027-.156.041-.343.041-.562 0-.192-.052-.343-.154-.455-.098-.116-.261-.174-.489-.174h-.314v-.495h.314c.228 0 .391-.056.489-.167.102-.116.154-.27.154-.462 0-.223-.014-.41-.041-.562-.022-.156-.046-.301-.073-.435-.023-.138-.034-.292-.034-.462 0-.348.094-.6.281-.756.192-.161.449-.241.77-.241h.642v.495h-.582c-.183 0-.323.045-.421.134-.099.085-.148.228-.148.428 0 .179.012.335.034.469.027.129.051.263.073.401.027.134.041.297.041.489 0 .236-.052.433-.154.589-.103.151-.237.256-.402.314v.027c.165.058.299.165.402.321.102.152.154.346.154.582 0 .192-.014.357-.041.495-.022.134-.046.268-.073.402-.022.129-.034.283-.034.462 0 .2.049.343.148.428.098.089.238.134.421.134h.582v.495h-.642Zm15.206 36c-.205 0-.364-.056-.475-.167-.107-.112-.161-.27-.161-.475v-5.38c0-.206.054-.364.161-.476.111-.111.27-.167.475-.167h1.064v.495h-1.01c-.108 0-.161.056-.161.168v5.333c0 .111.053.167.161.167h1.01v.502h-1.064Zm3.403 0v-.502h1.011c.107 0 .16-.056.16-.167v-5.333c0-.112-.053-.168-.16-.168h-1.011v-.495h1.064c.206 0 .362.056.469.167.111.112.167.27.167.476v5.38c0 .205-.056.363-.167.475-.107.111-.263.167-.469.167h-1.064Zm-52.581 9v-.495h.582c.183 0 .323-.045.422-.134.098-.085.147-.228.147-.428 0-.179-.014-.333-.04-.462-.023-.134-.047-.268-.074-.402-.022-.138-.033-.303-.033-.495 0-.236.051-.43.153-.582.103-.156.237-.263.402-.321v-.027c-.165-.058-.299-.163-.402-.314-.102-.156-.153-.353-.153-.589 0-.192.011-.355.033-.489.027-.138.051-.272.074-.401.026-.134.04-.29.04-.469 0-.2-.049-.343-.147-.428-.099-.089-.239-.134-.422-.134h-.582v-.495h.642c.321 0 .576.08.763.241.192.156.288.408.288.756 0 .17-.014.324-.04.462-.023.134-.047.279-.074.435-.022.152-.033.339-.033.562 0 .192.049.346.147.462.102.111.267.167.495.167h.314v.495h-.314c-.228 0-.393.058-.495.174-.098.112-.147.263-.147.455 0 .219.011.406.033.562.027.156.051.304.074.442.026.134.04.285.04.455 0 .348-.096.6-.288.756-.187.161-.442.241-.763.241h-.642Zm-8.025 9v-.495h.582c.183 0 .324-.045.422-.134.098-.085.147-.228.147-.428 0-.179-.013-.333-.04-.462-.022-.134-.047-.268-.074-.402-.022-.138-.033-.303-.033-.495 0-.236.051-.43.154-.582.102-.156.236-.263.401-.321v-.027c-.165-.058-.299-.163-.401-.314-.103-.156-.154-.353-.154-.589 0-.192.011-.355.033-.489.027-.138.052-.272.074-.401.027-.134.04-.29.04-.469 0-.2-.049-.343-.147-.428-.098-.089-.239-.134-.422-.134h-.582v-.495h.643c.321 0 .575.08.762.241.192.156.288.408.288.756 0 .17-.013.324-.04.462-.022.134-.047.279-.074.435-.022.152-.033.339-.033.562 0 .192.049.346.147.462.103.111.268.167.495.167h.315v.495h-.315c-.227 0-.392.058-.495.174-.098.112-.147.263-.147.455 0 .219.011.406.033.562.027.156.052.304.074.442.027.134.04.285.04.455 0 .348-.096.6-.288.756-.187.161-.441.241-.762.241h-.643Z"/><rect width="185.08" height="3" x="379.425" y="41.29" fill="#475569" opacity=".25" rx="1.40416"/><rect width="84.4746" height="3" x="386.538" y="49.7585" fill="#475569" opacity=".25" rx="1.40416"/><rect width="33.6641" height="3" x="379.425" y="60" fill="#475569" opacity=".25" rx="1.40416"/><rect width="26.5508" height="3" x="386.538" y="68.469" fill="#475569" opacity=".25" rx="1.40416"/><rect width="91.6494" height="3" x="394.174" y="76.938" fill="#475569" opacity=".25" rx="1.40416"/><rect width="91.6494" height="3" x="394.174" y="85.407" fill="#475569" opacity=".25" rx="1.40416"/><rect width="26.0254" height="3" x="390.804" y="106" fill="#475569" opacity=".25" rx="1.40416"/><rect width="53.1162" height="3" x="394.174" y="114.469" fill="#475569" opacity=".25" rx="1.40416"/><rect width="44.0039" height="3" x="394.174" y="122.938" fill="#475569" opacity=".25" rx="1.40416"/><rect width="68.0479" height="3" x="413.089" y="133" fill="#475569" opacity=".25" rx="1.40416"/><rect width="41.2314" height="3" x="413.089" y="141.469" fill="#475569" opacity=".25" rx="1.40416"/><rect width="41.2314" height="3" x="413.089" y="151" fill="#475569" opacity=".25" rx="1.40416"/><rect width="41.2314" height="3" x="413.089" y="159" fill="#475569" opacity=".25" rx="1.40416"/><rect width="57.0479" height="3" x="428.775" y="176.5" fill="#475569" opacity=".25" rx="1.40416"/><rect width="57.0479" height="3" x="428.775" y="184.5" fill="#475569" opacity=".25" rx="1.40416"/><rect width="27.8877" height="3" x="386.858" y="240.5" fill="#475569" opacity=".25" rx="1.40416"/><rect width="46.2314" height="3" x="394.669" y="249" fill="#475569" opacity=".25" rx="1.40416"/><rect width="67.2012" height="3" x="394.669" y="258" fill="#475569" opacity=".12" rx="1.40416"/><rect width="42.7275" height="3" x="394.669" y="267.531" fill="#475569" opacity=".12" rx="1.40416"/><rect width="34.1064" height="3" x="394.669" y="275.531" fill="#475569" opacity=".12" rx="1.40416"/><path fill="#fff" d="M12.5223 16.8291v-4.9145h.7021v2.1343l1.9658-2.1343h.8776l-1.8254 1.9517 1.8605 2.9628h-.8566l-1.5024-2.4151-.5195.5546v1.8605h-.7021Zm5.711 0-1.8254-4.9145h.7582l1.4884 4.1843 1.5025-4.1843h.7442l-1.8254 4.9145h-.8425Z"/><path stroke="#E2E8F0" stroke-linecap="round" stroke-linejoin="round" stroke-width=".438799" d="M33.125 13.866h1.3164v-1.3164"/><path stroke="#E2E8F0" stroke-linecap="round" stroke-linejoin="round" stroke-width=".438799" d="m34.4414 13.866-.7756-.7756c-.4491-.4492-1.0572-.7031-1.6924-.7068-.6352-.0037-1.2462.2432-1.7006.687M30.9307 15.6211h-1.3164v1.3164"/><path stroke="#E2E8F0" stroke-linecap="round" stroke-linejoin="round" stroke-width=".438799" d="m29.6146 15.6211.7756.7756c.4491.4491 1.0573.7031 1.6924.7068.6352.0037 1.2463-.2432 1.7006-.6871M17.9336 40.6638h-4.8268M15.5195 38.2502v4.8268"/><rect width="8.42494" height="8.42494" x="301.5" y="10.4355" fill="#475569" rx="1.40416"/><rect width="8.42494" height="8.42494" x="318.351" y="10.4355" fill="#475569" rx="1.40416"/><path fill="#CBD5E1" d="M26.2625 43.1741v-4.9146h.7021l2.5064 3.7702v-3.7702h.7021v4.9146h-.7021l-2.5064-3.7632v3.7632h-.7021Zm6.5021.0842c-.337 0-.6365-.0772-.8986-.2317-.2621-.1544-.4681-.3697-.6179-.6459-.145-.2761-.2176-.5967-.2176-.9618 0-.3745.0726-.6998.2176-.9759.1498-.2808.3558-.4985.6179-.6529.2621-.1592.5663-.2388.9127-.2388.3463 0 .6435.0773.8916.2317.2481.1545.44.3604.5757.6179.1358.2527.2036.5335.2036.8425 0 .0468-.0023.0982-.007.1544 0 .0515-.0023.11-.007.1755H31.543v-.4984h2.2045c-.014-.2949-.1123-.5243-.2948-.6881-.1826-.1685-.4096-.2527-.681-.2527-.1919 0-.3675.0444-.5266.1334-.1591.0842-.2879.2106-.3861.3791-.0937.1638-.1405.3721-.1405.6248v.1966c0 .2621.0468.4845.1405.667.0982.1779.227.3136.3861.4072.1591.0889.3323.1334.5195.1334.2247 0 .4096-.0491.5547-.1474.1451-.0983.2527-.2317.3229-.4002h.7021c-.0608.2153-.1638.4095-.3089.5827-.1451.1685-.3253.3019-.5406.4002-.2106.0983-.454.1474-.7302.1474Zm3.044-.0842-1.039-3.5385h.695l.7723 2.9487-.1334-.007.8565-2.9417h.7864l.8565 2.9417-.1334.007.7653-2.9487h.7091l-1.0391 3.5385h-.7231l-.8987-3.0681h.1404l-.8986 3.0681h-.7162Zm8.7908 0-1.6288-1.9378 1.4744-1.6007h.8495l-1.7552 1.8745v-.5265l1.9447 2.1905h-.8846Zm-2.2256 0v-5.055h.7021v5.055h-.7021Zm5.0357.0842c-.337 0-.6365-.0772-.8986-.2317-.2621-.1544-.4681-.3697-.6178-.6459-.1451-.2761-.2177-.5967-.2177-.9618 0-.3745.0726-.6998.2177-.9759.1497-.2808.3557-.4985.6178-.6529.2621-.1592.5663-.2388.9127-.2388.3463 0 .6436.0773.8916.2317.2481.1545.44.3604.5757.6179.1358.2527.2036.5335.2036.8425 0 .0468-.0023.0982-.007.1544 0 .0515-.0023.11-.007.1755h-2.8926v-.4984h2.2046c-.0141-.2949-.1124-.5243-.2949-.6881-.1826-.1685-.4096-.2527-.681-.2527-.1919 0-.3675.0444-.5266.1334-.1591.0842-.2878.2106-.3861.3791-.0936.1638-.1405.3721-.1405.6248v.1966c0 .2621.0469.4845.1405.667.0983.1779.227.3136.3861.4072.1591.0889.3323.1334.5195.1334.2247 0 .4096-.0491.5547-.1474.1451-.0983.2527-.2317.3229-.4002h.7021c-.0608.2153-.1638.4095-.3089.5827-.1451.1685-.3253.3019-.5406.4002-.2106.0983-.454.1474-.7302.1474Zm2.7214 1.4603.8636-1.9377h-.2036l-1.3972-3.1453h.7583l1.1093 2.5696 1.1163-2.5696h.7372l-2.2467 5.083h-.7372Z"/><path stroke="#E2E8F0" stroke-opacity=".08" d="M1.94629 50.8928H339.789M340.788 27.4136h240.713"/><path stroke="#E2E8F0" stroke-linecap="round" stroke-linejoin="round" stroke-width=".438799" d="M15.0817 63.8567c1.2117 0 2.194-.9822 2.194-2.194 0-1.2117-.9823-2.1939-2.194-2.1939s-2.194.9822-2.194 2.1939c0 1.2118.9823 2.194 2.194 2.194ZM16.6328 63.2141l1.5202 1.5202"/><path fill="#CBD5E1" d="M26.2625 64.6118v-4.9145h3.0541v.5757h-2.352v1.5937h1.9658v.5617h-1.9658v2.1834h-.7021Zm3.8193 0v-3.5385h.702v3.5385h-.702Zm.358-4.2054c-.1357 0-.248-.0422-.337-.1264-.0842-.0843-.1263-.1919-.1263-.323 0-.1263.0421-.2293.1263-.3089.089-.0842.2013-.1263.337-.1263.1311 0 .2411.0421.33.1263.0889.0796.1334.1826.1334.3089 0 .1311-.0445.2387-.1334.323-.0889.0842-.1989.1264-.33.1264Zm1.348 4.2054v-5.0549h.7021v5.0549h-.7021Zm3.1264 0c-.2247 0-.4189-.0351-.5827-.1053-.1638-.0702-.2902-.1872-.3791-.351-.089-.1639-.1334-.3862-.1334-.667v-1.8184h-.6108v-.5968h.6108l.0842-.8846h.6178v.8846h1.004v.5968h-1.004v1.8254c0 .2013.0422.3394.1264.4142.0843.0702.2294.1054.4353.1054h.4072v.5967h-.5757Zm2.8898.0843c-.337 0-.6366-.0773-.8987-.2317-.2621-.1545-.468-.3698-.6178-.6459-.1451-.2762-.2177-.5968-.2177-.9619 0-.3744.0726-.6997.2177-.9759.1498-.2808.3557-.4984.6178-.6529.2621-.1591.5663-.2387.9127-.2387.3464 0 .6436.0772.8916.2317.2481.1544.44.3604.5758.6178.1357.2528.2036.5336.2036.8425 0 .0468-.0024.0983-.0071.1545 0 .0514-.0023.11-.007.1755h-2.8925v-.4985h2.2045c-.0141-.2949-.1124-.5242-.2949-.688-.1825-.1685-.4095-.2528-.681-.2528-.1919 0-.3674.0445-.5266.1334-.1591.0843-.2878.2106-.3861.3791-.0936.1639-.1404.3721-.1404.6249v.1966c0 .2621.0468.4844.1404.6669.0983.1779.227.3136.3861.4072.1592.089.3323.1334.5196.1334.2246 0 .4095-.0491.5546-.1474s.2528-.2317.323-.4002h.702c-.0608.2153-.1638.4096-.3089.5827-.1451.1685-.3253.3019-.5406.4002-.2106.0983-.454.1475-.7301.1475Zm2.465-.0843v-3.5385h.6318l.0632.667c.0796-.1591.1826-.2925.3089-.4002.1264-.1123.2739-.1989.4424-.2597.1731-.0609.3697-.0913.5897-.0913v.7442h-.2527c-.1451 0-.2832.0187-.4143.0562-.131.0327-.248.0912-.351.1755-.0983.0842-.1755.1989-.2317.344-.0562.1451-.0842.3253-.0842.5406v1.7622h-.7021Zm6.7027 0-1.6288-1.9377 1.4743-1.6008h.8495l-1.7552 1.8746v-.5266l1.9448 2.1905h-.8846Zm-2.2256 0v-5.0549h.7021v5.0549h-.7021Zm5.0357.0843c-.337 0-.6366-.0773-.8987-.2317-.2621-.1545-.468-.3698-.6178-.6459-.1451-.2762-.2176-.5968-.2176-.9619 0-.3744.0725-.6997.2176-.9759.1498-.2808.3557-.4984.6178-.6529.2621-.1591.5664-.2387.9127-.2387.3464 0 .6436.0772.8917.2317.248.1544.44.3604.5757.6178.1357.2528.2036.5336.2036.8425 0 .0468-.0024.0983-.007.1545 0 .0514-.0024.11-.0071.1755h-2.8925v-.4985h2.2045c-.014-.2949-.1123-.5242-.2949-.688-.1825-.1685-.4095-.2528-.681-.2528-.1919 0-.3674.0445-.5265.1334-.1592.0843-.2879.2106-.3862.3791-.0936.1639-.1404.3721-.1404.6249v.1966c0 .2621.0468.4844.1404.6669.0983.1779.227.3136.3862.4072.1591.089.3323.1334.5195.1334.2247 0 .4095-.0491.5546-.1474s.2528-.2317.323-.4002h.7021c-.0609.2153-.1638.4096-.3089.5827-.1451.1685-.3253.3019-.5406.4002-.2107.0983-.454.1475-.7302.1475Zm2.7214 1.4603.8635-1.9377h-.2036l-1.3971-3.1454h.7582l1.1093 2.5696 1.1163-2.5696h.7372l-2.2466 5.0831h-.7372Zm4.7807-1.4603c-.2995 0-.5616-.0492-.7863-.1475-.2246-.0983-.4025-.2363-.5336-.4142-.131-.1779-.2106-.3861-.2387-.6248h.7162c.0234.1123.0678.2153.1333.3089.0703.0936.1639.1685.2809.2246.1217.0562.2644.0843.4282.0843.1545 0 .2809-.0211.3792-.0632.1029-.0468.1778-.1077.2246-.1825.0468-.0796.0702-.1639.0702-.2528 0-.131-.0327-.2293-.0983-.2949-.0608-.0702-.1544-.124-.2808-.1614-.1217-.0422-.2691-.0796-.4423-.1124-.1638-.0281-.3229-.0655-.4774-.1123-.1498-.0515-.2855-.1147-.4072-.1896-.117-.0749-.2106-.1685-.2808-.2808-.0702-.117-.1054-.2598-.1054-.4283 0-.2012.0539-.3814.1615-.5406.1077-.1638.2598-.2902.4564-.3791.2012-.0936.4376-.1404.7091-.1404.3931 0 .7091.0936.9478.2808.2387.1872.3791.4517.4212.7934h-.681c-.0187-.1592-.0889-.2809-.2106-.3651-.1217-.0889-.2832-.1334-.4844-.1334-.2013 0-.3558.0398-.4634.1194-.1077.0795-.1615.1848-.1615.3159 0 .0842.0304.1591.0913.2247.0608.0655.1498.1216.2668.1684.1217.0422.2691.082.4423.1194.248.0468.4704.1053.6669.1755.1966.0702.3534.1732.4704.3089.1171.1358.1756.33.1756.5828.0046.2199-.0515.4142-.1685.5827-.1124.1685-.2739.2995-.4845.3932-.2059.0936-.4516.1404-.7372.1404Z"/><path stroke="#E2E8F0" stroke-opacity=".08" d="M1.94434 74.3306H339.79"/><rect width="7.39522" height="7.39522" x="523.803" y="9.86597" fill="#475569" rx="1.23254"/><rect width="7.39522" height="7.39522" x="559.803" y="9.86597" fill="#475569" rx="1.23254"/><rect width="34" height="12" x="520.803" y="7.86597" fill="#334155" fill-opacity=".28" rx="2.46507"/><rect width="18" height="2" x="533.803" y="12.866" fill="#475569" rx="1"/><path stroke="url(#h)" stroke-opacity=".08" d="M340.29 1.13477V242.424"/><path stroke="url(#i)" stroke-opacity=".08" d="M368.325 27.9128V269.202"/><rect width="59.1484" height="3" x="12.0098" y="81.6584" fill="#475569" rx="1.40416"/><path stroke="#E2E8F0" stroke-opacity=".08" d="M1.94238 92.4341H339.79"/><rect width="11.8447" height="3" x="12.0098" y="99.6584" fill="#475569" rx="1.40416"/><path stroke="#E2E8F0" stroke-opacity=".08" d="M1.94531 110.434H339.789"/><rect width="18.4902" height="3" x="12.0098" y="117.658" fill="#475569" rx="1.40416"/><path stroke="#E2E8F0" stroke-opacity=".08" d="M1.9502 127.434H339.789"/><rect width="43.4521" height="3" x="12.0098" y="135.658" fill="#475569" rx="1.40416"/><path stroke="#E2E8F0" stroke-opacity=".08" d="M1.98242 145.434H339.79"/><rect width="52.6152" height="3" x="12.0098" y="153.658" fill="#475569" rx="1.40416"/><path stroke="#E2E8F0" stroke-opacity=".08" d="M2.23438 163.434H339.789"/><rect width="52.6152" height="3" x="12.0098" y="170.658" fill="#475569" rx="1.40416"/><path fill="#475569" d="M2.45117 180.945h337.338v18.7239H2.45117z" opacity=".14"/><path stroke="#E2E8F0" stroke-opacity=".08" d="M2.45117 180.434H339.789"/><rect width="52.6152" height="3" x="10.3604" y="188.658" fill="#64748B" rx="1.40416"/><rect width="52.6152" height="3" x="346.995" y="12.366" fill="#64748B" rx="1.40416"/></g><defs><linearGradient id="b" x1="290.763" x2="290.763" y1="0" y2="292.064" gradientUnits="userSpaceOnUse"><stop stop-color="#020420"/><stop offset="1" stop-color="#020420" stop-opacity="0"/></linearGradient><linearGradient id="c" x1="290.763" x2="290.763" y1="0" y2="292.064" gradientUnits="userSpaceOnUse"><stop stop-color="#0F172A"/><stop offset="1" stop-color="#0F172A" stop-opacity="0"/></linearGradient><linearGradient id="d" x1="217.54" x2="183.671" y1=".00001402" y2="224.058" gradientUnits="userSpaceOnUse"><stop stop-color="#E2E8F0"/><stop offset="1" stop-color="#E2E8F0" stop-opacity="0"/></linearGradient><linearGradient id="f" x1="355.191" x2="355.191" y1="30" y2="300" gradientUnits="userSpaceOnUse"><stop stop-color="#64748B"/><stop offset="1" stop-color="#64748B" stop-opacity="0"/></linearGradient><linearGradient id="g" x1="526.597" x2="526.597" y1="30" y2="309" gradientUnits="userSpaceOnUse"><stop stop-color="#94A3B8"/><stop offset="1" stop-color="#94A3B8" stop-opacity="0"/></linearGradient><linearGradient id="h" x1="339.79" x2="339.79" y1="1.13477" y2="242.424" gradientUnits="userSpaceOnUse"><stop stop-color="#E2E8F0"/><stop offset="1" stop-color="#E2E8F0" stop-opacity="0"/></linearGradient><linearGradient id="i" x1="367.825" x2="367.825" y1="27.9128" y2="269.202" gradientUnits="userSpaceOnUse"><stop stop-color="#E2E8F0"/><stop offset="1" stop-color="#E2E8F0" stop-opacity="0"/></linearGradient><radialGradient id="e" cx="0" cy="0" r="1" gradientTransform="rotate(63.2379 88.13746382 127.18640746) scale(286.41 605.008)" gradientUnits="userSpaceOnUse"><stop stop-color="#E2E8F0" stop-opacity=".56"/><stop offset=".9999" stop-color="#A1A1AA" stop-opacity=".01"/><stop offset="1" stop-color="#E2E8F0" stop-opacity="0"/></radialGradient><clipPath id="a"><rect width="581" height="310" x=".5" fill="#fff" rx="8"/></clipPath></defs></svg>
