<svg xmlns="http://www.w3.org/2000/svg" width="24" height="24" fill="none"><rect width="23" height="23" x=".5" y=".5" fill="url(#a)" fill-opacity=".06" rx="3.5"/><rect width="23" height="23" x=".5" y=".5" stroke="url(#b)" rx="3.5"/><path fill="#00C16A" d="M17.1562 6.6035H6.8438a.9375.9375 0 0 0-.9375.9375v8.4375a.9373.9373 0 0 0 .9375.9375h10.3124a.9378.9378 0 0 0 .9376-.9375V7.541a.9376.9376 0 0 0-.9376-.9375Zm0 9.375H6.8438V7.541h10.3124v8.4375ZM9.1875 9.1816a.7031.7031 0 1 1-1.4063 0 .7031.7031 0 0 1 1.4063 0Zm2.3437 0a.7033.7033 0 0 1-1.3927.1372.7035.7035 0 0 1 .299-.7218.703.703 0 0 1 1.0937.5846Z"/><defs><linearGradient id="a" x1="12" x2="12" y1="0" y2="24" gradientUnits="userSpaceOnUse"><stop stop-color="#00DC82"/><stop offset="1" stop-color="#00DC82" stop-opacity=".1"/></linearGradient><linearGradient id="b" x1="12" x2="12" y1="0" y2="24" gradientUnits="userSpaceOnUse"><stop stop-color="#00C16A"/><stop offset="1" stop-color="#00C16A" stop-opacity=".1"/></linearGradient></defs></svg>
