<svg xmlns="http://www.w3.org/2000/svg" width="24" height="24" fill="none"><rect width="23" height="23" x=".5" y=".5" fill="url(#a)" fill-opacity=".06" rx="3.5"/><rect width="23" height="23" x=".5" y=".5" stroke="url(#b)" rx="3.5"/><path fill="#00C16A" d="M18.9908 11.5699c-.0205-.0463-.5168-1.1472-1.6201-2.2506-1.4701-1.47-3.327-2.247-5.3707-2.247-2.0438 0-3.9006.777-5.3707 2.247-1.1033 1.1034-1.602 2.2061-1.6201 2.2506a.469.469 0 0 0 0 .3809c.0205.0463.5168 1.1467 1.62 2.25 1.4702 1.4695 3.327 2.2465 5.3708 2.2465 2.0437 0 3.9006-.777 5.3707-2.2465 1.1033-1.1033 1.5996-2.2037 1.6201-2.25a.468.468 0 0 0 0-.3809ZM12 15.5098c-1.8035 0-3.3791-.6557-4.6834-1.9483a7.8213 7.8213 0 0 1-1.3518-1.8017A7.8098 7.8098 0 0 1 7.3166 9.958C8.6209 8.6654 10.1965 8.0098 12 8.0098c1.8035 0 3.3791.6556 4.6834 1.9482a7.82 7.82 0 0 1 1.3547 1.8018c-.4225.7886-2.2629 3.75-6.0381 3.75Zm0-6.5625a2.8122 2.8122 0 0 0-2.5984 1.7362 2.8124 2.8124 0 1 0 5.4109 1.0763A2.8156 2.8156 0 0 0 12 8.9473Zm0 4.6875a1.8752 1.8752 0 0 1-1.839-2.2408 1.8755 1.8755 0 0 1 1.4732-1.4732A1.875 1.875 0 1 1 12 13.6348Z"/><defs><linearGradient id="a" x1="12" x2="12" y1="0" y2="24" gradientUnits="userSpaceOnUse"><stop stop-color="#00DC82"/><stop offset="1" stop-color="#00DC82" stop-opacity=".1"/></linearGradient><linearGradient id="b" x1="12" x2="12" y1="0" y2="24" gradientUnits="userSpaceOnUse"><stop stop-color="#00C16A"/><stop offset="1" stop-color="#00C16A" stop-opacity=".1"/></linearGradient></defs></svg>
