<svg width="24" height="24" viewBox="0 0 24 24" fill="none" xmlns="http://www.w3.org/2000/svg">
<rect x="0.5" y="0.5" width="23" height="23" rx="3.5" fill="url(#paint0_linear_299_43947)" fill-opacity="0.2"/>
<rect x="0.5" y="0.5" width="23" height="23" rx="3.5" stroke="url(#paint1_linear_299_43947)"/>
<path d="M17.1562 6.60352H6.84375C6.59511 6.60352 6.35665 6.70229 6.18084 6.8781C6.00502 7.05392 5.90625 7.29238 5.90625 7.54102V15.9785C5.90625 16.2272 6.00502 16.4656 6.18084 16.6414C6.35665 16.8172 6.59511 16.916 6.84375 16.916H17.1562C17.4049 16.916 17.6433 16.8172 17.8192 16.6414C17.995 16.4656 18.0938 16.2272 18.0938 15.9785V7.54102C18.0938 7.29238 17.995 7.05392 17.8192 6.8781C17.6433 6.70229 17.4049 6.60352 17.1562 6.60352ZM17.1562 15.9785H6.84375V7.54102H17.1562V15.9785ZM9.1875 9.18164C9.1875 9.32071 9.14626 9.45665 9.069 9.57228C8.99174 9.6879 8.88193 9.77803 8.75345 9.83124C8.62497 9.88446 8.48359 9.89839 8.3472 9.87126C8.21081 9.84413 8.08552 9.77716 7.98719 9.67883C7.88886 9.58049 7.82189 9.45521 7.79476 9.31881C7.76763 9.18242 7.78155 9.04105 7.83477 8.91257C7.88799 8.78409 7.97811 8.67427 8.09374 8.59701C8.20937 8.51975 8.34531 8.47852 8.48438 8.47852C8.67086 8.47852 8.8497 8.55259 8.98156 8.68446C9.11342 8.81632 9.1875 8.99516 9.1875 9.18164ZM11.5312 9.18164C11.5312 9.32071 11.49 9.45665 11.4128 9.57228C11.3355 9.6879 11.2257 9.77803 11.0972 9.83124C10.9687 9.88446 10.8273 9.89839 10.691 9.87126C10.5546 9.84413 10.4293 9.77716 10.3309 9.67883C10.2326 9.58049 10.1656 9.45521 10.1385 9.31881C10.1114 9.18242 10.1253 9.04105 10.1785 8.91257C10.2317 8.78409 10.3219 8.67427 10.4375 8.59701C10.5531 8.51975 10.6891 8.47852 10.8281 8.47852C11.0146 8.47852 11.1934 8.55259 11.3253 8.68446C11.4572 8.81632 11.5312 8.99516 11.5312 9.18164Z" fill="#00DC82"/>
<defs>
<linearGradient id="paint0_linear_299_43947" x1="12" y1="0" x2="12" y2="24" gradientUnits="userSpaceOnUse">
<stop stop-color="#00DC82"/>
<stop offset="1" stop-color="#00DC82" stop-opacity="0.1"/>
</linearGradient>
<linearGradient id="paint1_linear_299_43947" x1="12" y1="0" x2="12" y2="24" gradientUnits="userSpaceOnUse">
<stop stop-color="#00DC82"/>
<stop offset="1" stop-color="#00DC82" stop-opacity="0.1"/>
</linearGradient>
</defs>
</svg>
