<svg xmlns="http://www.w3.org/2000/svg" width="24" height="24" fill="none"><rect width="23" height="23" x=".5" y=".5" fill="url(#a)" fill-opacity=".06" rx="3.5"/><rect width="23" height="23" x=".5" y=".5" stroke="url(#b)" rx="3.5"/><g clip-path="url(#c)"><path fill="#00C16A" d="M12 4.4453c-4.1437 0-7.5 3.3581-7.5 7.5 0 3.3144 2.1487 6.125 5.1281 7.1156.375.0707.5125-.1612.5125-.3606 0-.1781-.0062-.65-.0093-1.275-2.0863.4525-2.5263-1.0062-2.5263-1.0062-.3413-.8657-.8344-1.0969-.8344-1.0969-.6794-.465.0525-.4556.0525-.4556.7531.0525 1.1488.7725 1.1488.7725.6687 1.1468 1.7556.8156 2.1843.6237.0676-.485.2607-.8156.4751-1.0031-1.6657-.1875-3.4163-.8325-3.4163-3.7063 0-.8187.2906-1.4875.7719-2.0125-.0844-.1893-.3375-.9518.0656-1.985 0 0 .6281-.2012 2.0625.7688.6-.1669 1.2375-.2494 1.875-.2531.6375.0037 1.275.0862 1.875.253 1.425-.97 2.0531-.7687 2.0531-.7687.4031 1.0332.15 1.7957.075 1.985.4781.525.7688 1.1938.7688 2.0125 0 2.8813-1.7532 3.5157-3.4219 3.7.2625.225.5063.685.5063 1.3875 0 1.0038-.0094 1.81-.0094 2.0538 0 .1969.1312.4312.5156.3562 3.0006-.9837 5.1475-3.7962 5.1475-7.1056 0-4.1419-3.3581-7.5-7.5-7.5Z"/></g><defs><linearGradient id="a" x1="12" x2="12" y1="0" y2="24" gradientUnits="userSpaceOnUse"><stop stop-color="#00DC82"/><stop offset="1" stop-color="#00DC82" stop-opacity=".1"/></linearGradient><linearGradient id="b" x1="12" x2="12" y1="0" y2="24" gradientUnits="userSpaceOnUse"><stop stop-color="#00C16A"/><stop offset="1" stop-color="#00C16A" stop-opacity=".1"/></linearGradient><clipPath id="c"><path fill="#fff" d="M4.5 4.2598h15v15h-15z"/></clipPath></defs></svg>
