<svg width="24" height="24" viewBox="0 0 24 24" fill="none" xmlns="http://www.w3.org/2000/svg">
<rect x="0.5" y="0.5" width="23" height="23" rx="3.5" fill="url(#paint0_linear_299_43943)" fill-opacity="0.2"/>
<rect x="0.5" y="0.5" width="23" height="23" rx="3.5" stroke="url(#paint1_linear_299_43943)"/>
<path d="M13.2692 12.366C13.2256 12.3224 13.1739 12.2878 13.117 12.2642C13.0601 12.2407 12.9991 12.2285 12.9375 12.2285C12.8759 12.2285 12.8149 12.2407 12.758 12.2642C12.7011 12.2878 12.6494 12.3224 12.6059 12.366L11.5313 13.4412L10.319 12.2289L11.3942 11.1543C11.4821 11.0663 11.5315 10.947 11.5315 10.8226C11.5315 10.6982 11.4821 10.5789 11.3942 10.491C11.3062 10.403 11.1869 10.3536 11.0625 10.3536C10.9381 10.3536 10.8188 10.403 10.7309 10.491L9.65627 11.5662L8.58166 10.491C8.4937 10.403 8.37441 10.3536 8.25002 10.3536C8.12563 10.3536 8.00633 10.403 7.91838 10.491C7.83042 10.579 7.78101 10.6982 7.78101 10.8226C7.78101 10.947 7.83042 11.0663 7.91838 11.1543L8.29045 11.5258L6.92404 12.8916C6.74988 13.0657 6.61173 13.2724 6.51748 13.4999C6.42323 13.7274 6.37471 13.9713 6.37471 14.2176C6.37471 14.4638 6.42323 14.7077 6.51748 14.9352C6.61173 15.1627 6.74988 15.3694 6.92404 15.5435L7.23927 15.8582L5.57463 17.5222C5.53107 17.5658 5.49653 17.6175 5.47296 17.6744C5.44939 17.7313 5.43726 17.7923 5.43726 17.8539C5.43726 17.9155 5.44939 17.9765 5.47296 18.0334C5.49653 18.0903 5.53107 18.142 5.57463 18.1855C5.66258 18.2735 5.78188 18.3229 5.90627 18.3229C5.96786 18.3229 6.02885 18.3108 6.08575 18.2872C6.14265 18.2636 6.19436 18.2291 6.23791 18.1855L7.90197 16.5209L8.21662 16.8361C8.39073 17.0103 8.59745 17.1484 8.82496 17.2427C9.05248 17.3369 9.29633 17.3854 9.54259 17.3854C9.78886 17.3854 10.0327 17.3369 10.2602 17.2427C10.4877 17.1484 10.6945 17.0103 10.8686 16.8361L12.2344 15.4697L12.6059 15.8418C12.6494 15.8853 12.7011 15.9199 12.758 15.9434C12.8149 15.967 12.8759 15.9791 12.9375 15.9791C12.9991 15.9791 13.0601 15.967 13.117 15.9434C13.1739 15.9199 13.2256 15.8853 13.2692 15.8418C13.3127 15.7982 13.3473 15.7465 13.3708 15.6896C13.3944 15.6327 13.4065 15.5717 13.4065 15.5101C13.4065 15.4485 13.3944 15.3876 13.3708 15.3307C13.3473 15.2737 13.3127 15.222 13.2692 15.1785L12.194 14.1039L13.2692 13.0293C13.3127 12.9857 13.3473 12.934 13.3709 12.8771C13.3945 12.8202 13.4066 12.7592 13.4066 12.6976C13.4066 12.636 13.3945 12.575 13.3709 12.5181C13.3473 12.4612 13.3127 12.4095 13.2692 12.366ZM10.2053 16.1746C10.0295 16.3503 9.79113 16.449 9.54259 16.449C9.29406 16.449 9.0557 16.3503 8.8799 16.1746L7.58732 14.8803C7.41164 14.7045 7.31295 14.4661 7.31295 14.2176C7.31295 13.969 7.41164 13.7307 7.58732 13.5549L8.95314 12.1885L11.5717 14.807L10.2053 16.1746ZM18.4254 5.33474C18.3819 5.29116 18.3302 5.25659 18.2733 5.233C18.2164 5.20941 18.1554 5.19727 18.0938 5.19727C18.0322 5.19727 17.9712 5.20941 17.9143 5.233C17.8574 5.25659 17.8057 5.29116 17.7621 5.33474L16.0981 6.99939L15.7834 6.68416C15.4314 6.33315 14.9546 6.13604 14.4574 6.13604C13.9603 6.13604 13.4835 6.33315 13.1315 6.68416L11.7656 8.05056L11.3942 7.67849C11.3062 7.59054 11.1869 7.54112 11.0625 7.54112C10.9381 7.54112 10.8188 7.59054 10.7309 7.67849C10.6429 7.76645 10.5935 7.88575 10.5935 8.01013C10.5935 8.13452 10.6429 8.25382 10.7309 8.34178L15.4184 13.0293C15.4619 13.0728 15.5136 13.1074 15.5705 13.1309C15.6274 13.1545 15.6884 13.1666 15.75 13.1666C15.8116 13.1666 15.8726 13.1545 15.9295 13.1309C15.9864 13.1074 16.0381 13.0728 16.0817 13.0293C16.1252 12.9857 16.1598 12.934 16.1833 12.8771C16.2069 12.8202 16.219 12.7592 16.219 12.6976C16.219 12.636 16.2069 12.5751 16.1833 12.5182C16.1598 12.4612 16.1252 12.4095 16.0817 12.366L15.7096 11.9945L17.076 10.6287C17.2501 10.4546 17.3883 10.2479 17.4826 10.0203C17.5768 9.79283 17.6253 9.54898 17.6253 9.30271C17.6253 9.05645 17.5768 8.8126 17.4826 8.58508C17.3883 8.35757 17.2501 8.15085 17.076 7.97674L16.7608 7.66209L18.4254 5.99803C18.469 5.95449 18.5036 5.90279 18.5272 5.84589C18.5507 5.78898 18.5629 5.72799 18.5629 5.66638C18.5629 5.60478 18.5507 5.54379 18.5272 5.48688C18.5036 5.42998 18.469 5.37828 18.4254 5.33474ZM16.4127 9.96365L15.0469 11.3318L12.4283 8.71326L13.7947 7.34744C13.9705 7.17176 14.2089 7.07307 14.4574 7.07307C14.706 7.07307 14.9443 7.17176 15.1201 7.34744L16.4127 8.6365C16.5002 8.72361 16.5697 8.82715 16.6171 8.94118C16.6644 9.05521 16.6888 9.17747 16.6888 9.30095C16.6888 9.42444 16.6644 9.5467 16.6171 9.66073C16.5697 9.77475 16.5002 9.8783 16.4127 9.96541V9.96365Z" fill="#00DC82"/>
<defs>
<linearGradient id="paint0_linear_299_43943" x1="12" y1="0" x2="12" y2="24" gradientUnits="userSpaceOnUse">
<stop stop-color="#00DC82"/>
<stop offset="1" stop-color="#00DC82" stop-opacity="0.1"/>
</linearGradient>
<linearGradient id="paint1_linear_299_43943" x1="12" y1="0" x2="12" y2="24" gradientUnits="userSpaceOnUse">
<stop stop-color="#00DC82"/>
<stop offset="1" stop-color="#00DC82" stop-opacity="0.1"/>
</linearGradient>
</defs>
</svg>
