<svg xmlns="http://www.w3.org/2000/svg" width="24" height="24" fill="none"><rect width="23" height="23" x=".5" y=".5" fill="url(#a)" fill-opacity=".2" rx="3.5"/><rect width="23" height="23" x=".5" y=".5" stroke="url(#b)" rx="3.5"/><path fill="#00DC82" d="M12 5.666a6.0938 6.0938 0 1 0 6.0938 6.0938A6.1004 6.1004 0 0 0 12 5.666Zm-1.5451 8.4375h3.0902c-.3146 1.0746-.842 2.0432-1.5451 2.8061-.7031-.7629-1.2305-1.7315-1.5451-2.8061Zm-.2127-.9375a8.5365 8.5365 0 0 1 0-2.8125h3.5156a8.5365 8.5365 0 0 1 0 2.8125h-3.5156Zm-3.3985-1.4062a5.1335 5.1335 0 0 1 .1952-1.4063h2.2535a9.4794 9.4794 0 0 0 0 2.8125H7.0389a5.1328 5.1328 0 0 1-.1951-1.4062Zm6.7014-2.3438h-3.0902c.3146-1.0746.842-2.0432 1.5451-2.806.7031.7628 1.2305 1.7314 1.5451 2.806Zm1.1625.9375h2.2535a5.1643 5.1643 0 0 1 0 2.8125h-2.2535a9.476 9.476 0 0 0 0-2.8125Zm1.8844-.9375h-2.076a8.3417 8.3417 0 0 0-1.1871-2.6367A5.1774 5.1774 0 0 1 16.592 9.416Zm-5.9209-2.6367A8.342 8.342 0 0 0 9.484 9.416H7.408a5.1779 5.1779 0 0 1 3.2631-2.6367Zm-3.263 7.3242H9.484a8.3418 8.3418 0 0 0 1.1871 2.6367 5.177 5.177 0 0 1-3.263-2.6367Zm5.9208 2.6367a8.3416 8.3416 0 0 0 1.1871-2.6367h2.076a5.1765 5.1765 0 0 1-1.3526 1.6636 5.1753 5.1753 0 0 1-1.9105.9731Z"/><defs><linearGradient id="a" x1="12" x2="12" y1="0" y2="24" gradientUnits="userSpaceOnUse"><stop stop-color="#00DC82"/><stop offset="1" stop-color="#00DC82" stop-opacity=".1"/></linearGradient><linearGradient id="b" x1="12" x2="12" y1="0" y2="24" gradientUnits="userSpaceOnUse"><stop stop-color="#00DC82"/><stop offset="1" stop-color="#00DC82" stop-opacity=".1"/></linearGradient></defs></svg>
