<svg xmlns="http://www.w3.org/2000/svg" width="24" height="24" fill="none"><rect width="23" height="23" x=".5" y=".5" fill="url(#a)" fill-opacity=".06" rx="3.5"/><rect width="23" height="23" x=".5" y=".5" stroke="url(#b)" rx="3.5"/><path fill="#00C16A" d="M13.875 5.1973a4.6914 4.6914 0 0 0-4.4584 6.1394l-3.3732 3.3727a.4682.4682 0 0 0-.1372.3316v2.3438a.4687.4687 0 0 0 .4688.4687h2.3438a.4688.4688 0 0 0 .4687-.4687v-.9375h.9375a.469.469 0 0 0 .4688-.4688v-.9375h.9374a.4683.4683 0 0 0 .3317-.1371l.5601-.5607a4.6884 4.6884 0 0 0 3.8965-.4615 4.6861 4.6861 0 0 0 1.448-1.3919 4.6863 4.6863 0 0 0 .6152-3.8751 4.688 4.688 0 0 0-2.5463-2.9853 4.6872 4.6872 0 0 0-1.9614-.4321Zm0 8.4375a3.7317 3.7317 0 0 1-1.3857-.2643.4689.4689 0 0 0-.518.0984l-.634.6346H10.125a.4688.4688 0 0 0-.4688.4688v.9375h-.9375a.4688.4688 0 0 0-.4687.4687v.9375H6.8437v-1.681l3.4471-3.4465a.469.469 0 0 0 .0985-.518 3.75 3.75 0 1 1 3.4857 2.3643Zm1.875-4.922a.7028.7028 0 0 1-.4341.6497.7029.7029 0 0 1-.9586-.5124.7027.7027 0 0 1 .2989-.7218.7034.7034 0 0 1 .8879.0874.7033.7033 0 0 1 .2059.4972Z"/><defs><linearGradient id="a" x1="12" x2="12" y1="0" y2="24" gradientUnits="userSpaceOnUse"><stop stop-color="#00DC82"/><stop offset="1" stop-color="#00DC82" stop-opacity=".1"/></linearGradient><linearGradient id="b" x1="12" x2="12" y1="0" y2="24" gradientUnits="userSpaceOnUse"><stop stop-color="#00C16A"/><stop offset="1" stop-color="#00C16A" stop-opacity=".1"/></linearGradient></defs></svg>
