<svg width="24" height="24" viewBox="0 0 24 24" fill="none" xmlns="http://www.w3.org/2000/svg">
<rect x="0.5" y="0.5" width="23" height="23" rx="3.5" fill="url(#paint0_linear_299_43927)" fill-opacity="0.2"/>
<rect x="0.5" y="0.5" width="23" height="23" rx="3.5" stroke="url(#paint1_linear_299_43927)"/>
<path d="M18.9908 11.5699C18.9703 11.5236 18.474 10.4227 17.3707 9.31934C15.9006 7.84922 14.0437 7.07227 12 7.07227C9.95624 7.07227 8.09941 7.84922 6.62929 9.31934C5.52597 10.4227 5.02734 11.5254 5.00917 11.5699C4.98252 11.6299 4.96875 11.6947 4.96875 11.7604C4.96875 11.826 4.98252 11.8908 5.00917 11.9508C5.02968 11.9971 5.52597 13.0975 6.62929 14.2008C8.09941 15.6703 9.95624 16.4473 12 16.4473C14.0437 16.4473 15.9006 15.6703 17.3707 14.2008C18.474 13.0975 18.9703 11.9971 18.9908 11.9508C19.0175 11.8908 19.0312 11.826 19.0312 11.7604C19.0312 11.6947 19.0175 11.6299 18.9908 11.5699ZM12 15.5098C10.1965 15.5098 8.62089 14.8541 7.3166 13.5615C6.78143 13.0293 6.32612 12.4224 5.96484 11.7598C6.32602 11.097 6.78134 10.4901 7.3166 9.95801C8.62089 8.66543 10.1965 8.00977 12 8.00977C13.8035 8.00977 15.3791 8.66543 16.6834 9.95801C17.2196 10.49 17.6759 11.0969 18.0381 11.7598C17.6156 12.5484 15.7752 15.5098 12 15.5098ZM12 8.94727C11.4437 8.94727 10.9 9.11222 10.4375 9.42126C9.97494 9.7303 9.61445 10.1696 9.40158 10.6835C9.18871 11.1974 9.13301 11.7629 9.24154 12.3085C9.35006 12.854 9.61792 13.3552 10.0113 13.7485C10.4046 14.1418 10.9057 14.4097 11.4513 14.5182C11.9969 14.6267 12.5624 14.571 13.0763 14.3582C13.5902 14.1453 14.0295 13.7848 14.3385 13.3223C14.6475 12.8598 14.8125 12.316 14.8125 11.7598C14.8117 11.0141 14.5152 10.2992 13.9879 9.77188C13.4606 9.24461 12.7457 8.94804 12 8.94727ZM12 13.6348C11.6292 13.6348 11.2666 13.5248 10.9583 13.3188C10.65 13.1127 10.4096 12.8199 10.2677 12.4773C10.1258 12.1347 10.0887 11.7577 10.161 11.394C10.2334 11.0303 10.4119 10.6962 10.6742 10.4339C10.9364 10.1717 11.2705 9.99314 11.6342 9.92079C11.9979 9.84845 12.3749 9.88558 12.7175 10.0275C13.0601 10.1694 13.353 10.4097 13.559 10.7181C13.765 11.0264 13.875 11.3889 13.875 11.7598C13.875 12.257 13.6775 12.734 13.3258 13.0856C12.9742 13.4372 12.4973 13.6348 12 13.6348Z" fill="#00DC82"/>
<defs>
<linearGradient id="paint0_linear_299_43927" x1="12" y1="0" x2="12" y2="24" gradientUnits="userSpaceOnUse">
<stop stop-color="#00DC82"/>
<stop offset="1" stop-color="#00DC82" stop-opacity="0.1"/>
</linearGradient>
<linearGradient id="paint1_linear_299_43927" x1="12" y1="0" x2="12" y2="24" gradientUnits="userSpaceOnUse">
<stop stop-color="#00DC82"/>
<stop offset="1" stop-color="#00DC82" stop-opacity="0.1"/>
</linearGradient>
</defs>
</svg>
