<svg xmlns="http://www.w3.org/2000/svg" width="24" height="24" fill="none"><rect width="23" height="23" x=".5" y=".5" fill="url(#a)" fill-opacity=".06" rx="3.5"/><rect width="23" height="23" x=".5" y=".5" stroke="url(#b)" rx="3.5"/><path fill="#00C16A" d="M13.875 6.6035a5.1615 5.1615 0 0 0-4.6119 2.8518 3.75 3.75 0 1 0-.5443 7.4607h5.1562a5.156 5.156 0 0 0 5.1563-5.1562 5.1562 5.1562 0 0 0-5.1563-5.1563Zm0 9.375H8.7188a2.8126 2.8126 0 1 1 0-5.625c.0644 0 .1289 0 .1928.0065a5.1558 5.1558 0 0 0-.1928 1.3998.4686.4686 0 0 0 .9375 0 4.2185 4.2185 0 0 1 2.6043-3.8977 4.2188 4.2188 0 1 1 1.6144 8.1164Z"/><defs><linearGradient id="a" x1="12" x2="12" y1="0" y2="24" gradientUnits="userSpaceOnUse"><stop stop-color="#00DC82"/><stop offset="1" stop-color="#00DC82" stop-opacity=".1"/></linearGradient><linearGradient id="b" x1="12" x2="12" y1="0" y2="24" gradientUnits="userSpaceOnUse"><stop stop-color="#00C16A"/><stop offset="1" stop-color="#00C16A" stop-opacity=".1"/></linearGradient></defs></svg>
