<svg width="24" height="24" viewBox="0 0 24 24" fill="none" xmlns="http://www.w3.org/2000/svg">
<rect x="0.5" y="0.5" width="23" height="23" rx="3.5" fill="url(#paint0_linear_299_43931)" fill-opacity="0.2"/>
<rect x="0.5" y="0.5" width="23" height="23" rx="3.5" stroke="url(#paint1_linear_299_43931)"/>
<path d="M13.875 6.60352C12.9174 6.60425 11.9789 6.87137 11.1644 7.375C10.3499 7.87862 9.69164 8.5989 9.26311 9.45527C8.75332 9.38092 8.23368 9.41241 7.7366 9.54778C7.23952 9.68315 6.77566 9.91948 6.37396 10.2421C5.97226 10.5646 5.64133 10.9665 5.40182 11.4226C5.16231 11.8787 5.01935 12.3793 4.98187 12.8931C4.94438 13.407 5.01316 13.923 5.18393 14.409C5.3547 14.8951 5.62379 15.3408 5.97442 15.7182C6.32505 16.0957 6.74969 16.3968 7.22186 16.6029C7.69402 16.809 8.20359 16.9156 8.71877 16.916H13.875C15.2425 16.916 16.5541 16.3728 17.521 15.4058C18.488 14.4388 19.0313 13.1273 19.0313 11.7598C19.0313 10.3922 18.488 9.08073 17.521 8.11375C16.5541 7.14676 15.2425 6.60352 13.875 6.60352ZM13.875 15.9785H8.71877C7.97285 15.9785 7.25748 15.6822 6.73004 15.1548C6.20259 14.6273 5.90627 13.9119 5.90627 13.166C5.90627 12.4201 6.20259 11.7047 6.73004 11.1773C7.25748 10.6498 7.97285 10.3535 8.71877 10.3535C8.78323 10.3535 8.84768 10.3535 8.91155 10.36C8.78336 10.8155 8.71849 11.2865 8.71877 11.7598C8.71877 11.8841 8.76816 12.0033 8.85607 12.0912C8.94398 12.1791 9.0632 12.2285 9.18752 12.2285C9.31184 12.2285 9.43107 12.1791 9.51898 12.0912C9.60689 12.0033 9.65627 11.8841 9.65627 11.7598C9.65627 10.9254 9.9037 10.1097 10.3673 9.41595C10.8308 8.72218 11.4897 8.18146 12.2606 7.86215C13.0315 7.54284 13.8797 7.4593 14.6981 7.62208C15.5164 7.78486 16.2681 8.18666 16.8581 8.77666C17.4481 9.36666 17.8499 10.1184 18.0127 10.9367C18.1755 11.7551 18.0919 12.6033 17.7726 13.3742C17.4533 14.1451 16.9126 14.804 16.2188 15.2675C15.5251 15.7311 14.7094 15.9785 13.875 15.9785Z" fill="#00DC82"/>
<defs>
<linearGradient id="paint0_linear_299_43931" x1="12" y1="0" x2="12" y2="24" gradientUnits="userSpaceOnUse">
<stop stop-color="#00DC82"/>
<stop offset="1" stop-color="#00DC82" stop-opacity="0.1"/>
</linearGradient>
<linearGradient id="paint1_linear_299_43931" x1="12" y1="0" x2="12" y2="24" gradientUnits="userSpaceOnUse">
<stop stop-color="#00DC82"/>
<stop offset="1" stop-color="#00DC82" stop-opacity="0.1"/>
</linearGradient>
</defs>
</svg>
