<svg width="24" height="24" viewBox="0 0 24 24" fill="none" xmlns="http://www.w3.org/2000/svg">
<rect x="0.5" y="0.5" width="23" height="23" rx="3.5" fill="url(#paint0_linear_299_43923)" fill-opacity="0.2"/>
<rect x="0.5" y="0.5" width="23" height="23" rx="3.5" stroke="url(#paint1_linear_299_43923)"/>
<path d="M13.875 5.19727C13.1351 5.19793 12.4059 5.37356 11.7469 5.70982C11.0879 6.04608 10.5177 6.53343 10.083 7.13209C9.64824 7.73075 9.36125 8.42374 9.24544 9.15447C9.12963 9.88521 9.18828 10.633 9.4166 11.3367L6.04336 14.7094C5.99984 14.7529 5.96534 14.8047 5.94181 14.8616C5.91829 14.9185 5.9062 14.9794 5.90625 15.041V17.3848C5.90625 17.5091 5.95564 17.6283 6.04354 17.7162C6.13145 17.8041 6.25068 17.8535 6.375 17.8535H8.71875C8.84307 17.8535 8.9623 17.8041 9.05021 17.7162C9.13811 17.6283 9.1875 17.5091 9.1875 17.3848V16.4473H10.125C10.2493 16.4473 10.3685 16.3979 10.4565 16.31C10.5444 16.2221 10.5938 16.1028 10.5938 15.9785V15.041H11.5312C11.5928 15.0411 11.6538 15.029 11.7107 15.0055C11.7676 14.9819 11.8193 14.9474 11.8629 14.9039L12.423 14.3432C13.0673 14.5523 13.7492 14.6194 14.4219 14.5397C15.0945 14.4601 15.7419 14.2356 16.3195 13.8817C16.8971 13.5278 17.3911 13.053 17.7675 12.4898C18.144 11.9267 18.3939 11.2887 18.5001 10.6197C18.6063 9.95074 18.5663 9.26669 18.3827 8.61467C18.1992 7.96266 17.8765 7.35816 17.437 6.8428C16.9974 6.32745 16.4513 5.91349 15.8364 5.62941C15.2215 5.34534 14.5524 5.19791 13.875 5.19727ZM13.875 13.6348C13.4005 13.6356 12.9302 13.5459 12.4893 13.3705C12.403 13.3331 12.3075 13.3224 12.2151 13.34C12.1228 13.3576 12.0378 13.4025 11.9713 13.4689L11.3373 14.1035H10.125C10.0007 14.1035 9.88145 14.1529 9.79354 14.2408C9.70564 14.3287 9.65625 14.4479 9.65625 14.5723V15.5098H8.71875C8.59443 15.5098 8.4752 15.5592 8.38729 15.6471C8.29939 15.735 8.25 15.8542 8.25 15.9785V16.916H6.84375V15.235L10.2908 11.7885C10.3573 11.722 10.4022 11.637 10.4198 11.5446C10.4373 11.4523 10.4267 11.3568 10.3893 11.2705C10.0928 10.5251 10.0432 9.70429 10.2478 8.92862C10.4523 8.15295 10.9002 7.46332 11.5256 6.961C12.1511 6.45868 12.9211 6.17016 13.7226 6.13782C14.5241 6.10547 15.3149 6.331 15.9788 6.78129C16.6427 7.23158 17.1447 7.88288 17.411 8.63955C17.6774 9.39621 17.6941 10.2184 17.4587 10.9852C17.2233 11.7521 16.7482 12.4233 16.1032 12.9001C15.4581 13.377 14.6772 13.6345 13.875 13.6348ZM15.75 8.71289C15.75 8.85196 15.7088 8.9879 15.6315 9.10353C15.5542 9.21915 15.4444 9.30928 15.3159 9.36249C15.1875 9.41571 15.0461 9.42964 14.9097 9.40251C14.7733 9.37538 14.648 9.30841 14.5497 9.21008C14.4514 9.11174 14.3844 8.98646 14.3573 8.85006C14.3301 8.71367 14.3441 8.5723 14.3973 8.44382C14.4505 8.31534 14.5406 8.20552 14.6562 8.12826C14.7719 8.051 14.9078 8.00977 15.0469 8.00977C15.2334 8.00977 15.4122 8.08384 15.5441 8.21571C15.6759 8.34757 15.75 8.52641 15.75 8.71289Z" fill="#00DC82"/>
<defs>
<linearGradient id="paint0_linear_299_43923" x1="12" y1="0" x2="12" y2="24" gradientUnits="userSpaceOnUse">
<stop stop-color="#00DC82"/>
<stop offset="1" stop-color="#00DC82" stop-opacity="0.1"/>
</linearGradient>
<linearGradient id="paint1_linear_299_43923" x1="12" y1="0" x2="12" y2="24" gradientUnits="userSpaceOnUse">
<stop stop-color="#00DC82"/>
<stop offset="1" stop-color="#00DC82" stop-opacity="0.1"/>
</linearGradient>
</defs>
</svg>
