<svg xmlns="http://www.w3.org/2000/svg" width="24" height="24" fill="none"><rect width="23" height="23" x=".5" y=".5" fill="url(#a)" fill-opacity=".06" rx="3.5"/><rect width="23" height="23" x=".5" y=".5" stroke="url(#b)" rx="3.5"/><path fill="#00C16A" d="M13.2689 12.3657a.4696.4696 0 0 0-.3316-.1374.4685.4685 0 0 0-.3317.1374l-1.0746 1.0752-1.2123-1.2123 1.0752-1.0746a.4686.4686 0 0 0 0-.6633.469.469 0 0 0-.6633 0L9.656 11.5659l-1.0746-1.0752a.4692.4692 0 0 0-.8006.3317c0 .1244.0494.2437.1373.3316l.3721.3715-1.3664 1.3658a1.8761 1.8761 0 0 0-.5493 1.326 1.8746 1.8746 0 0 0 .5493 1.326l.3152.3146-1.6646 1.6641a.4698.4698 0 0 0-.1374.3316.469.469 0 0 0 .8007.3317l1.664-1.6647.3147.3153a1.875 1.875 0 0 0 2.6519 0l1.3658-1.3664.3715.372a.4695.4695 0 0 0 .5112.1017.468.468 0 0 0 .2538-.2538.4685.4685 0 0 0 0-.359.4695.4695 0 0 0-.1017-.1522l-1.0752-1.0746 1.0752-1.0746a.4683.4683 0 0 0 0-.6633Zm-3.0639 3.8086a.9374.9374 0 0 1-1.3253 0L7.587 14.88a.9375.9375 0 0 1 0-1.3254l1.3658-1.3664 2.6186 2.6186-1.3665 1.3675Zm8.2202-10.8398a.4698.4698 0 0 0-.3317-.1375.4687.4687 0 0 0-.3316.1375l-1.6641 1.6646-.3146-.3152a1.8782 1.8782 0 0 0-2.652 0l-1.3658 1.3664-.3715-.372a.4688.4688 0 0 0-.6633 0 .4692.4692 0 0 0 0 .6632l4.6875 4.6875a.4695.4695 0 0 0 .5112.1017.468.468 0 0 0 .2538-.2538.4685.4685 0 0 0 0-.359.4695.4695 0 0 0-.1017-.1522l-.3721-.3714 1.3664-1.3659a1.8733 1.8733 0 0 0 .5494-1.326 1.8741 1.8741 0 0 0-.5494-1.326l-.3152-.3146 1.6647-1.664a.47.47 0 0 0 .1374-.3317.4685.4685 0 0 0-.1374-.3316Zm-2.0127 4.629-1.3659 1.3681-2.6185-2.6186 1.3664-1.3658a.9376.9376 0 0 1 1.3254 0l1.2926 1.289a.9378.9378 0 0 1 0 1.329v-.0018Z"/><defs><linearGradient id="a" x1="12" x2="12" y1="0" y2="24" gradientUnits="userSpaceOnUse"><stop stop-color="#00DC82"/><stop offset="1" stop-color="#00DC82" stop-opacity=".1"/></linearGradient><linearGradient id="b" x1="12" x2="12" y1="0" y2="24" gradientUnits="userSpaceOnUse"><stop stop-color="#00C16A"/><stop offset="1" stop-color="#00C16A" stop-opacity=".1"/></linearGradient></defs></svg>
