<svg xmlns="http://www.w3.org/2000/svg" width="24" height="24" fill="none"><rect width="23" height="23" x=".5" y=".5" fill="url(#a)" fill-opacity=".06" rx="3.5"/><rect width="23" height="23" x=".5" y=".5" stroke="url(#b)" rx="3.5"/><g clip-path="url(#c)"><path fill="#00C16A" d="M12.9151 16.653h5.5762c.1771 0 .3511-.0452.5044-.1311a.9934.9934 0 0 0 .3693-.3583.9556.9556 0 0 0 .135-.4893.956.956 0 0 0-.1354-.4893l-3.7449-6.2915a.994.994 0 0 0-.3691-.3582 1.0329 1.0329 0 0 0-.5044-.1311c-.1771 0-.351.0452-.5044.131a.9945.9945 0 0 0-.3692.3583l-.9575 1.6098-1.8721-3.1478a.9948.9948 0 0 0-.3694-.3582 1.0332 1.0332 0 0 0-.5044-.131c-.1771 0-.351.0451-.5045.131a.9946.9946 0 0 0-.3694.3581l-4.6598 7.8297a.956.956 0 0 0-.1355.4892c0 .1718.0465.3406.135.4893a.9933.9933 0 0 0 .3693.3583 1.033 1.033 0 0 0 .5045.1311h3.5001c1.3869 0 2.4097-.5909 3.1133-1.7437l1.7086-2.8701.9151-1.5359 2.7465 4.6138h-3.6616l-.9157 1.5359Zm-3.9632-1.5375-2.4427-.0006 3.6616-6.1513 1.827 3.0756-1.2232 2.0558c-.4674.7479-.9983 1.0205-1.8227 1.0205Z"/></g><defs><linearGradient id="a" x1="12" x2="12" y1="0" y2="24" gradientUnits="userSpaceOnUse"><stop stop-color="#00DC82"/><stop offset="1" stop-color="#00DC82" stop-opacity=".1"/></linearGradient><linearGradient id="b" x1="12" x2="12" y1="0" y2="24" gradientUnits="userSpaceOnUse"><stop stop-color="#00C16A"/><stop offset="1" stop-color="#00C16A" stop-opacity=".1"/></linearGradient><clipPath id="c"><path fill="#fff" d="M4.5 4.2598h15v15h-15z"/></clipPath></defs></svg>
