<svg xmlns="http://www.w3.org/2000/svg" fill="none" viewBox="0 0 21 24"><g clip-path="url(#a)"><path fill="#000" d="M10.1283.0938596.356618 5.73772c-.108793.06281-.19912.15317-.2618956.26198-.0627751.10881-.09578258.23224-.0956988.35786L.00068288 17.4353c.00045259.0626.01726772.124.04877922.1781.0315114.0541.0766229.0991.1308619.1304.054239.0313.115721.0479.178347.0481.062627.0002.124222-.0159.178678-.0469l1.854291-1.0708c.10876-.0629.19906-.1532.26183-.262.06277-.1088.0958-.2322.09577-.3579V7.94408c-.00008-.12562.03292-.24905.0957-.35787.06277-.10881.1531-.19917.26189-.26198l7.02307-4.05624c.1088-.06279.2322-.09585.3578-.09585.1256 0 .2489.03306.3577.09585l7.0245 4.05403c.1091.06257.1997.1528.2628.26158.063.10877.0963.23225.0965.35799V16.001c0 .141-.0371.2796-.1076.4017-.0705.1222-.1719.2236-.294.2942l-6.9792 4.0308c-.1087.0628-.2321.0958-.3577.0958-.1256 0-.249-.033-.3577-.0958l-1.03632-.5981c-.08155-.047-.14928-.1148-.19638-.1963s-.07192-.174-.07196-.2682v-3.681c-.00003-.0704.01381-.1402.04075-.2053.02694-.0651.06645-.1243.11626-.1741.04982-.0499.10896-.0894.17405-.1164.0651-.0269.13487-.0408.20534-.0408h5.61346v-2.1917c-.0001-.1423-.0567-.2788-.1573-.3793-.1006-.1006-.2371-.1571-.3794-.1571H8.82834v-1.8875c0-.0705.01388-.1402.04085-.2054.02697-.0651.06651-.1242.11634-.1741.04983-.0498.109-.0893.17411-.1163.06511-.027.13489-.0409.20537-.0409h5.60209V8.10326c0-.14234-.0565-.27884-.1571-.37949-.1007-.10064-.2372-.15718-.3795-.15718l-7.89142.00138c-.14234 0-.27884.05654-.37948.15718-.10065.10065-.15719.23715-.15719.37948l.00221 13.01847c.00006.1273.03407.2523.09853.3621.06446.1098.15704.2004.26818.2625l.89371.4974 2.87016 1.6564c.1088.0628.2321.0959.3577.0959.1256 0 .249-.0331.3578-.0959l9.7716-5.6438c.1088-.0628.1991-.1531.2619-.2619.0627-.1088.0958-.2321.0957-.3577L20.978 6.35369c-.0002-.12573-.0335-.2492-.0965-.35797-.0631-.10877-.1537-.199-.2628-.2616L10.8437.0938596c-.1087-.0627682-.2321-.09581272-.3577-.09581272-.1256 0-.2489.03304452-.3577.09581272Z"/></g><defs><clipPath id="a"><path fill="currentColor" d="M0 0h20.9781v24H0z"/></clipPath></defs></svg>
