<svg xmlns="http://www.w3.org/2000/svg" fill="none" viewBox="0 0 24 24"><g fill="#0080FF" clip-path="url(#a)"><path fill-rule="evenodd" d="M11.9876 23.9752c2.7335 0 5.2534-.915 7.2699-2.4552l-1.7894-1.7895c-1.5443 1.0882-3.4278 1.7273-5.4605 1.7273-2.04725 0-3.94307-.6483-5.49342-1.7506l-1.80574 1.8056c2.01814 1.5447 4.54148 2.4624 7.27916 2.4624Zm-9.53939-4.7269 1.80633-1.8063c-1.0942-1.5468-1.73714-3.4355-1.73714-5.4744 0-2.03274.63911-3.91623 1.72734-5.46047L2.45527 4.71766C.91493 6.73426 0 9.25408 0 11.9876c0 2.7293.91214 5.2457 2.44821 7.2607Zm21.52699-7.2607c0 2.7335-.9148 5.2534-2.4552 7.2699l-1.7827-1.7827c1.1083-1.5528 1.7605-3.4539 1.7605-5.5072 0-2.04721-.6483-3.94302-1.7507-5.49338l1.7657-1.76578c1.5447 2.01814 2.4624 4.54148 2.4624 7.27916Zm-4.7269-9.53939C17.2333.91214 14.7169 0 11.9876 0 9.25409 0 6.73426.914928 4.71766 2.45526l1.78269 1.78268c1.5529-1.1084 3.45391-1.76051 5.50725-1.76051 2.0389 0 3.9276.64295 5.4744 1.73715l1.7663-1.76637Z" clip-rule="evenodd"/><path d="M14.984 11.9871c0 1.6552-1.3417 2.997-2.9969 2.997-1.6551 0-2.99687-1.3418-2.99687-2.997 0-1.6551 1.34177-2.99687 2.99687-2.99687 1.6552 0 2.9969 1.34177 2.9969 2.99687Z"/><path fill-rule="evenodd" d="M10.9603 4.55469c-3.3227.4518-5.95282 3.08192-6.40462 6.40461h2.51691c.41002-1.93813 1.9439-3.46145 3.88771-3.85602V4.55469Zm5.8856 6.40461c-.4073-1.92482-1.9229-3.44051-3.8477-3.84773V4.55469c3.3227.4518 5.9527 3.08192 6.4046 6.40461h-2.5569Zm-3.8477 5.9256c1.9381-.4101 3.4613-1.944 3.856-3.8877h2.5486c-.4518 3.3226-3.0819 5.9528-6.4046 6.4046v-2.5169Zm-5.93389-3.8877c.39726 1.9572 1.93885 3.4986 3.89599 3.896v2.5086c-3.32271-.4518-5.95283-3.082-6.40464-6.4046h2.50865Z" clip-rule="evenodd"/></g><defs><clipPath id="a"><path fill="#fff" d="M0 0h24v24H0z"/></clipPath></defs></svg>
