<svg xmlns="http://www.w3.org/2000/svg" fill="none" viewBox="0 0 22 25"><g clip-path="url(#a)"><mask id="b" width="22" height="25" x="0" y="0" maskUnits="userSpaceOnUse" style="mask-type:luminance"><path fill="#fff" fill-rule="evenodd" d="M.711914.810547H21.8711V24.8105H.711914V.810547Z" clip-rule="evenodd"/></mask><g mask="url(#b)"><path fill="#9FEF00" fill-rule="evenodd" d="M19.8331 17.5361c0 .1531-.1021.3057-.204.356l-6.5772 3.7648c-.204.1017-.4589.0503-.5609-.1526-.051-.0514-.051-.1531-.051-.204v-7.5279c0-.1526.1021-.3058.204-.3566l6.5772-3.81513c.204-.10174.4589-.05087.5609.1526.051.05087.051.15261.051.204v7.57883Zm-9.6893 3.8158c0 .2543-.20392.4075-.40785.4075-.05101 0-.15297 0-.20399-.0514l-6.57718-3.7637c-.15297-.0514-.20395-.204-.20395-.3561V9.95802c0-.25434.20395-.40747.40789-.40747.05099 0 .15296 0 .20394.05087l6.57722 3.76478c.15302.0503.20392.2029.20392.3555v7.6302ZM4.48542 6.90542l6.57718-3.81509c.153-.05138.306-.05138.4079 0l6.5773 3.81509c.2039.10123.2549.35557.1529.55904l-.1529.1526-6.5773 3.81504c-.1529.0514-.3059.0514-.4079 0L4.48542 7.61706c-.20394-.10173-.25493-.35607-.15295-.55955l.15295-.15209Zm17.38578.40647c0-.25434-.102-.50868-.255-.66077h-.0509l-.051-.05138-.051-.05087h-.051L11.725.953401l-.0511-.050868c-.2549-.152604-.6118-.101227-.8667.050868L1.1198 6.49801h-.05098l-.05099.05086-.050985.05087-.050987.05138c-.152958.15209-.203944.35556-.203944.6099V18.4524c0 .3048.203944.61.458876.7631l9.68741 5.5441s.0509 0 .0509.0513H11.6229s.051 0 .051-.0513l9.6874-5.5441c.3059-.1531.4589-.4583.4589-.7631l.051-11.14051Z" clip-rule="evenodd"/></g></g><defs><clipPath id="a"><path fill="#fff" d="M.709961.804688h21.1592v24H.709961z"/></clipPath></defs></svg>
