<svg xmlns="http://www.w3.org/2000/svg" width="533" height="620" fill="none">
  <g clip-path="url(#a)">
    <g clip-path="url(#b)">
      <g fill="#475569" clip-path="url(#c)">
        <g clip-path="url(#d)" opacity=".14">
          <circle cx="124.171" cy="18.642" r="1.965" />
          <circle cx="138.023" cy="18.642" r="1.965" />
          <circle cx="151.878" cy="18.642" r="1.965" />
          <circle cx="179.583" cy="18.642" r="1.965" />
          <circle cx="193.436" cy="18.642" r="1.965" />
          <circle cx="207.289" cy="18.642" r="1.965" />
          <circle cx="221.142" cy="18.642" r="1.965" />
          <circle cx="234.995" cy="18.642" r="1.965" />
          <circle cx="248.848" cy="18.642" r="1.965" />
          <circle cx="262.701" cy="18.642" r="1.965" />
          <circle cx="276.554" cy="18.642" r="1.965" />
          <circle cx="290.408" cy="18.642" r="1.965" />
          <circle cx="304.259" cy="18.642" r="1.965" />
          <circle cx="318.113" cy="18.642" r="1.965" />
          <circle cx="331.965" cy="18.642" r="1.965" />
          <circle cx="124.171" cy="32.495" r="1.965" />
          <circle cx="138.023" cy="32.495" r="1.965" />
          <circle cx="151.878" cy="32.495" r="1.965" />
          <circle cx="179.583" cy="32.495" r="1.965" />
          <circle cx="193.436" cy="32.495" r="1.965" />
          <circle cx="207.289" cy="32.495" r="1.965" />
          <circle cx="221.142" cy="32.495" r="1.965" />
          <circle cx="234.995" cy="32.495" r="1.965" />
          <circle cx="248.848" cy="32.495" r="1.965" />
          <circle cx="262.701" cy="32.495" r="1.965" />
          <circle cx="276.554" cy="32.495" r="1.965" />
          <circle cx="290.408" cy="32.495" r="1.965" />
          <circle cx="304.259" cy="32.495" r="1.965" />
          <circle cx="318.113" cy="32.495" r="1.965" />
          <circle cx="331.965" cy="32.495" r="1.965" />
          <circle cx="124.171" cy="46.348" r="1.965" />
          <circle cx="138.023" cy="46.348" r="1.965" />
          <circle cx="151.878" cy="46.348" r="1.965" />
          <circle cx="179.583" cy="46.348" r="1.965" />
          <circle cx="193.436" cy="46.348" r="1.965" />
          <circle cx="207.289" cy="46.348" r="1.965" />
          <circle cx="221.142" cy="46.348" r="1.965" />
          <circle cx="234.995" cy="46.348" r="1.965" />
          <circle cx="248.848" cy="46.348" r="1.965" />
          <circle cx="262.701" cy="46.348" r="1.965" />
          <circle cx="276.554" cy="46.348" r="1.965" />
          <circle cx="290.408" cy="46.348" r="1.965" />
          <circle cx="304.259" cy="46.348" r="1.965" />
          <circle cx="318.113" cy="46.348" r="1.965" />
          <circle cx="331.965" cy="46.348" r="1.965" />
          <circle cx="124.171" cy="60.201" r="1.965" />
          <circle cx="138.023" cy="60.201" r="1.965" />
          <circle cx="151.878" cy="60.201" r="1.965" />
          <circle cx="165.485" cy="60.606" r="1.965" />
          <circle cx="165.485" cy="47.071" r="1.965" />
          <circle cx="165.485" cy="18.311" r="1.965" />
          <circle cx="165.485" cy="32.691" r="1.965" />
          <circle cx="179.583" cy="60.201" r="1.965" />
          <circle cx="193.436" cy="60.201" r="1.965" />
          <circle cx="207.289" cy="60.201" r="1.965" />
          <circle cx="221.142" cy="60.201" r="1.965" />
          <circle cx="234.995" cy="60.201" r="1.965" />
          <circle cx="262.701" cy="60.201" r="1.965" />
          <circle cx="276.554" cy="60.201" r="1.965" />
          <circle cx="290.408" cy="60.201" r="1.965" />
          <circle cx="262.701" cy="74.201" r="1.965" />
          <circle cx="276.554" cy="74.201" r="1.965" />
          <circle cx="290.408" cy="74.201" r="1.965" />
          <circle cx="304.259" cy="60.201" r="1.965" />
          <circle cx="318.113" cy="60.201" r="1.965" />
          <circle cx="331.965" cy="60.201" r="1.965" />
          <circle cx="124.171" cy="74.054" r="1.965" />
          <circle cx="138.023" cy="74.054" r="1.965" />
          <circle cx="151.878" cy="74.054" r="1.965" />
          <circle cx="165.73" cy="74.054" r="1.965" />
          <circle cx="179.583" cy="74.054" r="1.965" />
          <circle cx="193.399" cy="74.14" r="1.965" />
          <circle cx="206.933" cy="74.14" r="1.965" />
          <circle cx="221.313" cy="74.14" r="1.965" />
          <circle cx="234.847" cy="74.14" r="1.965" />
          <circle cx="304.211" cy="74.14" r="1.965" />
          <circle cx="318.591" cy="74.14" r="1.965" />
          <circle cx="332.126" cy="74.14" r="1.965" />
          <circle cx="124.171" cy="87.907" r="1.965" />
          <circle cx="138.023" cy="87.907" r="1.965" />
          <circle cx="151.878" cy="87.907" r="1.965" />
          <circle cx="165.73" cy="87.907" r="1.965" />
          <circle cx="179.583" cy="87.907" r="1.965" />
          <circle cx="193.436" cy="87.907" r="1.965" />
          <circle cx="207.289" cy="87.907" r="1.965" />
          <circle cx="221.142" cy="87.907" r="1.965" />
          <circle cx="234.995" cy="87.907" r="1.965" />
          <circle cx="247.995" cy="60.201" r="1.965" />
          <circle cx="247.847" cy="74.14" r="1.965" />
          <circle cx="247.995" cy="87.907" r="1.965" />
          <circle cx="262.701" cy="87.907" r="1.965" />
          <circle cx="276.554" cy="87.907" r="1.965" />
          <circle cx="304.259" cy="87.907" r="1.965" />
          <circle cx="318.113" cy="87.907" r="1.965" />
          <circle cx="331.965" cy="87.907" r="1.965" />
          <circle cx="124.171" cy="101.76" r="1.965" />
          <circle cx="138.023" cy="101.76" r="1.965" />
          <circle cx="151.878" cy="101.76" r="1.965" />
          <circle cx="165.73" cy="101.76" r="1.965" />
          <circle cx="179.583" cy="101.76" r="1.965" />
          <circle cx="193.436" cy="101.76" r="1.965" />
          <circle cx="207.289" cy="101.76" r="1.965" />
          <circle cx="124.171" cy="115.613" r="1.965" />
          <circle cx="138.023" cy="115.613" r="1.965" />
          <circle cx="151.878" cy="115.613" r="1.965" />
          <circle cx="165.73" cy="115.613" r="1.965" />
          <circle cx="179.583" cy="115.613" r="1.965" />
          <circle cx="193.436" cy="115.613" r="1.965" />
          <circle cx="207.289" cy="115.613" r="1.965" />
          <circle cx="221.142" cy="115.613" r="1.965" />
          <circle cx="234.995" cy="115.613" r="1.965" />
          <circle cx="248.848" cy="115.613" r="1.965" />
          <circle cx="262.701" cy="115.613" r="1.965" />
          <circle cx="276.554" cy="115.613" r="1.965" />
          <circle cx="304.259" cy="115.613" r="1.965" />
          <circle cx="318.113" cy="115.613" r="1.965" />
          <circle cx="331.965" cy="115.613" r="1.965" />
          <circle cx="124.171" cy="129.466" r="1.965" />
          <circle cx="138.023" cy="129.466" r="1.965" />
          <circle cx="151.878" cy="129.466" r="1.965" />
          <circle cx="165.73" cy="129.466" r="1.965" />
          <circle cx="179.583" cy="129.466" r="1.965" />
          <circle cx="193.436" cy="129.466" r="1.965" />
          <circle cx="207.289" cy="129.466" r="1.965" />
          <circle cx="221.142" cy="129.466" r="1.965" />
          <circle cx="234.995" cy="129.466" r="1.965" />
          <circle cx="248.848" cy="129.466" r="1.965" />
          <circle cx="262.701" cy="129.466" r="1.965" />
          <circle cx="276.554" cy="129.466" r="1.965" />
          <circle cx="304.259" cy="129.466" r="1.965" />
          <circle cx="318.113" cy="129.466" r="1.965" />
          <circle cx="331.965" cy="129.466" r="1.965" />
          <circle cx="124.171" cy="143.319" r="1.965" />
          <circle cx="138.023" cy="143.319" r="1.965" />
          <circle cx="151.878" cy="143.319" r="1.965" />
          <circle cx="165.73" cy="143.319" r="1.965" />
          <circle cx="179.583" cy="143.319" r="1.965" />
          <circle cx="193.436" cy="143.319" r="1.965" />
          <circle cx="207.289" cy="143.319" r="1.965" />
          <circle cx="221.142" cy="143.319" r="1.965" />
          <circle cx="234.995" cy="143.319" r="1.965" />
          <circle cx="248.848" cy="143.319" r="1.965" />
          <circle cx="262.701" cy="143.319" r="1.965" />
          <circle cx="276.554" cy="143.319" r="1.965" />
          <circle cx="290.408" cy="143.319" r="1.965" />
          <circle cx="304.259" cy="143.319" r="1.965" />
          <circle cx="318.113" cy="143.319" r="1.965" />
          <circle cx="235.694" cy="157.037" r="1.965" />
          <circle cx="249.547" cy="157.037" r="1.965" />
          <circle cx="263.4" cy="157.037" r="1.965" />
          <circle cx="277.253" cy="157.037" r="1.965" />
          <circle cx="291.106" cy="157.037" r="1.965" />
          <circle cx="304.96" cy="157.037" r="1.965" />
          <circle cx="318.812" cy="157.037" r="1.965" />
          <circle cx="331.965" cy="143.319" r="1.965" />
          <circle cx="124.171" cy="157.172" r="1.965" />
          <circle cx="138.023" cy="157.172" r="1.965" />
          <circle cx="151.878" cy="157.172" r="1.965" />
          <circle cx="165.73" cy="157.172" r="1.965" />
          <circle cx="179.583" cy="157.172" r="1.965" />
          <circle cx="193.436" cy="157.172" r="1.965" />
          <circle cx="207.289" cy="157.172" r="1.965" />
          <circle cx="221.142" cy="157.172" r="1.965" />
          <circle cx="331.965" cy="157.172" r="1.965" />
          <circle cx="124.171" cy="171.025" r="1.965" />
          <circle cx="138.023" cy="171.025" r="1.965" />
          <circle cx="151.878" cy="171.025" r="1.965" />
          <circle cx="165.73" cy="171.025" r="1.965" />
          <circle cx="179.583" cy="171.025" r="1.965" />
          <circle cx="193.436" cy="171.025" r="1.965" />
          <circle cx="207.289" cy="171.025" r="1.965" />
          <circle cx="221.142" cy="171.025" r="1.965" />
          <circle cx="234.995" cy="171.025" r="1.965" />
          <circle cx="248.848" cy="171.025" r="1.965" />
          <circle cx="262.701" cy="171.025" r="1.965" />
          <circle cx="276.554" cy="171.025" r="1.965" />
          <circle cx="290.408" cy="171.025" r="1.965" />
          <circle cx="304.259" cy="171.025" r="1.965" />
          <circle cx="318.113" cy="171.025" r="1.965" />
          <circle cx="331.965" cy="171.025" r="1.965" />
          <circle cx="124.171" cy="184.878" r="1.965" />
          <circle cx="138.023" cy="184.878" r="1.965" />
          <circle cx="151.878" cy="184.878" r="1.965" />
          <circle cx="165.73" cy="184.878" r="1.965" />
          <circle cx="179.583" cy="184.878" r="1.965" />
          <circle cx="193.435" cy="184.878" r="1.965" />
          <circle cx="207.289" cy="184.878" r="1.965" />
          <circle cx="221.142" cy="184.878" r="1.965" />
          <circle cx="234.995" cy="184.878" r="1.965" />
          <circle cx="248.848" cy="184.878" r="1.965" />
          <circle cx="262.701" cy="184.878" r="1.965" />
          <circle cx="276.554" cy="184.878" r="1.965" />
          <circle cx="290.407" cy="184.878" r="1.965" />
          <circle cx="304.259" cy="184.878" r="1.965" />
          <circle cx="318.113" cy="184.878" r="1.965" />
          <circle cx="331.965" cy="184.878" r="1.965" />
          <circle cx="124.171" cy="198.731" r="1.965" />
          <circle cx="138.023" cy="198.731" r="1.965" />
          <circle cx="151.878" cy="198.731" r="1.965" />
          <circle cx="165.73" cy="198.731" r="1.965" />
          <circle cx="179.583" cy="198.731" r="1.965" />
          <circle cx="193.436" cy="198.731" r="1.965" />
          <circle cx="207.289" cy="198.731" r="1.965" />
          <circle cx="221.559" cy="198.486" r="1.965" />
          <circle cx="234.995" cy="198.731" r="1.965" />
          <circle cx="248.848" cy="198.731" r="1.965" />
          <circle cx="262.701" cy="198.731" r="1.965" />
          <circle cx="276.554" cy="198.731" r="1.965" />
          <circle cx="290.408" cy="198.731" r="1.965" />
          <circle cx="304.259" cy="198.731" r="1.965" />
          <circle cx="318.113" cy="198.731" r="1.965" />
          <circle cx="331.965" cy="198.731" r="1.965" />
          <circle cx="124.171" cy="212.584" r="1.965" />
          <circle cx="138.023" cy="212.584" r="1.965" />
          <circle cx="151.878" cy="212.584" r="1.965" />
          <circle cx="165.73" cy="212.584" r="1.965" />
          <circle cx="179.583" cy="212.584" r="1.965" />
          <circle cx="193.436" cy="212.584" r="1.965" />
          <circle cx="207.289" cy="212.584" r="1.965" />
          <circle cx="221.559" cy="212.339" r="1.965" />
          <circle cx="234.995" cy="212.584" r="1.965" />
          <circle cx="248.848" cy="212.584" r="1.965" />
          <circle cx="262.701" cy="212.584" r="1.965" />
          <circle cx="276.554" cy="212.584" r="1.965" />
          <circle cx="290.408" cy="212.584" r="1.965" />
          <circle cx="304.259" cy="212.584" r="1.965" />
          <circle cx="318.113" cy="212.584" r="1.965" />
          <circle cx="331.965" cy="212.584" r="1.965" />
          <circle cx="124.171" cy="226.437" r="1.965" />
          <circle cx="138.023" cy="226.437" r="1.965" />
          <circle cx="151.878" cy="226.437" r="1.965" />
          <circle cx="165.73" cy="226.437" r="1.965" />
          <circle cx="179.583" cy="226.437" r="1.965" />
          <circle cx="193.436" cy="226.437" r="1.965" />
          <circle cx="207.289" cy="226.437" r="1.965" />
          <circle cx="221.559" cy="226.192" r="1.965" />
          <circle cx="234.995" cy="226.437" r="1.965" />
          <circle cx="248.848" cy="226.437" r="1.965" />
          <circle cx="262.701" cy="226.437" r="1.965" />
          <circle cx="276.554" cy="226.437" r="1.965" />
          <circle cx="290.408" cy="226.437" r="1.965" />
          <circle cx="304.259" cy="226.437" r="1.965" />
          <circle cx="318.113" cy="226.437" r="1.965" />
          <circle cx="331.965" cy="226.437" r="1.965" />
          <circle cx="124.171" cy="240.29" r="1.965" />
          <circle cx="138.023" cy="240.29" r="1.965" />
          <circle cx="151.878" cy="240.29" r="1.965" />
          <circle cx="165.73" cy="240.29" r="1.965" />
          <circle cx="165.485" cy="254.315" r="1.965" />
          <circle cx="179.583" cy="240.29" r="1.965" />
          <circle cx="179.338" cy="254.315" r="1.965" />
          <circle cx="193.435" cy="240.29" r="1.965" />
          <circle cx="193.192" cy="254.315" r="1.965" />
          <circle cx="207.289" cy="240.29" r="1.965" />
          <circle cx="221.559" cy="240.045" r="1.965" />
          <circle cx="207.045" cy="254.315" r="1.965" />
          <circle cx="221.313" cy="254.069" r="1.965" />
          <circle cx="234.995" cy="240.29" r="1.965" />
          <circle cx="248.848" cy="240.29" r="1.965" />
          <circle cx="262.701" cy="240.29" r="1.965" />
          <circle cx="276.554" cy="240.29" r="1.965" />
          <circle cx="290.408" cy="240.29" r="1.965" />
          <circle cx="304.259" cy="240.29" r="1.965" />
          <circle cx="318.113" cy="240.29" r="1.965" />
          <circle cx="331.965" cy="240.29" r="1.965" />
          <circle cx="124.171" cy="254.143" r="1.965" />
          <circle cx="138.023" cy="254.143" r="1.965" />
          <circle cx="151.95" cy="254.315" r="1.965" />
          <circle cx="234.995" cy="254.143" r="1.965" />
          <circle cx="248.848" cy="254.143" r="1.965" />
          <circle cx="262.701" cy="254.143" r="1.965" />
          <circle cx="276.554" cy="254.143" r="1.965" />
          <circle cx="290.408" cy="254.143" r="1.965" />
          <circle cx="304.259" cy="254.143" r="1.965" />
          <circle cx="318.113" cy="254.143" r="1.965" />
          <circle cx="331.965" cy="254.143" r="1.965" />
          <circle cx="124.171" cy="267.996" r="1.965" />
          <circle cx="138.023" cy="267.996" r="1.965" />
          <circle cx="151.95" cy="268.167" r="1.965" />
          <circle cx="165.73" cy="267.996" r="1.965" />
          <circle cx="179.583" cy="267.996" r="1.965" />
          <circle cx="193.436" cy="267.996" r="1.965" />
          <circle cx="207.289" cy="267.996" r="1.965" />
          <circle cx="221.142" cy="267.996" r="1.965" />
          <circle cx="234.995" cy="267.996" r="1.965" />
          <circle cx="248.848" cy="267.996" r="1.965" />
          <circle cx="262.701" cy="267.996" r="1.965" />
          <circle cx="276.554" cy="267.996" r="1.965" />
          <circle cx="290.408" cy="267.996" r="1.965" />
          <circle cx="304.259" cy="267.996" r="1.965" />
          <circle cx="318.113" cy="267.996" r="1.965" />
          <circle cx="331.965" cy="267.996" r="1.965" />
          <circle cx="124.171" cy="281.849" r="1.965" />
          <circle cx="138.023" cy="281.849" r="1.965" />
          <circle cx="151.95" cy="282.021" r="1.965" />
          <circle cx="165.73" cy="281.849" r="1.965" />
          <circle cx="179.583" cy="281.849" r="1.965" />
          <circle cx="193.436" cy="281.849" r="1.965" />
          <circle cx="207.289" cy="281.849" r="1.965" />
          <circle cx="221.142" cy="281.849" r="1.965" />
          <circle cx="234.995" cy="281.849" r="1.965" />
          <circle cx="248.848" cy="281.849" r="1.965" />
          <circle cx="262.701" cy="281.849" r="1.965" />
          <circle cx="276.554" cy="281.849" r="1.965" />
          <circle cx="290.408" cy="281.849" r="1.965" />
          <circle cx="304.259" cy="281.849" r="1.965" />
          <circle cx="318.113" cy="281.849" r="1.965" />
          <circle cx="331.965" cy="281.849" r="1.965" />
          <circle cx="124.171" cy="295.702" r="1.965" />
          <circle cx="138.023" cy="295.702" r="1.965" />
          <circle cx="151.95" cy="295.874" r="1.965" />
          <circle cx="165.73" cy="295.702" r="1.965" />
          <circle cx="179.583" cy="295.702" r="1.965" />
          <circle cx="193.436" cy="295.702" r="1.965" />
          <circle cx="207.289" cy="295.702" r="1.965" />
          <circle cx="221.142" cy="295.702" r="1.965" />
          <circle cx="234.995" cy="295.702" r="1.965" />
          <circle cx="248.848" cy="295.702" r="1.965" />
          <circle cx="262.701" cy="295.702" r="1.965" />
          <circle cx="276.554" cy="295.702" r="1.965" />
          <circle cx="290.408" cy="295.702" r="1.965" />
          <circle cx="304.259" cy="295.702" r="1.965" />
          <circle cx="318.113" cy="295.702" r="1.965" />
          <circle cx="331.965" cy="295.702" r="1.965" />
          <circle cx="124.171" cy="309.555" r="1.965" />
          <circle cx="138.023" cy="309.555" r="1.965" />
          <circle cx="151.95" cy="309.727" r="1.965" />
          <circle cx="165.73" cy="309.555" r="1.965" />
          <circle cx="179.583" cy="309.555" r="1.965" />
          <circle cx="193.436" cy="309.555" r="1.965" />
          <circle cx="207.289" cy="309.555" r="1.965" />
          <circle cx="221.142" cy="309.555" r="1.965" />
          <circle cx="234.995" cy="309.555" r="1.965" />
          <circle cx="248.848" cy="309.555" r="1.965" />
          <circle cx="262.701" cy="309.555" r="1.965" />
          <circle cx="276.554" cy="309.555" r="1.965" />
          <circle cx="290.408" cy="309.555" r="1.965" />
          <circle cx="304.259" cy="309.555" r="1.965" />
          <circle cx="318.113" cy="309.555" r="1.965" />
          <circle cx="331.965" cy="309.555" r="1.965" />
          <circle cx="124.171" cy="323.408" r="1.965" />
          <circle cx="138.023" cy="323.408" r="1.965" />
          <circle cx="151.878" cy="323.408" r="1.965" />
          <circle cx="165.73" cy="323.408" r="1.965" />
          <circle cx="179.583" cy="323.408" r="1.965" />
          <circle cx="193.436" cy="323.408" r="1.965" />
          <circle cx="207.289" cy="323.408" r="1.965" />
          <circle cx="221.142" cy="323.408" r="1.965" />
          <circle cx="234.995" cy="323.408" r="1.965" />
          <circle cx="248.848" cy="323.408" r="1.965" />
          <circle cx="262.701" cy="323.408" r="1.965" />
          <circle cx="276.554" cy="323.408" r="1.965" />
          <circle cx="290.408" cy="323.408" r="1.965" />
          <circle cx="304.259" cy="323.408" r="1.965" />
          <circle cx="318.113" cy="323.408" r="1.965" />
          <circle cx="331.965" cy="323.408" r="1.965" />
          <circle cx="221.142" cy="101.907" r="1.965" />
          <circle cx="234.995" cy="101.907" r="1.965" />
          <circle cx="318.113" cy="101.907" r="1.965" />
          <circle cx="276.554" cy="101.907" r="1.965" />
          <circle cx="290.554" cy="87.907" r="1.965" />
          <circle cx="290.554" cy="115.613" r="1.965" />
          <circle cx="290.554" cy="129.466" r="1.965" />
          <circle cx="290.554" cy="101.907" r="1.965" />
          <circle cx="248.848" cy="101.907" r="1.965" />
          <circle cx="331.965" cy="101.907" r="1.965" />
          <circle cx="262.701" cy="101.907" r="1.965" />
          <circle cx="304.259" cy="101.907" r="1.965" />
        </g>
        <g clip-path="url(#e)" opacity=".14">
          <circle cx="416.869" cy="18.311" r="1.965" />
          <circle cx="416.869" cy="32.691" r="1.965" />
          <circle cx="416.869" cy="46.225" r="1.965" />
          <circle cx="416.869" cy="60.606" r="1.965" />
          <circle cx="430.404" cy="60.606" r="1.965" />
          <circle cx="444.783" cy="60.606" r="1.965" />
          <circle cx="458.318" cy="60.606" r="1.965" />
          <circle cx="472.698" cy="60.606" r="1.965" />
          <circle cx="486.232" cy="60.606" r="1.965" />
          <circle cx="499.766" cy="60.606" r="1.965" />
          <circle cx="514.147" cy="60.606" r="1.965" />
          <circle cx="347.506" cy="18.642" r="1.965" />
          <circle cx="361.36" cy="18.642" r="1.965" />
          <circle cx="375.212" cy="18.642" r="1.965" />
          <circle cx="389.066" cy="18.642" r="1.965" />
          <circle cx="402.918" cy="18.642" r="1.965" />
          <circle cx="430.624" cy="18.642" r="1.965" />
          <circle cx="444.477" cy="18.642" r="1.965" />
          <circle cx="458.33" cy="18.642" r="1.965" />
          <circle cx="472.183" cy="18.642" r="1.965" />
          <circle cx="486.035" cy="18.642" r="1.965" />
          <circle cx="499.888" cy="18.642" r="1.965" />
          <circle cx="513.742" cy="18.642" r="1.965" />
          <circle cx="527.595" cy="18.642" r="1.965" />
          <circle cx="347.506" cy="32.495" r="1.965" />
          <circle cx="361.36" cy="32.495" r="1.965" />
          <circle cx="388.964" cy="32.89" r="1.965" />
          <circle cx="402.918" cy="32.495" r="1.965" />
          <circle cx="430.624" cy="32.495" r="1.965" />
          <circle cx="444.477" cy="32.495" r="1.965" />
          <circle cx="458.33" cy="32.495" r="1.965" />
          <circle cx="472.183" cy="32.495" r="1.965" />
          <circle cx="486.035" cy="32.495" r="1.965" />
          <circle cx="499.888" cy="32.495" r="1.965" />
          <circle cx="513.742" cy="32.495" r="1.965" />
          <circle cx="527.595" cy="32.495" r="1.965" />
          <circle cx="347.506" cy="46.348" r="1.965" />
          <circle cx="361.36" cy="46.348" r="1.965" />
          <circle cx="388.964" cy="46.743" r="1.965" />
          <circle cx="402.918" cy="46.348" r="1.965" />
          <circle cx="430.624" cy="46.348" r="1.965" />
          <circle cx="444.477" cy="46.348" r="1.965" />
          <circle cx="458.33" cy="46.348" r="1.965" />
          <circle cx="472.183" cy="46.348" r="1.965" />
          <circle cx="486.035" cy="46.348" r="1.965" />
          <circle cx="499.888" cy="46.348" r="1.965" />
          <circle cx="513.742" cy="46.348" r="1.965" />
          <circle cx="527.595" cy="46.348" r="1.965" />
          <circle cx="347.506" cy="60.201" r="1.965" />
          <circle cx="361.36" cy="60.201" r="1.965" />
          <circle cx="388.964" cy="60.596" r="1.965" />
          <circle cx="402.918" cy="60.201" r="1.965" />
          <circle cx="527.681" cy="60.606" r="1.965" />
          <circle cx="347.506" cy="74.054" r="1.965" />
          <circle cx="361.36" cy="74.054" r="1.965" />
          <circle cx="388.964" cy="74.449" r="1.965" />
          <circle cx="402.918" cy="74.054" r="1.965" />
          <circle cx="416.771" cy="74.054" r="1.965" />
          <circle cx="430.624" cy="74.054" r="1.965" />
          <circle cx="444.477" cy="74.054" r="1.965" />
          <circle cx="458.33" cy="74.054" r="1.965" />
          <circle cx="472.183" cy="74.054" r="1.965" />
          <circle cx="347.506" cy="87.907" r="1.965" />
          <circle cx="361.36" cy="87.907" r="1.965" />
          <circle cx="388.964" cy="88.302" r="1.965" />
          <circle cx="402.918" cy="87.907" r="1.965" />
          <circle cx="416.771" cy="87.907" r="1.965" />
          <circle cx="430.624" cy="87.907" r="1.965" />
          <circle cx="444.477" cy="87.907" r="1.965" />
          <circle cx="458.33" cy="87.907" r="1.965" />
          <circle cx="472.183" cy="87.907" r="1.965" />
          <circle cx="388.964" cy="102.155" r="1.965" />
          <circle cx="374.964" cy="32.89" r="1.965" />
          <circle cx="374.964" cy="46.743" r="1.965" />
          <circle cx="374.964" cy="60.596" r="1.965" />
          <circle cx="374.964" cy="74.449" r="1.965" />
          <circle cx="374.964" cy="88.302" r="1.965" />
          <circle cx="374.964" cy="102.155" r="1.965" />
          <circle cx="388.955" cy="115.589" r="1.965" />
          <circle cx="403.334" cy="115.589" r="1.965" />
          <circle cx="416.869" cy="115.589" r="1.965" />
          <circle cx="430.404" cy="115.589" r="1.965" />
          <circle cx="444.783" cy="115.589" r="1.965" />
          <circle cx="458.318" cy="115.589" r="1.965" />
          <circle cx="471.853" cy="115.589" r="1.965" />
          <circle cx="486.232" cy="115.589" r="1.965" />
          <circle cx="402.918" cy="101.76" r="1.965" />
          <circle cx="416.771" cy="101.76" r="1.965" />
          <circle cx="430.624" cy="101.76" r="1.965" />
          <circle cx="444.477" cy="101.76" r="1.965" />
          <circle cx="458.33" cy="101.76" r="1.965" />
          <circle cx="472.183" cy="101.76" r="1.965" />
          <circle cx="486.183" cy="74.054" r="1.965" />
          <circle cx="486.183" cy="87.907" r="1.965" />
          <circle cx="486.183" cy="101.76" r="1.965" />
          <circle cx="500.183" cy="74.054" r="1.965" />
          <circle cx="500.183" cy="87.907" r="1.965" />
          <circle cx="500.183" cy="101.76" r="1.965" />
          <circle cx="514.183" cy="74.054" r="1.965" />
          <circle cx="514.183" cy="87.907" r="1.965" />
          <circle cx="514.183" cy="101.76" r="1.965" />
          <circle cx="527.183" cy="74.054" r="1.965" />
          <circle cx="527.183" cy="87.907" r="1.965" />
          <circle cx="527.183" cy="101.76" r="1.965" />
          <circle cx="347.506" cy="115.613" r="1.965" />
          <circle cx="361.36" cy="115.613" r="1.965" />
          <circle cx="375.212" cy="115.613" r="1.965" />
          <circle cx="499.888" cy="115.613" r="1.965" />
          <circle cx="513.742" cy="115.613" r="1.965" />
          <circle cx="527.595" cy="115.613" r="1.965" />
          <circle cx="347.506" cy="129.466" r="1.965" />
          <circle cx="361.36" cy="129.466" r="1.965" />
          <circle cx="375.212" cy="129.466" r="1.965" />
          <circle cx="389.066" cy="129.466" r="1.965" />
          <circle cx="402.918" cy="129.466" r="1.965" />
          <circle cx="416.771" cy="129.466" r="1.965" />
          <circle cx="430.624" cy="129.466" r="1.965" />
          <circle cx="444.477" cy="129.466" r="1.965" />
          <circle cx="458.33" cy="129.466" r="1.965" />
          <circle cx="472.183" cy="129.466" r="1.965" />
          <circle cx="486.035" cy="129.466" r="1.965" />
          <circle cx="499.888" cy="129.466" r="1.965" />
          <circle cx="513.742" cy="129.466" r="1.965" />
          <circle cx="527.595" cy="129.466" r="1.965" />
          <circle cx="347.506" cy="143.319" r="1.965" />
          <circle cx="361.36" cy="143.319" r="1.965" />
          <circle cx="375.212" cy="143.319" r="1.965" />
          <circle cx="389.066" cy="143.319" r="1.965" />
          <circle cx="402.918" cy="143.319" r="1.965" />
          <circle cx="416.771" cy="143.319" r="1.965" />
          <circle cx="430.624" cy="143.319" r="1.965" />
          <circle cx="444.477" cy="143.319" r="1.965" />
          <circle cx="458.33" cy="143.319" r="1.965" />
          <circle cx="472.183" cy="143.319" r="1.965" />
          <circle cx="486.035" cy="143.319" r="1.965" />
          <circle cx="499.888" cy="143.319" r="1.965" />
          <circle cx="513.742" cy="143.319" r="1.965" />
          <circle cx="527.595" cy="143.319" r="1.965" />
          <circle cx="527.595" cy="157.319" r="1.965" />
          <circle cx="347.506" cy="157.172" r="1.965" />
          <circle cx="361.36" cy="157.172" r="1.965" />
          <circle cx="375.212" cy="157.172" r="1.965" />
          <circle cx="389.066" cy="157.172" r="1.965" />
          <circle cx="402.918" cy="157.172" r="1.965" />
          <circle cx="416.771" cy="157.172" r="1.965" />
          <circle cx="430.624" cy="157.172" r="1.965" />
          <circle cx="444.477" cy="157.172" r="1.965" />
          <circle cx="458.33" cy="157.172" r="1.965" />
          <circle cx="472.183" cy="157.172" r="1.965" />
          <circle cx="486.035" cy="157.172" r="1.965" />
          <circle cx="499.888" cy="157.172" r="1.965" />
          <circle cx="513.742" cy="157.172" r="1.965" />
          <circle cx="347.506" cy="171.025" r="1.965" />
          <circle cx="361.36" cy="171.025" r="1.965" />
          <circle cx="375.212" cy="171.025" r="1.965" />
          <circle cx="389.066" cy="171.025" r="1.965" />
          <circle cx="402.918" cy="171.025" r="1.965" />
          <circle cx="416.771" cy="171.025" r="1.965" />
          <circle cx="430.624" cy="171.025" r="1.965" />
          <circle cx="444.477" cy="171.025" r="1.965" />
          <circle cx="458.33" cy="171.025" r="1.965" />
          <circle cx="472.183" cy="171.025" r="1.965" />
          <circle cx="486.035" cy="171.025" r="1.965" />
          <circle cx="499.888" cy="171.025" r="1.965" />
          <circle cx="513.742" cy="171.025" r="1.965" />
          <circle cx="527.742" cy="171.025" r="1.965" />
          <circle cx="347.506" cy="184.878" r="1.965" />
          <circle cx="361.36" cy="184.878" r="1.965" />
          <circle cx="375.212" cy="184.878" r="1.965" />
          <circle cx="389.066" cy="184.878" r="1.965" />
          <circle cx="402.918" cy="184.878" r="1.965" />
          <circle cx="416.771" cy="184.878" r="1.965" />
          <circle cx="430.624" cy="184.878" r="1.965" />
          <circle cx="444.477" cy="184.878" r="1.965" />
          <circle cx="458.33" cy="184.878" r="1.965" />
          <circle cx="472.183" cy="184.878" r="1.965" />
          <circle cx="486.035" cy="184.878" r="1.965" />
          <circle cx="499.888" cy="184.878" r="1.965" />
          <circle cx="513.742" cy="184.878" r="1.965" />
          <circle cx="347.506" cy="198.731" r="1.965" />
          <circle cx="361.36" cy="198.731" r="1.965" />
          <circle cx="375.212" cy="198.731" r="1.965" />
          <circle cx="389.066" cy="198.731" r="1.965" />
          <circle cx="402.918" cy="198.731" r="1.965" />
          <circle cx="416.771" cy="198.731" r="1.965" />
          <circle cx="430.624" cy="198.731" r="1.965" />
          <circle cx="444.477" cy="198.731" r="1.965" />
          <circle cx="458.33" cy="198.731" r="1.965" />
          <circle cx="472.182" cy="198.731" r="1.965" />
          <circle cx="486.343" cy="198.486" r="1.965" />
          <circle cx="499.888" cy="198.731" r="1.965" />
          <circle cx="513.742" cy="198.731" r="1.965" />
          <circle cx="527.595" cy="198.731" r="1.965" />
          <circle cx="527.595" cy="185.731" r="1.965" />
          <circle cx="347.506" cy="212.584" r="1.965" />
          <circle cx="361.36" cy="212.584" r="1.965" />
          <circle cx="375.212" cy="212.584" r="1.965" />
          <circle cx="458.33" cy="212.584" r="1.965" />
          <circle cx="347.506" cy="226.437" r="1.965" />
          <circle cx="361.36" cy="226.437" r="1.965" />
          <circle cx="375.212" cy="226.437" r="1.965" />
          <circle cx="389.066" cy="226.437" r="1.965" />
          <circle cx="388.955" cy="212.866" r="1.965" />
          <circle cx="403.334" cy="212.866" r="1.965" />
          <circle cx="416.869" cy="212.866" r="1.965" />
          <circle cx="430.404" cy="212.866" r="1.965" />
          <circle cx="444.783" cy="212.866" r="1.965" />
          <circle cx="402.918" cy="226.437" r="1.965" />
          <circle cx="416.771" cy="226.437" r="1.965" />
          <circle cx="430.624" cy="226.437" r="1.965" />
          <circle cx="444.783" cy="226.4" r="1.965" />
          <circle cx="444.783" cy="239.934" r="1.965" />
          <circle cx="444.783" cy="254.315" r="1.965" />
          <circle cx="444.673" cy="268.02" r="1.965" />
          <circle cx="458.33" cy="226.437" r="1.965" />
          <circle cx="472.182" cy="226.437" r="1.965" />
          <circle cx="486.343" cy="226.192" r="1.965" />
          <circle cx="499.888" cy="226.437" r="1.965" />
          <circle cx="513.742" cy="226.437" r="1.965" />
          <circle cx="527.595" cy="226.437" r="1.965" />
          <circle cx="347.506" cy="240.29" r="1.965" />
          <circle cx="361.36" cy="240.29" r="1.965" />
          <circle cx="375.212" cy="240.29" r="1.965" />
          <circle cx="389.066" cy="240.29" r="1.965" />
          <circle cx="402.918" cy="240.29" r="1.965" />
          <circle cx="416.771" cy="240.29" r="1.965" />
          <circle cx="430.624" cy="240.29" r="1.965" />
          <circle cx="458.33" cy="240.29" r="1.965" />
          <circle cx="472.182" cy="240.29" r="1.965" />
          <circle cx="486.343" cy="240.045" r="1.965" />
          <circle cx="499.888" cy="240.29" r="1.965" />
          <circle cx="513.742" cy="240.29" r="1.965" />
          <circle cx="527.595" cy="240.29" r="1.965" />
          <circle cx="347.506" cy="254.143" r="1.965" />
          <circle cx="361.36" cy="254.143" r="1.965" />
          <circle cx="375.212" cy="254.143" r="1.965" />
          <circle cx="389.066" cy="254.143" r="1.965" />
          <circle cx="388.955" cy="267.849" r="1.965" />
          <circle cx="402.919" cy="254.143" r="1.965" />
          <circle cx="402.808" cy="267.849" r="1.965" />
          <circle cx="416.772" cy="254.143" r="1.965" />
          <circle cx="416.66" cy="267.849" r="1.965" />
          <circle cx="430.624" cy="254.143" r="1.965" />
          <circle cx="430.515" cy="267.849" r="1.965" />
          <circle cx="458.33" cy="254.143" r="1.965" />
          <circle cx="458.221" cy="267.849" r="1.965" />
          <circle cx="472.182" cy="254.143" r="1.965" />
          <circle cx="486.343" cy="253.898" r="1.965" />
          <circle cx="472.073" cy="267.849" r="1.965" />
          <circle cx="486.232" cy="267.604" r="1.965" />
          <circle cx="499.888" cy="254.143" r="1.965" />
          <circle cx="513.742" cy="254.143" r="1.965" />
          <circle cx="527.595" cy="254.143" r="1.965" />
          <circle cx="347.506" cy="267.996" r="1.965" />
          <circle cx="361.36" cy="267.996" r="1.965" />
          <circle cx="375.212" cy="267.996" r="1.965" />
          <circle cx="499.888" cy="267.996" r="1.965" />
          <circle cx="513.742" cy="267.996" r="1.965" />
          <circle cx="527.595" cy="267.996" r="1.965" />
          <circle cx="347.506" cy="281.849" r="1.965" />
          <circle cx="361.36" cy="281.849" r="1.965" />
          <circle cx="375.212" cy="281.849" r="1.965" />
          <circle cx="389.066" cy="281.849" r="1.965" />
          <circle cx="402.918" cy="281.849" r="1.965" />
          <circle cx="416.771" cy="281.849" r="1.965" />
          <circle cx="430.624" cy="281.849" r="1.965" />
          <circle cx="444.783" cy="281.383" r="1.965" />
          <circle cx="458.33" cy="281.849" r="1.965" />
          <circle cx="472.183" cy="281.849" r="1.965" />
          <circle cx="486.035" cy="281.849" r="1.965" />
          <circle cx="499.888" cy="281.849" r="1.965" />
          <circle cx="513.742" cy="281.849" r="1.965" />
          <circle cx="527.595" cy="281.849" r="1.965" />
          <circle cx="347.506" cy="295.702" r="1.965" />
          <circle cx="361.36" cy="295.702" r="1.965" />
          <circle cx="375.212" cy="295.702" r="1.965" />
          <circle cx="389.066" cy="295.702" r="1.965" />
          <circle cx="402.918" cy="295.702" r="1.965" />
          <circle cx="416.771" cy="295.702" r="1.965" />
          <circle cx="430.624" cy="295.702" r="1.965" />
          <circle cx="444.783" cy="295.236" r="1.965" />
          <circle cx="458.33" cy="295.702" r="1.965" />
          <circle cx="472.183" cy="295.702" r="1.965" />
          <circle cx="486.035" cy="295.702" r="1.965" />
          <circle cx="499.888" cy="295.702" r="1.965" />
          <circle cx="513.742" cy="295.702" r="1.965" />
          <circle cx="527.595" cy="295.702" r="1.965" />
          <circle cx="347.506" cy="309.555" r="1.965" />
          <circle cx="361.36" cy="309.555" r="1.965" />
          <circle cx="375.212" cy="309.555" r="1.965" />
          <circle cx="389.066" cy="309.555" r="1.965" />
          <circle cx="402.918" cy="309.555" r="1.965" />
          <circle cx="416.771" cy="309.555" r="1.965" />
          <circle cx="430.624" cy="309.555" r="1.965" />
          <circle cx="444.783" cy="309.089" r="1.965" />
          <circle cx="458.33" cy="309.555" r="1.965" />
          <circle cx="472.183" cy="309.555" r="1.965" />
          <circle cx="486.035" cy="309.555" r="1.965" />
          <circle cx="499.888" cy="309.555" r="1.965" />
          <circle cx="513.742" cy="309.555" r="1.965" />
          <circle cx="527.595" cy="309.555" r="1.965" />
          <circle cx="472.182" cy="212.437" r="1.965" />
          <circle cx="486.343" cy="212.192" r="1.965" />
          <circle cx="499.888" cy="212.437" r="1.965" />
          <circle cx="513.742" cy="212.437" r="1.965" />
          <circle cx="527.595" cy="212.437" r="1.965" />
          <circle cx="347.506" cy="323.408" r="1.965" />
          <circle cx="375.212" cy="323.408" r="1.965" />
          <circle cx="389.066" cy="323.408" r="1.965" />
          <circle cx="402.918" cy="323.408" r="1.965" />
          <circle cx="416.771" cy="323.408" r="1.965" />
          <circle cx="430.624" cy="323.408" r="1.965" />
          <circle cx="444.477" cy="323.408" r="1.965" />
          <circle cx="458.33" cy="323.408" r="1.965" />
          <circle cx="472.183" cy="323.408" r="1.965" />
          <circle cx="486.035" cy="323.408" r="1.965" />
          <circle cx="499.888" cy="323.408" r="1.965" />
          <circle cx="513.742" cy="323.408" r="1.965" />
          <circle cx="527.595" cy="323.408" r="1.965" />
          <circle cx="347.506" cy="101.907" r="1.965" />
          <circle cx="361.36" cy="101.907" r="1.965" />
        </g>
        <g clip-path="url(#f)" opacity=".14">
          <circle cx="124.171" cy="335.52" r="1.965" />
          <circle cx="138.023" cy="335.52" r="1.965" />
          <circle cx="151.878" cy="335.52" r="1.965" />
          <circle cx="165.73" cy="335.52" r="1.965" />
          <circle cx="179.583" cy="335.52" r="1.965" />
          <circle cx="193.436" cy="335.52" r="1.965" />
          <circle cx="207.289" cy="335.52" r="1.965" />
          <circle cx="221.142" cy="335.52" r="1.965" />
          <circle cx="234.995" cy="335.52" r="1.965" />
          <circle cx="248.848" cy="335.52" r="1.965" />
          <circle cx="262.701" cy="335.52" r="1.965" />
          <circle cx="276.554" cy="335.52" r="1.965" />
          <circle cx="290.408" cy="335.52" r="1.965" />
          <circle cx="304.259" cy="335.52" r="1.965" />
          <circle cx="318.113" cy="335.52" r="1.965" />
          <circle cx="331.965" cy="335.52" r="1.965" />
          <circle cx="124.171" cy="349.373" r="1.965" />
          <circle cx="138.023" cy="349.373" r="1.965" />
          <circle cx="151.878" cy="349.373" r="1.965" />
          <circle cx="179.583" cy="349.373" r="1.965" />
          <circle cx="193.436" cy="349.373" r="1.965" />
          <circle cx="207.289" cy="349.373" r="1.965" />
          <circle cx="221.142" cy="349.373" r="1.965" />
          <circle cx="234.995" cy="349.373" r="1.965" />
          <circle cx="262.701" cy="349.373" r="1.965" />
          <circle cx="276.554" cy="349.373" r="1.965" />
          <circle cx="290.408" cy="349.373" r="1.965" />
          <circle cx="304.259" cy="349.373" r="1.965" />
          <circle cx="318.113" cy="349.373" r="1.965" />
          <circle cx="331.965" cy="349.373" r="1.965" />
          <circle cx="124.171" cy="349.373" r="1.965" />
          <circle cx="138.023" cy="349.373" r="1.965" />
          <circle cx="151.878" cy="349.373" r="1.965" />
          <circle cx="179.583" cy="349.373" r="1.965" />
          <circle cx="193.436" cy="349.373" r="1.965" />
          <circle cx="207.289" cy="349.373" r="1.965" />
          <circle cx="221.142" cy="349.373" r="1.965" />
          <circle cx="234.995" cy="349.373" r="1.965" />
          <circle cx="262.701" cy="349.373" r="1.965" />
          <circle cx="276.554" cy="349.373" r="1.965" />
          <circle cx="290.408" cy="349.373" r="1.965" />
          <circle cx="304.259" cy="349.373" r="1.965" />
          <circle cx="318.113" cy="349.373" r="1.965" />
          <circle cx="331.965" cy="349.373" r="1.965" />
          <circle cx="124.171" cy="349.373" r="1.965" />
          <circle cx="138.023" cy="349.373" r="1.965" />
          <circle cx="151.878" cy="349.373" r="1.965" />
          <circle cx="179.583" cy="349.373" r="1.965" />
          <circle cx="193.436" cy="349.373" r="1.965" />
          <circle cx="207.289" cy="349.373" r="1.965" />
          <circle cx="221.142" cy="349.373" r="1.965" />
          <circle cx="234.995" cy="349.373" r="1.965" />
          <circle cx="262.701" cy="349.373" r="1.965" />
          <circle cx="276.554" cy="349.373" r="1.965" />
          <circle cx="290.408" cy="349.373" r="1.965" />
          <circle cx="304.259" cy="349.373" r="1.965" />
          <circle cx="318.113" cy="349.373" r="1.965" />
          <circle cx="331.965" cy="349.373" r="1.965" />
          <circle cx="124.171" cy="349.373" r="1.965" />
          <circle cx="138.023" cy="349.373" r="1.965" />
          <circle cx="151.878" cy="349.373" r="1.965" />
          <circle cx="179.583" cy="349.373" r="1.965" />
          <circle cx="193.436" cy="349.373" r="1.965" />
          <circle cx="207.289" cy="349.373" r="1.965" />
          <circle cx="221.142" cy="349.373" r="1.965" />
          <circle cx="234.995" cy="349.373" r="1.965" />
          <circle cx="262.701" cy="349.373" r="1.965" />
          <circle cx="276.554" cy="349.373" r="1.965" />
          <circle cx="290.408" cy="349.373" r="1.965" />
          <circle cx="304.259" cy="349.373" r="1.965" />
          <circle cx="318.113" cy="349.373" r="1.965" />
          <circle cx="331.965" cy="349.373" r="1.965" />
          <circle cx="124.171" cy="349.373" r="1.965" />
          <circle cx="138.023" cy="349.373" r="1.965" />
          <circle cx="151.878" cy="349.373" r="1.965" />
          <circle cx="179.583" cy="349.373" r="1.965" />
          <circle cx="193.436" cy="349.373" r="1.965" />
          <circle cx="207.289" cy="349.373" r="1.965" />
          <circle cx="221.142" cy="349.373" r="1.965" />
          <circle cx="234.995" cy="349.373" r="1.965" />
          <circle cx="249.227" cy="349.054" r="1.965" />
          <circle cx="249.227" cy="363.434" r="1.965" />
          <circle cx="249.227" cy="376.969" r="1.965" />
          <circle cx="249.227" cy="391.349" r="1.965" />
          <circle cx="249.227" cy="404.883" r="1.965" />
          <circle cx="249.227" cy="418.418" r="1.965" />
          <circle cx="262.762" cy="418.418" r="1.965" />
          <circle cx="276.297" cy="418.418" r="1.965" />
          <circle cx="290.676" cy="418.418" r="1.965" />
          <circle cx="304.211" cy="418.418" r="1.965" />
          <circle cx="318.591" cy="418.418" r="1.965" />
          <circle cx="262.701" cy="349.373" r="1.965" />
          <circle cx="276.554" cy="349.373" r="1.965" />
          <circle cx="290.408" cy="349.373" r="1.965" />
          <circle cx="304.259" cy="349.373" r="1.965" />
          <circle cx="318.113" cy="349.373" r="1.965" />
          <circle cx="331.965" cy="349.373" r="1.965" />
          <circle cx="124.171" cy="363.226" r="1.965" />
          <circle cx="138.023" cy="363.226" r="1.965" />
          <circle cx="151.878" cy="363.226" r="1.965" />
          <circle cx="179.583" cy="363.226" r="1.965" />
          <circle cx="193.436" cy="363.226" r="1.965" />
          <circle cx="207.289" cy="363.226" r="1.965" />
          <circle cx="221.142" cy="363.226" r="1.965" />
          <circle cx="234.995" cy="363.226" r="1.965" />
          <circle cx="262.701" cy="363.226" r="1.965" />
          <circle cx="276.554" cy="363.226" r="1.965" />
          <circle cx="290.408" cy="363.226" r="1.965" />
          <circle cx="304.259" cy="363.226" r="1.965" />
          <circle cx="318.113" cy="363.226" r="1.965" />
          <circle cx="331.965" cy="363.226" r="1.965" />
          <circle cx="124.171" cy="377.079" r="1.965" />
          <circle cx="138.023" cy="377.079" r="1.965" />
          <circle cx="151.878" cy="377.079" r="1.965" />
          <circle cx="179.583" cy="377.079" r="1.965" />
          <circle cx="193.436" cy="377.079" r="1.965" />
          <circle cx="207.289" cy="377.079" r="1.965" />
          <circle cx="221.142" cy="377.079" r="1.965" />
          <circle cx="234.995" cy="377.079" r="1.965" />
          <circle cx="262.701" cy="377.079" r="1.965" />
          <circle cx="276.554" cy="377.079" r="1.965" />
          <circle cx="290.408" cy="377.079" r="1.965" />
          <circle cx="304.259" cy="377.079" r="1.965" />
          <circle cx="318.113" cy="377.079" r="1.965" />
          <circle cx="331.965" cy="377.079" r="1.965" />
          <circle cx="124.171" cy="390.932" r="1.965" />
          <circle cx="138.023" cy="390.932" r="1.965" />
          <circle cx="151.878" cy="390.932" r="1.965" />
          <circle cx="179.583" cy="390.932" r="1.965" />
          <circle cx="193.436" cy="390.932" r="1.965" />
          <circle cx="207.289" cy="390.932" r="1.965" />
          <circle cx="221.142" cy="390.932" r="1.965" />
          <circle cx="234.995" cy="390.932" r="1.965" />
          <circle cx="262.701" cy="390.932" r="1.965" />
          <circle cx="276.554" cy="390.932" r="1.965" />
          <circle cx="290.408" cy="390.932" r="1.965" />
          <circle cx="304.259" cy="390.932" r="1.965" />
          <circle cx="318.113" cy="390.932" r="1.965" />
          <circle cx="331.965" cy="390.932" r="1.965" />
          <circle cx="124.171" cy="404.785" r="1.965" />
          <circle cx="138.023" cy="404.785" r="1.965" />
          <circle cx="151.878" cy="404.785" r="1.965" />
          <circle cx="179.583" cy="404.785" r="1.965" />
          <circle cx="193.436" cy="404.785" r="1.965" />
          <circle cx="207.289" cy="404.785" r="1.965" />
          <circle cx="221.142" cy="404.785" r="1.965" />
          <circle cx="234.995" cy="404.785" r="1.965" />
          <circle cx="262.701" cy="404.785" r="1.965" />
          <circle cx="276.554" cy="404.785" r="1.965" />
          <circle cx="290.408" cy="404.785" r="1.965" />
          <circle cx="304.259" cy="404.785" r="1.965" />
          <circle cx="318.113" cy="404.785" r="1.965" />
          <circle cx="331.965" cy="404.785" r="1.965" />
          <circle cx="124.171" cy="418.638" r="1.965" />
          <circle cx="138.023" cy="418.638" r="1.965" />
          <circle cx="151.878" cy="418.638" r="1.965" />
          <circle cx="179.583" cy="418.638" r="1.965" />
          <circle cx="193.436" cy="418.638" r="1.965" />
          <circle cx="207.289" cy="418.638" r="1.965" />
          <circle cx="221.142" cy="418.638" r="1.965" />
          <circle cx="234.995" cy="418.638" r="1.965" />
          <circle cx="332.126" cy="418.418" r="1.965" />
          <circle cx="124.171" cy="432.491" r="1.965" />
          <circle cx="138.023" cy="432.491" r="1.965" />
          <circle cx="151.878" cy="432.491" r="1.965" />
          <circle cx="179.583" cy="432.491" r="1.965" />
          <circle cx="193.436" cy="432.491" r="1.965" />
          <circle cx="207.289" cy="432.491" r="1.965" />
          <circle cx="221.142" cy="432.491" r="1.965" />
          <circle cx="234.995" cy="432.491" r="1.965" />
          <circle cx="248.848" cy="432.491" r="1.965" />
          <circle cx="262.701" cy="432.491" r="1.965" />
          <circle cx="276.554" cy="432.491" r="1.965" />
          <circle cx="290.408" cy="432.491" r="1.965" />
          <circle cx="304.259" cy="432.491" r="1.965" />
          <circle cx="318.113" cy="432.491" r="1.965" />
          <circle cx="331.965" cy="432.491" r="1.965" />
          <circle cx="124.171" cy="446.344" r="1.965" />
          <circle cx="138.023" cy="446.344" r="1.965" />
          <circle cx="151.878" cy="446.344" r="1.965" />
          <circle cx="179.583" cy="446.344" r="1.965" />
          <circle cx="193.436" cy="446.344" r="1.965" />
          <circle cx="207.289" cy="446.344" r="1.965" />
          <circle cx="221.142" cy="446.344" r="1.965" />
          <circle cx="234.995" cy="446.344" r="1.965" />
          <circle cx="248.848" cy="446.344" r="1.965" />
          <circle cx="262.701" cy="446.344" r="1.965" />
          <circle cx="276.554" cy="446.344" r="1.965" />
          <circle cx="290.408" cy="446.344" r="1.965" />
          <circle cx="304.259" cy="446.344" r="1.965" />
          <circle cx="318.113" cy="446.344" r="1.965" />
          <circle cx="331.965" cy="446.344" r="1.965" />
          <circle cx="124.171" cy="460.197" r="1.965" />
          <circle cx="138.023" cy="460.197" r="1.965" />
          <circle cx="151.878" cy="460.197" r="1.965" />
          <circle cx="179.583" cy="460.197" r="1.965" />
          <circle cx="193.436" cy="460.197" r="1.965" />
          <circle cx="207.289" cy="460.197" r="1.965" />
          <circle cx="221.142" cy="460.197" r="1.965" />
          <circle cx="234.995" cy="460.197" r="1.965" />
          <circle cx="248.848" cy="460.197" r="1.965" />
          <circle cx="262.701" cy="460.197" r="1.965" />
          <circle cx="276.554" cy="460.197" r="1.965" />
          <circle cx="290.408" cy="460.197" r="1.965" />
          <circle cx="304.259" cy="460.197" r="1.965" />
          <circle cx="318.113" cy="460.197" r="1.965" />
          <circle cx="331.965" cy="460.197" r="1.965" />
          <circle cx="124.171" cy="474.05" r="1.965" />
          <circle cx="138.023" cy="474.05" r="1.965" />
          <circle cx="151.878" cy="474.05" r="1.965" />
          <circle cx="179.583" cy="474.05" r="1.965" />
          <circle cx="193.436" cy="474.05" r="1.965" />
          <circle cx="207.289" cy="474.05" r="1.965" />
          <circle cx="221.142" cy="474.05" r="1.965" />
          <circle cx="234.995" cy="474.05" r="1.965" />
          <circle cx="248.848" cy="474.05" r="1.965" />
          <circle cx="262.701" cy="474.05" r="1.965" />
          <circle cx="276.554" cy="474.05" r="1.965" />
          <circle cx="290.408" cy="474.05" r="1.965" />
          <circle cx="304.259" cy="474.05" r="1.965" />
          <circle cx="318.113" cy="474.05" r="1.965" />
          <circle cx="331.965" cy="474.05" r="1.965" />
          <circle cx="124.171" cy="487.903" r="1.965" />
          <circle cx="138.023" cy="487.903" r="1.965" />
          <circle cx="151.878" cy="487.903" r="1.965" />
          <circle cx="179.583" cy="487.903" r="1.965" />
          <circle cx="193.436" cy="487.903" r="1.965" />
          <circle cx="207.289" cy="487.903" r="1.965" />
          <circle cx="221.142" cy="487.903" r="1.965" />
          <circle cx="234.995" cy="487.903" r="1.965" />
          <circle cx="248.848" cy="487.903" r="1.965" />
          <circle cx="262.701" cy="487.903" r="1.965" />
          <circle cx="276.554" cy="487.903" r="1.965" />
          <circle cx="290.408" cy="487.903" r="1.965" />
          <circle cx="304.259" cy="487.903" r="1.965" />
          <circle cx="318.113" cy="487.903" r="1.965" />
          <circle cx="331.965" cy="487.903" r="1.965" />
          <circle cx="124.171" cy="501.756" r="1.965" />
          <circle cx="138.023" cy="501.756" r="1.965" />
          <circle cx="151.878" cy="501.756" r="1.965" />
          <circle cx="165.485" cy="502.161" r="1.965" />
          <circle cx="165.485" cy="488.626" r="1.965" />
          <circle cx="165.485" cy="459.866" r="1.965" />
          <circle cx="165.485" cy="446.332" r="1.965" />
          <circle cx="165.485" cy="432.798" r="1.965" />
          <circle cx="165.485" cy="418.418" r="1.965" />
          <circle cx="165.485" cy="404.883" r="1.965" />
          <circle cx="165.485" cy="391.349" r="1.965" />
          <circle cx="165.485" cy="376.969" r="1.965" />
          <circle cx="165.485" cy="363.434" r="1.965" />
          <circle cx="165.485" cy="349.9" r="1.965" />
          <circle cx="165.485" cy="474.246" r="1.965" />
          <circle cx="179.583" cy="501.756" r="1.965" />
          <circle cx="193.436" cy="501.756" r="1.965" />
          <circle cx="207.289" cy="501.756" r="1.965" />
          <circle cx="221.142" cy="501.756" r="1.965" />
          <circle cx="234.995" cy="501.756" r="1.965" />
          <circle cx="248.848" cy="501.756" r="1.965" />
          <circle cx="262.701" cy="501.756" r="1.965" />
          <circle cx="276.554" cy="501.756" r="1.965" />
          <circle cx="290.408" cy="501.756" r="1.965" />
          <circle cx="304.259" cy="501.756" r="1.965" />
          <circle cx="318.113" cy="501.756" r="1.965" />
          <circle cx="331.965" cy="501.756" r="1.965" />
          <circle cx="124.171" cy="515.609" r="1.965" />
          <circle cx="138.023" cy="515.609" r="1.965" />
          <circle cx="151.878" cy="515.609" r="1.965" />
          <circle cx="165.73" cy="515.609" r="1.965" />
          <circle cx="179.583" cy="515.609" r="1.965" />
          <circle cx="193.399" cy="515.695" r="1.965" />
          <circle cx="206.933" cy="515.695" r="1.965" />
          <circle cx="221.313" cy="515.695" r="1.965" />
          <circle cx="234.847" cy="515.695" r="1.965" />
          <circle cx="249.227" cy="515.695" r="1.965" />
          <circle cx="262.762" cy="515.695" r="1.965" />
          <circle cx="276.297" cy="515.695" r="1.965" />
          <circle cx="290.676" cy="515.695" r="1.965" />
          <circle cx="304.211" cy="515.695" r="1.965" />
          <circle cx="318.591" cy="515.695" r="1.965" />
          <circle cx="332.126" cy="515.695" r="1.965" />
          <circle cx="124.171" cy="529.462" r="1.965" />
          <circle cx="138.023" cy="529.462" r="1.965" />
          <circle cx="151.878" cy="529.462" r="1.965" />
          <circle cx="165.73" cy="529.462" r="1.965" />
          <circle cx="179.583" cy="529.462" r="1.965" />
          <circle cx="193.436" cy="529.462" r="1.965" />
          <circle cx="207.289" cy="529.462" r="1.965" />
          <circle cx="221.142" cy="529.462" r="1.965" />
          <circle cx="234.995" cy="529.462" r="1.965" />
          <circle cx="248.848" cy="529.462" r="1.965" />
          <circle cx="262.701" cy="529.462" r="1.965" />
          <circle cx="276.554" cy="529.462" r="1.965" />
          <circle cx="290.408" cy="529.462" r="1.965" />
          <circle cx="304.259" cy="529.462" r="1.965" />
          <circle cx="318.113" cy="529.462" r="1.965" />
          <circle cx="331.965" cy="529.462" r="1.965" />
          <circle cx="124.171" cy="543.315" r="1.965" />
          <circle cx="138.023" cy="543.315" r="1.965" />
          <circle cx="151.878" cy="543.315" r="1.965" />
          <circle cx="165.73" cy="543.315" r="1.965" />
          <circle cx="179.583" cy="543.315" r="1.965" />
          <circle cx="193.436" cy="543.315" r="1.965" />
          <circle cx="207.289" cy="543.315" r="1.965" />
          <circle cx="221.142" cy="543.315" r="1.965" />
          <circle cx="234.995" cy="543.315" r="1.965" />
          <circle cx="248.848" cy="543.315" r="1.965" />
          <circle cx="262.701" cy="543.315" r="1.965" />
          <circle cx="276.554" cy="543.315" r="1.965" />
          <circle cx="290.408" cy="543.315" r="1.965" />
          <circle cx="304.259" cy="543.315" r="1.965" />
          <circle cx="318.113" cy="543.315" r="1.965" />
          <circle cx="331.965" cy="543.315" r="1.965" />
          <circle cx="124.171" cy="557.168" r="1.965" />
          <circle cx="138.023" cy="557.168" r="1.965" />
          <circle cx="151.878" cy="557.168" r="1.965" />
          <circle cx="165.73" cy="557.168" r="1.965" />
          <circle cx="179.583" cy="557.168" r="1.965" />
          <circle cx="193.436" cy="557.168" r="1.965" />
          <circle cx="207.289" cy="557.168" r="1.965" />
          <circle cx="221.142" cy="557.168" r="1.965" />
          <circle cx="234.995" cy="557.168" r="1.965" />
          <circle cx="248.848" cy="557.168" r="1.965" />
          <circle cx="262.701" cy="557.168" r="1.965" />
          <circle cx="276.554" cy="557.168" r="1.965" />
          <circle cx="290.408" cy="557.168" r="1.965" />
          <circle cx="304.259" cy="557.168" r="1.965" />
          <circle cx="318.113" cy="557.168" r="1.965" />
          <circle cx="331.965" cy="557.168" r="1.965" />
          <circle cx="124.171" cy="571.021" r="1.965" />
          <circle cx="138.023" cy="571.021" r="1.965" />
          <circle cx="151.878" cy="571.021" r="1.965" />
          <circle cx="165.73" cy="571.021" r="1.965" />
          <circle cx="179.583" cy="571.021" r="1.965" />
          <circle cx="193.436" cy="571.021" r="1.965" />
          <circle cx="207.289" cy="571.021" r="1.965" />
          <circle cx="221.142" cy="571.021" r="1.965" />
          <circle cx="234.995" cy="571.021" r="1.965" />
          <circle cx="248.848" cy="571.021" r="1.965" />
          <circle cx="262.701" cy="571.021" r="1.965" />
          <circle cx="276.554" cy="571.021" r="1.965" />
          <circle cx="290.408" cy="571.021" r="1.965" />
          <circle cx="304.259" cy="571.021" r="1.965" />
          <circle cx="318.113" cy="571.021" r="1.965" />
          <circle cx="331.965" cy="571.021" r="1.965" />
          <circle cx="124.171" cy="584.874" r="1.965" />
          <circle cx="138.023" cy="584.874" r="1.965" />
          <circle cx="151.878" cy="584.874" r="1.965" />
          <circle cx="165.73" cy="584.874" r="1.965" />
          <circle cx="179.583" cy="584.874" r="1.965" />
          <circle cx="193.436" cy="584.874" r="1.965" />
          <circle cx="207.289" cy="584.874" r="1.965" />
          <circle cx="221.142" cy="584.874" r="1.965" />
          <circle cx="234.995" cy="584.874" r="1.965" />
          <circle cx="248.848" cy="584.874" r="1.965" />
          <circle cx="262.701" cy="584.874" r="1.965" />
          <circle cx="276.554" cy="584.874" r="1.965" />
          <circle cx="290.408" cy="584.874" r="1.965" />
          <circle cx="304.259" cy="584.874" r="1.965" />
          <circle cx="318.113" cy="584.874" r="1.965" />
          <circle cx="331.965" cy="584.874" r="1.965" />
        </g>
        <g clip-path="url(#g)" opacity=".14">
          <circle cx="346.506" cy="335.52" r="1.965" />
          <circle cx="374.212" cy="335.52" r="1.965" />
          <circle cx="388.065" cy="335.52" r="1.965" />
          <circle cx="401.918" cy="335.52" r="1.965" />
          <circle cx="415.771" cy="335.52" r="1.965" />
          <circle cx="429.624" cy="335.52" r="1.965" />
          <circle cx="443.477" cy="335.52" r="1.965" />
          <circle cx="457.33" cy="335.52" r="1.965" />
          <circle cx="471.183" cy="335.52" r="1.965" />
          <circle cx="485.035" cy="335.52" r="1.965" />
          <circle cx="498.888" cy="335.52" r="1.965" />
          <circle cx="512.741" cy="335.52" r="1.965" />
          <circle cx="526.595" cy="335.52" r="1.965" />
          <circle cx="346.506" cy="349.373" r="1.965" />
          <circle cx="471.183" cy="349.373" r="1.965" />
          <circle cx="485.035" cy="349.373" r="1.965" />
          <circle cx="498.888" cy="349.373" r="1.965" />
          <circle cx="512.741" cy="349.373" r="1.965" />
          <circle cx="526.595" cy="349.373" r="1.965" />
          <circle cx="346.506" cy="349.373" r="1.965" />
          <circle cx="471.183" cy="349.373" r="1.965" />
          <circle cx="485.035" cy="349.373" r="1.965" />
          <circle cx="498.888" cy="349.373" r="1.965" />
          <circle cx="512.741" cy="349.373" r="1.965" />
          <circle cx="526.595" cy="349.373" r="1.965" />
          <circle cx="346.506" cy="349.373" r="1.965" />
          <circle cx="471.183" cy="349.373" r="1.965" />
          <circle cx="485.035" cy="349.373" r="1.965" />
          <circle cx="498.888" cy="349.373" r="1.965" />
          <circle cx="512.741" cy="349.373" r="1.965" />
          <circle cx="526.595" cy="349.373" r="1.965" />
          <circle cx="346.506" cy="349.373" r="1.965" />
          <circle cx="471.183" cy="349.373" r="1.965" />
          <circle cx="485.035" cy="349.373" r="1.965" />
          <circle cx="498.888" cy="349.373" r="1.965" />
          <circle cx="512.741" cy="349.373" r="1.965" />
          <circle cx="526.595" cy="349.373" r="1.965" />
          <circle cx="346.506" cy="349.373" r="1.965" />
          <circle cx="471.183" cy="349.373" r="1.965" />
          <circle cx="485.035" cy="349.373" r="1.965" />
          <circle cx="498.888" cy="349.373" r="1.965" />
          <circle cx="512.741" cy="349.373" r="1.965" />
          <circle cx="526.595" cy="349.373" r="1.965" />
          <circle cx="346.506" cy="363.226" r="1.965" />
          <circle cx="360.359" cy="363.226" r="1.965" />
          <circle cx="374.212" cy="363.226" r="1.965" />
          <circle cx="388.065" cy="363.226" r="1.965" />
          <circle cx="401.918" cy="363.226" r="1.965" />
          <circle cx="415.771" cy="363.226" r="1.965" />
          <circle cx="429.624" cy="363.226" r="1.965" />
          <circle cx="443.477" cy="363.226" r="1.965" />
          <circle cx="457.33" cy="363.226" r="1.965" />
          <circle cx="471.183" cy="363.226" r="1.965" />
          <circle cx="485.035" cy="363.226" r="1.965" />
          <circle cx="498.888" cy="363.226" r="1.965" />
          <circle cx="512.741" cy="363.226" r="1.965" />
          <circle cx="526.595" cy="363.226" r="1.965" />
          <circle cx="346.506" cy="377.079" r="1.965" />
          <circle cx="360.359" cy="377.079" r="1.965" />
          <circle cx="374.212" cy="377.079" r="1.965" />
          <circle cx="388.065" cy="377.079" r="1.965" />
          <circle cx="401.918" cy="377.079" r="1.965" />
          <circle cx="415.771" cy="377.079" r="1.965" />
          <circle cx="429.624" cy="377.079" r="1.965" />
          <circle cx="443.477" cy="377.079" r="1.965" />
          <circle cx="457.33" cy="377.079" r="1.965" />
          <circle cx="471.183" cy="377.079" r="1.965" />
          <circle cx="485.035" cy="377.079" r="1.965" />
          <circle cx="498.888" cy="377.079" r="1.965" />
          <circle cx="512.741" cy="377.079" r="1.965" />
          <circle cx="526.595" cy="377.079" r="1.965" />
          <circle cx="346.506" cy="390.932" r="1.965" />
          <circle cx="360.359" cy="390.932" r="1.965" />
          <circle cx="374.212" cy="390.932" r="1.965" />
          <circle cx="388.065" cy="390.932" r="1.965" />
          <circle cx="401.918" cy="390.932" r="1.965" />
          <circle cx="415.771" cy="390.932" r="1.965" />
          <circle cx="429.624" cy="390.932" r="1.965" />
          <circle cx="443.477" cy="390.932" r="1.965" />
          <circle cx="457.33" cy="390.932" r="1.965" />
          <circle cx="471.183" cy="390.932" r="1.965" />
          <circle cx="485.035" cy="390.932" r="1.965" />
          <circle cx="498.888" cy="390.932" r="1.965" />
          <circle cx="512.741" cy="390.932" r="1.965" />
          <circle cx="526.595" cy="390.932" r="1.965" />
          <circle cx="346.506" cy="404.785" r="1.965" />
          <circle cx="360.359" cy="404.785" r="1.965" />
          <circle cx="374.212" cy="404.785" r="1.965" />
          <circle cx="388.065" cy="404.785" r="1.965" />
          <circle cx="387.955" cy="418.418" r="1.965" />
          <circle cx="401.919" cy="404.785" r="1.965" />
          <circle cx="402.334" cy="418.418" r="1.965" />
          <circle cx="415.772" cy="404.785" r="1.965" />
          <circle cx="415.869" cy="418.418" r="1.965" />
          <circle cx="415.869" cy="432.798" r="1.965" />
          <circle cx="415.869" cy="446.332" r="1.965" />
          <circle cx="415.869" cy="459.866" r="1.965" />
          <circle cx="415.869" cy="474.246" r="1.965" />
          <circle cx="415.869" cy="487.78" r="1.965" />
          <circle cx="415.869" cy="502.161" r="1.965" />
          <circle cx="429.403" cy="502.161" r="1.965" />
          <circle cx="443.783" cy="502.161" r="1.965" />
          <circle cx="457.317" cy="502.161" r="1.965" />
          <circle cx="471.697" cy="502.161" r="1.965" />
          <circle cx="485.231" cy="502.161" r="1.965" />
          <circle cx="498.766" cy="502.161" r="1.965" />
          <circle cx="513.147" cy="502.161" r="1.965" />
          <circle cx="429.624" cy="404.785" r="1.965" />
          <circle cx="443.477" cy="404.785" r="1.965" />
          <circle cx="457.33" cy="404.785" r="1.965" />
          <circle cx="471.183" cy="404.785" r="1.965" />
          <circle cx="485.035" cy="404.785" r="1.965" />
          <circle cx="498.888" cy="404.785" r="1.965" />
          <circle cx="512.741" cy="404.785" r="1.965" />
          <circle cx="526.595" cy="404.785" r="1.965" />
          <circle cx="346.506" cy="418.638" r="1.965" />
          <circle cx="360.359" cy="418.638" r="1.965" />
          <circle cx="374.212" cy="418.638" r="1.965" />
          <circle cx="429.624" cy="418.638" r="1.965" />
          <circle cx="443.477" cy="418.638" r="1.965" />
          <circle cx="457.33" cy="418.638" r="1.965" />
          <circle cx="471.183" cy="418.638" r="1.965" />
          <circle cx="485.035" cy="418.638" r="1.965" />
          <circle cx="498.888" cy="418.638" r="1.965" />
          <circle cx="512.741" cy="418.638" r="1.965" />
          <circle cx="526.595" cy="418.638" r="1.965" />
          <circle cx="346.506" cy="432.491" r="1.965" />
          <circle cx="360.359" cy="432.491" r="1.965" />
          <circle cx="374.212" cy="432.491" r="1.965" />
          <circle cx="388.065" cy="432.491" r="1.965" />
          <circle cx="401.918" cy="432.491" r="1.965" />
          <circle cx="429.624" cy="432.491" r="1.965" />
          <circle cx="443.477" cy="432.491" r="1.965" />
          <circle cx="457.33" cy="432.491" r="1.965" />
          <circle cx="471.183" cy="432.491" r="1.965" />
          <circle cx="485.035" cy="432.491" r="1.965" />
          <circle cx="498.888" cy="432.491" r="1.965" />
          <circle cx="512.741" cy="432.491" r="1.965" />
          <circle cx="526.595" cy="432.491" r="1.965" />
          <circle cx="346.506" cy="446.344" r="1.965" />
          <circle cx="360.359" cy="446.344" r="1.965" />
          <circle cx="374.212" cy="446.344" r="1.965" />
          <circle cx="388.065" cy="446.344" r="1.965" />
          <circle cx="401.918" cy="446.344" r="1.965" />
          <circle cx="429.624" cy="446.344" r="1.965" />
          <circle cx="443.477" cy="446.344" r="1.965" />
          <circle cx="457.33" cy="446.344" r="1.965" />
          <circle cx="471.183" cy="446.344" r="1.965" />
          <circle cx="485.035" cy="446.344" r="1.965" />
          <circle cx="498.888" cy="446.344" r="1.965" />
          <circle cx="512.741" cy="446.344" r="1.965" />
          <circle cx="526.595" cy="446.344" r="1.965" />
          <circle cx="346.506" cy="460.197" r="1.965" />
          <circle cx="360.359" cy="460.197" r="1.965" />
          <circle cx="374.212" cy="460.197" r="1.965" />
          <circle cx="388.065" cy="460.197" r="1.965" />
          <circle cx="401.918" cy="460.197" r="1.965" />
          <circle cx="429.624" cy="460.197" r="1.965" />
          <circle cx="443.477" cy="460.197" r="1.965" />
          <circle cx="457.33" cy="460.197" r="1.965" />
          <circle cx="471.183" cy="460.197" r="1.965" />
          <circle cx="485.035" cy="460.197" r="1.965" />
          <circle cx="498.888" cy="460.197" r="1.965" />
          <circle cx="512.741" cy="460.197" r="1.965" />
          <circle cx="526.595" cy="460.197" r="1.965" />
          <circle cx="346.506" cy="474.05" r="1.965" />
          <circle cx="360.359" cy="474.05" r="1.965" />
          <circle cx="374.212" cy="474.05" r="1.965" />
          <circle cx="388.065" cy="474.05" r="1.965" />
          <circle cx="401.918" cy="474.05" r="1.965" />
          <circle cx="429.624" cy="474.05" r="1.965" />
          <circle cx="443.477" cy="474.05" r="1.965" />
          <circle cx="457.33" cy="474.05" r="1.965" />
          <circle cx="471.183" cy="474.05" r="1.965" />
          <circle cx="485.035" cy="474.05" r="1.965" />
          <circle cx="498.888" cy="474.05" r="1.965" />
          <circle cx="512.741" cy="474.05" r="1.965" />
          <circle cx="526.595" cy="474.05" r="1.965" />
          <circle cx="346.506" cy="487.903" r="1.965" />
          <circle cx="360.359" cy="487.903" r="1.965" />
          <circle cx="374.212" cy="487.903" r="1.965" />
          <circle cx="388.065" cy="487.903" r="1.965" />
          <circle cx="401.918" cy="487.903" r="1.965" />
          <circle cx="429.624" cy="487.903" r="1.965" />
          <circle cx="443.477" cy="487.903" r="1.965" />
          <circle cx="457.33" cy="487.903" r="1.965" />
          <circle cx="471.183" cy="487.903" r="1.965" />
          <circle cx="485.035" cy="487.903" r="1.965" />
          <circle cx="498.888" cy="487.903" r="1.965" />
          <circle cx="512.741" cy="487.903" r="1.965" />
          <circle cx="526.595" cy="487.903" r="1.965" />
          <circle cx="346.506" cy="501.756" r="1.965" />
          <circle cx="360.359" cy="501.756" r="1.965" />
          <circle cx="374.212" cy="501.756" r="1.965" />
          <circle cx="388.065" cy="501.756" r="1.965" />
          <circle cx="401.918" cy="501.756" r="1.965" />
          <circle cx="526.681" cy="502.161" r="1.965" />
          <circle cx="346.506" cy="515.609" r="1.965" />
          <circle cx="360.359" cy="515.609" r="1.965" />
          <circle cx="374.212" cy="515.609" r="1.965" />
          <circle cx="388.065" cy="515.609" r="1.965" />
          <circle cx="401.918" cy="515.609" r="1.965" />
          <circle cx="415.771" cy="515.609" r="1.965" />
          <circle cx="429.624" cy="515.609" r="1.965" />
          <circle cx="443.477" cy="515.609" r="1.965" />
          <circle cx="457.33" cy="515.609" r="1.965" />
          <circle cx="471.183" cy="515.609" r="1.965" />
          <circle cx="485.035" cy="515.609" r="1.965" />
          <circle cx="498.888" cy="515.609" r="1.965" />
          <circle cx="512.741" cy="515.609" r="1.965" />
          <circle cx="526.595" cy="515.609" r="1.965" />
          <circle cx="346.506" cy="529.462" r="1.965" />
          <circle cx="360.359" cy="529.462" r="1.965" />
          <circle cx="374.212" cy="529.462" r="1.965" />
          <circle cx="388.065" cy="529.462" r="1.965" />
          <circle cx="401.918" cy="529.462" r="1.965" />
          <circle cx="415.771" cy="529.462" r="1.965" />
          <circle cx="429.624" cy="529.462" r="1.965" />
          <circle cx="443.477" cy="529.462" r="1.965" />
          <circle cx="457.33" cy="529.462" r="1.965" />
          <circle cx="471.183" cy="529.462" r="1.965" />
          <circle cx="485.035" cy="529.462" r="1.965" />
          <circle cx="498.888" cy="529.462" r="1.965" />
          <circle cx="512.741" cy="529.462" r="1.965" />
          <circle cx="526.595" cy="529.462" r="1.965" />
          <circle cx="346.506" cy="543.315" r="1.965" />
          <circle cx="360.359" cy="543.315" r="1.965" />
          <circle cx="374.212" cy="543.315" r="1.965" />
          <circle cx="388.065" cy="543.315" r="1.965" />
          <circle cx="387.955" cy="557.144" r="1.965" />
          <circle cx="402.334" cy="557.144" r="1.965" />
          <circle cx="415.869" cy="557.144" r="1.965" />
          <circle cx="429.403" cy="557.144" r="1.965" />
          <circle cx="443.783" cy="557.144" r="1.965" />
          <circle cx="457.317" cy="557.144" r="1.965" />
          <circle cx="470.853" cy="557.144" r="1.965" />
          <circle cx="485.231" cy="557.144" r="1.965" />
          <circle cx="401.918" cy="543.315" r="1.965" />
          <circle cx="415.771" cy="543.315" r="1.965" />
          <circle cx="429.624" cy="543.315" r="1.965" />
          <circle cx="443.477" cy="543.315" r="1.965" />
          <circle cx="457.33" cy="543.315" r="1.965" />
          <circle cx="471.183" cy="543.315" r="1.965" />
          <circle cx="485.035" cy="543.315" r="1.965" />
          <circle cx="498.888" cy="543.315" r="1.965" />
          <circle cx="512.741" cy="543.315" r="1.965" />
          <circle cx="526.595" cy="543.315" r="1.965" />
          <circle cx="346.506" cy="557.168" r="1.965" />
          <circle cx="360.359" cy="557.168" r="1.965" />
          <circle cx="374.212" cy="557.168" r="1.965" />
          <circle cx="498.888" cy="557.168" r="1.965" />
          <circle cx="512.741" cy="557.168" r="1.965" />
          <circle cx="526.595" cy="557.168" r="1.965" />
          <circle cx="346.506" cy="571.021" r="1.965" />
          <circle cx="360.359" cy="571.021" r="1.965" />
          <circle cx="374.212" cy="571.021" r="1.965" />
          <circle cx="388.065" cy="571.021" r="1.965" />
          <circle cx="401.918" cy="571.021" r="1.965" />
          <circle cx="415.771" cy="571.021" r="1.965" />
          <circle cx="429.624" cy="571.021" r="1.965" />
          <circle cx="443.477" cy="571.021" r="1.965" />
          <circle cx="457.33" cy="571.021" r="1.965" />
          <circle cx="471.183" cy="571.021" r="1.965" />
          <circle cx="485.035" cy="571.021" r="1.965" />
          <circle cx="498.888" cy="571.021" r="1.965" />
          <circle cx="512.741" cy="571.021" r="1.965" />
          <circle cx="526.595" cy="571.021" r="1.965" />
          <circle cx="346.506" cy="584.874" r="1.965" />
          <circle cx="360.359" cy="584.874" r="1.965" />
          <circle cx="374.212" cy="584.874" r="1.965" />
          <circle cx="388.065" cy="584.874" r="1.965" />
          <circle cx="401.918" cy="584.874" r="1.965" />
          <circle cx="415.771" cy="584.874" r="1.965" />
          <circle cx="429.624" cy="584.874" r="1.965" />
          <circle cx="443.477" cy="584.874" r="1.965" />
          <circle cx="457.33" cy="584.874" r="1.965" />
          <circle cx="471.183" cy="584.874" r="1.965" />
          <circle cx="485.035" cy="584.874" r="1.965" />
          <circle cx="498.888" cy="584.874" r="1.965" />
          <circle cx="512.741" cy="584.874" r="1.965" />
          <circle cx="526.595" cy="584.874" r="1.965" />
        </g>
      </g>
      <path fill="url(#h)" d="M153.444 69.084h621.479v447.738H153.444z" />
      <path fill="url(#i)" fill-opacity=".5" d="M153.444 69.084h621.479v447.738H153.444z" />
      <path stroke="url(#j)" stroke-linecap="round" stroke-linejoin="round" stroke-width="2.187"
        d="M549.342 132.944s-18.919-15.227-32.473-22.68c-12.238-6.729-32.851-14.13-32.851-14.13m-48.102-11.049 18.171 10.91 9.88-.029 8.176.001s18.286 8.603 28.992 15.783c11.176 7.494 26.64 21.852 26.64 21.852l11.362-.249 7.222-.216 2.972-.172 26.73 26.326 21.739 30.595 16.068 33.895 9.896 36.132 3.434 37.237-3.118 37.18-9.56 35.983M435.916 85.085s-19.847-2.533-26.604-2.533m26.604 2.533s7.483 1.177 12.245 2.112c9.554 1.875 24.213 5.933 24.213 5.933l8.104 2.092 3.54.913M409.312 82.55c-1.373.442-2.911.97-4.449 1.516-6.349 2.251-12.411 5.224-18.237 8.607l-7.295 4.235m29.981-14.358c-8.218 1.802-19.161 4.404-26.178 6.093a120.01 120.01 0 0 0-13.665 4.176l-11.361 4.217m51.204-14.486c8.11 5.146 20.692 13.713 20.692 13.713m-20.692-13.712a47.909 47.909 0 0 0-2.955 6.756c-.843 2.412-2.112 7.178-2.112 7.178m5.067-13.934c-8.58.6-25.879 3.378-34.319 5.04-12.101 2.384-31.254 9.317-31.254 9.317m0 0s-23.227 13.032-31.549 18.157c-12.058 7.427-28.494 20.887-28.494 20.887l-.202.217s-16.611 16.766-25.355 28.302c-8.807 11.619-19.433 30.852-19.433 30.852s-10.135 21.082-14.74 35.29c-4.639 14.307-7.753 38.159-7.753 38.159M343.739 96.909s3.677.099 6.033.128c3.255.04 8.336 0 8.336 0m-14.369-.128-16.749 6.559a159.602 159.602 0 0 0-33.374 17.894l-20.697 14.498m0 0s-15.346 14.252-24.492 25.656c-8.99 11.21-20.766 32.069-20.766 32.069m45.258-57.725 3.694.007 7.068.065 11.211.021m117.039 375.926s-4.427.039-7.264 0c-6.272-.088-16.046-.722-16.046-.722m19.608-4.223-28.053-.422m28.053.422s7.352.046 12.062 0c5.773-.056 14.78-.321 14.78-.321m-26.842.321 3.728 4.971 6.516-.054m-10.244-4.917s-2.342-7.152-3.562-12.245c-1.317-5.503-2.684-14.793-2.684-14.793s-1.761-14.19-2.805-23.634c-1.25-11.308-2.64-29.499-2.64-29.499l-2.021-34.195-1.426-37.791m-12.915 151.735s-6.521-5.408-11.951-10.4c-6.53-6.003-14.323-17.629-14.323-17.629m26.274 28.029 8.445 4.645m-8.445-4.645-24.07-3.191 5.49 2.769m-47.295-31.248s10.841 1.637 18.033 2.354c8.284.826 21.568 1.287 21.568 1.287m-39.601-3.641s-12.561-14.897-20.592-24.375c-8.03-9.478-17.834-29.676-17.834-29.676m38.426 54.051s13.397 12.175 23.249 18.251c9.369 5.778 24.046 12.997 24.046 12.997m-47.295-31.248s-9.249-1.168-15.021-2.637c-6.842-1.74-17.052-6.001-17.052-6.001m342.865-131.89-3.459 3.263-10.08 3.264-16.665 3.164-22.909 2.944-28.563 2.61-33.316 2.173-36.926 1.637m0 0-39.174 1.032-40.91.376m80.084-1.408s-.737 22.761-2.449 37.424c-1.576 13.506-5.544 34.582-5.544 34.582m7.993-72.006s.341-25.385 0-41.524c-.323-15.255-1.678-38.864-1.678-38.864m-78.406 81.796-38.127-.283-37.707-.844m75.834 1.127s-1.004-24.064-1.092-42.932c-.059-12.644.243-37.658.243-37.658m-74.985 79.463-62.496-2.956m62.496 2.956s2.367 22.966 5.111 37.482c2.541 13.442 8.134 34.071 8.134 34.071s4.563 17.256 9.136 27.681c4.596 10.48 14.264 25.599 14.264 25.599M317.257 353.65s-2.33-27.565-2.533-43.072c-.206-15.73 1.396-36.911 1.396-36.911s1.942-24.072 4.296-39.35c2.24-14.545 7.293-36.97 7.293-36.97s5.301-20.522 9.982-33.243c4.17-11.331 12.235-28.393 12.235-28.393s6.603-10.51 13.359-20.645c6.756-10.134 16.046-18.157 16.046-18.157m-124.57 253.785s-10.128-.572-20.39-2.111c-8.764-1.315-16.469-2.956-16.469-2.956m36.859 5.067s4.932 22.209 8.974 36.387c3.882 13.613 12.14 33.71 12.14 33.71m-21.114-70.097s-2.742-26.144-2.956-40.96c-.228-15.814 2.606-38.218 2.606-38.218m-36.509 74.111s-7.174-1.679-10.447-4.058c-1.445-1.05-4.211-3.543-4.211-3.543m14.658 7.601s2.617 19.953 8.337 35.463c5.014 13.594 15.687 33.623 15.687 33.623l14.671 3.3 19.278 2.778m-57.973-75.164s-3.045-25.176-3.257-40.116c-.209-14.782 1.568-36.738 1.568-36.738m-12.969 69.253s-2.928-12.543-2.928-36.725c0-17.569 2.805-37.256 2.805-37.256m.123 73.981s4.714 24.373 10.557 38.849c5.04 12.488 18.58 34.626 18.58 34.626m156.24 99.656s-19.847-3.122-27.025-5.067m0 0a5188.081 5188.081 0 0 1-12.027-3.274s-21.606-7.783-34.423-14.462c-13.741-7.159-32.918-22.15-32.918-22.15m-49.847-54.703 9.513 3.222s11.591 17.807 20.046 28.448c7.456 9.386 20.288 23.033 20.288 23.033m-49.847-54.703s11.401 18.158 22.252 29.477c9.418 10.639 27.595 25.226 27.595 25.226m267.208-2.486-3.151 2.155-2.688 1.845s-9.039 6.018-19.216 11.956c-5.713 3.333-20.404 9.681-20.404 9.681m-36.504 14.734-32.402 2.524m32.402-2.524s8.959-6.734 16.176-13.756c8.692-8.459 12.928-14.946 12.928-14.946s10.542-15.133 16.161-25.117c6.253-11.111 13.651-28.981 13.651-28.981l9.971-34.193 6.064-37.484.154-37.573-.669-41.759-6.589-38.912-10.505-36.48s-7.602-20.395-13.987-32.75c-5.852-11.322-16.897-27.919-16.897-27.919s-10.785-14.398-19.151-22.226c-7.447-6.967-20.683-15.94-20.683-15.94l-11.275.053m24.651 407.983s-23.995 5.422-30.864 6.552c-2.171.357-5.606.568-5.606.568m36.47-7.12 16.176-5.326 18.292-8.43 2.063-.951 26.1-19.293M358.108 97.037s5.572.058 9.4 0c4.386-.067 11.823-.128 11.823-.128m-21.223.128-8.695 5.664a198.343 198.343 0 0 0-30.446 24.416l-8.99 8.795-15.08.03m135.107-39.678s6.698 9.467 9.952 15.996c4.21 8.45 8.824 22.507 8.824 22.507s5.183 17.161 7.864 28.322c3.094 12.879 6.583 33.273 6.583 33.273s3.436 22.557 5.027 37.085c1.686 15.399 3.243 39.534 3.243 39.534M430.004 96.264h-12.471l-13.288.223m25.759-.223 12.797-.195m28.696 176.912 38.054-1.169 33.398-1.548 28.628-1.818 22.974-2.021 16.702-2.134 10.108-2.187 3.469-2.154m-153.333 13.031-38.223.851-41.032.355m72.94 151.188s-3.001 16.606-5.619 27.086c-2.598 10.397-7.71 26.336-7.71 26.336s-4.153 11.271-8.375 17.608c-3.085 4.632-8.407 10.208-8.407 10.208m30.111-81.238 32.12-1.754 29.056-2.374 25.015-2.903 20.188-3.296 13.849-34.052 8.471-36.986 2.733-38.651-3.129-38.971-8.886-37.921-14.298-35.553-19.18-31.973-23.335-27.334-15.219.28m-47.385 291.488-34.016 1.062-34.644.332-33.983-.425-32.042-1.157-28.962-1.833-25.66-2.563m159.196 85.822-10.203 5.029-6.411.241m-26.215-237.696.615-39.696 1.283-37.258 1.881-33.445 2.403-28.487s1.286-13.879 2.823-22.665c1.111-6.35 2.998-16.15 2.998-16.15m-12.003 177.701-38.171-.014-36.906-.48-33.254-.892-29.5-1.285m149.834-175.03s-6.756.308-12.668.423c-4.781.093-12.246 0-12.246 0m94.653-3.056 8.357 2.194.164.043m63.87 37.042 26.463 26.669 21.599 31.056 15.996 34.457 9.878 36.747 3.436 37.837-3.11 37.69-9.524 36.333-15.598 33.805-21.121 30.241-1.999 1.98-15.56 15.437-8.38 8.312-7.141 3.262-1.933 1.349m-185.479 10.176 23.362 1.022 24.698.407 25.156-.238 24.714-.861 23.406-1.456M328.521 135.866l21.411-.139 23.569-.177 24.923-.223 25.391-.253 24.955-.286 23.639-.288 21.501-.292 18.657-.295M254.411 271.516s3.337-23.74 7.163-38.578c3.725-14.445 11.991-36.268 11.991-36.268s8.955-20.484 16.352-32.693c6.976-11.515 20.06-28.039 20.06-28.039l18.534-.078m-74.1 135.656-21.721-1.544-16.477-1.199m0 0s-6.943-1.549-10.435-3.378c-1.325-.694-2.657-1.35-2.657-1.35m0 0s3.217-22.484 8.023-36.287c4.812-13.82 16.517-34.173 16.517-34.173m0 0s3.005.56 5.021.868c2.741.42 7.048.86 7.048.86l14.72.732 20.139.588 25.021.424 29.123.253 32.228.055 34.182-.153 34.861-.342 34.226-.53 32.327-.692 29.256-.824 25.186-.928 20.326-.992 14.92-1.029 9.2-1.024 3.385-.987m-59.699-56.474 25.337 27.003 20.748 31.53 15.42 35.017 9.546 37.35m-23.816 147.198-14.815 3.581-18.685 29.998m-77.623 32.306 21.286-1.997s11.285-1.298 18.466-2.465c5.924-.964 15.109-2.822 15.109-2.822m-98.808 41.068-.282.084-6.109.407m189.657-141.287-15.671 33.662-3.35 3.756-9.133 3.73-20.261 30.118m-13.233 3.451-22.81 25.011m0 0-.011-.005 11.237-3.105 23.484-24.032 1.317-1.341m32.749-37.615-4.732 6.753-16.543 23.582-3.206 3.657M472.159 95.962l6.229.04 4.117.061 1.513.072" />
      <path stroke="url(#k)" stroke-linecap="round" stroke-linejoin="round" stroke-width="2.187"
        d="M549.342 132.944s-18.919-15.227-32.473-22.68c-12.238-6.729-32.851-14.13-32.851-14.13m-48.102-11.049 18.171 10.91 9.88-.029 8.176.001s18.286 8.603 28.992 15.783c11.176 7.494 26.64 21.852 26.64 21.852l11.362-.249 7.222-.216 2.972-.172 26.73 26.326 21.739 30.595 16.068 33.895 9.896 36.132 3.434 37.237-3.118 37.18-9.56 35.983M435.916 85.085s-19.847-2.533-26.604-2.533m26.604 2.533s7.483 1.177 12.245 2.112c9.554 1.875 24.213 5.933 24.213 5.933l8.104 2.092 3.54.913M409.312 82.55c-1.373.442-2.911.97-4.449 1.516-6.349 2.251-12.411 5.224-18.237 8.607l-7.295 4.235m29.981-14.358c-8.218 1.802-19.161 4.404-26.178 6.093a120.01 120.01 0 0 0-13.665 4.176l-11.361 4.217m51.204-14.486c8.11 5.146 20.692 13.713 20.692 13.713m-20.692-13.712a47.909 47.909 0 0 0-2.955 6.756c-.843 2.412-2.112 7.178-2.112 7.178m5.067-13.934c-8.58.6-25.879 3.378-34.319 5.04-12.101 2.384-31.254 9.317-31.254 9.317m0 0s-23.227 13.032-31.549 18.157c-12.058 7.427-28.494 20.887-28.494 20.887l-.202.217s-16.611 16.766-25.355 28.302c-8.807 11.619-19.433 30.852-19.433 30.852s-10.135 21.082-14.74 35.29c-4.639 14.307-7.753 38.159-7.753 38.159M343.739 96.909s3.677.099 6.033.128c3.255.04 8.336 0 8.336 0m-14.369-.128-16.749 6.559a159.602 159.602 0 0 0-33.374 17.894l-20.697 14.498m0 0s-15.346 14.252-24.492 25.656c-8.99 11.21-20.766 32.069-20.766 32.069m45.258-57.725 3.694.007 7.068.065 11.211.021m117.039 375.926s-4.427.039-7.264 0c-6.272-.088-16.046-.722-16.046-.722m19.608-4.223-28.053-.422m28.053.422s7.352.046 12.062 0c5.773-.056 14.78-.321 14.78-.321m-26.842.321 3.728 4.971 6.516-.054m-10.244-4.917s-2.342-7.152-3.562-12.245c-1.317-5.503-2.684-14.793-2.684-14.793s-1.761-14.19-2.805-23.634c-1.25-11.308-2.64-29.499-2.64-29.499l-2.021-34.195-1.426-37.791m-12.915 151.735s-6.521-5.408-11.951-10.4c-6.53-6.003-14.323-17.629-14.323-17.629m26.274 28.029 8.445 4.645m-8.445-4.645-24.07-3.191 5.49 2.769m-47.295-31.248s10.841 1.637 18.033 2.354c8.284.826 21.568 1.287 21.568 1.287m-39.601-3.641s-12.561-14.897-20.592-24.375c-8.03-9.478-17.834-29.676-17.834-29.676m38.426 54.051s13.397 12.175 23.249 18.251c9.369 5.778 24.046 12.997 24.046 12.997m-47.295-31.248s-9.249-1.168-15.021-2.637c-6.842-1.74-17.052-6.001-17.052-6.001m342.865-131.89-3.459 3.263-10.08 3.264-16.665 3.164-22.909 2.944-28.563 2.61-33.316 2.173-36.926 1.637m0 0-39.174 1.032-40.91.376m80.084-1.408s-.737 22.761-2.449 37.424c-1.576 13.506-5.544 34.582-5.544 34.582m7.993-72.006s.341-25.385 0-41.524c-.323-15.255-1.678-38.864-1.678-38.864m-78.406 81.796-38.127-.283-37.707-.844m75.834 1.127s-1.004-24.064-1.092-42.932c-.059-12.644.243-37.658.243-37.658m-74.985 79.463-62.496-2.956m62.496 2.956s2.367 22.966 5.111 37.482c2.541 13.442 8.134 34.071 8.134 34.071s4.563 17.256 9.136 27.681c4.596 10.48 14.264 25.599 14.264 25.599M317.257 353.65s-2.33-27.565-2.533-43.072c-.206-15.73 1.396-36.911 1.396-36.911s1.942-24.072 4.296-39.35c2.24-14.545 7.293-36.97 7.293-36.97s5.301-20.522 9.982-33.243c4.17-11.331 12.235-28.393 12.235-28.393s6.603-10.51 13.359-20.645c6.756-10.134 16.046-18.157 16.046-18.157m-124.57 253.785s-10.128-.572-20.39-2.111c-8.764-1.315-16.469-2.956-16.469-2.956m36.859 5.067s4.932 22.209 8.974 36.387c3.882 13.613 12.14 33.71 12.14 33.71m-21.114-70.097s-2.742-26.144-2.956-40.96c-.228-15.814 2.606-38.218 2.606-38.218m-36.509 74.111s-7.174-1.679-10.447-4.058c-1.445-1.05-4.211-3.543-4.211-3.543m14.658 7.601s2.617 19.953 8.337 35.463c5.014 13.594 15.687 33.623 15.687 33.623l14.671 3.3 19.278 2.778m-57.973-75.164s-3.045-25.176-3.257-40.116c-.209-14.782 1.568-36.738 1.568-36.738m-12.969 69.253s-2.928-12.543-2.928-36.725c0-17.569 2.805-37.256 2.805-37.256m.123 73.981s4.714 24.373 10.557 38.849c5.04 12.488 18.58 34.626 18.58 34.626m156.24 99.656s-19.847-3.122-27.025-5.067m0 0a5188.081 5188.081 0 0 1-12.027-3.274s-21.606-7.783-34.423-14.462c-13.741-7.159-32.918-22.15-32.918-22.15m-49.847-54.703 9.513 3.222s11.591 17.807 20.046 28.448c7.456 9.386 20.288 23.033 20.288 23.033m-49.847-54.703s11.401 18.158 22.252 29.477c9.418 10.639 27.595 25.226 27.595 25.226m267.208-2.486-3.151 2.155-2.688 1.845s-9.039 6.018-19.216 11.956c-5.713 3.333-20.404 9.681-20.404 9.681m-36.504 14.734-32.402 2.524m32.402-2.524s8.959-6.734 16.176-13.756c8.692-8.459 12.928-14.946 12.928-14.946s10.542-15.133 16.161-25.117c6.253-11.111 13.651-28.981 13.651-28.981l9.971-34.193 6.064-37.484.154-37.573-.669-41.759-6.589-38.912-10.505-36.48s-7.602-20.395-13.987-32.75c-5.852-11.322-16.897-27.919-16.897-27.919s-10.785-14.398-19.151-22.226c-7.447-6.967-20.683-15.94-20.683-15.94l-11.275.053m24.651 407.983s-23.995 5.422-30.864 6.552c-2.171.357-5.606.568-5.606.568m36.47-7.12 16.176-5.326 18.292-8.43 2.063-.951 26.1-19.293M358.108 97.037s5.572.058 9.4 0c4.386-.067 11.823-.128 11.823-.128m-21.223.128-8.695 5.664a198.343 198.343 0 0 0-30.446 24.416l-8.99 8.795-15.08.03m135.107-39.678s6.698 9.467 9.952 15.996c4.21 8.45 8.824 22.507 8.824 22.507s5.183 17.161 7.864 28.322c3.094 12.879 6.583 33.273 6.583 33.273s3.436 22.557 5.027 37.085c1.686 15.399 3.243 39.534 3.243 39.534M430.004 96.264h-12.471l-13.288.223m25.759-.223 12.797-.195m28.696 176.912 38.054-1.169 33.398-1.548 28.628-1.818 22.974-2.021 16.702-2.134 10.108-2.187 3.469-2.154m-153.333 13.031-38.223.851-41.032.355m72.94 151.188s-3.001 16.606-5.619 27.086c-2.598 10.397-7.71 26.336-7.71 26.336s-4.153 11.271-8.375 17.608c-3.085 4.632-8.407 10.208-8.407 10.208m30.111-81.238 32.12-1.754 29.056-2.374 25.015-2.903 20.188-3.296 13.849-34.052 8.471-36.986 2.733-38.651-3.129-38.971-8.886-37.921-14.298-35.553-19.18-31.973-23.335-27.334-15.219.28m-47.385 291.488-34.016 1.062-34.644.332-33.983-.425-32.042-1.157-28.962-1.833-25.66-2.563m159.196 85.822-10.203 5.029-6.411.241m-26.215-237.696.615-39.696 1.283-37.258 1.881-33.445 2.403-28.487s1.286-13.879 2.823-22.665c1.111-6.35 2.998-16.15 2.998-16.15m-12.003 177.701-38.171-.014-36.906-.48-33.254-.892-29.5-1.285m149.834-175.03s-6.756.308-12.668.423c-4.781.093-12.246 0-12.246 0m94.653-3.056 8.357 2.194.164.043m63.87 37.042 26.463 26.669 21.599 31.056 15.996 34.457 9.878 36.747 3.436 37.837-3.11 37.69-9.524 36.333-15.598 33.805-21.121 30.241-1.999 1.98-15.56 15.437-8.38 8.312-7.141 3.262-1.933 1.349m-185.479 10.176 23.362 1.022 24.698.407 25.156-.238 24.714-.861 23.406-1.456M328.521 135.866l21.411-.139 23.569-.177 24.923-.223 25.391-.253 24.955-.286 23.639-.288 21.501-.292 18.657-.295M254.411 271.516s3.337-23.74 7.163-38.578c3.725-14.445 11.991-36.268 11.991-36.268s8.955-20.484 16.352-32.693c6.976-11.515 20.06-28.039 20.06-28.039l18.534-.078m-74.1 135.656-21.721-1.544-16.477-1.199m0 0s-6.943-1.549-10.435-3.378c-1.325-.694-2.657-1.35-2.657-1.35m0 0s3.217-22.484 8.023-36.287c4.812-13.82 16.517-34.173 16.517-34.173m0 0s3.005.56 5.021.868c2.741.42 7.048.86 7.048.86l14.72.732 20.139.588 25.021.424 29.123.253 32.228.055 34.182-.153 34.861-.342 34.226-.53 32.327-.692 29.256-.824 25.186-.928 20.326-.992 14.92-1.029 9.2-1.024 3.385-.987m-59.699-56.474 25.337 27.003 20.748 31.53 15.42 35.017 9.546 37.35m-23.816 147.198-14.815 3.581-18.685 29.998m-77.623 32.306 21.286-1.997s11.285-1.298 18.466-2.465c5.924-.964 15.109-2.822 15.109-2.822m-98.808 41.068-.282.084-6.109.407m189.657-141.287-15.671 33.662-3.35 3.756-9.133 3.73-20.261 30.118m-13.233 3.451-22.81 25.011m0 0-.011-.005 11.237-3.105 23.484-24.032 1.317-1.341m32.749-37.615-4.732 6.753-16.543 23.582-3.206 3.657M472.159 95.962l6.229.04 4.117.061 1.513.072" />
      <path fill="url(#l)" d="M287.927 379.39h89.754v85.48h-89.754z" />
      <path fill="url(#m)" d="M351.345 154.403h89.754v85.48h-89.754z" />
      <path fill="#00DC82"
        d="m242.541 187.807-2.002 6.454 8.416 1.591-9.541.547-4.741 7.174 2.45-7.437-8.074-2.362 9.119.284 4.373-6.251ZM316.425 129.179l-3.726 5.639 10.097 1.241-12.256.946-5.399 5.956 2.613-5.956-8.565-1.24 10.389-.947 6.847-5.639Z" />
      <path fill="#00DC82"
        d="m445.839 90.505 8.543 4.324 9.486.668-6.36 1.586 2.407 3.6-6.108-3.522-13.92-1.282 10.39-.895-4.438-4.48Z"
        opacity=".59" />
      <path fill="#00DC82"
        d="m253.831 338.925 1.842 10.753 12.276 1.598-11.732.599.828 8.929-3.214-9.084-12.738-2.243h12.471l.267-10.552ZM392.233 262.431l1.022 10.666 12.139.997-12.088 1.164-1.282 9.679-.883-9.679-12.361-1.164 12.412-.997 1.041-10.666ZM502.61 466.544l-3.766 7.467 11.359-.347-12.996 2.73-8.22 8.46 5.45-8.256-10.499-.209 12.07-2.044 6.602-7.801ZM398.198 205.01h12.187c.389 0 .761-.136 1.098-.329.337-.193.684-.435.878-.769.195-.333.33-.712.33-1.098-.001-.385-.135-.764-.33-1.097l-8.234-14.163a2 2 0 0 0-.769-.769 2.644 2.644 0 0 0-1.207-.329c-.389 0-.761.136-1.098.329a2.008 2.008 0 0 0-.769.769l-2.086 3.623-4.172-7.027c-.194-.334-.432-.685-.768-.878-.337-.193-.709-.22-1.098-.22-.389 0-.761.027-1.098.22a2.597 2.597 0 0 0-.878.878l-10.211 17.567c-.195.333-.219.712-.22 1.097 0 .386.026.765.22 1.098.194.334.542.576.878.769.337.193.709.329 1.098.329h7.686c3.045 0 5.261-1.366 6.807-3.952l3.732-6.478 1.977-3.403 6.038 10.32h-8.015l-1.976 3.513Zm-8.673-3.513h-5.38l8.015-13.834 4.062 6.917-2.691 4.691c-1.026 1.678-2.196 2.226-4.006 2.226ZM331.539 431.266h10.141c.324 0 .633-.114.914-.274.28-.161.569-.362.731-.64.161-.278.274-.593.274-.914 0-.32-.112-.635-.274-.913l-6.853-11.786a1.665 1.665 0 0 0-.639-.64 2.214 2.214 0 0 0-1.005-.274c-.324 0-.634.114-.914.274-.28.161-.478.362-.639.64l-1.736 3.015-3.472-5.847c-.162-.278-.359-.571-.639-.731-.281-.16-.59-.183-.914-.183-.324 0-.633.023-.914.183-.28.16-.569.453-.731.731l-8.496 14.618c-.162.278-.183.593-.183.913 0 .321.021.636.183.914.161.278.45.479.731.64.28.16.59.274.913.274h6.396c2.534 0 4.378-1.137 5.664-3.289l3.106-5.391 1.645-2.832 5.025 8.588h-6.67l-1.644 2.924Zm-7.218-2.924h-4.477l6.67-11.512 3.38 5.756-2.239 3.904c-.854 1.396-1.827 1.852-3.334 1.852Z" />
    </g>
    <path fill="url(#n)" d="M185 47h574v87H185z" transform="rotate(90 185 47)" />
    <path fill="url(#o)" d="M94-7h566v117H94z" />
    <g filter="url(#p)">
      <path fill="url(#q)"
        d="m646.556-303.355 54.526 267.569 213.76-169.921L784.621 34.311l272.969 7.236-254.032 100.16 204.462 181.006-258.988-86.563 40.276 270.082-142.752-232.784-142.752 232.784 40.275-270.082-258.984 86.563 204.458-181.006-254.036-100.16L508.49 34.31 378.27-205.707l213.759 169.92 54.527-267.568Z" />
    </g>
  </g>
  <defs>
    <clipPath id="a">
      <path fill="#fff" d="M0-23h534v643H0z" />
    </clipPath>
    <clipPath id="b">
      <path fill="#fff" d="M125.968 10.766h574.289v574.43H125.968z" />
    </clipPath>
    <clipPath id="c">
      <path fill="#fff" d="M83-108h999v878H83z" />
    </clipPath>
    <clipPath id="d">
      <path fill="#fff" d="M-141.001-108h477.928v436.369h-477.928z" />
    </clipPath>
    <clipPath id="e">
      <path fill="#fff" d="M345.542-108H823.47v436.369H345.542z" />
    </clipPath>
    <clipPath id="f">
      <path fill="#fff" d="M-141.001 333.555h477.928v436.369h-477.928z" />
    </clipPath>
    <clipPath id="g">
      <path fill="#fff" d="M344.541 333.555h477.928v436.369H344.541z" />
    </clipPath>
    <linearGradient id="j" x1="423.655" x2="431.57" y1="63.047" y2="520.81" gradientUnits="userSpaceOnUse">
      <stop stop-color="#475569" stop-opacity=".22" />
      <stop offset=".455" stop-color="#475569" />
      <stop offset="1" stop-color="#475569" stop-opacity=".22" />
    </linearGradient>
    <linearGradient id="k" x1="491.782" x2="381.745" y1="263.18" y2="27.383" gradientUnits="userSpaceOnUse">
      <stop stop-color="#00DC82" stop-opacity="0" />
      <stop offset="1" stop-color="#00DC82" />
    </linearGradient>
    <linearGradient id="n" x1="472" x2="472.318" y1="134" y2="63.344" gradientUnits="userSpaceOnUse">
      <stop stop-color="#020420" />
      <stop offset="1" stop-color="#020420" stop-opacity="0" />
    </linearGradient>
    <linearGradient id="o" x1="377.196" x2="376.612" y1="14.98" y2="109.998" gradientUnits="userSpaceOnUse">
      <stop stop-color="#020420" />
      <stop offset="1" stop-color="#020420" stop-opacity="0" />
    </linearGradient>
    <linearGradient id="q" x1="646.556" x2="358.114" y1="-303.355" y2="439.617" gradientUnits="userSpaceOnUse">
      <stop stop-color="#00DC82" />
      <stop offset="1" stop-color="#00DC82" stop-opacity="0" />
    </linearGradient>
    <radialGradient id="h" cx="0" cy="0" r="1" gradientTransform="matrix(0 223.869 -310.769 0 464.184 292.952)"
      gradientUnits="userSpaceOnUse">
      <stop stop-color="#020420" />
      <stop offset="1" stop-color="#020420" stop-opacity="0" />
    </radialGradient>
    <radialGradient id="i" cx="0" cy="0" r="1" gradientTransform="rotate(79.006 70.654 355.55) scale(304.016 422.028)"
      gradientUnits="userSpaceOnUse">
      <stop stop-color="#020420" />
      <stop offset="1" stop-color="#020420" stop-opacity="0" />
    </radialGradient>
    <radialGradient id="l" cx="0" cy="0" r="1" gradientTransform="matrix(0 42.7402 -44.8814 0 332.805 422.13)"
      gradientUnits="userSpaceOnUse">
      <stop stop-color="#020420" />
      <stop offset="1" stop-color="#020420" stop-opacity="0" />
    </radialGradient>
    <radialGradient id="m" cx="0" cy="0" r="1" gradientTransform="matrix(0 42.7402 -44.8814 0 396.222 197.143)"
      gradientUnits="userSpaceOnUse">
      <stop stop-color="#020420" />
      <stop offset="1" stop-color="#020420" stop-opacity="0" />
    </radialGradient>
    <filter id="p" width="1292.08" height="1279.59" x=".517" y="-538.355" color-interpolation-filters="sRGB"
      filterUnits="userSpaceOnUse">
      <feFlood flood-opacity="0" result="BackgroundImageFix" />
      <feBlend in="SourceGraphic" in2="BackgroundImageFix" result="shape" />
      <feGaussianBlur result="effect1_foregroundBlur_87_95389" stdDeviation="117.5" />
    </filter>
  </defs>
</svg>
