<svg xmlns="http://www.w3.org/2000/svg" width="377" height="140" fill="none">
  <g clip-path="url(#a)" opacity=".14">
    <circle cx="1.965" cy="1.965" r="1.965" fill="#334155" />
    <circle cx="15.819" cy="1.965" r="1.965" fill="#334155" />
    <circle cx="29.67" cy="1.965" r="1.965" fill="#334155" />
    <circle cx="43.526" cy="1.965" r="1.965" fill="#334155" />
    <circle cx="57.377" cy="1.965" r="1.965" fill="#334155" />
    <circle cx="71.231" cy="1.965" r="1.965" fill="#334155" />
    <circle cx="85.083" cy="1.965" r="1.965" fill="#334155" />
    <circle cx="98.936" cy="1.965" r="1.965" fill="#334155" />
    <circle cx="112.79" cy="1.965" r="1.965" fill="#334155" />
    <circle cx="126.643" cy="1.965" r="1.965" fill="#334155" />
    <circle cx="140.497" cy="1.965" r="1.965" fill="#334155" />
    <circle cx="154.348" cy="1.965" r="1.965" fill="#334155" />
    <circle cx="168.202" cy="1.965" r="1.965" fill="#334155" />
    <circle cx="182.055" cy="1.965" r="1.965" fill="#334155" />
    <circle cx="195.909" cy="1.965" r="1.965" fill="#334155" />
    <circle cx="209.76" cy="1.965" r="1.965" fill="#334155" />
    <circle cx="223.614" cy="1.965" r="1.965" fill="#334155" />
    <circle cx="237.465" cy="1.965" r="1.965" fill="#334155" />
    <circle cx="251.319" cy="1.965" r="1.965" fill="#334155" />
    <circle cx="265.172" cy="1.965" r="1.965" fill="#334155" />
    <circle cx="279.024" cy="1.965" r="1.965" fill="#334155" />
    <circle cx="292.877" cy="1.965" r="1.965" fill="#334155" />
    <circle cx="306.731" cy="1.965" r="1.965" fill="#334155" />
    <circle cx="320.584" cy="1.965" r="1.965" fill="#334155" />
    <circle cx="334.438" cy="1.965" r="1.965" fill="#334155" />
    <circle cx="348.29" cy="1.965" r="1.965" fill="#334155" />
    <circle cx="362.143" cy="1.965" r="1.965" fill="#334155" />
    <circle cx="375.997" cy="1.965" r="1.965" fill="#334155" />
    <circle cx="1.965" cy="15.818" r="1.965" fill="#334155" />
    <circle cx="15.819" cy="15.818" r="1.965" fill="#334155" />
    <circle cx="29.67" cy="15.818" r="1.965" fill="#334155" />
    <circle cx="43.526" cy="15.818" r="1.965" fill="#334155" />
    <circle cx="57.377" cy="15.818" r="1.965" fill="#334155" />
    <circle cx="71.231" cy="15.818" r="1.965" fill="#334155" />
    <circle cx="85.083" cy="15.818" r="1.965" fill="#334155" />
    <circle cx="98.936" cy="15.818" r="1.965" fill="#334155" />
    <circle cx="112.79" cy="15.818" r="1.965" fill="#334155" />
    <circle cx="126.643" cy="15.818" r="1.965" fill="#334155" />
    <circle cx="140.497" cy="15.818" r="1.965" fill="#334155" />
    <circle cx="154.348" cy="15.818" r="1.965" fill="#334155" />
    <circle cx="168.202" cy="15.818" r="1.965" fill="#334155" />
    <circle cx="182.055" cy="15.818" r="1.965" fill="#334155" />
    <circle cx="195.909" cy="15.818" r="1.965" fill="#334155" />
    <circle cx="209.76" cy="15.818" r="1.965" fill="#334155" />
    <circle cx="223.614" cy="15.818" r="1.965" fill="#334155" />
    <circle cx="237.465" cy="15.818" r="1.965" fill="#334155" />
    <circle cx="265.172" cy="15.818" r="1.965" fill="#334155" />
    <circle cx="279.024" cy="15.818" r="1.965" fill="#334155" />
    <circle cx="292.877" cy="15.818" r="1.965" fill="#334155" />
    <circle cx="320.584" cy="15.818" r="1.965" fill="#334155" />
    <circle cx="334.438" cy="15.818" r="1.965" fill="#334155" />
    <circle cx="348.29" cy="15.818" r="1.965" fill="#334155" />
    <circle cx="362.143" cy="15.818" r="1.965" fill="#334155" />
    <circle cx="375.997" cy="15.818" r="1.965" fill="#334155" />
    <circle cx="1.965" cy="15.818" r="1.965" fill="#334155" />
    <circle cx="15.819" cy="15.818" r="1.965" fill="#334155" />
    <circle cx="29.67" cy="15.818" r="1.965" fill="#334155" />
    <circle cx="43.526" cy="15.818" r="1.965" fill="#334155" />
    <circle cx="57.377" cy="15.818" r="1.965" fill="#334155" />
    <circle cx="71.231" cy="15.818" r="1.965" fill="#334155" />
    <circle cx="85.083" cy="15.818" r="1.965" fill="#334155" />
    <circle cx="98.936" cy="15.818" r="1.965" fill="#334155" />
    <circle cx="112.79" cy="15.818" r="1.965" fill="#334155" />
    <circle cx="126.643" cy="15.818" r="1.965" fill="#334155" />
    <circle cx="140.497" cy="15.818" r="1.965" fill="#334155" />
    <circle cx="154.348" cy="15.818" r="1.965" fill="#334155" />
    <circle cx="168.202" cy="15.818" r="1.965" fill="#334155" />
    <circle cx="182.055" cy="15.818" r="1.965" fill="#334155" />
    <circle cx="195.909" cy="15.818" r="1.965" fill="#334155" />
    <circle cx="209.76" cy="15.818" r="1.965" fill="#334155" />
    <circle cx="223.614" cy="15.818" r="1.965" fill="#334155" />
    <circle cx="237.465" cy="15.818" r="1.965" fill="#334155" />
    <circle cx="265.172" cy="15.818" r="1.965" fill="#334155" />
    <circle cx="279.024" cy="15.818" r="1.965" fill="#334155" />
    <circle cx="292.877" cy="15.818" r="1.965" fill="#334155" />
    <circle cx="320.584" cy="15.818" r="1.965" fill="#334155" />
    <circle cx="334.438" cy="15.818" r="1.965" fill="#334155" />
    <circle cx="348.29" cy="15.818" r="1.965" fill="#334155" />
    <circle cx="362.143" cy="15.818" r="1.965" fill="#334155" />
    <circle cx="375.997" cy="15.818" r="1.965" fill="#334155" />
    <circle cx="1.965" cy="15.818" r="1.965" fill="#334155" />
    <circle cx="15.819" cy="15.818" r="1.965" fill="#334155" />
    <circle cx="29.67" cy="15.818" r="1.965" fill="#334155" />
    <circle cx="43.526" cy="15.818" r="1.965" fill="#334155" />
    <circle cx="57.377" cy="15.818" r="1.965" fill="#334155" />
    <circle cx="71.231" cy="15.818" r="1.965" fill="#334155" />
    <circle cx="85.083" cy="15.818" r="1.965" fill="#334155" />
    <circle cx="98.936" cy="15.818" r="1.965" fill="#334155" />
    <circle cx="112.79" cy="15.818" r="1.965" fill="#334155" />
    <circle cx="126.643" cy="15.818" r="1.965" fill="#334155" />
    <circle cx="140.497" cy="15.818" r="1.965" fill="#334155" />
    <circle cx="154.348" cy="15.818" r="1.965" fill="#334155" />
    <circle cx="168.202" cy="15.818" r="1.965" fill="#334155" />
    <circle cx="182.055" cy="15.818" r="1.965" fill="#334155" />
    <circle cx="195.909" cy="15.818" r="1.965" fill="#334155" />
    <circle cx="209.76" cy="15.818" r="1.965" fill="#334155" />
    <circle cx="223.614" cy="15.818" r="1.965" fill="#334155" />
    <circle cx="237.465" cy="15.818" r="1.965" fill="#334155" />
    <circle cx="265.172" cy="15.818" r="1.965" fill="#334155" />
    <circle cx="279.024" cy="15.818" r="1.965" fill="#334155" />
    <circle cx="292.877" cy="15.818" r="1.965" fill="#334155" />
    <circle cx="320.584" cy="15.818" r="1.965" fill="#334155" />
    <circle cx="334.438" cy="15.818" r="1.965" fill="#334155" />
    <circle cx="348.29" cy="15.818" r="1.965" fill="#334155" />
    <circle cx="362.143" cy="15.818" r="1.965" fill="#334155" />
    <circle cx="375.997" cy="15.818" r="1.965" fill="#334155" />
    <circle cx="1.965" cy="15.818" r="1.965" fill="#334155" />
    <circle cx="15.819" cy="15.818" r="1.965" fill="#334155" />
    <circle cx="29.67" cy="15.818" r="1.965" fill="#334155" />
    <circle cx="43.526" cy="15.818" r="1.965" fill="#334155" />
    <circle cx="57.377" cy="15.818" r="1.965" fill="#334155" />
    <circle cx="71.231" cy="15.818" r="1.965" fill="#334155" />
    <circle cx="85.083" cy="15.818" r="1.965" fill="#334155" />
    <circle cx="98.936" cy="15.818" r="1.965" fill="#334155" />
    <circle cx="112.79" cy="15.818" r="1.965" fill="#334155" />
    <circle cx="126.643" cy="15.818" r="1.965" fill="#334155" />
    <circle cx="140.497" cy="15.818" r="1.965" fill="#334155" />
    <circle cx="154.348" cy="15.818" r="1.965" fill="#334155" />
    <circle cx="168.202" cy="15.818" r="1.965" fill="#334155" />
    <circle cx="182.055" cy="15.818" r="1.965" fill="#334155" />
    <circle cx="195.909" cy="15.818" r="1.965" fill="#334155" />
    <circle cx="209.76" cy="15.818" r="1.965" fill="#334155" />
    <circle cx="223.614" cy="15.818" r="1.965" fill="#334155" />
    <circle cx="237.465" cy="15.818" r="1.965" fill="#334155" />
    <circle cx="265.172" cy="15.818" r="1.965" fill="#334155" />
    <circle cx="279.024" cy="15.818" r="1.965" fill="#334155" />
    <circle cx="292.877" cy="15.818" r="1.965" fill="#334155" />
    <circle cx="320.584" cy="15.818" r="1.965" fill="#334155" />
    <circle cx="334.438" cy="15.818" r="1.965" fill="#334155" />
    <circle cx="348.29" cy="15.818" r="1.965" fill="#334155" />
    <circle cx="362.143" cy="15.818" r="1.965" fill="#334155" />
    <circle cx="375.997" cy="15.818" r="1.965" fill="#334155" />
    <circle cx="1.965" cy="15.818" r="1.965" fill="#334155" />
    <circle cx="15.819" cy="15.818" r="1.965" fill="#334155" />
    <circle cx="29.67" cy="15.818" r="1.965" fill="#334155" />
    <circle cx="43.526" cy="15.818" r="1.965" fill="#334155" />
    <circle cx="57.377" cy="15.818" r="1.965" fill="#334155" />
    <circle cx="71.231" cy="15.818" r="1.965" fill="#334155" />
    <circle cx="85.083" cy="15.818" r="1.965" fill="#334155" />
    <circle cx="98.936" cy="15.818" r="1.965" fill="#334155" />
    <circle cx="112.79" cy="15.818" r="1.965" fill="#334155" />
    <circle cx="126.643" cy="15.818" r="1.965" fill="#334155" />
    <circle cx="140.497" cy="15.818" r="1.965" fill="#334155" />
    <circle cx="154.348" cy="15.818" r="1.965" fill="#334155" />
    <circle cx="168.202" cy="15.818" r="1.965" fill="#334155" />
    <circle cx="182.055" cy="15.818" r="1.965" fill="#334155" />
    <circle cx="195.909" cy="15.818" r="1.965" fill="#334155" />
    <circle cx="209.76" cy="15.818" r="1.965" fill="#334155" />
    <circle cx="223.614" cy="15.818" r="1.965" fill="#334155" />
    <circle cx="237.465" cy="15.818" r="1.965" fill="#334155" />
    <circle cx="251.504" cy="15.499" r="1.965" fill="#334155" />
    <circle cx="251.504" cy="29.879" r="1.965" fill="#334155" />
    <circle cx="265.172" cy="15.818" r="1.965" fill="#334155" />
    <circle cx="279.024" cy="15.818" r="1.965" fill="#334155" />
    <circle cx="292.877" cy="15.818" r="1.965" fill="#334155" />
    <circle cx="320.584" cy="15.818" r="1.965" fill="#334155" />
    <circle cx="334.438" cy="15.818" r="1.965" fill="#334155" />
    <circle cx="348.29" cy="15.818" r="1.965" fill="#334155" />
    <circle cx="362.143" cy="15.818" r="1.965" fill="#334155" />
    <circle cx="375.997" cy="15.818" r="1.965" fill="#334155" />
    <circle cx="1.965" cy="29.671" r="1.965" fill="#334155" />
    <circle cx="15.819" cy="29.671" r="1.965" fill="#334155" />
    <circle cx="29.67" cy="29.671" r="1.965" fill="#334155" />
    <circle cx="43.526" cy="29.671" r="1.965" fill="#334155" />
    <circle cx="57.377" cy="29.671" r="1.965" fill="#334155" />
    <circle cx="71.231" cy="29.671" r="1.965" fill="#334155" />
    <circle cx="85.083" cy="29.671" r="1.965" fill="#334155" />
    <circle cx="98.936" cy="29.671" r="1.965" fill="#334155" />
    <circle cx="112.79" cy="29.671" r="1.965" fill="#334155" />
    <circle cx="126.643" cy="29.671" r="1.965" fill="#334155" />
    <circle cx="140.497" cy="29.671" r="1.965" fill="#334155" />
    <circle cx="154.348" cy="29.671" r="1.965" fill="#334155" />
    <circle cx="168.202" cy="29.671" r="1.965" fill="#334155" />
    <circle cx="182.055" cy="29.671" r="1.965" fill="#334155" />
    <circle cx="195.909" cy="29.671" r="1.965" fill="#334155" />
    <circle cx="195.674" cy="43.414" r="1.965" fill="#334155" />
    <circle cx="195.674" cy="56.948" r="1.965" fill="#334155" />
    <circle cx="195.674" cy="71.328" r="1.965" fill="#334155" />
    <circle cx="195.674" cy="84.862" r="1.965" fill="#334155" />
    <circle cx="195.674" cy="99.243" r="1.965" fill="#334155" />
    <circle cx="195.674" cy="112.777" r="1.965" fill="#334155" />
    <circle cx="195.674" cy="126.311" r="1.965" fill="#334155" />
    <circle cx="209.674" cy="84.862" r="1.965" fill="#334155" />
    <circle cx="209.674" cy="99.243" r="1.965" fill="#334155" />
    <circle cx="209.674" cy="112.777" r="1.965" fill="#334155" />
    <circle cx="209.674" cy="126.311" r="1.965" fill="#334155" />
    <circle cx="195.674" cy="140.691" r="1.965" fill="#334155" />
    <circle cx="209.76" cy="29.671" r="1.965" fill="#334155" />
    <circle cx="210.055" cy="43.414" r="1.965" fill="#334155" />
    <circle cx="223.588" cy="43.414" r="1.965" fill="#334155" />
    <circle cx="237.122" cy="43.414" r="1.965" fill="#334155" />
    <circle cx="251.504" cy="43.414" r="1.965" fill="#334155" />
    <circle cx="223.614" cy="29.671" r="1.965" fill="#334155" />
    <circle cx="237.465" cy="29.671" r="1.965" fill="#334155" />
    <circle cx="265.172" cy="29.671" r="1.965" fill="#334155" />
    <circle cx="279.024" cy="29.671" r="1.965" fill="#334155" />
    <circle cx="292.877" cy="29.671" r="1.965" fill="#334155" />
    <circle cx="320.584" cy="29.671" r="1.965" fill="#334155" />
    <circle cx="334.438" cy="29.671" r="1.965" fill="#334155" />
    <circle cx="348.29" cy="29.671" r="1.965" fill="#334155" />
    <circle cx="362.143" cy="29.671" r="1.965" fill="#334155" />
    <circle cx="375.997" cy="29.671" r="1.965" fill="#334155" />
    <circle cx="1.965" cy="43.524" r="1.965" fill="#334155" />
    <circle cx="15.819" cy="43.524" r="1.965" fill="#334155" />
    <circle cx="29.67" cy="43.524" r="1.965" fill="#334155" />
    <circle cx="43.526" cy="43.524" r="1.965" fill="#334155" />
    <circle cx="57.377" cy="43.524" r="1.965" fill="#334155" />
    <circle cx="71.231" cy="43.524" r="1.965" fill="#334155" />
    <circle cx="85.083" cy="43.524" r="1.965" fill="#334155" />
    <circle cx="98.936" cy="43.524" r="1.965" fill="#334155" />
    <circle cx="112.79" cy="43.524" r="1.965" fill="#334155" />
    <circle cx="126.643" cy="43.524" r="1.965" fill="#334155" />
    <circle cx="140.497" cy="43.524" r="1.965" fill="#334155" />
    <circle cx="154.348" cy="43.524" r="1.965" fill="#334155" />
    <circle cx="168.202" cy="43.524" r="1.965" fill="#334155" />
    <circle cx="182.055" cy="43.524" r="1.965" fill="#334155" />
    <circle cx="265.172" cy="43.524" r="1.965" fill="#334155" />
    <circle cx="279.024" cy="43.524" r="1.965" fill="#334155" />
    <circle cx="292.877" cy="43.524" r="1.965" fill="#334155" />
    <circle cx="320.584" cy="43.524" r="1.965" fill="#334155" />
    <circle cx="334.438" cy="43.524" r="1.965" fill="#334155" />
    <circle cx="348.29" cy="43.524" r="1.965" fill="#334155" />
    <circle cx="362.143" cy="43.524" r="1.965" fill="#334155" />
    <circle cx="375.997" cy="43.524" r="1.965" fill="#334155" />
    <circle cx="1.965" cy="57.377" r="1.965" fill="#334155" />
    <circle cx="16.344" cy="57.794" r="1.965" fill="#334155" />
    <circle cx="29.67" cy="57.377" r="1.965" fill="#334155" />
    <circle cx="43.526" cy="57.377" r="1.965" fill="#334155" />
    <circle cx="57.377" cy="57.377" r="1.965" fill="#334155" />
    <circle cx="71.231" cy="57.377" r="1.965" fill="#334155" />
    <circle cx="85.083" cy="57.377" r="1.965" fill="#334155" />
    <circle cx="98.936" cy="57.377" r="1.965" fill="#334155" />
    <circle cx="112.79" cy="57.377" r="1.965" fill="#334155" />
    <circle cx="126.643" cy="57.377" r="1.965" fill="#334155" />
    <circle cx="140.497" cy="57.377" r="1.965" fill="#334155" />
    <circle cx="154.348" cy="57.377" r="1.965" fill="#334155" />
    <circle cx="168.202" cy="57.377" r="1.965" fill="#334155" />
    <circle cx="182.055" cy="57.377" r="1.965" fill="#334155" />
    <circle cx="209.76" cy="57.377" r="1.965" fill="#334155" />
    <circle cx="223.614" cy="57.377" r="1.965" fill="#334155" />
    <circle cx="237.465" cy="57.377" r="1.965" fill="#334155" />
    <circle cx="251.319" cy="57.377" r="1.965" fill="#334155" />
    <circle cx="265.172" cy="57.377" r="1.965" fill="#334155" />
    <circle cx="279.024" cy="57.377" r="1.965" fill="#334155" />
    <circle cx="292.877" cy="57.377" r="1.965" fill="#334155" />
    <circle cx="320.584" cy="57.377" r="1.965" fill="#334155" />
    <circle cx="334.438" cy="57.377" r="1.965" fill="#334155" />
    <circle cx="348.29" cy="57.377" r="1.965" fill="#334155" />
    <circle cx="362.143" cy="57.377" r="1.965" fill="#334155" />
    <circle cx="375.997" cy="57.377" r="1.965" fill="#334155" />
    <circle cx="1.965" cy="71.23" r="1.965" fill="#334155" />
    <circle cx="15.819" cy="71.23" r="1.965" fill="#334155" />
    <circle cx="29.67" cy="71.23" r="1.965" fill="#334155" />
    <circle cx="43.526" cy="71.23" r="1.965" fill="#334155" />
    <circle cx="43.415" cy="84.862" r="1.965" fill="#334155" />
    <circle cx="57.378" cy="71.23" r="1.965" fill="#334155" />
    <circle cx="57.794" cy="84.862" r="1.965" fill="#334155" />
    <circle cx="71.231" cy="71.23" r="1.965" fill="#334155" />
    <circle cx="71.329" cy="84.862" r="1.965" fill="#334155" />
    <circle cx="71.329" cy="99.243" r="1.965" fill="#334155" />
    <circle cx="71.329" cy="112.777" r="1.965" fill="#334155" />
    <circle cx="71.329" cy="126.311" r="1.965" fill="#334155" />
    <circle cx="71.329" cy="140.691" r="1.965" fill="#334155" />
    <circle cx="85.083" cy="71.23" r="1.965" fill="#334155" />
    <circle cx="98.936" cy="71.23" r="1.965" fill="#334155" />
    <circle cx="112.79" cy="71.23" r="1.965" fill="#334155" />
    <circle cx="126.643" cy="71.23" r="1.965" fill="#334155" />
    <circle cx="140.497" cy="71.23" r="1.965" fill="#334155" />
    <circle cx="154.348" cy="71.23" r="1.965" fill="#334155" />
    <circle cx="168.202" cy="71.23" r="1.965" fill="#334155" />
    <circle cx="182.055" cy="71.23" r="1.965" fill="#334155" />
    <circle cx="209.76" cy="71.23" r="1.965" fill="#334155" />
    <circle cx="223.614" cy="71.23" r="1.965" fill="#334155" />
    <circle cx="237.465" cy="71.23" r="1.965" fill="#334155" />
    <circle cx="251.319" cy="71.23" r="1.965" fill="#334155" />
    <circle cx="265.172" cy="71.23" r="1.965" fill="#334155" />
    <circle cx="279.024" cy="71.23" r="1.965" fill="#334155" />
    <circle cx="292.877" cy="71.23" r="1.965" fill="#334155" />
    <circle cx="320.584" cy="71.23" r="1.965" fill="#334155" />
    <circle cx="334.438" cy="71.23" r="1.965" fill="#334155" />
    <circle cx="348.29" cy="71.23" r="1.965" fill="#334155" />
    <circle cx="362.143" cy="71.23" r="1.965" fill="#334155" />
    <circle cx="375.997" cy="71.23" r="1.965" fill="#334155" />
    <circle cx="1.965" cy="85.083" r="1.965" fill="#334155" />
    <circle cx="15.819" cy="85.083" r="1.965" fill="#334155" />
    <circle cx="29.67" cy="85.083" r="1.965" fill="#334155" />
    <circle cx="85.083" cy="85.083" r="1.965" fill="#334155" />
    <circle cx="98.936" cy="85.083" r="1.965" fill="#334155" />
    <circle cx="112.79" cy="85.083" r="1.965" fill="#334155" />
    <circle cx="126.643" cy="85.083" r="1.965" fill="#334155" />
    <circle cx="140.497" cy="85.083" r="1.965" fill="#334155" />
    <circle cx="154.348" cy="85.083" r="1.965" fill="#334155" />
    <circle cx="168.202" cy="85.083" r="1.965" fill="#334155" />
    <circle cx="182.055" cy="85.083" r="1.965" fill="#334155" />
    <circle cx="223.614" cy="85.083" r="1.965" fill="#334155" />
    <circle cx="237.465" cy="85.083" r="1.965" fill="#334155" />
    <circle cx="251.319" cy="85.083" r="1.965" fill="#334155" />
    <circle cx="265.172" cy="85.083" r="1.965" fill="#334155" />
    <circle cx="279.024" cy="85.083" r="1.965" fill="#334155" />
    <circle cx="292.877" cy="85.083" r="1.965" fill="#334155" />
    <circle cx="320.584" cy="85.083" r="1.965" fill="#334155" />
    <circle cx="334.438" cy="85.083" r="1.965" fill="#334155" />
    <circle cx="348.29" cy="85.083" r="1.965" fill="#334155" />
    <circle cx="362.143" cy="85.083" r="1.965" fill="#334155" />
    <circle cx="375.997" cy="85.083" r="1.965" fill="#334155" />
    <circle cx="1.965" cy="98.936" r="1.965" fill="#334155" />
    <circle cx="15.819" cy="98.936" r="1.965" fill="#334155" />
    <circle cx="29.67" cy="98.936" r="1.965" fill="#334155" />
    <circle cx="43.526" cy="98.936" r="1.965" fill="#334155" />
    <circle cx="57.377" cy="98.936" r="1.965" fill="#334155" />
    <circle cx="85.083" cy="98.936" r="1.965" fill="#334155" />
    <circle cx="98.936" cy="98.936" r="1.965" fill="#334155" />
    <circle cx="112.79" cy="98.936" r="1.965" fill="#334155" />
    <circle cx="126.643" cy="98.936" r="1.965" fill="#334155" />
    <circle cx="140.497" cy="98.936" r="1.965" fill="#334155" />
    <circle cx="154.348" cy="98.936" r="1.965" fill="#334155" />
    <circle cx="168.202" cy="98.936" r="1.965" fill="#334155" />
    <circle cx="182.055" cy="98.936" r="1.965" fill="#334155" />
    <circle cx="223.614" cy="98.936" r="1.965" fill="#334155" />
    <circle cx="237.465" cy="98.936" r="1.965" fill="#334155" />
    <circle cx="251.319" cy="98.936" r="1.965" fill="#334155" />
    <circle cx="265.172" cy="98.936" r="1.965" fill="#334155" />
    <circle cx="279.024" cy="98.936" r="1.965" fill="#334155" />
    <circle cx="292.877" cy="98.936" r="1.965" fill="#334155" />
    <circle cx="320.584" cy="98.936" r="1.965" fill="#334155" />
    <circle cx="334.438" cy="98.936" r="1.965" fill="#334155" />
    <circle cx="348.29" cy="98.936" r="1.965" fill="#334155" />
    <circle cx="362.143" cy="98.936" r="1.965" fill="#334155" />
    <circle cx="375.997" cy="98.936" r="1.965" fill="#334155" />
    <circle cx="1.965" cy="112.789" r="1.965" fill="#334155" />
    <circle cx="15.819" cy="112.789" r="1.965" fill="#334155" />
    <circle cx="29.67" cy="112.789" r="1.965" fill="#334155" />
    <circle cx="43.526" cy="112.789" r="1.965" fill="#334155" />
    <circle cx="57.377" cy="112.789" r="1.965" fill="#334155" />
    <circle cx="85.083" cy="112.789" r="1.965" fill="#334155" />
    <circle cx="98.936" cy="112.789" r="1.965" fill="#334155" />
    <circle cx="112.79" cy="112.789" r="1.965" fill="#334155" />
    <circle cx="126.643" cy="112.789" r="1.965" fill="#334155" />
    <circle cx="140.497" cy="112.789" r="1.965" fill="#334155" />
    <circle cx="154.348" cy="112.789" r="1.965" fill="#334155" />
    <circle cx="168.202" cy="112.789" r="1.965" fill="#334155" />
    <circle cx="182.055" cy="112.789" r="1.965" fill="#334155" />
    <circle cx="223.614" cy="112.789" r="1.965" fill="#334155" />
    <circle cx="237.465" cy="112.789" r="1.965" fill="#334155" />
    <circle cx="251.319" cy="112.789" r="1.965" fill="#334155" />
    <circle cx="265.172" cy="112.789" r="1.965" fill="#334155" />
    <circle cx="279.024" cy="112.789" r="1.965" fill="#334155" />
    <circle cx="292.877" cy="112.789" r="1.965" fill="#334155" />
    <circle cx="320.584" cy="112.789" r="1.965" fill="#334155" />
    <circle cx="334.438" cy="112.789" r="1.965" fill="#334155" />
    <circle cx="348.29" cy="112.789" r="1.965" fill="#334155" />
    <circle cx="362.143" cy="112.789" r="1.965" fill="#334155" />
    <circle cx="375.997" cy="112.789" r="1.965" fill="#334155" />
    <circle cx="1.965" cy="126.642" r="1.965" fill="#334155" />
    <circle cx="15.819" cy="126.642" r="1.965" fill="#334155" />
    <circle cx="29.67" cy="126.642" r="1.965" fill="#334155" />
    <circle cx="43.526" cy="126.642" r="1.965" fill="#334155" />
    <circle cx="57.377" cy="126.642" r="1.965" fill="#334155" />
    <circle cx="85.083" cy="126.642" r="1.965" fill="#334155" />
    <circle cx="98.936" cy="126.642" r="1.965" fill="#334155" />
    <circle cx="112.79" cy="126.642" r="1.965" fill="#334155" />
    <circle cx="126.643" cy="126.642" r="1.965" fill="#334155" />
    <circle cx="140.497" cy="126.642" r="1.965" fill="#334155" />
    <circle cx="154.348" cy="126.642" r="1.965" fill="#334155" />
    <circle cx="168.202" cy="126.642" r="1.965" fill="#334155" />
    <circle cx="182.055" cy="126.642" r="1.965" fill="#334155" />
    <circle cx="223.614" cy="126.642" r="1.965" fill="#334155" />
    <circle cx="237.465" cy="126.642" r="1.965" fill="#334155" />
    <circle cx="251.319" cy="126.642" r="1.965" fill="#334155" />
    <circle cx="265.172" cy="126.642" r="1.965" fill="#334155" />
    <circle cx="279.024" cy="126.642" r="1.965" fill="#334155" />
    <circle cx="292.877" cy="126.642" r="1.965" fill="#334155" />
    <circle cx="320.584" cy="126.642" r="1.965" fill="#334155" />
    <circle cx="334.438" cy="126.642" r="1.965" fill="#334155" />
    <circle cx="348.29" cy="126.642" r="1.965" fill="#334155" />
    <circle cx="362.143" cy="126.642" r="1.965" fill="#334155" />
    <circle cx="375.997" cy="126.642" r="1.965" fill="#334155" />
    <circle cx="1.965" cy="140.495" r="1.965" fill="#334155" />
    <circle cx="15.819" cy="140.495" r="1.965" fill="#334155" />
    <circle cx="29.67" cy="140.495" r="1.965" fill="#334155" />
    <circle cx="43.526" cy="140.495" r="1.965" fill="#334155" />
    <circle cx="57.377" cy="140.495" r="1.965" fill="#334155" />
    <circle cx="85.083" cy="140.495" r="1.965" fill="#334155" />
    <circle cx="98.936" cy="140.495" r="1.965" fill="#334155" />
    <circle cx="112.79" cy="140.495" r="1.965" fill="#334155" />
    <circle cx="126.643" cy="140.495" r="1.965" fill="#334155" />
    <circle cx="140.497" cy="140.495" r="1.965" fill="#334155" />
    <circle cx="154.348" cy="140.495" r="1.965" fill="#334155" />
    <circle cx="168.202" cy="140.495" r="1.965" fill="#334155" />
    <circle cx="182.055" cy="140.495" r="1.965" fill="#334155" />
    <circle cx="223.614" cy="140.495" r="1.965" fill="#334155" />
    <circle cx="237.465" cy="140.495" r="1.965" fill="#334155" />
    <circle cx="251.319" cy="140.495" r="1.965" fill="#334155" />
    <circle cx="265.172" cy="140.495" r="1.965" fill="#334155" />
    <circle cx="279.024" cy="140.495" r="1.965" fill="#334155" />
    <circle cx="292.877" cy="140.495" r="1.965" fill="#334155" />
    <circle cx="320.584" cy="140.495" r="1.965" fill="#334155" />
    <circle cx="334.438" cy="140.495" r="1.965" fill="#334155" />
    <circle cx="348.29" cy="140.495" r="1.965" fill="#334155" />
    <circle cx="362.143" cy="140.495" r="1.965" fill="#334155" />
    <circle cx="375.997" cy="140.495" r="1.965" fill="#334155" />
    <circle cx="306.487" cy="126.311" r="1.965" fill="#334155" />
    <circle cx="306.487" cy="112.777" r="1.965" fill="#334155" />
    <circle cx="306.487" cy="99.243" r="1.965" fill="#334155" />
    <circle cx="306.487" cy="84.862" r="1.965" fill="#334155" />
    <circle cx="306.487" cy="71.328" r="1.965" fill="#334155" />
    <circle cx="306.487" cy="57.794" r="1.965" fill="#334155" />
    <circle cx="306.487" cy="43.414" r="1.965" fill="#334155" />
    <circle cx="306.487" cy="29.879" r="1.965" fill="#334155" />
    <circle cx="306.487" cy="16.345" r="1.965" fill="#334155" />
    <circle cx="306.487" cy="140.691" r="1.965" fill="#334155" />
    <path fill="url(#b)" d="M342.089-95.896h258.267v214.335H342.089z" transform="rotate(64.557 342.089 -95.896)" />
  </g>
  <defs>
    <linearGradient id="b" x1="471.312" x2="467.021" y1="-55.631" y2="118.335" gradientUnits="userSpaceOnUse">
      <stop stop-color="#020420" />
      <stop offset="1" stop-color="#020420" stop-opacity="0" />
    </linearGradient>
    <clipPath id="a">
      <path fill="#fff" d="M0 0h377v140H0z" />
    </clipPath>
  </defs>
</svg>
